<?xml version="1.0" encoding="utf-8" standalone="no"?>
<!DOCTYPE svg PUBLIC "-//W3C//DTD SVG 1.1//EN"
  "http://www.w3.org/Graphics/SVG/1.1/DTD/svg11.dtd">
<svg xmlns:xlink="http://www.w3.org/1999/xlink" width="818.503125pt" height="283.078125pt" viewBox="0 0 818.503125 283.078125" xmlns="http://www.w3.org/2000/svg" version="1.1">
 <metadata>
  <rdf:RDF xmlns:dc="http://purl.org/dc/elements/1.1/" xmlns:cc="http://creativecommons.org/ns#" xmlns:rdf="http://www.w3.org/1999/02/22-rdf-syntax-ns#">
   <cc:Work>
    <dc:type rdf:resource="http://purl.org/dc/dcmitype/StillImage"/>
    <dc:date>2023-01-28T12:24:09.395433</dc:date>
    <dc:format>image/svg+xml</dc:format>
    <dc:creator>
     <cc:Agent>
      <dc:title>Matplotlib v3.6.2, https://matplotlib.org/</dc:title>
     </cc:Agent>
    </dc:creator>
   </cc:Work>
  </rdf:RDF>
 </metadata>
 <defs>
  <style type="text/css">*{stroke-linejoin: round; stroke-linecap: butt}</style>
 </defs>
 <g id="figure_1">
  <g id="patch_1">
   <path d="M 0 283.078125 
L 818.503125 283.078125 
L 818.503125 0 
L 0 0 
z
" style="fill: #ffffff"/>
  </g>
  <g id="axes_1">
   <g id="patch_2">
    <path d="M 30.103125 259.2 
L 385.194034 259.2 
L 385.194034 7.2 
L 30.103125 7.2 
z
" style="fill: #ffffff"/>
   </g>
   <g id="matplotlib.axis_1">
    <g id="xtick_1">
     <g id="line2d_1">
      <defs>
       <path id="m75ffcc7c7f" d="M 0 0 
L 0 3.5 
" style="stroke: #000000; stroke-width: 0.8"/>
      </defs>
      <g>
       <use xlink:href="#m75ffcc7c7f" x="46.243621" y="259.2" style="stroke: #000000; stroke-width: 0.8"/>
      </g>
     </g>
     <g id="text_1">
      <!-- 0 -->
      <g transform="translate(43.062371 273.798437) scale(0.1 -0.1)">
       <defs>
        <path id="DejaVuSans-30" d="M 2034 4250 
Q 1547 4250 1301 3770 
Q 1056 3291 1056 2328 
Q 1056 1369 1301 889 
Q 1547 409 2034 409 
Q 2525 409 2770 889 
Q 3016 1369 3016 2328 
Q 3016 3291 2770 3770 
Q 2525 4250 2034 4250 
z
M 2034 4750 
Q 2819 4750 3233 4129 
Q 3647 3509 3647 2328 
Q 3647 1150 3233 529 
Q 2819 -91 2034 -91 
Q 1250 -91 836 529 
Q 422 1150 422 2328 
Q 422 3509 836 4129 
Q 1250 4750 2034 4750 
z
" transform="scale(0.015625)"/>
       </defs>
       <use xlink:href="#DejaVuSans-30"/>
      </g>
     </g>
    </g>
    <g id="xtick_2">
     <g id="line2d_2">
      <g>
       <use xlink:href="#m75ffcc7c7f" x="86.797631" y="259.2" style="stroke: #000000; stroke-width: 0.8"/>
      </g>
     </g>
     <g id="text_2">
      <!-- 25 -->
      <g transform="translate(80.435131 273.798437) scale(0.1 -0.1)">
       <defs>
        <path id="DejaVuSans-32" d="M 1228 531 
L 3431 531 
L 3431 0 
L 469 0 
L 469 531 
Q 828 903 1448 1529 
Q 2069 2156 2228 2338 
Q 2531 2678 2651 2914 
Q 2772 3150 2772 3378 
Q 2772 3750 2511 3984 
Q 2250 4219 1831 4219 
Q 1534 4219 1204 4116 
Q 875 4013 500 3803 
L 500 4441 
Q 881 4594 1212 4672 
Q 1544 4750 1819 4750 
Q 2544 4750 2975 4387 
Q 3406 4025 3406 3419 
Q 3406 3131 3298 2873 
Q 3191 2616 2906 2266 
Q 2828 2175 2409 1742 
Q 1991 1309 1228 531 
z
" transform="scale(0.015625)"/>
        <path id="DejaVuSans-35" d="M 691 4666 
L 3169 4666 
L 3169 4134 
L 1269 4134 
L 1269 2991 
Q 1406 3038 1543 3061 
Q 1681 3084 1819 3084 
Q 2600 3084 3056 2656 
Q 3513 2228 3513 1497 
Q 3513 744 3044 326 
Q 2575 -91 1722 -91 
Q 1428 -91 1123 -41 
Q 819 9 494 109 
L 494 744 
Q 775 591 1075 516 
Q 1375 441 1709 441 
Q 2250 441 2565 725 
Q 2881 1009 2881 1497 
Q 2881 1984 2565 2268 
Q 2250 2553 1709 2553 
Q 1456 2553 1204 2497 
Q 953 2441 691 2322 
L 691 4666 
z
" transform="scale(0.015625)"/>
       </defs>
       <use xlink:href="#DejaVuSans-32"/>
       <use xlink:href="#DejaVuSans-35" x="63.623047"/>
      </g>
     </g>
    </g>
    <g id="xtick_3">
     <g id="line2d_3">
      <g>
       <use xlink:href="#m75ffcc7c7f" x="127.35164" y="259.2" style="stroke: #000000; stroke-width: 0.8"/>
      </g>
     </g>
     <g id="text_3">
      <!-- 50 -->
      <g transform="translate(120.98914 273.798437) scale(0.1 -0.1)">
       <use xlink:href="#DejaVuSans-35"/>
       <use xlink:href="#DejaVuSans-30" x="63.623047"/>
      </g>
     </g>
    </g>
    <g id="xtick_4">
     <g id="line2d_4">
      <g>
       <use xlink:href="#m75ffcc7c7f" x="167.90565" y="259.2" style="stroke: #000000; stroke-width: 0.8"/>
      </g>
     </g>
     <g id="text_4">
      <!-- 75 -->
      <g transform="translate(161.54315 273.798437) scale(0.1 -0.1)">
       <defs>
        <path id="DejaVuSans-37" d="M 525 4666 
L 3525 4666 
L 3525 4397 
L 1831 0 
L 1172 0 
L 2766 4134 
L 525 4134 
L 525 4666 
z
" transform="scale(0.015625)"/>
       </defs>
       <use xlink:href="#DejaVuSans-37"/>
       <use xlink:href="#DejaVuSans-35" x="63.623047"/>
      </g>
     </g>
    </g>
    <g id="xtick_5">
     <g id="line2d_5">
      <g>
       <use xlink:href="#m75ffcc7c7f" x="208.45966" y="259.2" style="stroke: #000000; stroke-width: 0.8"/>
      </g>
     </g>
     <g id="text_5">
      <!-- 100 -->
      <g transform="translate(198.91591 273.798437) scale(0.1 -0.1)">
       <defs>
        <path id="DejaVuSans-31" d="M 794 531 
L 1825 531 
L 1825 4091 
L 703 3866 
L 703 4441 
L 1819 4666 
L 2450 4666 
L 2450 531 
L 3481 531 
L 3481 0 
L 794 0 
L 794 531 
z
" transform="scale(0.015625)"/>
       </defs>
       <use xlink:href="#DejaVuSans-31"/>
       <use xlink:href="#DejaVuSans-30" x="63.623047"/>
       <use xlink:href="#DejaVuSans-30" x="127.246094"/>
      </g>
     </g>
    </g>
    <g id="xtick_6">
     <g id="line2d_6">
      <g>
       <use xlink:href="#m75ffcc7c7f" x="249.013669" y="259.2" style="stroke: #000000; stroke-width: 0.8"/>
      </g>
     </g>
     <g id="text_6">
      <!-- 125 -->
      <g transform="translate(239.469919 273.798437) scale(0.1 -0.1)">
       <use xlink:href="#DejaVuSans-31"/>
       <use xlink:href="#DejaVuSans-32" x="63.623047"/>
       <use xlink:href="#DejaVuSans-35" x="127.246094"/>
      </g>
     </g>
    </g>
    <g id="xtick_7">
     <g id="line2d_7">
      <g>
       <use xlink:href="#m75ffcc7c7f" x="289.567679" y="259.2" style="stroke: #000000; stroke-width: 0.8"/>
      </g>
     </g>
     <g id="text_7">
      <!-- 150 -->
      <g transform="translate(280.023929 273.798437) scale(0.1 -0.1)">
       <use xlink:href="#DejaVuSans-31"/>
       <use xlink:href="#DejaVuSans-35" x="63.623047"/>
       <use xlink:href="#DejaVuSans-30" x="127.246094"/>
      </g>
     </g>
    </g>
    <g id="xtick_8">
     <g id="line2d_8">
      <g>
       <use xlink:href="#m75ffcc7c7f" x="330.121689" y="259.2" style="stroke: #000000; stroke-width: 0.8"/>
      </g>
     </g>
     <g id="text_8">
      <!-- 175 -->
      <g transform="translate(320.577939 273.798437) scale(0.1 -0.1)">
       <use xlink:href="#DejaVuSans-31"/>
       <use xlink:href="#DejaVuSans-37" x="63.623047"/>
       <use xlink:href="#DejaVuSans-35" x="127.246094"/>
      </g>
     </g>
    </g>
    <g id="xtick_9">
     <g id="line2d_9">
      <g>
       <use xlink:href="#m75ffcc7c7f" x="370.675699" y="259.2" style="stroke: #000000; stroke-width: 0.8"/>
      </g>
     </g>
     <g id="text_9">
      <!-- 200 -->
      <g transform="translate(361.131949 273.798437) scale(0.1 -0.1)">
       <use xlink:href="#DejaVuSans-32"/>
       <use xlink:href="#DejaVuSans-30" x="63.623047"/>
       <use xlink:href="#DejaVuSans-30" x="127.246094"/>
      </g>
     </g>
    </g>
   </g>
   <g id="matplotlib.axis_2">
    <g id="ytick_1">
     <g id="line2d_10">
      <defs>
       <path id="mc445d9aae4" d="M 0 0 
L -3.5 0 
" style="stroke: #000000; stroke-width: 0.8"/>
      </defs>
      <g>
       <use xlink:href="#mc445d9aae4" x="30.103125" y="243.559579" style="stroke: #000000; stroke-width: 0.8"/>
      </g>
     </g>
     <g id="text_10">
      <!-- 1.0 -->
      <g transform="translate(7.2 247.358798) scale(0.1 -0.1)">
       <defs>
        <path id="DejaVuSans-2e" d="M 684 794 
L 1344 794 
L 1344 0 
L 684 0 
L 684 794 
z
" transform="scale(0.015625)"/>
       </defs>
       <use xlink:href="#DejaVuSans-31"/>
       <use xlink:href="#DejaVuSans-2e" x="63.623047"/>
       <use xlink:href="#DejaVuSans-30" x="95.410156"/>
      </g>
     </g>
    </g>
    <g id="ytick_2">
     <g id="line2d_11">
      <g>
       <use xlink:href="#mc445d9aae4" x="30.103125" y="195.365381" style="stroke: #000000; stroke-width: 0.8"/>
      </g>
     </g>
     <g id="text_11">
      <!-- 1.5 -->
      <g transform="translate(7.2 199.1646) scale(0.1 -0.1)">
       <use xlink:href="#DejaVuSans-31"/>
       <use xlink:href="#DejaVuSans-2e" x="63.623047"/>
       <use xlink:href="#DejaVuSans-35" x="95.410156"/>
      </g>
     </g>
    </g>
    <g id="ytick_3">
     <g id="line2d_12">
      <g>
       <use xlink:href="#mc445d9aae4" x="30.103125" y="147.171182" style="stroke: #000000; stroke-width: 0.8"/>
      </g>
     </g>
     <g id="text_12">
      <!-- 2.0 -->
      <g transform="translate(7.2 150.970401) scale(0.1 -0.1)">
       <use xlink:href="#DejaVuSans-32"/>
       <use xlink:href="#DejaVuSans-2e" x="63.623047"/>
       <use xlink:href="#DejaVuSans-30" x="95.410156"/>
      </g>
     </g>
    </g>
    <g id="ytick_4">
     <g id="line2d_13">
      <g>
       <use xlink:href="#mc445d9aae4" x="30.103125" y="98.976984" style="stroke: #000000; stroke-width: 0.8"/>
      </g>
     </g>
     <g id="text_13">
      <!-- 2.5 -->
      <g transform="translate(7.2 102.776203) scale(0.1 -0.1)">
       <use xlink:href="#DejaVuSans-32"/>
       <use xlink:href="#DejaVuSans-2e" x="63.623047"/>
       <use xlink:href="#DejaVuSans-35" x="95.410156"/>
      </g>
     </g>
    </g>
    <g id="ytick_5">
     <g id="line2d_14">
      <g>
       <use xlink:href="#mc445d9aae4" x="30.103125" y="50.782785" style="stroke: #000000; stroke-width: 0.8"/>
      </g>
     </g>
     <g id="text_14">
      <!-- 3.0 -->
      <g transform="translate(7.2 54.582004) scale(0.1 -0.1)">
       <defs>
        <path id="DejaVuSans-33" d="M 2597 2516 
Q 3050 2419 3304 2112 
Q 3559 1806 3559 1356 
Q 3559 666 3084 287 
Q 2609 -91 1734 -91 
Q 1441 -91 1130 -33 
Q 819 25 488 141 
L 488 750 
Q 750 597 1062 519 
Q 1375 441 1716 441 
Q 2309 441 2620 675 
Q 2931 909 2931 1356 
Q 2931 1769 2642 2001 
Q 2353 2234 1838 2234 
L 1294 2234 
L 1294 2753 
L 1863 2753 
Q 2328 2753 2575 2939 
Q 2822 3125 2822 3475 
Q 2822 3834 2567 4026 
Q 2313 4219 1838 4219 
Q 1578 4219 1281 4162 
Q 984 4106 628 3988 
L 628 4550 
Q 988 4650 1302 4700 
Q 1616 4750 1894 4750 
Q 2613 4750 3031 4423 
Q 3450 4097 3450 3541 
Q 3450 3153 3228 2886 
Q 3006 2619 2597 2516 
z
" transform="scale(0.015625)"/>
       </defs>
       <use xlink:href="#DejaVuSans-33"/>
       <use xlink:href="#DejaVuSans-2e" x="63.623047"/>
       <use xlink:href="#DejaVuSans-30" x="95.410156"/>
      </g>
     </g>
    </g>
   </g>
   <g id="line2d_15">
    <path d="M 46.243621 18.654545 
L 47.865781 86.621434 
L 49.487942 110.547717 
L 51.110102 123.363044 
L 54.354423 140.74433 
L 55.976583 147.824446 
L 60.843064 161.567231 
L 62.465225 165.981552 
L 64.087385 168.91367 
L 65.709546 170.92465 
L 68.953866 177.35904 
L 70.576027 178.430668 
L 72.198187 180.772226 
L 73.820347 183.645836 
L 75.442508 183.90391 
L 77.064668 186.870407 
L 78.686829 188.66246 
L 80.308989 189.790714 
L 81.931149 191.795029 
L 83.55331 193.239716 
L 85.17547 195.23562 
L 88.419791 197.104578 
L 90.041951 198.080377 
L 91.664112 198.651645 
L 93.286272 200.440239 
L 94.908433 201.933393 
L 96.530593 202.613693 
L 99.774914 204.508711 
L 101.397074 204.857399 
L 103.019234 205.398596 
L 104.641395 205.681731 
L 106.263555 207.302635 
L 107.885716 208.088359 
L 109.507876 207.733421 
L 111.130036 208.772589 
L 112.752197 209.347132 
L 114.374357 211.415839 
L 115.996518 210.864162 
L 117.618678 210.873665 
L 119.240838 211.959805 
L 120.862999 212.433589 
L 122.485159 211.670604 
L 124.10732 213.645641 
L 125.72948 213.986998 
L 127.35164 214.878606 
L 128.973801 213.829637 
L 130.595961 215.283298 
L 132.218121 214.95673 
L 133.840282 216.295372 
L 135.462442 216.016454 
L 137.084603 216.900272 
L 138.706763 217.329829 
L 140.328923 217.114395 
L 141.951084 217.26739 
L 143.573244 218.896234 
L 145.195405 218.933865 
L 146.817565 218.587969 
L 148.439725 219.54497 
L 150.061886 220.181871 
L 151.684046 219.607052 
L 153.306207 219.320114 
L 154.928367 221.01065 
L 156.550527 221.324142 
L 158.172688 221.213616 
L 159.794848 222.186013 
L 161.417008 221.778242 
L 163.039169 222.518511 
L 164.661329 223.52199 
L 166.28349 222.767485 
L 167.90565 223.242796 
L 172.772131 223.930381 
L 174.394292 225.409126 
L 176.016452 224.934768 
L 177.638612 224.649898 
L 179.260773 225.545333 
L 180.882933 224.759999 
L 182.505094 226.092345 
L 184.127254 225.663121 
L 185.749414 227.09765 
L 187.371575 226.87314 
L 188.993735 226.152232 
L 190.615895 227.456289 
L 192.238056 228.345645 
L 193.860216 228.510394 
L 195.482377 227.776641 
L 197.104537 228.932896 
L 198.726697 228.262029 
L 200.348858 229.413551 
L 201.971018 228.965552 
L 203.593179 229.166116 
L 205.215339 229.961964 
L 206.837499 229.311252 
L 210.08182 230.518582 
L 211.703981 230.23717 
L 213.326141 231.347866 
L 214.948301 231.846078 
L 216.570462 231.464494 
L 218.192622 231.906678 
L 219.814782 231.836242 
L 221.436943 231.061399 
L 223.059103 232.653255 
L 224.681264 232.146678 
L 227.925584 233.696491 
L 229.547745 233.252709 
L 231.169905 232.690748 
L 232.792066 234.455822 
L 234.414226 234.219062 
L 236.036386 233.427282 
L 237.658547 235.574687 
L 240.902868 235.306467 
L 244.147188 234.931765 
L 247.391509 236.306717 
L 249.013669 236.35207 
L 250.63583 237.397064 
L 252.25799 237.673672 
L 253.880151 237.2265 
L 255.502311 237.86779 
L 257.124471 237.443152 
L 258.746632 237.816509 
L 260.368792 237.991278 
L 261.990953 238.357959 
L 263.613113 238.022198 
L 265.235273 238.380779 
L 266.857434 238.485445 
L 268.479594 239.020576 
L 270.101755 239.732118 
L 271.723915 238.637049 
L 273.346075 239.840794 
L 276.590396 238.939902 
L 278.212556 239.88787 
L 279.834717 241.085169 
L 281.456877 240.334054 
L 283.079038 240.75551 
L 284.701198 240.945618 
L 286.323358 240.449004 
L 289.567679 240.665552 
L 291.18984 241.574281 
L 292.812 241.207439 
L 294.43416 242.288466 
L 296.056321 241.527308 
L 297.678481 243.154106 
L 299.300642 241.850039 
L 300.922802 241.754209 
L 302.544962 243.318798 
L 304.167123 243.233436 
L 305.789283 241.772122 
L 307.411443 242.875154 
L 309.033604 242.424639 
L 310.655764 243.531761 
L 312.277925 243.038375 
L 313.900085 243.691696 
L 315.522245 243.673248 
L 317.144406 243.216936 
L 318.766566 243.925973 
L 320.388727 243.211662 
L 322.010887 243.878168 
L 323.633047 243.667336 
L 325.255208 245.017957 
L 326.877368 244.116427 
L 328.499529 245.486811 
L 330.121689 244.766076 
L 331.743849 244.259304 
L 333.36601 244.068351 
L 334.98817 245.525942 
L 336.61033 244.959603 
L 338.232491 245.792392 
L 339.854651 245.234729 
L 341.476812 245.9106 
L 343.098972 246.056924 
L 344.721132 246.943327 
L 346.343293 245.295169 
L 347.965453 246.14555 
L 349.587614 246.821052 
L 351.209774 246.717185 
L 352.831934 247.622255 
L 354.454095 246.175086 
L 356.076255 246.288105 
L 357.698416 247.588053 
L 359.320576 247.378974 
L 360.942736 247.745455 
L 362.564897 246.989904 
L 364.187057 247.087601 
L 365.809217 247.528734 
L 367.431378 246.343604 
L 369.053538 247.384673 
L 369.053538 247.384673 
" clip-path="url(#p4572fe6540)" style="fill: none; stroke: #1f77b4; stroke-width: 1.5; stroke-linecap: square"/>
   </g>
   <g id="line2d_16">
    <path d="M 46.243621 82.383387 
L 47.865781 124.646291 
L 49.487942 139.046809 
L 51.110102 158.024938 
L 52.732262 164.345355 
L 54.354423 172.247148 
L 55.976583 177.394752 
L 57.598744 179.458852 
L 59.220904 183.962155 
L 62.465225 193.848442 
L 64.087385 191.13394 
L 65.709546 192.068994 
L 67.331706 198.805202 
L 68.953866 194.867491 
L 70.576027 199.041088 
L 72.198187 199.159049 
L 73.820347 204.301597 
L 75.442508 202.704214 
L 78.686829 207.911568 
L 80.308989 210.199305 
L 81.931149 210.487909 
L 83.55331 204.865166 
L 85.17547 215.899183 
L 86.797631 212.698557 
L 88.419791 212.625731 
L 90.041951 213.581628 
L 91.664112 215.695849 
L 93.286272 214.813203 
L 94.908433 214.205132 
L 96.530593 216.52626 
L 98.152753 211.444691 
L 99.774914 218.842999 
L 101.397074 220.449241 
L 103.019234 219.951454 
L 104.641395 216.983256 
L 106.263555 219.013275 
L 107.885716 216.319053 
L 109.507876 216.289408 
L 111.130036 213.681445 
L 114.374357 223.715557 
L 115.996518 223.10405 
L 117.618678 219.540373 
L 119.240838 219.968643 
L 120.862999 218.319979 
L 122.485159 222.871116 
L 124.10732 220.769213 
L 125.72948 225.933961 
L 127.35164 223.610431 
L 128.973801 219.29063 
L 130.595961 227.264008 
L 132.218121 226.269343 
L 133.840282 223.73493 
L 135.462442 223.117654 
L 137.084603 221.979048 
L 138.706763 222.524451 
L 140.328923 216.8604 
L 141.951084 225.193037 
L 143.573244 223.379991 
L 146.817565 223.692427 
L 148.439725 224.620747 
L 150.061886 224.428375 
L 151.684046 227.310188 
L 153.306207 224.027601 
L 154.928367 226.540792 
L 156.550527 223.420587 
L 158.172688 230.360072 
L 159.794848 218.342167 
L 161.417008 221.734418 
L 163.039169 224.712865 
L 164.661329 224.946879 
L 166.28349 223.750982 
L 167.90565 221.938016 
L 169.52781 227.728967 
L 171.149971 225.713357 
L 172.772131 222.062193 
L 174.394292 227.577018 
L 176.016452 221.281225 
L 177.638612 230.826581 
L 179.260773 223.941033 
L 180.882933 219.965529 
L 182.505094 219.855486 
L 184.127254 225.92085 
L 185.749414 221.877232 
L 187.371575 221.097586 
L 188.993735 231.661117 
L 190.615895 229.606853 
L 192.238056 226.683514 
L 193.860216 224.487792 
L 195.482377 224.135186 
L 197.104537 224.575498 
L 198.726697 231.162687 
L 200.348858 221.965088 
L 201.971018 219.296249 
L 203.593179 220.838167 
L 205.215339 228.507855 
L 206.837499 234.368495 
L 208.45966 226.509584 
L 210.08182 232.902505 
L 211.703981 222.677607 
L 213.326141 229.024888 
L 214.948301 227.451382 
L 216.570462 228.765021 
L 218.192622 227.86568 
L 219.814782 226.741471 
L 221.436943 228.385068 
L 223.059103 232.88967 
L 224.681264 232.511441 
L 226.303424 227.133673 
L 227.925584 231.461736 
L 229.547745 226.85402 
L 231.169905 233.06514 
L 232.792066 232.439879 
L 234.414226 229.888334 
L 236.036386 222.988606 
L 237.658547 226.749308 
L 239.280707 225.86418 
L 240.902868 219.956555 
L 242.525028 233.639498 
L 244.147188 228.770157 
L 245.769349 233.342874 
L 247.391509 227.112381 
L 249.013669 218.01877 
L 250.63583 231.559565 
L 252.25799 235.769645 
L 253.880151 230.07095 
L 255.502311 228.256342 
L 257.124471 225.562488 
L 258.746632 227.149254 
L 260.368792 232.777604 
L 261.990953 225.848587 
L 263.613113 228.231718 
L 265.235273 228.845833 
L 266.857434 227.901082 
L 268.479594 229.611541 
L 270.101755 233.318457 
L 271.723915 233.790907 
L 273.346075 227.488393 
L 274.968236 225.133793 
L 276.590396 235.825109 
L 278.212556 229.226395 
L 279.834717 228.499812 
L 281.456877 228.964644 
L 283.079038 228.937285 
L 284.701198 240.558231 
L 286.323358 223.548751 
L 287.945519 229.131278 
L 289.567679 224.134623 
L 291.18984 215.894598 
L 292.812 237.326375 
L 294.43416 213.707747 
L 296.056321 229.806832 
L 297.678481 224.059487 
L 299.300642 222.87222 
L 300.922802 228.747326 
L 302.544962 229.548873 
L 304.167123 236.197225 
L 305.789283 230.317592 
L 307.411443 228.030314 
L 309.033604 225.036676 
L 310.655764 224.462651 
L 312.277925 232.518438 
L 313.900085 230.178926 
L 315.522245 239.606815 
L 317.144406 232.18277 
L 318.766566 238.136321 
L 320.388727 225.382514 
L 322.010887 226.817894 
L 323.633047 236.761197 
L 325.255208 232.25054 
L 326.877368 223.380646 
L 328.499529 234.361635 
L 330.121689 218.130112 
L 331.743849 235.794499 
L 333.36601 229.314021 
L 334.98817 236.83377 
L 336.61033 223.684349 
L 338.232491 236.915317 
L 339.854651 226.989353 
L 341.476812 224.714578 
L 343.098972 237.829918 
L 344.721132 233.558411 
L 346.343293 235.902773 
L 347.965453 225.938431 
L 349.587614 220.482655 
L 351.209774 231.836127 
L 352.831934 224.141023 
L 354.454095 231.89135 
L 356.076255 235.804426 
L 357.698416 219.746396 
L 359.320576 235.659291 
L 360.942736 221.356717 
L 362.564897 232.275888 
L 364.187057 234.816701 
L 365.809217 228.716497 
L 367.431378 231.318163 
L 369.053538 233.290501 
L 369.053538 233.290501 
" clip-path="url(#p4572fe6540)" style="fill: none; stroke: #ff7f0e; stroke-width: 1.5; stroke-linecap: square"/>
   </g>
   <g id="patch_3">
    <path d="M 30.103125 259.2 
L 30.103125 7.2 
" style="fill: none; stroke: #000000; stroke-width: 0.8; stroke-linejoin: miter; stroke-linecap: square"/>
   </g>
   <g id="patch_4">
    <path d="M 385.194034 259.2 
L 385.194034 7.2 
" style="fill: none; stroke: #000000; stroke-width: 0.8; stroke-linejoin: miter; stroke-linecap: square"/>
   </g>
   <g id="patch_5">
    <path d="M 30.103125 259.2 
L 385.194034 259.2 
" style="fill: none; stroke: #000000; stroke-width: 0.8; stroke-linejoin: miter; stroke-linecap: square"/>
   </g>
   <g id="patch_6">
    <path d="M 30.103125 7.2 
L 385.194034 7.2 
" style="fill: none; stroke: #000000; stroke-width: 0.8; stroke-linejoin: miter; stroke-linecap: square"/>
   </g>
   <g id="legend_1">
    <g id="patch_7">
     <path d="M 298.603409 45.1125 
L 378.194034 45.1125 
Q 380.194034 45.1125 380.194034 43.1125 
L 380.194034 14.2 
Q 380.194034 12.2 378.194034 12.2 
L 298.603409 12.2 
Q 296.603409 12.2 296.603409 14.2 
L 296.603409 43.1125 
Q 296.603409 45.1125 298.603409 45.1125 
z
" style="fill: #ffffff; opacity: 0.8; stroke: #cccccc; stroke-linejoin: miter"/>
    </g>
    <g id="line2d_17">
     <path d="M 300.603409 20.298437 
L 310.603409 20.298437 
L 320.603409 20.298437 
" style="fill: none; stroke: #1f77b4; stroke-width: 1.5; stroke-linecap: square"/>
    </g>
    <g id="text_15">
     <!-- train_loss -->
     <g transform="translate(328.603409 23.798437) scale(0.1 -0.1)">
      <defs>
       <path id="DejaVuSans-74" d="M 1172 4494 
L 1172 3500 
L 2356 3500 
L 2356 3053 
L 1172 3053 
L 1172 1153 
Q 1172 725 1289 603 
Q 1406 481 1766 481 
L 2356 481 
L 2356 0 
L 1766 0 
Q 1100 0 847 248 
Q 594 497 594 1153 
L 594 3053 
L 172 3053 
L 172 3500 
L 594 3500 
L 594 4494 
L 1172 4494 
z
" transform="scale(0.015625)"/>
       <path id="DejaVuSans-72" d="M 2631 2963 
Q 2534 3019 2420 3045 
Q 2306 3072 2169 3072 
Q 1681 3072 1420 2755 
Q 1159 2438 1159 1844 
L 1159 0 
L 581 0 
L 581 3500 
L 1159 3500 
L 1159 2956 
Q 1341 3275 1631 3429 
Q 1922 3584 2338 3584 
Q 2397 3584 2469 3576 
Q 2541 3569 2628 3553 
L 2631 2963 
z
" transform="scale(0.015625)"/>
       <path id="DejaVuSans-61" d="M 2194 1759 
Q 1497 1759 1228 1600 
Q 959 1441 959 1056 
Q 959 750 1161 570 
Q 1363 391 1709 391 
Q 2188 391 2477 730 
Q 2766 1069 2766 1631 
L 2766 1759 
L 2194 1759 
z
M 3341 1997 
L 3341 0 
L 2766 0 
L 2766 531 
Q 2569 213 2275 61 
Q 1981 -91 1556 -91 
Q 1019 -91 701 211 
Q 384 513 384 1019 
Q 384 1609 779 1909 
Q 1175 2209 1959 2209 
L 2766 2209 
L 2766 2266 
Q 2766 2663 2505 2880 
Q 2244 3097 1772 3097 
Q 1472 3097 1187 3025 
Q 903 2953 641 2809 
L 641 3341 
Q 956 3463 1253 3523 
Q 1550 3584 1831 3584 
Q 2591 3584 2966 3190 
Q 3341 2797 3341 1997 
z
" transform="scale(0.015625)"/>
       <path id="DejaVuSans-69" d="M 603 3500 
L 1178 3500 
L 1178 0 
L 603 0 
L 603 3500 
z
M 603 4863 
L 1178 4863 
L 1178 4134 
L 603 4134 
L 603 4863 
z
" transform="scale(0.015625)"/>
       <path id="DejaVuSans-6e" d="M 3513 2113 
L 3513 0 
L 2938 0 
L 2938 2094 
Q 2938 2591 2744 2837 
Q 2550 3084 2163 3084 
Q 1697 3084 1428 2787 
Q 1159 2491 1159 1978 
L 1159 0 
L 581 0 
L 581 3500 
L 1159 3500 
L 1159 2956 
Q 1366 3272 1645 3428 
Q 1925 3584 2291 3584 
Q 2894 3584 3203 3211 
Q 3513 2838 3513 2113 
z
" transform="scale(0.015625)"/>
       <path id="DejaVuSans-5f" d="M 3263 -1063 
L 3263 -1509 
L -63 -1509 
L -63 -1063 
L 3263 -1063 
z
" transform="scale(0.015625)"/>
       <path id="DejaVuSans-6c" d="M 603 4863 
L 1178 4863 
L 1178 0 
L 603 0 
L 603 4863 
z
" transform="scale(0.015625)"/>
       <path id="DejaVuSans-6f" d="M 1959 3097 
Q 1497 3097 1228 2736 
Q 959 2375 959 1747 
Q 959 1119 1226 758 
Q 1494 397 1959 397 
Q 2419 397 2687 759 
Q 2956 1122 2956 1747 
Q 2956 2369 2687 2733 
Q 2419 3097 1959 3097 
z
M 1959 3584 
Q 2709 3584 3137 3096 
Q 3566 2609 3566 1747 
Q 3566 888 3137 398 
Q 2709 -91 1959 -91 
Q 1206 -91 779 398 
Q 353 888 353 1747 
Q 353 2609 779 3096 
Q 1206 3584 1959 3584 
z
" transform="scale(0.015625)"/>
       <path id="DejaVuSans-73" d="M 2834 3397 
L 2834 2853 
Q 2591 2978 2328 3040 
Q 2066 3103 1784 3103 
Q 1356 3103 1142 2972 
Q 928 2841 928 2578 
Q 928 2378 1081 2264 
Q 1234 2150 1697 2047 
L 1894 2003 
Q 2506 1872 2764 1633 
Q 3022 1394 3022 966 
Q 3022 478 2636 193 
Q 2250 -91 1575 -91 
Q 1294 -91 989 -36 
Q 684 19 347 128 
L 347 722 
Q 666 556 975 473 
Q 1284 391 1588 391 
Q 1994 391 2212 530 
Q 2431 669 2431 922 
Q 2431 1156 2273 1281 
Q 2116 1406 1581 1522 
L 1381 1569 
Q 847 1681 609 1914 
Q 372 2147 372 2553 
Q 372 3047 722 3315 
Q 1072 3584 1716 3584 
Q 2034 3584 2315 3537 
Q 2597 3491 2834 3397 
z
" transform="scale(0.015625)"/>
      </defs>
      <use xlink:href="#DejaVuSans-74"/>
      <use xlink:href="#DejaVuSans-72" x="39.208984"/>
      <use xlink:href="#DejaVuSans-61" x="80.322266"/>
      <use xlink:href="#DejaVuSans-69" x="141.601562"/>
      <use xlink:href="#DejaVuSans-6e" x="169.384766"/>
      <use xlink:href="#DejaVuSans-5f" x="232.763672"/>
      <use xlink:href="#DejaVuSans-6c" x="282.763672"/>
      <use xlink:href="#DejaVuSans-6f" x="310.546875"/>
      <use xlink:href="#DejaVuSans-73" x="371.728516"/>
      <use xlink:href="#DejaVuSans-73" x="423.828125"/>
     </g>
    </g>
    <g id="line2d_18">
     <path d="M 300.603409 35.254687 
L 310.603409 35.254687 
L 320.603409 35.254687 
" style="fill: none; stroke: #ff7f0e; stroke-width: 1.5; stroke-linecap: square"/>
    </g>
    <g id="text_16">
     <!-- val_loss -->
     <g transform="translate(328.603409 38.754687) scale(0.1 -0.1)">
      <defs>
       <path id="DejaVuSans-76" d="M 191 3500 
L 800 3500 
L 1894 563 
L 2988 3500 
L 3597 3500 
L 2284 0 
L 1503 0 
L 191 3500 
z
" transform="scale(0.015625)"/>
      </defs>
      <use xlink:href="#DejaVuSans-76"/>
      <use xlink:href="#DejaVuSans-61" x="59.179688"/>
      <use xlink:href="#DejaVuSans-6c" x="120.458984"/>
      <use xlink:href="#DejaVuSans-5f" x="148.242188"/>
      <use xlink:href="#DejaVuSans-6c" x="198.242188"/>
      <use xlink:href="#DejaVuSans-6f" x="226.025391"/>
      <use xlink:href="#DejaVuSans-73" x="287.207031"/>
      <use xlink:href="#DejaVuSans-73" x="339.306641"/>
     </g>
    </g>
   </g>
  </g>
  <g id="axes_2">
   <g id="patch_8">
    <path d="M 456.212216 259.2 
L 811.303125 259.2 
L 811.303125 7.2 
L 456.212216 7.2 
z
" style="fill: #ffffff"/>
   </g>
   <g id="matplotlib.axis_3">
    <g id="xtick_10">
     <g id="line2d_19">
      <g>
       <use xlink:href="#m75ffcc7c7f" x="472.352712" y="259.2" style="stroke: #000000; stroke-width: 0.8"/>
      </g>
     </g>
     <g id="text_17">
      <!-- 0 -->
      <g transform="translate(469.171462 273.798437) scale(0.1 -0.1)">
       <use xlink:href="#DejaVuSans-30"/>
      </g>
     </g>
    </g>
    <g id="xtick_11">
     <g id="line2d_20">
      <g>
       <use xlink:href="#m75ffcc7c7f" x="512.906721" y="259.2" style="stroke: #000000; stroke-width: 0.8"/>
      </g>
     </g>
     <g id="text_18">
      <!-- 25 -->
      <g transform="translate(506.544221 273.798437) scale(0.1 -0.1)">
       <use xlink:href="#DejaVuSans-32"/>
       <use xlink:href="#DejaVuSans-35" x="63.623047"/>
      </g>
     </g>
    </g>
    <g id="xtick_12">
     <g id="line2d_21">
      <g>
       <use xlink:href="#m75ffcc7c7f" x="553.460731" y="259.2" style="stroke: #000000; stroke-width: 0.8"/>
      </g>
     </g>
     <g id="text_19">
      <!-- 50 -->
      <g transform="translate(547.098231 273.798437) scale(0.1 -0.1)">
       <use xlink:href="#DejaVuSans-35"/>
       <use xlink:href="#DejaVuSans-30" x="63.623047"/>
      </g>
     </g>
    </g>
    <g id="xtick_13">
     <g id="line2d_22">
      <g>
       <use xlink:href="#m75ffcc7c7f" x="594.014741" y="259.2" style="stroke: #000000; stroke-width: 0.8"/>
      </g>
     </g>
     <g id="text_20">
      <!-- 75 -->
      <g transform="translate(587.652241 273.798437) scale(0.1 -0.1)">
       <use xlink:href="#DejaVuSans-37"/>
       <use xlink:href="#DejaVuSans-35" x="63.623047"/>
      </g>
     </g>
    </g>
    <g id="xtick_14">
     <g id="line2d_23">
      <g>
       <use xlink:href="#m75ffcc7c7f" x="634.568751" y="259.2" style="stroke: #000000; stroke-width: 0.8"/>
      </g>
     </g>
     <g id="text_21">
      <!-- 100 -->
      <g transform="translate(625.025001 273.798437) scale(0.1 -0.1)">
       <use xlink:href="#DejaVuSans-31"/>
       <use xlink:href="#DejaVuSans-30" x="63.623047"/>
       <use xlink:href="#DejaVuSans-30" x="127.246094"/>
      </g>
     </g>
    </g>
    <g id="xtick_15">
     <g id="line2d_24">
      <g>
       <use xlink:href="#m75ffcc7c7f" x="675.12276" y="259.2" style="stroke: #000000; stroke-width: 0.8"/>
      </g>
     </g>
     <g id="text_22">
      <!-- 125 -->
      <g transform="translate(665.57901 273.798437) scale(0.1 -0.1)">
       <use xlink:href="#DejaVuSans-31"/>
       <use xlink:href="#DejaVuSans-32" x="63.623047"/>
       <use xlink:href="#DejaVuSans-35" x="127.246094"/>
      </g>
     </g>
    </g>
    <g id="xtick_16">
     <g id="line2d_25">
      <g>
       <use xlink:href="#m75ffcc7c7f" x="715.67677" y="259.2" style="stroke: #000000; stroke-width: 0.8"/>
      </g>
     </g>
     <g id="text_23">
      <!-- 150 -->
      <g transform="translate(706.13302 273.798437) scale(0.1 -0.1)">
       <use xlink:href="#DejaVuSans-31"/>
       <use xlink:href="#DejaVuSans-35" x="63.623047"/>
       <use xlink:href="#DejaVuSans-30" x="127.246094"/>
      </g>
     </g>
    </g>
    <g id="xtick_17">
     <g id="line2d_26">
      <g>
       <use xlink:href="#m75ffcc7c7f" x="756.23078" y="259.2" style="stroke: #000000; stroke-width: 0.8"/>
      </g>
     </g>
     <g id="text_24">
      <!-- 175 -->
      <g transform="translate(746.68703 273.798437) scale(0.1 -0.1)">
       <use xlink:href="#DejaVuSans-31"/>
       <use xlink:href="#DejaVuSans-37" x="63.623047"/>
       <use xlink:href="#DejaVuSans-35" x="127.246094"/>
      </g>
     </g>
    </g>
    <g id="xtick_18">
     <g id="line2d_27">
      <g>
       <use xlink:href="#m75ffcc7c7f" x="796.78479" y="259.2" style="stroke: #000000; stroke-width: 0.8"/>
      </g>
     </g>
     <g id="text_25">
      <!-- 200 -->
      <g transform="translate(787.24104 273.798437) scale(0.1 -0.1)">
       <use xlink:href="#DejaVuSans-32"/>
       <use xlink:href="#DejaVuSans-30" x="63.623047"/>
       <use xlink:href="#DejaVuSans-30" x="127.246094"/>
      </g>
     </g>
    </g>
   </g>
   <g id="matplotlib.axis_4">
    <g id="ytick_6">
     <g id="line2d_28">
      <g>
       <use xlink:href="#mc445d9aae4" x="456.212216" y="242.837951" style="stroke: #000000; stroke-width: 0.8"/>
      </g>
     </g>
     <g id="text_26">
      <!-- 0.1 -->
      <g transform="translate(433.309091 246.637169) scale(0.1 -0.1)">
       <use xlink:href="#DejaVuSans-30"/>
       <use xlink:href="#DejaVuSans-2e" x="63.623047"/>
       <use xlink:href="#DejaVuSans-31" x="95.410156"/>
      </g>
     </g>
    </g>
    <g id="ytick_7">
     <g id="line2d_29">
      <g>
       <use xlink:href="#mc445d9aae4" x="456.212216" y="205.648405" style="stroke: #000000; stroke-width: 0.8"/>
      </g>
     </g>
     <g id="text_27">
      <!-- 0.2 -->
      <g transform="translate(433.309091 209.447624) scale(0.1 -0.1)">
       <use xlink:href="#DejaVuSans-30"/>
       <use xlink:href="#DejaVuSans-2e" x="63.623047"/>
       <use xlink:href="#DejaVuSans-32" x="95.410156"/>
      </g>
     </g>
    </g>
    <g id="ytick_8">
     <g id="line2d_30">
      <g>
       <use xlink:href="#mc445d9aae4" x="456.212216" y="168.458859" style="stroke: #000000; stroke-width: 0.8"/>
      </g>
     </g>
     <g id="text_28">
      <!-- 0.3 -->
      <g transform="translate(433.309091 172.258078) scale(0.1 -0.1)">
       <use xlink:href="#DejaVuSans-30"/>
       <use xlink:href="#DejaVuSans-2e" x="63.623047"/>
       <use xlink:href="#DejaVuSans-33" x="95.410156"/>
      </g>
     </g>
    </g>
    <g id="ytick_9">
     <g id="line2d_31">
      <g>
       <use xlink:href="#mc445d9aae4" x="456.212216" y="131.269313" style="stroke: #000000; stroke-width: 0.8"/>
      </g>
     </g>
     <g id="text_29">
      <!-- 0.4 -->
      <g transform="translate(433.309091 135.068532) scale(0.1 -0.1)">
       <defs>
        <path id="DejaVuSans-34" d="M 2419 4116 
L 825 1625 
L 2419 1625 
L 2419 4116 
z
M 2253 4666 
L 3047 4666 
L 3047 1625 
L 3713 1625 
L 3713 1100 
L 3047 1100 
L 3047 0 
L 2419 0 
L 2419 1100 
L 313 1100 
L 313 1709 
L 2253 4666 
z
" transform="scale(0.015625)"/>
       </defs>
       <use xlink:href="#DejaVuSans-30"/>
       <use xlink:href="#DejaVuSans-2e" x="63.623047"/>
       <use xlink:href="#DejaVuSans-34" x="95.410156"/>
      </g>
     </g>
    </g>
    <g id="ytick_10">
     <g id="line2d_32">
      <g>
       <use xlink:href="#mc445d9aae4" x="456.212216" y="94.079768" style="stroke: #000000; stroke-width: 0.8"/>
      </g>
     </g>
     <g id="text_30">
      <!-- 0.5 -->
      <g transform="translate(433.309091 97.878986) scale(0.1 -0.1)">
       <use xlink:href="#DejaVuSans-30"/>
       <use xlink:href="#DejaVuSans-2e" x="63.623047"/>
       <use xlink:href="#DejaVuSans-35" x="95.410156"/>
      </g>
     </g>
    </g>
    <g id="ytick_11">
     <g id="line2d_33">
      <g>
       <use xlink:href="#mc445d9aae4" x="456.212216" y="56.890222" style="stroke: #000000; stroke-width: 0.8"/>
      </g>
     </g>
     <g id="text_31">
      <!-- 0.6 -->
      <g transform="translate(433.309091 60.689441) scale(0.1 -0.1)">
       <defs>
        <path id="DejaVuSans-36" d="M 2113 2584 
Q 1688 2584 1439 2293 
Q 1191 2003 1191 1497 
Q 1191 994 1439 701 
Q 1688 409 2113 409 
Q 2538 409 2786 701 
Q 3034 994 3034 1497 
Q 3034 2003 2786 2293 
Q 2538 2584 2113 2584 
z
M 3366 4563 
L 3366 3988 
Q 3128 4100 2886 4159 
Q 2644 4219 2406 4219 
Q 1781 4219 1451 3797 
Q 1122 3375 1075 2522 
Q 1259 2794 1537 2939 
Q 1816 3084 2150 3084 
Q 2853 3084 3261 2657 
Q 3669 2231 3669 1497 
Q 3669 778 3244 343 
Q 2819 -91 2113 -91 
Q 1303 -91 875 529 
Q 447 1150 447 2328 
Q 447 3434 972 4092 
Q 1497 4750 2381 4750 
Q 2619 4750 2861 4703 
Q 3103 4656 3366 4563 
z
" transform="scale(0.015625)"/>
       </defs>
       <use xlink:href="#DejaVuSans-30"/>
       <use xlink:href="#DejaVuSans-2e" x="63.623047"/>
       <use xlink:href="#DejaVuSans-36" x="95.410156"/>
      </g>
     </g>
    </g>
    <g id="ytick_12">
     <g id="line2d_34">
      <g>
       <use xlink:href="#mc445d9aae4" x="456.212216" y="19.700676" style="stroke: #000000; stroke-width: 0.8"/>
      </g>
     </g>
     <g id="text_32">
      <!-- 0.7 -->
      <g transform="translate(433.309091 23.499895) scale(0.1 -0.1)">
       <use xlink:href="#DejaVuSans-30"/>
       <use xlink:href="#DejaVuSans-2e" x="63.623047"/>
       <use xlink:href="#DejaVuSans-37" x="95.410156"/>
      </g>
     </g>
    </g>
   </g>
   <g id="line2d_35">
    <path d="M 472.352712 247.745455 
L 473.974872 203.313292 
L 475.597033 182.189527 
L 477.219193 169.286969 
L 482.085674 142.229213 
L 488.574316 120.742059 
L 490.196476 117.052556 
L 491.818636 114.66272 
L 493.440797 111.400747 
L 495.062957 107.659939 
L 496.685118 106.236306 
L 498.307278 102.709263 
L 499.929438 100.712742 
L 501.551599 98.532392 
L 503.173759 95.351637 
L 504.79592 94.329863 
L 506.41808 92.730946 
L 508.04024 90.482179 
L 509.662401 87.720408 
L 511.284561 85.946208 
L 512.906721 85.758079 
L 516.151042 81.632525 
L 517.773203 81.747947 
L 521.017523 77.878883 
L 522.639684 76.288511 
L 524.261844 76.014907 
L 525.884005 74.471551 
L 527.506165 73.36428 
L 529.128325 73.116324 
L 530.750486 73.176174 
L 532.372646 70.495622 
L 533.994807 70.059558 
L 535.616967 70.119408 
L 537.239127 68.417871 
L 538.861288 68.866768 
L 540.483448 65.562046 
L 543.727769 65.703115 
L 545.349929 64.980614 
L 546.97209 64.608679 
L 548.59425 64.501791 
L 550.21641 62.167527 
L 551.838571 61.727186 
L 553.460731 60.718246 
L 555.082892 62.094843 
L 556.705052 59.824729 
L 558.327212 60.085498 
L 559.949373 59.538291 
L 561.571533 59.747766 
L 564.815854 57.734143 
L 566.438014 58.118913 
L 568.060175 58.02486 
L 569.682335 55.160479 
L 572.926656 55.750446 
L 574.548816 55.540971 
L 576.170977 54.16863 
L 577.793137 54.540565 
L 579.415297 54.275518 
L 581.037458 53.724011 
L 582.659618 52.526943 
L 584.281779 53.416204 
L 585.903939 51.778794 
L 587.526099 52.223414 
L 589.14826 50.876721 
L 590.77042 50.406454 
L 592.392581 50.744186 
L 594.014741 50.406454 
L 595.636901 49.119611 
L 597.259062 49.337643 
L 598.881222 49.08113 
L 600.503382 47.640405 
L 602.125543 48.27741 
L 603.747703 49.217942 
L 605.369864 47.524961 
L 606.992024 48.097837 
L 608.614184 46.746888 
L 610.236345 47.341133 
L 611.858505 45.182163 
L 613.480666 45.703723 
L 615.102826 46.986288 
L 618.347147 43.643085 
L 619.969307 43.79271 
L 621.591468 44.369864 
L 623.213628 43.151427 
L 624.835788 43.596047 
L 626.457949 42.351963 
L 628.080109 42.907749 
L 629.702269 42.835064 
L 631.32443 41.937269 
L 632.94659 42.356242 
L 634.568751 40.535004 
L 636.190911 41.270339 
L 637.813071 40.988179 
L 639.435232 39.620117 
L 641.057392 39.923668 
L 642.679553 39.906556 
L 644.301713 39.367883 
L 645.923873 39.795412 
L 647.546034 40.586319 
L 649.168194 38.521403 
L 650.790355 39.154129 
L 652.412515 38.495734 
L 654.034675 36.836956 
L 655.656836 37.593682 
L 657.278996 38.085318 
L 658.901156 35.216659 
L 660.523317 36.093086 
L 662.145477 37.11486 
L 663.767638 34.823355 
L 665.389798 34.10511 
L 667.011958 34.297495 
L 668.634119 35.396231 
L 670.256279 35.609985 
L 671.87844 34.229088 
L 673.5006 33.887078 
L 675.12276 33.741709 
L 676.744921 32.117134 
L 678.367081 32.476257 
L 679.989242 32.266781 
L 681.611402 31.775124 
L 683.233562 31.574183 
L 684.855723 31.933306 
L 686.477883 31.373264 
L 688.100043 31.535724 
L 689.722204 30.462634 
L 691.344364 30.907254 
L 692.966525 30.582334 
L 696.210845 29.068925 
L 697.833006 30.325843 
L 699.455166 28.726915 
L 702.699487 29.616154 
L 704.321647 28.299386 
L 705.943808 26.597848 
L 707.565968 28.410552 
L 709.188129 27.893248 
L 710.810289 27.021099 
L 712.432449 28.667065 
L 714.05461 27.995857 
L 715.67677 27.910338 
L 717.29893 26.794511 
L 718.921091 27.28189 
L 720.543251 25.661593 
L 722.165412 26.230191 
L 723.787572 25.058792 
L 725.409732 26.559389 
L 727.031893 26.042085 
L 728.654053 24.622707 
L 730.276214 24.921979 
L 731.898374 26.183154 
L 733.520534 25.054514 
L 735.142695 25.781294 
L 736.764855 23.908762 
L 738.387016 24.178087 
L 740.009176 24.276419 
L 741.631336 23.712099 
L 743.253497 24.383307 
L 744.875657 24.03274 
L 748.119978 23.635136 
L 749.742138 23.938687 
L 751.364299 22.476572 
L 752.986459 23.81043 
L 754.608619 22.344037 
L 756.23078 22.450903 
L 757.85294 23.331608 
L 759.475101 23.293126 
L 761.097261 21.779717 
L 762.719421 22.194412 
L 764.341582 21.241022 
L 765.963742 22.292721 
L 767.585903 20.993065 
L 769.208063 21.63007 
L 770.830223 19.51386 
L 772.452384 22.002027 
L 774.074544 20.860531 
L 775.696704 20.757943 
L 778.941025 19.877238 
L 780.563186 20.787868 
L 782.185346 20.633943 
L 783.807506 18.928149 
L 785.429667 19.287272 
L 787.051827 18.654545 
L 788.673988 19.958479 
L 790.296148 18.808449 
L 791.918308 19.29155 
L 793.540469 19.928554 
L 795.162629 18.667358 
L 795.162629 18.667358 
" clip-path="url(#pf4cb559652)" style="fill: none; stroke: #1f77b4; stroke-width: 1.5; stroke-linecap: square"/>
   </g>
   <g id="line2d_36">
    <path d="M 472.352712 206.620103 
L 473.974872 177.734165 
L 477.219193 143.047475 
L 478.841353 134.861657 
L 480.463514 124.702993 
L 485.329995 110.421965 
L 486.952155 103.502298 
L 488.574316 103.266733 
L 490.196476 101.500014 
L 491.818636 95.993718 
L 493.440797 95.198698 
L 495.062957 95.345918 
L 496.685118 91.223567 
L 498.307278 89.721839 
L 499.929438 84.833905 
L 501.551599 89.456837 
L 503.173759 85.393371 
L 504.79592 81.006005 
L 506.41808 79.592634 
L 508.04024 75.617503 
L 509.662401 85.893939 
L 511.284561 70.170104 
L 512.906721 75.32304 
L 514.528882 75.941403 
L 516.151042 74.675241 
L 517.773203 70.817903 
L 519.395363 72.437402 
L 522.639684 69.257301 
L 524.261844 74.940244 
L 525.884005 68.727273 
L 527.506165 69.227842 
L 529.128325 64.163239 
L 530.750486 68.285602 
L 532.372646 65.959407 
L 533.994807 66.312744 
L 535.616967 69.698973 
L 537.239127 68.432811 
L 538.861288 66.077178 
L 540.483448 55.211839 
L 542.105608 58.362503 
L 543.727769 64.63437 
L 545.349929 66.194972 
L 546.97209 69.375073 
L 548.59425 55.50628 
L 550.21641 63.780442 
L 551.838571 53.680675 
L 553.460731 58.215272 
L 555.082892 65.25271 
L 556.705052 48.763281 
L 558.327212 53.180106 
L 559.949373 60.541445 
L 561.571533 60.129211 
L 563.193694 64.575473 
L 564.815854 60.512007 
L 566.438014 71.230137 
L 568.060175 53.592341 
L 569.682335 60.77701 
L 571.304495 57.596909 
L 572.926656 55.68297 
L 574.548816 57.390804 
L 576.170977 56.890213 
L 577.793137 51.207248 
L 579.415297 55.653511 
L 581.037458 54.151806 
L 582.659618 56.890213 
L 584.281779 47.762145 
L 585.903939 65.017145 
L 587.526099 62.54374 
L 589.14826 56.271873 
L 590.77042 56.095204 
L 592.392581 59.393077 
L 594.014741 59.775874 
L 595.636901 53.798446 
L 597.259062 55.417945 
L 598.881222 56.242413 
L 600.503382 52.120073 
L 602.125543 64.192677 
L 603.747703 45.259281 
L 605.369864 56.242413 
L 606.992024 61.542604 
L 608.614184 60.924241 
L 610.236345 50.824474 
L 611.858505 58.39194 
L 613.480666 61.10091 
L 615.102826 44.375916 
L 616.724986 48.203838 
L 618.347147 54.004575 
L 619.969307 58.215272 
L 621.591468 55.359071 
L 623.213628 58.686403 
L 624.835788 45.848206 
L 626.457949 59.510871 
L 628.080109 64.133802 
L 629.702269 62.86764 
L 631.32443 52.031739 
L 632.94659 43.050879 
L 634.568751 54.122346 
L 636.190911 46.113208 
L 637.813071 56.743004 
L 639.435232 46.378211 
L 641.057392 49.676106 
L 642.679553 49.087181 
L 644.301713 54.652374 
L 645.923873 51.442814 
L 647.546034 46.643214 
L 649.168194 40.989709 
L 650.790355 40.577475 
L 652.412515 52.767872 
L 654.034675 46.289877 
L 655.656836 52.14951 
L 657.278996 41.78474 
L 658.901156 42.844773 
L 660.523317 46.996573 
L 662.145477 57.243572 
L 663.767638 50.588908 
L 665.389798 54.56404 
L 667.011958 61.483707 
L 668.634119 43.610345 
L 670.256279 48.380507 
L 671.87844 42.933108 
L 673.5006 53.827906 
L 675.12276 67.225568 
L 676.744921 43.639782 
L 678.367081 39.900216 
L 679.989242 47.261576 
L 681.611402 50.029443 
L 683.233562 49.381644 
L 684.855723 52.237845 
L 686.477883 45.053175 
L 688.100043 57.125778 
L 689.722204 51.03058 
L 691.344364 47.556039 
L 692.966525 47.114345 
L 694.588685 48.115482 
L 696.210845 42.049743 
L 697.833006 42.40308 
L 699.455166 52.355638 
L 701.077327 54.88794 
L 702.699487 38.398511 
L 704.321647 49.381644 
L 705.943808 48.616072 
L 707.565968 44.847047 
L 709.188129 46.55488 
L 710.810289 29.005417 
L 712.432449 56.477979 
L 714.05461 48.527738 
L 715.67677 48.822178 
L 717.29893 59.216408 
L 718.921091 36.867346 
L 720.543251 64.016008 
L 722.165412 49.087181 
L 723.787572 52.414513 
L 725.409732 55.359071 
L 727.031893 43.669241 
L 728.654053 42.609208 
L 730.276214 35.130076 
L 731.898374 43.875347 
L 733.520534 42.962545 
L 735.142695 49.322747 
L 736.764855 48.174379 
L 738.387016 35.453976 
L 740.009176 43.787013 
L 741.631336 30.683813 
L 743.253497 38.604617 
L 744.875657 36.631781 
L 746.497817 50.147215 
L 748.119978 46.819883 
L 749.742138 36.16065 
L 751.364299 41.608049 
L 752.986459 47.467682 
L 754.608619 37.397374 
L 756.23078 60.15867 
L 757.85294 36.337341 
L 759.475101 43.168673 
L 761.097261 33.628349 
L 762.719421 47.556039 
L 764.341582 34.423379 
L 765.963742 45.347615 
L 767.585903 47.850479 
L 769.208063 34.658945 
L 770.830223 40.695247 
L 772.452384 34.688382 
L 774.074544 48.292173 
L 775.696704 51.972842 
L 777.318865 39.811882 
L 778.941025 46.908239 
L 780.563186 41.490277 
L 782.185346 37.780149 
L 783.807506 54.034012 
L 785.429667 35.424516 
L 787.051827 50.618346 
L 788.673988 41.608049 
L 790.296148 39.98855 
L 791.918308 42.638645 
L 793.540469 40.577475 
L 795.162629 34.835613 
L 795.162629 34.835613 
" clip-path="url(#pf4cb559652)" style="fill: none; stroke: #ff7f0e; stroke-width: 1.5; stroke-linecap: square"/>
   </g>
   <g id="patch_9">
    <path d="M 456.212216 259.2 
L 456.212216 7.2 
" style="fill: none; stroke: #000000; stroke-width: 0.8; stroke-linejoin: miter; stroke-linecap: square"/>
   </g>
   <g id="patch_10">
    <path d="M 811.303125 259.2 
L 811.303125 7.2 
" style="fill: none; stroke: #000000; stroke-width: 0.8; stroke-linejoin: miter; stroke-linecap: square"/>
   </g>
   <g id="patch_11">
    <path d="M 456.212216 259.2 
L 811.303125 259.2 
" style="fill: none; stroke: #000000; stroke-width: 0.8; stroke-linejoin: miter; stroke-linecap: square"/>
   </g>
   <g id="patch_12">
    <path d="M 456.212216 7.2 
L 811.303125 7.2 
" style="fill: none; stroke: #000000; stroke-width: 0.8; stroke-linejoin: miter; stroke-linecap: square"/>
   </g>
   <g id="legend_2">
    <g id="patch_13">
     <path d="M 463.212216 45.1125 
L 540.612216 45.1125 
Q 542.612216 45.1125 542.612216 43.1125 
L 542.612216 14.2 
Q 542.612216 12.2 540.612216 12.2 
L 463.212216 12.2 
Q 461.212216 12.2 461.212216 14.2 
L 461.212216 43.1125 
Q 461.212216 45.1125 463.212216 45.1125 
z
" style="fill: #ffffff; opacity: 0.8; stroke: #cccccc; stroke-linejoin: miter"/>
    </g>
    <g id="line2d_37">
     <path d="M 465.212216 20.298437 
L 475.212216 20.298437 
L 485.212216 20.298437 
" style="fill: none; stroke: #1f77b4; stroke-width: 1.5; stroke-linecap: square"/>
    </g>
    <g id="text_33">
     <!-- train_acc -->
     <g transform="translate(493.212216 23.798437) scale(0.1 -0.1)">
      <defs>
       <path id="DejaVuSans-63" d="M 3122 3366 
L 3122 2828 
Q 2878 2963 2633 3030 
Q 2388 3097 2138 3097 
Q 1578 3097 1268 2742 
Q 959 2388 959 1747 
Q 959 1106 1268 751 
Q 1578 397 2138 397 
Q 2388 397 2633 464 
Q 2878 531 3122 666 
L 3122 134 
Q 2881 22 2623 -34 
Q 2366 -91 2075 -91 
Q 1284 -91 818 406 
Q 353 903 353 1747 
Q 353 2603 823 3093 
Q 1294 3584 2113 3584 
Q 2378 3584 2631 3529 
Q 2884 3475 3122 3366 
z
" transform="scale(0.015625)"/>
      </defs>
      <use xlink:href="#DejaVuSans-74"/>
      <use xlink:href="#DejaVuSans-72" x="39.208984"/>
      <use xlink:href="#DejaVuSans-61" x="80.322266"/>
      <use xlink:href="#DejaVuSans-69" x="141.601562"/>
      <use xlink:href="#DejaVuSans-6e" x="169.384766"/>
      <use xlink:href="#DejaVuSans-5f" x="232.763672"/>
      <use xlink:href="#DejaVuSans-61" x="282.763672"/>
      <use xlink:href="#DejaVuSans-63" x="344.042969"/>
      <use xlink:href="#DejaVuSans-63" x="399.023438"/>
     </g>
    </g>
    <g id="line2d_38">
     <path d="M 465.212216 35.254687 
L 475.212216 35.254687 
L 485.212216 35.254687 
" style="fill: none; stroke: #ff7f0e; stroke-width: 1.5; stroke-linecap: square"/>
    </g>
    <g id="text_34">
     <!-- val_acc -->
     <g transform="translate(493.212216 38.754687) scale(0.1 -0.1)">
      <use xlink:href="#DejaVuSans-76"/>
      <use xlink:href="#DejaVuSans-61" x="59.179688"/>
      <use xlink:href="#DejaVuSans-6c" x="120.458984"/>
      <use xlink:href="#DejaVuSans-5f" x="148.242188"/>
      <use xlink:href="#DejaVuSans-61" x="198.242188"/>
      <use xlink:href="#DejaVuSans-63" x="259.521484"/>
      <use xlink:href="#DejaVuSans-63" x="314.501953"/>
     </g>
    </g>
   </g>
  </g>
 </g>
 <defs>
  <clipPath id="p4572fe6540">
   <rect x="30.103125" y="7.2" width="355.090909" height="252"/>
  </clipPath>
  <clipPath id="pf4cb559652">
   <rect x="456.212216" y="7.2" width="355.090909" height="252"/>
  </clipPath>
 </defs>
</svg>
