<?xml version="1.0" encoding="utf-8" standalone="no"?>
<!DOCTYPE svg PUBLIC "-//W3C//DTD SVG 1.1//EN"
  "http://www.w3.org/Graphics/SVG/1.1/DTD/svg11.dtd">
<svg xmlns:xlink="http://www.w3.org/1999/xlink" width="818.503125pt" height="283.078125pt" viewBox="0 0 818.503125 283.078125" xmlns="http://www.w3.org/2000/svg" version="1.1">
 <metadata>
  <rdf:RDF xmlns:dc="http://purl.org/dc/elements/1.1/" xmlns:cc="http://creativecommons.org/ns#" xmlns:rdf="http://www.w3.org/1999/02/22-rdf-syntax-ns#">
   <cc:Work>
    <dc:type rdf:resource="http://purl.org/dc/dcmitype/StillImage"/>
    <dc:date>2023-01-24T01:56:58.824013</dc:date>
    <dc:format>image/svg+xml</dc:format>
    <dc:creator>
     <cc:Agent>
      <dc:title>Matplotlib v3.6.2, https://matplotlib.org/</dc:title>
     </cc:Agent>
    </dc:creator>
   </cc:Work>
  </rdf:RDF>
 </metadata>
 <defs>
  <style type="text/css">*{stroke-linejoin: round; stroke-linecap: butt}</style>
 </defs>
 <g id="figure_1">
  <g id="patch_1">
   <path d="M 0 283.078125 
L 818.503125 283.078125 
L 818.503125 0 
L 0 0 
z
" style="fill: #ffffff"/>
  </g>
  <g id="axes_1">
   <g id="patch_2">
    <path d="M 30.103125 259.2 
L 385.194034 259.2 
L 385.194034 7.2 
L 30.103125 7.2 
z
" style="fill: #ffffff"/>
   </g>
   <g id="matplotlib.axis_1">
    <g id="xtick_1">
     <g id="line2d_1">
      <defs>
       <path id="m12f7b3bd8e" d="M 0 0 
L 0 3.5 
" style="stroke: #000000; stroke-width: 0.8"/>
      </defs>
      <g>
       <use xlink:href="#m12f7b3bd8e" x="46.243621" y="259.2" style="stroke: #000000; stroke-width: 0.8"/>
      </g>
     </g>
     <g id="text_1">
      <!-- 0 -->
      <g transform="translate(43.062371 273.798437) scale(0.1 -0.1)">
       <defs>
        <path id="DejaVuSans-30" d="M 2034 4250 
Q 1547 4250 1301 3770 
Q 1056 3291 1056 2328 
Q 1056 1369 1301 889 
Q 1547 409 2034 409 
Q 2525 409 2770 889 
Q 3016 1369 3016 2328 
Q 3016 3291 2770 3770 
Q 2525 4250 2034 4250 
z
M 2034 4750 
Q 2819 4750 3233 4129 
Q 3647 3509 3647 2328 
Q 3647 1150 3233 529 
Q 2819 -91 2034 -91 
Q 1250 -91 836 529 
Q 422 1150 422 2328 
Q 422 3509 836 4129 
Q 1250 4750 2034 4750 
z
" transform="scale(0.015625)"/>
       </defs>
       <use xlink:href="#DejaVuSans-30"/>
      </g>
     </g>
    </g>
    <g id="xtick_2">
     <g id="line2d_2">
      <g>
       <use xlink:href="#m12f7b3bd8e" x="86.797631" y="259.2" style="stroke: #000000; stroke-width: 0.8"/>
      </g>
     </g>
     <g id="text_2">
      <!-- 25 -->
      <g transform="translate(80.435131 273.798437) scale(0.1 -0.1)">
       <defs>
        <path id="DejaVuSans-32" d="M 1228 531 
L 3431 531 
L 3431 0 
L 469 0 
L 469 531 
Q 828 903 1448 1529 
Q 2069 2156 2228 2338 
Q 2531 2678 2651 2914 
Q 2772 3150 2772 3378 
Q 2772 3750 2511 3984 
Q 2250 4219 1831 4219 
Q 1534 4219 1204 4116 
Q 875 4013 500 3803 
L 500 4441 
Q 881 4594 1212 4672 
Q 1544 4750 1819 4750 
Q 2544 4750 2975 4387 
Q 3406 4025 3406 3419 
Q 3406 3131 3298 2873 
Q 3191 2616 2906 2266 
Q 2828 2175 2409 1742 
Q 1991 1309 1228 531 
z
" transform="scale(0.015625)"/>
        <path id="DejaVuSans-35" d="M 691 4666 
L 3169 4666 
L 3169 4134 
L 1269 4134 
L 1269 2991 
Q 1406 3038 1543 3061 
Q 1681 3084 1819 3084 
Q 2600 3084 3056 2656 
Q 3513 2228 3513 1497 
Q 3513 744 3044 326 
Q 2575 -91 1722 -91 
Q 1428 -91 1123 -41 
Q 819 9 494 109 
L 494 744 
Q 775 591 1075 516 
Q 1375 441 1709 441 
Q 2250 441 2565 725 
Q 2881 1009 2881 1497 
Q 2881 1984 2565 2268 
Q 2250 2553 1709 2553 
Q 1456 2553 1204 2497 
Q 953 2441 691 2322 
L 691 4666 
z
" transform="scale(0.015625)"/>
       </defs>
       <use xlink:href="#DejaVuSans-32"/>
       <use xlink:href="#DejaVuSans-35" x="63.623047"/>
      </g>
     </g>
    </g>
    <g id="xtick_3">
     <g id="line2d_3">
      <g>
       <use xlink:href="#m12f7b3bd8e" x="127.35164" y="259.2" style="stroke: #000000; stroke-width: 0.8"/>
      </g>
     </g>
     <g id="text_3">
      <!-- 50 -->
      <g transform="translate(120.98914 273.798437) scale(0.1 -0.1)">
       <use xlink:href="#DejaVuSans-35"/>
       <use xlink:href="#DejaVuSans-30" x="63.623047"/>
      </g>
     </g>
    </g>
    <g id="xtick_4">
     <g id="line2d_4">
      <g>
       <use xlink:href="#m12f7b3bd8e" x="167.90565" y="259.2" style="stroke: #000000; stroke-width: 0.8"/>
      </g>
     </g>
     <g id="text_4">
      <!-- 75 -->
      <g transform="translate(161.54315 273.798437) scale(0.1 -0.1)">
       <defs>
        <path id="DejaVuSans-37" d="M 525 4666 
L 3525 4666 
L 3525 4397 
L 1831 0 
L 1172 0 
L 2766 4134 
L 525 4134 
L 525 4666 
z
" transform="scale(0.015625)"/>
       </defs>
       <use xlink:href="#DejaVuSans-37"/>
       <use xlink:href="#DejaVuSans-35" x="63.623047"/>
      </g>
     </g>
    </g>
    <g id="xtick_5">
     <g id="line2d_5">
      <g>
       <use xlink:href="#m12f7b3bd8e" x="208.45966" y="259.2" style="stroke: #000000; stroke-width: 0.8"/>
      </g>
     </g>
     <g id="text_5">
      <!-- 100 -->
      <g transform="translate(198.91591 273.798437) scale(0.1 -0.1)">
       <defs>
        <path id="DejaVuSans-31" d="M 794 531 
L 1825 531 
L 1825 4091 
L 703 3866 
L 703 4441 
L 1819 4666 
L 2450 4666 
L 2450 531 
L 3481 531 
L 3481 0 
L 794 0 
L 794 531 
z
" transform="scale(0.015625)"/>
       </defs>
       <use xlink:href="#DejaVuSans-31"/>
       <use xlink:href="#DejaVuSans-30" x="63.623047"/>
       <use xlink:href="#DejaVuSans-30" x="127.246094"/>
      </g>
     </g>
    </g>
    <g id="xtick_6">
     <g id="line2d_6">
      <g>
       <use xlink:href="#m12f7b3bd8e" x="249.013669" y="259.2" style="stroke: #000000; stroke-width: 0.8"/>
      </g>
     </g>
     <g id="text_6">
      <!-- 125 -->
      <g transform="translate(239.469919 273.798437) scale(0.1 -0.1)">
       <use xlink:href="#DejaVuSans-31"/>
       <use xlink:href="#DejaVuSans-32" x="63.623047"/>
       <use xlink:href="#DejaVuSans-35" x="127.246094"/>
      </g>
     </g>
    </g>
    <g id="xtick_7">
     <g id="line2d_7">
      <g>
       <use xlink:href="#m12f7b3bd8e" x="289.567679" y="259.2" style="stroke: #000000; stroke-width: 0.8"/>
      </g>
     </g>
     <g id="text_7">
      <!-- 150 -->
      <g transform="translate(280.023929 273.798437) scale(0.1 -0.1)">
       <use xlink:href="#DejaVuSans-31"/>
       <use xlink:href="#DejaVuSans-35" x="63.623047"/>
       <use xlink:href="#DejaVuSans-30" x="127.246094"/>
      </g>
     </g>
    </g>
    <g id="xtick_8">
     <g id="line2d_8">
      <g>
       <use xlink:href="#m12f7b3bd8e" x="330.121689" y="259.2" style="stroke: #000000; stroke-width: 0.8"/>
      </g>
     </g>
     <g id="text_8">
      <!-- 175 -->
      <g transform="translate(320.577939 273.798437) scale(0.1 -0.1)">
       <use xlink:href="#DejaVuSans-31"/>
       <use xlink:href="#DejaVuSans-37" x="63.623047"/>
       <use xlink:href="#DejaVuSans-35" x="127.246094"/>
      </g>
     </g>
    </g>
    <g id="xtick_9">
     <g id="line2d_9">
      <g>
       <use xlink:href="#m12f7b3bd8e" x="370.675699" y="259.2" style="stroke: #000000; stroke-width: 0.8"/>
      </g>
     </g>
     <g id="text_9">
      <!-- 200 -->
      <g transform="translate(361.131949 273.798437) scale(0.1 -0.1)">
       <use xlink:href="#DejaVuSans-32"/>
       <use xlink:href="#DejaVuSans-30" x="63.623047"/>
       <use xlink:href="#DejaVuSans-30" x="127.246094"/>
      </g>
     </g>
    </g>
   </g>
   <g id="matplotlib.axis_2">
    <g id="ytick_1">
     <g id="line2d_10">
      <defs>
       <path id="m2b032a94f0" d="M 0 0 
L -3.5 0 
" style="stroke: #000000; stroke-width: 0.8"/>
      </defs>
      <g>
       <use xlink:href="#m2b032a94f0" x="30.103125" y="247.74548" style="stroke: #000000; stroke-width: 0.8"/>
      </g>
     </g>
     <g id="text_10">
      <!-- 0.0 -->
      <g transform="translate(7.2 251.544699) scale(0.1 -0.1)">
       <defs>
        <path id="DejaVuSans-2e" d="M 684 794 
L 1344 794 
L 1344 0 
L 684 0 
L 684 794 
z
" transform="scale(0.015625)"/>
       </defs>
       <use xlink:href="#DejaVuSans-30"/>
       <use xlink:href="#DejaVuSans-2e" x="63.623047"/>
       <use xlink:href="#DejaVuSans-30" x="95.410156"/>
      </g>
     </g>
    </g>
    <g id="ytick_2">
     <g id="line2d_11">
      <g>
       <use xlink:href="#m2b032a94f0" x="30.103125" y="208.332552" style="stroke: #000000; stroke-width: 0.8"/>
      </g>
     </g>
     <g id="text_11">
      <!-- 0.5 -->
      <g transform="translate(7.2 212.131771) scale(0.1 -0.1)">
       <use xlink:href="#DejaVuSans-30"/>
       <use xlink:href="#DejaVuSans-2e" x="63.623047"/>
       <use xlink:href="#DejaVuSans-35" x="95.410156"/>
      </g>
     </g>
    </g>
    <g id="ytick_3">
     <g id="line2d_12">
      <g>
       <use xlink:href="#m2b032a94f0" x="30.103125" y="168.919624" style="stroke: #000000; stroke-width: 0.8"/>
      </g>
     </g>
     <g id="text_12">
      <!-- 1.0 -->
      <g transform="translate(7.2 172.718842) scale(0.1 -0.1)">
       <use xlink:href="#DejaVuSans-31"/>
       <use xlink:href="#DejaVuSans-2e" x="63.623047"/>
       <use xlink:href="#DejaVuSans-30" x="95.410156"/>
      </g>
     </g>
    </g>
    <g id="ytick_4">
     <g id="line2d_13">
      <g>
       <use xlink:href="#m2b032a94f0" x="30.103125" y="129.506695" style="stroke: #000000; stroke-width: 0.8"/>
      </g>
     </g>
     <g id="text_13">
      <!-- 1.5 -->
      <g transform="translate(7.2 133.305914) scale(0.1 -0.1)">
       <use xlink:href="#DejaVuSans-31"/>
       <use xlink:href="#DejaVuSans-2e" x="63.623047"/>
       <use xlink:href="#DejaVuSans-35" x="95.410156"/>
      </g>
     </g>
    </g>
    <g id="ytick_5">
     <g id="line2d_14">
      <g>
       <use xlink:href="#m2b032a94f0" x="30.103125" y="90.093767" style="stroke: #000000; stroke-width: 0.8"/>
      </g>
     </g>
     <g id="text_14">
      <!-- 2.0 -->
      <g transform="translate(7.2 93.892986) scale(0.1 -0.1)">
       <use xlink:href="#DejaVuSans-32"/>
       <use xlink:href="#DejaVuSans-2e" x="63.623047"/>
       <use xlink:href="#DejaVuSans-30" x="95.410156"/>
      </g>
     </g>
    </g>
    <g id="ytick_6">
     <g id="line2d_15">
      <g>
       <use xlink:href="#m2b032a94f0" x="30.103125" y="50.680839" style="stroke: #000000; stroke-width: 0.8"/>
      </g>
     </g>
     <g id="text_15">
      <!-- 2.5 -->
      <g transform="translate(7.2 54.480057) scale(0.1 -0.1)">
       <use xlink:href="#DejaVuSans-32"/>
       <use xlink:href="#DejaVuSans-2e" x="63.623047"/>
       <use xlink:href="#DejaVuSans-35" x="95.410156"/>
      </g>
     </g>
    </g>
    <g id="ytick_7">
     <g id="line2d_16">
      <g>
       <use xlink:href="#m2b032a94f0" x="30.103125" y="11.26791" style="stroke: #000000; stroke-width: 0.8"/>
      </g>
     </g>
     <g id="text_16">
      <!-- 3.0 -->
      <g transform="translate(7.2 15.067129) scale(0.1 -0.1)">
       <defs>
        <path id="DejaVuSans-33" d="M 2597 2516 
Q 3050 2419 3304 2112 
Q 3559 1806 3559 1356 
Q 3559 666 3084 287 
Q 2609 -91 1734 -91 
Q 1441 -91 1130 -33 
Q 819 25 488 141 
L 488 750 
Q 750 597 1062 519 
Q 1375 441 1716 441 
Q 2309 441 2620 675 
Q 2931 909 2931 1356 
Q 2931 1769 2642 2001 
Q 2353 2234 1838 2234 
L 1294 2234 
L 1294 2753 
L 1863 2753 
Q 2328 2753 2575 2939 
Q 2822 3125 2822 3475 
Q 2822 3834 2567 4026 
Q 2313 4219 1838 4219 
Q 1578 4219 1281 4162 
Q 984 4106 628 3988 
L 628 4550 
Q 988 4650 1302 4700 
Q 1616 4750 1894 4750 
Q 2613 4750 3031 4423 
Q 3450 4097 3450 3541 
Q 3450 3153 3228 2886 
Q 3006 2619 2597 2516 
z
" transform="scale(0.015625)"/>
       </defs>
       <use xlink:href="#DejaVuSans-33"/>
       <use xlink:href="#DejaVuSans-2e" x="63.623047"/>
       <use xlink:href="#DejaVuSans-30" x="95.410156"/>
      </g>
     </g>
    </g>
   </g>
   <g id="line2d_17">
    <path d="M 46.243621 173.399559 
L 47.865781 232.872294 
L 49.487942 240.660223 
L 51.110102 243.043653 
L 52.732262 244.478531 
L 54.354423 244.738308 
L 55.976583 245.16602 
L 57.598744 245.791802 
L 60.843064 246.340339 
L 62.465225 246.068944 
L 64.087385 246.494984 
L 65.709546 246.20317 
L 67.331706 246.630941 
L 68.953866 246.648833 
L 70.576027 246.501391 
L 72.198187 247.287279 
L 73.820347 246.66827 
L 75.442508 246.434644 
L 77.064668 247.109094 
L 78.686829 246.426935 
L 80.308989 247.297263 
L 81.931149 247.088593 
L 83.55331 246.707672 
L 85.17547 247.005959 
L 86.797631 246.986392 
L 88.419791 247.157439 
L 90.041951 247.462435 
L 91.664112 246.647782 
L 93.286272 247.154189 
L 96.530593 247.445002 
L 99.774914 246.823871 
L 101.397074 246.81467 
L 103.019234 247.656867 
L 107.885716 247.738576 
L 109.507876 246.897305 
L 111.130036 246.344942 
L 112.752197 247.450353 
L 115.996518 247.045289 
L 117.618678 247.280644 
L 122.485159 247.12884 
L 124.10732 247.44005 
L 127.35164 247.467214 
L 128.973801 247.349598 
L 130.595961 247.426758 
L 132.218121 246.92406 
L 133.840282 247.522863 
L 135.462442 247.011237 
L 138.706763 247.611784 
L 140.328923 247.739408 
L 145.195405 247.743509 
L 146.817565 246.3075 
L 150.061886 247.625211 
L 153.306207 247.738933 
L 161.417008 247.739286 
L 163.039169 245.715334 
L 164.661329 247.413587 
L 166.28349 247.261931 
L 167.90565 247.374418 
L 169.52781 247.665338 
L 171.149971 247.30601 
L 172.772131 247.439101 
L 174.394292 247.452224 
L 177.638612 247.13428 
L 179.260773 247.589396 
L 180.882933 247.257099 
L 182.505094 247.513727 
L 184.127254 247.128343 
L 185.749414 247.547349 
L 187.371575 247.73656 
L 197.104537 247.744908 
L 198.726697 247.548849 
L 200.348858 245.837555 
L 201.971018 247.506017 
L 203.593179 247.483486 
L 205.215339 247.345174 
L 206.837499 247.603362 
L 208.45966 247.567837 
L 210.08182 247.235144 
L 211.703981 247.515881 
L 214.948301 247.317446 
L 216.570462 247.709534 
L 226.303424 247.745056 
L 234.414226 247.745309 
L 236.036386 246.170996 
L 237.658547 247.186633 
L 240.902868 247.612409 
L 242.525028 247.403584 
L 244.147188 247.521262 
L 245.769349 247.315121 
L 247.391509 247.605782 
L 249.013669 247.380132 
L 250.63583 247.688554 
L 255.502311 247.744941 
L 273.346075 247.745422 
L 274.968236 247.612609 
L 276.590396 246.06737 
L 278.212556 247.627136 
L 279.834717 247.607076 
L 281.456877 247.436488 
L 283.079038 247.485938 
L 284.701198 247.259426 
L 286.323358 247.503208 
L 287.945519 247.549205 
L 289.567679 247.165075 
L 291.18984 247.315422 
L 292.812 247.6419 
L 294.43416 247.199009 
L 296.056321 247.360431 
L 297.678481 247.290954 
L 299.300642 247.605055 
L 300.922802 247.556528 
L 302.544962 247.627634 
L 304.167123 247.235697 
L 305.789283 247.371448 
L 307.411443 247.29966 
L 313.900085 247.744917 
L 336.61033 247.745455 
L 338.232491 247.292418 
L 339.854651 246.52272 
L 341.476812 247.52415 
L 343.098972 247.392952 
L 344.721132 247.615235 
L 346.343293 247.533707 
L 347.965453 247.713105 
L 354.454095 247.745227 
L 369.053538 247.745451 
L 369.053538 247.745451 
" clip-path="url(#p2535c6d658)" style="fill: none; stroke: #1f77b4; stroke-width: 1.5; stroke-linecap: square"/>
   </g>
   <g id="line2d_18">
    <path d="M 46.243621 196.319655 
L 47.865781 200.849619 
L 49.487942 206.415671 
L 51.110102 195.821494 
L 52.732262 198.390248 
L 54.354423 193.204027 
L 55.976583 196.946006 
L 57.598744 190.332392 
L 59.220904 187.481086 
L 60.843064 188.035397 
L 62.465225 176.402463 
L 65.709546 187.867251 
L 67.331706 169.567578 
L 68.953866 177.430663 
L 70.576027 171.826093 
L 72.198187 178.855082 
L 73.820347 183.520289 
L 75.442508 176.779227 
L 77.064668 172.241787 
L 78.686829 173.342563 
L 80.308989 170.496186 
L 81.931149 172.918679 
L 83.55331 159.605842 
L 85.17547 162.565666 
L 86.797631 157.792687 
L 88.419791 151.329961 
L 90.041951 156.830749 
L 91.664112 155.900872 
L 93.286272 160.077992 
L 94.908433 157.738843 
L 96.530593 141.648681 
L 98.152753 160.58694 
L 99.774914 136.215391 
L 101.397074 155.597544 
L 103.019234 163.355831 
L 104.641395 162.335896 
L 106.263555 160.789572 
L 107.885716 160.537447 
L 109.507876 117.937659 
L 111.130036 152.047556 
L 112.752197 164.587852 
L 114.374357 146.28504 
L 115.996518 141.642037 
L 117.618678 143.599771 
L 119.240838 155.210153 
L 120.862999 142.525362 
L 122.485159 145.518498 
L 124.10732 151.308039 
L 125.72948 153.540327 
L 127.35164 145.33263 
L 128.973801 150.941922 
L 130.595961 143.20708 
L 132.218121 150.735935 
L 133.840282 139.71085 
L 135.462442 126.583359 
L 137.084603 123.63482 
L 138.706763 145.351113 
L 140.328923 141.542309 
L 141.951084 140.185782 
L 143.573244 139.615022 
L 145.195405 138.719603 
L 146.817565 140.600386 
L 148.439725 142.2151 
L 150.061886 139.482179 
L 151.684046 138.049481 
L 153.306207 144.142143 
L 154.928367 143.501631 
L 158.172688 141.372425 
L 159.794848 140.90129 
L 161.417008 138.940737 
L 163.039169 131.331276 
L 164.661329 135.63965 
L 166.28349 141.603933 
L 167.90565 135.903296 
L 169.52781 116.07706 
L 171.149971 125.415124 
L 172.772131 122.045262 
L 174.394292 128.210157 
L 176.016452 108.474412 
L 177.638612 113.785544 
L 179.260773 99.572773 
L 180.882933 118.126516 
L 182.505094 128.34672 
L 184.127254 107.998494 
L 185.749414 122.620467 
L 187.371575 123.426766 
L 188.993735 123.509711 
L 190.615895 123.160969 
L 192.238056 122.992692 
L 193.860216 122.270531 
L 195.482377 121.843147 
L 197.104537 121.003122 
L 198.726697 56.634954 
L 200.348858 105.071455 
L 201.971018 105.110799 
L 203.593179 116.420569 
L 205.215339 81.190943 
L 206.837499 106.886874 
L 208.45966 79.958726 
L 210.08182 99.314521 
L 211.703981 103.639471 
L 213.326141 95.042296 
L 214.948301 103.51004 
L 216.570462 106.747576 
L 218.192622 111.111072 
L 219.814782 110.272917 
L 223.059103 109.302691 
L 224.681264 108.843386 
L 227.925584 107.039684 
L 231.169905 104.593018 
L 232.792066 104.426827 
L 234.414226 103.47779 
L 236.036386 86.166742 
L 237.658547 100.097103 
L 239.280707 109.41767 
L 240.902868 88.284042 
L 242.525028 105.324303 
L 244.147188 76.807029 
L 245.769349 79.228822 
L 247.391509 87.55162 
L 249.013669 93.886164 
L 250.63583 98.385951 
L 252.25799 96.242725 
L 253.880151 97.631296 
L 255.502311 97.663151 
L 257.124471 97.527724 
L 258.746632 97.242457 
L 260.368792 96.775917 
L 263.613113 96.347668 
L 266.857434 95.644442 
L 268.479594 94.983632 
L 270.101755 93.739969 
L 271.723915 93.533964 
L 273.346075 93.047953 
L 274.968236 18.654545 
L 276.590396 82.682475 
L 278.212556 65.840354 
L 279.834717 66.809349 
L 281.456877 50.417842 
L 283.079038 71.54679 
L 284.701198 70.956108 
L 286.323358 40.752414 
L 287.945519 62.459282 
L 289.567679 59.155038 
L 291.18984 59.423034 
L 292.812 63.306739 
L 294.43416 55.282627 
L 296.056321 59.282138 
L 297.678481 23.075596 
L 299.300642 48.93193 
L 300.922802 43.089373 
L 302.544962 39.017995 
L 304.167123 63.690128 
L 305.789283 42.530208 
L 307.411443 39.195913 
L 309.033604 55.691293 
L 310.655764 60.585997 
L 312.277925 63.940495 
L 318.766566 64.057993 
L 325.255208 63.033406 
L 326.877368 62.510269 
L 330.121689 61.724266 
L 333.36601 60.698683 
L 334.98817 60.465042 
L 336.61033 60.367729 
L 338.232491 35.725064 
L 339.854651 64.729355 
L 341.476812 62.963569 
L 343.098972 36.613623 
L 344.721132 57.193517 
L 346.343293 81.995176 
L 347.965453 76.404001 
L 349.587614 76.187086 
L 351.209774 75.847505 
L 354.454095 75.328221 
L 357.698416 74.655073 
L 360.942736 73.777527 
L 362.564897 73.08662 
L 364.187057 72.196539 
L 365.809217 71.807268 
L 369.053538 69.982847 
L 369.053538 69.982847 
" clip-path="url(#p2535c6d658)" style="fill: none; stroke: #ff7f0e; stroke-width: 1.5; stroke-linecap: square"/>
   </g>
   <g id="patch_3">
    <path d="M 30.103125 259.2 
L 30.103125 7.2 
" style="fill: none; stroke: #000000; stroke-width: 0.8; stroke-linejoin: miter; stroke-linecap: square"/>
   </g>
   <g id="patch_4">
    <path d="M 385.194034 259.2 
L 385.194034 7.2 
" style="fill: none; stroke: #000000; stroke-width: 0.8; stroke-linejoin: miter; stroke-linecap: square"/>
   </g>
   <g id="patch_5">
    <path d="M 30.103125 259.2 
L 385.194034 259.2 
" style="fill: none; stroke: #000000; stroke-width: 0.8; stroke-linejoin: miter; stroke-linecap: square"/>
   </g>
   <g id="patch_6">
    <path d="M 30.103125 7.2 
L 385.194034 7.2 
" style="fill: none; stroke: #000000; stroke-width: 0.8; stroke-linejoin: miter; stroke-linecap: square"/>
   </g>
   <g id="legend_1">
    <g id="patch_7">
     <path d="M 37.103125 45.1125 
L 116.69375 45.1125 
Q 118.69375 45.1125 118.69375 43.1125 
L 118.69375 14.2 
Q 118.69375 12.2 116.69375 12.2 
L 37.103125 12.2 
Q 35.103125 12.2 35.103125 14.2 
L 35.103125 43.1125 
Q 35.103125 45.1125 37.103125 45.1125 
z
" style="fill: #ffffff; opacity: 0.8; stroke: #cccccc; stroke-linejoin: miter"/>
    </g>
    <g id="line2d_19">
     <path d="M 39.103125 20.298437 
L 49.103125 20.298437 
L 59.103125 20.298437 
" style="fill: none; stroke: #1f77b4; stroke-width: 1.5; stroke-linecap: square"/>
    </g>
    <g id="text_17">
     <!-- train_loss -->
     <g transform="translate(67.103125 23.798437) scale(0.1 -0.1)">
      <defs>
       <path id="DejaVuSans-74" d="M 1172 4494 
L 1172 3500 
L 2356 3500 
L 2356 3053 
L 1172 3053 
L 1172 1153 
Q 1172 725 1289 603 
Q 1406 481 1766 481 
L 2356 481 
L 2356 0 
L 1766 0 
Q 1100 0 847 248 
Q 594 497 594 1153 
L 594 3053 
L 172 3053 
L 172 3500 
L 594 3500 
L 594 4494 
L 1172 4494 
z
" transform="scale(0.015625)"/>
       <path id="DejaVuSans-72" d="M 2631 2963 
Q 2534 3019 2420 3045 
Q 2306 3072 2169 3072 
Q 1681 3072 1420 2755 
Q 1159 2438 1159 1844 
L 1159 0 
L 581 0 
L 581 3500 
L 1159 3500 
L 1159 2956 
Q 1341 3275 1631 3429 
Q 1922 3584 2338 3584 
Q 2397 3584 2469 3576 
Q 2541 3569 2628 3553 
L 2631 2963 
z
" transform="scale(0.015625)"/>
       <path id="DejaVuSans-61" d="M 2194 1759 
Q 1497 1759 1228 1600 
Q 959 1441 959 1056 
Q 959 750 1161 570 
Q 1363 391 1709 391 
Q 2188 391 2477 730 
Q 2766 1069 2766 1631 
L 2766 1759 
L 2194 1759 
z
M 3341 1997 
L 3341 0 
L 2766 0 
L 2766 531 
Q 2569 213 2275 61 
Q 1981 -91 1556 -91 
Q 1019 -91 701 211 
Q 384 513 384 1019 
Q 384 1609 779 1909 
Q 1175 2209 1959 2209 
L 2766 2209 
L 2766 2266 
Q 2766 2663 2505 2880 
Q 2244 3097 1772 3097 
Q 1472 3097 1187 3025 
Q 903 2953 641 2809 
L 641 3341 
Q 956 3463 1253 3523 
Q 1550 3584 1831 3584 
Q 2591 3584 2966 3190 
Q 3341 2797 3341 1997 
z
" transform="scale(0.015625)"/>
       <path id="DejaVuSans-69" d="M 603 3500 
L 1178 3500 
L 1178 0 
L 603 0 
L 603 3500 
z
M 603 4863 
L 1178 4863 
L 1178 4134 
L 603 4134 
L 603 4863 
z
" transform="scale(0.015625)"/>
       <path id="DejaVuSans-6e" d="M 3513 2113 
L 3513 0 
L 2938 0 
L 2938 2094 
Q 2938 2591 2744 2837 
Q 2550 3084 2163 3084 
Q 1697 3084 1428 2787 
Q 1159 2491 1159 1978 
L 1159 0 
L 581 0 
L 581 3500 
L 1159 3500 
L 1159 2956 
Q 1366 3272 1645 3428 
Q 1925 3584 2291 3584 
Q 2894 3584 3203 3211 
Q 3513 2838 3513 2113 
z
" transform="scale(0.015625)"/>
       <path id="DejaVuSans-5f" d="M 3263 -1063 
L 3263 -1509 
L -63 -1509 
L -63 -1063 
L 3263 -1063 
z
" transform="scale(0.015625)"/>
       <path id="DejaVuSans-6c" d="M 603 4863 
L 1178 4863 
L 1178 0 
L 603 0 
L 603 4863 
z
" transform="scale(0.015625)"/>
       <path id="DejaVuSans-6f" d="M 1959 3097 
Q 1497 3097 1228 2736 
Q 959 2375 959 1747 
Q 959 1119 1226 758 
Q 1494 397 1959 397 
Q 2419 397 2687 759 
Q 2956 1122 2956 1747 
Q 2956 2369 2687 2733 
Q 2419 3097 1959 3097 
z
M 1959 3584 
Q 2709 3584 3137 3096 
Q 3566 2609 3566 1747 
Q 3566 888 3137 398 
Q 2709 -91 1959 -91 
Q 1206 -91 779 398 
Q 353 888 353 1747 
Q 353 2609 779 3096 
Q 1206 3584 1959 3584 
z
" transform="scale(0.015625)"/>
       <path id="DejaVuSans-73" d="M 2834 3397 
L 2834 2853 
Q 2591 2978 2328 3040 
Q 2066 3103 1784 3103 
Q 1356 3103 1142 2972 
Q 928 2841 928 2578 
Q 928 2378 1081 2264 
Q 1234 2150 1697 2047 
L 1894 2003 
Q 2506 1872 2764 1633 
Q 3022 1394 3022 966 
Q 3022 478 2636 193 
Q 2250 -91 1575 -91 
Q 1294 -91 989 -36 
Q 684 19 347 128 
L 347 722 
Q 666 556 975 473 
Q 1284 391 1588 391 
Q 1994 391 2212 530 
Q 2431 669 2431 922 
Q 2431 1156 2273 1281 
Q 2116 1406 1581 1522 
L 1381 1569 
Q 847 1681 609 1914 
Q 372 2147 372 2553 
Q 372 3047 722 3315 
Q 1072 3584 1716 3584 
Q 2034 3584 2315 3537 
Q 2597 3491 2834 3397 
z
" transform="scale(0.015625)"/>
      </defs>
      <use xlink:href="#DejaVuSans-74"/>
      <use xlink:href="#DejaVuSans-72" x="39.208984"/>
      <use xlink:href="#DejaVuSans-61" x="80.322266"/>
      <use xlink:href="#DejaVuSans-69" x="141.601562"/>
      <use xlink:href="#DejaVuSans-6e" x="169.384766"/>
      <use xlink:href="#DejaVuSans-5f" x="232.763672"/>
      <use xlink:href="#DejaVuSans-6c" x="282.763672"/>
      <use xlink:href="#DejaVuSans-6f" x="310.546875"/>
      <use xlink:href="#DejaVuSans-73" x="371.728516"/>
      <use xlink:href="#DejaVuSans-73" x="423.828125"/>
     </g>
    </g>
    <g id="line2d_20">
     <path d="M 39.103125 35.254687 
L 49.103125 35.254687 
L 59.103125 35.254687 
" style="fill: none; stroke: #ff7f0e; stroke-width: 1.5; stroke-linecap: square"/>
    </g>
    <g id="text_18">
     <!-- val_loss -->
     <g transform="translate(67.103125 38.754687) scale(0.1 -0.1)">
      <defs>
       <path id="DejaVuSans-76" d="M 191 3500 
L 800 3500 
L 1894 563 
L 2988 3500 
L 3597 3500 
L 2284 0 
L 1503 0 
L 191 3500 
z
" transform="scale(0.015625)"/>
      </defs>
      <use xlink:href="#DejaVuSans-76"/>
      <use xlink:href="#DejaVuSans-61" x="59.179688"/>
      <use xlink:href="#DejaVuSans-6c" x="120.458984"/>
      <use xlink:href="#DejaVuSans-5f" x="148.242188"/>
      <use xlink:href="#DejaVuSans-6c" x="198.242188"/>
      <use xlink:href="#DejaVuSans-6f" x="226.025391"/>
      <use xlink:href="#DejaVuSans-73" x="287.207031"/>
      <use xlink:href="#DejaVuSans-73" x="339.306641"/>
     </g>
    </g>
   </g>
  </g>
  <g id="axes_2">
   <g id="patch_8">
    <path d="M 456.212216 259.2 
L 811.303125 259.2 
L 811.303125 7.2 
L 456.212216 7.2 
z
" style="fill: #ffffff"/>
   </g>
   <g id="matplotlib.axis_3">
    <g id="xtick_10">
     <g id="line2d_21">
      <g>
       <use xlink:href="#m12f7b3bd8e" x="472.352712" y="259.2" style="stroke: #000000; stroke-width: 0.8"/>
      </g>
     </g>
     <g id="text_19">
      <!-- 0 -->
      <g transform="translate(469.171462 273.798437) scale(0.1 -0.1)">
       <use xlink:href="#DejaVuSans-30"/>
      </g>
     </g>
    </g>
    <g id="xtick_11">
     <g id="line2d_22">
      <g>
       <use xlink:href="#m12f7b3bd8e" x="512.906721" y="259.2" style="stroke: #000000; stroke-width: 0.8"/>
      </g>
     </g>
     <g id="text_20">
      <!-- 25 -->
      <g transform="translate(506.544221 273.798437) scale(0.1 -0.1)">
       <use xlink:href="#DejaVuSans-32"/>
       <use xlink:href="#DejaVuSans-35" x="63.623047"/>
      </g>
     </g>
    </g>
    <g id="xtick_12">
     <g id="line2d_23">
      <g>
       <use xlink:href="#m12f7b3bd8e" x="553.460731" y="259.2" style="stroke: #000000; stroke-width: 0.8"/>
      </g>
     </g>
     <g id="text_21">
      <!-- 50 -->
      <g transform="translate(547.098231 273.798437) scale(0.1 -0.1)">
       <use xlink:href="#DejaVuSans-35"/>
       <use xlink:href="#DejaVuSans-30" x="63.623047"/>
      </g>
     </g>
    </g>
    <g id="xtick_13">
     <g id="line2d_24">
      <g>
       <use xlink:href="#m12f7b3bd8e" x="594.014741" y="259.2" style="stroke: #000000; stroke-width: 0.8"/>
      </g>
     </g>
     <g id="text_22">
      <!-- 75 -->
      <g transform="translate(587.652241 273.798437) scale(0.1 -0.1)">
       <use xlink:href="#DejaVuSans-37"/>
       <use xlink:href="#DejaVuSans-35" x="63.623047"/>
      </g>
     </g>
    </g>
    <g id="xtick_14">
     <g id="line2d_25">
      <g>
       <use xlink:href="#m12f7b3bd8e" x="634.568751" y="259.2" style="stroke: #000000; stroke-width: 0.8"/>
      </g>
     </g>
     <g id="text_23">
      <!-- 100 -->
      <g transform="translate(625.025001 273.798437) scale(0.1 -0.1)">
       <use xlink:href="#DejaVuSans-31"/>
       <use xlink:href="#DejaVuSans-30" x="63.623047"/>
       <use xlink:href="#DejaVuSans-30" x="127.246094"/>
      </g>
     </g>
    </g>
    <g id="xtick_15">
     <g id="line2d_26">
      <g>
       <use xlink:href="#m12f7b3bd8e" x="675.12276" y="259.2" style="stroke: #000000; stroke-width: 0.8"/>
      </g>
     </g>
     <g id="text_24">
      <!-- 125 -->
      <g transform="translate(665.57901 273.798437) scale(0.1 -0.1)">
       <use xlink:href="#DejaVuSans-31"/>
       <use xlink:href="#DejaVuSans-32" x="63.623047"/>
       <use xlink:href="#DejaVuSans-35" x="127.246094"/>
      </g>
     </g>
    </g>
    <g id="xtick_16">
     <g id="line2d_27">
      <g>
       <use xlink:href="#m12f7b3bd8e" x="715.67677" y="259.2" style="stroke: #000000; stroke-width: 0.8"/>
      </g>
     </g>
     <g id="text_25">
      <!-- 150 -->
      <g transform="translate(706.13302 273.798437) scale(0.1 -0.1)">
       <use xlink:href="#DejaVuSans-31"/>
       <use xlink:href="#DejaVuSans-35" x="63.623047"/>
       <use xlink:href="#DejaVuSans-30" x="127.246094"/>
      </g>
     </g>
    </g>
    <g id="xtick_17">
     <g id="line2d_28">
      <g>
       <use xlink:href="#m12f7b3bd8e" x="756.23078" y="259.2" style="stroke: #000000; stroke-width: 0.8"/>
      </g>
     </g>
     <g id="text_26">
      <!-- 175 -->
      <g transform="translate(746.68703 273.798437) scale(0.1 -0.1)">
       <use xlink:href="#DejaVuSans-31"/>
       <use xlink:href="#DejaVuSans-37" x="63.623047"/>
       <use xlink:href="#DejaVuSans-35" x="127.246094"/>
      </g>
     </g>
    </g>
    <g id="xtick_18">
     <g id="line2d_29">
      <g>
       <use xlink:href="#m12f7b3bd8e" x="796.78479" y="259.2" style="stroke: #000000; stroke-width: 0.8"/>
      </g>
     </g>
     <g id="text_27">
      <!-- 200 -->
      <g transform="translate(787.24104 273.798437) scale(0.1 -0.1)">
       <use xlink:href="#DejaVuSans-32"/>
       <use xlink:href="#DejaVuSans-30" x="63.623047"/>
       <use xlink:href="#DejaVuSans-30" x="127.246094"/>
      </g>
     </g>
    </g>
   </g>
   <g id="matplotlib.axis_4">
    <g id="ytick_8">
     <g id="line2d_30">
      <g>
       <use xlink:href="#m2b032a94f0" x="456.212216" y="217.570443" style="stroke: #000000; stroke-width: 0.8"/>
      </g>
     </g>
     <g id="text_28">
      <!-- 0.80 -->
      <g transform="translate(426.946591 221.369661) scale(0.1 -0.1)">
       <defs>
        <path id="DejaVuSans-38" d="M 2034 2216 
Q 1584 2216 1326 1975 
Q 1069 1734 1069 1313 
Q 1069 891 1326 650 
Q 1584 409 2034 409 
Q 2484 409 2743 651 
Q 3003 894 3003 1313 
Q 3003 1734 2745 1975 
Q 2488 2216 2034 2216 
z
M 1403 2484 
Q 997 2584 770 2862 
Q 544 3141 544 3541 
Q 544 4100 942 4425 
Q 1341 4750 2034 4750 
Q 2731 4750 3128 4425 
Q 3525 4100 3525 3541 
Q 3525 3141 3298 2862 
Q 3072 2584 2669 2484 
Q 3125 2378 3379 2068 
Q 3634 1759 3634 1313 
Q 3634 634 3220 271 
Q 2806 -91 2034 -91 
Q 1263 -91 848 271 
Q 434 634 434 1313 
Q 434 1759 690 2068 
Q 947 2378 1403 2484 
z
M 1172 3481 
Q 1172 3119 1398 2916 
Q 1625 2713 2034 2713 
Q 2441 2713 2670 2916 
Q 2900 3119 2900 3481 
Q 2900 3844 2670 4047 
Q 2441 4250 2034 4250 
Q 1625 4250 1398 4047 
Q 1172 3844 1172 3481 
z
" transform="scale(0.015625)"/>
       </defs>
       <use xlink:href="#DejaVuSans-30"/>
       <use xlink:href="#DejaVuSans-2e" x="63.623047"/>
       <use xlink:href="#DejaVuSans-38" x="95.410156"/>
       <use xlink:href="#DejaVuSans-30" x="159.033203"/>
      </g>
     </g>
    </g>
    <g id="ytick_9">
     <g id="line2d_31">
      <g>
       <use xlink:href="#m2b032a94f0" x="456.212216" y="167.841468" style="stroke: #000000; stroke-width: 0.8"/>
      </g>
     </g>
     <g id="text_29">
      <!-- 0.85 -->
      <g transform="translate(426.946591 171.640687) scale(0.1 -0.1)">
       <use xlink:href="#DejaVuSans-30"/>
       <use xlink:href="#DejaVuSans-2e" x="63.623047"/>
       <use xlink:href="#DejaVuSans-38" x="95.410156"/>
       <use xlink:href="#DejaVuSans-35" x="159.033203"/>
      </g>
     </g>
    </g>
    <g id="ytick_10">
     <g id="line2d_32">
      <g>
       <use xlink:href="#m2b032a94f0" x="456.212216" y="118.112494" style="stroke: #000000; stroke-width: 0.8"/>
      </g>
     </g>
     <g id="text_30">
      <!-- 0.90 -->
      <g transform="translate(426.946591 121.911713) scale(0.1 -0.1)">
       <defs>
        <path id="DejaVuSans-39" d="M 703 97 
L 703 672 
Q 941 559 1184 500 
Q 1428 441 1663 441 
Q 2288 441 2617 861 
Q 2947 1281 2994 2138 
Q 2813 1869 2534 1725 
Q 2256 1581 1919 1581 
Q 1219 1581 811 2004 
Q 403 2428 403 3163 
Q 403 3881 828 4315 
Q 1253 4750 1959 4750 
Q 2769 4750 3195 4129 
Q 3622 3509 3622 2328 
Q 3622 1225 3098 567 
Q 2575 -91 1691 -91 
Q 1453 -91 1209 -44 
Q 966 3 703 97 
z
M 1959 2075 
Q 2384 2075 2632 2365 
Q 2881 2656 2881 3163 
Q 2881 3666 2632 3958 
Q 2384 4250 1959 4250 
Q 1534 4250 1286 3958 
Q 1038 3666 1038 3163 
Q 1038 2656 1286 2365 
Q 1534 2075 1959 2075 
z
" transform="scale(0.015625)"/>
       </defs>
       <use xlink:href="#DejaVuSans-30"/>
       <use xlink:href="#DejaVuSans-2e" x="63.623047"/>
       <use xlink:href="#DejaVuSans-39" x="95.410156"/>
       <use xlink:href="#DejaVuSans-30" x="159.033203"/>
      </g>
     </g>
    </g>
    <g id="ytick_11">
     <g id="line2d_33">
      <g>
       <use xlink:href="#m2b032a94f0" x="456.212216" y="68.38352" style="stroke: #000000; stroke-width: 0.8"/>
      </g>
     </g>
     <g id="text_31">
      <!-- 0.95 -->
      <g transform="translate(426.946591 72.182738) scale(0.1 -0.1)">
       <use xlink:href="#DejaVuSans-30"/>
       <use xlink:href="#DejaVuSans-2e" x="63.623047"/>
       <use xlink:href="#DejaVuSans-39" x="95.410156"/>
       <use xlink:href="#DejaVuSans-35" x="159.033203"/>
      </g>
     </g>
    </g>
    <g id="ytick_12">
     <g id="line2d_34">
      <g>
       <use xlink:href="#m2b032a94f0" x="456.212216" y="18.654545" style="stroke: #000000; stroke-width: 0.8"/>
      </g>
     </g>
     <g id="text_32">
      <!-- 1.00 -->
      <g transform="translate(426.946591 22.453764) scale(0.1 -0.1)">
       <use xlink:href="#DejaVuSans-31"/>
       <use xlink:href="#DejaVuSans-2e" x="63.623047"/>
       <use xlink:href="#DejaVuSans-30" x="95.410156"/>
       <use xlink:href="#DejaVuSans-30" x="159.033203"/>
      </g>
     </g>
    </g>
   </g>
   <g id="line2d_35">
    <path d="M 472.352712 247.745455 
L 473.974872 58.156929 
L 475.597033 37.588245 
L 477.219193 32.21455 
L 478.841353 28.132836 
L 480.463514 28.452957 
L 482.085674 26.829413 
L 483.707834 24.73713 
L 485.329995 23.433706 
L 486.952155 23.056379 
L 488.574316 24.051123 
L 490.196476 22.553316 
L 491.818636 23.079262 
L 493.440797 21.958781 
L 495.062957 22.02737 
L 496.685118 22.233195 
L 498.307278 19.88938 
L 499.929438 21.833045 
L 501.551599 22.976349 
L 503.173759 20.369561 
L 504.79592 22.164606 
L 506.41808 19.797909 
L 508.04024 20.666799 
L 509.662401 21.855868 
L 511.284561 20.735447 
L 512.906721 20.792594 
L 514.528882 20.312413 
L 516.151042 19.386258 
L 517.773203 21.604336 
L 519.395363 20.381002 
L 521.017523 19.900762 
L 522.639684 19.614966 
L 524.261844 20.198059 
L 525.884005 20.941213 
L 527.506165 21.135597 
L 529.128325 18.84893 
L 532.372646 18.654545 
L 533.994807 18.654545 
L 535.616967 20.952654 
L 537.239127 22.633346 
L 538.861288 19.48917 
L 542.105608 20.403826 
L 543.727769 20.015116 
L 545.349929 19.797909 
L 546.97209 20.403826 
L 548.59425 20.129471 
L 550.21641 19.546377 
L 551.838571 19.351993 
L 553.460731 19.48917 
L 555.082892 19.877939 
L 556.705052 19.546377 
L 558.327212 20.655417 
L 559.949373 19.054696 
L 561.571533 20.529621 
L 564.815854 19.08902 
L 566.438014 18.654545 
L 571.304495 18.654545 
L 572.926656 22.118841 
L 574.548816 20.300972 
L 576.170977 19.031873 
L 577.793137 18.677428 
L 585.903939 18.654545 
L 587.526099 18.654545 
L 589.14826 23.513736 
L 590.77042 19.48917 
L 594.014741 19.500612 
L 595.636901 18.974666 
L 597.259062 19.534936 
L 598.881222 19.512053 
L 600.503382 19.271963 
L 602.125543 19.729261 
L 603.747703 20.015116 
L 605.369864 18.951842 
L 606.992024 19.775026 
L 608.614184 19.08902 
L 610.236345 20.060882 
L 611.858505 19.283404 
L 613.480666 18.688869 
L 619.969307 18.654545 
L 623.213628 18.654545 
L 624.835788 19.100461 
L 626.457949 22.519051 
L 628.080109 19.226198 
L 629.702269 19.123344 
L 631.32443 19.580642 
L 632.94659 19.146167 
L 634.568751 19.077579 
L 636.190911 20.04944 
L 637.813071 19.214756 
L 641.057392 19.592083 
L 642.679553 18.746017 
L 649.168194 18.654545 
L 660.523317 18.654545 
L 662.145477 21.844486 
L 663.767638 19.729261 
L 665.389798 19.432023 
L 667.011958 19.00899 
L 668.634119 19.397699 
L 670.256279 19.226198 
L 671.87844 19.603525 
L 673.5006 19.077579 
L 675.12276 19.626407 
L 676.744921 18.814606 
L 678.367081 18.654545 
L 699.455166 18.654545 
L 701.077327 18.940401 
L 702.699487 21.867309 
L 704.321647 19.043255 
L 707.565968 19.306228 
L 709.188129 19.191933 
L 710.810289 19.40914 
L 714.05461 19.066137 
L 715.67677 19.580642 
L 717.29893 19.512053 
L 718.921091 19.00899 
L 720.543251 19.706437 
L 722.165412 19.226198 
L 723.787572 19.294786 
L 725.409732 19.043255 
L 728.654053 18.951842 
L 730.276214 19.477729 
L 731.898374 19.351993 
L 733.520534 19.523495 
L 735.142695 19.317669 
L 736.764855 18.92896 
L 738.387016 18.665987 
L 754.608619 18.654545 
L 762.719421 18.654545 
L 764.341582 19.443464 
L 765.963742 20.895507 
L 767.585903 18.940401 
L 769.208063 19.24908 
L 770.830223 18.860371 
L 772.452384 19.16905 
L 774.074544 18.7689 
L 775.696704 18.654545 
L 795.162629 18.654545 
L 795.162629 18.654545 
" clip-path="url(#p2b8df0e3c8)" style="fill: none; stroke: #1f77b4; stroke-width: 1.5; stroke-linecap: square"/>
   </g>
   <g id="line2d_36">
    <path d="M 472.352712 171.896955 
L 473.974872 153.548839 
L 475.597033 128.664635 
L 477.219193 144.729107 
L 478.841353 133.940693 
L 480.463514 138.035567 
L 482.085674 118.033733 
L 483.707834 130.790827 
L 485.329995 125.908457 
L 486.952155 121.656132 
L 488.574316 148.82398 
L 490.196476 116.61631 
L 491.818636 124.491035 
L 493.440797 124.412309 
L 495.062957 121.656132 
L 496.685118 126.617228 
L 498.307278 114.490118 
L 499.929438 117.955007 
L 501.551599 114.647629 
L 503.173759 111.733941 
L 506.41808 122.207332 
L 508.04024 114.962592 
L 511.284561 123.388576 
L 512.906721 126.617228 
L 514.528882 129.452131 
L 516.151042 118.112518 
L 517.773203 120.632399 
L 519.395363 124.254798 
L 521.017523 126.853465 
L 522.639684 128.74342 
L 524.261844 119.608666 
L 525.884005 128.428398 
L 529.128325 102.914268 
L 530.750486 101.26055 
L 532.372646 101.654298 
L 533.994807 100.70935 
L 535.616967 159.061135 
L 537.239127 115.671303 
L 538.861288 102.52052 
L 540.483448 115.277614 
L 542.105608 121.104873 
L 543.727769 117.010059 
L 545.349929 109.135274 
L 546.97209 119.451214 
L 548.59425 119.214977 
L 550.21641 108.741526 
L 551.838571 105.59166 
L 553.460731 114.568844 
L 555.082892 108.032815 
L 556.705052 118.348755 
L 558.327212 108.6628 
L 559.949373 120.002414 
L 561.571533 118.112518 
L 563.193694 124.018561 
L 564.815854 105.512934 
L 568.060175 105.119186 
L 569.682335 104.725438 
L 571.304495 104.646712 
L 572.926656 115.120103 
L 574.548816 109.922771 
L 576.170977 107.087867 
L 577.793137 105.985408 
L 579.415297 104.33169 
L 581.037458 103.622979 
L 582.659618 103.937942 
L 584.281779 103.78049 
L 585.903939 102.126772 
L 587.526099 102.992994 
L 589.14826 117.010059 
L 590.77042 109.607748 
L 592.392581 104.804164 
L 594.014741 114.332607 
L 595.636901 122.837317 
L 597.259062 113.387659 
L 598.881222 112.600163 
L 600.503382 113.54517 
L 602.125543 120.474888 
L 603.747703 110.473971 
L 605.369864 117.876281 
L 606.992024 112.521437 
L 608.614184 112.442711 
L 610.236345 121.104873 
L 611.858505 105.355423 
L 613.480666 104.252964 
L 615.102826 105.119186 
L 616.724986 104.961675 
L 618.347147 105.434149 
L 619.969307 105.434149 
L 621.591468 105.59166 
L 623.213628 106.457882 
L 624.835788 140.083033 
L 626.457949 119.766177 
L 628.080109 117.876281 
L 629.702269 109.76526 
L 631.32443 125.67222 
L 632.94659 107.560341 
L 634.568751 118.663718 
L 636.190911 111.733941 
L 637.813071 107.796578 
L 639.435232 110.946504 
L 641.057392 110.788993 
L 642.679553 106.615393 
L 644.301713 104.804164 
L 645.923873 104.095453 
L 647.546034 103.78049 
L 649.168194 104.174179 
L 650.790355 103.386742 
L 654.034675 102.835483 
L 655.656836 103.386742 
L 658.901156 102.914268 
L 660.523317 103.07172 
L 662.145477 117.088785 
L 663.767638 111.970178 
L 665.389798 112.127689 
L 667.011958 118.348755 
L 668.634119 107.324104 
L 670.256279 117.482533 
L 671.87844 111.261467 
L 673.5006 123.546087 
L 675.12276 110.395245 
L 676.744921 105.276697 
L 679.989242 103.307957 
L 681.611402 103.622979 
L 683.233562 103.78049 
L 684.855723 103.150505 
L 686.477883 102.835483 
L 688.100043 103.229231 
L 689.722204 102.363009 
L 691.344364 102.126772 
L 692.966525 101.339275 
L 694.588685 101.575572 
L 696.210845 101.969261 
L 697.833006 101.575572 
L 699.455166 101.496787 
L 701.077327 137.878115 
L 702.699487 113.702622 
L 704.321647 113.623896 
L 705.943808 121.026147 
L 707.565968 118.112518 
L 709.188129 106.772845 
L 710.810289 106.694119 
L 712.432449 122.128606 
L 714.05461 112.363926 
L 715.67677 110.946504 
L 717.29893 112.363926 
L 718.921091 114.175096 
L 720.543251 113.308874 
L 722.165412 113.781407 
L 723.787572 116.301288 
L 725.409732 108.6628 
L 727.031893 112.521437 
L 728.654053 112.2852 
L 730.276214 104.33169 
L 731.898374 119.687451 
L 733.520534 112.600163 
L 735.142695 121.892369 
L 736.764855 108.741526 
L 738.387016 105.985408 
L 740.009176 105.827897 
L 743.253497 105.749171 
L 746.497817 105.040401 
L 748.119978 104.567927 
L 749.742138 104.489201 
L 751.364299 104.252964 
L 752.986459 103.701705 
L 754.608619 103.622979 
L 756.23078 103.150505 
L 757.85294 103.307957 
L 759.475101 103.07172 
L 762.719421 102.835483 
L 764.341582 132.444545 
L 765.963742 115.828814 
L 767.585903 118.427481 
L 769.208063 123.152339 
L 770.830223 119.372429 
L 772.452384 109.529023 
L 774.074544 105.906623 
L 777.318865 106.300371 
L 778.941025 105.670386 
L 780.563186 105.276697 
L 782.185346 105.355423 
L 783.807506 104.961675 
L 785.429667 104.410475 
L 787.051827 104.410475 
L 788.673988 104.095453 
L 790.296148 104.489201 
L 791.918308 104.33169 
L 793.540469 104.33169 
L 795.162629 103.701705 
L 795.162629 103.701705 
" clip-path="url(#p2b8df0e3c8)" style="fill: none; stroke: #ff7f0e; stroke-width: 1.5; stroke-linecap: square"/>
   </g>
   <g id="patch_9">
    <path d="M 456.212216 259.2 
L 456.212216 7.2 
" style="fill: none; stroke: #000000; stroke-width: 0.8; stroke-linejoin: miter; stroke-linecap: square"/>
   </g>
   <g id="patch_10">
    <path d="M 811.303125 259.2 
L 811.303125 7.2 
" style="fill: none; stroke: #000000; stroke-width: 0.8; stroke-linejoin: miter; stroke-linecap: square"/>
   </g>
   <g id="patch_11">
    <path d="M 456.212216 259.2 
L 811.303125 259.2 
" style="fill: none; stroke: #000000; stroke-width: 0.8; stroke-linejoin: miter; stroke-linecap: square"/>
   </g>
   <g id="patch_12">
    <path d="M 456.212216 7.2 
L 811.303125 7.2 
" style="fill: none; stroke: #000000; stroke-width: 0.8; stroke-linejoin: miter; stroke-linecap: square"/>
   </g>
   <g id="legend_2">
    <g id="patch_13">
     <path d="M 726.903125 254.2 
L 804.303125 254.2 
Q 806.303125 254.2 806.303125 252.2 
L 806.303125 223.2875 
Q 806.303125 221.2875 804.303125 221.2875 
L 726.903125 221.2875 
Q 724.903125 221.2875 724.903125 223.2875 
L 724.903125 252.2 
Q 724.903125 254.2 726.903125 254.2 
z
" style="fill: #ffffff; opacity: 0.8; stroke: #cccccc; stroke-linejoin: miter"/>
    </g>
    <g id="line2d_37">
     <path d="M 728.903125 229.385937 
L 738.903125 229.385937 
L 748.903125 229.385937 
" style="fill: none; stroke: #1f77b4; stroke-width: 1.5; stroke-linecap: square"/>
    </g>
    <g id="text_33">
     <!-- train_acc -->
     <g transform="translate(756.903125 232.885937) scale(0.1 -0.1)">
      <defs>
       <path id="DejaVuSans-63" d="M 3122 3366 
L 3122 2828 
Q 2878 2963 2633 3030 
Q 2388 3097 2138 3097 
Q 1578 3097 1268 2742 
Q 959 2388 959 1747 
Q 959 1106 1268 751 
Q 1578 397 2138 397 
Q 2388 397 2633 464 
Q 2878 531 3122 666 
L 3122 134 
Q 2881 22 2623 -34 
Q 2366 -91 2075 -91 
Q 1284 -91 818 406 
Q 353 903 353 1747 
Q 353 2603 823 3093 
Q 1294 3584 2113 3584 
Q 2378 3584 2631 3529 
Q 2884 3475 3122 3366 
z
" transform="scale(0.015625)"/>
      </defs>
      <use xlink:href="#DejaVuSans-74"/>
      <use xlink:href="#DejaVuSans-72" x="39.208984"/>
      <use xlink:href="#DejaVuSans-61" x="80.322266"/>
      <use xlink:href="#DejaVuSans-69" x="141.601562"/>
      <use xlink:href="#DejaVuSans-6e" x="169.384766"/>
      <use xlink:href="#DejaVuSans-5f" x="232.763672"/>
      <use xlink:href="#DejaVuSans-61" x="282.763672"/>
      <use xlink:href="#DejaVuSans-63" x="344.042969"/>
      <use xlink:href="#DejaVuSans-63" x="399.023438"/>
     </g>
    </g>
    <g id="line2d_38">
     <path d="M 728.903125 244.342187 
L 738.903125 244.342187 
L 748.903125 244.342187 
" style="fill: none; stroke: #ff7f0e; stroke-width: 1.5; stroke-linecap: square"/>
    </g>
    <g id="text_34">
     <!-- val_acc -->
     <g transform="translate(756.903125 247.842187) scale(0.1 -0.1)">
      <use xlink:href="#DejaVuSans-76"/>
      <use xlink:href="#DejaVuSans-61" x="59.179688"/>
      <use xlink:href="#DejaVuSans-6c" x="120.458984"/>
      <use xlink:href="#DejaVuSans-5f" x="148.242188"/>
      <use xlink:href="#DejaVuSans-61" x="198.242188"/>
      <use xlink:href="#DejaVuSans-63" x="259.521484"/>
      <use xlink:href="#DejaVuSans-63" x="314.501953"/>
     </g>
    </g>
   </g>
  </g>
 </g>
 <defs>
  <clipPath id="p2535c6d658">
   <rect x="30.103125" y="7.2" width="355.090909" height="252"/>
  </clipPath>
  <clipPath id="p2b8df0e3c8">
   <rect x="456.212216" y="7.2" width="355.090909" height="252"/>
  </clipPath>
 </defs>
</svg>
