<?xml version="1.0" encoding="utf-8" standalone="no"?>
<!DOCTYPE svg PUBLIC "-//W3C//DTD SVG 1.1//EN"
  "http://www.w3.org/Graphics/SVG/1.1/DTD/svg11.dtd">
<svg xmlns:xlink="http://www.w3.org/1999/xlink" width="818.503125pt" height="283.078125pt" viewBox="0 0 818.503125 283.078125" xmlns="http://www.w3.org/2000/svg" version="1.1">
 <metadata>
  <rdf:RDF xmlns:dc="http://purl.org/dc/elements/1.1/" xmlns:cc="http://creativecommons.org/ns#" xmlns:rdf="http://www.w3.org/1999/02/22-rdf-syntax-ns#">
   <cc:Work>
    <dc:type rdf:resource="http://purl.org/dc/dcmitype/StillImage"/>
    <dc:date>2023-01-22T23:04:22.952896</dc:date>
    <dc:format>image/svg+xml</dc:format>
    <dc:creator>
     <cc:Agent>
      <dc:title>Matplotlib v3.6.2, https://matplotlib.org/</dc:title>
     </cc:Agent>
    </dc:creator>
   </cc:Work>
  </rdf:RDF>
 </metadata>
 <defs>
  <style type="text/css">*{stroke-linejoin: round; stroke-linecap: butt}</style>
 </defs>
 <g id="figure_1">
  <g id="patch_1">
   <path d="M 0 283.078125 
L 818.503125 283.078125 
L 818.503125 0 
L 0 0 
z
" style="fill: #ffffff"/>
  </g>
  <g id="axes_1">
   <g id="patch_2">
    <path d="M 30.103125 259.2 
L 385.194034 259.2 
L 385.194034 7.2 
L 30.103125 7.2 
z
" style="fill: #ffffff"/>
   </g>
   <g id="matplotlib.axis_1">
    <g id="xtick_1">
     <g id="line2d_1">
      <defs>
       <path id="m5030664be3" d="M 0 0 
L 0 3.5 
" style="stroke: #000000; stroke-width: 0.8"/>
      </defs>
      <g>
       <use xlink:href="#m5030664be3" x="46.243621" y="259.2" style="stroke: #000000; stroke-width: 0.8"/>
      </g>
     </g>
     <g id="text_1">
      <!-- 0 -->
      <g transform="translate(43.062371 273.798437) scale(0.1 -0.1)">
       <defs>
        <path id="DejaVuSans-30" d="M 2034 4250 
Q 1547 4250 1301 3770 
Q 1056 3291 1056 2328 
Q 1056 1369 1301 889 
Q 1547 409 2034 409 
Q 2525 409 2770 889 
Q 3016 1369 3016 2328 
Q 3016 3291 2770 3770 
Q 2525 4250 2034 4250 
z
M 2034 4750 
Q 2819 4750 3233 4129 
Q 3647 3509 3647 2328 
Q 3647 1150 3233 529 
Q 2819 -91 2034 -91 
Q 1250 -91 836 529 
Q 422 1150 422 2328 
Q 422 3509 836 4129 
Q 1250 4750 2034 4750 
z
" transform="scale(0.015625)"/>
       </defs>
       <use xlink:href="#DejaVuSans-30"/>
      </g>
     </g>
    </g>
    <g id="xtick_2">
     <g id="line2d_2">
      <g>
       <use xlink:href="#m5030664be3" x="98.309737" y="259.2" style="stroke: #000000; stroke-width: 0.8"/>
      </g>
     </g>
     <g id="text_2">
      <!-- 20 -->
      <g transform="translate(91.947237 273.798437) scale(0.1 -0.1)">
       <defs>
        <path id="DejaVuSans-32" d="M 1228 531 
L 3431 531 
L 3431 0 
L 469 0 
L 469 531 
Q 828 903 1448 1529 
Q 2069 2156 2228 2338 
Q 2531 2678 2651 2914 
Q 2772 3150 2772 3378 
Q 2772 3750 2511 3984 
Q 2250 4219 1831 4219 
Q 1534 4219 1204 4116 
Q 875 4013 500 3803 
L 500 4441 
Q 881 4594 1212 4672 
Q 1544 4750 1819 4750 
Q 2544 4750 2975 4387 
Q 3406 4025 3406 3419 
Q 3406 3131 3298 2873 
Q 3191 2616 2906 2266 
Q 2828 2175 2409 1742 
Q 1991 1309 1228 531 
z
" transform="scale(0.015625)"/>
       </defs>
       <use xlink:href="#DejaVuSans-32"/>
       <use xlink:href="#DejaVuSans-30" x="63.623047"/>
      </g>
     </g>
    </g>
    <g id="xtick_3">
     <g id="line2d_3">
      <g>
       <use xlink:href="#m5030664be3" x="150.375852" y="259.2" style="stroke: #000000; stroke-width: 0.8"/>
      </g>
     </g>
     <g id="text_3">
      <!-- 40 -->
      <g transform="translate(144.013352 273.798437) scale(0.1 -0.1)">
       <defs>
        <path id="DejaVuSans-34" d="M 2419 4116 
L 825 1625 
L 2419 1625 
L 2419 4116 
z
M 2253 4666 
L 3047 4666 
L 3047 1625 
L 3713 1625 
L 3713 1100 
L 3047 1100 
L 3047 0 
L 2419 0 
L 2419 1100 
L 313 1100 
L 313 1709 
L 2253 4666 
z
" transform="scale(0.015625)"/>
       </defs>
       <use xlink:href="#DejaVuSans-34"/>
       <use xlink:href="#DejaVuSans-30" x="63.623047"/>
      </g>
     </g>
    </g>
    <g id="xtick_4">
     <g id="line2d_4">
      <g>
       <use xlink:href="#m5030664be3" x="202.441968" y="259.2" style="stroke: #000000; stroke-width: 0.8"/>
      </g>
     </g>
     <g id="text_4">
      <!-- 60 -->
      <g transform="translate(196.079468 273.798437) scale(0.1 -0.1)">
       <defs>
        <path id="DejaVuSans-36" d="M 2113 2584 
Q 1688 2584 1439 2293 
Q 1191 2003 1191 1497 
Q 1191 994 1439 701 
Q 1688 409 2113 409 
Q 2538 409 2786 701 
Q 3034 994 3034 1497 
Q 3034 2003 2786 2293 
Q 2538 2584 2113 2584 
z
M 3366 4563 
L 3366 3988 
Q 3128 4100 2886 4159 
Q 2644 4219 2406 4219 
Q 1781 4219 1451 3797 
Q 1122 3375 1075 2522 
Q 1259 2794 1537 2939 
Q 1816 3084 2150 3084 
Q 2853 3084 3261 2657 
Q 3669 2231 3669 1497 
Q 3669 778 3244 343 
Q 2819 -91 2113 -91 
Q 1303 -91 875 529 
Q 447 1150 447 2328 
Q 447 3434 972 4092 
Q 1497 4750 2381 4750 
Q 2619 4750 2861 4703 
Q 3103 4656 3366 4563 
z
" transform="scale(0.015625)"/>
       </defs>
       <use xlink:href="#DejaVuSans-36"/>
       <use xlink:href="#DejaVuSans-30" x="63.623047"/>
      </g>
     </g>
    </g>
    <g id="xtick_5">
     <g id="line2d_5">
      <g>
       <use xlink:href="#m5030664be3" x="254.508084" y="259.2" style="stroke: #000000; stroke-width: 0.8"/>
      </g>
     </g>
     <g id="text_5">
      <!-- 80 -->
      <g transform="translate(248.145584 273.798437) scale(0.1 -0.1)">
       <defs>
        <path id="DejaVuSans-38" d="M 2034 2216 
Q 1584 2216 1326 1975 
Q 1069 1734 1069 1313 
Q 1069 891 1326 650 
Q 1584 409 2034 409 
Q 2484 409 2743 651 
Q 3003 894 3003 1313 
Q 3003 1734 2745 1975 
Q 2488 2216 2034 2216 
z
M 1403 2484 
Q 997 2584 770 2862 
Q 544 3141 544 3541 
Q 544 4100 942 4425 
Q 1341 4750 2034 4750 
Q 2731 4750 3128 4425 
Q 3525 4100 3525 3541 
Q 3525 3141 3298 2862 
Q 3072 2584 2669 2484 
Q 3125 2378 3379 2068 
Q 3634 1759 3634 1313 
Q 3634 634 3220 271 
Q 2806 -91 2034 -91 
Q 1263 -91 848 271 
Q 434 634 434 1313 
Q 434 1759 690 2068 
Q 947 2378 1403 2484 
z
M 1172 3481 
Q 1172 3119 1398 2916 
Q 1625 2713 2034 2713 
Q 2441 2713 2670 2916 
Q 2900 3119 2900 3481 
Q 2900 3844 2670 4047 
Q 2441 4250 2034 4250 
Q 1625 4250 1398 4047 
Q 1172 3844 1172 3481 
z
" transform="scale(0.015625)"/>
       </defs>
       <use xlink:href="#DejaVuSans-38"/>
       <use xlink:href="#DejaVuSans-30" x="63.623047"/>
      </g>
     </g>
    </g>
    <g id="xtick_6">
     <g id="line2d_6">
      <g>
       <use xlink:href="#m5030664be3" x="306.574199" y="259.2" style="stroke: #000000; stroke-width: 0.8"/>
      </g>
     </g>
     <g id="text_6">
      <!-- 100 -->
      <g transform="translate(297.030449 273.798437) scale(0.1 -0.1)">
       <defs>
        <path id="DejaVuSans-31" d="M 794 531 
L 1825 531 
L 1825 4091 
L 703 3866 
L 703 4441 
L 1819 4666 
L 2450 4666 
L 2450 531 
L 3481 531 
L 3481 0 
L 794 0 
L 794 531 
z
" transform="scale(0.015625)"/>
       </defs>
       <use xlink:href="#DejaVuSans-31"/>
       <use xlink:href="#DejaVuSans-30" x="63.623047"/>
       <use xlink:href="#DejaVuSans-30" x="127.246094"/>
      </g>
     </g>
    </g>
    <g id="xtick_7">
     <g id="line2d_7">
      <g>
       <use xlink:href="#m5030664be3" x="358.640315" y="259.2" style="stroke: #000000; stroke-width: 0.8"/>
      </g>
     </g>
     <g id="text_7">
      <!-- 120 -->
      <g transform="translate(349.096565 273.798437) scale(0.1 -0.1)">
       <use xlink:href="#DejaVuSans-31"/>
       <use xlink:href="#DejaVuSans-32" x="63.623047"/>
       <use xlink:href="#DejaVuSans-30" x="127.246094"/>
      </g>
     </g>
    </g>
   </g>
   <g id="matplotlib.axis_2">
    <g id="ytick_1">
     <g id="line2d_8">
      <defs>
       <path id="me89d79f575" d="M 0 0 
L -3.5 0 
" style="stroke: #000000; stroke-width: 0.8"/>
      </defs>
      <g>
       <use xlink:href="#me89d79f575" x="30.103125" y="250.668898" style="stroke: #000000; stroke-width: 0.8"/>
      </g>
     </g>
     <g id="text_8">
      <!-- 0.0 -->
      <g transform="translate(7.2 254.468116) scale(0.1 -0.1)">
       <defs>
        <path id="DejaVuSans-2e" d="M 684 794 
L 1344 794 
L 1344 0 
L 684 0 
L 684 794 
z
" transform="scale(0.015625)"/>
       </defs>
       <use xlink:href="#DejaVuSans-30"/>
       <use xlink:href="#DejaVuSans-2e" x="63.623047"/>
       <use xlink:href="#DejaVuSans-30" x="95.410156"/>
      </g>
     </g>
    </g>
    <g id="ytick_2">
     <g id="line2d_9">
      <g>
       <use xlink:href="#me89d79f575" x="30.103125" y="203.770058" style="stroke: #000000; stroke-width: 0.8"/>
      </g>
     </g>
     <g id="text_9">
      <!-- 0.5 -->
      <g transform="translate(7.2 207.569277) scale(0.1 -0.1)">
       <defs>
        <path id="DejaVuSans-35" d="M 691 4666 
L 3169 4666 
L 3169 4134 
L 1269 4134 
L 1269 2991 
Q 1406 3038 1543 3061 
Q 1681 3084 1819 3084 
Q 2600 3084 3056 2656 
Q 3513 2228 3513 1497 
Q 3513 744 3044 326 
Q 2575 -91 1722 -91 
Q 1428 -91 1123 -41 
Q 819 9 494 109 
L 494 744 
Q 775 591 1075 516 
Q 1375 441 1709 441 
Q 2250 441 2565 725 
Q 2881 1009 2881 1497 
Q 2881 1984 2565 2268 
Q 2250 2553 1709 2553 
Q 1456 2553 1204 2497 
Q 953 2441 691 2322 
L 691 4666 
z
" transform="scale(0.015625)"/>
       </defs>
       <use xlink:href="#DejaVuSans-30"/>
       <use xlink:href="#DejaVuSans-2e" x="63.623047"/>
       <use xlink:href="#DejaVuSans-35" x="95.410156"/>
      </g>
     </g>
    </g>
    <g id="ytick_3">
     <g id="line2d_10">
      <g>
       <use xlink:href="#me89d79f575" x="30.103125" y="156.871219" style="stroke: #000000; stroke-width: 0.8"/>
      </g>
     </g>
     <g id="text_10">
      <!-- 1.0 -->
      <g transform="translate(7.2 160.670437) scale(0.1 -0.1)">
       <use xlink:href="#DejaVuSans-31"/>
       <use xlink:href="#DejaVuSans-2e" x="63.623047"/>
       <use xlink:href="#DejaVuSans-30" x="95.410156"/>
      </g>
     </g>
    </g>
    <g id="ytick_4">
     <g id="line2d_11">
      <g>
       <use xlink:href="#me89d79f575" x="30.103125" y="109.972379" style="stroke: #000000; stroke-width: 0.8"/>
      </g>
     </g>
     <g id="text_11">
      <!-- 1.5 -->
      <g transform="translate(7.2 113.771598) scale(0.1 -0.1)">
       <use xlink:href="#DejaVuSans-31"/>
       <use xlink:href="#DejaVuSans-2e" x="63.623047"/>
       <use xlink:href="#DejaVuSans-35" x="95.410156"/>
      </g>
     </g>
    </g>
    <g id="ytick_5">
     <g id="line2d_12">
      <g>
       <use xlink:href="#me89d79f575" x="30.103125" y="63.07354" style="stroke: #000000; stroke-width: 0.8"/>
      </g>
     </g>
     <g id="text_12">
      <!-- 2.0 -->
      <g transform="translate(7.2 66.872758) scale(0.1 -0.1)">
       <use xlink:href="#DejaVuSans-32"/>
       <use xlink:href="#DejaVuSans-2e" x="63.623047"/>
       <use xlink:href="#DejaVuSans-30" x="95.410156"/>
      </g>
     </g>
    </g>
    <g id="ytick_6">
     <g id="line2d_13">
      <g>
       <use xlink:href="#me89d79f575" x="30.103125" y="16.1747" style="stroke: #000000; stroke-width: 0.8"/>
      </g>
     </g>
     <g id="text_13">
      <!-- 2.5 -->
      <g transform="translate(7.2 19.973919) scale(0.1 -0.1)">
       <use xlink:href="#DejaVuSans-32"/>
       <use xlink:href="#DejaVuSans-2e" x="63.623047"/>
       <use xlink:href="#DejaVuSans-35" x="95.410156"/>
      </g>
     </g>
    </g>
   </g>
   <g id="line2d_14">
    <path d="M 46.243621 18.654545 
L 48.846927 157.85888 
L 51.450232 186.112566 
L 54.053538 199.470141 
L 56.656844 207.856097 
L 59.26015 213.595508 
L 61.863456 218.245827 
L 64.466761 221.434427 
L 67.070067 224.327355 
L 69.673373 226.444169 
L 72.276679 228.122604 
L 74.879985 230.117722 
L 77.48329 231.414727 
L 80.086596 232.903059 
L 82.689902 233.683424 
L 85.293208 234.926893 
L 87.896513 235.668972 
L 90.499819 236.530037 
L 93.103125 237.143394 
L 95.706431 237.325751 
L 98.309737 238.295627 
L 100.913042 239.093691 
L 103.516348 239.043235 
L 106.119654 239.861953 
L 108.72296 240.412789 
L 111.326265 240.634933 
L 113.929571 240.729671 
L 116.532877 241.121368 
L 119.136183 241.620387 
L 121.739489 241.746908 
L 124.342794 242.051317 
L 126.9461 242.504676 
L 129.549406 242.445587 
L 132.152712 242.580936 
L 134.756018 242.937804 
L 137.359323 243.376244 
L 139.962629 243.510552 
L 142.565935 243.455831 
L 145.169241 243.665927 
L 147.772546 243.796915 
L 150.375852 244.001296 
L 152.979158 244.120913 
L 155.582464 244.312552 
L 158.18577 244.284456 
L 160.789075 244.392641 
L 163.392381 244.77548 
L 165.995687 244.578815 
L 168.598993 244.771056 
L 171.202299 244.945566 
L 173.805604 245.140947 
L 176.40891 244.671684 
L 179.012216 245.166366 
L 181.615522 245.467177 
L 184.218827 245.282885 
L 186.822133 245.443631 
L 189.425439 245.397604 
L 192.028745 245.576068 
L 194.632051 245.849363 
L 197.235356 245.423319 
L 199.838662 245.678389 
L 202.441968 245.919124 
L 205.045274 245.599155 
L 207.64858 246.230029 
L 210.251885 245.762149 
L 212.855191 245.971511 
L 215.458497 246.013084 
L 218.061803 246.085886 
L 220.665108 246.223807 
L 223.268414 245.841221 
L 225.87172 246.414046 
L 228.475026 246.335992 
L 231.078332 246.392907 
L 233.681637 246.142691 
L 236.284943 246.428061 
L 238.888249 246.195533 
L 241.491555 247.041607 
L 244.094861 246.546883 
L 246.698166 246.42842 
L 249.301472 246.566454 
L 251.904778 246.647955 
L 254.508084 246.685593 
L 257.111389 246.702198 
L 259.714695 246.574201 
L 262.318001 246.838501 
L 264.921307 246.669843 
L 267.524613 247.103743 
L 270.127918 246.975636 
L 272.731224 246.615653 
L 275.33453 247.092997 
L 277.937836 246.771866 
L 280.541142 246.889384 
L 283.144447 246.751072 
L 285.747753 246.767708 
L 288.351059 247.092708 
L 290.954365 246.829278 
L 293.55767 246.973879 
L 296.160976 246.873895 
L 298.764282 246.849158 
L 301.367588 247.248328 
L 303.970894 247.144585 
L 306.574199 246.994078 
L 309.177505 246.765196 
L 311.780811 247.39796 
L 314.384117 247.154199 
L 316.987423 246.872946 
L 319.590728 247.603978 
L 322.194034 247.176409 
L 324.79734 246.940163 
L 327.400646 247.437149 
L 330.003951 247.210473 
L 332.607257 246.887468 
L 335.210563 247.262789 
L 337.813869 247.222085 
L 340.417175 247.608591 
L 343.02048 247.319389 
L 345.623786 247.433306 
L 348.227092 247.67686 
L 350.830398 247.073402 
L 353.433704 247.26642 
L 356.037009 247.548672 
L 358.640315 247.465295 
L 361.243621 247.041426 
L 363.846927 247.173422 
L 366.450232 247.745455 
L 369.053538 247.145483 
" clip-path="url(#p48e63631fd)" style="fill: none; stroke: #1f77b4; stroke-width: 1.5; stroke-linecap: square"/>
   </g>
   <g id="line2d_15">
    <path d="M 46.243621 140.576272 
L 48.846927 182.457188 
L 51.450232 191.510579 
L 54.053538 197.720004 
L 56.656844 202.573615 
L 59.26015 204.082144 
L 61.863456 209.358904 
L 64.466761 207.927838 
L 67.070067 207.168163 
L 69.673373 209.0677 
L 72.276679 209.698197 
L 74.879985 210.468139 
L 77.48329 208.939816 
L 80.086596 210.68323 
L 82.689902 209.302158 
L 85.293208 212.303449 
L 87.896513 212.219358 
L 90.499819 210.029481 
L 93.103125 208.333653 
L 95.706431 208.142298 
L 98.309737 212.933233 
L 100.913042 210.201574 
L 103.516348 212.993211 
L 106.119654 210.358957 
L 108.72296 212.548915 
L 111.326265 209.28671 
L 113.929571 212.236016 
L 116.532877 210.131583 
L 119.136183 211.824915 
L 121.739489 211.383875 
L 124.342794 210.177117 
L 126.9461 209.56368 
L 129.549406 212.66023 
L 132.152712 207.170428 
L 134.756018 208.297537 
L 137.359323 210.221111 
L 139.962629 208.729494 
L 142.565935 207.855027 
L 145.169241 211.153792 
L 147.772546 208.630275 
L 150.375852 206.083955 
L 152.979158 208.951823 
L 155.582464 208.253395 
L 158.18577 210.697903 
L 160.789075 207.199416 
L 163.392381 209.93883 
L 165.995687 208.185162 
L 168.598993 210.332722 
L 171.202299 206.751089 
L 173.805604 206.523726 
L 176.40891 206.41108 
L 179.012216 207.535259 
L 181.615522 205.717144 
L 184.218827 207.814712 
L 186.822133 201.819939 
L 189.425439 207.67745 
L 192.028745 209.750119 
L 194.632051 202.90677 
L 197.235356 208.125232 
L 199.838662 205.591564 
L 202.441968 207.410102 
L 205.045274 208.694826 
L 207.64858 203.984451 
L 210.251885 207.139153 
L 212.855191 207.337536 
L 215.458497 205.609019 
L 218.061803 209.441994 
L 220.665108 204.620097 
L 223.268414 206.757048 
L 225.87172 206.480484 
L 228.475026 206.036735 
L 231.078332 206.761884 
L 233.681637 206.746647 
L 236.284943 206.807785 
L 238.888249 205.219056 
L 241.491555 206.408894 
L 244.094861 206.670928 
L 246.698166 208.027416 
L 249.301472 205.851295 
L 251.904778 203.235267 
L 254.508084 206.162654 
L 257.111389 202.161972 
L 259.714695 208.930019 
L 262.318001 206.209337 
L 264.921307 206.09867 
L 267.524613 204.021484 
L 270.127918 200.436859 
L 272.731224 203.751156 
L 275.33453 207.236178 
L 277.937836 205.629495 
L 280.541142 202.134795 
L 283.144447 203.546958 
L 285.747753 208.108446 
L 288.351059 205.967127 
L 290.954365 205.756106 
L 293.55767 203.468358 
L 296.160976 206.541549 
L 298.764282 207.301828 
L 301.367588 202.671101 
L 303.970894 205.312842 
L 306.574199 205.410728 
L 309.177505 203.999451 
L 311.780811 201.220507 
L 314.384117 200.014593 
L 316.987423 204.651235 
L 319.590728 205.238171 
L 322.194034 207.757286 
L 324.79734 202.655246 
L 327.400646 205.173019 
L 330.003951 206.066431 
L 332.607257 206.3777 
L 335.210563 205.449626 
L 337.813869 205.916542 
L 340.417175 203.654133 
L 343.02048 203.642315 
L 345.623786 202.720675 
L 348.227092 203.979011 
L 350.830398 204.922287 
L 353.433704 205.899373 
L 356.037009 201.884037 
L 358.640315 204.897715 
L 361.243621 206.337086 
L 363.846927 207.400695 
L 366.450232 204.970412 
L 369.053538 204.250088 
" clip-path="url(#p48e63631fd)" style="fill: none; stroke: #ff7f0e; stroke-width: 1.5; stroke-linecap: square"/>
   </g>
   <g id="patch_3">
    <path d="M 30.103125 259.2 
L 30.103125 7.2 
" style="fill: none; stroke: #000000; stroke-width: 0.8; stroke-linejoin: miter; stroke-linecap: square"/>
   </g>
   <g id="patch_4">
    <path d="M 385.194034 259.2 
L 385.194034 7.2 
" style="fill: none; stroke: #000000; stroke-width: 0.8; stroke-linejoin: miter; stroke-linecap: square"/>
   </g>
   <g id="patch_5">
    <path d="M 30.103125 259.2 
L 385.194034 259.2 
" style="fill: none; stroke: #000000; stroke-width: 0.8; stroke-linejoin: miter; stroke-linecap: square"/>
   </g>
   <g id="patch_6">
    <path d="M 30.103125 7.2 
L 385.194034 7.2 
" style="fill: none; stroke: #000000; stroke-width: 0.8; stroke-linejoin: miter; stroke-linecap: square"/>
   </g>
   <g id="legend_1">
    <g id="patch_7">
     <path d="M 298.603409 45.1125 
L 378.194034 45.1125 
Q 380.194034 45.1125 380.194034 43.1125 
L 380.194034 14.2 
Q 380.194034 12.2 378.194034 12.2 
L 298.603409 12.2 
Q 296.603409 12.2 296.603409 14.2 
L 296.603409 43.1125 
Q 296.603409 45.1125 298.603409 45.1125 
z
" style="fill: #ffffff; opacity: 0.8; stroke: #cccccc; stroke-linejoin: miter"/>
    </g>
    <g id="line2d_16">
     <path d="M 300.603409 20.298437 
L 310.603409 20.298437 
L 320.603409 20.298437 
" style="fill: none; stroke: #1f77b4; stroke-width: 1.5; stroke-linecap: square"/>
    </g>
    <g id="text_14">
     <!-- train_loss -->
     <g transform="translate(328.603409 23.798437) scale(0.1 -0.1)">
      <defs>
       <path id="DejaVuSans-74" d="M 1172 4494 
L 1172 3500 
L 2356 3500 
L 2356 3053 
L 1172 3053 
L 1172 1153 
Q 1172 725 1289 603 
Q 1406 481 1766 481 
L 2356 481 
L 2356 0 
L 1766 0 
Q 1100 0 847 248 
Q 594 497 594 1153 
L 594 3053 
L 172 3053 
L 172 3500 
L 594 3500 
L 594 4494 
L 1172 4494 
z
" transform="scale(0.015625)"/>
       <path id="DejaVuSans-72" d="M 2631 2963 
Q 2534 3019 2420 3045 
Q 2306 3072 2169 3072 
Q 1681 3072 1420 2755 
Q 1159 2438 1159 1844 
L 1159 0 
L 581 0 
L 581 3500 
L 1159 3500 
L 1159 2956 
Q 1341 3275 1631 3429 
Q 1922 3584 2338 3584 
Q 2397 3584 2469 3576 
Q 2541 3569 2628 3553 
L 2631 2963 
z
" transform="scale(0.015625)"/>
       <path id="DejaVuSans-61" d="M 2194 1759 
Q 1497 1759 1228 1600 
Q 959 1441 959 1056 
Q 959 750 1161 570 
Q 1363 391 1709 391 
Q 2188 391 2477 730 
Q 2766 1069 2766 1631 
L 2766 1759 
L 2194 1759 
z
M 3341 1997 
L 3341 0 
L 2766 0 
L 2766 531 
Q 2569 213 2275 61 
Q 1981 -91 1556 -91 
Q 1019 -91 701 211 
Q 384 513 384 1019 
Q 384 1609 779 1909 
Q 1175 2209 1959 2209 
L 2766 2209 
L 2766 2266 
Q 2766 2663 2505 2880 
Q 2244 3097 1772 3097 
Q 1472 3097 1187 3025 
Q 903 2953 641 2809 
L 641 3341 
Q 956 3463 1253 3523 
Q 1550 3584 1831 3584 
Q 2591 3584 2966 3190 
Q 3341 2797 3341 1997 
z
" transform="scale(0.015625)"/>
       <path id="DejaVuSans-69" d="M 603 3500 
L 1178 3500 
L 1178 0 
L 603 0 
L 603 3500 
z
M 603 4863 
L 1178 4863 
L 1178 4134 
L 603 4134 
L 603 4863 
z
" transform="scale(0.015625)"/>
       <path id="DejaVuSans-6e" d="M 3513 2113 
L 3513 0 
L 2938 0 
L 2938 2094 
Q 2938 2591 2744 2837 
Q 2550 3084 2163 3084 
Q 1697 3084 1428 2787 
Q 1159 2491 1159 1978 
L 1159 0 
L 581 0 
L 581 3500 
L 1159 3500 
L 1159 2956 
Q 1366 3272 1645 3428 
Q 1925 3584 2291 3584 
Q 2894 3584 3203 3211 
Q 3513 2838 3513 2113 
z
" transform="scale(0.015625)"/>
       <path id="DejaVuSans-5f" d="M 3263 -1063 
L 3263 -1509 
L -63 -1509 
L -63 -1063 
L 3263 -1063 
z
" transform="scale(0.015625)"/>
       <path id="DejaVuSans-6c" d="M 603 4863 
L 1178 4863 
L 1178 0 
L 603 0 
L 603 4863 
z
" transform="scale(0.015625)"/>
       <path id="DejaVuSans-6f" d="M 1959 3097 
Q 1497 3097 1228 2736 
Q 959 2375 959 1747 
Q 959 1119 1226 758 
Q 1494 397 1959 397 
Q 2419 397 2687 759 
Q 2956 1122 2956 1747 
Q 2956 2369 2687 2733 
Q 2419 3097 1959 3097 
z
M 1959 3584 
Q 2709 3584 3137 3096 
Q 3566 2609 3566 1747 
Q 3566 888 3137 398 
Q 2709 -91 1959 -91 
Q 1206 -91 779 398 
Q 353 888 353 1747 
Q 353 2609 779 3096 
Q 1206 3584 1959 3584 
z
" transform="scale(0.015625)"/>
       <path id="DejaVuSans-73" d="M 2834 3397 
L 2834 2853 
Q 2591 2978 2328 3040 
Q 2066 3103 1784 3103 
Q 1356 3103 1142 2972 
Q 928 2841 928 2578 
Q 928 2378 1081 2264 
Q 1234 2150 1697 2047 
L 1894 2003 
Q 2506 1872 2764 1633 
Q 3022 1394 3022 966 
Q 3022 478 2636 193 
Q 2250 -91 1575 -91 
Q 1294 -91 989 -36 
Q 684 19 347 128 
L 347 722 
Q 666 556 975 473 
Q 1284 391 1588 391 
Q 1994 391 2212 530 
Q 2431 669 2431 922 
Q 2431 1156 2273 1281 
Q 2116 1406 1581 1522 
L 1381 1569 
Q 847 1681 609 1914 
Q 372 2147 372 2553 
Q 372 3047 722 3315 
Q 1072 3584 1716 3584 
Q 2034 3584 2315 3537 
Q 2597 3491 2834 3397 
z
" transform="scale(0.015625)"/>
      </defs>
      <use xlink:href="#DejaVuSans-74"/>
      <use xlink:href="#DejaVuSans-72" x="39.208984"/>
      <use xlink:href="#DejaVuSans-61" x="80.322266"/>
      <use xlink:href="#DejaVuSans-69" x="141.601562"/>
      <use xlink:href="#DejaVuSans-6e" x="169.384766"/>
      <use xlink:href="#DejaVuSans-5f" x="232.763672"/>
      <use xlink:href="#DejaVuSans-6c" x="282.763672"/>
      <use xlink:href="#DejaVuSans-6f" x="310.546875"/>
      <use xlink:href="#DejaVuSans-73" x="371.728516"/>
      <use xlink:href="#DejaVuSans-73" x="423.828125"/>
     </g>
    </g>
    <g id="line2d_17">
     <path d="M 300.603409 35.254687 
L 310.603409 35.254687 
L 320.603409 35.254687 
" style="fill: none; stroke: #ff7f0e; stroke-width: 1.5; stroke-linecap: square"/>
    </g>
    <g id="text_15">
     <!-- val_loss -->
     <g transform="translate(328.603409 38.754687) scale(0.1 -0.1)">
      <defs>
       <path id="DejaVuSans-76" d="M 191 3500 
L 800 3500 
L 1894 563 
L 2988 3500 
L 3597 3500 
L 2284 0 
L 1503 0 
L 191 3500 
z
" transform="scale(0.015625)"/>
      </defs>
      <use xlink:href="#DejaVuSans-76"/>
      <use xlink:href="#DejaVuSans-61" x="59.179688"/>
      <use xlink:href="#DejaVuSans-6c" x="120.458984"/>
      <use xlink:href="#DejaVuSans-5f" x="148.242188"/>
      <use xlink:href="#DejaVuSans-6c" x="198.242188"/>
      <use xlink:href="#DejaVuSans-6f" x="226.025391"/>
      <use xlink:href="#DejaVuSans-73" x="287.207031"/>
      <use xlink:href="#DejaVuSans-73" x="339.306641"/>
     </g>
    </g>
   </g>
  </g>
  <g id="axes_2">
   <g id="patch_8">
    <path d="M 456.212216 259.2 
L 811.303125 259.2 
L 811.303125 7.2 
L 456.212216 7.2 
z
" style="fill: #ffffff"/>
   </g>
   <g id="matplotlib.axis_3">
    <g id="xtick_8">
     <g id="line2d_18">
      <g>
       <use xlink:href="#m5030664be3" x="472.352712" y="259.2" style="stroke: #000000; stroke-width: 0.8"/>
      </g>
     </g>
     <g id="text_16">
      <!-- 0 -->
      <g transform="translate(469.171462 273.798437) scale(0.1 -0.1)">
       <use xlink:href="#DejaVuSans-30"/>
      </g>
     </g>
    </g>
    <g id="xtick_9">
     <g id="line2d_19">
      <g>
       <use xlink:href="#m5030664be3" x="524.418827" y="259.2" style="stroke: #000000; stroke-width: 0.8"/>
      </g>
     </g>
     <g id="text_17">
      <!-- 20 -->
      <g transform="translate(518.056327 273.798437) scale(0.1 -0.1)">
       <use xlink:href="#DejaVuSans-32"/>
       <use xlink:href="#DejaVuSans-30" x="63.623047"/>
      </g>
     </g>
    </g>
    <g id="xtick_10">
     <g id="line2d_20">
      <g>
       <use xlink:href="#m5030664be3" x="576.484943" y="259.2" style="stroke: #000000; stroke-width: 0.8"/>
      </g>
     </g>
     <g id="text_18">
      <!-- 40 -->
      <g transform="translate(570.122443 273.798437) scale(0.1 -0.1)">
       <use xlink:href="#DejaVuSans-34"/>
       <use xlink:href="#DejaVuSans-30" x="63.623047"/>
      </g>
     </g>
    </g>
    <g id="xtick_11">
     <g id="line2d_21">
      <g>
       <use xlink:href="#m5030664be3" x="628.551059" y="259.2" style="stroke: #000000; stroke-width: 0.8"/>
      </g>
     </g>
     <g id="text_19">
      <!-- 60 -->
      <g transform="translate(622.188559 273.798437) scale(0.1 -0.1)">
       <use xlink:href="#DejaVuSans-36"/>
       <use xlink:href="#DejaVuSans-30" x="63.623047"/>
      </g>
     </g>
    </g>
    <g id="xtick_12">
     <g id="line2d_22">
      <g>
       <use xlink:href="#m5030664be3" x="680.617175" y="259.2" style="stroke: #000000; stroke-width: 0.8"/>
      </g>
     </g>
     <g id="text_20">
      <!-- 80 -->
      <g transform="translate(674.254675 273.798437) scale(0.1 -0.1)">
       <use xlink:href="#DejaVuSans-38"/>
       <use xlink:href="#DejaVuSans-30" x="63.623047"/>
      </g>
     </g>
    </g>
    <g id="xtick_13">
     <g id="line2d_23">
      <g>
       <use xlink:href="#m5030664be3" x="732.68329" y="259.2" style="stroke: #000000; stroke-width: 0.8"/>
      </g>
     </g>
     <g id="text_21">
      <!-- 100 -->
      <g transform="translate(723.13954 273.798437) scale(0.1 -0.1)">
       <use xlink:href="#DejaVuSans-31"/>
       <use xlink:href="#DejaVuSans-30" x="63.623047"/>
       <use xlink:href="#DejaVuSans-30" x="127.246094"/>
      </g>
     </g>
    </g>
    <g id="xtick_14">
     <g id="line2d_24">
      <g>
       <use xlink:href="#m5030664be3" x="784.749406" y="259.2" style="stroke: #000000; stroke-width: 0.8"/>
      </g>
     </g>
     <g id="text_22">
      <!-- 120 -->
      <g transform="translate(775.205656 273.798437) scale(0.1 -0.1)">
       <use xlink:href="#DejaVuSans-31"/>
       <use xlink:href="#DejaVuSans-32" x="63.623047"/>
       <use xlink:href="#DejaVuSans-30" x="127.246094"/>
      </g>
     </g>
    </g>
   </g>
   <g id="matplotlib.axis_4">
    <g id="ytick_7">
     <g id="line2d_25">
      <g>
       <use xlink:href="#me89d79f575" x="456.212216" y="250.136708" style="stroke: #000000; stroke-width: 0.8"/>
      </g>
     </g>
     <g id="text_23">
      <!-- 0.3 -->
      <g transform="translate(433.309091 253.935927) scale(0.1 -0.1)">
       <defs>
        <path id="DejaVuSans-33" d="M 2597 2516 
Q 3050 2419 3304 2112 
Q 3559 1806 3559 1356 
Q 3559 666 3084 287 
Q 2609 -91 1734 -91 
Q 1441 -91 1130 -33 
Q 819 25 488 141 
L 488 750 
Q 750 597 1062 519 
Q 1375 441 1716 441 
Q 2309 441 2620 675 
Q 2931 909 2931 1356 
Q 2931 1769 2642 2001 
Q 2353 2234 1838 2234 
L 1294 2234 
L 1294 2753 
L 1863 2753 
Q 2328 2753 2575 2939 
Q 2822 3125 2822 3475 
Q 2822 3834 2567 4026 
Q 2313 4219 1838 4219 
Q 1578 4219 1281 4162 
Q 984 4106 628 3988 
L 628 4550 
Q 988 4650 1302 4700 
Q 1616 4750 1894 4750 
Q 2613 4750 3031 4423 
Q 3450 4097 3450 3541 
Q 3450 3153 3228 2886 
Q 3006 2619 2597 2516 
z
" transform="scale(0.015625)"/>
       </defs>
       <use xlink:href="#DejaVuSans-30"/>
       <use xlink:href="#DejaVuSans-2e" x="63.623047"/>
       <use xlink:href="#DejaVuSans-33" x="95.410156"/>
      </g>
     </g>
    </g>
    <g id="ytick_8">
     <g id="line2d_26">
      <g>
       <use xlink:href="#me89d79f575" x="456.212216" y="216.602474" style="stroke: #000000; stroke-width: 0.8"/>
      </g>
     </g>
     <g id="text_24">
      <!-- 0.4 -->
      <g transform="translate(433.309091 220.401693) scale(0.1 -0.1)">
       <use xlink:href="#DejaVuSans-30"/>
       <use xlink:href="#DejaVuSans-2e" x="63.623047"/>
       <use xlink:href="#DejaVuSans-34" x="95.410156"/>
      </g>
     </g>
    </g>
    <g id="ytick_9">
     <g id="line2d_27">
      <g>
       <use xlink:href="#me89d79f575" x="456.212216" y="183.068239" style="stroke: #000000; stroke-width: 0.8"/>
      </g>
     </g>
     <g id="text_25">
      <!-- 0.5 -->
      <g transform="translate(433.309091 186.867458) scale(0.1 -0.1)">
       <use xlink:href="#DejaVuSans-30"/>
       <use xlink:href="#DejaVuSans-2e" x="63.623047"/>
       <use xlink:href="#DejaVuSans-35" x="95.410156"/>
      </g>
     </g>
    </g>
    <g id="ytick_10">
     <g id="line2d_28">
      <g>
       <use xlink:href="#me89d79f575" x="456.212216" y="149.534005" style="stroke: #000000; stroke-width: 0.8"/>
      </g>
     </g>
     <g id="text_26">
      <!-- 0.6 -->
      <g transform="translate(433.309091 153.333224) scale(0.1 -0.1)">
       <use xlink:href="#DejaVuSans-30"/>
       <use xlink:href="#DejaVuSans-2e" x="63.623047"/>
       <use xlink:href="#DejaVuSans-36" x="95.410156"/>
      </g>
     </g>
    </g>
    <g id="ytick_11">
     <g id="line2d_29">
      <g>
       <use xlink:href="#me89d79f575" x="456.212216" y="115.999771" style="stroke: #000000; stroke-width: 0.8"/>
      </g>
     </g>
     <g id="text_27">
      <!-- 0.7 -->
      <g transform="translate(433.309091 119.798989) scale(0.1 -0.1)">
       <defs>
        <path id="DejaVuSans-37" d="M 525 4666 
L 3525 4666 
L 3525 4397 
L 1831 0 
L 1172 0 
L 2766 4134 
L 525 4134 
L 525 4666 
z
" transform="scale(0.015625)"/>
       </defs>
       <use xlink:href="#DejaVuSans-30"/>
       <use xlink:href="#DejaVuSans-2e" x="63.623047"/>
       <use xlink:href="#DejaVuSans-37" x="95.410156"/>
      </g>
     </g>
    </g>
    <g id="ytick_12">
     <g id="line2d_30">
      <g>
       <use xlink:href="#me89d79f575" x="456.212216" y="82.465536" style="stroke: #000000; stroke-width: 0.8"/>
      </g>
     </g>
     <g id="text_28">
      <!-- 0.8 -->
      <g transform="translate(433.309091 86.264755) scale(0.1 -0.1)">
       <use xlink:href="#DejaVuSans-30"/>
       <use xlink:href="#DejaVuSans-2e" x="63.623047"/>
       <use xlink:href="#DejaVuSans-38" x="95.410156"/>
      </g>
     </g>
    </g>
    <g id="ytick_13">
     <g id="line2d_31">
      <g>
       <use xlink:href="#me89d79f575" x="456.212216" y="48.931302" style="stroke: #000000; stroke-width: 0.8"/>
      </g>
     </g>
     <g id="text_29">
      <!-- 0.9 -->
      <g transform="translate(433.309091 52.730521) scale(0.1 -0.1)">
       <defs>
        <path id="DejaVuSans-39" d="M 703 97 
L 703 672 
Q 941 559 1184 500 
Q 1428 441 1663 441 
Q 2288 441 2617 861 
Q 2947 1281 2994 2138 
Q 2813 1869 2534 1725 
Q 2256 1581 1919 1581 
Q 1219 1581 811 2004 
Q 403 2428 403 3163 
Q 403 3881 828 4315 
Q 1253 4750 1959 4750 
Q 2769 4750 3195 4129 
Q 3622 3509 3622 2328 
Q 3622 1225 3098 567 
Q 2575 -91 1691 -91 
Q 1453 -91 1209 -44 
Q 966 3 703 97 
z
M 1959 2075 
Q 2384 2075 2632 2365 
Q 2881 2656 2881 3163 
Q 2881 3666 2632 3958 
Q 2384 4250 1959 4250 
Q 1534 4250 1286 3958 
Q 1038 3666 1038 3163 
Q 1038 2656 1286 2365 
Q 1534 2075 1959 2075 
z
" transform="scale(0.015625)"/>
       </defs>
       <use xlink:href="#DejaVuSans-30"/>
       <use xlink:href="#DejaVuSans-2e" x="63.623047"/>
       <use xlink:href="#DejaVuSans-39" x="95.410156"/>
      </g>
     </g>
    </g>
    <g id="ytick_14">
     <g id="line2d_32">
      <g>
       <use xlink:href="#me89d79f575" x="456.212216" y="15.397067" style="stroke: #000000; stroke-width: 0.8"/>
      </g>
     </g>
     <g id="text_30">
      <!-- 1.0 -->
      <g transform="translate(433.309091 19.196286) scale(0.1 -0.1)">
       <use xlink:href="#DejaVuSans-31"/>
       <use xlink:href="#DejaVuSans-2e" x="63.623047"/>
       <use xlink:href="#DejaVuSans-30" x="95.410156"/>
      </g>
     </g>
    </g>
   </g>
   <g id="line2d_33">
    <path d="M 472.352712 247.745455 
L 474.956018 107.851462 
L 477.559323 79.87961 
L 480.162629 66.448799 
L 482.765935 58.121994 
L 485.369241 52.740416 
L 487.972546 47.682662 
L 490.575852 44.687326 
L 493.179158 42.02353 
L 495.782464 40.13073 
L 498.38577 38.365134 
L 500.989075 36.314289 
L 503.592381 35.169339 
L 506.195687 33.727587 
L 508.798993 33.056811 
L 511.402299 31.726832 
L 514.005604 31.171706 
L 516.60891 30.111585 
L 519.212216 29.487081 
L 521.815522 29.467813 
L 524.418827 28.450086 
L 527.022133 27.567297 
L 529.625439 27.925801 
L 532.228745 26.773156 
L 534.832051 26.160225 
L 537.435356 26.156367 
L 540.038662 26.210335 
L 542.641968 25.655209 
L 545.245274 25.111656 
L 547.84858 25.069262 
L 550.451885 24.583534 
L 553.055191 24.348376 
L 555.658497 24.475579 
L 558.261803 24.22501 
L 560.865108 23.789393 
L 563.468414 23.357633 
L 566.07172 23.218856 
L 568.675026 23.276682 
L 571.278332 23.049239 
L 573.881637 23.006824 
L 576.484943 22.505686 
L 579.088249 22.602048 
L 581.691555 22.26667 
L 584.294861 22.463271 
L 586.898166 22.559653 
L 589.501472 21.815642 
L 592.104778 22.11632 
L 594.708084 22.008385 
L 597.311389 21.842625 
L 599.914695 21.45326 
L 602.518001 21.93515 
L 605.121307 21.414723 
L 607.724613 21.156439 
L 610.327918 21.430134 
L 612.931224 21.079325 
L 615.53453 21.225817 
L 618.137836 20.959837 
L 620.741142 20.697695 
L 623.344447 21.35304 
L 625.947753 20.724679 
L 628.551059 20.774788 
L 631.154365 20.928996 
L 633.75767 20.343028 
L 636.360976 20.875028 
L 638.964282 20.666853 
L 641.567588 20.882723 
L 644.170894 20.47409 
L 646.774199 20.385443 
L 649.377505 20.747805 
L 651.980811 20.161838 
L 654.584117 20.238951 
L 657.187423 20.038492 
L 659.790728 20.466394 
L 662.394034 20.053903 
L 664.99734 20.289061 
L 667.600646 19.444809 
L 670.203951 20.04233 
L 672.807257 20.084744 
L 675.410563 19.953683 
L 678.013869 19.915126 
L 680.617175 19.784045 
L 683.22048 19.972951 
L 685.823786 20.065476 
L 688.427092 19.753224 
L 691.030398 19.784045 
L 693.633704 19.413968 
L 696.237009 19.437114 
L 698.840315 19.915126 
L 701.443621 19.263639 
L 704.046927 19.699236 
L 706.650232 19.587444 
L 709.253538 19.664557 
L 711.856844 19.749366 
L 714.46015 19.325301 
L 717.063456 19.61057 
L 719.666761 19.614427 
L 722.270067 19.518065 
L 724.873373 19.718525 
L 727.476679 19.228939 
L 730.079985 19.360001 
L 732.68329 19.479509 
L 735.286596 19.664557 
L 737.889902 19.1287 
L 740.493208 19.325301 
L 743.096513 19.691541 
L 745.699819 18.8627 
L 748.303125 19.17881 
L 750.906431 19.448667 
L 753.509737 19.059322 
L 756.113042 19.290622 
L 758.716348 19.548907 
L 761.319654 19.209651 
L 763.92296 19.275192 
L 766.526265 18.843432 
L 769.129571 19.259781 
L 771.732877 19.063179 
L 774.336183 18.685387 
L 776.939489 19.425541 
L 779.542794 19.375431 
L 782.1461 18.785607 
L 784.749406 19.036176 
L 787.352712 19.333017 
L 789.956018 19.240493 
L 792.559323 18.654545 
L 795.162629 19.190383 
" clip-path="url(#pe1013ebdc3)" style="fill: none; stroke: #1f77b4; stroke-width: 1.5; stroke-linecap: square"/>
   </g>
   <g id="line2d_34">
    <path d="M 472.352712 129.514355 
L 474.956018 84.695849 
L 477.559323 78.137679 
L 480.162629 69.375776 
L 482.765935 63.746906 
L 485.369241 60.242137 
L 487.972546 54.852224 
L 490.575852 56.445304 
L 493.179158 56.206348 
L 495.782464 52.913991 
L 498.38577 53.710531 
L 500.989075 52.250211 
L 503.592381 53.816727 
L 506.195687 50.39163 
L 508.798993 51.081955 
L 511.402299 49.19681 
L 514.005604 48.957854 
L 516.60891 49.807502 
L 519.212216 50.763346 
L 521.815522 51.984691 
L 524.418827 46.754101 
L 527.022133 49.515438 
L 529.625439 46.462037 
L 532.228745 47.524077 
L 534.832051 46.993057 
L 537.435356 48.347182 
L 540.038662 45.771693 
L 542.641968 46.833753 
L 545.245274 46.408929 
L 547.84858 46.223081 
L 550.451885 46.037213 
L 553.055191 47.895794 
L 555.658497 44.709653 
L 558.261803 48.93131 
L 560.865108 46.939949 
L 563.468414 46.594797 
L 566.07172 46.276169 
L 568.675026 46.621341 
L 571.278332 45.001717 
L 573.881637 45.426541 
L 576.484943 47.497533 
L 579.088249 45.028261 
L 581.691555 45.320325 
L 584.294861 43.196224 
L 586.898166 47.046165 
L 589.501472 43.116572 
L 592.104778 44.868957 
L 594.708084 43.03692 
L 597.311389 46.090321 
L 599.914695 44.842413 
L 602.518001 45.798257 
L 605.121307 44.709653 
L 607.724613 45.665497 
L 610.327918 44.603456 
L 612.931224 48.187858 
L 615.53453 44.019328 
L 618.137836 43.753808 
L 620.741142 45.585845 
L 623.344447 43.090028 
L 625.947753 44.736197 
L 628.551059 44.205176 
L 631.154365 42.346596 
L 633.75767 44.948609 
L 636.360976 42.797964 
L 638.964282 44.709653 
L 641.567588 44.550348 
L 644.170894 42.266944 
L 646.774199 44.63 
L 649.377505 43.143136 
L 651.980811 43.4352 
L 654.584117 44.09898 
L 657.187423 43.56794 
L 659.790728 43.780352 
L 662.394034 44.523784 
L 664.99734 43.382092 
L 667.600646 43.7007 
L 670.203951 44.09898 
L 672.807257 43.328984 
L 675.410563 43.886568 
L 678.013869 44.789305 
L 680.617175 42.718312 
L 683.22048 46.116865 
L 685.823786 41.390751 
L 688.427092 42.532444 
L 691.030398 44.045872 
L 693.633704 44.125524 
L 696.237009 46.355821 
L 698.840315 44.178632 
L 701.443621 42.479356 
L 704.046927 42.213836 
L 706.650232 44.391044 
L 709.253538 44.36448 
L 711.856844 40.939383 
L 714.46015 42.824508 
L 717.063456 42.24038 
L 719.666761 45.293781 
L 722.270067 43.010376 
L 724.873373 42.054532 
L 727.476679 42.718312 
L 730.079985 42.77142 
L 732.68329 43.674156 
L 735.286596 42.293488 
L 737.889902 44.815849 
L 740.493208 44.815849 
L 743.096513 43.010376 
L 745.699819 43.090028 
L 748.303125 41.204883 
L 750.906431 43.96622 
L 753.509737 43.090028 
L 756.113042 41.523512 
L 758.716348 41.523512 
L 761.319654 42.63866 
L 763.92296 40.726971 
L 766.526265 42.001424 
L 769.129571 42.37314 
L 771.732877 42.691748 
L 774.336183 43.116572 
L 776.939489 42.160728 
L 779.542794 41.496948 
L 782.1461 42.346596 
L 784.749406 41.868664 
L 787.352712 41.257991 
L 789.956018 41.735904 
L 792.559323 41.656252 
L 795.162629 41.550056 
" clip-path="url(#pe1013ebdc3)" style="fill: none; stroke: #ff7f0e; stroke-width: 1.5; stroke-linecap: square"/>
   </g>
   <g id="patch_9">
    <path d="M 456.212216 259.2 
L 456.212216 7.2 
" style="fill: none; stroke: #000000; stroke-width: 0.8; stroke-linejoin: miter; stroke-linecap: square"/>
   </g>
   <g id="patch_10">
    <path d="M 811.303125 259.2 
L 811.303125 7.2 
" style="fill: none; stroke: #000000; stroke-width: 0.8; stroke-linejoin: miter; stroke-linecap: square"/>
   </g>
   <g id="patch_11">
    <path d="M 456.212216 259.2 
L 811.303125 259.2 
" style="fill: none; stroke: #000000; stroke-width: 0.8; stroke-linejoin: miter; stroke-linecap: square"/>
   </g>
   <g id="patch_12">
    <path d="M 456.212216 7.2 
L 811.303125 7.2 
" style="fill: none; stroke: #000000; stroke-width: 0.8; stroke-linejoin: miter; stroke-linecap: square"/>
   </g>
   <g id="legend_2">
    <g id="patch_13">
     <path d="M 726.903125 254.2 
L 804.303125 254.2 
Q 806.303125 254.2 806.303125 252.2 
L 806.303125 223.2875 
Q 806.303125 221.2875 804.303125 221.2875 
L 726.903125 221.2875 
Q 724.903125 221.2875 724.903125 223.2875 
L 724.903125 252.2 
Q 724.903125 254.2 726.903125 254.2 
z
" style="fill: #ffffff; opacity: 0.8; stroke: #cccccc; stroke-linejoin: miter"/>
    </g>
    <g id="line2d_35">
     <path d="M 728.903125 229.385937 
L 738.903125 229.385937 
L 748.903125 229.385937 
" style="fill: none; stroke: #1f77b4; stroke-width: 1.5; stroke-linecap: square"/>
    </g>
    <g id="text_31">
     <!-- train_acc -->
     <g transform="translate(756.903125 232.885937) scale(0.1 -0.1)">
      <defs>
       <path id="DejaVuSans-63" d="M 3122 3366 
L 3122 2828 
Q 2878 2963 2633 3030 
Q 2388 3097 2138 3097 
Q 1578 3097 1268 2742 
Q 959 2388 959 1747 
Q 959 1106 1268 751 
Q 1578 397 2138 397 
Q 2388 397 2633 464 
Q 2878 531 3122 666 
L 3122 134 
Q 2881 22 2623 -34 
Q 2366 -91 2075 -91 
Q 1284 -91 818 406 
Q 353 903 353 1747 
Q 353 2603 823 3093 
Q 1294 3584 2113 3584 
Q 2378 3584 2631 3529 
Q 2884 3475 3122 3366 
z
" transform="scale(0.015625)"/>
      </defs>
      <use xlink:href="#DejaVuSans-74"/>
      <use xlink:href="#DejaVuSans-72" x="39.208984"/>
      <use xlink:href="#DejaVuSans-61" x="80.322266"/>
      <use xlink:href="#DejaVuSans-69" x="141.601562"/>
      <use xlink:href="#DejaVuSans-6e" x="169.384766"/>
      <use xlink:href="#DejaVuSans-5f" x="232.763672"/>
      <use xlink:href="#DejaVuSans-61" x="282.763672"/>
      <use xlink:href="#DejaVuSans-63" x="344.042969"/>
      <use xlink:href="#DejaVuSans-63" x="399.023438"/>
     </g>
    </g>
    <g id="line2d_36">
     <path d="M 728.903125 244.342187 
L 738.903125 244.342187 
L 748.903125 244.342187 
" style="fill: none; stroke: #ff7f0e; stroke-width: 1.5; stroke-linecap: square"/>
    </g>
    <g id="text_32">
     <!-- val_acc -->
     <g transform="translate(756.903125 247.842187) scale(0.1 -0.1)">
      <use xlink:href="#DejaVuSans-76"/>
      <use xlink:href="#DejaVuSans-61" x="59.179688"/>
      <use xlink:href="#DejaVuSans-6c" x="120.458984"/>
      <use xlink:href="#DejaVuSans-5f" x="148.242188"/>
      <use xlink:href="#DejaVuSans-61" x="198.242188"/>
      <use xlink:href="#DejaVuSans-63" x="259.521484"/>
      <use xlink:href="#DejaVuSans-63" x="314.501953"/>
     </g>
    </g>
   </g>
  </g>
 </g>
 <defs>
  <clipPath id="p48e63631fd">
   <rect x="30.103125" y="7.2" width="355.090909" height="252"/>
  </clipPath>
  <clipPath id="pe1013ebdc3">
   <rect x="456.212216" y="7.2" width="355.090909" height="252"/>
  </clipPath>
 </defs>
</svg>
