<?xml version="1.0" encoding="utf-8" standalone="no"?>
<!DOCTYPE svg PUBLIC "-//W3C//DTD SVG 1.1//EN"
  "http://www.w3.org/Graphics/SVG/1.1/DTD/svg11.dtd">
<svg xmlns:xlink="http://www.w3.org/1999/xlink" width="824.865625pt" height="283.078125pt" viewBox="0 0 824.865625 283.078125" xmlns="http://www.w3.org/2000/svg" version="1.1">
 <metadata>
  <rdf:RDF xmlns:dc="http://purl.org/dc/elements/1.1/" xmlns:cc="http://creativecommons.org/ns#" xmlns:rdf="http://www.w3.org/1999/02/22-rdf-syntax-ns#">
   <cc:Work>
    <dc:type rdf:resource="http://purl.org/dc/dcmitype/StillImage"/>
    <dc:date>2023-01-22T21:40:33.136309</dc:date>
    <dc:format>image/svg+xml</dc:format>
    <dc:creator>
     <cc:Agent>
      <dc:title>Matplotlib v3.6.2, https://matplotlib.org/</dc:title>
     </cc:Agent>
    </dc:creator>
   </cc:Work>
  </rdf:RDF>
 </metadata>
 <defs>
  <style type="text/css">*{stroke-linejoin: round; stroke-linecap: butt}</style>
 </defs>
 <g id="figure_1">
  <g id="patch_1">
   <path d="M 0 283.078125 
L 824.865625 283.078125 
L 824.865625 0 
L 0 0 
z
" style="fill: #ffffff"/>
  </g>
  <g id="axes_1">
   <g id="patch_2">
    <path d="M 36.465625 259.2 
L 391.556534 259.2 
L 391.556534 7.2 
L 36.465625 7.2 
z
" style="fill: #ffffff"/>
   </g>
   <g id="matplotlib.axis_1">
    <g id="xtick_1">
     <g id="line2d_1">
      <defs>
       <path id="m55090506db" d="M 0 0 
L 0 3.5 
" style="stroke: #000000; stroke-width: 0.8"/>
      </defs>
      <g>
       <use xlink:href="#m55090506db" x="52.606121" y="259.2" style="stroke: #000000; stroke-width: 0.8"/>
      </g>
     </g>
     <g id="text_1">
      <!-- 0 -->
      <g transform="translate(49.424871 273.798437) scale(0.1 -0.1)">
       <defs>
        <path id="DejaVuSans-30" d="M 2034 4250 
Q 1547 4250 1301 3770 
Q 1056 3291 1056 2328 
Q 1056 1369 1301 889 
Q 1547 409 2034 409 
Q 2525 409 2770 889 
Q 3016 1369 3016 2328 
Q 3016 3291 2770 3770 
Q 2525 4250 2034 4250 
z
M 2034 4750 
Q 2819 4750 3233 4129 
Q 3647 3509 3647 2328 
Q 3647 1150 3233 529 
Q 2819 -91 2034 -91 
Q 1250 -91 836 529 
Q 422 1150 422 2328 
Q 422 3509 836 4129 
Q 1250 4750 2034 4750 
z
" transform="scale(0.015625)"/>
       </defs>
       <use xlink:href="#DejaVuSans-30"/>
      </g>
     </g>
    </g>
    <g id="xtick_2">
     <g id="line2d_2">
      <g>
       <use xlink:href="#m55090506db" x="117.427389" y="259.2" style="stroke: #000000; stroke-width: 0.8"/>
      </g>
     </g>
     <g id="text_2">
      <!-- 50 -->
      <g transform="translate(111.064889 273.798437) scale(0.1 -0.1)">
       <defs>
        <path id="DejaVuSans-35" d="M 691 4666 
L 3169 4666 
L 3169 4134 
L 1269 4134 
L 1269 2991 
Q 1406 3038 1543 3061 
Q 1681 3084 1819 3084 
Q 2600 3084 3056 2656 
Q 3513 2228 3513 1497 
Q 3513 744 3044 326 
Q 2575 -91 1722 -91 
Q 1428 -91 1123 -41 
Q 819 9 494 109 
L 494 744 
Q 775 591 1075 516 
Q 1375 441 1709 441 
Q 2250 441 2565 725 
Q 2881 1009 2881 1497 
Q 2881 1984 2565 2268 
Q 2250 2553 1709 2553 
Q 1456 2553 1204 2497 
Q 953 2441 691 2322 
L 691 4666 
z
" transform="scale(0.015625)"/>
       </defs>
       <use xlink:href="#DejaVuSans-35"/>
       <use xlink:href="#DejaVuSans-30" x="63.623047"/>
      </g>
     </g>
    </g>
    <g id="xtick_3">
     <g id="line2d_3">
      <g>
       <use xlink:href="#m55090506db" x="182.248658" y="259.2" style="stroke: #000000; stroke-width: 0.8"/>
      </g>
     </g>
     <g id="text_3">
      <!-- 100 -->
      <g transform="translate(172.704908 273.798437) scale(0.1 -0.1)">
       <defs>
        <path id="DejaVuSans-31" d="M 794 531 
L 1825 531 
L 1825 4091 
L 703 3866 
L 703 4441 
L 1819 4666 
L 2450 4666 
L 2450 531 
L 3481 531 
L 3481 0 
L 794 0 
L 794 531 
z
" transform="scale(0.015625)"/>
       </defs>
       <use xlink:href="#DejaVuSans-31"/>
       <use xlink:href="#DejaVuSans-30" x="63.623047"/>
       <use xlink:href="#DejaVuSans-30" x="127.246094"/>
      </g>
     </g>
    </g>
    <g id="xtick_4">
     <g id="line2d_4">
      <g>
       <use xlink:href="#m55090506db" x="247.069927" y="259.2" style="stroke: #000000; stroke-width: 0.8"/>
      </g>
     </g>
     <g id="text_4">
      <!-- 150 -->
      <g transform="translate(237.526177 273.798437) scale(0.1 -0.1)">
       <use xlink:href="#DejaVuSans-31"/>
       <use xlink:href="#DejaVuSans-35" x="63.623047"/>
       <use xlink:href="#DejaVuSans-30" x="127.246094"/>
      </g>
     </g>
    </g>
    <g id="xtick_5">
     <g id="line2d_5">
      <g>
       <use xlink:href="#m55090506db" x="311.891195" y="259.2" style="stroke: #000000; stroke-width: 0.8"/>
      </g>
     </g>
     <g id="text_5">
      <!-- 200 -->
      <g transform="translate(302.347445 273.798437) scale(0.1 -0.1)">
       <defs>
        <path id="DejaVuSans-32" d="M 1228 531 
L 3431 531 
L 3431 0 
L 469 0 
L 469 531 
Q 828 903 1448 1529 
Q 2069 2156 2228 2338 
Q 2531 2678 2651 2914 
Q 2772 3150 2772 3378 
Q 2772 3750 2511 3984 
Q 2250 4219 1831 4219 
Q 1534 4219 1204 4116 
Q 875 4013 500 3803 
L 500 4441 
Q 881 4594 1212 4672 
Q 1544 4750 1819 4750 
Q 2544 4750 2975 4387 
Q 3406 4025 3406 3419 
Q 3406 3131 3298 2873 
Q 3191 2616 2906 2266 
Q 2828 2175 2409 1742 
Q 1991 1309 1228 531 
z
" transform="scale(0.015625)"/>
       </defs>
       <use xlink:href="#DejaVuSans-32"/>
       <use xlink:href="#DejaVuSans-30" x="63.623047"/>
       <use xlink:href="#DejaVuSans-30" x="127.246094"/>
      </g>
     </g>
    </g>
    <g id="xtick_6">
     <g id="line2d_6">
      <g>
       <use xlink:href="#m55090506db" x="376.712464" y="259.2" style="stroke: #000000; stroke-width: 0.8"/>
      </g>
     </g>
     <g id="text_6">
      <!-- 250 -->
      <g transform="translate(367.168714 273.798437) scale(0.1 -0.1)">
       <use xlink:href="#DejaVuSans-32"/>
       <use xlink:href="#DejaVuSans-35" x="63.623047"/>
       <use xlink:href="#DejaVuSans-30" x="127.246094"/>
      </g>
     </g>
    </g>
   </g>
   <g id="matplotlib.axis_2">
    <g id="ytick_1">
     <g id="line2d_7">
      <defs>
       <path id="m81f13181a9" d="M 0 0 
L -3.5 0 
" style="stroke: #000000; stroke-width: 0.8"/>
      </defs>
      <g>
       <use xlink:href="#m81f13181a9" x="36.465625" y="241.354325" style="stroke: #000000; stroke-width: 0.8"/>
      </g>
     </g>
     <g id="text_7">
      <!-- 0.25 -->
      <g transform="translate(7.2 245.153544) scale(0.1 -0.1)">
       <defs>
        <path id="DejaVuSans-2e" d="M 684 794 
L 1344 794 
L 1344 0 
L 684 0 
L 684 794 
z
" transform="scale(0.015625)"/>
       </defs>
       <use xlink:href="#DejaVuSans-30"/>
       <use xlink:href="#DejaVuSans-2e" x="63.623047"/>
       <use xlink:href="#DejaVuSans-32" x="95.410156"/>
       <use xlink:href="#DejaVuSans-35" x="159.033203"/>
      </g>
     </g>
    </g>
    <g id="ytick_2">
     <g id="line2d_8">
      <g>
       <use xlink:href="#m81f13181a9" x="36.465625" y="210.945238" style="stroke: #000000; stroke-width: 0.8"/>
      </g>
     </g>
     <g id="text_8">
      <!-- 0.50 -->
      <g transform="translate(7.2 214.744457) scale(0.1 -0.1)">
       <use xlink:href="#DejaVuSans-30"/>
       <use xlink:href="#DejaVuSans-2e" x="63.623047"/>
       <use xlink:href="#DejaVuSans-35" x="95.410156"/>
       <use xlink:href="#DejaVuSans-30" x="159.033203"/>
      </g>
     </g>
    </g>
    <g id="ytick_3">
     <g id="line2d_9">
      <g>
       <use xlink:href="#m81f13181a9" x="36.465625" y="180.536151" style="stroke: #000000; stroke-width: 0.8"/>
      </g>
     </g>
     <g id="text_9">
      <!-- 0.75 -->
      <g transform="translate(7.2 184.33537) scale(0.1 -0.1)">
       <defs>
        <path id="DejaVuSans-37" d="M 525 4666 
L 3525 4666 
L 3525 4397 
L 1831 0 
L 1172 0 
L 2766 4134 
L 525 4134 
L 525 4666 
z
" transform="scale(0.015625)"/>
       </defs>
       <use xlink:href="#DejaVuSans-30"/>
       <use xlink:href="#DejaVuSans-2e" x="63.623047"/>
       <use xlink:href="#DejaVuSans-37" x="95.410156"/>
       <use xlink:href="#DejaVuSans-35" x="159.033203"/>
      </g>
     </g>
    </g>
    <g id="ytick_4">
     <g id="line2d_10">
      <g>
       <use xlink:href="#m81f13181a9" x="36.465625" y="150.127064" style="stroke: #000000; stroke-width: 0.8"/>
      </g>
     </g>
     <g id="text_10">
      <!-- 1.00 -->
      <g transform="translate(7.2 153.926282) scale(0.1 -0.1)">
       <use xlink:href="#DejaVuSans-31"/>
       <use xlink:href="#DejaVuSans-2e" x="63.623047"/>
       <use xlink:href="#DejaVuSans-30" x="95.410156"/>
       <use xlink:href="#DejaVuSans-30" x="159.033203"/>
      </g>
     </g>
    </g>
    <g id="ytick_5">
     <g id="line2d_11">
      <g>
       <use xlink:href="#m81f13181a9" x="36.465625" y="119.717977" style="stroke: #000000; stroke-width: 0.8"/>
      </g>
     </g>
     <g id="text_11">
      <!-- 1.25 -->
      <g transform="translate(7.2 123.517195) scale(0.1 -0.1)">
       <use xlink:href="#DejaVuSans-31"/>
       <use xlink:href="#DejaVuSans-2e" x="63.623047"/>
       <use xlink:href="#DejaVuSans-32" x="95.410156"/>
       <use xlink:href="#DejaVuSans-35" x="159.033203"/>
      </g>
     </g>
    </g>
    <g id="ytick_6">
     <g id="line2d_12">
      <g>
       <use xlink:href="#m81f13181a9" x="36.465625" y="89.30889" style="stroke: #000000; stroke-width: 0.8"/>
      </g>
     </g>
     <g id="text_12">
      <!-- 1.50 -->
      <g transform="translate(7.2 93.108108) scale(0.1 -0.1)">
       <use xlink:href="#DejaVuSans-31"/>
       <use xlink:href="#DejaVuSans-2e" x="63.623047"/>
       <use xlink:href="#DejaVuSans-35" x="95.410156"/>
       <use xlink:href="#DejaVuSans-30" x="159.033203"/>
      </g>
     </g>
    </g>
    <g id="ytick_7">
     <g id="line2d_13">
      <g>
       <use xlink:href="#m81f13181a9" x="36.465625" y="58.899802" style="stroke: #000000; stroke-width: 0.8"/>
      </g>
     </g>
     <g id="text_13">
      <!-- 1.75 -->
      <g transform="translate(7.2 62.699021) scale(0.1 -0.1)">
       <use xlink:href="#DejaVuSans-31"/>
       <use xlink:href="#DejaVuSans-2e" x="63.623047"/>
       <use xlink:href="#DejaVuSans-37" x="95.410156"/>
       <use xlink:href="#DejaVuSans-35" x="159.033203"/>
      </g>
     </g>
    </g>
    <g id="ytick_8">
     <g id="line2d_14">
      <g>
       <use xlink:href="#m81f13181a9" x="36.465625" y="28.490715" style="stroke: #000000; stroke-width: 0.8"/>
      </g>
     </g>
     <g id="text_14">
      <!-- 2.00 -->
      <g transform="translate(7.2 32.289934) scale(0.1 -0.1)">
       <use xlink:href="#DejaVuSans-32"/>
       <use xlink:href="#DejaVuSans-2e" x="63.623047"/>
       <use xlink:href="#DejaVuSans-30" x="95.410156"/>
       <use xlink:href="#DejaVuSans-30" x="159.033203"/>
      </g>
     </g>
    </g>
   </g>
   <g id="line2d_15">
    <path d="M 52.606121 18.654545 
L 53.902546 151.743109 
L 55.198972 175.977852 
L 56.495397 188.337829 
L 59.088248 202.177876 
L 61.681098 210.065222 
L 62.977524 211.962125 
L 65.570375 217.216415 
L 66.8668 218.863603 
L 68.163225 219.941358 
L 69.459651 221.349641 
L 70.756076 220.859872 
L 72.052501 223.237891 
L 73.348927 223.457674 
L 74.645352 225.226091 
L 75.941778 225.052419 
L 77.238203 227.158936 
L 79.831054 227.354707 
L 81.127479 229.010207 
L 82.423904 228.654619 
L 83.72033 229.33177 
L 85.016755 229.592509 
L 87.609606 231.033284 
L 88.906031 230.955664 
L 90.202457 231.539155 
L 91.498882 231.741168 
L 92.795307 231.372022 
L 94.091733 232.35731 
L 95.388158 232.849515 
L 96.684583 232.778913 
L 97.981009 233.962136 
L 99.277434 233.324352 
L 100.57386 233.940284 
L 101.870285 233.680292 
L 103.16671 234.461678 
L 104.463136 235.526894 
L 105.759561 234.86553 
L 107.055986 235.270117 
L 109.648837 235.274199 
L 110.945263 235.855073 
L 112.241688 234.732037 
L 113.538113 236.407841 
L 114.834539 236.826516 
L 116.130964 236.342917 
L 117.427389 236.705711 
L 118.723815 236.704522 
L 120.02024 237.462171 
L 121.316666 237.017824 
L 122.613091 237.806047 
L 123.909516 237.244256 
L 125.205942 237.708167 
L 126.502367 237.827141 
L 127.798792 237.785696 
L 129.095218 237.17224 
L 130.391643 238.75537 
L 131.688068 238.756099 
L 132.984494 238.023622 
L 134.280919 239.157069 
L 136.87377 238.212331 
L 138.170195 239.347503 
L 139.466621 239.006727 
L 140.763046 239.348769 
L 142.059471 239.211046 
L 143.355897 238.216649 
L 144.652322 240.987858 
L 145.948748 239.303477 
L 147.245173 240.136277 
L 149.838024 240.405487 
L 151.134449 239.65627 
L 152.430874 239.430415 
L 155.023725 240.368617 
L 156.320151 240.157806 
L 157.616576 240.580552 
L 158.913001 241.53441 
L 160.209427 240.432936 
L 161.505852 239.662861 
L 162.802277 240.654089 
L 164.098703 240.126054 
L 165.395128 241.472424 
L 166.691554 241.74131 
L 167.987979 241.062041 
L 169.284404 241.274563 
L 170.58083 240.93047 
L 171.877255 242.474799 
L 173.17368 241.982359 
L 174.470106 241.757015 
L 175.766531 241.086195 
L 177.062956 241.654923 
L 178.359382 241.689629 
L 179.655807 241.551247 
L 180.952233 241.572575 
L 182.248658 242.234408 
L 184.841509 241.798756 
L 186.137934 242.480554 
L 187.434359 242.524332 
L 188.730785 242.435593 
L 190.02721 241.235297 
L 191.323636 242.032778 
L 192.620061 242.421629 
L 193.916486 242.595242 
L 195.212912 242.947904 
L 196.509337 242.340782 
L 197.805762 243.339944 
L 199.102188 242.642393 
L 201.695039 243.053127 
L 202.991464 242.885669 
L 204.287889 243.278826 
L 205.584315 244.019698 
L 206.88074 242.930778 
L 208.177165 243.758774 
L 209.473591 243.174906 
L 210.770016 243.896058 
L 212.066441 243.39853 
L 213.362867 243.827783 
L 215.955718 242.803961 
L 217.252143 243.964985 
L 218.548568 243.977823 
L 221.141419 243.216408 
L 222.437844 244.082502 
L 223.73427 242.829175 
L 225.030695 244.205549 
L 226.327121 243.931542 
L 227.623546 244.361511 
L 228.919971 243.891059 
L 230.216397 244.167018 
L 231.512822 244.148641 
L 232.809247 244.318393 
L 235.402098 243.503538 
L 236.698524 244.484287 
L 237.994949 243.877776 
L 239.291374 244.950736 
L 240.5878 244.740515 
L 241.884225 244.02208 
L 243.18065 244.677801 
L 244.477076 244.740268 
L 245.773501 243.966076 
L 247.069927 244.40365 
L 248.366352 244.683629 
L 249.662777 245.969227 
L 250.959203 244.094241 
L 252.255628 244.96735 
L 253.552053 245.168071 
L 254.848479 244.918628 
L 257.441329 245.122749 
L 258.737755 243.803536 
L 260.03418 244.958113 
L 261.330606 244.72124 
L 262.627031 244.107424 
L 263.923456 244.810701 
L 265.219882 244.470773 
L 266.516307 244.717271 
L 267.812732 245.1168 
L 269.109158 246.173292 
L 270.405583 245.552934 
L 271.702009 244.808022 
L 272.998434 245.59095 
L 274.294859 245.660631 
L 275.591285 244.484478 
L 276.88771 245.229008 
L 278.184135 245.300577 
L 279.480561 245.584953 
L 280.776986 245.199846 
L 282.073412 245.156864 
L 283.369837 245.438321 
L 284.666262 244.838895 
L 285.962688 246.220217 
L 287.259113 244.694408 
L 288.555538 245.297028 
L 289.851964 246.487428 
L 291.148389 245.569898 
L 292.444814 245.692486 
L 293.74124 245.381695 
L 295.037665 245.629216 
L 296.334091 245.138269 
L 297.630516 245.427298 
L 298.926941 245.430821 
L 300.223367 246.056346 
L 301.519792 246.45573 
L 302.816217 246.369282 
L 304.112643 245.482801 
L 305.409068 245.541548 
L 306.705494 245.855425 
L 308.001919 245.321135 
L 309.298344 246.096825 
L 310.59477 245.995277 
L 311.891195 246.881392 
L 313.18762 245.582689 
L 314.484046 246.332582 
L 315.780471 246.376481 
L 317.076897 246.076136 
L 320.966173 246.001469 
L 323.559023 246.914206 
L 324.855449 246.179205 
L 326.151874 246.75556 
L 327.448299 246.376065 
L 328.744725 246.704918 
L 330.04115 245.609692 
L 331.337576 246.961272 
L 332.634001 245.629191 
L 333.930426 246.830919 
L 335.226852 246.775566 
L 336.523277 247.003516 
L 337.819702 246.882067 
L 339.116128 246.407597 
L 340.412553 246.758364 
L 341.708979 247.235557 
L 343.005404 246.433494 
L 344.301829 245.81599 
L 345.598255 245.424961 
L 346.89468 246.218201 
L 348.191105 246.541 
L 349.487531 246.047576 
L 350.783956 246.59621 
L 352.080382 245.283967 
L 353.376807 246.896293 
L 354.673232 246.441517 
L 355.969658 247.745455 
L 357.266083 245.557312 
L 358.562508 246.77087 
L 359.858934 246.855702 
L 361.155359 246.271031 
L 362.451785 246.734074 
L 363.74821 247.708334 
L 365.044635 246.510508 
L 366.341061 246.976233 
L 367.637486 246.123082 
L 368.933911 247.094275 
L 370.230337 247.377806 
L 371.526762 246.624853 
L 372.823187 247.169288 
L 374.119613 247.189296 
L 375.416038 246.835909 
L 375.416038 246.835909 
" clip-path="url(#pe7d62c629b)" style="fill: none; stroke: #1f77b4; stroke-width: 1.5; stroke-linecap: square"/>
   </g>
   <g id="line2d_16">
    <path d="M 52.606121 160.439971 
L 53.902546 186.113595 
L 55.198972 200.861267 
L 56.495397 204.17221 
L 57.791822 212.720071 
L 59.088248 214.84549 
L 60.384673 215.975533 
L 61.681098 212.90691 
L 64.273949 225.021482 
L 65.570375 223.0038 
L 66.8668 222.575033 
L 68.163225 221.632369 
L 69.459651 220.988456 
L 70.756076 225.393611 
L 72.052501 225.343144 
L 73.348927 224.119973 
L 74.645352 229.597642 
L 75.941778 223.87927 
L 77.238203 225.876718 
L 78.534628 227.377661 
L 79.831054 229.8464 
L 81.127479 229.204636 
L 82.423904 229.774073 
L 83.72033 228.47759 
L 85.016755 230.720225 
L 86.313181 230.211605 
L 87.609606 230.269418 
L 88.906031 230.197692 
L 90.202457 232.210216 
L 91.498882 231.313202 
L 92.795307 230.944155 
L 94.091733 228.559759 
L 95.388158 232.619147 
L 96.684583 231.130801 
L 97.981009 229.29233 
L 99.277434 232.725143 
L 100.57386 231.585541 
L 101.870285 232.092739 
L 103.16671 234.690516 
L 104.463136 228.765353 
L 105.759561 229.513614 
L 107.055986 229.811882 
L 108.352412 231.993641 
L 109.648837 228.489208 
L 110.945263 232.288785 
L 112.241688 228.36973 
L 113.538113 232.189836 
L 114.834539 232.094102 
L 116.130964 232.56331 
L 117.427389 229.371534 
L 118.723815 235.687262 
L 120.02024 233.60911 
L 121.316666 231.926531 
L 122.613091 232.329484 
L 123.909516 234.274756 
L 125.205942 232.035264 
L 126.502367 231.586128 
L 127.798792 232.555857 
L 129.095218 229.449639 
L 130.391643 231.96322 
L 131.688068 231.94682 
L 132.984494 232.582287 
L 134.280919 231.669048 
L 135.577345 229.439213 
L 136.87377 230.340345 
L 138.170195 228.332001 
L 139.466621 231.854258 
L 140.763046 232.212652 
L 142.059471 235.599108 
L 143.355897 233.452885 
L 144.652322 233.769591 
L 145.948748 233.642747 
L 147.245173 232.126953 
L 148.541598 235.846014 
L 149.838024 232.694961 
L 152.430874 228.20552 
L 153.7273 232.399639 
L 155.023725 233.327995 
L 156.320151 231.75785 
L 157.616576 236.072945 
L 158.913001 229.774164 
L 160.209427 229.073258 
L 161.505852 233.116003 
L 162.802277 230.479221 
L 164.098703 232.798271 
L 165.395128 234.683599 
L 166.691554 233.442721 
L 167.987979 229.471994 
L 169.284404 232.244158 
L 170.58083 235.289294 
L 171.877255 229.949431 
L 173.17368 228.082025 
L 174.470106 233.751187 
L 175.766531 237.323767 
L 177.062956 236.382133 
L 178.359382 232.526143 
L 180.952233 233.288182 
L 182.248658 234.373933 
L 183.545083 234.652855 
L 184.841509 231.004783 
L 186.137934 232.330285 
L 188.730785 233.74203 
L 190.02721 229.278486 
L 191.323636 231.415153 
L 192.620061 229.68866 
L 193.916486 231.251312 
L 195.212912 233.671331 
L 196.509337 232.844534 
L 197.805762 233.673317 
L 199.102188 234.888665 
L 200.398613 232.522518 
L 201.695039 235.509678 
L 202.991464 234.23268 
L 204.287889 233.994377 
L 205.584315 233.140809 
L 206.88074 235.38924 
L 208.177165 234.751649 
L 209.473591 232.855753 
L 210.770016 231.514349 
L 212.066441 232.77423 
L 213.362867 231.095899 
L 214.659292 231.669497 
L 215.955718 236.435646 
L 217.252143 235.450065 
L 218.548568 233.009876 
L 219.844994 235.362824 
L 221.141419 233.86435 
L 222.437844 233.160584 
L 223.73427 233.652716 
L 225.030695 233.929376 
L 226.327121 232.671057 
L 227.623546 234.310618 
L 228.919971 234.18509 
L 230.216397 231.594245 
L 231.512822 233.787169 
L 232.809247 233.380439 
L 234.105673 233.321264 
L 235.402098 232.837969 
L 236.698524 232.94713 
L 237.994949 234.334536 
L 239.291374 232.995713 
L 240.5878 232.70327 
L 241.884225 229.788602 
L 243.18065 233.782221 
L 244.477076 231.439238 
L 245.773501 230.344623 
L 247.069927 232.130251 
L 248.366352 231.128223 
L 249.662777 232.765164 
L 250.959203 234.210216 
L 252.255628 234.107757 
L 253.552053 231.361136 
L 254.848479 234.160128 
L 256.144904 232.348131 
L 257.441329 233.078324 
L 258.737755 232.673932 
L 260.03418 231.65967 
L 261.330606 232.190844 
L 262.627031 234.124306 
L 263.923456 234.091648 
L 265.219882 231.422418 
L 266.516307 232.425696 
L 267.812732 230.341494 
L 269.109158 231.680332 
L 270.405583 231.55239 
L 271.702009 231.045076 
L 272.998434 233.82086 
L 274.294859 233.738941 
L 275.591285 232.641444 
L 276.88771 229.50035 
L 278.184135 235.463379 
L 279.480561 235.003858 
L 280.776986 233.148088 
L 282.073412 232.254619 
L 283.369837 232.685329 
L 284.666262 236.412743 
L 285.962688 231.279837 
L 287.259113 235.26369 
L 288.555538 233.882515 
L 289.851964 232.032433 
L 291.148389 235.230517 
L 292.444814 230.716081 
L 293.74124 229.617569 
L 295.037665 233.780492 
L 296.334091 231.397717 
L 298.926941 234.320837 
L 300.223367 235.279742 
L 301.519792 230.953522 
L 302.816217 230.513184 
L 304.112643 227.447599 
L 305.409068 233.015089 
L 306.705494 233.049175 
L 308.001919 228.480106 
L 309.298344 233.609672 
L 310.59477 234.407697 
L 311.891195 229.217397 
L 313.18762 231.147201 
L 314.484046 227.56894 
L 315.780471 233.019276 
L 317.076897 232.459355 
L 318.373322 233.385028 
L 319.669747 235.909836 
L 320.966173 229.620513 
L 322.262598 233.696402 
L 323.559023 233.070164 
L 324.855449 231.707404 
L 326.151874 232.845495 
L 327.448299 231.790537 
L 328.744725 235.430692 
L 330.04115 234.506472 
L 331.337576 232.707681 
L 332.634001 234.358451 
L 333.930426 234.769651 
L 335.226852 233.624575 
L 336.523277 232.794932 
L 337.819702 232.572485 
L 339.116128 232.727641 
L 340.412553 232.083706 
L 341.708979 231.814165 
L 343.005404 230.832282 
L 344.301829 225.051233 
L 345.598255 232.432127 
L 346.89468 232.742848 
L 348.191105 231.46387 
L 349.487531 229.516579 
L 350.783956 229.294654 
L 352.080382 233.101945 
L 353.376807 233.824572 
L 354.673232 229.977808 
L 355.969658 230.846623 
L 357.266083 229.008246 
L 358.562508 232.49281 
L 359.858934 231.391913 
L 361.155359 234.837269 
L 362.451785 233.755254 
L 363.74821 230.677438 
L 365.044635 231.227542 
L 366.341061 232.975916 
L 367.637486 234.349029 
L 368.933911 234.271497 
L 370.230337 231.438168 
L 371.526762 230.724132 
L 372.823187 233.543925 
L 374.119613 233.131656 
L 375.416038 232.17758 
L 375.416038 232.17758 
" clip-path="url(#pe7d62c629b)" style="fill: none; stroke: #ff7f0e; stroke-width: 1.5; stroke-linecap: square"/>
   </g>
   <g id="patch_3">
    <path d="M 36.465625 259.2 
L 36.465625 7.2 
" style="fill: none; stroke: #000000; stroke-width: 0.8; stroke-linejoin: miter; stroke-linecap: square"/>
   </g>
   <g id="patch_4">
    <path d="M 391.556534 259.2 
L 391.556534 7.2 
" style="fill: none; stroke: #000000; stroke-width: 0.8; stroke-linejoin: miter; stroke-linecap: square"/>
   </g>
   <g id="patch_5">
    <path d="M 36.465625 259.2 
L 391.556534 259.2 
" style="fill: none; stroke: #000000; stroke-width: 0.8; stroke-linejoin: miter; stroke-linecap: square"/>
   </g>
   <g id="patch_6">
    <path d="M 36.465625 7.2 
L 391.556534 7.2 
" style="fill: none; stroke: #000000; stroke-width: 0.8; stroke-linejoin: miter; stroke-linecap: square"/>
   </g>
   <g id="legend_1">
    <g id="patch_7">
     <path d="M 304.965909 45.1125 
L 384.556534 45.1125 
Q 386.556534 45.1125 386.556534 43.1125 
L 386.556534 14.2 
Q 386.556534 12.2 384.556534 12.2 
L 304.965909 12.2 
Q 302.965909 12.2 302.965909 14.2 
L 302.965909 43.1125 
Q 302.965909 45.1125 304.965909 45.1125 
z
" style="fill: #ffffff; opacity: 0.8; stroke: #cccccc; stroke-linejoin: miter"/>
    </g>
    <g id="line2d_17">
     <path d="M 306.965909 20.298437 
L 316.965909 20.298437 
L 326.965909 20.298437 
" style="fill: none; stroke: #1f77b4; stroke-width: 1.5; stroke-linecap: square"/>
    </g>
    <g id="text_15">
     <!-- train_loss -->
     <g transform="translate(334.965909 23.798437) scale(0.1 -0.1)">
      <defs>
       <path id="DejaVuSans-74" d="M 1172 4494 
L 1172 3500 
L 2356 3500 
L 2356 3053 
L 1172 3053 
L 1172 1153 
Q 1172 725 1289 603 
Q 1406 481 1766 481 
L 2356 481 
L 2356 0 
L 1766 0 
Q 1100 0 847 248 
Q 594 497 594 1153 
L 594 3053 
L 172 3053 
L 172 3500 
L 594 3500 
L 594 4494 
L 1172 4494 
z
" transform="scale(0.015625)"/>
       <path id="DejaVuSans-72" d="M 2631 2963 
Q 2534 3019 2420 3045 
Q 2306 3072 2169 3072 
Q 1681 3072 1420 2755 
Q 1159 2438 1159 1844 
L 1159 0 
L 581 0 
L 581 3500 
L 1159 3500 
L 1159 2956 
Q 1341 3275 1631 3429 
Q 1922 3584 2338 3584 
Q 2397 3584 2469 3576 
Q 2541 3569 2628 3553 
L 2631 2963 
z
" transform="scale(0.015625)"/>
       <path id="DejaVuSans-61" d="M 2194 1759 
Q 1497 1759 1228 1600 
Q 959 1441 959 1056 
Q 959 750 1161 570 
Q 1363 391 1709 391 
Q 2188 391 2477 730 
Q 2766 1069 2766 1631 
L 2766 1759 
L 2194 1759 
z
M 3341 1997 
L 3341 0 
L 2766 0 
L 2766 531 
Q 2569 213 2275 61 
Q 1981 -91 1556 -91 
Q 1019 -91 701 211 
Q 384 513 384 1019 
Q 384 1609 779 1909 
Q 1175 2209 1959 2209 
L 2766 2209 
L 2766 2266 
Q 2766 2663 2505 2880 
Q 2244 3097 1772 3097 
Q 1472 3097 1187 3025 
Q 903 2953 641 2809 
L 641 3341 
Q 956 3463 1253 3523 
Q 1550 3584 1831 3584 
Q 2591 3584 2966 3190 
Q 3341 2797 3341 1997 
z
" transform="scale(0.015625)"/>
       <path id="DejaVuSans-69" d="M 603 3500 
L 1178 3500 
L 1178 0 
L 603 0 
L 603 3500 
z
M 603 4863 
L 1178 4863 
L 1178 4134 
L 603 4134 
L 603 4863 
z
" transform="scale(0.015625)"/>
       <path id="DejaVuSans-6e" d="M 3513 2113 
L 3513 0 
L 2938 0 
L 2938 2094 
Q 2938 2591 2744 2837 
Q 2550 3084 2163 3084 
Q 1697 3084 1428 2787 
Q 1159 2491 1159 1978 
L 1159 0 
L 581 0 
L 581 3500 
L 1159 3500 
L 1159 2956 
Q 1366 3272 1645 3428 
Q 1925 3584 2291 3584 
Q 2894 3584 3203 3211 
Q 3513 2838 3513 2113 
z
" transform="scale(0.015625)"/>
       <path id="DejaVuSans-5f" d="M 3263 -1063 
L 3263 -1509 
L -63 -1509 
L -63 -1063 
L 3263 -1063 
z
" transform="scale(0.015625)"/>
       <path id="DejaVuSans-6c" d="M 603 4863 
L 1178 4863 
L 1178 0 
L 603 0 
L 603 4863 
z
" transform="scale(0.015625)"/>
       <path id="DejaVuSans-6f" d="M 1959 3097 
Q 1497 3097 1228 2736 
Q 959 2375 959 1747 
Q 959 1119 1226 758 
Q 1494 397 1959 397 
Q 2419 397 2687 759 
Q 2956 1122 2956 1747 
Q 2956 2369 2687 2733 
Q 2419 3097 1959 3097 
z
M 1959 3584 
Q 2709 3584 3137 3096 
Q 3566 2609 3566 1747 
Q 3566 888 3137 398 
Q 2709 -91 1959 -91 
Q 1206 -91 779 398 
Q 353 888 353 1747 
Q 353 2609 779 3096 
Q 1206 3584 1959 3584 
z
" transform="scale(0.015625)"/>
       <path id="DejaVuSans-73" d="M 2834 3397 
L 2834 2853 
Q 2591 2978 2328 3040 
Q 2066 3103 1784 3103 
Q 1356 3103 1142 2972 
Q 928 2841 928 2578 
Q 928 2378 1081 2264 
Q 1234 2150 1697 2047 
L 1894 2003 
Q 2506 1872 2764 1633 
Q 3022 1394 3022 966 
Q 3022 478 2636 193 
Q 2250 -91 1575 -91 
Q 1294 -91 989 -36 
Q 684 19 347 128 
L 347 722 
Q 666 556 975 473 
Q 1284 391 1588 391 
Q 1994 391 2212 530 
Q 2431 669 2431 922 
Q 2431 1156 2273 1281 
Q 2116 1406 1581 1522 
L 1381 1569 
Q 847 1681 609 1914 
Q 372 2147 372 2553 
Q 372 3047 722 3315 
Q 1072 3584 1716 3584 
Q 2034 3584 2315 3537 
Q 2597 3491 2834 3397 
z
" transform="scale(0.015625)"/>
      </defs>
      <use xlink:href="#DejaVuSans-74"/>
      <use xlink:href="#DejaVuSans-72" x="39.208984"/>
      <use xlink:href="#DejaVuSans-61" x="80.322266"/>
      <use xlink:href="#DejaVuSans-69" x="141.601562"/>
      <use xlink:href="#DejaVuSans-6e" x="169.384766"/>
      <use xlink:href="#DejaVuSans-5f" x="232.763672"/>
      <use xlink:href="#DejaVuSans-6c" x="282.763672"/>
      <use xlink:href="#DejaVuSans-6f" x="310.546875"/>
      <use xlink:href="#DejaVuSans-73" x="371.728516"/>
      <use xlink:href="#DejaVuSans-73" x="423.828125"/>
     </g>
    </g>
    <g id="line2d_18">
     <path d="M 306.965909 35.254687 
L 316.965909 35.254687 
L 326.965909 35.254687 
" style="fill: none; stroke: #ff7f0e; stroke-width: 1.5; stroke-linecap: square"/>
    </g>
    <g id="text_16">
     <!-- val_loss -->
     <g transform="translate(334.965909 38.754687) scale(0.1 -0.1)">
      <defs>
       <path id="DejaVuSans-76" d="M 191 3500 
L 800 3500 
L 1894 563 
L 2988 3500 
L 3597 3500 
L 2284 0 
L 1503 0 
L 191 3500 
z
" transform="scale(0.015625)"/>
      </defs>
      <use xlink:href="#DejaVuSans-76"/>
      <use xlink:href="#DejaVuSans-61" x="59.179688"/>
      <use xlink:href="#DejaVuSans-6c" x="120.458984"/>
      <use xlink:href="#DejaVuSans-5f" x="148.242188"/>
      <use xlink:href="#DejaVuSans-6c" x="198.242188"/>
      <use xlink:href="#DejaVuSans-6f" x="226.025391"/>
      <use xlink:href="#DejaVuSans-73" x="287.207031"/>
      <use xlink:href="#DejaVuSans-73" x="339.306641"/>
     </g>
    </g>
   </g>
  </g>
  <g id="axes_2">
   <g id="patch_8">
    <path d="M 462.574716 259.2 
L 817.665625 259.2 
L 817.665625 7.2 
L 462.574716 7.2 
z
" style="fill: #ffffff"/>
   </g>
   <g id="matplotlib.axis_3">
    <g id="xtick_7">
     <g id="line2d_19">
      <g>
       <use xlink:href="#m55090506db" x="478.715212" y="259.2" style="stroke: #000000; stroke-width: 0.8"/>
      </g>
     </g>
     <g id="text_17">
      <!-- 0 -->
      <g transform="translate(475.533962 273.798437) scale(0.1 -0.1)">
       <use xlink:href="#DejaVuSans-30"/>
      </g>
     </g>
    </g>
    <g id="xtick_8">
     <g id="line2d_20">
      <g>
       <use xlink:href="#m55090506db" x="543.53648" y="259.2" style="stroke: #000000; stroke-width: 0.8"/>
      </g>
     </g>
     <g id="text_18">
      <!-- 50 -->
      <g transform="translate(537.17398 273.798437) scale(0.1 -0.1)">
       <use xlink:href="#DejaVuSans-35"/>
       <use xlink:href="#DejaVuSans-30" x="63.623047"/>
      </g>
     </g>
    </g>
    <g id="xtick_9">
     <g id="line2d_21">
      <g>
       <use xlink:href="#m55090506db" x="608.357749" y="259.2" style="stroke: #000000; stroke-width: 0.8"/>
      </g>
     </g>
     <g id="text_19">
      <!-- 100 -->
      <g transform="translate(598.813999 273.798437) scale(0.1 -0.1)">
       <use xlink:href="#DejaVuSans-31"/>
       <use xlink:href="#DejaVuSans-30" x="63.623047"/>
       <use xlink:href="#DejaVuSans-30" x="127.246094"/>
      </g>
     </g>
    </g>
    <g id="xtick_10">
     <g id="line2d_22">
      <g>
       <use xlink:href="#m55090506db" x="673.179017" y="259.2" style="stroke: #000000; stroke-width: 0.8"/>
      </g>
     </g>
     <g id="text_20">
      <!-- 150 -->
      <g transform="translate(663.635267 273.798437) scale(0.1 -0.1)">
       <use xlink:href="#DejaVuSans-31"/>
       <use xlink:href="#DejaVuSans-35" x="63.623047"/>
       <use xlink:href="#DejaVuSans-30" x="127.246094"/>
      </g>
     </g>
    </g>
    <g id="xtick_11">
     <g id="line2d_23">
      <g>
       <use xlink:href="#m55090506db" x="738.000286" y="259.2" style="stroke: #000000; stroke-width: 0.8"/>
      </g>
     </g>
     <g id="text_21">
      <!-- 200 -->
      <g transform="translate(728.456536 273.798437) scale(0.1 -0.1)">
       <use xlink:href="#DejaVuSans-32"/>
       <use xlink:href="#DejaVuSans-30" x="63.623047"/>
       <use xlink:href="#DejaVuSans-30" x="127.246094"/>
      </g>
     </g>
    </g>
    <g id="xtick_12">
     <g id="line2d_24">
      <g>
       <use xlink:href="#m55090506db" x="802.821555" y="259.2" style="stroke: #000000; stroke-width: 0.8"/>
      </g>
     </g>
     <g id="text_22">
      <!-- 250 -->
      <g transform="translate(793.277805 273.798437) scale(0.1 -0.1)">
       <use xlink:href="#DejaVuSans-32"/>
       <use xlink:href="#DejaVuSans-35" x="63.623047"/>
       <use xlink:href="#DejaVuSans-30" x="127.246094"/>
      </g>
     </g>
    </g>
   </g>
   <g id="matplotlib.axis_4">
    <g id="ytick_9">
     <g id="line2d_25">
      <g>
       <use xlink:href="#m81f13181a9" x="462.574716" y="251.305619" style="stroke: #000000; stroke-width: 0.8"/>
      </g>
     </g>
     <g id="text_23">
      <!-- 0.4 -->
      <g transform="translate(439.671591 255.104838) scale(0.1 -0.1)">
       <defs>
        <path id="DejaVuSans-34" d="M 2419 4116 
L 825 1625 
L 2419 1625 
L 2419 4116 
z
M 2253 4666 
L 3047 4666 
L 3047 1625 
L 3713 1625 
L 3713 1100 
L 3047 1100 
L 3047 0 
L 2419 0 
L 2419 1100 
L 313 1100 
L 313 1709 
L 2253 4666 
z
" transform="scale(0.015625)"/>
       </defs>
       <use xlink:href="#DejaVuSans-30"/>
       <use xlink:href="#DejaVuSans-2e" x="63.623047"/>
       <use xlink:href="#DejaVuSans-34" x="95.410156"/>
      </g>
     </g>
    </g>
    <g id="ytick_10">
     <g id="line2d_26">
      <g>
       <use xlink:href="#m81f13181a9" x="462.574716" y="208.729962" style="stroke: #000000; stroke-width: 0.8"/>
      </g>
     </g>
     <g id="text_24">
      <!-- 0.5 -->
      <g transform="translate(439.671591 212.52918) scale(0.1 -0.1)">
       <use xlink:href="#DejaVuSans-30"/>
       <use xlink:href="#DejaVuSans-2e" x="63.623047"/>
       <use xlink:href="#DejaVuSans-35" x="95.410156"/>
      </g>
     </g>
    </g>
    <g id="ytick_11">
     <g id="line2d_27">
      <g>
       <use xlink:href="#m81f13181a9" x="462.574716" y="166.154304" style="stroke: #000000; stroke-width: 0.8"/>
      </g>
     </g>
     <g id="text_25">
      <!-- 0.6 -->
      <g transform="translate(439.671591 169.953523) scale(0.1 -0.1)">
       <defs>
        <path id="DejaVuSans-36" d="M 2113 2584 
Q 1688 2584 1439 2293 
Q 1191 2003 1191 1497 
Q 1191 994 1439 701 
Q 1688 409 2113 409 
Q 2538 409 2786 701 
Q 3034 994 3034 1497 
Q 3034 2003 2786 2293 
Q 2538 2584 2113 2584 
z
M 3366 4563 
L 3366 3988 
Q 3128 4100 2886 4159 
Q 2644 4219 2406 4219 
Q 1781 4219 1451 3797 
Q 1122 3375 1075 2522 
Q 1259 2794 1537 2939 
Q 1816 3084 2150 3084 
Q 2853 3084 3261 2657 
Q 3669 2231 3669 1497 
Q 3669 778 3244 343 
Q 2819 -91 2113 -91 
Q 1303 -91 875 529 
Q 447 1150 447 2328 
Q 447 3434 972 4092 
Q 1497 4750 2381 4750 
Q 2619 4750 2861 4703 
Q 3103 4656 3366 4563 
z
" transform="scale(0.015625)"/>
       </defs>
       <use xlink:href="#DejaVuSans-30"/>
       <use xlink:href="#DejaVuSans-2e" x="63.623047"/>
       <use xlink:href="#DejaVuSans-36" x="95.410156"/>
      </g>
     </g>
    </g>
    <g id="ytick_12">
     <g id="line2d_28">
      <g>
       <use xlink:href="#m81f13181a9" x="462.574716" y="123.578647" style="stroke: #000000; stroke-width: 0.8"/>
      </g>
     </g>
     <g id="text_26">
      <!-- 0.7 -->
      <g transform="translate(439.671591 127.377866) scale(0.1 -0.1)">
       <use xlink:href="#DejaVuSans-30"/>
       <use xlink:href="#DejaVuSans-2e" x="63.623047"/>
       <use xlink:href="#DejaVuSans-37" x="95.410156"/>
      </g>
     </g>
    </g>
    <g id="ytick_13">
     <g id="line2d_29">
      <g>
       <use xlink:href="#m81f13181a9" x="462.574716" y="81.00299" style="stroke: #000000; stroke-width: 0.8"/>
      </g>
     </g>
     <g id="text_27">
      <!-- 0.8 -->
      <g transform="translate(439.671591 84.802209) scale(0.1 -0.1)">
       <defs>
        <path id="DejaVuSans-38" d="M 2034 2216 
Q 1584 2216 1326 1975 
Q 1069 1734 1069 1313 
Q 1069 891 1326 650 
Q 1584 409 2034 409 
Q 2484 409 2743 651 
Q 3003 894 3003 1313 
Q 3003 1734 2745 1975 
Q 2488 2216 2034 2216 
z
M 1403 2484 
Q 997 2584 770 2862 
Q 544 3141 544 3541 
Q 544 4100 942 4425 
Q 1341 4750 2034 4750 
Q 2731 4750 3128 4425 
Q 3525 4100 3525 3541 
Q 3525 3141 3298 2862 
Q 3072 2584 2669 2484 
Q 3125 2378 3379 2068 
Q 3634 1759 3634 1313 
Q 3634 634 3220 271 
Q 2806 -91 2034 -91 
Q 1263 -91 848 271 
Q 434 634 434 1313 
Q 434 1759 690 2068 
Q 947 2378 1403 2484 
z
M 1172 3481 
Q 1172 3119 1398 2916 
Q 1625 2713 2034 2713 
Q 2441 2713 2670 2916 
Q 2900 3119 2900 3481 
Q 2900 3844 2670 4047 
Q 2441 4250 2034 4250 
Q 1625 4250 1398 4047 
Q 1172 3844 1172 3481 
z
" transform="scale(0.015625)"/>
       </defs>
       <use xlink:href="#DejaVuSans-30"/>
       <use xlink:href="#DejaVuSans-2e" x="63.623047"/>
       <use xlink:href="#DejaVuSans-38" x="95.410156"/>
      </g>
     </g>
    </g>
    <g id="ytick_14">
     <g id="line2d_30">
      <g>
       <use xlink:href="#m81f13181a9" x="462.574716" y="38.427333" style="stroke: #000000; stroke-width: 0.8"/>
      </g>
     </g>
     <g id="text_28">
      <!-- 0.9 -->
      <g transform="translate(439.671591 42.226551) scale(0.1 -0.1)">
       <defs>
        <path id="DejaVuSans-39" d="M 703 97 
L 703 672 
Q 941 559 1184 500 
Q 1428 441 1663 441 
Q 2288 441 2617 861 
Q 2947 1281 2994 2138 
Q 2813 1869 2534 1725 
Q 2256 1581 1919 1581 
Q 1219 1581 811 2004 
Q 403 2428 403 3163 
Q 403 3881 828 4315 
Q 1253 4750 1959 4750 
Q 2769 4750 3195 4129 
Q 3622 3509 3622 2328 
Q 3622 1225 3098 567 
Q 2575 -91 1691 -91 
Q 1453 -91 1209 -44 
Q 966 3 703 97 
z
M 1959 2075 
Q 2384 2075 2632 2365 
Q 2881 2656 2881 3163 
Q 2881 3666 2632 3958 
Q 2384 4250 1959 4250 
Q 1534 4250 1286 3958 
Q 1038 3666 1038 3163 
Q 1038 2656 1286 2365 
Q 1534 2075 1959 2075 
z
" transform="scale(0.015625)"/>
       </defs>
       <use xlink:href="#DejaVuSans-30"/>
       <use xlink:href="#DejaVuSans-2e" x="63.623047"/>
       <use xlink:href="#DejaVuSans-39" x="95.410156"/>
      </g>
     </g>
    </g>
   </g>
   <g id="line2d_31">
    <path d="M 478.715212 247.745455 
L 480.011637 119.282847 
L 481.308063 94.634785 
L 482.604488 82.046464 
L 485.197339 67.294825 
L 486.493764 63.457634 
L 487.790189 59.126124 
L 489.086615 57.33968 
L 490.38304 54.476461 
L 491.679465 51.251086 
L 492.975891 49.660401 
L 494.272316 49.019249 
L 495.568742 47.873957 
L 496.865167 47.169159 
L 498.161592 45.387613 
L 499.458018 44.824775 
L 500.754443 43.410283 
L 502.050868 43.067692 
L 503.347294 41.623838 
L 504.643719 41.33997 
L 505.940145 40.600914 
L 507.23657 39.186447 
L 508.532995 39.548629 
L 509.829421 38.261402 
L 511.125846 38.555066 
L 512.422271 38.251632 
L 513.718697 36.426031 
L 515.015122 37.390207 
L 516.311548 36.333024 
L 517.607973 36.514115 
L 518.904398 36.925249 
L 521.497249 34.766827 
L 522.793674 35.089852 
L 524.0901 34.110982 
L 525.386525 34.845141 
L 526.682951 34.184398 
L 527.979376 34.071826 
L 529.275801 33.557915 
L 530.572227 32.579045 
L 531.868652 33.587276 
L 533.165077 32.941226 
L 535.757928 32.515425 
L 537.054353 32.050466 
L 538.350779 32.603508 
L 539.647204 31.169476 
L 540.94363 30.616408 
L 542.240055 31.365234 
L 543.53648 30.782805 
L 544.832906 31.2233 
L 546.129331 29.926304 
L 547.425756 30.89048 
L 548.722182 30.00949 
L 550.018607 30.518528 
L 552.611458 29.368338 
L 555.204309 30.244431 
L 556.500734 28.526505 
L 557.797159 28.604818 
L 559.093585 29.290024 
L 560.39001 28.237739 
L 562.982861 29.887147 
L 564.279286 28.227943 
L 565.575712 28.345414 
L 566.872137 28.007696 
L 568.168562 28.169221 
L 569.464988 29.451549 
L 570.761413 26.82817 
L 572.057838 28.301359 
L 573.354264 27.576996 
L 574.650689 27.43996 
L 575.947115 26.911356 
L 577.24354 27.792346 
L 578.539965 27.914714 
L 579.836391 26.940742 
L 581.132816 26.935844 
L 582.429241 27.190351 
L 583.725667 26.089113 
L 585.022092 25.800348 
L 586.318518 26.588331 
L 587.614943 27.983232 
L 588.911368 26.402342 
L 590.207794 26.852633 
L 591.504219 25.775859 
L 592.800644 25.7416 
L 594.09707 26.221252 
L 595.393495 25.942281 
L 596.689921 26.299565 
L 597.986346 24.841044 
L 600.579197 25.15917 
L 601.875622 26.270204 
L 603.172047 25.584998 
L 607.061323 25.785654 
L 608.357749 25.15917 
L 609.654174 24.938923 
L 610.9506 25.276641 
L 612.247025 25.252177 
L 613.54345 24.728471 
L 614.839876 24.571844 
L 616.136301 25.79545 
L 617.432726 24.60123 
L 618.729152 24.850839 
L 620.025577 24.028571 
L 621.322003 24.043265 
L 622.618428 24.82635 
L 623.914853 23.842583 
L 625.211279 24.566971 
L 626.507704 24.26841 
L 629.100555 24.190096 
L 630.39698 23.871969 
L 631.693406 23.152479 
L 632.989831 24.11668 
L 634.286256 22.834352 
L 635.582682 24.067728 
L 636.879107 23.519558 
L 638.175532 24.013903 
L 639.471958 23.367829 
L 640.768383 23.132913 
L 642.064809 24.15094 
L 643.361234 22.83925 
L 644.657659 23.123117 
L 645.954085 23.602769 
L 647.25051 23.681083 
L 648.546935 22.946924 
L 649.843361 24.038367 
L 651.139786 22.545586 
L 652.436211 23.323799 
L 653.732637 22.413448 
L 655.029062 23.083961 
L 656.325488 23.093756 
L 657.621913 22.604309 
L 658.918338 22.677725 
L 660.214764 22.364495 
L 661.511189 23.240588 
L 662.807614 22.25682 
L 664.10404 23.206329 
L 665.400465 22.0855 
L 666.696891 22.325339 
L 667.993316 22.68752 
L 669.289741 22.320441 
L 670.586167 22.359598 
L 671.882592 22.834352 
L 673.179017 22.614104 
L 674.475443 21.669494 
L 675.771868 21.199637 
L 677.068294 22.736472 
L 679.661144 21.664596 
L 680.95757 21.728216 
L 683.55042 21.561819 
L 684.846846 22.379163 
L 686.143271 21.875048 
L 688.736122 22.388959 
L 690.032547 22.237229 
L 691.328973 22.388959 
L 693.921823 21.566716 
L 695.218249 20.896178 
L 696.514674 21.116426 
L 697.811099 21.909307 
L 699.107525 21.140889 
L 700.40395 21.32198 
L 701.700376 22.212766 
L 702.996801 21.459042 
L 704.293226 21.370932 
L 706.886077 21.64503 
L 708.182502 21.571614 
L 709.478928 21.385626 
L 710.775353 21.777168 
L 712.071779 21.209407 
L 713.368204 21.928898 
L 714.664629 21.385626 
L 715.961055 20.34311 
L 717.25748 21.052805 
L 718.553905 21.326878 
L 719.850331 21.253462 
L 721.146756 20.617208 
L 722.443182 21.37583 
L 723.739607 21.131119 
L 725.036032 21.268155 
L 726.332458 20.489942 
L 727.628883 20.220767 
L 728.925308 21.033214 
L 730.221734 21.214305 
L 731.518159 21.082167 
L 732.814584 20.749346 
L 734.11101 20.866817 
L 735.407435 20.631876 
L 736.703861 20.876612 
L 738.000286 19.73132 
L 739.296711 21.155583 
L 740.593137 20.328442 
L 741.889562 20.171815 
L 743.185987 20.597617 
L 744.482413 20.783605 
L 747.075264 20.592719 
L 748.371689 20.372472 
L 749.668114 19.711729 
L 750.96454 20.289286 
L 752.260965 20.117965 
L 753.55739 20.587847 
L 754.853816 19.834097 
L 756.150241 20.626978 
L 757.446667 19.819429 
L 758.743092 20.930437 
L 760.039517 19.819429 
L 763.928793 19.838995 
L 765.225219 20.264797 
L 767.818069 19.648108 
L 769.114495 20.352906 
L 770.41092 20.181611 
L 771.707346 21.25836 
L 773.003771 20.308851 
L 774.300196 19.834097 
L 775.596622 20.303953 
L 776.893047 19.912411 
L 778.189472 21.180046 
L 779.485898 19.961363 
L 780.782323 19.819429 
L 782.078749 18.654545 
L 783.375174 21.135991 
L 784.671599 20.073936 
L 785.968025 19.266361 
L 787.26445 20.005392 
L 788.560875 19.922206 
L 789.857301 18.767118 
L 791.153726 19.790042 
L 792.450152 19.3985 
L 793.746577 20.176713 
L 796.339428 19.188048 
L 797.635853 19.951567 
L 798.932278 19.266361 
L 800.228704 19.496379 
L 801.525129 19.574693 
L 801.525129 19.574693 
" clip-path="url(#p64ab365f7f)" style="fill: none; stroke: #1f77b4; stroke-width: 1.5; stroke-linecap: square"/>
   </g>
   <g id="line2d_32">
    <path d="M 478.715212 110.195801 
L 480.011637 82.92446 
L 481.308063 67.552732 
L 482.604488 62.125414 
L 483.900913 55.450864 
L 485.197339 52.113577 
L 486.493764 51.135976 
L 487.790189 51.911322 
L 489.086615 48.338053 
L 490.38304 41.966886 
L 491.679465 42.775907 
L 492.975891 43.450125 
L 494.272316 43.719781 
L 495.568742 42.641078 
L 496.865167 41.292668 
L 498.161592 38.52847 
L 499.458018 40.989285 
L 500.754443 37.112633 
L 502.050868 40.517347 
L 503.347294 39.404918 
L 504.643719 37.382315 
L 505.940145 33.775371 
L 507.23657 36.337313 
L 508.532995 36.43844 
L 511.125846 34.31471 
L 512.422271 35.696821 
L 513.718697 34.382136 
L 515.015122 35.224883 
L 516.311548 31.887596 
L 517.607973 34.752946 
L 518.904398 34.854074 
L 520.200824 35.359737 
L 521.497249 33.134879 
L 522.793674 31.853895 
L 524.0901 35.157457 
L 525.386525 31.044849 
L 526.682951 32.325832 
L 527.979376 31.786468 
L 529.275801 30.336955 
L 530.572227 34.078754 
L 531.868652 35.224883 
L 534.461503 33.20228 
L 535.757928 33.707944 
L 537.054353 31.28083 
L 538.350779 35.730547 
L 539.647204 32.629215 
L 540.94363 32.292132 
L 542.240055 31.786468 
L 543.53648 31.516786 
L 544.832906 29.460482 
L 547.425756 32.696642 
L 548.722182 29.359355 
L 550.018607 30.370656 
L 551.315033 30.876294 
L 552.611458 30.168401 
L 553.907883 31.044849 
L 555.204309 33.707944 
L 556.500734 31.65164 
L 557.797159 30.336955 
L 559.093585 32.629215 
L 560.39001 31.65164 
L 561.686436 34.820373 
L 562.982861 33.674243 
L 564.279286 34.078754 
L 565.575712 31.078575 
L 566.872137 31.381958 
L 568.168562 28.718863 
L 569.464988 30.943721 
L 570.761413 30.370656 
L 572.057838 29.460482 
L 573.354264 31.213403 
L 574.650689 28.78629 
L 575.947115 32.629215 
L 577.24354 33.438262 
L 578.539965 32.42696 
L 579.836391 29.325654 
L 581.132816 30.235828 
L 582.429241 31.617914 
L 583.725667 26.864814 
L 585.022092 32.528088 
L 586.318518 34.011327 
L 587.614943 30.370656 
L 588.911368 32.79777 
L 590.207794 31.415659 
L 591.504219 27.977243 
L 592.800644 30.134675 
L 594.09707 33.236006 
L 595.393495 30.134675 
L 596.689921 28.81999 
L 597.986346 33.337134 
L 599.282771 33.134879 
L 600.579197 29.999846 
L 601.875622 27.606434 
L 603.172047 27.033369 
L 604.468473 31.381958 
L 605.764898 31.617914 
L 607.061323 29.460482 
L 608.357749 29.527909 
L 609.654174 28.853716 
L 610.9506 31.145976 
L 612.247025 29.898719 
L 613.54345 30.235828 
L 614.839876 29.258227 
L 616.136301 32.730343 
L 617.432726 30.808893 
L 618.729152 32.79777 
L 620.025577 31.044849 
L 621.322003 28.853716 
L 622.618428 31.314531 
L 623.914853 30.640338 
L 625.211279 28.449181 
L 626.507704 30.370656 
L 627.804129 27.876116 
L 629.100555 29.291928 
L 630.39698 30.067273 
L 631.693406 27.774988 
L 632.989831 28.41548 
L 635.582682 28.617735 
L 636.879107 31.483085 
L 638.175532 30.202102 
L 639.471958 30.471784 
L 640.768383 29.123399 
L 642.064809 26.055793 
L 643.361234 26.628858 
L 644.657659 31.179703 
L 645.954085 26.426603 
L 647.25051 28.246925 
L 648.546935 27.505306 
L 649.843361 29.291928 
L 651.139786 29.999846 
L 652.436211 32.02245 
L 653.732637 28.550308 
L 655.029062 27.404178 
L 656.325488 29.763865 
L 660.214764 27.235624 
L 661.511189 30.876294 
L 662.807614 29.527909 
L 664.10404 28.921118 
L 665.400465 28.550308 
L 666.696891 28.988545 
L 667.993316 31.044849 
L 669.289741 27.471605 
L 670.586167 31.078575 
L 671.882592 31.314531 
L 675.771868 28.078371 
L 677.068294 27.842415 
L 678.364719 27.437879 
L 679.661144 29.56161 
L 682.253995 27.303051 
L 684.846846 30.674039 
L 686.143271 33.303433 
L 687.439696 27.943543 
L 688.736122 28.381779 
L 690.032547 27.067095 
L 691.328973 30.067273 
L 692.625398 29.325654 
L 693.921823 31.145976 
L 695.218249 28.718863 
L 696.514674 29.291928 
L 697.811099 31.584213 
L 699.107525 27.808689 
L 700.40395 28.718863 
L 701.700376 28.550308 
L 702.996801 30.977447 
L 704.293226 26.662559 
L 705.589652 29.629037 
L 706.886077 29.359355 
L 709.478928 29.999846 
L 710.775353 25.381575 
L 712.071779 29.258227 
L 713.368204 27.572733 
L 714.664629 28.752589 
L 715.961055 30.202102 
L 717.25748 27.808689 
L 718.553905 30.100974 
L 719.850331 33.842772 
L 721.146756 30.202102 
L 722.443182 31.348257 
L 723.739607 29.494208 
L 725.036032 28.988545 
L 726.332458 25.853512 
L 727.628883 29.1908 
L 728.925308 30.134675 
L 730.221734 31.449385 
L 731.518159 29.898719 
L 732.814584 30.404357 
L 734.11101 31.617914 
L 735.407435 29.359355 
L 736.703861 27.606434 
L 738.000286 33.000025 
L 739.296711 31.550512 
L 740.593137 35.326011 
L 741.889562 29.460482 
L 743.185987 28.516607 
L 744.482413 27.168222 
L 745.778838 26.291749 
L 747.075264 31.617914 
L 748.371689 29.022271 
L 749.668114 29.393081 
L 750.96454 28.988545 
L 752.260965 28.752589 
L 753.55739 30.336955 
L 754.853816 28.617735 
L 756.150241 29.022271 
L 757.446667 29.224526 
L 760.039517 27.64016 
L 761.335943 29.157099 
L 762.632368 28.550308 
L 763.928793 28.78629 
L 765.225219 27.505306 
L 766.521644 28.246925 
L 767.818069 28.41548 
L 769.114495 28.78629 
L 770.41092 36.674422 
L 771.707346 28.449181 
L 774.300196 29.696464 
L 775.596622 30.741466 
L 776.893047 29.56161 
L 778.189472 27.909842 
L 779.485898 28.179499 
L 780.782323 31.179703 
L 782.078749 30.134675 
L 783.375174 31.449385 
L 784.671599 28.449181 
L 785.968025 28.550308 
L 787.26445 26.932241 
L 788.560875 27.437879 
L 789.857301 29.56161 
L 791.153726 29.865018 
L 792.450152 25.920939 
L 793.746577 27.842415 
L 795.043002 26.52773 
L 796.339428 28.112097 
L 797.635853 30.067273 
L 798.932278 27.235624 
L 800.228704 28.78629 
L 801.525129 30.067273 
L 801.525129 30.067273 
" clip-path="url(#p64ab365f7f)" style="fill: none; stroke: #ff7f0e; stroke-width: 1.5; stroke-linecap: square"/>
   </g>
   <g id="patch_9">
    <path d="M 462.574716 259.2 
L 462.574716 7.2 
" style="fill: none; stroke: #000000; stroke-width: 0.8; stroke-linejoin: miter; stroke-linecap: square"/>
   </g>
   <g id="patch_10">
    <path d="M 817.665625 259.2 
L 817.665625 7.2 
" style="fill: none; stroke: #000000; stroke-width: 0.8; stroke-linejoin: miter; stroke-linecap: square"/>
   </g>
   <g id="patch_11">
    <path d="M 462.574716 259.2 
L 817.665625 259.2 
" style="fill: none; stroke: #000000; stroke-width: 0.8; stroke-linejoin: miter; stroke-linecap: square"/>
   </g>
   <g id="patch_12">
    <path d="M 462.574716 7.2 
L 817.665625 7.2 
" style="fill: none; stroke: #000000; stroke-width: 0.8; stroke-linejoin: miter; stroke-linecap: square"/>
   </g>
   <g id="legend_2">
    <g id="patch_13">
     <path d="M 733.265625 254.2 
L 810.665625 254.2 
Q 812.665625 254.2 812.665625 252.2 
L 812.665625 223.2875 
Q 812.665625 221.2875 810.665625 221.2875 
L 733.265625 221.2875 
Q 731.265625 221.2875 731.265625 223.2875 
L 731.265625 252.2 
Q 731.265625 254.2 733.265625 254.2 
z
" style="fill: #ffffff; opacity: 0.8; stroke: #cccccc; stroke-linejoin: miter"/>
    </g>
    <g id="line2d_33">
     <path d="M 735.265625 229.385937 
L 745.265625 229.385937 
L 755.265625 229.385937 
" style="fill: none; stroke: #1f77b4; stroke-width: 1.5; stroke-linecap: square"/>
    </g>
    <g id="text_29">
     <!-- train_acc -->
     <g transform="translate(763.265625 232.885937) scale(0.1 -0.1)">
      <defs>
       <path id="DejaVuSans-63" d="M 3122 3366 
L 3122 2828 
Q 2878 2963 2633 3030 
Q 2388 3097 2138 3097 
Q 1578 3097 1268 2742 
Q 959 2388 959 1747 
Q 959 1106 1268 751 
Q 1578 397 2138 397 
Q 2388 397 2633 464 
Q 2878 531 3122 666 
L 3122 134 
Q 2881 22 2623 -34 
Q 2366 -91 2075 -91 
Q 1284 -91 818 406 
Q 353 903 353 1747 
Q 353 2603 823 3093 
Q 1294 3584 2113 3584 
Q 2378 3584 2631 3529 
Q 2884 3475 3122 3366 
z
" transform="scale(0.015625)"/>
      </defs>
      <use xlink:href="#DejaVuSans-74"/>
      <use xlink:href="#DejaVuSans-72" x="39.208984"/>
      <use xlink:href="#DejaVuSans-61" x="80.322266"/>
      <use xlink:href="#DejaVuSans-69" x="141.601562"/>
      <use xlink:href="#DejaVuSans-6e" x="169.384766"/>
      <use xlink:href="#DejaVuSans-5f" x="232.763672"/>
      <use xlink:href="#DejaVuSans-61" x="282.763672"/>
      <use xlink:href="#DejaVuSans-63" x="344.042969"/>
      <use xlink:href="#DejaVuSans-63" x="399.023438"/>
     </g>
    </g>
    <g id="line2d_34">
     <path d="M 735.265625 244.342187 
L 745.265625 244.342187 
L 755.265625 244.342187 
" style="fill: none; stroke: #ff7f0e; stroke-width: 1.5; stroke-linecap: square"/>
    </g>
    <g id="text_30">
     <!-- val_acc -->
     <g transform="translate(763.265625 247.842187) scale(0.1 -0.1)">
      <use xlink:href="#DejaVuSans-76"/>
      <use xlink:href="#DejaVuSans-61" x="59.179688"/>
      <use xlink:href="#DejaVuSans-6c" x="120.458984"/>
      <use xlink:href="#DejaVuSans-5f" x="148.242188"/>
      <use xlink:href="#DejaVuSans-61" x="198.242188"/>
      <use xlink:href="#DejaVuSans-63" x="259.521484"/>
      <use xlink:href="#DejaVuSans-63" x="314.501953"/>
     </g>
    </g>
   </g>
  </g>
 </g>
 <defs>
  <clipPath id="pe7d62c629b">
   <rect x="36.465625" y="7.2" width="355.090909" height="252"/>
  </clipPath>
  <clipPath id="p64ab365f7f">
   <rect x="462.574716" y="7.2" width="355.090909" height="252"/>
  </clipPath>
 </defs>
</svg>
