<?xml version="1.0" encoding="utf-8" standalone="no"?>
<!DOCTYPE svg PUBLIC "-//W3C//DTD SVG 1.1//EN"
  "http://www.w3.org/Graphics/SVG/1.1/DTD/svg11.dtd">
<svg xmlns:xlink="http://www.w3.org/1999/xlink" width="818.503125pt" height="283.078125pt" viewBox="0 0 818.503125 283.078125" xmlns="http://www.w3.org/2000/svg" version="1.1">
 <metadata>
  <rdf:RDF xmlns:dc="http://purl.org/dc/elements/1.1/" xmlns:cc="http://creativecommons.org/ns#" xmlns:rdf="http://www.w3.org/1999/02/22-rdf-syntax-ns#">
   <cc:Work>
    <dc:type rdf:resource="http://purl.org/dc/dcmitype/StillImage"/>
    <dc:date>2023-01-23T16:15:34.628853</dc:date>
    <dc:format>image/svg+xml</dc:format>
    <dc:creator>
     <cc:Agent>
      <dc:title>Matplotlib v3.6.2, https://matplotlib.org/</dc:title>
     </cc:Agent>
    </dc:creator>
   </cc:Work>
  </rdf:RDF>
 </metadata>
 <defs>
  <style type="text/css">*{stroke-linejoin: round; stroke-linecap: butt}</style>
 </defs>
 <g id="figure_1">
  <g id="patch_1">
   <path d="M 0 283.078125 
L 818.503125 283.078125 
L 818.503125 0 
L 0 0 
z
" style="fill: #ffffff"/>
  </g>
  <g id="axes_1">
   <g id="patch_2">
    <path d="M 30.103125 259.2 
L 385.194034 259.2 
L 385.194034 7.2 
L 30.103125 7.2 
z
" style="fill: #ffffff"/>
   </g>
   <g id="matplotlib.axis_1">
    <g id="xtick_1">
     <g id="line2d_1">
      <defs>
       <path id="mc4be3a8128" d="M 0 0 
L 0 3.5 
" style="stroke: #000000; stroke-width: 0.8"/>
      </defs>
      <g>
       <use xlink:href="#mc4be3a8128" x="46.243621" y="259.2" style="stroke: #000000; stroke-width: 0.8"/>
      </g>
     </g>
     <g id="text_1">
      <!-- 0 -->
      <g transform="translate(43.062371 273.798437) scale(0.1 -0.1)">
       <defs>
        <path id="DejaVuSans-30" d="M 2034 4250 
Q 1547 4250 1301 3770 
Q 1056 3291 1056 2328 
Q 1056 1369 1301 889 
Q 1547 409 2034 409 
Q 2525 409 2770 889 
Q 3016 1369 3016 2328 
Q 3016 3291 2770 3770 
Q 2525 4250 2034 4250 
z
M 2034 4750 
Q 2819 4750 3233 4129 
Q 3647 3509 3647 2328 
Q 3647 1150 3233 529 
Q 2819 -91 2034 -91 
Q 1250 -91 836 529 
Q 422 1150 422 2328 
Q 422 3509 836 4129 
Q 1250 4750 2034 4750 
z
" transform="scale(0.015625)"/>
       </defs>
       <use xlink:href="#DejaVuSans-30"/>
      </g>
     </g>
    </g>
    <g id="xtick_2">
     <g id="line2d_2">
      <g>
       <use xlink:href="#mc4be3a8128" x="98.309737" y="259.2" style="stroke: #000000; stroke-width: 0.8"/>
      </g>
     </g>
     <g id="text_2">
      <!-- 20 -->
      <g transform="translate(91.947237 273.798437) scale(0.1 -0.1)">
       <defs>
        <path id="DejaVuSans-32" d="M 1228 531 
L 3431 531 
L 3431 0 
L 469 0 
L 469 531 
Q 828 903 1448 1529 
Q 2069 2156 2228 2338 
Q 2531 2678 2651 2914 
Q 2772 3150 2772 3378 
Q 2772 3750 2511 3984 
Q 2250 4219 1831 4219 
Q 1534 4219 1204 4116 
Q 875 4013 500 3803 
L 500 4441 
Q 881 4594 1212 4672 
Q 1544 4750 1819 4750 
Q 2544 4750 2975 4387 
Q 3406 4025 3406 3419 
Q 3406 3131 3298 2873 
Q 3191 2616 2906 2266 
Q 2828 2175 2409 1742 
Q 1991 1309 1228 531 
z
" transform="scale(0.015625)"/>
       </defs>
       <use xlink:href="#DejaVuSans-32"/>
       <use xlink:href="#DejaVuSans-30" x="63.623047"/>
      </g>
     </g>
    </g>
    <g id="xtick_3">
     <g id="line2d_3">
      <g>
       <use xlink:href="#mc4be3a8128" x="150.375852" y="259.2" style="stroke: #000000; stroke-width: 0.8"/>
      </g>
     </g>
     <g id="text_3">
      <!-- 40 -->
      <g transform="translate(144.013352 273.798437) scale(0.1 -0.1)">
       <defs>
        <path id="DejaVuSans-34" d="M 2419 4116 
L 825 1625 
L 2419 1625 
L 2419 4116 
z
M 2253 4666 
L 3047 4666 
L 3047 1625 
L 3713 1625 
L 3713 1100 
L 3047 1100 
L 3047 0 
L 2419 0 
L 2419 1100 
L 313 1100 
L 313 1709 
L 2253 4666 
z
" transform="scale(0.015625)"/>
       </defs>
       <use xlink:href="#DejaVuSans-34"/>
       <use xlink:href="#DejaVuSans-30" x="63.623047"/>
      </g>
     </g>
    </g>
    <g id="xtick_4">
     <g id="line2d_4">
      <g>
       <use xlink:href="#mc4be3a8128" x="202.441968" y="259.2" style="stroke: #000000; stroke-width: 0.8"/>
      </g>
     </g>
     <g id="text_4">
      <!-- 60 -->
      <g transform="translate(196.079468 273.798437) scale(0.1 -0.1)">
       <defs>
        <path id="DejaVuSans-36" d="M 2113 2584 
Q 1688 2584 1439 2293 
Q 1191 2003 1191 1497 
Q 1191 994 1439 701 
Q 1688 409 2113 409 
Q 2538 409 2786 701 
Q 3034 994 3034 1497 
Q 3034 2003 2786 2293 
Q 2538 2584 2113 2584 
z
M 3366 4563 
L 3366 3988 
Q 3128 4100 2886 4159 
Q 2644 4219 2406 4219 
Q 1781 4219 1451 3797 
Q 1122 3375 1075 2522 
Q 1259 2794 1537 2939 
Q 1816 3084 2150 3084 
Q 2853 3084 3261 2657 
Q 3669 2231 3669 1497 
Q 3669 778 3244 343 
Q 2819 -91 2113 -91 
Q 1303 -91 875 529 
Q 447 1150 447 2328 
Q 447 3434 972 4092 
Q 1497 4750 2381 4750 
Q 2619 4750 2861 4703 
Q 3103 4656 3366 4563 
z
" transform="scale(0.015625)"/>
       </defs>
       <use xlink:href="#DejaVuSans-36"/>
       <use xlink:href="#DejaVuSans-30" x="63.623047"/>
      </g>
     </g>
    </g>
    <g id="xtick_5">
     <g id="line2d_5">
      <g>
       <use xlink:href="#mc4be3a8128" x="254.508084" y="259.2" style="stroke: #000000; stroke-width: 0.8"/>
      </g>
     </g>
     <g id="text_5">
      <!-- 80 -->
      <g transform="translate(248.145584 273.798437) scale(0.1 -0.1)">
       <defs>
        <path id="DejaVuSans-38" d="M 2034 2216 
Q 1584 2216 1326 1975 
Q 1069 1734 1069 1313 
Q 1069 891 1326 650 
Q 1584 409 2034 409 
Q 2484 409 2743 651 
Q 3003 894 3003 1313 
Q 3003 1734 2745 1975 
Q 2488 2216 2034 2216 
z
M 1403 2484 
Q 997 2584 770 2862 
Q 544 3141 544 3541 
Q 544 4100 942 4425 
Q 1341 4750 2034 4750 
Q 2731 4750 3128 4425 
Q 3525 4100 3525 3541 
Q 3525 3141 3298 2862 
Q 3072 2584 2669 2484 
Q 3125 2378 3379 2068 
Q 3634 1759 3634 1313 
Q 3634 634 3220 271 
Q 2806 -91 2034 -91 
Q 1263 -91 848 271 
Q 434 634 434 1313 
Q 434 1759 690 2068 
Q 947 2378 1403 2484 
z
M 1172 3481 
Q 1172 3119 1398 2916 
Q 1625 2713 2034 2713 
Q 2441 2713 2670 2916 
Q 2900 3119 2900 3481 
Q 2900 3844 2670 4047 
Q 2441 4250 2034 4250 
Q 1625 4250 1398 4047 
Q 1172 3844 1172 3481 
z
" transform="scale(0.015625)"/>
       </defs>
       <use xlink:href="#DejaVuSans-38"/>
       <use xlink:href="#DejaVuSans-30" x="63.623047"/>
      </g>
     </g>
    </g>
    <g id="xtick_6">
     <g id="line2d_6">
      <g>
       <use xlink:href="#mc4be3a8128" x="306.574199" y="259.2" style="stroke: #000000; stroke-width: 0.8"/>
      </g>
     </g>
     <g id="text_6">
      <!-- 100 -->
      <g transform="translate(297.030449 273.798437) scale(0.1 -0.1)">
       <defs>
        <path id="DejaVuSans-31" d="M 794 531 
L 1825 531 
L 1825 4091 
L 703 3866 
L 703 4441 
L 1819 4666 
L 2450 4666 
L 2450 531 
L 3481 531 
L 3481 0 
L 794 0 
L 794 531 
z
" transform="scale(0.015625)"/>
       </defs>
       <use xlink:href="#DejaVuSans-31"/>
       <use xlink:href="#DejaVuSans-30" x="63.623047"/>
       <use xlink:href="#DejaVuSans-30" x="127.246094"/>
      </g>
     </g>
    </g>
    <g id="xtick_7">
     <g id="line2d_7">
      <g>
       <use xlink:href="#mc4be3a8128" x="358.640315" y="259.2" style="stroke: #000000; stroke-width: 0.8"/>
      </g>
     </g>
     <g id="text_7">
      <!-- 120 -->
      <g transform="translate(349.096565 273.798437) scale(0.1 -0.1)">
       <use xlink:href="#DejaVuSans-31"/>
       <use xlink:href="#DejaVuSans-32" x="63.623047"/>
       <use xlink:href="#DejaVuSans-30" x="127.246094"/>
      </g>
     </g>
    </g>
   </g>
   <g id="matplotlib.axis_2">
    <g id="ytick_1">
     <g id="line2d_8">
      <defs>
       <path id="m81066bec42" d="M 0 0 
L -3.5 0 
" style="stroke: #000000; stroke-width: 0.8"/>
      </defs>
      <g>
       <use xlink:href="#m81066bec42" x="30.103125" y="246.626179" style="stroke: #000000; stroke-width: 0.8"/>
      </g>
     </g>
     <g id="text_8">
      <!-- 0.5 -->
      <g transform="translate(7.2 250.425398) scale(0.1 -0.1)">
       <defs>
        <path id="DejaVuSans-2e" d="M 684 794 
L 1344 794 
L 1344 0 
L 684 0 
L 684 794 
z
" transform="scale(0.015625)"/>
        <path id="DejaVuSans-35" d="M 691 4666 
L 3169 4666 
L 3169 4134 
L 1269 4134 
L 1269 2991 
Q 1406 3038 1543 3061 
Q 1681 3084 1819 3084 
Q 2600 3084 3056 2656 
Q 3513 2228 3513 1497 
Q 3513 744 3044 326 
Q 2575 -91 1722 -91 
Q 1428 -91 1123 -41 
Q 819 9 494 109 
L 494 744 
Q 775 591 1075 516 
Q 1375 441 1709 441 
Q 2250 441 2565 725 
Q 2881 1009 2881 1497 
Q 2881 1984 2565 2268 
Q 2250 2553 1709 2553 
Q 1456 2553 1204 2497 
Q 953 2441 691 2322 
L 691 4666 
z
" transform="scale(0.015625)"/>
       </defs>
       <use xlink:href="#DejaVuSans-30"/>
       <use xlink:href="#DejaVuSans-2e" x="63.623047"/>
       <use xlink:href="#DejaVuSans-35" x="95.410156"/>
      </g>
     </g>
    </g>
    <g id="ytick_2">
     <g id="line2d_9">
      <g>
       <use xlink:href="#m81066bec42" x="30.103125" y="211.849063" style="stroke: #000000; stroke-width: 0.8"/>
      </g>
     </g>
     <g id="text_9">
      <!-- 1.0 -->
      <g transform="translate(7.2 215.648282) scale(0.1 -0.1)">
       <use xlink:href="#DejaVuSans-31"/>
       <use xlink:href="#DejaVuSans-2e" x="63.623047"/>
       <use xlink:href="#DejaVuSans-30" x="95.410156"/>
      </g>
     </g>
    </g>
    <g id="ytick_3">
     <g id="line2d_10">
      <g>
       <use xlink:href="#m81066bec42" x="30.103125" y="177.071947" style="stroke: #000000; stroke-width: 0.8"/>
      </g>
     </g>
     <g id="text_10">
      <!-- 1.5 -->
      <g transform="translate(7.2 180.871166) scale(0.1 -0.1)">
       <use xlink:href="#DejaVuSans-31"/>
       <use xlink:href="#DejaVuSans-2e" x="63.623047"/>
       <use xlink:href="#DejaVuSans-35" x="95.410156"/>
      </g>
     </g>
    </g>
    <g id="ytick_4">
     <g id="line2d_11">
      <g>
       <use xlink:href="#m81066bec42" x="30.103125" y="142.294832" style="stroke: #000000; stroke-width: 0.8"/>
      </g>
     </g>
     <g id="text_11">
      <!-- 2.0 -->
      <g transform="translate(7.2 146.09405) scale(0.1 -0.1)">
       <use xlink:href="#DejaVuSans-32"/>
       <use xlink:href="#DejaVuSans-2e" x="63.623047"/>
       <use xlink:href="#DejaVuSans-30" x="95.410156"/>
      </g>
     </g>
    </g>
    <g id="ytick_5">
     <g id="line2d_12">
      <g>
       <use xlink:href="#m81066bec42" x="30.103125" y="107.517716" style="stroke: #000000; stroke-width: 0.8"/>
      </g>
     </g>
     <g id="text_12">
      <!-- 2.5 -->
      <g transform="translate(7.2 111.316934) scale(0.1 -0.1)">
       <use xlink:href="#DejaVuSans-32"/>
       <use xlink:href="#DejaVuSans-2e" x="63.623047"/>
       <use xlink:href="#DejaVuSans-35" x="95.410156"/>
      </g>
     </g>
    </g>
    <g id="ytick_6">
     <g id="line2d_13">
      <g>
       <use xlink:href="#m81066bec42" x="30.103125" y="72.7406" style="stroke: #000000; stroke-width: 0.8"/>
      </g>
     </g>
     <g id="text_13">
      <!-- 3.0 -->
      <g transform="translate(7.2 76.539818) scale(0.1 -0.1)">
       <defs>
        <path id="DejaVuSans-33" d="M 2597 2516 
Q 3050 2419 3304 2112 
Q 3559 1806 3559 1356 
Q 3559 666 3084 287 
Q 2609 -91 1734 -91 
Q 1441 -91 1130 -33 
Q 819 25 488 141 
L 488 750 
Q 750 597 1062 519 
Q 1375 441 1716 441 
Q 2309 441 2620 675 
Q 2931 909 2931 1356 
Q 2931 1769 2642 2001 
Q 2353 2234 1838 2234 
L 1294 2234 
L 1294 2753 
L 1863 2753 
Q 2328 2753 2575 2939 
Q 2822 3125 2822 3475 
Q 2822 3834 2567 4026 
Q 2313 4219 1838 4219 
Q 1578 4219 1281 4162 
Q 984 4106 628 3988 
L 628 4550 
Q 988 4650 1302 4700 
Q 1616 4750 1894 4750 
Q 2613 4750 3031 4423 
Q 3450 4097 3450 3541 
Q 3450 3153 3228 2886 
Q 3006 2619 2597 2516 
z
" transform="scale(0.015625)"/>
       </defs>
       <use xlink:href="#DejaVuSans-33"/>
       <use xlink:href="#DejaVuSans-2e" x="63.623047"/>
       <use xlink:href="#DejaVuSans-30" x="95.410156"/>
      </g>
     </g>
    </g>
    <g id="ytick_7">
     <g id="line2d_14">
      <g>
       <use xlink:href="#m81066bec42" x="30.103125" y="37.963484" style="stroke: #000000; stroke-width: 0.8"/>
      </g>
     </g>
     <g id="text_14">
      <!-- 3.5 -->
      <g transform="translate(7.2 41.762702) scale(0.1 -0.1)">
       <use xlink:href="#DejaVuSans-33"/>
       <use xlink:href="#DejaVuSans-2e" x="63.623047"/>
       <use xlink:href="#DejaVuSans-35" x="95.410156"/>
      </g>
     </g>
    </g>
   </g>
   <g id="line2d_15">
    <path d="M 46.243621 18.654545 
L 48.846927 24.156925 
L 51.450232 29.492611 
L 54.053538 37.769462 
L 56.656844 48.941543 
L 59.26015 62.147333 
L 61.863456 75.169415 
L 64.466761 87.752678 
L 67.070067 98.773953 
L 69.673373 109.082688 
L 72.276679 118.014022 
L 74.879985 126.4904 
L 77.48329 133.467192 
L 80.086596 139.7866 
L 82.689902 145.603376 
L 85.293208 151.062383 
L 87.896513 156.148942 
L 90.499819 160.58956 
L 93.103125 164.548806 
L 95.706431 168.309139 
L 98.309737 171.757048 
L 100.913042 174.932613 
L 103.516348 178.176095 
L 106.119654 181.022031 
L 108.72296 183.562343 
L 111.326265 185.794277 
L 113.929571 188.70822 
L 116.532877 190.44894 
L 119.136183 192.691056 
L 121.739489 194.600118 
L 124.342794 196.631364 
L 126.9461 198.418375 
L 129.549406 199.936061 
L 132.152712 201.543155 
L 134.756018 203.023812 
L 137.359323 204.347891 
L 139.962629 205.884167 
L 142.565935 207.402078 
L 145.169241 208.333181 
L 147.772546 209.416832 
L 150.375852 210.625999 
L 152.979158 212.236563 
L 155.582464 212.626923 
L 158.18577 213.770522 
L 160.789075 214.774342 
L 163.392381 215.628811 
L 165.995687 216.698179 
L 168.598993 217.722061 
L 171.202299 218.302151 
L 173.805604 219.290371 
L 176.40891 219.828133 
L 179.012216 220.874418 
L 181.615522 221.342831 
L 184.218827 222.04746 
L 186.822133 222.95526 
L 189.425439 223.358489 
L 192.028745 224.282631 
L 194.632051 224.902301 
L 197.235356 225.084255 
L 199.838662 225.81596 
L 202.441968 226.365434 
L 205.045274 226.923809 
L 207.64858 227.450834 
L 210.251885 227.781732 
L 212.855191 228.702131 
L 215.458497 228.980485 
L 218.061803 229.314587 
L 220.665108 229.704968 
L 223.268414 230.224013 
L 225.87172 230.727345 
L 228.475026 231.393626 
L 231.078332 231.728346 
L 233.681637 231.909934 
L 236.284943 232.405401 
L 238.888249 232.857699 
L 241.491555 233.308724 
L 244.094861 233.509582 
L 246.698166 233.92065 
L 249.301472 234.219207 
L 251.904778 234.547542 
L 254.508084 234.903099 
L 257.111389 235.26283 
L 259.714695 235.342408 
L 262.318001 235.879868 
L 264.921307 236.286558 
L 267.524613 236.743681 
L 270.127918 236.901141 
L 272.731224 237.171718 
L 275.33453 237.354148 
L 277.937836 237.733912 
L 280.541142 238.062023 
L 283.144447 238.187872 
L 285.747753 238.398845 
L 288.351059 238.879023 
L 290.954365 238.998645 
L 293.55767 239.192235 
L 296.160976 239.492251 
L 298.764282 239.830308 
L 301.367588 240.068407 
L 303.970894 240.260621 
L 306.574199 240.486971 
L 309.177505 240.730099 
L 311.780811 240.761698 
L 314.384117 241.125682 
L 316.987423 241.350872 
L 319.590728 241.675791 
L 322.194034 241.628476 
L 324.79734 241.811216 
L 327.400646 242.329672 
L 330.003951 242.651034 
L 332.607257 242.6298 
L 335.210563 242.661162 
L 337.813869 243.132572 
L 340.417175 243.26966 
L 343.02048 243.574062 
L 345.623786 243.542807 
L 348.227092 243.893754 
L 350.830398 244.033922 
L 353.433704 244.378919 
L 356.037009 244.569155 
L 358.640315 244.406845 
L 361.243621 244.461129 
L 363.846927 244.948438 
L 366.450232 245.039197 
L 369.053538 245.237986 
" clip-path="url(#p4b4db0e9bd)" style="fill: none; stroke: #1f77b4; stroke-width: 1.5; stroke-linecap: square"/>
   </g>
   <g id="line2d_16">
    <path d="M 46.243621 24.407262 
L 48.846927 29.752235 
L 51.450232 38.186923 
L 54.053538 50.638832 
L 56.656844 66.477209 
L 59.26015 84.956747 
L 61.863456 101.829408 
L 64.466761 116.61478 
L 67.070067 129.352148 
L 69.673373 140.274572 
L 72.276679 149.463257 
L 74.879985 158.229382 
L 77.48329 164.849921 
L 80.086596 171.047742 
L 82.689902 176.511027 
L 85.293208 181.014229 
L 87.896513 185.409285 
L 90.499819 189.129313 
L 93.103125 192.583722 
L 95.706431 195.494987 
L 98.309737 198.313579 
L 100.913042 200.852323 
L 103.516348 203.628885 
L 106.119654 205.723644 
L 108.72296 207.738671 
L 111.326265 209.854541 
L 113.929571 211.635283 
L 116.532877 213.300982 
L 119.136183 214.687795 
L 121.739489 216.322673 
L 124.342794 217.646388 
L 126.9461 218.829263 
L 129.549406 220.184992 
L 132.152712 221.255915 
L 134.756018 222.289771 
L 137.359323 223.334883 
L 139.962629 224.552275 
L 142.565935 225.265254 
L 145.169241 226.249121 
L 147.772546 227.007292 
L 150.375852 227.846269 
L 152.979158 228.636968 
L 155.582464 229.260112 
L 158.18577 229.942159 
L 160.789075 230.545607 
L 163.392381 231.262189 
L 165.995687 231.818209 
L 168.598993 232.478466 
L 171.202299 232.887549 
L 173.805604 233.288174 
L 176.40891 233.888558 
L 179.012216 234.528219 
L 181.615522 234.842264 
L 184.218827 235.263211 
L 186.822133 235.605402 
L 189.425439 235.74882 
L 192.028745 236.488402 
L 194.632051 236.746285 
L 197.235356 236.976005 
L 199.838662 237.646216 
L 202.441968 237.738903 
L 205.045274 238.082864 
L 207.64858 238.297759 
L 210.251885 238.689823 
L 212.855191 239.051354 
L 215.458497 239.186435 
L 218.061803 239.33028 
L 220.665108 239.910831 
L 223.268414 240.149009 
L 225.87172 240.373041 
L 228.475026 240.488588 
L 231.078332 240.841234 
L 233.681637 240.914365 
L 236.284943 240.977617 
L 238.888249 241.349358 
L 241.491555 241.672234 
L 244.094861 241.948992 
L 246.698166 241.947769 
L 249.301472 242.357391 
L 251.904778 242.617586 
L 254.508084 242.6371 
L 257.111389 242.795485 
L 259.714695 242.918411 
L 262.318001 243.200575 
L 264.921307 243.247758 
L 267.524613 243.621187 
L 270.127918 243.465174 
L 272.731224 243.982357 
L 275.33453 243.835841 
L 277.937836 243.963659 
L 280.541142 244.002074 
L 283.144447 244.366589 
L 285.747753 244.493213 
L 288.351059 244.644156 
L 290.954365 244.761365 
L 293.55767 244.842547 
L 296.160976 244.937928 
L 298.764282 245.057189 
L 301.367588 245.207796 
L 303.970894 245.290036 
L 306.574199 245.096209 
L 309.177505 245.581549 
L 311.780811 245.626439 
L 314.384117 245.861669 
L 316.987423 245.963899 
L 319.590728 245.947668 
L 322.194034 246.094735 
L 324.79734 246.204063 
L 327.400646 246.259006 
L 330.003951 246.397471 
L 332.607257 246.597839 
L 335.210563 246.482284 
L 337.813869 246.753661 
L 340.417175 246.792623 
L 343.02048 246.957195 
L 345.623786 247.063766 
L 348.227092 247.160779 
L 350.830398 247.228769 
L 353.433704 247.300532 
L 356.037009 247.297868 
L 358.640315 247.338884 
L 361.243621 247.448596 
L 363.846927 247.555005 
L 366.450232 247.615274 
L 369.053538 247.745455 
" clip-path="url(#p4b4db0e9bd)" style="fill: none; stroke: #ff7f0e; stroke-width: 1.5; stroke-linecap: square"/>
   </g>
   <g id="patch_3">
    <path d="M 30.103125 259.2 
L 30.103125 7.2 
" style="fill: none; stroke: #000000; stroke-width: 0.8; stroke-linejoin: miter; stroke-linecap: square"/>
   </g>
   <g id="patch_4">
    <path d="M 385.194034 259.2 
L 385.194034 7.2 
" style="fill: none; stroke: #000000; stroke-width: 0.8; stroke-linejoin: miter; stroke-linecap: square"/>
   </g>
   <g id="patch_5">
    <path d="M 30.103125 259.2 
L 385.194034 259.2 
" style="fill: none; stroke: #000000; stroke-width: 0.8; stroke-linejoin: miter; stroke-linecap: square"/>
   </g>
   <g id="patch_6">
    <path d="M 30.103125 7.2 
L 385.194034 7.2 
" style="fill: none; stroke: #000000; stroke-width: 0.8; stroke-linejoin: miter; stroke-linecap: square"/>
   </g>
   <g id="legend_1">
    <g id="patch_7">
     <path d="M 298.603409 45.1125 
L 378.194034 45.1125 
Q 380.194034 45.1125 380.194034 43.1125 
L 380.194034 14.2 
Q 380.194034 12.2 378.194034 12.2 
L 298.603409 12.2 
Q 296.603409 12.2 296.603409 14.2 
L 296.603409 43.1125 
Q 296.603409 45.1125 298.603409 45.1125 
z
" style="fill: #ffffff; opacity: 0.8; stroke: #cccccc; stroke-linejoin: miter"/>
    </g>
    <g id="line2d_17">
     <path d="M 300.603409 20.298437 
L 310.603409 20.298437 
L 320.603409 20.298437 
" style="fill: none; stroke: #1f77b4; stroke-width: 1.5; stroke-linecap: square"/>
    </g>
    <g id="text_15">
     <!-- train_loss -->
     <g transform="translate(328.603409 23.798437) scale(0.1 -0.1)">
      <defs>
       <path id="DejaVuSans-74" d="M 1172 4494 
L 1172 3500 
L 2356 3500 
L 2356 3053 
L 1172 3053 
L 1172 1153 
Q 1172 725 1289 603 
Q 1406 481 1766 481 
L 2356 481 
L 2356 0 
L 1766 0 
Q 1100 0 847 248 
Q 594 497 594 1153 
L 594 3053 
L 172 3053 
L 172 3500 
L 594 3500 
L 594 4494 
L 1172 4494 
z
" transform="scale(0.015625)"/>
       <path id="DejaVuSans-72" d="M 2631 2963 
Q 2534 3019 2420 3045 
Q 2306 3072 2169 3072 
Q 1681 3072 1420 2755 
Q 1159 2438 1159 1844 
L 1159 0 
L 581 0 
L 581 3500 
L 1159 3500 
L 1159 2956 
Q 1341 3275 1631 3429 
Q 1922 3584 2338 3584 
Q 2397 3584 2469 3576 
Q 2541 3569 2628 3553 
L 2631 2963 
z
" transform="scale(0.015625)"/>
       <path id="DejaVuSans-61" d="M 2194 1759 
Q 1497 1759 1228 1600 
Q 959 1441 959 1056 
Q 959 750 1161 570 
Q 1363 391 1709 391 
Q 2188 391 2477 730 
Q 2766 1069 2766 1631 
L 2766 1759 
L 2194 1759 
z
M 3341 1997 
L 3341 0 
L 2766 0 
L 2766 531 
Q 2569 213 2275 61 
Q 1981 -91 1556 -91 
Q 1019 -91 701 211 
Q 384 513 384 1019 
Q 384 1609 779 1909 
Q 1175 2209 1959 2209 
L 2766 2209 
L 2766 2266 
Q 2766 2663 2505 2880 
Q 2244 3097 1772 3097 
Q 1472 3097 1187 3025 
Q 903 2953 641 2809 
L 641 3341 
Q 956 3463 1253 3523 
Q 1550 3584 1831 3584 
Q 2591 3584 2966 3190 
Q 3341 2797 3341 1997 
z
" transform="scale(0.015625)"/>
       <path id="DejaVuSans-69" d="M 603 3500 
L 1178 3500 
L 1178 0 
L 603 0 
L 603 3500 
z
M 603 4863 
L 1178 4863 
L 1178 4134 
L 603 4134 
L 603 4863 
z
" transform="scale(0.015625)"/>
       <path id="DejaVuSans-6e" d="M 3513 2113 
L 3513 0 
L 2938 0 
L 2938 2094 
Q 2938 2591 2744 2837 
Q 2550 3084 2163 3084 
Q 1697 3084 1428 2787 
Q 1159 2491 1159 1978 
L 1159 0 
L 581 0 
L 581 3500 
L 1159 3500 
L 1159 2956 
Q 1366 3272 1645 3428 
Q 1925 3584 2291 3584 
Q 2894 3584 3203 3211 
Q 3513 2838 3513 2113 
z
" transform="scale(0.015625)"/>
       <path id="DejaVuSans-5f" d="M 3263 -1063 
L 3263 -1509 
L -63 -1509 
L -63 -1063 
L 3263 -1063 
z
" transform="scale(0.015625)"/>
       <path id="DejaVuSans-6c" d="M 603 4863 
L 1178 4863 
L 1178 0 
L 603 0 
L 603 4863 
z
" transform="scale(0.015625)"/>
       <path id="DejaVuSans-6f" d="M 1959 3097 
Q 1497 3097 1228 2736 
Q 959 2375 959 1747 
Q 959 1119 1226 758 
Q 1494 397 1959 397 
Q 2419 397 2687 759 
Q 2956 1122 2956 1747 
Q 2956 2369 2687 2733 
Q 2419 3097 1959 3097 
z
M 1959 3584 
Q 2709 3584 3137 3096 
Q 3566 2609 3566 1747 
Q 3566 888 3137 398 
Q 2709 -91 1959 -91 
Q 1206 -91 779 398 
Q 353 888 353 1747 
Q 353 2609 779 3096 
Q 1206 3584 1959 3584 
z
" transform="scale(0.015625)"/>
       <path id="DejaVuSans-73" d="M 2834 3397 
L 2834 2853 
Q 2591 2978 2328 3040 
Q 2066 3103 1784 3103 
Q 1356 3103 1142 2972 
Q 928 2841 928 2578 
Q 928 2378 1081 2264 
Q 1234 2150 1697 2047 
L 1894 2003 
Q 2506 1872 2764 1633 
Q 3022 1394 3022 966 
Q 3022 478 2636 193 
Q 2250 -91 1575 -91 
Q 1294 -91 989 -36 
Q 684 19 347 128 
L 347 722 
Q 666 556 975 473 
Q 1284 391 1588 391 
Q 1994 391 2212 530 
Q 2431 669 2431 922 
Q 2431 1156 2273 1281 
Q 2116 1406 1581 1522 
L 1381 1569 
Q 847 1681 609 1914 
Q 372 2147 372 2553 
Q 372 3047 722 3315 
Q 1072 3584 1716 3584 
Q 2034 3584 2315 3537 
Q 2597 3491 2834 3397 
z
" transform="scale(0.015625)"/>
      </defs>
      <use xlink:href="#DejaVuSans-74"/>
      <use xlink:href="#DejaVuSans-72" x="39.208984"/>
      <use xlink:href="#DejaVuSans-61" x="80.322266"/>
      <use xlink:href="#DejaVuSans-69" x="141.601562"/>
      <use xlink:href="#DejaVuSans-6e" x="169.384766"/>
      <use xlink:href="#DejaVuSans-5f" x="232.763672"/>
      <use xlink:href="#DejaVuSans-6c" x="282.763672"/>
      <use xlink:href="#DejaVuSans-6f" x="310.546875"/>
      <use xlink:href="#DejaVuSans-73" x="371.728516"/>
      <use xlink:href="#DejaVuSans-73" x="423.828125"/>
     </g>
    </g>
    <g id="line2d_18">
     <path d="M 300.603409 35.254687 
L 310.603409 35.254687 
L 320.603409 35.254687 
" style="fill: none; stroke: #ff7f0e; stroke-width: 1.5; stroke-linecap: square"/>
    </g>
    <g id="text_16">
     <!-- val_loss -->
     <g transform="translate(328.603409 38.754687) scale(0.1 -0.1)">
      <defs>
       <path id="DejaVuSans-76" d="M 191 3500 
L 800 3500 
L 1894 563 
L 2988 3500 
L 3597 3500 
L 2284 0 
L 1503 0 
L 191 3500 
z
" transform="scale(0.015625)"/>
      </defs>
      <use xlink:href="#DejaVuSans-76"/>
      <use xlink:href="#DejaVuSans-61" x="59.179688"/>
      <use xlink:href="#DejaVuSans-6c" x="120.458984"/>
      <use xlink:href="#DejaVuSans-5f" x="148.242188"/>
      <use xlink:href="#DejaVuSans-6c" x="198.242188"/>
      <use xlink:href="#DejaVuSans-6f" x="226.025391"/>
      <use xlink:href="#DejaVuSans-73" x="287.207031"/>
      <use xlink:href="#DejaVuSans-73" x="339.306641"/>
     </g>
    </g>
   </g>
  </g>
  <g id="axes_2">
   <g id="patch_8">
    <path d="M 456.212216 259.2 
L 811.303125 259.2 
L 811.303125 7.2 
L 456.212216 7.2 
z
" style="fill: #ffffff"/>
   </g>
   <g id="matplotlib.axis_3">
    <g id="xtick_8">
     <g id="line2d_19">
      <g>
       <use xlink:href="#mc4be3a8128" x="472.352712" y="259.2" style="stroke: #000000; stroke-width: 0.8"/>
      </g>
     </g>
     <g id="text_17">
      <!-- 0 -->
      <g transform="translate(469.171462 273.798437) scale(0.1 -0.1)">
       <use xlink:href="#DejaVuSans-30"/>
      </g>
     </g>
    </g>
    <g id="xtick_9">
     <g id="line2d_20">
      <g>
       <use xlink:href="#mc4be3a8128" x="524.418827" y="259.2" style="stroke: #000000; stroke-width: 0.8"/>
      </g>
     </g>
     <g id="text_18">
      <!-- 20 -->
      <g transform="translate(518.056327 273.798437) scale(0.1 -0.1)">
       <use xlink:href="#DejaVuSans-32"/>
       <use xlink:href="#DejaVuSans-30" x="63.623047"/>
      </g>
     </g>
    </g>
    <g id="xtick_10">
     <g id="line2d_21">
      <g>
       <use xlink:href="#mc4be3a8128" x="576.484943" y="259.2" style="stroke: #000000; stroke-width: 0.8"/>
      </g>
     </g>
     <g id="text_19">
      <!-- 40 -->
      <g transform="translate(570.122443 273.798437) scale(0.1 -0.1)">
       <use xlink:href="#DejaVuSans-34"/>
       <use xlink:href="#DejaVuSans-30" x="63.623047"/>
      </g>
     </g>
    </g>
    <g id="xtick_11">
     <g id="line2d_22">
      <g>
       <use xlink:href="#mc4be3a8128" x="628.551059" y="259.2" style="stroke: #000000; stroke-width: 0.8"/>
      </g>
     </g>
     <g id="text_20">
      <!-- 60 -->
      <g transform="translate(622.188559 273.798437) scale(0.1 -0.1)">
       <use xlink:href="#DejaVuSans-36"/>
       <use xlink:href="#DejaVuSans-30" x="63.623047"/>
      </g>
     </g>
    </g>
    <g id="xtick_12">
     <g id="line2d_23">
      <g>
       <use xlink:href="#mc4be3a8128" x="680.617175" y="259.2" style="stroke: #000000; stroke-width: 0.8"/>
      </g>
     </g>
     <g id="text_21">
      <!-- 80 -->
      <g transform="translate(674.254675 273.798437) scale(0.1 -0.1)">
       <use xlink:href="#DejaVuSans-38"/>
       <use xlink:href="#DejaVuSans-30" x="63.623047"/>
      </g>
     </g>
    </g>
    <g id="xtick_13">
     <g id="line2d_24">
      <g>
       <use xlink:href="#mc4be3a8128" x="732.68329" y="259.2" style="stroke: #000000; stroke-width: 0.8"/>
      </g>
     </g>
     <g id="text_22">
      <!-- 100 -->
      <g transform="translate(723.13954 273.798437) scale(0.1 -0.1)">
       <use xlink:href="#DejaVuSans-31"/>
       <use xlink:href="#DejaVuSans-30" x="63.623047"/>
       <use xlink:href="#DejaVuSans-30" x="127.246094"/>
      </g>
     </g>
    </g>
    <g id="xtick_14">
     <g id="line2d_25">
      <g>
       <use xlink:href="#mc4be3a8128" x="784.749406" y="259.2" style="stroke: #000000; stroke-width: 0.8"/>
      </g>
     </g>
     <g id="text_23">
      <!-- 120 -->
      <g transform="translate(775.205656 273.798437) scale(0.1 -0.1)">
       <use xlink:href="#DejaVuSans-31"/>
       <use xlink:href="#DejaVuSans-32" x="63.623047"/>
       <use xlink:href="#DejaVuSans-30" x="127.246094"/>
      </g>
     </g>
    </g>
   </g>
   <g id="matplotlib.axis_4">
    <g id="ytick_8">
     <g id="line2d_26">
      <g>
       <use xlink:href="#m81066bec42" x="456.212216" y="255.684903" style="stroke: #000000; stroke-width: 0.8"/>
      </g>
     </g>
     <g id="text_24">
      <!-- 0.0 -->
      <g transform="translate(433.309091 259.484121) scale(0.1 -0.1)">
       <use xlink:href="#DejaVuSans-30"/>
       <use xlink:href="#DejaVuSans-2e" x="63.623047"/>
       <use xlink:href="#DejaVuSans-30" x="95.410156"/>
      </g>
     </g>
    </g>
    <g id="ytick_9">
     <g id="line2d_27">
      <g>
       <use xlink:href="#m81066bec42" x="456.212216" y="201.686103" style="stroke: #000000; stroke-width: 0.8"/>
      </g>
     </g>
     <g id="text_25">
      <!-- 0.2 -->
      <g transform="translate(433.309091 205.485321) scale(0.1 -0.1)">
       <use xlink:href="#DejaVuSans-30"/>
       <use xlink:href="#DejaVuSans-2e" x="63.623047"/>
       <use xlink:href="#DejaVuSans-32" x="95.410156"/>
      </g>
     </g>
    </g>
    <g id="ytick_10">
     <g id="line2d_28">
      <g>
       <use xlink:href="#m81066bec42" x="456.212216" y="147.687303" style="stroke: #000000; stroke-width: 0.8"/>
      </g>
     </g>
     <g id="text_26">
      <!-- 0.4 -->
      <g transform="translate(433.309091 151.486521) scale(0.1 -0.1)">
       <use xlink:href="#DejaVuSans-30"/>
       <use xlink:href="#DejaVuSans-2e" x="63.623047"/>
       <use xlink:href="#DejaVuSans-34" x="95.410156"/>
      </g>
     </g>
    </g>
    <g id="ytick_11">
     <g id="line2d_29">
      <g>
       <use xlink:href="#m81066bec42" x="456.212216" y="93.688502" style="stroke: #000000; stroke-width: 0.8"/>
      </g>
     </g>
     <g id="text_27">
      <!-- 0.6 -->
      <g transform="translate(433.309091 97.487721) scale(0.1 -0.1)">
       <use xlink:href="#DejaVuSans-30"/>
       <use xlink:href="#DejaVuSans-2e" x="63.623047"/>
       <use xlink:href="#DejaVuSans-36" x="95.410156"/>
      </g>
     </g>
    </g>
    <g id="ytick_12">
     <g id="line2d_30">
      <g>
       <use xlink:href="#m81066bec42" x="456.212216" y="39.689702" style="stroke: #000000; stroke-width: 0.8"/>
      </g>
     </g>
     <g id="text_28">
      <!-- 0.8 -->
      <g transform="translate(433.309091 43.488921) scale(0.1 -0.1)">
       <use xlink:href="#DejaVuSans-30"/>
       <use xlink:href="#DejaVuSans-2e" x="63.623047"/>
       <use xlink:href="#DejaVuSans-38" x="95.410156"/>
      </g>
     </g>
    </g>
   </g>
   <g id="line2d_31">
    <path d="M 472.352712 247.745455 
L 474.956018 242.31075 
L 477.559323 235.597293 
L 480.162629 227.465409 
L 482.765935 218.96418 
L 485.369241 208.700006 
L 487.972546 199.680444 
L 490.575852 190.359821 
L 493.179158 180.151517 
L 495.782464 170.054946 
L 498.38577 161.584748 
L 500.989075 152.732794 
L 503.592381 145.252703 
L 506.195687 138.53614 
L 508.798993 132.890381 
L 511.402299 126.797675 
L 514.005604 121.291587 
L 516.60891 116.064832 
L 519.212216 111.073974 
L 521.815522 107.067004 
L 524.418827 103.041414 
L 527.022133 99.0034 
L 529.625439 95.461998 
L 532.228745 92.140955 
L 534.832051 89.030986 
L 537.435356 87.04147 
L 540.038662 83.040695 
L 542.641968 81.032559 
L 545.245274 78.422292 
L 547.84858 75.892714 
L 550.451885 74.25082 
L 553.055191 72.366824 
L 555.658497 69.57033 
L 558.261803 68.462285 
L 560.865108 66.603121 
L 563.468414 65.597508 
L 566.07172 63.431067 
L 568.675026 61.987823 
L 571.278332 60.646995 
L 573.881637 59.051658 
L 576.484943 58.086374 
L 579.088249 56.264465 
L 581.691555 55.92925 
L 584.294861 54.715685 
L 586.898166 53.56419 
L 589.501472 53.191736 
L 592.104778 51.909872 
L 594.708084 49.954489 
L 597.311389 49.864481 
L 599.914695 48.973707 
L 602.518001 48.207074 
L 605.121307 47.167312 
L 607.724613 46.574482 
L 610.327918 45.736476 
L 612.931224 44.656353 
L 615.53453 44.54462 
L 618.137836 43.172749 
L 620.741142 42.551998 
L 623.344447 42.418539 
L 625.947753 42.092642 
L 628.551059 40.944253 
L 631.154365 40.506623 
L 633.75767 40.289353 
L 636.360976 39.367535 
L 638.964282 38.718847 
L 641.567588 38.439506 
L 644.170894 37.896339 
L 646.774199 37.734943 
L 649.377505 37.331462 
L 651.980811 36.90624 
L 654.584117 36.024767 
L 657.187423 35.214683 
L 659.790728 35.155719 
L 662.394034 34.966386 
L 664.99734 34.435642 
L 667.600646 34.109745 
L 670.203951 33.405182 
L 672.807257 33.343111 
L 675.410563 32.886862 
L 678.013869 32.337482 
L 680.617175 32.141954 
L 683.22048 31.884339 
L 685.823786 32.110911 
L 688.427092 31.123917 
L 691.030398 30.95631 
L 693.633704 30.375903 
L 696.237009 30.230021 
L 698.840315 29.683764 
L 701.443621 29.51305 
L 704.046927 29.323733 
L 706.650232 28.979201 
L 709.253538 28.851954 
L 711.856844 28.780566 
L 714.46015 27.439738 
L 717.063456 28.265336 
L 719.666761 27.843219 
L 722.270067 27.371456 
L 724.873373 27.371456 
L 727.476679 26.859332 
L 730.079985 26.496195 
L 732.68329 26.573779 
L 735.286596 25.797844 
L 737.889902 26.393764 
L 740.493208 26.136149 
L 743.096513 25.251571 
L 745.699819 24.975336 
L 748.303125 25.468841 
L 750.906431 25.304339 
L 753.509737 24.633926 
L 756.113042 24.844984 
L 758.716348 24.779808 
L 761.319654 24.258366 
L 763.92296 23.789708 
L 766.526265 23.802116 
L 769.129571 23.432768 
L 771.732877 23.308611 
L 774.336183 22.870981 
L 776.939489 23.060314 
L 779.542794 22.59164 
L 782.1461 22.486119 
L 784.749406 22.697178 
L 787.352712 22.62579 
L 789.956018 21.983313 
L 792.559323 21.734999 
L 795.162629 22.101242 
" clip-path="url(#pc8710ca17e)" style="fill: none; stroke: #1f77b4; stroke-width: 1.5; stroke-linecap: square"/>
   </g>
   <g id="line2d_32">
    <path d="M 472.352712 236.402672 
L 474.956018 219.92085 
L 477.559323 205.940166 
L 480.162629 192.344268 
L 482.765935 181.997702 
L 485.369241 168.658332 
L 487.972546 149.760887 
L 490.575852 134.60446 
L 493.179158 125.711542 
L 495.782464 117.823351 
L 498.38577 109.571766 
L 500.989075 103.308234 
L 503.592381 98.134963 
L 506.195687 91.999707 
L 508.798993 89.477194 
L 511.402299 86.249233 
L 514.005604 80.798054 
L 516.60891 77.313572 
L 519.212216 74.192499 
L 521.815522 71.712745 
L 524.418827 68.955082 
L 527.022133 66.710477 
L 529.625439 62.392286 
L 532.228745 61.77234 
L 534.832051 59.185712 
L 537.435356 56.278402 
L 540.038662 54.717874 
L 542.641968 53.242847 
L 545.245274 51.447153 
L 547.84858 49.523215 
L 550.451885 48.561246 
L 553.055191 47.449629 
L 555.658497 45.931844 
L 558.261803 44.542319 
L 560.865108 44.435446 
L 563.468414 42.746641 
L 566.07172 40.950964 
L 568.675026 40.651684 
L 571.278332 39.88209 
L 573.881637 39.369048 
L 576.484943 37.936764 
L 579.088249 37.380964 
L 581.691555 36.974795 
L 584.294861 36.119715 
L 586.898166 35.521156 
L 589.501472 34.687432 
L 592.104778 34.217133 
L 594.708084 33.340681 
L 597.311389 33.084145 
L 599.914695 32.763494 
L 602.518001 31.972528 
L 605.121307 31.929785 
L 607.724613 31.587747 
L 610.327918 31.267079 
L 612.931224 30.647149 
L 615.53453 30.583019 
L 618.137836 29.877571 
L 620.741142 29.727923 
L 623.344447 29.535532 
L 625.947753 28.765954 
L 628.551059 29.001103 
L 631.154365 27.996375 
L 633.75767 28.488045 
L 636.360976 27.761226 
L 638.964282 27.461946 
L 641.567588 27.184038 
L 644.170894 27.034406 
L 646.774199 26.628238 
L 649.377505 26.222069 
L 651.980811 26.24344 
L 654.584117 25.98692 
L 657.187423 25.75177 
L 659.790728 25.730399 
L 662.394034 25.68764 
L 664.99734 25.238713 
L 667.600646 25.217341 
L 670.203951 24.875303 
L 672.807257 25.024951 
L 675.410563 24.511893 
L 678.013869 24.084353 
L 680.617175 24.127096 
L 683.22048 23.913334 
L 685.823786 23.720943 
L 688.427092 23.528537 
L 691.030398 23.464406 
L 693.633704 23.378905 
L 696.237009 23.272016 
L 698.840315 22.438307 
L 701.443621 22.737587 
L 704.046927 22.823088 
L 706.650232 22.780346 
L 709.253538 22.502437 
L 711.856844 22.310047 
L 714.46015 21.861119 
L 717.063456 21.711472 
L 719.666761 21.711472 
L 722.270067 21.711472 
L 724.873373 21.583211 
L 727.476679 21.412192 
L 730.079985 21.49771 
L 732.68329 21.583211 
L 735.286596 21.155671 
L 737.889902 20.728131 
L 740.493208 20.492982 
L 743.096513 20.535741 
L 745.699819 20.706744 
L 748.303125 20.642614 
L 750.906431 20.001312 
L 753.509737 20.001312 
L 756.113042 20.236445 
L 758.716348 19.808905 
L 761.319654 19.851664 
L 763.92296 20.001312 
L 766.526265 19.424124 
L 769.129571 19.338606 
L 771.732877 19.210346 
L 774.336183 19.188974 
L 776.939489 19.381365 
L 779.542794 19.082085 
L 782.1461 19.466867 
L 784.749406 19.124844 
L 787.352712 18.911066 
L 789.956018 18.911066 
L 792.559323 18.782806 
L 795.162629 18.654545 
" clip-path="url(#pc8710ca17e)" style="fill: none; stroke: #ff7f0e; stroke-width: 1.5; stroke-linecap: square"/>
   </g>
   <g id="patch_9">
    <path d="M 456.212216 259.2 
L 456.212216 7.2 
" style="fill: none; stroke: #000000; stroke-width: 0.8; stroke-linejoin: miter; stroke-linecap: square"/>
   </g>
   <g id="patch_10">
    <path d="M 811.303125 259.2 
L 811.303125 7.2 
" style="fill: none; stroke: #000000; stroke-width: 0.8; stroke-linejoin: miter; stroke-linecap: square"/>
   </g>
   <g id="patch_11">
    <path d="M 456.212216 259.2 
L 811.303125 259.2 
" style="fill: none; stroke: #000000; stroke-width: 0.8; stroke-linejoin: miter; stroke-linecap: square"/>
   </g>
   <g id="patch_12">
    <path d="M 456.212216 7.2 
L 811.303125 7.2 
" style="fill: none; stroke: #000000; stroke-width: 0.8; stroke-linejoin: miter; stroke-linecap: square"/>
   </g>
   <g id="legend_2">
    <g id="patch_13">
     <path d="M 463.212216 45.1125 
L 540.612216 45.1125 
Q 542.612216 45.1125 542.612216 43.1125 
L 542.612216 14.2 
Q 542.612216 12.2 540.612216 12.2 
L 463.212216 12.2 
Q 461.212216 12.2 461.212216 14.2 
L 461.212216 43.1125 
Q 461.212216 45.1125 463.212216 45.1125 
z
" style="fill: #ffffff; opacity: 0.8; stroke: #cccccc; stroke-linejoin: miter"/>
    </g>
    <g id="line2d_33">
     <path d="M 465.212216 20.298437 
L 475.212216 20.298437 
L 485.212216 20.298437 
" style="fill: none; stroke: #1f77b4; stroke-width: 1.5; stroke-linecap: square"/>
    </g>
    <g id="text_29">
     <!-- train_acc -->
     <g transform="translate(493.212216 23.798437) scale(0.1 -0.1)">
      <defs>
       <path id="DejaVuSans-63" d="M 3122 3366 
L 3122 2828 
Q 2878 2963 2633 3030 
Q 2388 3097 2138 3097 
Q 1578 3097 1268 2742 
Q 959 2388 959 1747 
Q 959 1106 1268 751 
Q 1578 397 2138 397 
Q 2388 397 2633 464 
Q 2878 531 3122 666 
L 3122 134 
Q 2881 22 2623 -34 
Q 2366 -91 2075 -91 
Q 1284 -91 818 406 
Q 353 903 353 1747 
Q 353 2603 823 3093 
Q 1294 3584 2113 3584 
Q 2378 3584 2631 3529 
Q 2884 3475 3122 3366 
z
" transform="scale(0.015625)"/>
      </defs>
      <use xlink:href="#DejaVuSans-74"/>
      <use xlink:href="#DejaVuSans-72" x="39.208984"/>
      <use xlink:href="#DejaVuSans-61" x="80.322266"/>
      <use xlink:href="#DejaVuSans-69" x="141.601562"/>
      <use xlink:href="#DejaVuSans-6e" x="169.384766"/>
      <use xlink:href="#DejaVuSans-5f" x="232.763672"/>
      <use xlink:href="#DejaVuSans-61" x="282.763672"/>
      <use xlink:href="#DejaVuSans-63" x="344.042969"/>
      <use xlink:href="#DejaVuSans-63" x="399.023438"/>
     </g>
    </g>
    <g id="line2d_34">
     <path d="M 465.212216 35.254687 
L 475.212216 35.254687 
L 485.212216 35.254687 
" style="fill: none; stroke: #ff7f0e; stroke-width: 1.5; stroke-linecap: square"/>
    </g>
    <g id="text_30">
     <!-- val_acc -->
     <g transform="translate(493.212216 38.754687) scale(0.1 -0.1)">
      <use xlink:href="#DejaVuSans-76"/>
      <use xlink:href="#DejaVuSans-61" x="59.179688"/>
      <use xlink:href="#DejaVuSans-6c" x="120.458984"/>
      <use xlink:href="#DejaVuSans-5f" x="148.242188"/>
      <use xlink:href="#DejaVuSans-61" x="198.242188"/>
      <use xlink:href="#DejaVuSans-63" x="259.521484"/>
      <use xlink:href="#DejaVuSans-63" x="314.501953"/>
     </g>
    </g>
   </g>
  </g>
 </g>
 <defs>
  <clipPath id="p4b4db0e9bd">
   <rect x="30.103125" y="7.2" width="355.090909" height="252"/>
  </clipPath>
  <clipPath id="pc8710ca17e">
   <rect x="456.212216" y="7.2" width="355.090909" height="252"/>
  </clipPath>
 </defs>
</svg>
