<?xml version="1.0" encoding="utf-8" standalone="no"?>
<!DOCTYPE svg PUBLIC "-//W3C//DTD SVG 1.1//EN"
  "http://www.w3.org/Graphics/SVG/1.1/DTD/svg11.dtd">
<svg xmlns:xlink="http://www.w3.org/1999/xlink" width="818.503125pt" height="283.078125pt" viewBox="0 0 818.503125 283.078125" xmlns="http://www.w3.org/2000/svg" version="1.1">
 <metadata>
  <rdf:RDF xmlns:dc="http://purl.org/dc/elements/1.1/" xmlns:cc="http://creativecommons.org/ns#" xmlns:rdf="http://www.w3.org/1999/02/22-rdf-syntax-ns#">
   <cc:Work>
    <dc:type rdf:resource="http://purl.org/dc/dcmitype/StillImage"/>
    <dc:date>2023-01-25T17:17:23.224465</dc:date>
    <dc:format>image/svg+xml</dc:format>
    <dc:creator>
     <cc:Agent>
      <dc:title>Matplotlib v3.6.2, https://matplotlib.org/</dc:title>
     </cc:Agent>
    </dc:creator>
   </cc:Work>
  </rdf:RDF>
 </metadata>
 <defs>
  <style type="text/css">*{stroke-linejoin: round; stroke-linecap: butt}</style>
 </defs>
 <g id="figure_1">
  <g id="patch_1">
   <path d="M 0 283.078125 
L 818.503125 283.078125 
L 818.503125 0 
L 0 0 
z
" style="fill: #ffffff"/>
  </g>
  <g id="axes_1">
   <g id="patch_2">
    <path d="M 30.103125 259.2 
L 385.194034 259.2 
L 385.194034 7.2 
L 30.103125 7.2 
z
" style="fill: #ffffff"/>
   </g>
   <g id="matplotlib.axis_1">
    <g id="xtick_1">
     <g id="line2d_1">
      <defs>
       <path id="m7c2d72873f" d="M 0 0 
L 0 3.5 
" style="stroke: #000000; stroke-width: 0.8"/>
      </defs>
      <g>
       <use xlink:href="#m7c2d72873f" x="46.243621" y="259.2" style="stroke: #000000; stroke-width: 0.8"/>
      </g>
     </g>
     <g id="text_1">
      <!-- 0 -->
      <g transform="translate(43.062371 273.798437) scale(0.1 -0.1)">
       <defs>
        <path id="DejaVuSans-30" d="M 2034 4250 
Q 1547 4250 1301 3770 
Q 1056 3291 1056 2328 
Q 1056 1369 1301 889 
Q 1547 409 2034 409 
Q 2525 409 2770 889 
Q 3016 1369 3016 2328 
Q 3016 3291 2770 3770 
Q 2525 4250 2034 4250 
z
M 2034 4750 
Q 2819 4750 3233 4129 
Q 3647 3509 3647 2328 
Q 3647 1150 3233 529 
Q 2819 -91 2034 -91 
Q 1250 -91 836 529 
Q 422 1150 422 2328 
Q 422 3509 836 4129 
Q 1250 4750 2034 4750 
z
" transform="scale(0.015625)"/>
       </defs>
       <use xlink:href="#DejaVuSans-30"/>
      </g>
     </g>
    </g>
    <g id="xtick_2">
     <g id="line2d_2">
      <g>
       <use xlink:href="#m7c2d72873f" x="98.309737" y="259.2" style="stroke: #000000; stroke-width: 0.8"/>
      </g>
     </g>
     <g id="text_2">
      <!-- 20 -->
      <g transform="translate(91.947237 273.798437) scale(0.1 -0.1)">
       <defs>
        <path id="DejaVuSans-32" d="M 1228 531 
L 3431 531 
L 3431 0 
L 469 0 
L 469 531 
Q 828 903 1448 1529 
Q 2069 2156 2228 2338 
Q 2531 2678 2651 2914 
Q 2772 3150 2772 3378 
Q 2772 3750 2511 3984 
Q 2250 4219 1831 4219 
Q 1534 4219 1204 4116 
Q 875 4013 500 3803 
L 500 4441 
Q 881 4594 1212 4672 
Q 1544 4750 1819 4750 
Q 2544 4750 2975 4387 
Q 3406 4025 3406 3419 
Q 3406 3131 3298 2873 
Q 3191 2616 2906 2266 
Q 2828 2175 2409 1742 
Q 1991 1309 1228 531 
z
" transform="scale(0.015625)"/>
       </defs>
       <use xlink:href="#DejaVuSans-32"/>
       <use xlink:href="#DejaVuSans-30" x="63.623047"/>
      </g>
     </g>
    </g>
    <g id="xtick_3">
     <g id="line2d_3">
      <g>
       <use xlink:href="#m7c2d72873f" x="150.375852" y="259.2" style="stroke: #000000; stroke-width: 0.8"/>
      </g>
     </g>
     <g id="text_3">
      <!-- 40 -->
      <g transform="translate(144.013352 273.798437) scale(0.1 -0.1)">
       <defs>
        <path id="DejaVuSans-34" d="M 2419 4116 
L 825 1625 
L 2419 1625 
L 2419 4116 
z
M 2253 4666 
L 3047 4666 
L 3047 1625 
L 3713 1625 
L 3713 1100 
L 3047 1100 
L 3047 0 
L 2419 0 
L 2419 1100 
L 313 1100 
L 313 1709 
L 2253 4666 
z
" transform="scale(0.015625)"/>
       </defs>
       <use xlink:href="#DejaVuSans-34"/>
       <use xlink:href="#DejaVuSans-30" x="63.623047"/>
      </g>
     </g>
    </g>
    <g id="xtick_4">
     <g id="line2d_4">
      <g>
       <use xlink:href="#m7c2d72873f" x="202.441968" y="259.2" style="stroke: #000000; stroke-width: 0.8"/>
      </g>
     </g>
     <g id="text_4">
      <!-- 60 -->
      <g transform="translate(196.079468 273.798437) scale(0.1 -0.1)">
       <defs>
        <path id="DejaVuSans-36" d="M 2113 2584 
Q 1688 2584 1439 2293 
Q 1191 2003 1191 1497 
Q 1191 994 1439 701 
Q 1688 409 2113 409 
Q 2538 409 2786 701 
Q 3034 994 3034 1497 
Q 3034 2003 2786 2293 
Q 2538 2584 2113 2584 
z
M 3366 4563 
L 3366 3988 
Q 3128 4100 2886 4159 
Q 2644 4219 2406 4219 
Q 1781 4219 1451 3797 
Q 1122 3375 1075 2522 
Q 1259 2794 1537 2939 
Q 1816 3084 2150 3084 
Q 2853 3084 3261 2657 
Q 3669 2231 3669 1497 
Q 3669 778 3244 343 
Q 2819 -91 2113 -91 
Q 1303 -91 875 529 
Q 447 1150 447 2328 
Q 447 3434 972 4092 
Q 1497 4750 2381 4750 
Q 2619 4750 2861 4703 
Q 3103 4656 3366 4563 
z
" transform="scale(0.015625)"/>
       </defs>
       <use xlink:href="#DejaVuSans-36"/>
       <use xlink:href="#DejaVuSans-30" x="63.623047"/>
      </g>
     </g>
    </g>
    <g id="xtick_5">
     <g id="line2d_5">
      <g>
       <use xlink:href="#m7c2d72873f" x="254.508084" y="259.2" style="stroke: #000000; stroke-width: 0.8"/>
      </g>
     </g>
     <g id="text_5">
      <!-- 80 -->
      <g transform="translate(248.145584 273.798437) scale(0.1 -0.1)">
       <defs>
        <path id="DejaVuSans-38" d="M 2034 2216 
Q 1584 2216 1326 1975 
Q 1069 1734 1069 1313 
Q 1069 891 1326 650 
Q 1584 409 2034 409 
Q 2484 409 2743 651 
Q 3003 894 3003 1313 
Q 3003 1734 2745 1975 
Q 2488 2216 2034 2216 
z
M 1403 2484 
Q 997 2584 770 2862 
Q 544 3141 544 3541 
Q 544 4100 942 4425 
Q 1341 4750 2034 4750 
Q 2731 4750 3128 4425 
Q 3525 4100 3525 3541 
Q 3525 3141 3298 2862 
Q 3072 2584 2669 2484 
Q 3125 2378 3379 2068 
Q 3634 1759 3634 1313 
Q 3634 634 3220 271 
Q 2806 -91 2034 -91 
Q 1263 -91 848 271 
Q 434 634 434 1313 
Q 434 1759 690 2068 
Q 947 2378 1403 2484 
z
M 1172 3481 
Q 1172 3119 1398 2916 
Q 1625 2713 2034 2713 
Q 2441 2713 2670 2916 
Q 2900 3119 2900 3481 
Q 2900 3844 2670 4047 
Q 2441 4250 2034 4250 
Q 1625 4250 1398 4047 
Q 1172 3844 1172 3481 
z
" transform="scale(0.015625)"/>
       </defs>
       <use xlink:href="#DejaVuSans-38"/>
       <use xlink:href="#DejaVuSans-30" x="63.623047"/>
      </g>
     </g>
    </g>
    <g id="xtick_6">
     <g id="line2d_6">
      <g>
       <use xlink:href="#m7c2d72873f" x="306.574199" y="259.2" style="stroke: #000000; stroke-width: 0.8"/>
      </g>
     </g>
     <g id="text_6">
      <!-- 100 -->
      <g transform="translate(297.030449 273.798437) scale(0.1 -0.1)">
       <defs>
        <path id="DejaVuSans-31" d="M 794 531 
L 1825 531 
L 1825 4091 
L 703 3866 
L 703 4441 
L 1819 4666 
L 2450 4666 
L 2450 531 
L 3481 531 
L 3481 0 
L 794 0 
L 794 531 
z
" transform="scale(0.015625)"/>
       </defs>
       <use xlink:href="#DejaVuSans-31"/>
       <use xlink:href="#DejaVuSans-30" x="63.623047"/>
       <use xlink:href="#DejaVuSans-30" x="127.246094"/>
      </g>
     </g>
    </g>
    <g id="xtick_7">
     <g id="line2d_7">
      <g>
       <use xlink:href="#m7c2d72873f" x="358.640315" y="259.2" style="stroke: #000000; stroke-width: 0.8"/>
      </g>
     </g>
     <g id="text_7">
      <!-- 120 -->
      <g transform="translate(349.096565 273.798437) scale(0.1 -0.1)">
       <use xlink:href="#DejaVuSans-31"/>
       <use xlink:href="#DejaVuSans-32" x="63.623047"/>
       <use xlink:href="#DejaVuSans-30" x="127.246094"/>
      </g>
     </g>
    </g>
   </g>
   <g id="matplotlib.axis_2">
    <g id="ytick_1">
     <g id="line2d_8">
      <defs>
       <path id="ma80e03692c" d="M 0 0 
L -3.5 0 
" style="stroke: #000000; stroke-width: 0.8"/>
      </defs>
      <g>
       <use xlink:href="#ma80e03692c" x="30.103125" y="221.95412" style="stroke: #000000; stroke-width: 0.8"/>
      </g>
     </g>
     <g id="text_8">
      <!-- 0.4 -->
      <g transform="translate(7.2 225.753339) scale(0.1 -0.1)">
       <defs>
        <path id="DejaVuSans-2e" d="M 684 794 
L 1344 794 
L 1344 0 
L 684 0 
L 684 794 
z
" transform="scale(0.015625)"/>
       </defs>
       <use xlink:href="#DejaVuSans-30"/>
       <use xlink:href="#DejaVuSans-2e" x="63.623047"/>
       <use xlink:href="#DejaVuSans-34" x="95.410156"/>
      </g>
     </g>
    </g>
    <g id="ytick_2">
     <g id="line2d_9">
      <g>
       <use xlink:href="#ma80e03692c" x="30.103125" y="184.558296" style="stroke: #000000; stroke-width: 0.8"/>
      </g>
     </g>
     <g id="text_9">
      <!-- 0.6 -->
      <g transform="translate(7.2 188.357515) scale(0.1 -0.1)">
       <use xlink:href="#DejaVuSans-30"/>
       <use xlink:href="#DejaVuSans-2e" x="63.623047"/>
       <use xlink:href="#DejaVuSans-36" x="95.410156"/>
      </g>
     </g>
    </g>
    <g id="ytick_3">
     <g id="line2d_10">
      <g>
       <use xlink:href="#ma80e03692c" x="30.103125" y="147.162472" style="stroke: #000000; stroke-width: 0.8"/>
      </g>
     </g>
     <g id="text_10">
      <!-- 0.8 -->
      <g transform="translate(7.2 150.961691) scale(0.1 -0.1)">
       <use xlink:href="#DejaVuSans-30"/>
       <use xlink:href="#DejaVuSans-2e" x="63.623047"/>
       <use xlink:href="#DejaVuSans-38" x="95.410156"/>
      </g>
     </g>
    </g>
    <g id="ytick_4">
     <g id="line2d_11">
      <g>
       <use xlink:href="#ma80e03692c" x="30.103125" y="109.766648" style="stroke: #000000; stroke-width: 0.8"/>
      </g>
     </g>
     <g id="text_11">
      <!-- 1.0 -->
      <g transform="translate(7.2 113.565866) scale(0.1 -0.1)">
       <use xlink:href="#DejaVuSans-31"/>
       <use xlink:href="#DejaVuSans-2e" x="63.623047"/>
       <use xlink:href="#DejaVuSans-30" x="95.410156"/>
      </g>
     </g>
    </g>
    <g id="ytick_5">
     <g id="line2d_12">
      <g>
       <use xlink:href="#ma80e03692c" x="30.103125" y="72.370823" style="stroke: #000000; stroke-width: 0.8"/>
      </g>
     </g>
     <g id="text_12">
      <!-- 1.2 -->
      <g transform="translate(7.2 76.170042) scale(0.1 -0.1)">
       <use xlink:href="#DejaVuSans-31"/>
       <use xlink:href="#DejaVuSans-2e" x="63.623047"/>
       <use xlink:href="#DejaVuSans-32" x="95.410156"/>
      </g>
     </g>
    </g>
    <g id="ytick_6">
     <g id="line2d_13">
      <g>
       <use xlink:href="#ma80e03692c" x="30.103125" y="34.974999" style="stroke: #000000; stroke-width: 0.8"/>
      </g>
     </g>
     <g id="text_13">
      <!-- 1.4 -->
      <g transform="translate(7.2 38.774218) scale(0.1 -0.1)">
       <use xlink:href="#DejaVuSans-31"/>
       <use xlink:href="#DejaVuSans-2e" x="63.623047"/>
       <use xlink:href="#DejaVuSans-34" x="95.410156"/>
      </g>
     </g>
    </g>
   </g>
   <g id="line2d_14">
    <path d="M 46.243621 18.654545 
L 48.846927 186.150163 
L 51.450232 212.073308 
L 54.053538 223.803759 
L 56.656844 227.835148 
L 59.26015 231.29789 
L 61.863456 236.223991 
L 64.466761 238.749943 
L 67.070067 236.494437 
L 69.673373 240.519752 
L 72.276679 241.93928 
L 74.879985 241.847246 
L 77.48329 242.961539 
L 80.086596 241.922284 
L 82.689902 243.308589 
L 85.293208 245.438114 
L 87.896513 242.434695 
L 90.499819 242.292939 
L 93.103125 242.34737 
L 95.706431 245.728141 
L 98.309737 244.02865 
L 100.913042 246.491316 
L 103.516348 246.498605 
L 106.119654 244.264369 
L 108.72296 246.783322 
L 111.326265 244.184917 
L 113.929571 244.665772 
L 116.532877 246.066832 
L 119.136183 244.000292 
L 121.739489 246.542672 
L 124.342794 246.455007 
L 126.9461 246.107539 
L 129.549406 246.868039 
L 132.152712 246.956841 
L 134.756018 247.745455 
L 137.359323 246.39113 
L 139.962629 247.02702 
L 142.565935 244.680778 
L 145.169241 245.128003 
L 147.772546 246.236451 
L 150.375852 246.157468 
L 152.979158 245.903366 
L 155.582464 247.32384 
L 158.18577 244.889683 
L 160.789075 242.897712 
L 163.392381 243.753707 
L 165.995687 245.188353 
L 168.598993 245.721337 
L 171.202299 245.473019 
L 173.805604 247.113381 
L 176.40891 246.959828 
L 179.012216 246.305978 
L 181.615522 244.789808 
L 184.218827 243.170638 
L 186.822133 244.402013 
L 189.425439 244.249797 
L 192.028745 244.213275 
L 194.632051 244.498499 
L 197.235356 246.254751 
L 199.838662 244.860689 
L 202.441968 244.223774 
L 205.045274 245.515269 
L 207.64858 245.487641 
L 210.251885 244.060953 
L 212.855191 244.829907 
L 215.458497 244.115858 
L 218.061803 246.150474 
L 220.665108 246.996673 
L 223.268414 244.33077 
L 225.87172 246.960948 
L 228.475026 245.519371 
L 231.078332 244.08385 
L 233.681637 244.911944 
L 236.284943 244.48775 
L 238.888249 244.262251 
L 241.491555 245.175714 
L 244.094861 243.303507 
L 246.698166 245.777847 
L 249.301472 244.771631 
L 251.904778 245.289626 
L 254.508084 246.204504 
L 257.111389 245.460805 
L 259.714695 244.926455 
L 262.318001 245.854763 
L 264.921307 246.691071 
L 267.524613 244.561629 
L 270.127918 244.460713 
L 272.731224 245.328839 
L 275.33453 244.135501 
L 277.937836 244.349939 
L 280.541142 243.513481 
L 283.144447 244.440529 
L 285.747753 245.320502 
L 288.351059 244.845555 
L 290.954365 246.213353 
L 293.55767 244.193644 
L 296.160976 246.086191 
L 298.764282 245.009523 
L 301.367588 244.946839 
L 303.970894 245.440716 
L 306.574199 244.297887 
L 309.177505 243.116307 
L 311.780811 244.715712 
L 314.384117 243.780823 
L 316.987423 243.389316 
L 319.590728 245.953261 
L 322.194034 243.719593 
L 324.79734 245.128003 
L 327.400646 242.957443 
L 330.003951 243.359994 
L 332.607257 244.690346 
L 335.210563 243.560963 
L 337.813869 245.135047 
L 340.417175 243.170644 
L 343.02048 245.787872 
L 345.623786 244.222381 
L 348.227092 242.55263 
L 350.830398 243.282476 
L 353.433704 244.231564 
L 356.037009 240.883397 
L 358.640315 241.923449 
L 361.243621 243.105675 
L 363.846927 241.940522 
L 366.450232 242.321458 
L 369.053538 242.267244 
" clip-path="url(#ped3774dfde)" style="fill: none; stroke: #1f77b4; stroke-width: 1.5; stroke-linecap: square"/>
   </g>
   <g id="line2d_15">
    <path d="M 46.243621 159.370031 
L 48.846927 198.183931 
L 51.450232 204.668508 
L 54.053538 222.264898 
L 56.656844 225.038226 
L 59.26015 229.480737 
L 61.863456 228.347526 
L 64.466761 231.658235 
L 67.070067 231.61725 
L 69.673373 237.689396 
L 72.276679 227.601748 
L 74.879985 224.025619 
L 77.48329 230.005441 
L 80.086596 232.978167 
L 82.689902 237.150622 
L 85.293208 238.509421 
L 87.896513 229.545048 
L 90.499819 239.143355 
L 93.103125 234.634661 
L 95.706431 235.2332 
L 98.309737 237.024931 
L 100.913042 239.446991 
L 103.516348 241.572621 
L 106.119654 234.156938 
L 108.72296 233.20911 
L 111.326265 233.001727 
L 113.929571 235.400327 
L 116.532877 236.401461 
L 119.136183 236.294036 
L 121.739489 234.697251 
L 124.342794 241.604891 
L 126.9461 235.865674 
L 129.549406 239.202417 
L 132.152712 238.611095 
L 134.756018 237.971082 
L 137.359323 234.176793 
L 139.962629 232.977587 
L 142.565935 229.282092 
L 145.169241 237.809599 
L 147.772546 233.992574 
L 150.375852 235.520045 
L 152.979158 238.317039 
L 155.582464 233.226306 
L 158.18577 241.180925 
L 160.789075 236.053002 
L 163.392381 238.727648 
L 165.995687 236.476795 
L 168.598993 235.028497 
L 171.202299 237.478319 
L 173.805604 236.589034 
L 176.40891 241.000418 
L 179.012216 238.965027 
L 181.615522 236.586254 
L 184.218827 237.673626 
L 186.822133 238.710195 
L 189.425439 236.714051 
L 192.028745 239.566407 
L 194.632051 239.826271 
L 197.235356 236.584459 
L 199.838662 239.191133 
L 202.441968 234.994845 
L 205.045274 235.654858 
L 207.64858 229.641256 
L 210.251885 229.630083 
L 212.855191 233.326454 
L 215.458497 231.13206 
L 218.061803 236.375148 
L 220.665108 238.975487 
L 223.268414 238.823806 
L 225.87172 241.112351 
L 228.475026 239.41014 
L 231.078332 232.081354 
L 233.681637 238.187196 
L 236.284943 239.6411 
L 238.888249 235.051901 
L 241.491555 236.565435 
L 244.094861 236.896096 
L 246.698166 237.208174 
L 249.301472 235.168888 
L 251.904778 237.202975 
L 254.508084 233.824471 
L 257.111389 236.156699 
L 259.714695 237.094558 
L 262.318001 237.452786 
L 264.921307 231.764696 
L 267.524613 232.492024 
L 270.127918 236.000978 
L 272.731224 236.411603 
L 275.33453 235.553608 
L 277.937836 233.608786 
L 280.541142 234.154247 
L 283.144447 238.887069 
L 285.747753 237.922206 
L 288.351059 237.823067 
L 290.954365 237.537141 
L 293.55767 237.0552 
L 296.160976 236.697368 
L 298.764282 233.610318 
L 301.367588 237.223882 
L 303.970894 233.455745 
L 306.574199 237.622483 
L 309.177505 238.156654 
L 311.780811 236.806754 
L 314.384117 237.936572 
L 316.987423 235.786066 
L 319.590728 230.628515 
L 322.194034 236.272666 
L 324.79734 232.836962 
L 327.400646 238.789987 
L 330.003951 233.772726 
L 332.607257 237.769756 
L 335.210563 236.608476 
L 337.813869 240.095363 
L 340.417175 236.135629 
L 343.02048 241.139823 
L 345.623786 235.137906 
L 348.227092 236.777861 
L 350.830398 239.657539 
L 353.433704 237.088924 
L 356.037009 238.949302 
L 358.640315 236.114421 
L 361.243621 234.637057 
L 363.846927 236.202281 
L 366.450232 232.537746 
L 369.053538 236.115284 
" clip-path="url(#ped3774dfde)" style="fill: none; stroke: #ff7f0e; stroke-width: 1.5; stroke-linecap: square"/>
   </g>
   <g id="patch_3">
    <path d="M 30.103125 259.2 
L 30.103125 7.2 
" style="fill: none; stroke: #000000; stroke-width: 0.8; stroke-linejoin: miter; stroke-linecap: square"/>
   </g>
   <g id="patch_4">
    <path d="M 385.194034 259.2 
L 385.194034 7.2 
" style="fill: none; stroke: #000000; stroke-width: 0.8; stroke-linejoin: miter; stroke-linecap: square"/>
   </g>
   <g id="patch_5">
    <path d="M 30.103125 259.2 
L 385.194034 259.2 
" style="fill: none; stroke: #000000; stroke-width: 0.8; stroke-linejoin: miter; stroke-linecap: square"/>
   </g>
   <g id="patch_6">
    <path d="M 30.103125 7.2 
L 385.194034 7.2 
" style="fill: none; stroke: #000000; stroke-width: 0.8; stroke-linejoin: miter; stroke-linecap: square"/>
   </g>
   <g id="legend_1">
    <g id="patch_7">
     <path d="M 298.603409 45.1125 
L 378.194034 45.1125 
Q 380.194034 45.1125 380.194034 43.1125 
L 380.194034 14.2 
Q 380.194034 12.2 378.194034 12.2 
L 298.603409 12.2 
Q 296.603409 12.2 296.603409 14.2 
L 296.603409 43.1125 
Q 296.603409 45.1125 298.603409 45.1125 
z
" style="fill: #ffffff; opacity: 0.8; stroke: #cccccc; stroke-linejoin: miter"/>
    </g>
    <g id="line2d_16">
     <path d="M 300.603409 20.298437 
L 310.603409 20.298437 
L 320.603409 20.298437 
" style="fill: none; stroke: #1f77b4; stroke-width: 1.5; stroke-linecap: square"/>
    </g>
    <g id="text_14">
     <!-- train_loss -->
     <g transform="translate(328.603409 23.798437) scale(0.1 -0.1)">
      <defs>
       <path id="DejaVuSans-74" d="M 1172 4494 
L 1172 3500 
L 2356 3500 
L 2356 3053 
L 1172 3053 
L 1172 1153 
Q 1172 725 1289 603 
Q 1406 481 1766 481 
L 2356 481 
L 2356 0 
L 1766 0 
Q 1100 0 847 248 
Q 594 497 594 1153 
L 594 3053 
L 172 3053 
L 172 3500 
L 594 3500 
L 594 4494 
L 1172 4494 
z
" transform="scale(0.015625)"/>
       <path id="DejaVuSans-72" d="M 2631 2963 
Q 2534 3019 2420 3045 
Q 2306 3072 2169 3072 
Q 1681 3072 1420 2755 
Q 1159 2438 1159 1844 
L 1159 0 
L 581 0 
L 581 3500 
L 1159 3500 
L 1159 2956 
Q 1341 3275 1631 3429 
Q 1922 3584 2338 3584 
Q 2397 3584 2469 3576 
Q 2541 3569 2628 3553 
L 2631 2963 
z
" transform="scale(0.015625)"/>
       <path id="DejaVuSans-61" d="M 2194 1759 
Q 1497 1759 1228 1600 
Q 959 1441 959 1056 
Q 959 750 1161 570 
Q 1363 391 1709 391 
Q 2188 391 2477 730 
Q 2766 1069 2766 1631 
L 2766 1759 
L 2194 1759 
z
M 3341 1997 
L 3341 0 
L 2766 0 
L 2766 531 
Q 2569 213 2275 61 
Q 1981 -91 1556 -91 
Q 1019 -91 701 211 
Q 384 513 384 1019 
Q 384 1609 779 1909 
Q 1175 2209 1959 2209 
L 2766 2209 
L 2766 2266 
Q 2766 2663 2505 2880 
Q 2244 3097 1772 3097 
Q 1472 3097 1187 3025 
Q 903 2953 641 2809 
L 641 3341 
Q 956 3463 1253 3523 
Q 1550 3584 1831 3584 
Q 2591 3584 2966 3190 
Q 3341 2797 3341 1997 
z
" transform="scale(0.015625)"/>
       <path id="DejaVuSans-69" d="M 603 3500 
L 1178 3500 
L 1178 0 
L 603 0 
L 603 3500 
z
M 603 4863 
L 1178 4863 
L 1178 4134 
L 603 4134 
L 603 4863 
z
" transform="scale(0.015625)"/>
       <path id="DejaVuSans-6e" d="M 3513 2113 
L 3513 0 
L 2938 0 
L 2938 2094 
Q 2938 2591 2744 2837 
Q 2550 3084 2163 3084 
Q 1697 3084 1428 2787 
Q 1159 2491 1159 1978 
L 1159 0 
L 581 0 
L 581 3500 
L 1159 3500 
L 1159 2956 
Q 1366 3272 1645 3428 
Q 1925 3584 2291 3584 
Q 2894 3584 3203 3211 
Q 3513 2838 3513 2113 
z
" transform="scale(0.015625)"/>
       <path id="DejaVuSans-5f" d="M 3263 -1063 
L 3263 -1509 
L -63 -1509 
L -63 -1063 
L 3263 -1063 
z
" transform="scale(0.015625)"/>
       <path id="DejaVuSans-6c" d="M 603 4863 
L 1178 4863 
L 1178 0 
L 603 0 
L 603 4863 
z
" transform="scale(0.015625)"/>
       <path id="DejaVuSans-6f" d="M 1959 3097 
Q 1497 3097 1228 2736 
Q 959 2375 959 1747 
Q 959 1119 1226 758 
Q 1494 397 1959 397 
Q 2419 397 2687 759 
Q 2956 1122 2956 1747 
Q 2956 2369 2687 2733 
Q 2419 3097 1959 3097 
z
M 1959 3584 
Q 2709 3584 3137 3096 
Q 3566 2609 3566 1747 
Q 3566 888 3137 398 
Q 2709 -91 1959 -91 
Q 1206 -91 779 398 
Q 353 888 353 1747 
Q 353 2609 779 3096 
Q 1206 3584 1959 3584 
z
" transform="scale(0.015625)"/>
       <path id="DejaVuSans-73" d="M 2834 3397 
L 2834 2853 
Q 2591 2978 2328 3040 
Q 2066 3103 1784 3103 
Q 1356 3103 1142 2972 
Q 928 2841 928 2578 
Q 928 2378 1081 2264 
Q 1234 2150 1697 2047 
L 1894 2003 
Q 2506 1872 2764 1633 
Q 3022 1394 3022 966 
Q 3022 478 2636 193 
Q 2250 -91 1575 -91 
Q 1294 -91 989 -36 
Q 684 19 347 128 
L 347 722 
Q 666 556 975 473 
Q 1284 391 1588 391 
Q 1994 391 2212 530 
Q 2431 669 2431 922 
Q 2431 1156 2273 1281 
Q 2116 1406 1581 1522 
L 1381 1569 
Q 847 1681 609 1914 
Q 372 2147 372 2553 
Q 372 3047 722 3315 
Q 1072 3584 1716 3584 
Q 2034 3584 2315 3537 
Q 2597 3491 2834 3397 
z
" transform="scale(0.015625)"/>
      </defs>
      <use xlink:href="#DejaVuSans-74"/>
      <use xlink:href="#DejaVuSans-72" x="39.208984"/>
      <use xlink:href="#DejaVuSans-61" x="80.322266"/>
      <use xlink:href="#DejaVuSans-69" x="141.601562"/>
      <use xlink:href="#DejaVuSans-6e" x="169.384766"/>
      <use xlink:href="#DejaVuSans-5f" x="232.763672"/>
      <use xlink:href="#DejaVuSans-6c" x="282.763672"/>
      <use xlink:href="#DejaVuSans-6f" x="310.546875"/>
      <use xlink:href="#DejaVuSans-73" x="371.728516"/>
      <use xlink:href="#DejaVuSans-73" x="423.828125"/>
     </g>
    </g>
    <g id="line2d_17">
     <path d="M 300.603409 35.254687 
L 310.603409 35.254687 
L 320.603409 35.254687 
" style="fill: none; stroke: #ff7f0e; stroke-width: 1.5; stroke-linecap: square"/>
    </g>
    <g id="text_15">
     <!-- val_loss -->
     <g transform="translate(328.603409 38.754687) scale(0.1 -0.1)">
      <defs>
       <path id="DejaVuSans-76" d="M 191 3500 
L 800 3500 
L 1894 563 
L 2988 3500 
L 3597 3500 
L 2284 0 
L 1503 0 
L 191 3500 
z
" transform="scale(0.015625)"/>
      </defs>
      <use xlink:href="#DejaVuSans-76"/>
      <use xlink:href="#DejaVuSans-61" x="59.179688"/>
      <use xlink:href="#DejaVuSans-6c" x="120.458984"/>
      <use xlink:href="#DejaVuSans-5f" x="148.242188"/>
      <use xlink:href="#DejaVuSans-6c" x="198.242188"/>
      <use xlink:href="#DejaVuSans-6f" x="226.025391"/>
      <use xlink:href="#DejaVuSans-73" x="287.207031"/>
      <use xlink:href="#DejaVuSans-73" x="339.306641"/>
     </g>
    </g>
   </g>
  </g>
  <g id="axes_2">
   <g id="patch_8">
    <path d="M 456.212216 259.2 
L 811.303125 259.2 
L 811.303125 7.2 
L 456.212216 7.2 
z
" style="fill: #ffffff"/>
   </g>
   <g id="matplotlib.axis_3">
    <g id="xtick_8">
     <g id="line2d_18">
      <g>
       <use xlink:href="#m7c2d72873f" x="472.352712" y="259.2" style="stroke: #000000; stroke-width: 0.8"/>
      </g>
     </g>
     <g id="text_16">
      <!-- 0 -->
      <g transform="translate(469.171462 273.798437) scale(0.1 -0.1)">
       <use xlink:href="#DejaVuSans-30"/>
      </g>
     </g>
    </g>
    <g id="xtick_9">
     <g id="line2d_19">
      <g>
       <use xlink:href="#m7c2d72873f" x="524.418827" y="259.2" style="stroke: #000000; stroke-width: 0.8"/>
      </g>
     </g>
     <g id="text_17">
      <!-- 20 -->
      <g transform="translate(518.056327 273.798437) scale(0.1 -0.1)">
       <use xlink:href="#DejaVuSans-32"/>
       <use xlink:href="#DejaVuSans-30" x="63.623047"/>
      </g>
     </g>
    </g>
    <g id="xtick_10">
     <g id="line2d_20">
      <g>
       <use xlink:href="#m7c2d72873f" x="576.484943" y="259.2" style="stroke: #000000; stroke-width: 0.8"/>
      </g>
     </g>
     <g id="text_18">
      <!-- 40 -->
      <g transform="translate(570.122443 273.798437) scale(0.1 -0.1)">
       <use xlink:href="#DejaVuSans-34"/>
       <use xlink:href="#DejaVuSans-30" x="63.623047"/>
      </g>
     </g>
    </g>
    <g id="xtick_11">
     <g id="line2d_21">
      <g>
       <use xlink:href="#m7c2d72873f" x="628.551059" y="259.2" style="stroke: #000000; stroke-width: 0.8"/>
      </g>
     </g>
     <g id="text_19">
      <!-- 60 -->
      <g transform="translate(622.188559 273.798437) scale(0.1 -0.1)">
       <use xlink:href="#DejaVuSans-36"/>
       <use xlink:href="#DejaVuSans-30" x="63.623047"/>
      </g>
     </g>
    </g>
    <g id="xtick_12">
     <g id="line2d_22">
      <g>
       <use xlink:href="#m7c2d72873f" x="680.617175" y="259.2" style="stroke: #000000; stroke-width: 0.8"/>
      </g>
     </g>
     <g id="text_20">
      <!-- 80 -->
      <g transform="translate(674.254675 273.798437) scale(0.1 -0.1)">
       <use xlink:href="#DejaVuSans-38"/>
       <use xlink:href="#DejaVuSans-30" x="63.623047"/>
      </g>
     </g>
    </g>
    <g id="xtick_13">
     <g id="line2d_23">
      <g>
       <use xlink:href="#m7c2d72873f" x="732.68329" y="259.2" style="stroke: #000000; stroke-width: 0.8"/>
      </g>
     </g>
     <g id="text_21">
      <!-- 100 -->
      <g transform="translate(723.13954 273.798437) scale(0.1 -0.1)">
       <use xlink:href="#DejaVuSans-31"/>
       <use xlink:href="#DejaVuSans-30" x="63.623047"/>
       <use xlink:href="#DejaVuSans-30" x="127.246094"/>
      </g>
     </g>
    </g>
    <g id="xtick_14">
     <g id="line2d_24">
      <g>
       <use xlink:href="#m7c2d72873f" x="784.749406" y="259.2" style="stroke: #000000; stroke-width: 0.8"/>
      </g>
     </g>
     <g id="text_22">
      <!-- 120 -->
      <g transform="translate(775.205656 273.798437) scale(0.1 -0.1)">
       <use xlink:href="#DejaVuSans-31"/>
       <use xlink:href="#DejaVuSans-32" x="63.623047"/>
       <use xlink:href="#DejaVuSans-30" x="127.246094"/>
      </g>
     </g>
    </g>
   </g>
   <g id="matplotlib.axis_4">
    <g id="ytick_7">
     <g id="line2d_25">
      <g>
       <use xlink:href="#ma80e03692c" x="456.212216" y="234.184676" style="stroke: #000000; stroke-width: 0.8"/>
      </g>
     </g>
     <g id="text_23">
      <!-- 0.60 -->
      <g transform="translate(426.946591 237.983895) scale(0.1 -0.1)">
       <use xlink:href="#DejaVuSans-30"/>
       <use xlink:href="#DejaVuSans-2e" x="63.623047"/>
       <use xlink:href="#DejaVuSans-36" x="95.410156"/>
       <use xlink:href="#DejaVuSans-30" x="159.033203"/>
      </g>
     </g>
    </g>
    <g id="ytick_8">
     <g id="line2d_26">
      <g>
       <use xlink:href="#ma80e03692c" x="456.212216" y="200.962946" style="stroke: #000000; stroke-width: 0.8"/>
      </g>
     </g>
     <g id="text_24">
      <!-- 0.65 -->
      <g transform="translate(426.946591 204.762165) scale(0.1 -0.1)">
       <defs>
        <path id="DejaVuSans-35" d="M 691 4666 
L 3169 4666 
L 3169 4134 
L 1269 4134 
L 1269 2991 
Q 1406 3038 1543 3061 
Q 1681 3084 1819 3084 
Q 2600 3084 3056 2656 
Q 3513 2228 3513 1497 
Q 3513 744 3044 326 
Q 2575 -91 1722 -91 
Q 1428 -91 1123 -41 
Q 819 9 494 109 
L 494 744 
Q 775 591 1075 516 
Q 1375 441 1709 441 
Q 2250 441 2565 725 
Q 2881 1009 2881 1497 
Q 2881 1984 2565 2268 
Q 2250 2553 1709 2553 
Q 1456 2553 1204 2497 
Q 953 2441 691 2322 
L 691 4666 
z
" transform="scale(0.015625)"/>
       </defs>
       <use xlink:href="#DejaVuSans-30"/>
       <use xlink:href="#DejaVuSans-2e" x="63.623047"/>
       <use xlink:href="#DejaVuSans-36" x="95.410156"/>
       <use xlink:href="#DejaVuSans-35" x="159.033203"/>
      </g>
     </g>
    </g>
    <g id="ytick_9">
     <g id="line2d_27">
      <g>
       <use xlink:href="#ma80e03692c" x="456.212216" y="167.741216" style="stroke: #000000; stroke-width: 0.8"/>
      </g>
     </g>
     <g id="text_25">
      <!-- 0.70 -->
      <g transform="translate(426.946591 171.540435) scale(0.1 -0.1)">
       <defs>
        <path id="DejaVuSans-37" d="M 525 4666 
L 3525 4666 
L 3525 4397 
L 1831 0 
L 1172 0 
L 2766 4134 
L 525 4134 
L 525 4666 
z
" transform="scale(0.015625)"/>
       </defs>
       <use xlink:href="#DejaVuSans-30"/>
       <use xlink:href="#DejaVuSans-2e" x="63.623047"/>
       <use xlink:href="#DejaVuSans-37" x="95.410156"/>
       <use xlink:href="#DejaVuSans-30" x="159.033203"/>
      </g>
     </g>
    </g>
    <g id="ytick_10">
     <g id="line2d_28">
      <g>
       <use xlink:href="#ma80e03692c" x="456.212216" y="134.519486" style="stroke: #000000; stroke-width: 0.8"/>
      </g>
     </g>
     <g id="text_26">
      <!-- 0.75 -->
      <g transform="translate(426.946591 138.318705) scale(0.1 -0.1)">
       <use xlink:href="#DejaVuSans-30"/>
       <use xlink:href="#DejaVuSans-2e" x="63.623047"/>
       <use xlink:href="#DejaVuSans-37" x="95.410156"/>
       <use xlink:href="#DejaVuSans-35" x="159.033203"/>
      </g>
     </g>
    </g>
    <g id="ytick_11">
     <g id="line2d_29">
      <g>
       <use xlink:href="#ma80e03692c" x="456.212216" y="101.297756" style="stroke: #000000; stroke-width: 0.8"/>
      </g>
     </g>
     <g id="text_27">
      <!-- 0.80 -->
      <g transform="translate(426.946591 105.096975) scale(0.1 -0.1)">
       <use xlink:href="#DejaVuSans-30"/>
       <use xlink:href="#DejaVuSans-2e" x="63.623047"/>
       <use xlink:href="#DejaVuSans-38" x="95.410156"/>
       <use xlink:href="#DejaVuSans-30" x="159.033203"/>
      </g>
     </g>
    </g>
    <g id="ytick_12">
     <g id="line2d_30">
      <g>
       <use xlink:href="#ma80e03692c" x="456.212216" y="68.076026" style="stroke: #000000; stroke-width: 0.8"/>
      </g>
     </g>
     <g id="text_28">
      <!-- 0.85 -->
      <g transform="translate(426.946591 71.875244) scale(0.1 -0.1)">
       <use xlink:href="#DejaVuSans-30"/>
       <use xlink:href="#DejaVuSans-2e" x="63.623047"/>
       <use xlink:href="#DejaVuSans-38" x="95.410156"/>
       <use xlink:href="#DejaVuSans-35" x="159.033203"/>
      </g>
     </g>
    </g>
    <g id="ytick_13">
     <g id="line2d_31">
      <g>
       <use xlink:href="#ma80e03692c" x="456.212216" y="34.854296" style="stroke: #000000; stroke-width: 0.8"/>
      </g>
     </g>
     <g id="text_29">
      <!-- 0.90 -->
      <g transform="translate(426.946591 38.653514) scale(0.1 -0.1)">
       <defs>
        <path id="DejaVuSans-39" d="M 703 97 
L 703 672 
Q 941 559 1184 500 
Q 1428 441 1663 441 
Q 2288 441 2617 861 
Q 2947 1281 2994 2138 
Q 2813 1869 2534 1725 
Q 2256 1581 1919 1581 
Q 1219 1581 811 2004 
Q 403 2428 403 3163 
Q 403 3881 828 4315 
Q 1253 4750 1959 4750 
Q 2769 4750 3195 4129 
Q 3622 3509 3622 2328 
Q 3622 1225 3098 567 
Q 2575 -91 1691 -91 
Q 1453 -91 1209 -44 
Q 966 3 703 97 
z
M 1959 2075 
Q 2384 2075 2632 2365 
Q 2881 2656 2881 3163 
Q 2881 3666 2632 3958 
Q 2384 4250 1959 4250 
Q 1534 4250 1286 3958 
Q 1038 3666 1038 3163 
Q 1038 2656 1286 2365 
Q 1534 2075 1959 2075 
z
" transform="scale(0.015625)"/>
       </defs>
       <use xlink:href="#DejaVuSans-30"/>
       <use xlink:href="#DejaVuSans-2e" x="63.623047"/>
       <use xlink:href="#DejaVuSans-39" x="95.410156"/>
       <use xlink:href="#DejaVuSans-30" x="159.033203"/>
      </g>
     </g>
    </g>
   </g>
   <g id="line2d_32">
    <path d="M 472.352712 247.745455 
L 474.956018 83.471867 
L 477.559323 58.243043 
L 480.162629 43.997902 
L 482.765935 40.843373 
L 485.369241 37.207624 
L 487.972546 32.571255 
L 490.575852 30.348555 
L 493.179158 32.028927 
L 495.782464 27.866175 
L 498.38577 26.995415 
L 500.989075 27.04888 
L 503.592381 25.108789 
L 506.195687 26.659341 
L 508.798993 24.306781 
L 511.402299 22.343759 
L 514.005604 26.010083 
L 516.60891 25.009503 
L 519.212216 24.841466 
L 521.815522 22.229187 
L 524.418827 23.626988 
L 527.022133 20.976532 
L 529.625439 20.380778 
L 532.228745 22.488906 
L 534.832051 19.800271 
L 537.435356 23.54295 
L 540.038662 22.993017 
L 542.641968 20.800891 
L 545.245274 23.191628 
L 547.84858 20.143989 
L 550.451885 20.235632 
L 553.055191 20.380778 
L 555.658497 19.112836 
L 558.261803 19.807915 
L 560.865108 19.464197 
L 563.468414 19.975952 
L 566.07172 20.01413 
L 568.675026 22.229187 
L 571.278332 21.106391 
L 573.881637 20.174563 
L 576.484943 20.243275 
L 579.088249 21.030036 
L 581.691555 19.372555 
L 584.294861 21.473039 
L 586.898166 23.374913 
L 589.501472 22.030616 
L 592.104778 20.357848 
L 594.708084 20.105812 
L 597.311389 20.373134 
L 599.914695 18.654545 
L 602.518001 19.616947 
L 605.121307 19.975952 
L 607.724613 21.251538 
L 610.327918 22.6493 
L 612.931224 21.961864 
L 615.53453 21.572325 
L 618.137836 21.358467 
L 620.741142 21.030036 
L 623.344447 19.426019 
L 625.947753 21.159856 
L 628.551059 21.007106 
L 631.154365 20.205097 
L 633.75767 20.31967 
L 636.360976 21.473039 
L 638.964282 20.75503 
L 641.567588 20.930711 
L 644.170894 19.930131 
L 646.774199 19.158657 
L 649.377505 20.999462 
L 651.980811 18.982976 
L 654.584117 20.03706 
L 657.187423 21.259142 
L 659.790728 20.739783 
L 662.394034 21.618146 
L 664.99734 22.267404 
L 667.600646 20.640457 
L 670.203951 22.435441 
L 672.807257 19.769737 
L 675.410563 20.29674 
L 678.013869 21.198073 
L 680.617175 19.571126 
L 683.22048 20.128702 
L 685.823786 20.304383 
L 688.427092 19.991239 
L 691.030398 19.1663 
L 693.633704 21.381358 
L 696.237009 20.541172 
L 698.840315 20.464777 
L 701.443621 21.786183 
L 704.046927 20.716852 
L 706.650232 22.557657 
L 709.253538 20.923067 
L 711.856844 19.991239 
L 714.46015 20.762673 
L 717.063456 19.14341 
L 719.666761 21.198073 
L 722.270067 19.326694 
L 724.873373 20.212741 
L 727.476679 20.29674 
L 730.079985 19.311447 
L 732.68329 21.748006 
L 735.286596 21.755649 
L 737.889902 21.259142 
L 740.493208 21.297359 
L 743.096513 21.663967 
L 745.699819 19.464197 
L 748.303125 22.152832 
L 750.906431 20.243275 
L 753.509737 22.038259 
L 756.113042 21.335536 
L 758.716348 20.289136 
L 761.319654 22.206296 
L 763.92296 21.030036 
L 766.526265 21.327893 
L 769.129571 19.830845 
L 771.732877 21.0835 
L 774.336183 22.511836 
L 776.939489 21.961864 
L 779.542794 20.823781 
L 782.1461 23.245093 
L 784.749406 22.679873 
L 787.352712 22.259761 
L 789.956018 23.245093 
L 792.559323 22.618765 
L 795.162629 22.893732 
" clip-path="url(#p38bd9fcddd)" style="fill: none; stroke: #1f77b4; stroke-width: 1.5; stroke-linecap: square"/>
   </g>
   <g id="line2d_33">
    <path d="M 472.352712 113.344901 
L 474.956018 69.522722 
L 477.559323 64.261966 
L 480.162629 41.219804 
L 482.765935 42.16676 
L 485.369241 36.1695 
L 487.972546 37.484689 
L 490.575852 35.275137 
L 493.179158 34.222994 
L 495.782464 27.699643 
L 498.38577 40.693752 
L 500.989075 42.16676 
L 503.592381 38.010741 
L 506.195687 31.803068 
L 508.798993 26.805319 
L 511.402299 23.385843 
L 514.005604 37.16905 
L 516.60891 27.278777 
L 519.212216 30.435247 
L 521.815522 30.014381 
L 524.418827 26.437087 
L 527.022133 24.017121 
L 529.625439 22.228474 
L 532.228745 25.805769 
L 534.832051 28.909645 
L 537.435356 29.277877 
L 540.038662 26.542273 
L 542.641968 26.700093 
L 545.245274 25.963588 
L 547.84858 27.699643 
L 550.451885 21.807609 
L 553.055191 27.910095 
L 555.658497 22.754526 
L 558.261803 21.176291 
L 560.865108 26.016221 
L 563.468414 26.805319 
L 566.07172 27.962688 
L 568.675026 30.487879 
L 571.278332 23.017572 
L 573.881637 25.805769 
L 576.484943 28.383553 
L 579.088249 24.280167 
L 581.691555 30.908705 
L 584.294861 22.596706 
L 586.898166 25.384904 
L 589.501472 24.017121 
L 592.104778 26.594906 
L 594.708084 28.48878 
L 597.311389 23.228024 
L 599.914695 24.069715 
L 602.518001 20.229374 
L 605.121307 23.911895 
L 607.724613 23.64885 
L 610.327918 24.017121 
L 612.931224 23.49103 
L 615.53453 22.018022 
L 618.137836 21.176291 
L 620.741142 20.755466 
L 623.344447 22.175841 
L 625.947753 22.281067 
L 628.551059 22.49148 
L 631.154365 24.280167 
L 633.75767 30.961338 
L 636.360976 31.592616 
L 638.964282 25.700582 
L 641.567588 30.224834 
L 644.170894 25.647949 
L 646.774199 21.807609 
L 649.377505 22.544113 
L 651.980811 21.176291 
L 654.584117 21.649789 
L 657.187423 25.069265 
L 659.790728 22.281067 
L 662.394034 21.439337 
L 664.99734 26.279267 
L 667.600646 26.700093 
L 670.203951 23.175391 
L 672.807257 24.069715 
L 675.410563 25.963588 
L 678.013869 22.964978 
L 680.617175 25.963588 
L 683.22048 24.069715 
L 685.823786 23.122798 
L 688.427092 21.965428 
L 691.030398 31.171751 
L 693.633704 28.383553 
L 696.237009 25.700582 
L 698.840315 22.386294 
L 701.443621 23.859302 
L 704.046927 27.384004 
L 706.650232 24.385354 
L 709.253538 22.912345 
L 711.856844 26.647499 
L 714.46015 25.384904 
L 717.063456 24.858852 
L 719.666761 23.701482 
L 722.270067 25.595356 
L 724.873373 29.33051 
L 727.476679 25.33231 
L 730.079985 28.541373 
L 732.68329 24.437987 
L 735.286596 23.333211 
L 737.889902 23.333211 
L 740.493208 23.596256 
L 743.096513 25.595356 
L 745.699819 28.436147 
L 748.303125 23.543663 
L 750.906431 27.226184 
L 753.509737 21.439337 
L 756.113042 26.857952 
L 758.716348 22.49148 
L 761.319654 23.701482 
L 763.92296 22.175841 
L 766.526265 26.226634 
L 769.129571 20.545013 
L 771.732877 23.438437 
L 774.336183 25.49013 
L 776.939489 22.859752 
L 779.542794 22.544113 
L 782.1461 23.911895 
L 784.749406 26.594906 
L 787.352712 25.753176 
L 789.956018 24.017121 
L 792.559323 29.383103 
L 795.162629 24.543213 
" clip-path="url(#p38bd9fcddd)" style="fill: none; stroke: #ff7f0e; stroke-width: 1.5; stroke-linecap: square"/>
   </g>
   <g id="patch_9">
    <path d="M 456.212216 259.2 
L 456.212216 7.2 
" style="fill: none; stroke: #000000; stroke-width: 0.8; stroke-linejoin: miter; stroke-linecap: square"/>
   </g>
   <g id="patch_10">
    <path d="M 811.303125 259.2 
L 811.303125 7.2 
" style="fill: none; stroke: #000000; stroke-width: 0.8; stroke-linejoin: miter; stroke-linecap: square"/>
   </g>
   <g id="patch_11">
    <path d="M 456.212216 259.2 
L 811.303125 259.2 
" style="fill: none; stroke: #000000; stroke-width: 0.8; stroke-linejoin: miter; stroke-linecap: square"/>
   </g>
   <g id="patch_12">
    <path d="M 456.212216 7.2 
L 811.303125 7.2 
" style="fill: none; stroke: #000000; stroke-width: 0.8; stroke-linejoin: miter; stroke-linecap: square"/>
   </g>
   <g id="legend_2">
    <g id="patch_13">
     <path d="M 726.903125 254.2 
L 804.303125 254.2 
Q 806.303125 254.2 806.303125 252.2 
L 806.303125 223.2875 
Q 806.303125 221.2875 804.303125 221.2875 
L 726.903125 221.2875 
Q 724.903125 221.2875 724.903125 223.2875 
L 724.903125 252.2 
Q 724.903125 254.2 726.903125 254.2 
z
" style="fill: #ffffff; opacity: 0.8; stroke: #cccccc; stroke-linejoin: miter"/>
    </g>
    <g id="line2d_34">
     <path d="M 728.903125 229.385937 
L 738.903125 229.385937 
L 748.903125 229.385937 
" style="fill: none; stroke: #1f77b4; stroke-width: 1.5; stroke-linecap: square"/>
    </g>
    <g id="text_30">
     <!-- train_acc -->
     <g transform="translate(756.903125 232.885937) scale(0.1 -0.1)">
      <defs>
       <path id="DejaVuSans-63" d="M 3122 3366 
L 3122 2828 
Q 2878 2963 2633 3030 
Q 2388 3097 2138 3097 
Q 1578 3097 1268 2742 
Q 959 2388 959 1747 
Q 959 1106 1268 751 
Q 1578 397 2138 397 
Q 2388 397 2633 464 
Q 2878 531 3122 666 
L 3122 134 
Q 2881 22 2623 -34 
Q 2366 -91 2075 -91 
Q 1284 -91 818 406 
Q 353 903 353 1747 
Q 353 2603 823 3093 
Q 1294 3584 2113 3584 
Q 2378 3584 2631 3529 
Q 2884 3475 3122 3366 
z
" transform="scale(0.015625)"/>
      </defs>
      <use xlink:href="#DejaVuSans-74"/>
      <use xlink:href="#DejaVuSans-72" x="39.208984"/>
      <use xlink:href="#DejaVuSans-61" x="80.322266"/>
      <use xlink:href="#DejaVuSans-69" x="141.601562"/>
      <use xlink:href="#DejaVuSans-6e" x="169.384766"/>
      <use xlink:href="#DejaVuSans-5f" x="232.763672"/>
      <use xlink:href="#DejaVuSans-61" x="282.763672"/>
      <use xlink:href="#DejaVuSans-63" x="344.042969"/>
      <use xlink:href="#DejaVuSans-63" x="399.023438"/>
     </g>
    </g>
    <g id="line2d_35">
     <path d="M 728.903125 244.342187 
L 738.903125 244.342187 
L 748.903125 244.342187 
" style="fill: none; stroke: #ff7f0e; stroke-width: 1.5; stroke-linecap: square"/>
    </g>
    <g id="text_31">
     <!-- val_acc -->
     <g transform="translate(756.903125 247.842187) scale(0.1 -0.1)">
      <use xlink:href="#DejaVuSans-76"/>
      <use xlink:href="#DejaVuSans-61" x="59.179688"/>
      <use xlink:href="#DejaVuSans-6c" x="120.458984"/>
      <use xlink:href="#DejaVuSans-5f" x="148.242188"/>
      <use xlink:href="#DejaVuSans-61" x="198.242188"/>
      <use xlink:href="#DejaVuSans-63" x="259.521484"/>
      <use xlink:href="#DejaVuSans-63" x="314.501953"/>
     </g>
    </g>
   </g>
  </g>
 </g>
 <defs>
  <clipPath id="ped3774dfde">
   <rect x="30.103125" y="7.2" width="355.090909" height="252"/>
  </clipPath>
  <clipPath id="p38bd9fcddd">
   <rect x="456.212216" y="7.2" width="355.090909" height="252"/>
  </clipPath>
 </defs>
</svg>
