<?xml version="1.0" encoding="utf-8" standalone="no"?>
<!DOCTYPE svg PUBLIC "-//W3C//DTD SVG 1.1//EN"
  "http://www.w3.org/Graphics/SVG/1.1/DTD/svg11.dtd">
<svg xmlns:xlink="http://www.w3.org/1999/xlink" width="818.503125pt" height="283.078125pt" viewBox="0 0 818.503125 283.078125" xmlns="http://www.w3.org/2000/svg" version="1.1">
 <metadata>
  <rdf:RDF xmlns:dc="http://purl.org/dc/elements/1.1/" xmlns:cc="http://creativecommons.org/ns#" xmlns:rdf="http://www.w3.org/1999/02/22-rdf-syntax-ns#">
   <cc:Work>
    <dc:type rdf:resource="http://purl.org/dc/dcmitype/StillImage"/>
    <dc:date>2023-01-22T15:54:59.512190</dc:date>
    <dc:format>image/svg+xml</dc:format>
    <dc:creator>
     <cc:Agent>
      <dc:title>Matplotlib v3.6.2, https://matplotlib.org/</dc:title>
     </cc:Agent>
    </dc:creator>
   </cc:Work>
  </rdf:RDF>
 </metadata>
 <defs>
  <style type="text/css">*{stroke-linejoin: round; stroke-linecap: butt}</style>
 </defs>
 <g id="figure_1">
  <g id="patch_1">
   <path d="M 0 283.078125 
L 818.503125 283.078125 
L 818.503125 0 
L 0 0 
z
" style="fill: #ffffff"/>
  </g>
  <g id="axes_1">
   <g id="patch_2">
    <path d="M 30.103125 259.2 
L 385.194034 259.2 
L 385.194034 7.2 
L 30.103125 7.2 
z
" style="fill: #ffffff"/>
   </g>
   <g id="matplotlib.axis_1">
    <g id="xtick_1">
     <g id="line2d_1">
      <defs>
       <path id="m67626acd01" d="M 0 0 
L 0 3.5 
" style="stroke: #000000; stroke-width: 0.8"/>
      </defs>
      <g>
       <use xlink:href="#m67626acd01" x="46.243621" y="259.2" style="stroke: #000000; stroke-width: 0.8"/>
      </g>
     </g>
     <g id="text_1">
      <!-- 0 -->
      <g transform="translate(43.062371 273.798437) scale(0.1 -0.1)">
       <defs>
        <path id="DejaVuSans-30" d="M 2034 4250 
Q 1547 4250 1301 3770 
Q 1056 3291 1056 2328 
Q 1056 1369 1301 889 
Q 1547 409 2034 409 
Q 2525 409 2770 889 
Q 3016 1369 3016 2328 
Q 3016 3291 2770 3770 
Q 2525 4250 2034 4250 
z
M 2034 4750 
Q 2819 4750 3233 4129 
Q 3647 3509 3647 2328 
Q 3647 1150 3233 529 
Q 2819 -91 2034 -91 
Q 1250 -91 836 529 
Q 422 1150 422 2328 
Q 422 3509 836 4129 
Q 1250 4750 2034 4750 
z
" transform="scale(0.015625)"/>
       </defs>
       <use xlink:href="#DejaVuSans-30"/>
      </g>
     </g>
    </g>
    <g id="xtick_2">
     <g id="line2d_2">
      <g>
       <use xlink:href="#m67626acd01" x="111.064889" y="259.2" style="stroke: #000000; stroke-width: 0.8"/>
      </g>
     </g>
     <g id="text_2">
      <!-- 50 -->
      <g transform="translate(104.702389 273.798437) scale(0.1 -0.1)">
       <defs>
        <path id="DejaVuSans-35" d="M 691 4666 
L 3169 4666 
L 3169 4134 
L 1269 4134 
L 1269 2991 
Q 1406 3038 1543 3061 
Q 1681 3084 1819 3084 
Q 2600 3084 3056 2656 
Q 3513 2228 3513 1497 
Q 3513 744 3044 326 
Q 2575 -91 1722 -91 
Q 1428 -91 1123 -41 
Q 819 9 494 109 
L 494 744 
Q 775 591 1075 516 
Q 1375 441 1709 441 
Q 2250 441 2565 725 
Q 2881 1009 2881 1497 
Q 2881 1984 2565 2268 
Q 2250 2553 1709 2553 
Q 1456 2553 1204 2497 
Q 953 2441 691 2322 
L 691 4666 
z
" transform="scale(0.015625)"/>
       </defs>
       <use xlink:href="#DejaVuSans-35"/>
       <use xlink:href="#DejaVuSans-30" x="63.623047"/>
      </g>
     </g>
    </g>
    <g id="xtick_3">
     <g id="line2d_3">
      <g>
       <use xlink:href="#m67626acd01" x="175.886158" y="259.2" style="stroke: #000000; stroke-width: 0.8"/>
      </g>
     </g>
     <g id="text_3">
      <!-- 100 -->
      <g transform="translate(166.342408 273.798437) scale(0.1 -0.1)">
       <defs>
        <path id="DejaVuSans-31" d="M 794 531 
L 1825 531 
L 1825 4091 
L 703 3866 
L 703 4441 
L 1819 4666 
L 2450 4666 
L 2450 531 
L 3481 531 
L 3481 0 
L 794 0 
L 794 531 
z
" transform="scale(0.015625)"/>
       </defs>
       <use xlink:href="#DejaVuSans-31"/>
       <use xlink:href="#DejaVuSans-30" x="63.623047"/>
       <use xlink:href="#DejaVuSans-30" x="127.246094"/>
      </g>
     </g>
    </g>
    <g id="xtick_4">
     <g id="line2d_4">
      <g>
       <use xlink:href="#m67626acd01" x="240.707427" y="259.2" style="stroke: #000000; stroke-width: 0.8"/>
      </g>
     </g>
     <g id="text_4">
      <!-- 150 -->
      <g transform="translate(231.163677 273.798437) scale(0.1 -0.1)">
       <use xlink:href="#DejaVuSans-31"/>
       <use xlink:href="#DejaVuSans-35" x="63.623047"/>
       <use xlink:href="#DejaVuSans-30" x="127.246094"/>
      </g>
     </g>
    </g>
    <g id="xtick_5">
     <g id="line2d_5">
      <g>
       <use xlink:href="#m67626acd01" x="305.528695" y="259.2" style="stroke: #000000; stroke-width: 0.8"/>
      </g>
     </g>
     <g id="text_5">
      <!-- 200 -->
      <g transform="translate(295.984945 273.798437) scale(0.1 -0.1)">
       <defs>
        <path id="DejaVuSans-32" d="M 1228 531 
L 3431 531 
L 3431 0 
L 469 0 
L 469 531 
Q 828 903 1448 1529 
Q 2069 2156 2228 2338 
Q 2531 2678 2651 2914 
Q 2772 3150 2772 3378 
Q 2772 3750 2511 3984 
Q 2250 4219 1831 4219 
Q 1534 4219 1204 4116 
Q 875 4013 500 3803 
L 500 4441 
Q 881 4594 1212 4672 
Q 1544 4750 1819 4750 
Q 2544 4750 2975 4387 
Q 3406 4025 3406 3419 
Q 3406 3131 3298 2873 
Q 3191 2616 2906 2266 
Q 2828 2175 2409 1742 
Q 1991 1309 1228 531 
z
" transform="scale(0.015625)"/>
       </defs>
       <use xlink:href="#DejaVuSans-32"/>
       <use xlink:href="#DejaVuSans-30" x="63.623047"/>
       <use xlink:href="#DejaVuSans-30" x="127.246094"/>
      </g>
     </g>
    </g>
    <g id="xtick_6">
     <g id="line2d_6">
      <g>
       <use xlink:href="#m67626acd01" x="370.349964" y="259.2" style="stroke: #000000; stroke-width: 0.8"/>
      </g>
     </g>
     <g id="text_6">
      <!-- 250 -->
      <g transform="translate(360.806214 273.798437) scale(0.1 -0.1)">
       <use xlink:href="#DejaVuSans-32"/>
       <use xlink:href="#DejaVuSans-35" x="63.623047"/>
       <use xlink:href="#DejaVuSans-30" x="127.246094"/>
      </g>
     </g>
    </g>
   </g>
   <g id="matplotlib.axis_2">
    <g id="ytick_1">
     <g id="line2d_7">
      <defs>
       <path id="m70e8a91dbf" d="M 0 0 
L -3.5 0 
" style="stroke: #000000; stroke-width: 0.8"/>
      </defs>
      <g>
       <use xlink:href="#m70e8a91dbf" x="30.103125" y="241.592266" style="stroke: #000000; stroke-width: 0.8"/>
      </g>
     </g>
     <g id="text_7">
      <!-- 0.5 -->
      <g transform="translate(7.2 245.391485) scale(0.1 -0.1)">
       <defs>
        <path id="DejaVuSans-2e" d="M 684 794 
L 1344 794 
L 1344 0 
L 684 0 
L 684 794 
z
" transform="scale(0.015625)"/>
       </defs>
       <use xlink:href="#DejaVuSans-30"/>
       <use xlink:href="#DejaVuSans-2e" x="63.623047"/>
       <use xlink:href="#DejaVuSans-35" x="95.410156"/>
      </g>
     </g>
    </g>
    <g id="ytick_2">
     <g id="line2d_8">
      <g>
       <use xlink:href="#m70e8a91dbf" x="30.103125" y="191.585695" style="stroke: #000000; stroke-width: 0.8"/>
      </g>
     </g>
     <g id="text_8">
      <!-- 1.0 -->
      <g transform="translate(7.2 195.384914) scale(0.1 -0.1)">
       <use xlink:href="#DejaVuSans-31"/>
       <use xlink:href="#DejaVuSans-2e" x="63.623047"/>
       <use xlink:href="#DejaVuSans-30" x="95.410156"/>
      </g>
     </g>
    </g>
    <g id="ytick_3">
     <g id="line2d_9">
      <g>
       <use xlink:href="#m70e8a91dbf" x="30.103125" y="141.579124" style="stroke: #000000; stroke-width: 0.8"/>
      </g>
     </g>
     <g id="text_9">
      <!-- 1.5 -->
      <g transform="translate(7.2 145.378343) scale(0.1 -0.1)">
       <use xlink:href="#DejaVuSans-31"/>
       <use xlink:href="#DejaVuSans-2e" x="63.623047"/>
       <use xlink:href="#DejaVuSans-35" x="95.410156"/>
      </g>
     </g>
    </g>
    <g id="ytick_4">
     <g id="line2d_10">
      <g>
       <use xlink:href="#m70e8a91dbf" x="30.103125" y="91.572553" style="stroke: #000000; stroke-width: 0.8"/>
      </g>
     </g>
     <g id="text_10">
      <!-- 2.0 -->
      <g transform="translate(7.2 95.371772) scale(0.1 -0.1)">
       <use xlink:href="#DejaVuSans-32"/>
       <use xlink:href="#DejaVuSans-2e" x="63.623047"/>
       <use xlink:href="#DejaVuSans-30" x="95.410156"/>
      </g>
     </g>
    </g>
    <g id="ytick_5">
     <g id="line2d_11">
      <g>
       <use xlink:href="#m70e8a91dbf" x="30.103125" y="41.565982" style="stroke: #000000; stroke-width: 0.8"/>
      </g>
     </g>
     <g id="text_11">
      <!-- 2.5 -->
      <g transform="translate(7.2 45.3652) scale(0.1 -0.1)">
       <use xlink:href="#DejaVuSans-32"/>
       <use xlink:href="#DejaVuSans-2e" x="63.623047"/>
       <use xlink:href="#DejaVuSans-35" x="95.410156"/>
      </g>
     </g>
    </g>
   </g>
   <g id="line2d_12">
    <path d="M 46.243621 18.654545 
L 47.540046 127.131527 
L 48.836472 155.54572 
L 50.132897 168.714664 
L 51.429322 178.605591 
L 52.725748 185.102671 
L 54.022173 190.045666 
L 56.615024 195.608798 
L 59.207875 200.418273 
L 60.5043 201.233736 
L 61.800725 203.596221 
L 63.097151 203.607601 
L 64.393576 206.001393 
L 65.690001 207.761094 
L 66.986427 208.434417 
L 68.282852 207.918596 
L 69.579278 209.190142 
L 70.875703 209.981826 
L 72.172128 210.470541 
L 73.468554 211.365938 
L 74.764979 211.499416 
L 76.061404 212.377121 
L 77.35783 212.357323 
L 79.950681 213.909096 
L 81.247106 213.995135 
L 82.543531 215.397095 
L 83.839957 216.151539 
L 86.432807 216.418263 
L 87.729233 215.23688 
L 89.025658 216.701684 
L 91.618509 217.760968 
L 92.914934 218.018858 
L 94.21136 218.684747 
L 95.507785 217.285267 
L 98.100636 219.048651 
L 99.397061 219.49212 
L 100.693486 219.722576 
L 103.286337 218.815632 
L 104.582763 219.662618 
L 105.879188 219.940639 
L 107.175613 220.567488 
L 108.472039 218.952842 
L 109.768464 221.12248 
L 111.064889 220.768489 
L 112.361315 220.705038 
L 113.65774 221.890623 
L 116.250591 221.377657 
L 117.547016 221.647827 
L 118.843442 221.530849 
L 120.139867 221.69907 
L 121.436292 223.096327 
L 122.732718 220.694784 
L 124.029143 222.115195 
L 125.325568 222.892082 
L 126.621994 222.261752 
L 127.918419 222.173698 
L 129.214845 223.342645 
L 131.807695 223.171391 
L 133.104121 223.620308 
L 134.400546 223.059778 
L 135.696971 224.045274 
L 136.993397 223.831092 
L 138.289822 223.350568 
L 139.586248 224.395294 
L 140.882673 224.292707 
L 142.179098 225.152093 
L 143.475524 223.742651 
L 144.771949 224.930156 
L 146.068374 224.663777 
L 147.3648 224.234764 
L 148.661225 225.319652 
L 149.957651 224.541452 
L 151.254076 225.671574 
L 152.550501 226.127955 
L 153.846927 224.432701 
L 155.143352 225.165249 
L 156.439777 226.15738 
L 159.032628 225.195884 
L 160.329054 225.802805 
L 161.625479 225.265398 
L 162.921904 225.300349 
L 164.21833 225.507568 
L 165.514755 225.255288 
L 166.81118 225.88101 
L 168.107606 225.860355 
L 169.404031 226.198387 
L 170.700456 226.42039 
L 171.996882 225.936122 
L 173.293307 225.872522 
L 174.589733 226.355311 
L 175.886158 227.105588 
L 177.182583 226.345457 
L 178.479009 226.599215 
L 179.775434 225.342483 
L 181.071859 226.863036 
L 182.368285 227.733057 
L 183.66471 226.98963 
L 186.257561 227.386714 
L 187.553986 226.411901 
L 188.850412 227.261552 
L 190.146837 226.8336 
L 191.443262 227.508204 
L 192.739688 227.761081 
L 194.036113 227.073951 
L 195.332539 227.739471 
L 196.628964 226.89757 
L 197.925389 226.795376 
L 199.221815 228.245831 
L 200.51824 227.143847 
L 201.814665 228.215191 
L 203.111091 227.979101 
L 204.407516 228.790666 
L 205.703941 228.735101 
L 207.000367 227.937981 
L 208.296792 228.05038 
L 209.593218 227.930368 
L 210.889643 228.850379 
L 212.186068 227.451543 
L 213.482494 228.145402 
L 214.778919 228.32291 
L 216.075344 227.621373 
L 217.37177 228.282117 
L 218.668195 227.80697 
L 219.964621 229.065425 
L 221.261046 228.706767 
L 222.557471 228.905348 
L 223.853897 229.627386 
L 225.150322 227.773057 
L 226.446747 228.674839 
L 227.743173 229.146069 
L 229.039598 228.72564 
L 230.336024 228.524126 
L 231.632449 228.802063 
L 232.928874 229.357395 
L 234.2253 228.313909 
L 235.521725 227.765903 
L 236.81815 229.328412 
L 240.707427 228.565927 
L 243.300277 229.997711 
L 244.596703 228.896895 
L 245.893128 229.082546 
L 247.189553 228.806201 
L 248.485979 228.921652 
L 249.782404 228.376591 
L 251.078829 228.473158 
L 252.375255 229.254147 
L 253.67168 228.770028 
L 254.968106 229.302296 
L 256.264531 228.602368 
L 257.560956 229.560984 
L 258.857382 229.466111 
L 260.153807 229.896954 
L 261.450232 230.025103 
L 262.746658 229.204472 
L 264.043083 229.867452 
L 265.339509 229.673413 
L 266.635934 229.904936 
L 267.932359 229.501831 
L 269.228785 229.520477 
L 270.52521 229.201872 
L 271.821635 230.573603 
L 273.118061 230.225705 
L 274.414486 229.466021 
L 275.710912 229.257551 
L 277.007337 230.311767 
L 278.303762 230.027374 
L 279.600188 229.562707 
L 280.896613 230.955308 
L 282.193038 230.155708 
L 283.489464 229.865681 
L 284.785889 230.246045 
L 286.082314 230.40791 
L 287.37874 229.999708 
L 288.675165 229.403291 
L 289.971591 230.045043 
L 291.268016 230.889514 
L 292.564441 231.336625 
L 293.860867 230.03569 
L 295.157292 229.338009 
L 296.453717 230.593651 
L 297.750143 230.315779 
L 299.046568 230.387594 
L 300.342994 230.063744 
L 302.935844 230.021747 
L 304.23227 230.919034 
L 305.528695 230.62676 
L 306.82512 229.326999 
L 308.121546 229.555988 
L 309.417971 230.473383 
L 310.714397 230.642593 
L 312.010822 230.266688 
L 313.307247 231.496464 
L 314.603673 231.357656 
L 315.900098 231.497686 
L 317.196523 230.572649 
L 318.492949 230.464691 
L 319.789374 231.079594 
L 321.085799 232.022491 
L 322.382225 230.657091 
L 323.67865 231.120983 
L 324.975076 231.198336 
L 326.271501 231.021818 
L 327.567926 229.836197 
L 328.864352 230.84391 
L 330.160777 229.913234 
L 331.457202 230.877603 
L 332.753628 231.272989 
L 334.050053 230.905955 
L 336.642904 230.743427 
L 337.939329 231.411963 
L 339.235755 230.70515 
L 340.53218 231.418735 
L 341.828605 231.340649 
L 343.125031 230.297317 
L 347.014307 231.750115 
L 348.310732 230.852059 
L 349.607158 230.774783 
L 350.903583 231.114336 
L 352.200008 231.958723 
L 353.496434 231.127046 
L 354.792859 230.949371 
L 356.089285 230.97374 
L 357.38571 230.165043 
L 358.682135 231.777871 
L 359.978561 230.721716 
L 361.274986 231.619457 
L 363.867837 230.620518 
L 365.164262 231.564041 
L 366.460687 231.095904 
L 367.757113 231.958646 
L 369.053538 231.570848 
L 369.053538 231.570848 
" clip-path="url(#pe58190675f)" style="fill: none; stroke: #1f77b4; stroke-width: 1.5; stroke-linecap: square"/>
   </g>
   <g id="line2d_13">
    <path d="M 46.243621 140.345134 
L 47.540046 187.030932 
L 50.132897 218.357302 
L 51.429322 221.103273 
L 52.725748 225.3571 
L 54.022173 226.546172 
L 55.318598 223.890878 
L 56.615024 229.731362 
L 57.911449 229.774641 
L 59.207875 230.153407 
L 60.5043 232.215402 
L 61.800725 235.536271 
L 63.097151 233.687372 
L 64.393576 234.240063 
L 65.690001 229.057461 
L 66.986427 235.617677 
L 68.282852 233.343545 
L 69.579278 232.780374 
L 70.875703 236.175 
L 72.172128 238.612 
L 73.468554 231.703683 
L 74.764979 236.516818 
L 76.061404 238.7969 
L 77.35783 236.932168 
L 78.654255 237.61804 
L 79.950681 239.740792 
L 81.247106 237.646666 
L 82.543531 238.782426 
L 83.839957 238.597324 
L 85.136382 233.578722 
L 86.432807 234.626942 
L 87.729233 239.676041 
L 89.025658 236.775513 
L 90.322083 236.534219 
L 91.618509 232.776243 
L 92.914934 236.532675 
L 94.21136 242.279449 
L 95.507785 239.277466 
L 96.80421 234.308856 
L 98.100636 235.320062 
L 99.397061 238.833681 
L 100.693486 240.737871 
L 101.989912 240.97886 
L 103.286337 243.019097 
L 104.582763 238.837037 
L 105.879188 241.567396 
L 107.175613 239.303726 
L 108.472039 242.723866 
L 109.768464 235.867948 
L 111.064889 240.302103 
L 112.361315 239.895826 
L 113.65774 242.434418 
L 114.954166 238.14499 
L 116.250591 238.459601 
L 117.547016 242.422311 
L 118.843442 241.148905 
L 120.139867 240.747552 
L 121.436292 241.37362 
L 122.732718 241.304922 
L 124.029143 241.739903 
L 125.325568 236.314625 
L 126.621994 243.750167 
L 127.918419 241.635301 
L 129.214845 242.173405 
L 130.51127 239.828429 
L 131.807695 242.1664 
L 133.104121 240.178384 
L 134.400546 242.188612 
L 135.696971 242.383014 
L 136.993397 241.625521 
L 138.289822 240.316846 
L 139.586248 245.652958 
L 140.882673 242.241387 
L 142.179098 241.289012 
L 143.475524 245.263456 
L 144.771949 244.452819 
L 146.068374 244.829448 
L 148.661225 242.478522 
L 149.957651 242.578692 
L 151.254076 244.887984 
L 152.550501 239.901359 
L 153.846927 240.843963 
L 155.143352 240.811116 
L 156.439777 239.382712 
L 157.736203 245.428785 
L 159.032628 241.769414 
L 160.329054 241.105739 
L 161.625479 241.292386 
L 162.921904 241.215832 
L 164.21833 243.097109 
L 165.514755 244.772786 
L 166.81118 245.049421 
L 168.107606 244.801468 
L 169.404031 242.251014 
L 170.700456 242.466939 
L 171.996882 241.465918 
L 173.293307 241.821858 
L 174.589733 244.126318 
L 175.886158 245.255993 
L 177.182583 245.058234 
L 179.775434 242.753121 
L 181.071859 244.350503 
L 182.368285 244.548014 
L 183.66471 244.249147 
L 184.961136 247.147085 
L 186.257561 242.10409 
L 187.553986 243.793758 
L 188.850412 245.131546 
L 190.146837 244.978151 
L 191.443262 242.450779 
L 192.739688 244.417773 
L 194.036113 244.082491 
L 195.332539 240.806192 
L 196.628964 243.460897 
L 197.925389 242.774555 
L 199.221815 241.649366 
L 200.51824 245.233811 
L 201.814665 243.771815 
L 203.111091 242.85119 
L 205.703941 244.386154 
L 207.000367 244.359096 
L 208.296792 241.917777 
L 209.593218 245.570514 
L 210.889643 243.257303 
L 212.186068 244.214473 
L 213.482494 241.382472 
L 214.778919 242.184358 
L 216.075344 244.676363 
L 217.37177 243.682802 
L 218.668195 243.443273 
L 219.964621 244.738637 
L 221.261046 241.549179 
L 222.557471 242.956716 
L 223.853897 241.313715 
L 225.150322 244.4178 
L 226.446747 245.49001 
L 227.743173 244.682497 
L 229.039598 245.401841 
L 230.336024 239.263404 
L 231.632449 242.953389 
L 232.928874 243.285669 
L 234.2253 242.82136 
L 235.521725 244.759072 
L 236.81815 239.963487 
L 238.114576 243.67974 
L 239.411001 242.171047 
L 240.707427 239.830503 
L 242.003852 243.357931 
L 243.300277 242.978105 
L 244.596703 245.143778 
L 245.893128 243.609985 
L 247.189553 247.565318 
L 248.485979 243.347878 
L 249.782404 243.613809 
L 251.078829 241.543724 
L 252.375255 243.010909 
L 253.67168 243.734873 
L 254.968106 245.593215 
L 256.264531 245.247698 
L 257.560956 242.160689 
L 258.857382 243.923845 
L 260.153807 241.380565 
L 261.450232 245.988296 
L 262.746658 244.700556 
L 264.043083 239.060757 
L 265.339509 243.762602 
L 266.635934 246.394302 
L 267.932359 240.630687 
L 269.228785 245.298028 
L 270.52521 243.100084 
L 271.821635 241.955536 
L 273.118061 245.018804 
L 274.414486 240.555707 
L 275.710912 242.028821 
L 277.007337 243.910056 
L 278.303762 246.288642 
L 279.600188 242.538853 
L 280.896613 239.819463 
L 282.193038 240.585763 
L 283.489464 244.705957 
L 284.785889 240.875546 
L 286.082314 244.199227 
L 287.37874 245.556332 
L 288.675165 243.461642 
L 289.971591 245.114425 
L 291.268016 244.621326 
L 292.564441 242.780266 
L 293.860867 245.095662 
L 295.157292 243.279696 
L 296.453717 243.907785 
L 299.046568 246.987094 
L 300.342994 245.928031 
L 301.639419 244.711042 
L 302.935844 247.409625 
L 304.23227 245.832833 
L 305.528695 245.515122 
L 306.82512 246.441509 
L 308.121546 245.263835 
L 309.417971 245.850538 
L 310.714397 243.286706 
L 312.010822 245.025126 
L 313.307247 245.639879 
L 314.603673 243.759797 
L 315.900098 244.36405 
L 317.196523 245.530145 
L 318.492949 245.868901 
L 319.789374 244.086915 
L 321.085799 244.139725 
L 322.382225 243.628542 
L 323.67865 246.742841 
L 324.975076 244.377457 
L 326.271501 246.470597 
L 327.567926 247.745455 
L 328.864352 245.36959 
L 330.160777 243.828721 
L 331.457202 243.269565 
L 332.753628 245.492359 
L 334.050053 244.612297 
L 336.642904 243.901174 
L 337.939329 246.532323 
L 339.235755 246.64694 
L 340.53218 242.460039 
L 341.828605 242.856835 
L 343.125031 244.208622 
L 344.421456 242.049739 
L 345.717882 246.259897 
L 347.014307 246.824579 
L 348.310732 246.726099 
L 349.607158 245.048699 
L 350.903583 245.502937 
L 352.200008 246.48725 
L 353.496434 245.44632 
L 354.792859 241.411867 
L 356.089285 243.541162 
L 357.38571 245.450231 
L 358.682135 245.790645 
L 359.978561 240.370038 
L 361.274986 245.095266 
L 363.867837 245.249262 
L 365.164262 243.65166 
L 366.460687 245.215063 
L 367.757113 244.245454 
L 369.053538 245.733527 
L 369.053538 245.733527 
" clip-path="url(#pe58190675f)" style="fill: none; stroke: #ff7f0e; stroke-width: 1.5; stroke-linecap: square"/>
   </g>
   <g id="patch_3">
    <path d="M 30.103125 259.2 
L 30.103125 7.2 
" style="fill: none; stroke: #000000; stroke-width: 0.8; stroke-linejoin: miter; stroke-linecap: square"/>
   </g>
   <g id="patch_4">
    <path d="M 385.194034 259.2 
L 385.194034 7.2 
" style="fill: none; stroke: #000000; stroke-width: 0.8; stroke-linejoin: miter; stroke-linecap: square"/>
   </g>
   <g id="patch_5">
    <path d="M 30.103125 259.2 
L 385.194034 259.2 
" style="fill: none; stroke: #000000; stroke-width: 0.8; stroke-linejoin: miter; stroke-linecap: square"/>
   </g>
   <g id="patch_6">
    <path d="M 30.103125 7.2 
L 385.194034 7.2 
" style="fill: none; stroke: #000000; stroke-width: 0.8; stroke-linejoin: miter; stroke-linecap: square"/>
   </g>
   <g id="legend_1">
    <g id="patch_7">
     <path d="M 298.603409 45.1125 
L 378.194034 45.1125 
Q 380.194034 45.1125 380.194034 43.1125 
L 380.194034 14.2 
Q 380.194034 12.2 378.194034 12.2 
L 298.603409 12.2 
Q 296.603409 12.2 296.603409 14.2 
L 296.603409 43.1125 
Q 296.603409 45.1125 298.603409 45.1125 
z
" style="fill: #ffffff; opacity: 0.8; stroke: #cccccc; stroke-linejoin: miter"/>
    </g>
    <g id="line2d_14">
     <path d="M 300.603409 20.298437 
L 310.603409 20.298437 
L 320.603409 20.298437 
" style="fill: none; stroke: #1f77b4; stroke-width: 1.5; stroke-linecap: square"/>
    </g>
    <g id="text_12">
     <!-- train_loss -->
     <g transform="translate(328.603409 23.798437) scale(0.1 -0.1)">
      <defs>
       <path id="DejaVuSans-74" d="M 1172 4494 
L 1172 3500 
L 2356 3500 
L 2356 3053 
L 1172 3053 
L 1172 1153 
Q 1172 725 1289 603 
Q 1406 481 1766 481 
L 2356 481 
L 2356 0 
L 1766 0 
Q 1100 0 847 248 
Q 594 497 594 1153 
L 594 3053 
L 172 3053 
L 172 3500 
L 594 3500 
L 594 4494 
L 1172 4494 
z
" transform="scale(0.015625)"/>
       <path id="DejaVuSans-72" d="M 2631 2963 
Q 2534 3019 2420 3045 
Q 2306 3072 2169 3072 
Q 1681 3072 1420 2755 
Q 1159 2438 1159 1844 
L 1159 0 
L 581 0 
L 581 3500 
L 1159 3500 
L 1159 2956 
Q 1341 3275 1631 3429 
Q 1922 3584 2338 3584 
Q 2397 3584 2469 3576 
Q 2541 3569 2628 3553 
L 2631 2963 
z
" transform="scale(0.015625)"/>
       <path id="DejaVuSans-61" d="M 2194 1759 
Q 1497 1759 1228 1600 
Q 959 1441 959 1056 
Q 959 750 1161 570 
Q 1363 391 1709 391 
Q 2188 391 2477 730 
Q 2766 1069 2766 1631 
L 2766 1759 
L 2194 1759 
z
M 3341 1997 
L 3341 0 
L 2766 0 
L 2766 531 
Q 2569 213 2275 61 
Q 1981 -91 1556 -91 
Q 1019 -91 701 211 
Q 384 513 384 1019 
Q 384 1609 779 1909 
Q 1175 2209 1959 2209 
L 2766 2209 
L 2766 2266 
Q 2766 2663 2505 2880 
Q 2244 3097 1772 3097 
Q 1472 3097 1187 3025 
Q 903 2953 641 2809 
L 641 3341 
Q 956 3463 1253 3523 
Q 1550 3584 1831 3584 
Q 2591 3584 2966 3190 
Q 3341 2797 3341 1997 
z
" transform="scale(0.015625)"/>
       <path id="DejaVuSans-69" d="M 603 3500 
L 1178 3500 
L 1178 0 
L 603 0 
L 603 3500 
z
M 603 4863 
L 1178 4863 
L 1178 4134 
L 603 4134 
L 603 4863 
z
" transform="scale(0.015625)"/>
       <path id="DejaVuSans-6e" d="M 3513 2113 
L 3513 0 
L 2938 0 
L 2938 2094 
Q 2938 2591 2744 2837 
Q 2550 3084 2163 3084 
Q 1697 3084 1428 2787 
Q 1159 2491 1159 1978 
L 1159 0 
L 581 0 
L 581 3500 
L 1159 3500 
L 1159 2956 
Q 1366 3272 1645 3428 
Q 1925 3584 2291 3584 
Q 2894 3584 3203 3211 
Q 3513 2838 3513 2113 
z
" transform="scale(0.015625)"/>
       <path id="DejaVuSans-5f" d="M 3263 -1063 
L 3263 -1509 
L -63 -1509 
L -63 -1063 
L 3263 -1063 
z
" transform="scale(0.015625)"/>
       <path id="DejaVuSans-6c" d="M 603 4863 
L 1178 4863 
L 1178 0 
L 603 0 
L 603 4863 
z
" transform="scale(0.015625)"/>
       <path id="DejaVuSans-6f" d="M 1959 3097 
Q 1497 3097 1228 2736 
Q 959 2375 959 1747 
Q 959 1119 1226 758 
Q 1494 397 1959 397 
Q 2419 397 2687 759 
Q 2956 1122 2956 1747 
Q 2956 2369 2687 2733 
Q 2419 3097 1959 3097 
z
M 1959 3584 
Q 2709 3584 3137 3096 
Q 3566 2609 3566 1747 
Q 3566 888 3137 398 
Q 2709 -91 1959 -91 
Q 1206 -91 779 398 
Q 353 888 353 1747 
Q 353 2609 779 3096 
Q 1206 3584 1959 3584 
z
" transform="scale(0.015625)"/>
       <path id="DejaVuSans-73" d="M 2834 3397 
L 2834 2853 
Q 2591 2978 2328 3040 
Q 2066 3103 1784 3103 
Q 1356 3103 1142 2972 
Q 928 2841 928 2578 
Q 928 2378 1081 2264 
Q 1234 2150 1697 2047 
L 1894 2003 
Q 2506 1872 2764 1633 
Q 3022 1394 3022 966 
Q 3022 478 2636 193 
Q 2250 -91 1575 -91 
Q 1294 -91 989 -36 
Q 684 19 347 128 
L 347 722 
Q 666 556 975 473 
Q 1284 391 1588 391 
Q 1994 391 2212 530 
Q 2431 669 2431 922 
Q 2431 1156 2273 1281 
Q 2116 1406 1581 1522 
L 1381 1569 
Q 847 1681 609 1914 
Q 372 2147 372 2553 
Q 372 3047 722 3315 
Q 1072 3584 1716 3584 
Q 2034 3584 2315 3537 
Q 2597 3491 2834 3397 
z
" transform="scale(0.015625)"/>
      </defs>
      <use xlink:href="#DejaVuSans-74"/>
      <use xlink:href="#DejaVuSans-72" x="39.208984"/>
      <use xlink:href="#DejaVuSans-61" x="80.322266"/>
      <use xlink:href="#DejaVuSans-69" x="141.601562"/>
      <use xlink:href="#DejaVuSans-6e" x="169.384766"/>
      <use xlink:href="#DejaVuSans-5f" x="232.763672"/>
      <use xlink:href="#DejaVuSans-6c" x="282.763672"/>
      <use xlink:href="#DejaVuSans-6f" x="310.546875"/>
      <use xlink:href="#DejaVuSans-73" x="371.728516"/>
      <use xlink:href="#DejaVuSans-73" x="423.828125"/>
     </g>
    </g>
    <g id="line2d_15">
     <path d="M 300.603409 35.254687 
L 310.603409 35.254687 
L 320.603409 35.254687 
" style="fill: none; stroke: #ff7f0e; stroke-width: 1.5; stroke-linecap: square"/>
    </g>
    <g id="text_13">
     <!-- val_loss -->
     <g transform="translate(328.603409 38.754687) scale(0.1 -0.1)">
      <defs>
       <path id="DejaVuSans-76" d="M 191 3500 
L 800 3500 
L 1894 563 
L 2988 3500 
L 3597 3500 
L 2284 0 
L 1503 0 
L 191 3500 
z
" transform="scale(0.015625)"/>
      </defs>
      <use xlink:href="#DejaVuSans-76"/>
      <use xlink:href="#DejaVuSans-61" x="59.179688"/>
      <use xlink:href="#DejaVuSans-6c" x="120.458984"/>
      <use xlink:href="#DejaVuSans-5f" x="148.242188"/>
      <use xlink:href="#DejaVuSans-6c" x="198.242188"/>
      <use xlink:href="#DejaVuSans-6f" x="226.025391"/>
      <use xlink:href="#DejaVuSans-73" x="287.207031"/>
      <use xlink:href="#DejaVuSans-73" x="339.306641"/>
     </g>
    </g>
   </g>
  </g>
  <g id="axes_2">
   <g id="patch_8">
    <path d="M 456.212216 259.2 
L 811.303125 259.2 
L 811.303125 7.2 
L 456.212216 7.2 
z
" style="fill: #ffffff"/>
   </g>
   <g id="matplotlib.axis_3">
    <g id="xtick_7">
     <g id="line2d_16">
      <g>
       <use xlink:href="#m67626acd01" x="472.352712" y="259.2" style="stroke: #000000; stroke-width: 0.8"/>
      </g>
     </g>
     <g id="text_14">
      <!-- 0 -->
      <g transform="translate(469.171462 273.798437) scale(0.1 -0.1)">
       <use xlink:href="#DejaVuSans-30"/>
      </g>
     </g>
    </g>
    <g id="xtick_8">
     <g id="line2d_17">
      <g>
       <use xlink:href="#m67626acd01" x="537.17398" y="259.2" style="stroke: #000000; stroke-width: 0.8"/>
      </g>
     </g>
     <g id="text_15">
      <!-- 50 -->
      <g transform="translate(530.81148 273.798437) scale(0.1 -0.1)">
       <use xlink:href="#DejaVuSans-35"/>
       <use xlink:href="#DejaVuSans-30" x="63.623047"/>
      </g>
     </g>
    </g>
    <g id="xtick_9">
     <g id="line2d_18">
      <g>
       <use xlink:href="#m67626acd01" x="601.995249" y="259.2" style="stroke: #000000; stroke-width: 0.8"/>
      </g>
     </g>
     <g id="text_16">
      <!-- 100 -->
      <g transform="translate(592.451499 273.798437) scale(0.1 -0.1)">
       <use xlink:href="#DejaVuSans-31"/>
       <use xlink:href="#DejaVuSans-30" x="63.623047"/>
       <use xlink:href="#DejaVuSans-30" x="127.246094"/>
      </g>
     </g>
    </g>
    <g id="xtick_10">
     <g id="line2d_19">
      <g>
       <use xlink:href="#m67626acd01" x="666.816517" y="259.2" style="stroke: #000000; stroke-width: 0.8"/>
      </g>
     </g>
     <g id="text_17">
      <!-- 150 -->
      <g transform="translate(657.272767 273.798437) scale(0.1 -0.1)">
       <use xlink:href="#DejaVuSans-31"/>
       <use xlink:href="#DejaVuSans-35" x="63.623047"/>
       <use xlink:href="#DejaVuSans-30" x="127.246094"/>
      </g>
     </g>
    </g>
    <g id="xtick_11">
     <g id="line2d_20">
      <g>
       <use xlink:href="#m67626acd01" x="731.637786" y="259.2" style="stroke: #000000; stroke-width: 0.8"/>
      </g>
     </g>
     <g id="text_18">
      <!-- 200 -->
      <g transform="translate(722.094036 273.798437) scale(0.1 -0.1)">
       <use xlink:href="#DejaVuSans-32"/>
       <use xlink:href="#DejaVuSans-30" x="63.623047"/>
       <use xlink:href="#DejaVuSans-30" x="127.246094"/>
      </g>
     </g>
    </g>
    <g id="xtick_12">
     <g id="line2d_21">
      <g>
       <use xlink:href="#m67626acd01" x="796.459055" y="259.2" style="stroke: #000000; stroke-width: 0.8"/>
      </g>
     </g>
     <g id="text_19">
      <!-- 250 -->
      <g transform="translate(786.915305 273.798437) scale(0.1 -0.1)">
       <use xlink:href="#DejaVuSans-32"/>
       <use xlink:href="#DejaVuSans-35" x="63.623047"/>
       <use xlink:href="#DejaVuSans-30" x="127.246094"/>
      </g>
     </g>
    </g>
   </g>
   <g id="matplotlib.axis_4">
    <g id="ytick_6">
     <g id="line2d_22">
      <g>
       <use xlink:href="#m70e8a91dbf" x="456.212216" y="253.998793" style="stroke: #000000; stroke-width: 0.8"/>
      </g>
     </g>
     <g id="text_20">
      <!-- 0.2 -->
      <g transform="translate(433.309091 257.798012) scale(0.1 -0.1)">
       <use xlink:href="#DejaVuSans-30"/>
       <use xlink:href="#DejaVuSans-2e" x="63.623047"/>
       <use xlink:href="#DejaVuSans-32" x="95.410156"/>
      </g>
     </g>
    </g>
    <g id="ytick_7">
     <g id="line2d_23">
      <g>
       <use xlink:href="#m70e8a91dbf" x="456.212216" y="219.639786" style="stroke: #000000; stroke-width: 0.8"/>
      </g>
     </g>
     <g id="text_21">
      <!-- 0.3 -->
      <g transform="translate(433.309091 223.439005) scale(0.1 -0.1)">
       <defs>
        <path id="DejaVuSans-33" d="M 2597 2516 
Q 3050 2419 3304 2112 
Q 3559 1806 3559 1356 
Q 3559 666 3084 287 
Q 2609 -91 1734 -91 
Q 1441 -91 1130 -33 
Q 819 25 488 141 
L 488 750 
Q 750 597 1062 519 
Q 1375 441 1716 441 
Q 2309 441 2620 675 
Q 2931 909 2931 1356 
Q 2931 1769 2642 2001 
Q 2353 2234 1838 2234 
L 1294 2234 
L 1294 2753 
L 1863 2753 
Q 2328 2753 2575 2939 
Q 2822 3125 2822 3475 
Q 2822 3834 2567 4026 
Q 2313 4219 1838 4219 
Q 1578 4219 1281 4162 
Q 984 4106 628 3988 
L 628 4550 
Q 988 4650 1302 4700 
Q 1616 4750 1894 4750 
Q 2613 4750 3031 4423 
Q 3450 4097 3450 3541 
Q 3450 3153 3228 2886 
Q 3006 2619 2597 2516 
z
" transform="scale(0.015625)"/>
       </defs>
       <use xlink:href="#DejaVuSans-30"/>
       <use xlink:href="#DejaVuSans-2e" x="63.623047"/>
       <use xlink:href="#DejaVuSans-33" x="95.410156"/>
      </g>
     </g>
    </g>
    <g id="ytick_8">
     <g id="line2d_24">
      <g>
       <use xlink:href="#m70e8a91dbf" x="456.212216" y="185.280778" style="stroke: #000000; stroke-width: 0.8"/>
      </g>
     </g>
     <g id="text_22">
      <!-- 0.4 -->
      <g transform="translate(433.309091 189.079997) scale(0.1 -0.1)">
       <defs>
        <path id="DejaVuSans-34" d="M 2419 4116 
L 825 1625 
L 2419 1625 
L 2419 4116 
z
M 2253 4666 
L 3047 4666 
L 3047 1625 
L 3713 1625 
L 3713 1100 
L 3047 1100 
L 3047 0 
L 2419 0 
L 2419 1100 
L 313 1100 
L 313 1709 
L 2253 4666 
z
" transform="scale(0.015625)"/>
       </defs>
       <use xlink:href="#DejaVuSans-30"/>
       <use xlink:href="#DejaVuSans-2e" x="63.623047"/>
       <use xlink:href="#DejaVuSans-34" x="95.410156"/>
      </g>
     </g>
    </g>
    <g id="ytick_9">
     <g id="line2d_25">
      <g>
       <use xlink:href="#m70e8a91dbf" x="456.212216" y="150.921771" style="stroke: #000000; stroke-width: 0.8"/>
      </g>
     </g>
     <g id="text_23">
      <!-- 0.5 -->
      <g transform="translate(433.309091 154.72099) scale(0.1 -0.1)">
       <use xlink:href="#DejaVuSans-30"/>
       <use xlink:href="#DejaVuSans-2e" x="63.623047"/>
       <use xlink:href="#DejaVuSans-35" x="95.410156"/>
      </g>
     </g>
    </g>
    <g id="ytick_10">
     <g id="line2d_26">
      <g>
       <use xlink:href="#m70e8a91dbf" x="456.212216" y="116.562763" style="stroke: #000000; stroke-width: 0.8"/>
      </g>
     </g>
     <g id="text_24">
      <!-- 0.6 -->
      <g transform="translate(433.309091 120.361982) scale(0.1 -0.1)">
       <defs>
        <path id="DejaVuSans-36" d="M 2113 2584 
Q 1688 2584 1439 2293 
Q 1191 2003 1191 1497 
Q 1191 994 1439 701 
Q 1688 409 2113 409 
Q 2538 409 2786 701 
Q 3034 994 3034 1497 
Q 3034 2003 2786 2293 
Q 2538 2584 2113 2584 
z
M 3366 4563 
L 3366 3988 
Q 3128 4100 2886 4159 
Q 2644 4219 2406 4219 
Q 1781 4219 1451 3797 
Q 1122 3375 1075 2522 
Q 1259 2794 1537 2939 
Q 1816 3084 2150 3084 
Q 2853 3084 3261 2657 
Q 3669 2231 3669 1497 
Q 3669 778 3244 343 
Q 2819 -91 2113 -91 
Q 1303 -91 875 529 
Q 447 1150 447 2328 
Q 447 3434 972 4092 
Q 1497 4750 2381 4750 
Q 2619 4750 2861 4703 
Q 3103 4656 3366 4563 
z
" transform="scale(0.015625)"/>
       </defs>
       <use xlink:href="#DejaVuSans-30"/>
       <use xlink:href="#DejaVuSans-2e" x="63.623047"/>
       <use xlink:href="#DejaVuSans-36" x="95.410156"/>
      </g>
     </g>
    </g>
    <g id="ytick_11">
     <g id="line2d_27">
      <g>
       <use xlink:href="#m70e8a91dbf" x="456.212216" y="82.203756" style="stroke: #000000; stroke-width: 0.8"/>
      </g>
     </g>
     <g id="text_25">
      <!-- 0.7 -->
      <g transform="translate(433.309091 86.002975) scale(0.1 -0.1)">
       <defs>
        <path id="DejaVuSans-37" d="M 525 4666 
L 3525 4666 
L 3525 4397 
L 1831 0 
L 1172 0 
L 2766 4134 
L 525 4134 
L 525 4666 
z
" transform="scale(0.015625)"/>
       </defs>
       <use xlink:href="#DejaVuSans-30"/>
       <use xlink:href="#DejaVuSans-2e" x="63.623047"/>
       <use xlink:href="#DejaVuSans-37" x="95.410156"/>
      </g>
     </g>
    </g>
    <g id="ytick_12">
     <g id="line2d_28">
      <g>
       <use xlink:href="#m70e8a91dbf" x="456.212216" y="47.844748" style="stroke: #000000; stroke-width: 0.8"/>
      </g>
     </g>
     <g id="text_26">
      <!-- 0.8 -->
      <g transform="translate(433.309091 51.643967) scale(0.1 -0.1)">
       <defs>
        <path id="DejaVuSans-38" d="M 2034 2216 
Q 1584 2216 1326 1975 
Q 1069 1734 1069 1313 
Q 1069 891 1326 650 
Q 1584 409 2034 409 
Q 2484 409 2743 651 
Q 3003 894 3003 1313 
Q 3003 1734 2745 1975 
Q 2488 2216 2034 2216 
z
M 1403 2484 
Q 997 2584 770 2862 
Q 544 3141 544 3541 
Q 544 4100 942 4425 
Q 1341 4750 2034 4750 
Q 2731 4750 3128 4425 
Q 3525 4100 3525 3541 
Q 3525 3141 3298 2862 
Q 3072 2584 2669 2484 
Q 3125 2378 3379 2068 
Q 3634 1759 3634 1313 
Q 3634 634 3220 271 
Q 2806 -91 2034 -91 
Q 1263 -91 848 271 
Q 434 634 434 1313 
Q 434 1759 690 2068 
Q 947 2378 1403 2484 
z
M 1172 3481 
Q 1172 3119 1398 2916 
Q 1625 2713 2034 2713 
Q 2441 2713 2670 2916 
Q 2900 3119 2900 3481 
Q 2900 3844 2670 4047 
Q 2441 4250 2034 4250 
Q 1625 4250 1398 4047 
Q 1172 3844 1172 3481 
z
" transform="scale(0.015625)"/>
       </defs>
       <use xlink:href="#DejaVuSans-30"/>
       <use xlink:href="#DejaVuSans-2e" x="63.623047"/>
       <use xlink:href="#DejaVuSans-38" x="95.410156"/>
      </g>
     </g>
    </g>
    <g id="ytick_13">
     <g id="line2d_29">
      <g>
       <use xlink:href="#m70e8a91dbf" x="456.212216" y="13.485741" style="stroke: #000000; stroke-width: 0.8"/>
      </g>
     </g>
     <g id="text_27">
      <!-- 0.9 -->
      <g transform="translate(433.309091 17.28496) scale(0.1 -0.1)">
       <defs>
        <path id="DejaVuSans-39" d="M 703 97 
L 703 672 
Q 941 559 1184 500 
Q 1428 441 1663 441 
Q 2288 441 2617 861 
Q 2947 1281 2994 2138 
Q 2813 1869 2534 1725 
Q 2256 1581 1919 1581 
Q 1219 1581 811 2004 
Q 403 2428 403 3163 
Q 403 3881 828 4315 
Q 1253 4750 1959 4750 
Q 2769 4750 3195 4129 
Q 3622 3509 3622 2328 
Q 3622 1225 3098 567 
Q 2575 -91 1691 -91 
Q 1453 -91 1209 -44 
Q 966 3 703 97 
z
M 1959 2075 
Q 2384 2075 2632 2365 
Q 2881 2656 2881 3163 
Q 2881 3666 2632 3958 
Q 2384 4250 1959 4250 
Q 1534 4250 1286 3958 
Q 1038 3666 1038 3163 
Q 1038 2656 1286 2365 
Q 1534 2075 1959 2075 
z
" transform="scale(0.015625)"/>
       </defs>
       <use xlink:href="#DejaVuSans-30"/>
       <use xlink:href="#DejaVuSans-2e" x="63.623047"/>
       <use xlink:href="#DejaVuSans-39" x="95.410156"/>
      </g>
     </g>
    </g>
   </g>
   <g id="line2d_30">
    <path d="M 472.352712 247.745455 
L 473.649137 152.918395 
L 474.945563 121.23697 
L 476.241988 107.25465 
L 477.538413 95.215615 
L 480.131264 82.268148 
L 482.724115 76.777904 
L 484.02054 74.700293 
L 485.316965 71.465403 
L 487.909816 68.309502 
L 489.206242 68.08437 
L 490.502667 66.038359 
L 491.799092 63.561827 
L 493.095518 62.973306 
L 494.391943 63.198458 
L 495.688368 61.958216 
L 496.984794 60.338794 
L 500.87407 58.837867 
L 503.466921 58.028146 
L 504.763346 57.317178 
L 506.059771 56.112488 
L 507.356197 56.144088 
L 508.652622 55.421282 
L 509.949048 54.145487 
L 511.245473 54.042782 
L 512.541898 53.426613 
L 513.838324 54.307419 
L 515.134749 53.671508 
L 516.431174 53.209387 
L 517.7276 52.004697 
L 520.320451 51.155471 
L 521.616876 52.320676 
L 522.913301 50.748644 
L 524.209727 50.713092 
L 525.506152 49.650612 
L 526.802577 50.175933 
L 528.099003 49.753296 
L 529.395428 50.239133 
L 530.691853 49.622944 
L 531.988279 49.44127 
L 533.284704 48.904091 
L 534.58113 50.701254 
L 535.877555 48.007475 
L 537.17398 48.311617 
L 538.470406 48.22077 
L 539.766831 47.482154 
L 541.063256 47.363659 
L 542.359682 47.809991 
L 543.656107 47.675706 
L 544.952533 47.099022 
L 546.248958 47.407117 
L 547.545383 45.408495 
L 548.841809 48.118085 
L 550.138234 46.668501 
L 551.434659 46.079979 
L 552.731085 46.68429 
L 554.02751 46.585558 
L 555.323936 45.641553 
L 556.620361 45.420353 
L 557.916786 45.641553 
L 559.213212 45.444048 
L 560.509637 45.862732 
L 561.806062 44.981927 
L 563.102488 45.254469 
L 564.398913 44.740984 
L 565.695338 44.065568 
L 566.991764 44.851574 
L 568.288189 43.769332 
L 569.584615 44.713337 
L 570.88104 44.184063 
L 572.177465 43.828579 
L 573.473891 44.409195 
L 574.770316 43.635047 
L 576.066741 43.504695 
L 577.363167 43.097868 
L 578.659592 42.3553 
L 579.956018 44.037921 
L 581.252443 43.382247 
L 582.548868 42.536994 
L 583.845294 43.220315 
L 585.141719 43.394105 
L 586.438144 42.951726 
L 587.73457 43.579752 
L 589.030995 43.394105 
L 590.327421 43.05441 
L 591.623846 43.315115 
L 592.920271 42.130168 
L 594.216697 42.967516 
L 595.513122 42.019558 
L 596.809547 41.758873 
L 598.105973 42.687089 
L 599.402398 42.722641 
L 600.698823 41.687789 
L 601.995249 41.482399 
L 603.291674 42.608099 
L 604.5881 41.565341 
L 605.884525 42.809536 
L 607.18095 41.197999 
L 608.477376 40.633193 
L 609.773801 41.095315 
L 611.070226 40.621336 
L 612.366652 40.763525 
L 613.663077 41.513999 
L 614.959503 40.972867 
L 616.255928 40.94522 
L 617.552353 40.546299 
L 618.848779 40.305357 
L 620.145204 40.968915 
L 621.441629 40.538394 
L 622.738055 41.332304 
L 624.03448 41.320447 
L 625.330906 39.716835 
L 626.627331 41.561389 
L 627.923756 39.475893 
L 629.220182 39.985425 
L 630.516607 39.97752 
L 631.813032 38.887372 
L 633.109458 39.938015 
L 634.405883 40.092062 
L 635.702309 39.859025 
L 636.998734 39.132246 
L 638.295159 40.522583 
L 639.591585 39.760272 
L 640.88801 39.337656 
L 642.184435 40.099967 
L 643.480861 39.823472 
L 644.777286 40.218462 
L 646.073711 39.452198 
L 647.370137 39.815567 
L 648.666562 39.48773 
L 649.962988 38.571393 
L 651.259413 40.202652 
L 652.555838 39.661541 
L 653.852264 38.448946 
L 655.148689 39.799778 
L 656.445114 39.183609 
L 657.74154 39.005867 
L 659.037965 38.990057 
L 660.334391 39.78792 
L 661.630816 40.293499 
L 662.927241 39.132246 
L 664.223667 38.847867 
L 665.520092 38.749114 
L 668.112943 39.057209 
L 669.409368 37.903861 
L 670.705794 39.507493 
L 672.002219 39.120409 
L 673.298644 39.187561 
L 674.59507 38.934762 
L 675.891495 39.080904 
L 677.18792 39.653635 
L 678.484346 38.59904 
L 679.780771 39.341588 
L 681.077196 38.259346 
L 682.373622 39.400836 
L 683.670047 38.298851 
L 684.966473 38.429183 
L 686.262898 38.053956 
L 687.559323 37.824872 
L 688.855749 38.689888 
L 690.152174 38.215909 
L 691.448599 38.496335 
L 692.745025 38.034214 
L 695.337876 38.338335 
L 696.634301 38.70963 
L 697.930726 37.263998 
L 699.227152 37.177103 
L 701.820002 38.654335 
L 703.116428 37.339035 
L 705.709279 38.555583 
L 707.005704 36.920371 
L 708.302129 37.990756 
L 709.598555 37.828824 
L 710.89498 37.109951 
L 712.191405 37.639224 
L 714.784256 37.777462 
L 716.080682 37.714282 
L 717.377107 36.778161 
L 718.673532 36.387145 
L 721.266383 38.081604 
L 722.562808 37.062561 
L 729.044935 38.109251 
L 730.341361 36.23705 
L 731.637786 37.161293 
L 732.934211 38.306756 
L 734.230637 37.591835 
L 736.823487 36.995408 
L 738.119913 37.216608 
L 739.416338 36.22124 
L 740.712764 36.477992 
L 742.009189 36.244935 
L 743.305614 36.454277 
L 744.60204 37.086256 
L 745.898465 37.22054 
L 747.19489 35.360197 
L 748.491316 36.774229 
L 749.787741 36.679429 
L 751.084167 36.880866 
L 752.380592 36.663619 
L 753.677017 37.516777 
L 754.973443 36.596487 
L 756.269868 37.169198 
L 757.566293 36.560934 
L 758.862719 35.553729 
L 760.159144 37.027008 
L 761.455569 36.679429 
L 762.751995 36.920371 
L 764.04842 35.628766 
L 765.344846 37.102046 
L 766.641271 35.790719 
L 767.937696 35.944766 
L 769.234122 36.770277 
L 773.123398 35.972413 
L 774.419823 36.632019 
L 775.716249 36.402935 
L 777.012674 36.991456 
L 778.309099 36.126461 
L 780.90195 35.972413 
L 782.198375 36.414792 
L 783.494801 37.256093 
L 784.791226 35.411539 
L 786.087652 36.193593 
L 787.384077 35.849966 
L 789.976928 37.082303 
L 791.273353 35.909213 
L 793.866204 35.802556 
L 795.162629 35.632719 
L 795.162629 35.632719 
" clip-path="url(#pb333879ef6)" style="fill: none; stroke: #1f77b4; stroke-width: 1.5; stroke-linecap: square"/>
   </g>
   <g id="line2d_31">
    <path d="M 472.352712 132.042009 
L 473.649137 76.708499 
L 474.945563 65.745174 
L 476.241988 50.755607 
L 477.538413 50.864415 
L 478.834839 46.538947 
L 480.131264 41.397327 
L 481.427689 49.749057 
L 482.724115 42.920781 
L 484.02054 42.621534 
L 485.316965 41.723792 
L 486.613391 39.16659 
L 487.909816 34.269804 
L 489.206242 35.4124 
L 490.502667 35.303571 
L 491.799092 43.002392 
L 493.095518 34.977127 
L 494.391943 38.568096 
L 495.688368 38.486485 
L 496.984794 31.522183 
L 498.281219 29.917118 
L 499.577645 36.119702 
L 500.87407 32.528734 
L 502.170495 29.400255 
L 503.466921 30.923689 
L 504.763346 31.331744 
L 506.059771 29.617871 
L 507.356197 30.733249 
L 508.652622 30.189169 
L 509.949048 28.883371 
L 511.245473 35.085935 
L 512.541898 32.202289 
L 513.838324 30.406805 
L 515.134749 30.842078 
L 516.431174 30.678855 
L 517.7276 37.044641 
L 520.320451 23.986584 
L 521.616876 31.250133 
L 522.913301 33.344865 
L 524.209727 33.780137 
L 525.506152 31.630991 
L 526.802577 28.312073 
L 528.099003 26.87025 
L 529.395428 22.571979 
L 530.691853 31.086911 
L 531.988279 23.986584 
L 533.284704 30.297997 
L 534.58113 23.823362 
L 535.877555 31.222936 
L 537.17398 28.502513 
L 538.470406 28.393684 
L 539.766831 24.231438 
L 541.063256 29.07379 
L 542.359682 26.843033 
L 543.656107 25.346817 
L 544.952533 26.217341 
L 546.248958 27.849604 
L 547.545383 26.979058 
L 550.138234 24.585079 
L 551.434659 31.086911 
L 552.731085 25.101963 
L 554.02751 26.516589 
L 555.323936 24.721104 
L 556.620361 26.489392 
L 557.916786 24.557882 
L 559.213212 29.345841 
L 560.509637 25.265185 
L 563.102488 25.319599 
L 564.398913 26.788639 
L 565.695338 21.347772 
L 566.991764 24.177024 
L 568.288189 27.387134 
L 569.584615 22.544762 
L 570.88104 23.034448 
L 572.177465 21.320575 
L 573.473891 22.762398 
L 574.770316 27.577553 
L 576.066741 25.482821 
L 577.363167 22.245514 
L 578.659592 28.475295 
L 579.956018 27.740775 
L 581.252443 25.292402 
L 582.548868 29.971532 
L 583.845294 23.007231 
L 585.141719 24.313049 
L 586.438144 26.571003 
L 587.73457 27.14228 
L 589.030995 25.999705 
L 590.327421 24.095413 
L 591.623846 21.510994 
L 592.920271 23.605726 
L 594.216697 22.490368 
L 595.513122 25.265185 
L 596.809547 24.938741 
L 598.105973 25.673261 
L 599.402398 24.258635 
L 600.698823 23.333696 
L 601.995249 22.980034 
L 603.291674 20.749277 
L 604.5881 22.408736 
L 605.884525 23.469721 
L 607.18095 21.075742 
L 608.477376 20.613272 
L 609.773801 21.810242 
L 611.070226 19.117035 
L 612.366652 24.421857 
L 613.663077 23.224867 
L 614.959503 22.327125 
L 616.255928 21.238964 
L 617.552353 23.061645 
L 618.848779 21.592626 
L 620.145204 22.245514 
L 621.441629 25.020352 
L 622.738055 24.313049 
L 624.03448 22.980034 
L 625.330906 26.407781 
L 626.627331 20.45003 
L 629.220182 23.768968 
L 630.516607 22.082292 
L 631.813032 22.299928 
L 633.109458 23.170474 
L 634.405883 23.768968 
L 635.702309 22.789615 
L 636.998734 23.932191 
L 638.295159 21.130136 
L 639.591585 25.319599 
L 640.88801 25.510039 
L 642.184435 23.877776 
L 643.480861 23.578529 
L 644.777286 22.408736 
L 646.073711 22.65359 
L 647.370137 24.39466 
L 648.666562 24.12261 
L 649.962988 27.251109 
L 651.259413 20.259611 
L 652.555838 22.272732 
L 653.852264 23.088842 
L 655.148689 22.000681 
L 656.445114 27.223912 
L 657.74154 23.796165 
L 659.037965 22.000681 
L 661.630816 21.402186 
L 662.927241 27.033472 
L 664.223667 23.034448 
L 665.520092 22.517565 
L 666.816517 25.945311 
L 668.112943 22.463151 
L 669.409368 23.11606 
L 670.705794 22.571979 
L 672.002219 22.544762 
L 673.298644 18.899399 
L 674.59507 23.170474 
L 675.891495 22.762398 
L 677.18792 25.918094 
L 678.484346 22.844009 
L 679.780771 23.252085 
L 681.077196 22.898423 
L 682.373622 20.776495 
L 683.670047 23.524115 
L 684.966473 25.074766 
L 686.262898 24.095413 
L 687.559323 20.069171 
L 688.855749 22.000681 
L 690.152174 27.087887 
L 692.745025 19.960363 
L 694.04145 26.190145 
L 695.337876 21.701434 
L 697.930726 23.823362 
L 699.227152 19.933146 
L 700.523577 26.13573 
L 701.820002 24.149827 
L 703.116428 22.680787 
L 704.412853 20.586055 
L 705.709279 23.632943 
L 707.005704 26.190145 
L 708.302129 24.367463 
L 709.598555 19.688313 
L 710.89498 24.313049 
L 712.191405 20.694883 
L 713.487831 21.102939 
L 714.784256 22.952837 
L 717.377107 21.293378 
L 718.673532 23.687337 
L 719.969958 21.647019 
L 721.266383 21.592626 
L 722.562808 22.707984 
L 723.859234 21.674237 
L 725.155659 20.205197 
L 726.452084 19.71553 
L 727.74851 22.544762 
L 729.044935 19.905949 
L 730.341361 20.205197 
L 731.637786 21.565408 
L 732.934211 19.225843 
L 734.230637 20.694883 
L 735.527062 20.749277 
L 736.823487 23.796165 
L 738.119913 21.72863 
L 739.416338 20.694883 
L 740.712764 22.435954 
L 742.009189 21.102939 
L 743.305614 21.048525 
L 744.60204 20.069171 
L 745.898465 22.626373 
L 747.19489 21.510994 
L 748.491316 23.061645 
L 749.787741 20.069171 
L 751.084167 22.626373 
L 752.380592 20.91252 
L 753.677017 18.654545 
L 754.973443 20.91252 
L 756.269868 22.055095 
L 757.566293 22.517565 
L 758.862719 21.946267 
L 760.159144 21.72863 
L 761.455569 23.415307 
L 762.751995 22.136706 
L 764.04842 21.021328 
L 765.344846 19.742727 
L 766.641271 23.496918 
L 767.937696 24.557882 
L 769.234122 22.082292 
L 770.530547 24.177024 
L 771.826972 19.905949 
L 773.123398 18.763374 
L 774.419823 20.205197 
L 775.716249 20.966914 
L 777.012674 19.769924 
L 778.309099 19.824338 
L 779.605525 20.749277 
L 780.90195 26.190145 
L 782.198375 24.013802 
L 783.494801 20.72208 
L 784.791226 20.640469 
L 786.087652 23.714554 
L 787.384077 20.477247 
L 788.680502 20.014778 
L 789.976928 20.994131 
L 791.273353 20.096389 
L 792.569778 20.232393 
L 793.866204 22.027878 
L 795.162629 19.661116 
L 795.162629 19.661116 
" clip-path="url(#pb333879ef6)" style="fill: none; stroke: #ff7f0e; stroke-width: 1.5; stroke-linecap: square"/>
   </g>
   <g id="patch_9">
    <path d="M 456.212216 259.2 
L 456.212216 7.2 
" style="fill: none; stroke: #000000; stroke-width: 0.8; stroke-linejoin: miter; stroke-linecap: square"/>
   </g>
   <g id="patch_10">
    <path d="M 811.303125 259.2 
L 811.303125 7.2 
" style="fill: none; stroke: #000000; stroke-width: 0.8; stroke-linejoin: miter; stroke-linecap: square"/>
   </g>
   <g id="patch_11">
    <path d="M 456.212216 259.2 
L 811.303125 259.2 
" style="fill: none; stroke: #000000; stroke-width: 0.8; stroke-linejoin: miter; stroke-linecap: square"/>
   </g>
   <g id="patch_12">
    <path d="M 456.212216 7.2 
L 811.303125 7.2 
" style="fill: none; stroke: #000000; stroke-width: 0.8; stroke-linejoin: miter; stroke-linecap: square"/>
   </g>
   <g id="legend_2">
    <g id="patch_13">
     <path d="M 726.903125 254.2 
L 804.303125 254.2 
Q 806.303125 254.2 806.303125 252.2 
L 806.303125 223.2875 
Q 806.303125 221.2875 804.303125 221.2875 
L 726.903125 221.2875 
Q 724.903125 221.2875 724.903125 223.2875 
L 724.903125 252.2 
Q 724.903125 254.2 726.903125 254.2 
z
" style="fill: #ffffff; opacity: 0.8; stroke: #cccccc; stroke-linejoin: miter"/>
    </g>
    <g id="line2d_32">
     <path d="M 728.903125 229.385937 
L 738.903125 229.385937 
L 748.903125 229.385937 
" style="fill: none; stroke: #1f77b4; stroke-width: 1.5; stroke-linecap: square"/>
    </g>
    <g id="text_28">
     <!-- train_acc -->
     <g transform="translate(756.903125 232.885937) scale(0.1 -0.1)">
      <defs>
       <path id="DejaVuSans-63" d="M 3122 3366 
L 3122 2828 
Q 2878 2963 2633 3030 
Q 2388 3097 2138 3097 
Q 1578 3097 1268 2742 
Q 959 2388 959 1747 
Q 959 1106 1268 751 
Q 1578 397 2138 397 
Q 2388 397 2633 464 
Q 2878 531 3122 666 
L 3122 134 
Q 2881 22 2623 -34 
Q 2366 -91 2075 -91 
Q 1284 -91 818 406 
Q 353 903 353 1747 
Q 353 2603 823 3093 
Q 1294 3584 2113 3584 
Q 2378 3584 2631 3529 
Q 2884 3475 3122 3366 
z
" transform="scale(0.015625)"/>
      </defs>
      <use xlink:href="#DejaVuSans-74"/>
      <use xlink:href="#DejaVuSans-72" x="39.208984"/>
      <use xlink:href="#DejaVuSans-61" x="80.322266"/>
      <use xlink:href="#DejaVuSans-69" x="141.601562"/>
      <use xlink:href="#DejaVuSans-6e" x="169.384766"/>
      <use xlink:href="#DejaVuSans-5f" x="232.763672"/>
      <use xlink:href="#DejaVuSans-61" x="282.763672"/>
      <use xlink:href="#DejaVuSans-63" x="344.042969"/>
      <use xlink:href="#DejaVuSans-63" x="399.023438"/>
     </g>
    </g>
    <g id="line2d_33">
     <path d="M 728.903125 244.342187 
L 738.903125 244.342187 
L 748.903125 244.342187 
" style="fill: none; stroke: #ff7f0e; stroke-width: 1.5; stroke-linecap: square"/>
    </g>
    <g id="text_29">
     <!-- val_acc -->
     <g transform="translate(756.903125 247.842187) scale(0.1 -0.1)">
      <use xlink:href="#DejaVuSans-76"/>
      <use xlink:href="#DejaVuSans-61" x="59.179688"/>
      <use xlink:href="#DejaVuSans-6c" x="120.458984"/>
      <use xlink:href="#DejaVuSans-5f" x="148.242188"/>
      <use xlink:href="#DejaVuSans-61" x="198.242188"/>
      <use xlink:href="#DejaVuSans-63" x="259.521484"/>
      <use xlink:href="#DejaVuSans-63" x="314.501953"/>
     </g>
    </g>
   </g>
  </g>
 </g>
 <defs>
  <clipPath id="pe58190675f">
   <rect x="30.103125" y="7.2" width="355.090909" height="252"/>
  </clipPath>
  <clipPath id="pb333879ef6">
   <rect x="456.212216" y="7.2" width="355.090909" height="252"/>
  </clipPath>
 </defs>
</svg>
