<?xml version="1.0" encoding="utf-8" standalone="no"?>
<!DOCTYPE svg PUBLIC "-//W3C//DTD SVG 1.1//EN"
  "http://www.w3.org/Graphics/SVG/1.1/DTD/svg11.dtd">
<svg xmlns:xlink="http://www.w3.org/1999/xlink" width="818.503125pt" height="286.587436pt" viewBox="0 0 818.503125 286.587436" xmlns="http://www.w3.org/2000/svg" version="1.1">
 <metadata>
  <rdf:RDF xmlns:dc="http://purl.org/dc/elements/1.1/" xmlns:cc="http://creativecommons.org/ns#" xmlns:rdf="http://www.w3.org/1999/02/22-rdf-syntax-ns#">
   <cc:Work>
    <dc:type rdf:resource="http://purl.org/dc/dcmitype/StillImage"/>
    <dc:date>2023-01-22T17:39:48.783925</dc:date>
    <dc:format>image/svg+xml</dc:format>
    <dc:creator>
     <cc:Agent>
      <dc:title>Matplotlib v3.6.2, https://matplotlib.org/</dc:title>
     </cc:Agent>
    </dc:creator>
   </cc:Work>
  </rdf:RDF>
 </metadata>
 <defs>
  <style type="text/css">*{stroke-linejoin: round; stroke-linecap: butt}</style>
 </defs>
 <g id="figure_1">
  <g id="patch_1">
   <path d="M 0 286.587436 
L 818.503125 286.587436 
L 818.503125 0 
L 0 0 
z
" style="fill: #ffffff"/>
  </g>
  <g id="axes_1">
   <g id="patch_2">
    <path d="M 30.103125 262.709311 
L 385.194034 262.709311 
L 385.194034 10.709311 
L 30.103125 10.709311 
z
" style="fill: #ffffff"/>
   </g>
   <g id="matplotlib.axis_1">
    <g id="xtick_1">
     <g id="line2d_1">
      <defs>
       <path id="ma4ee27c16e" d="M 0 0 
L 0 3.5 
" style="stroke: #000000; stroke-width: 0.8"/>
      </defs>
      <g>
       <use xlink:href="#ma4ee27c16e" x="46.243621" y="262.709311" style="stroke: #000000; stroke-width: 0.8"/>
      </g>
     </g>
     <g id="text_1">
      <!-- 0 -->
      <g transform="translate(43.062371 277.307748) scale(0.1 -0.1)">
       <defs>
        <path id="DejaVuSans-30" d="M 2034 4250 
Q 1547 4250 1301 3770 
Q 1056 3291 1056 2328 
Q 1056 1369 1301 889 
Q 1547 409 2034 409 
Q 2525 409 2770 889 
Q 3016 1369 3016 2328 
Q 3016 3291 2770 3770 
Q 2525 4250 2034 4250 
z
M 2034 4750 
Q 2819 4750 3233 4129 
Q 3647 3509 3647 2328 
Q 3647 1150 3233 529 
Q 2819 -91 2034 -91 
Q 1250 -91 836 529 
Q 422 1150 422 2328 
Q 422 3509 836 4129 
Q 1250 4750 2034 4750 
z
" transform="scale(0.015625)"/>
       </defs>
       <use xlink:href="#DejaVuSans-30"/>
      </g>
     </g>
    </g>
    <g id="xtick_2">
     <g id="line2d_2">
      <g>
       <use xlink:href="#ma4ee27c16e" x="111.064889" y="262.709311" style="stroke: #000000; stroke-width: 0.8"/>
      </g>
     </g>
     <g id="text_2">
      <!-- 50 -->
      <g transform="translate(104.702389 277.307748) scale(0.1 -0.1)">
       <defs>
        <path id="DejaVuSans-35" d="M 691 4666 
L 3169 4666 
L 3169 4134 
L 1269 4134 
L 1269 2991 
Q 1406 3038 1543 3061 
Q 1681 3084 1819 3084 
Q 2600 3084 3056 2656 
Q 3513 2228 3513 1497 
Q 3513 744 3044 326 
Q 2575 -91 1722 -91 
Q 1428 -91 1123 -41 
Q 819 9 494 109 
L 494 744 
Q 775 591 1075 516 
Q 1375 441 1709 441 
Q 2250 441 2565 725 
Q 2881 1009 2881 1497 
Q 2881 1984 2565 2268 
Q 2250 2553 1709 2553 
Q 1456 2553 1204 2497 
Q 953 2441 691 2322 
L 691 4666 
z
" transform="scale(0.015625)"/>
       </defs>
       <use xlink:href="#DejaVuSans-35"/>
       <use xlink:href="#DejaVuSans-30" x="63.623047"/>
      </g>
     </g>
    </g>
    <g id="xtick_3">
     <g id="line2d_3">
      <g>
       <use xlink:href="#ma4ee27c16e" x="175.886158" y="262.709311" style="stroke: #000000; stroke-width: 0.8"/>
      </g>
     </g>
     <g id="text_3">
      <!-- 100 -->
      <g transform="translate(166.342408 277.307748) scale(0.1 -0.1)">
       <defs>
        <path id="DejaVuSans-31" d="M 794 531 
L 1825 531 
L 1825 4091 
L 703 3866 
L 703 4441 
L 1819 4666 
L 2450 4666 
L 2450 531 
L 3481 531 
L 3481 0 
L 794 0 
L 794 531 
z
" transform="scale(0.015625)"/>
       </defs>
       <use xlink:href="#DejaVuSans-31"/>
       <use xlink:href="#DejaVuSans-30" x="63.623047"/>
       <use xlink:href="#DejaVuSans-30" x="127.246094"/>
      </g>
     </g>
    </g>
    <g id="xtick_4">
     <g id="line2d_4">
      <g>
       <use xlink:href="#ma4ee27c16e" x="240.707427" y="262.709311" style="stroke: #000000; stroke-width: 0.8"/>
      </g>
     </g>
     <g id="text_4">
      <!-- 150 -->
      <g transform="translate(231.163677 277.307748) scale(0.1 -0.1)">
       <use xlink:href="#DejaVuSans-31"/>
       <use xlink:href="#DejaVuSans-35" x="63.623047"/>
       <use xlink:href="#DejaVuSans-30" x="127.246094"/>
      </g>
     </g>
    </g>
    <g id="xtick_5">
     <g id="line2d_5">
      <g>
       <use xlink:href="#ma4ee27c16e" x="305.528695" y="262.709311" style="stroke: #000000; stroke-width: 0.8"/>
      </g>
     </g>
     <g id="text_5">
      <!-- 200 -->
      <g transform="translate(295.984945 277.307748) scale(0.1 -0.1)">
       <defs>
        <path id="DejaVuSans-32" d="M 1228 531 
L 3431 531 
L 3431 0 
L 469 0 
L 469 531 
Q 828 903 1448 1529 
Q 2069 2156 2228 2338 
Q 2531 2678 2651 2914 
Q 2772 3150 2772 3378 
Q 2772 3750 2511 3984 
Q 2250 4219 1831 4219 
Q 1534 4219 1204 4116 
Q 875 4013 500 3803 
L 500 4441 
Q 881 4594 1212 4672 
Q 1544 4750 1819 4750 
Q 2544 4750 2975 4387 
Q 3406 4025 3406 3419 
Q 3406 3131 3298 2873 
Q 3191 2616 2906 2266 
Q 2828 2175 2409 1742 
Q 1991 1309 1228 531 
z
" transform="scale(0.015625)"/>
       </defs>
       <use xlink:href="#DejaVuSans-32"/>
       <use xlink:href="#DejaVuSans-30" x="63.623047"/>
       <use xlink:href="#DejaVuSans-30" x="127.246094"/>
      </g>
     </g>
    </g>
    <g id="xtick_6">
     <g id="line2d_6">
      <g>
       <use xlink:href="#ma4ee27c16e" x="370.349964" y="262.709311" style="stroke: #000000; stroke-width: 0.8"/>
      </g>
     </g>
     <g id="text_6">
      <!-- 250 -->
      <g transform="translate(360.806214 277.307748) scale(0.1 -0.1)">
       <use xlink:href="#DejaVuSans-32"/>
       <use xlink:href="#DejaVuSans-35" x="63.623047"/>
       <use xlink:href="#DejaVuSans-30" x="127.246094"/>
      </g>
     </g>
    </g>
   </g>
   <g id="matplotlib.axis_2">
    <g id="ytick_1">
     <g id="line2d_7">
      <defs>
       <path id="m3eceabb4f6" d="M 0 0 
L -3.5 0 
" style="stroke: #000000; stroke-width: 0.8"/>
      </defs>
      <g>
       <use xlink:href="#m3eceabb4f6" x="30.103125" y="234.803269" style="stroke: #000000; stroke-width: 0.8"/>
      </g>
     </g>
     <g id="text_7">
      <!-- 0.2 -->
      <g transform="translate(7.2 238.602488) scale(0.1 -0.1)">
       <defs>
        <path id="DejaVuSans-2e" d="M 684 794 
L 1344 794 
L 1344 0 
L 684 0 
L 684 794 
z
" transform="scale(0.015625)"/>
       </defs>
       <use xlink:href="#DejaVuSans-30"/>
       <use xlink:href="#DejaVuSans-2e" x="63.623047"/>
       <use xlink:href="#DejaVuSans-32" x="95.410156"/>
      </g>
     </g>
    </g>
    <g id="ytick_2">
     <g id="line2d_8">
      <g>
       <use xlink:href="#m3eceabb4f6" x="30.103125" y="206.032051" style="stroke: #000000; stroke-width: 0.8"/>
      </g>
     </g>
     <g id="text_8">
      <!-- 0.4 -->
      <g transform="translate(7.2 209.83127) scale(0.1 -0.1)">
       <defs>
        <path id="DejaVuSans-34" d="M 2419 4116 
L 825 1625 
L 2419 1625 
L 2419 4116 
z
M 2253 4666 
L 3047 4666 
L 3047 1625 
L 3713 1625 
L 3713 1100 
L 3047 1100 
L 3047 0 
L 2419 0 
L 2419 1100 
L 313 1100 
L 313 1709 
L 2253 4666 
z
" transform="scale(0.015625)"/>
       </defs>
       <use xlink:href="#DejaVuSans-30"/>
       <use xlink:href="#DejaVuSans-2e" x="63.623047"/>
       <use xlink:href="#DejaVuSans-34" x="95.410156"/>
      </g>
     </g>
    </g>
    <g id="ytick_3">
     <g id="line2d_9">
      <g>
       <use xlink:href="#m3eceabb4f6" x="30.103125" y="177.260833" style="stroke: #000000; stroke-width: 0.8"/>
      </g>
     </g>
     <g id="text_9">
      <!-- 0.6 -->
      <g transform="translate(7.2 181.060052) scale(0.1 -0.1)">
       <defs>
        <path id="DejaVuSans-36" d="M 2113 2584 
Q 1688 2584 1439 2293 
Q 1191 2003 1191 1497 
Q 1191 994 1439 701 
Q 1688 409 2113 409 
Q 2538 409 2786 701 
Q 3034 994 3034 1497 
Q 3034 2003 2786 2293 
Q 2538 2584 2113 2584 
z
M 3366 4563 
L 3366 3988 
Q 3128 4100 2886 4159 
Q 2644 4219 2406 4219 
Q 1781 4219 1451 3797 
Q 1122 3375 1075 2522 
Q 1259 2794 1537 2939 
Q 1816 3084 2150 3084 
Q 2853 3084 3261 2657 
Q 3669 2231 3669 1497 
Q 3669 778 3244 343 
Q 2819 -91 2113 -91 
Q 1303 -91 875 529 
Q 447 1150 447 2328 
Q 447 3434 972 4092 
Q 1497 4750 2381 4750 
Q 2619 4750 2861 4703 
Q 3103 4656 3366 4563 
z
" transform="scale(0.015625)"/>
       </defs>
       <use xlink:href="#DejaVuSans-30"/>
       <use xlink:href="#DejaVuSans-2e" x="63.623047"/>
       <use xlink:href="#DejaVuSans-36" x="95.410156"/>
      </g>
     </g>
    </g>
    <g id="ytick_4">
     <g id="line2d_10">
      <g>
       <use xlink:href="#m3eceabb4f6" x="30.103125" y="148.489615" style="stroke: #000000; stroke-width: 0.8"/>
      </g>
     </g>
     <g id="text_10">
      <!-- 0.8 -->
      <g transform="translate(7.2 152.288834) scale(0.1 -0.1)">
       <defs>
        <path id="DejaVuSans-38" d="M 2034 2216 
Q 1584 2216 1326 1975 
Q 1069 1734 1069 1313 
Q 1069 891 1326 650 
Q 1584 409 2034 409 
Q 2484 409 2743 651 
Q 3003 894 3003 1313 
Q 3003 1734 2745 1975 
Q 2488 2216 2034 2216 
z
M 1403 2484 
Q 997 2584 770 2862 
Q 544 3141 544 3541 
Q 544 4100 942 4425 
Q 1341 4750 2034 4750 
Q 2731 4750 3128 4425 
Q 3525 4100 3525 3541 
Q 3525 3141 3298 2862 
Q 3072 2584 2669 2484 
Q 3125 2378 3379 2068 
Q 3634 1759 3634 1313 
Q 3634 634 3220 271 
Q 2806 -91 2034 -91 
Q 1263 -91 848 271 
Q 434 634 434 1313 
Q 434 1759 690 2068 
Q 947 2378 1403 2484 
z
M 1172 3481 
Q 1172 3119 1398 2916 
Q 1625 2713 2034 2713 
Q 2441 2713 2670 2916 
Q 2900 3119 2900 3481 
Q 2900 3844 2670 4047 
Q 2441 4250 2034 4250 
Q 1625 4250 1398 4047 
Q 1172 3844 1172 3481 
z
" transform="scale(0.015625)"/>
       </defs>
       <use xlink:href="#DejaVuSans-30"/>
       <use xlink:href="#DejaVuSans-2e" x="63.623047"/>
       <use xlink:href="#DejaVuSans-38" x="95.410156"/>
      </g>
     </g>
    </g>
    <g id="ytick_5">
     <g id="line2d_11">
      <g>
       <use xlink:href="#m3eceabb4f6" x="30.103125" y="119.718397" style="stroke: #000000; stroke-width: 0.8"/>
      </g>
     </g>
     <g id="text_11">
      <!-- 1.0 -->
      <g transform="translate(7.2 123.517616) scale(0.1 -0.1)">
       <use xlink:href="#DejaVuSans-31"/>
       <use xlink:href="#DejaVuSans-2e" x="63.623047"/>
       <use xlink:href="#DejaVuSans-30" x="95.410156"/>
      </g>
     </g>
    </g>
    <g id="ytick_6">
     <g id="line2d_12">
      <g>
       <use xlink:href="#m3eceabb4f6" x="30.103125" y="90.947179" style="stroke: #000000; stroke-width: 0.8"/>
      </g>
     </g>
     <g id="text_12">
      <!-- 1.2 -->
      <g transform="translate(7.2 94.746398) scale(0.1 -0.1)">
       <use xlink:href="#DejaVuSans-31"/>
       <use xlink:href="#DejaVuSans-2e" x="63.623047"/>
       <use xlink:href="#DejaVuSans-32" x="95.410156"/>
      </g>
     </g>
    </g>
    <g id="ytick_7">
     <g id="line2d_13">
      <g>
       <use xlink:href="#m3eceabb4f6" x="30.103125" y="62.175961" style="stroke: #000000; stroke-width: 0.8"/>
      </g>
     </g>
     <g id="text_13">
      <!-- 1.4 -->
      <g transform="translate(7.2 65.97518) scale(0.1 -0.1)">
       <use xlink:href="#DejaVuSans-31"/>
       <use xlink:href="#DejaVuSans-2e" x="63.623047"/>
       <use xlink:href="#DejaVuSans-34" x="95.410156"/>
      </g>
     </g>
    </g>
    <g id="ytick_8">
     <g id="line2d_14">
      <g>
       <use xlink:href="#m3eceabb4f6" x="30.103125" y="33.404743" style="stroke: #000000; stroke-width: 0.8"/>
      </g>
     </g>
     <g id="text_14">
      <!-- 1.6 -->
      <g transform="translate(7.2 37.203962) scale(0.1 -0.1)">
       <use xlink:href="#DejaVuSans-31"/>
       <use xlink:href="#DejaVuSans-2e" x="63.623047"/>
       <use xlink:href="#DejaVuSans-36" x="95.410156"/>
      </g>
     </g>
    </g>
   </g>
   <g id="line2d_15">
    <path d="M 46.243621 22.163856 
L 47.540046 166.456251 
L 48.836472 189.467132 
L 50.132897 201.007651 
L 51.429322 209.25094 
L 54.022173 218.453431 
L 55.318598 219.967763 
L 56.615024 223.243751 
L 59.207875 226.990555 
L 60.5043 228.108945 
L 61.800725 230.845766 
L 63.097151 231.307588 
L 64.393576 231.63326 
L 66.986427 233.972283 
L 68.282852 234.645299 
L 69.579278 235.065436 
L 70.875703 235.159498 
L 72.172128 236.418197 
L 73.468554 238.109194 
L 74.764979 236.970915 
L 76.061404 238.211245 
L 77.35783 237.372531 
L 78.654255 238.317215 
L 79.950681 238.62364 
L 81.247106 239.523106 
L 82.543531 239.336058 
L 83.839957 240.347648 
L 85.136382 239.756568 
L 86.432807 240.456064 
L 87.729233 240.23248 
L 89.025658 240.614889 
L 90.322083 240.824221 
L 91.618509 241.601899 
L 92.914934 241.120409 
L 94.21136 243.152073 
L 96.80421 241.000281 
L 98.100636 242.919966 
L 99.397061 241.318386 
L 100.693486 243.280585 
L 101.989912 242.9703 
L 103.286337 243.173288 
L 104.582763 243.249741 
L 105.879188 243.653805 
L 107.175613 243.241897 
L 108.472039 243.631027 
L 109.768464 243.104647 
L 111.064889 244.294146 
L 112.361315 244.147157 
L 113.65774 243.687723 
L 114.954166 244.876574 
L 116.250591 243.451794 
L 117.547016 244.759494 
L 118.843442 245.361854 
L 120.139867 244.346135 
L 121.436292 244.72708 
L 122.732718 244.672051 
L 124.029143 245.78568 
L 125.325568 244.692377 
L 126.621994 244.611451 
L 127.918419 245.764713 
L 129.214845 245.335949 
L 130.51127 245.313693 
L 131.807695 244.943123 
L 133.104121 245.228772 
L 134.400546 245.855478 
L 135.696971 245.942939 
L 136.993397 245.560189 
L 138.289822 246.410717 
L 139.586248 245.314397 
L 140.882673 246.517115 
L 142.179098 245.18597 
L 143.475524 246.97989 
L 146.068374 246.233701 
L 147.3648 247.2713 
L 148.661225 245.8077 
L 149.957651 245.768531 
L 151.254076 246.875488 
L 152.550501 246.968339 
L 155.143352 246.419514 
L 156.439777 246.67574 
L 157.736203 247.696205 
L 159.032628 245.328236 
L 160.329054 247.112734 
L 161.625479 246.579334 
L 162.921904 247.393842 
L 164.21833 247.21679 
L 165.514755 246.536715 
L 166.81118 247.969746 
L 168.107606 246.378689 
L 169.404031 247.435179 
L 171.996882 247.624077 
L 174.589733 247.821916 
L 175.886158 246.445319 
L 177.182583 247.401085 
L 179.775434 247.883163 
L 181.071859 246.613073 
L 182.368285 247.415059 
L 183.66471 248.354873 
L 184.961136 247.278998 
L 186.257561 247.085543 
L 188.850412 247.995125 
L 190.146837 247.925497 
L 191.443262 247.392856 
L 192.739688 247.821268 
L 194.036113 248.966458 
L 195.332539 247.631806 
L 196.628964 248.296841 
L 197.925389 248.117983 
L 199.221815 247.618877 
L 200.51824 248.525832 
L 201.814665 247.852697 
L 203.111091 248.494799 
L 205.703941 248.01103 
L 207.000367 248.486465 
L 208.296792 248.312924 
L 209.593218 247.239561 
L 210.889643 248.83649 
L 212.186068 248.495246 
L 213.482494 248.777792 
L 214.778919 247.802372 
L 216.075344 247.280465 
L 217.37177 249.180796 
L 218.668195 248.689137 
L 219.964621 248.455764 
L 221.261046 247.252919 
L 222.557471 248.905586 
L 223.853897 248.394476 
L 225.150322 248.730401 
L 226.446747 247.851028 
L 227.743173 249.103975 
L 229.039598 248.96977 
L 230.336024 249.330562 
L 231.632449 248.978543 
L 232.928874 248.384492 
L 234.2253 249.101981 
L 236.81815 248.171703 
L 238.114576 249.592487 
L 239.411001 249.173958 
L 242.003852 249.577208 
L 243.300277 248.268938 
L 244.596703 248.790584 
L 245.893128 249.088169 
L 247.189553 249.605989 
L 248.485979 249.311501 
L 249.782404 248.620093 
L 251.078829 248.154094 
L 252.375255 248.850707 
L 253.67168 248.728907 
L 254.968106 249.503617 
L 256.264531 249.281309 
L 257.560956 248.543625 
L 258.857382 249.241997 
L 260.153807 249.797959 
L 261.450232 249.035525 
L 262.746658 248.659941 
L 264.043083 249.46421 
L 265.339509 248.901543 
L 267.932359 249.869638 
L 270.52521 250.373488 
L 271.821635 248.489133 
L 274.414486 249.577281 
L 275.710912 249.632694 
L 277.007337 249.4843 
L 278.303762 248.670295 
L 279.600188 249.778516 
L 280.896613 249.185986 
L 282.193038 250.076223 
L 283.489464 248.794918 
L 284.785889 249.483959 
L 286.082314 249.329319 
L 287.37874 249.637104 
L 288.675165 249.721953 
L 289.971591 250.24774 
L 291.268016 249.187235 
L 292.564441 249.347675 
L 293.860867 249.258491 
L 295.157292 249.545634 
L 296.453717 249.642743 
L 297.750143 250.193908 
L 299.046568 248.837573 
L 300.342994 249.717622 
L 302.935844 249.440651 
L 304.23227 248.863979 
L 305.528695 249.790189 
L 306.82512 249.856084 
L 308.121546 250.211629 
L 310.714397 250.018171 
L 312.010822 248.396957 
L 313.307247 249.833515 
L 314.603673 250.146286 
L 317.196523 248.899042 
L 319.789374 250.587025 
L 321.085799 249.544525 
L 322.382225 250.120871 
L 323.67865 250.917041 
L 324.975076 250.37551 
L 326.271501 248.919265 
L 327.567926 249.309118 
L 328.864352 250.200891 
L 330.160777 249.295926 
L 331.457202 249.204557 
L 332.753628 250.471861 
L 334.050053 249.728094 
L 335.346479 250.279989 
L 336.642904 249.356458 
L 337.939329 249.461897 
L 340.53218 250.450117 
L 341.828605 250.441818 
L 343.125031 249.205138 
L 344.421456 250.242178 
L 345.717882 250.497893 
L 347.014307 249.699918 
L 348.310732 250.18548 
L 349.607158 249.665941 
L 350.903583 250.651616 
L 352.200008 250.335205 
L 353.496434 251.015844 
L 354.792859 250.28913 
L 356.089285 250.503485 
L 357.38571 249.324341 
L 358.682135 249.669466 
L 359.978561 250.293998 
L 361.274986 250.242756 
L 362.571411 250.378251 
L 363.867837 249.276293 
L 365.164262 250.539941 
L 366.460687 248.316268 
L 367.757113 250.7227 
L 369.053538 251.254765 
L 369.053538 251.254765 
" clip-path="url(#pab4d535f6c)" style="fill: none; stroke: #1f77b4; stroke-width: 1.5; stroke-linecap: square"/>
   </g>
   <g id="line2d_16">
    <path d="M 46.243621 157.678141 
L 47.540046 182.792551 
L 48.836472 185.32164 
L 50.132897 203.415369 
L 51.429322 202.778121 
L 52.725748 201.778601 
L 54.022173 209.481358 
L 55.318598 209.913311 
L 56.615024 204.224016 
L 57.911449 208.668265 
L 59.207875 206.967446 
L 60.5043 206.620012 
L 61.800725 205.16859 
L 63.097151 208.122919 
L 64.393576 207.597495 
L 65.690001 208.60715 
L 66.986427 215.398353 
L 68.282852 212.366361 
L 69.579278 211.749272 
L 70.875703 213.129392 
L 72.172128 211.573568 
L 73.468554 209.463699 
L 74.764979 212.235137 
L 76.061404 208.357268 
L 77.35783 209.220766 
L 78.654255 207.028363 
L 79.950681 213.589007 
L 81.247106 211.047918 
L 82.543531 213.852685 
L 83.839957 213.894859 
L 85.136382 209.232852 
L 86.432807 210.045637 
L 87.729233 214.32159 
L 89.025658 208.779875 
L 90.322083 211.789238 
L 91.618509 208.289752 
L 92.914934 211.521585 
L 94.21136 214.450481 
L 96.80421 204.938713 
L 98.100636 214.802529 
L 99.397061 212.520076 
L 100.693486 215.043725 
L 101.989912 213.203412 
L 103.286337 213.396895 
L 104.582763 207.551557 
L 105.879188 207.969654 
L 107.175613 206.69957 
L 108.472039 216.203506 
L 109.768464 209.405319 
L 111.064889 210.235163 
L 112.361315 212.246263 
L 113.65774 212.836754 
L 114.954166 212.890014 
L 116.250591 209.23043 
L 117.547016 210.976955 
L 118.843442 201.091368 
L 120.139867 204.667639 
L 121.436292 206.493791 
L 122.732718 210.136784 
L 124.029143 202.043266 
L 125.325568 199.628024 
L 126.621994 208.789474 
L 127.918419 210.26291 
L 129.214845 205.092385 
L 130.51127 207.810113 
L 131.807695 207.897208 
L 133.104121 205.214438 
L 134.400546 208.8676 
L 135.696971 202.542713 
L 136.993397 209.146185 
L 138.289822 212.580839 
L 139.586248 210.87455 
L 140.882673 212.089007 
L 142.179098 212.837838 
L 143.475524 211.022837 
L 144.771949 211.901422 
L 146.068374 202.777761 
L 147.3648 208.189199 
L 148.661225 208.716856 
L 149.957651 206.093902 
L 151.254076 204.911111 
L 152.550501 208.687253 
L 153.846927 202.193576 
L 155.143352 209.231536 
L 156.439777 201.62739 
L 157.736203 208.219176 
L 159.032628 207.591197 
L 160.329054 204.458704 
L 161.625479 205.928942 
L 162.921904 209.124188 
L 164.21833 208.02631 
L 165.514755 206.140989 
L 166.81118 206.739351 
L 168.107606 206.633075 
L 169.404031 209.75936 
L 170.700456 205.803261 
L 171.996882 207.226558 
L 173.293307 212.797714 
L 174.589733 200.271338 
L 175.886158 202.796453 
L 177.182583 210.666053 
L 178.479009 201.123621 
L 179.775434 208.415823 
L 181.071859 205.849804 
L 182.368285 212.322743 
L 183.66471 203.035557 
L 184.961136 205.416933 
L 186.257561 204.458837 
L 187.553986 201.313915 
L 188.850412 207.623819 
L 190.146837 204.936638 
L 191.443262 209.842704 
L 192.739688 201.471896 
L 194.036113 206.367553 
L 195.332539 207.497495 
L 196.628964 203.260179 
L 197.925389 204.917782 
L 199.221815 206.788398 
L 200.51824 211.146451 
L 201.814665 207.570721 
L 203.111091 206.969071 
L 204.407516 201.995793 
L 205.703941 205.666485 
L 207.000367 209.917062 
L 208.296792 198.611283 
L 209.593218 203.637769 
L 210.889643 206.967129 
L 212.186068 207.162301 
L 213.482494 201.666631 
L 214.778919 208.35172 
L 216.075344 206.193019 
L 217.37177 206.823051 
L 218.668195 200.733881 
L 219.964621 206.782743 
L 221.261046 200.990995 
L 222.557471 204.860102 
L 223.853897 202.945791 
L 225.150322 204.810344 
L 226.446747 205.346074 
L 227.743173 207.13861 
L 229.039598 201.845186 
L 230.336024 206.551214 
L 231.632449 203.443896 
L 232.928874 201.272565 
L 234.2253 202.900192 
L 235.521725 197.970507 
L 236.81815 200.950601 
L 238.114576 200.833448 
L 239.411001 201.32324 
L 240.707427 207.902696 
L 242.003852 203.499193 
L 243.300277 202.877752 
L 244.596703 208.507343 
L 245.893128 208.536728 
L 247.189553 206.818541 
L 248.485979 195.135836 
L 249.782404 201.646344 
L 251.078829 203.004367 
L 252.375255 204.614841 
L 253.67168 204.428055 
L 254.968106 196.043956 
L 256.264531 194.927158 
L 257.560956 197.454129 
L 258.857382 207.171064 
L 260.153807 205.210134 
L 261.450232 204.533555 
L 262.746658 202.465692 
L 264.043083 197.44273 
L 266.635934 203.524076 
L 267.932359 200.944813 
L 269.228785 199.342327 
L 270.52521 192.939107 
L 271.821635 203.632286 
L 273.118061 203.132303 
L 274.414486 201.500989 
L 275.710912 200.856337 
L 277.007337 194.802987 
L 278.303762 198.778931 
L 279.600188 202.233666 
L 280.896613 201.692012 
L 282.193038 209.528175 
L 283.489464 204.358374 
L 284.785889 201.605864 
L 286.082314 197.346352 
L 287.37874 200.793581 
L 289.971591 205.978756 
L 291.268016 199.761705 
L 292.564441 201.281439 
L 293.860867 197.309898 
L 295.157292 202.779446 
L 296.453717 194.234854 
L 297.750143 202.052046 
L 299.046568 204.581131 
L 300.342994 199.737529 
L 301.639419 196.957383 
L 302.935844 188.490361 
L 304.23227 199.151759 
L 305.528695 200.765285 
L 306.82512 197.232213 
L 308.121546 204.746858 
L 309.417971 192.968307 
L 310.714397 201.704989 
L 312.010822 196.23322 
L 313.307247 201.479874 
L 314.603673 190.410344 
L 315.900098 207.001045 
L 317.196523 202.382125 
L 318.492949 196.761701 
L 319.789374 199.409336 
L 321.085799 203.256475 
L 322.382225 203.153838 
L 323.67865 196.207788 
L 324.975076 198.168869 
L 326.271501 195.137238 
L 327.567926 202.44685 
L 328.864352 186.14372 
L 330.160777 197.147167 
L 331.457202 197.453109 
L 332.753628 207.198121 
L 334.050053 196.77199 
L 335.346479 204.810438 
L 336.642904 203.654121 
L 337.939329 198.418172 
L 339.235755 194.486948 
L 341.828605 200.107025 
L 343.125031 203.611098 
L 344.421456 201.735669 
L 345.717882 202.597276 
L 347.014307 195.89879 
L 348.310732 196.248873 
L 349.607158 203.535673 
L 350.903583 198.342841 
L 352.200008 196.691698 
L 353.496434 201.124183 
L 354.792859 197.443085 
L 356.089285 200.957594 
L 357.38571 203.380925 
L 358.682135 203.934991 
L 359.978561 199.760848 
L 361.274986 199.554777 
L 362.571411 194.834481 
L 363.867837 198.793671 
L 365.164262 200.35671 
L 366.460687 200.832106 
L 367.757113 190.314944 
L 369.053538 197.779163 
L 369.053538 197.779163 
" clip-path="url(#pab4d535f6c)" style="fill: none; stroke: #ff7f0e; stroke-width: 1.5; stroke-linecap: square"/>
   </g>
   <g id="patch_3">
    <path d="M 30.103125 262.709311 
L 30.103125 10.709311 
" style="fill: none; stroke: #000000; stroke-width: 0.8; stroke-linejoin: miter; stroke-linecap: square"/>
   </g>
   <g id="patch_4">
    <path d="M 385.194034 262.709311 
L 385.194034 10.709311 
" style="fill: none; stroke: #000000; stroke-width: 0.8; stroke-linejoin: miter; stroke-linecap: square"/>
   </g>
   <g id="patch_5">
    <path d="M 30.103125 262.709311 
L 385.194034 262.709311 
" style="fill: none; stroke: #000000; stroke-width: 0.8; stroke-linejoin: miter; stroke-linecap: square"/>
   </g>
   <g id="patch_6">
    <path d="M 30.103125 10.709311 
L 385.194034 10.709311 
" style="fill: none; stroke: #000000; stroke-width: 0.8; stroke-linejoin: miter; stroke-linecap: square"/>
   </g>
   <g id="legend_1">
    <g id="patch_7">
     <path d="M 298.603409 48.621811 
L 378.194034 48.621811 
Q 380.194034 48.621811 380.194034 46.621811 
L 380.194034 17.709311 
Q 380.194034 15.709311 378.194034 15.709311 
L 298.603409 15.709311 
Q 296.603409 15.709311 296.603409 17.709311 
L 296.603409 46.621811 
Q 296.603409 48.621811 298.603409 48.621811 
z
" style="fill: #ffffff; opacity: 0.8; stroke: #cccccc; stroke-linejoin: miter"/>
    </g>
    <g id="line2d_17">
     <path d="M 300.603409 23.807748 
L 310.603409 23.807748 
L 320.603409 23.807748 
" style="fill: none; stroke: #1f77b4; stroke-width: 1.5; stroke-linecap: square"/>
    </g>
    <g id="text_15">
     <!-- train_loss -->
     <g transform="translate(328.603409 27.307748) scale(0.1 -0.1)">
      <defs>
       <path id="DejaVuSans-74" d="M 1172 4494 
L 1172 3500 
L 2356 3500 
L 2356 3053 
L 1172 3053 
L 1172 1153 
Q 1172 725 1289 603 
Q 1406 481 1766 481 
L 2356 481 
L 2356 0 
L 1766 0 
Q 1100 0 847 248 
Q 594 497 594 1153 
L 594 3053 
L 172 3053 
L 172 3500 
L 594 3500 
L 594 4494 
L 1172 4494 
z
" transform="scale(0.015625)"/>
       <path id="DejaVuSans-72" d="M 2631 2963 
Q 2534 3019 2420 3045 
Q 2306 3072 2169 3072 
Q 1681 3072 1420 2755 
Q 1159 2438 1159 1844 
L 1159 0 
L 581 0 
L 581 3500 
L 1159 3500 
L 1159 2956 
Q 1341 3275 1631 3429 
Q 1922 3584 2338 3584 
Q 2397 3584 2469 3576 
Q 2541 3569 2628 3553 
L 2631 2963 
z
" transform="scale(0.015625)"/>
       <path id="DejaVuSans-61" d="M 2194 1759 
Q 1497 1759 1228 1600 
Q 959 1441 959 1056 
Q 959 750 1161 570 
Q 1363 391 1709 391 
Q 2188 391 2477 730 
Q 2766 1069 2766 1631 
L 2766 1759 
L 2194 1759 
z
M 3341 1997 
L 3341 0 
L 2766 0 
L 2766 531 
Q 2569 213 2275 61 
Q 1981 -91 1556 -91 
Q 1019 -91 701 211 
Q 384 513 384 1019 
Q 384 1609 779 1909 
Q 1175 2209 1959 2209 
L 2766 2209 
L 2766 2266 
Q 2766 2663 2505 2880 
Q 2244 3097 1772 3097 
Q 1472 3097 1187 3025 
Q 903 2953 641 2809 
L 641 3341 
Q 956 3463 1253 3523 
Q 1550 3584 1831 3584 
Q 2591 3584 2966 3190 
Q 3341 2797 3341 1997 
z
" transform="scale(0.015625)"/>
       <path id="DejaVuSans-69" d="M 603 3500 
L 1178 3500 
L 1178 0 
L 603 0 
L 603 3500 
z
M 603 4863 
L 1178 4863 
L 1178 4134 
L 603 4134 
L 603 4863 
z
" transform="scale(0.015625)"/>
       <path id="DejaVuSans-6e" d="M 3513 2113 
L 3513 0 
L 2938 0 
L 2938 2094 
Q 2938 2591 2744 2837 
Q 2550 3084 2163 3084 
Q 1697 3084 1428 2787 
Q 1159 2491 1159 1978 
L 1159 0 
L 581 0 
L 581 3500 
L 1159 3500 
L 1159 2956 
Q 1366 3272 1645 3428 
Q 1925 3584 2291 3584 
Q 2894 3584 3203 3211 
Q 3513 2838 3513 2113 
z
" transform="scale(0.015625)"/>
       <path id="DejaVuSans-5f" d="M 3263 -1063 
L 3263 -1509 
L -63 -1509 
L -63 -1063 
L 3263 -1063 
z
" transform="scale(0.015625)"/>
       <path id="DejaVuSans-6c" d="M 603 4863 
L 1178 4863 
L 1178 0 
L 603 0 
L 603 4863 
z
" transform="scale(0.015625)"/>
       <path id="DejaVuSans-6f" d="M 1959 3097 
Q 1497 3097 1228 2736 
Q 959 2375 959 1747 
Q 959 1119 1226 758 
Q 1494 397 1959 397 
Q 2419 397 2687 759 
Q 2956 1122 2956 1747 
Q 2956 2369 2687 2733 
Q 2419 3097 1959 3097 
z
M 1959 3584 
Q 2709 3584 3137 3096 
Q 3566 2609 3566 1747 
Q 3566 888 3137 398 
Q 2709 -91 1959 -91 
Q 1206 -91 779 398 
Q 353 888 353 1747 
Q 353 2609 779 3096 
Q 1206 3584 1959 3584 
z
" transform="scale(0.015625)"/>
       <path id="DejaVuSans-73" d="M 2834 3397 
L 2834 2853 
Q 2591 2978 2328 3040 
Q 2066 3103 1784 3103 
Q 1356 3103 1142 2972 
Q 928 2841 928 2578 
Q 928 2378 1081 2264 
Q 1234 2150 1697 2047 
L 1894 2003 
Q 2506 1872 2764 1633 
Q 3022 1394 3022 966 
Q 3022 478 2636 193 
Q 2250 -91 1575 -91 
Q 1294 -91 989 -36 
Q 684 19 347 128 
L 347 722 
Q 666 556 975 473 
Q 1284 391 1588 391 
Q 1994 391 2212 530 
Q 2431 669 2431 922 
Q 2431 1156 2273 1281 
Q 2116 1406 1581 1522 
L 1381 1569 
Q 847 1681 609 1914 
Q 372 2147 372 2553 
Q 372 3047 722 3315 
Q 1072 3584 1716 3584 
Q 2034 3584 2315 3537 
Q 2597 3491 2834 3397 
z
" transform="scale(0.015625)"/>
      </defs>
      <use xlink:href="#DejaVuSans-74"/>
      <use xlink:href="#DejaVuSans-72" x="39.208984"/>
      <use xlink:href="#DejaVuSans-61" x="80.322266"/>
      <use xlink:href="#DejaVuSans-69" x="141.601562"/>
      <use xlink:href="#DejaVuSans-6e" x="169.384766"/>
      <use xlink:href="#DejaVuSans-5f" x="232.763672"/>
      <use xlink:href="#DejaVuSans-6c" x="282.763672"/>
      <use xlink:href="#DejaVuSans-6f" x="310.546875"/>
      <use xlink:href="#DejaVuSans-73" x="371.728516"/>
      <use xlink:href="#DejaVuSans-73" x="423.828125"/>
     </g>
    </g>
    <g id="line2d_18">
     <path d="M 300.603409 38.763998 
L 310.603409 38.763998 
L 320.603409 38.763998 
" style="fill: none; stroke: #ff7f0e; stroke-width: 1.5; stroke-linecap: square"/>
    </g>
    <g id="text_16">
     <!-- val_loss -->
     <g transform="translate(328.603409 42.263998) scale(0.1 -0.1)">
      <defs>
       <path id="DejaVuSans-76" d="M 191 3500 
L 800 3500 
L 1894 563 
L 2988 3500 
L 3597 3500 
L 2284 0 
L 1503 0 
L 191 3500 
z
" transform="scale(0.015625)"/>
      </defs>
      <use xlink:href="#DejaVuSans-76"/>
      <use xlink:href="#DejaVuSans-61" x="59.179688"/>
      <use xlink:href="#DejaVuSans-6c" x="120.458984"/>
      <use xlink:href="#DejaVuSans-5f" x="148.242188"/>
      <use xlink:href="#DejaVuSans-6c" x="198.242188"/>
      <use xlink:href="#DejaVuSans-6f" x="226.025391"/>
      <use xlink:href="#DejaVuSans-73" x="287.207031"/>
      <use xlink:href="#DejaVuSans-73" x="339.306641"/>
     </g>
    </g>
   </g>
  </g>
  <g id="axes_2">
   <g id="patch_8">
    <path d="M 456.212216 262.709311 
L 811.303125 262.709311 
L 811.303125 10.709311 
L 456.212216 10.709311 
z
" style="fill: #ffffff"/>
   </g>
   <g id="matplotlib.axis_3">
    <g id="xtick_7">
     <g id="line2d_19">
      <g>
       <use xlink:href="#ma4ee27c16e" x="472.352712" y="262.709311" style="stroke: #000000; stroke-width: 0.8"/>
      </g>
     </g>
     <g id="text_17">
      <!-- 0 -->
      <g transform="translate(469.171462 277.307748) scale(0.1 -0.1)">
       <use xlink:href="#DejaVuSans-30"/>
      </g>
     </g>
    </g>
    <g id="xtick_8">
     <g id="line2d_20">
      <g>
       <use xlink:href="#ma4ee27c16e" x="537.17398" y="262.709311" style="stroke: #000000; stroke-width: 0.8"/>
      </g>
     </g>
     <g id="text_18">
      <!-- 50 -->
      <g transform="translate(530.81148 277.307748) scale(0.1 -0.1)">
       <use xlink:href="#DejaVuSans-35"/>
       <use xlink:href="#DejaVuSans-30" x="63.623047"/>
      </g>
     </g>
    </g>
    <g id="xtick_9">
     <g id="line2d_21">
      <g>
       <use xlink:href="#ma4ee27c16e" x="601.995249" y="262.709311" style="stroke: #000000; stroke-width: 0.8"/>
      </g>
     </g>
     <g id="text_19">
      <!-- 100 -->
      <g transform="translate(592.451499 277.307748) scale(0.1 -0.1)">
       <use xlink:href="#DejaVuSans-31"/>
       <use xlink:href="#DejaVuSans-30" x="63.623047"/>
       <use xlink:href="#DejaVuSans-30" x="127.246094"/>
      </g>
     </g>
    </g>
    <g id="xtick_10">
     <g id="line2d_22">
      <g>
       <use xlink:href="#ma4ee27c16e" x="666.816517" y="262.709311" style="stroke: #000000; stroke-width: 0.8"/>
      </g>
     </g>
     <g id="text_20">
      <!-- 150 -->
      <g transform="translate(657.272767 277.307748) scale(0.1 -0.1)">
       <use xlink:href="#DejaVuSans-31"/>
       <use xlink:href="#DejaVuSans-35" x="63.623047"/>
       <use xlink:href="#DejaVuSans-30" x="127.246094"/>
      </g>
     </g>
    </g>
    <g id="xtick_11">
     <g id="line2d_23">
      <g>
       <use xlink:href="#ma4ee27c16e" x="731.637786" y="262.709311" style="stroke: #000000; stroke-width: 0.8"/>
      </g>
     </g>
     <g id="text_21">
      <!-- 200 -->
      <g transform="translate(722.094036 277.307748) scale(0.1 -0.1)">
       <use xlink:href="#DejaVuSans-32"/>
       <use xlink:href="#DejaVuSans-30" x="63.623047"/>
       <use xlink:href="#DejaVuSans-30" x="127.246094"/>
      </g>
     </g>
    </g>
    <g id="xtick_12">
     <g id="line2d_24">
      <g>
       <use xlink:href="#ma4ee27c16e" x="796.459055" y="262.709311" style="stroke: #000000; stroke-width: 0.8"/>
      </g>
     </g>
     <g id="text_22">
      <!-- 250 -->
      <g transform="translate(786.915305 277.307748) scale(0.1 -0.1)">
       <use xlink:href="#DejaVuSans-32"/>
       <use xlink:href="#DejaVuSans-35" x="63.623047"/>
       <use xlink:href="#DejaVuSans-30" x="127.246094"/>
      </g>
     </g>
    </g>
   </g>
   <g id="matplotlib.axis_4">
    <g id="ytick_9">
     <g id="line2d_25">
      <g>
       <use xlink:href="#m3eceabb4f6" x="456.212216" y="214.179104" style="stroke: #000000; stroke-width: 0.8"/>
      </g>
     </g>
     <g id="text_23">
      <!-- 0.6 -->
      <g transform="translate(433.309091 217.978323) scale(0.1 -0.1)">
       <use xlink:href="#DejaVuSans-30"/>
       <use xlink:href="#DejaVuSans-2e" x="63.623047"/>
       <use xlink:href="#DejaVuSans-36" x="95.410156"/>
      </g>
     </g>
    </g>
    <g id="ytick_10">
     <g id="line2d_26">
      <g>
       <use xlink:href="#m3eceabb4f6" x="456.212216" y="163.384133" style="stroke: #000000; stroke-width: 0.8"/>
      </g>
     </g>
     <g id="text_24">
      <!-- 0.7 -->
      <g transform="translate(433.309091 167.183351) scale(0.1 -0.1)">
       <defs>
        <path id="DejaVuSans-37" d="M 525 4666 
L 3525 4666 
L 3525 4397 
L 1831 0 
L 1172 0 
L 2766 4134 
L 525 4134 
L 525 4666 
z
" transform="scale(0.015625)"/>
       </defs>
       <use xlink:href="#DejaVuSans-30"/>
       <use xlink:href="#DejaVuSans-2e" x="63.623047"/>
       <use xlink:href="#DejaVuSans-37" x="95.410156"/>
      </g>
     </g>
    </g>
    <g id="ytick_11">
     <g id="line2d_27">
      <g>
       <use xlink:href="#m3eceabb4f6" x="456.212216" y="112.589161" style="stroke: #000000; stroke-width: 0.8"/>
      </g>
     </g>
     <g id="text_25">
      <!-- 0.8 -->
      <g transform="translate(433.309091 116.38838) scale(0.1 -0.1)">
       <use xlink:href="#DejaVuSans-30"/>
       <use xlink:href="#DejaVuSans-2e" x="63.623047"/>
       <use xlink:href="#DejaVuSans-38" x="95.410156"/>
      </g>
     </g>
    </g>
    <g id="ytick_12">
     <g id="line2d_28">
      <g>
       <use xlink:href="#m3eceabb4f6" x="456.212216" y="61.79419" style="stroke: #000000; stroke-width: 0.8"/>
      </g>
     </g>
     <g id="text_26">
      <!-- 0.9 -->
      <g transform="translate(433.309091 65.593409) scale(0.1 -0.1)">
       <defs>
        <path id="DejaVuSans-39" d="M 703 97 
L 703 672 
Q 941 559 1184 500 
Q 1428 441 1663 441 
Q 2288 441 2617 861 
Q 2947 1281 2994 2138 
Q 2813 1869 2534 1725 
Q 2256 1581 1919 1581 
Q 1219 1581 811 2004 
Q 403 2428 403 3163 
Q 403 3881 828 4315 
Q 1253 4750 1959 4750 
Q 2769 4750 3195 4129 
Q 3622 3509 3622 2328 
Q 3622 1225 3098 567 
Q 2575 -91 1691 -91 
Q 1453 -91 1209 -44 
Q 966 3 703 97 
z
M 1959 2075 
Q 2384 2075 2632 2365 
Q 2881 2656 2881 3163 
Q 2881 3666 2632 3958 
Q 2384 4250 1959 4250 
Q 1534 4250 1286 3958 
Q 1038 3666 1038 3163 
Q 1038 2656 1286 2365 
Q 1534 2075 1959 2075 
z
" transform="scale(0.015625)"/>
       </defs>
       <use xlink:href="#DejaVuSans-30"/>
       <use xlink:href="#DejaVuSans-2e" x="63.623047"/>
       <use xlink:href="#DejaVuSans-39" x="95.410156"/>
      </g>
     </g>
    </g>
    <g id="ytick_13">
     <g id="line2d_29">
      <g>
       <use xlink:href="#m3eceabb4f6" x="456.212216" y="10.999219" style="stroke: #000000; stroke-width: 0.8"/>
      </g>
     </g>
     <g id="text_27">
      <!-- 1.0 -->
      <g transform="translate(433.309091 14.798437) scale(0.1 -0.1)">
       <use xlink:href="#DejaVuSans-31"/>
       <use xlink:href="#DejaVuSans-2e" x="63.623047"/>
       <use xlink:href="#DejaVuSans-30" x="95.410156"/>
      </g>
     </g>
    </g>
   </g>
   <g id="line2d_30">
    <path d="M 472.352712 251.254765 
L 473.649137 110.114503 
L 474.945563 86.664101 
L 476.241988 75.084892 
L 477.538413 67.050083 
L 478.834839 63.453124 
L 480.131264 58.168601 
L 481.427689 56.773022 
L 482.724115 53.298681 
L 485.316965 49.322149 
L 486.613391 48.434603 
L 487.909816 45.240529 
L 489.206242 44.814271 
L 490.502667 44.989449 
L 491.799092 43.027462 
L 494.391943 41.374959 
L 495.688368 40.907798 
L 496.984794 40.755993 
L 498.281219 39.249452 
L 499.577645 38.169198 
L 500.87407 38.694732 
L 502.170495 37.153191 
L 503.466921 38.776477 
L 504.763346 37.521046 
L 506.059771 37.18822 
L 507.356197 36.563411 
L 508.652622 36.434949 
L 509.949048 35.518187 
L 511.245473 36.370734 
L 512.541898 34.870035 
L 513.838324 35.278793 
L 515.134749 35.056899 
L 516.431174 34.578082 
L 517.7276 34.256912 
L 519.024025 34.823319 
L 520.320451 32.750401 
L 521.616876 33.480299 
L 522.913301 33.89487 
L 524.209727 32.651125 
L 525.506152 34.157637 
L 526.802577 32.061346 
L 528.099003 32.294926 
L 529.395428 32.061346 
L 530.691853 32.084719 
L 531.988279 31.290575 
L 535.877555 32.183994 
L 537.17398 31.162113 
L 538.470406 30.881847 
L 539.766831 31.167957 
L 541.063256 29.918369 
L 542.359682 31.354821 
L 543.656107 30.058487 
L 544.952533 29.678945 
L 546.248958 30.36797 
L 547.545383 30.163606 
L 548.841809 30.344627 
L 550.138234 29.427865 
L 551.434659 30.087703 
L 552.731085 30.303754 
L 554.02751 29.217657 
L 555.323936 29.56217 
L 556.620361 29.766534 
L 557.916786 29.696475 
L 559.213212 29.241 
L 560.509637 28.516946 
L 561.806062 28.808899 
L 563.102488 29.462894 
L 564.398913 28.271678 
L 565.695338 29.270217 
L 566.991764 28.271678 
L 568.288189 29.638072 
L 569.584615 27.979725 
L 570.88104 28.213306 
L 572.177465 28.563662 
L 573.473891 27.711115 
L 574.770316 28.528632 
L 576.066741 28.750496 
L 577.363167 27.86295 
L 578.659592 27.664399 
L 579.956018 28.032285 
L 581.252443 28.271678 
L 582.548868 28.032285 
L 583.845294 27.109679 
L 585.141719 29.100852 
L 586.438144 27.261514 
L 587.73457 28.096501 
L 589.030995 27.045464 
L 591.623846 27.477565 
L 592.920271 26.525773 
L 594.216697 28.14906 
L 595.513122 27.09218 
L 596.809547 27.127209 
L 598.105973 26.776854 
L 599.402398 26.782697 
L 600.698823 26.654235 
L 601.995249 27.319887 
L 603.291674 26.730137 
L 605.884525 26.53743 
L 607.18095 27.448349 
L 608.477376 26.531586 
L 609.773801 25.971023 
L 611.070226 26.864442 
L 612.366652 26.981218 
L 613.663077 26.78854 
L 614.959503 26.00024 
L 616.255928 26.274663 
L 618.848779 26.414811 
L 620.145204 25.568138 
L 621.441629 26.385625 
L 622.738055 25.953524 
L 625.330906 26.187074 
L 626.627331 25.638197 
L 627.923756 25.94768 
L 629.220182 25.597325 
L 631.813032 26.362252 
L 633.109458 25.416303 
L 634.405883 25.737473 
L 635.702309 26.607519 
L 636.998734 25.463019 
L 638.295159 25.568138 
L 639.591585 25.182723 
L 640.88801 26.006053 
L 642.184435 26.414811 
L 643.480861 25.12435 
L 644.777286 25.521422 
L 646.073711 25.492206 
L 647.370137 26.55496 
L 648.666562 24.955016 
L 649.962988 25.381274 
L 651.259413 25.10682 
L 652.555838 25.416303 
L 653.852264 24.803181 
L 659.037965 25.241125 
L 660.334391 24.657189 
L 662.927241 25.492206 
L 664.223667 24.365236 
L 665.520092 24.721435 
L 666.816517 24.470355 
L 668.112943 24.055753 
L 669.409368 25.048418 
L 670.705794 24.87324 
L 672.002219 24.849897 
L 673.298644 24.195902 
L 674.59507 24.260148 
L 675.891495 24.995889 
L 677.18792 25.276155 
L 679.780771 24.657189 
L 681.077196 24.242618 
L 682.373622 24.423639 
L 683.670047 24.949172 
L 684.966473 24.633846 
L 686.262898 23.857232 
L 688.855749 24.925799 
L 690.152174 24.5696 
L 691.448599 24.499541 
L 694.04145 23.576936 
L 695.337876 23.78133 
L 696.634301 23.863076 
L 697.930726 25.042605 
L 699.227152 24.715592 
L 700.523577 23.658681 
L 701.820002 23.979851 
L 703.116428 24.038254 
L 704.412853 24.546257 
L 705.709279 23.641182 
L 707.005704 24.236774 
L 708.302129 23.471847 
L 709.598555 24.563787 
L 710.89498 23.81636 
L 712.191405 24.411952 
L 713.487831 23.828016 
L 714.784256 23.448474 
L 716.080682 22.870381 
L 717.377107 23.909792 
L 718.673532 24.190058 
L 719.969958 23.705397 
L 721.266383 23.769643 
L 722.562808 23.325855 
L 723.859234 23.553593 
L 725.155659 24.213431 
L 726.452084 23.378415 
L 727.74851 23.693741 
L 729.044935 23.571092 
L 730.341361 24.33605 
L 731.637786 23.752114 
L 734.230637 23.063089 
L 735.527062 23.255796 
L 736.823487 23.24411 
L 738.119913 24.493698 
L 740.712764 22.887911 
L 742.009189 23.787143 
L 743.305614 24.143342 
L 744.60204 23.425131 
L 745.898465 23.004686 
L 747.19489 23.658681 
L 748.491316 23.279139 
L 749.787741 22.712733 
L 751.084167 22.800322 
L 752.380592 23.664525 
L 753.677017 23.845546 
L 754.973443 23.179864 
L 756.269868 23.845546 
L 757.566293 23.623652 
L 758.862719 22.882067 
L 761.455569 23.016373 
L 762.751995 23.921448 
L 764.04842 23.78133 
L 766.641271 22.607644 
L 767.937696 22.782792 
L 769.234122 23.501033 
L 770.530547 22.858725 
L 771.826972 22.917097 
L 773.123398 23.372572 
L 774.419823 23.010529 
L 775.716249 23.413444 
L 777.012674 22.508369 
L 778.309099 22.782792 
L 779.605525 22.163856 
L 780.90195 22.765292 
L 782.198375 22.484996 
L 783.494801 23.547749 
L 784.791226 23.617808 
L 786.087652 22.946313 
L 787.384077 22.479152 
L 788.680502 22.759449 
L 789.976928 23.314169 
L 791.273353 22.701046 
L 792.569778 24.184215 
L 793.866204 22.257289 
L 795.162629 22.204729 
L 795.162629 22.204729 
" clip-path="url(#pc03e347e51)" style="fill: none; stroke: #1f77b4; stroke-width: 1.5; stroke-linecap: square"/>
   </g>
   <g id="line2d_31">
    <path d="M 472.352712 115.806573 
L 473.649137 87.573749 
L 474.945563 88.740047 
L 476.241988 67.384453 
L 477.538413 69.113828 
L 478.834839 71.205123 
L 480.131264 63.885498 
L 481.427689 61.995266 
L 482.724115 67.263803 
L 484.02054 62.035503 
L 485.316965 63.081151 
L 486.613391 63.563783 
L 487.909816 63.161595 
L 489.206242 63.161595 
L 490.502667 62.719199 
L 491.799092 57.691994 
L 493.095518 54.836528 
L 494.391943 57.330012 
L 495.688368 56.163714 
L 496.984794 55.480018 
L 498.281219 55.238717 
L 499.577645 57.691994 
L 500.87407 53.750643 
L 502.170495 58.616991 
L 503.466921 54.836528 
L 504.763346 57.812645 
L 506.059771 54.43434 
L 507.356197 56.606109 
L 508.652622 51.37781 
L 509.949048 53.629993 
L 511.245473 54.595227 
L 512.541898 52.785409 
L 513.838324 51.659317 
L 515.134749 56.405015 
L 516.431174 51.619111 
L 517.7276 57.732201 
L 519.024025 51.337573 
L 520.320451 49.407134 
L 521.616876 53.951738 
L 522.913301 58.978943 
L 524.209727 49.809323 
L 525.506152 52.182156 
L 526.802577 50.131068 
L 528.099003 52.2626 
L 529.395428 52.182156 
L 530.691853 52.865853 
L 531.988279 51.981062 
L 533.284704 53.388692 
L 534.58113 49.728879 
L 535.877555 53.308248 
L 537.17398 52.584345 
L 538.470406 50.412575 
L 539.766831 51.860412 
L 541.063256 50.61367 
L 542.359682 48.803882 
L 543.656107 49.085389 
L 544.952533 56.565872 
L 546.248958 56.163714 
L 547.545383 54.152832 
L 548.841809 51.337573 
L 550.138234 54.072388 
L 551.434659 54.957179 
L 552.731085 53.831087 
L 554.02751 48.200599 
L 555.323936 52.544108 
L 556.620361 50.573463 
L 557.916786 48.079948 
L 559.213212 50.61367 
L 560.509637 48.039742 
L 561.806062 52.383251 
L 563.102488 48.924532 
L 564.398913 47.476696 
L 565.695338 49.125596 
L 566.991764 52.222363 
L 568.288189 47.476696 
L 569.584615 49.97018 
L 570.88104 47.758204 
L 572.177465 51.900618 
L 573.473891 49.286484 
L 574.770316 50.010387 
L 576.066741 48.763645 
L 577.363167 49.527785 
L 578.659592 49.648435 
L 579.956018 51.257159 
L 581.252443 46.189717 
L 582.548868 50.935414 
L 583.845294 49.20604 
L 585.141719 49.326691 
L 586.438144 50.493019 
L 587.73457 50.010387 
L 590.327421 48.683201 
L 591.623846 51.015858 
L 592.920271 54.55499 
L 594.216697 51.860412 
L 595.513122 49.447341 
L 596.809547 50.61367 
L 598.105973 49.004946 
L 599.402398 46.672319 
L 600.698823 52.946297 
L 603.291674 47.999505 
L 604.5881 50.895177 
L 605.884525 48.844088 
L 607.18095 51.176715 
L 608.477376 47.356045 
L 609.773801 49.527785 
L 611.070226 48.200599 
L 612.366652 48.522344 
L 613.663077 54.55499 
L 614.959503 52.182156 
L 616.255928 47.919091 
L 617.552353 47.396252 
L 618.848779 52.503901 
L 620.145204 48.120155 
L 621.441629 46.91365 
L 622.738055 49.125596 
L 624.03448 49.447341 
L 625.330906 50.412575 
L 626.627331 48.522344 
L 627.923756 48.281043 
L 629.220182 48.56255 
L 630.516607 51.860412 
L 631.813032 48.964739 
L 633.109458 48.56255 
L 634.405883 55.158273 
L 635.702309 49.648435 
L 636.998734 48.120155 
L 638.295159 49.84953 
L 639.591585 49.165833 
L 640.88801 49.84953 
L 642.184435 50.975621 
L 643.480861 49.567992 
L 644.777286 51.176715 
L 646.073711 46.994064 
L 647.370137 48.039742 
L 648.666562 47.356045 
L 649.962988 47.67776 
L 651.259413 49.045183 
L 652.555838 49.045183 
L 653.852264 46.189717 
L 655.148689 48.884295 
L 656.445114 47.67776 
L 657.74154 47.074507 
L 659.037965 48.924532 
L 660.334391 47.476696 
L 662.927241 50.573463 
L 664.223667 47.516903 
L 665.520092 48.56255 
L 666.816517 48.401693 
L 668.112943 46.672319 
L 669.409368 49.648435 
L 670.705794 47.67776 
L 672.002219 47.959298 
L 673.298644 47.396252 
L 674.59507 48.803882 
L 675.891495 45.988623 
L 677.18792 51.49846 
L 678.484346 48.240836 
L 679.780771 46.310367 
L 681.077196 48.039742 
L 682.373622 52.463694 
L 684.966473 46.350574 
L 686.262898 48.803882 
L 687.559323 48.522344 
L 688.855749 47.919091 
L 690.152174 49.84953 
L 691.448599 48.160392 
L 692.745025 47.878854 
L 694.04145 44.942975 
L 695.337876 48.683201 
L 696.634301 46.189717 
L 697.930726 45.546227 
L 699.227152 49.929973 
L 700.523577 47.516903 
L 701.820002 47.999505 
L 703.116428 52.101713 
L 704.412853 54.273482 
L 705.709279 47.436459 
L 707.005704 47.798441 
L 708.302129 44.62123 
L 709.598555 48.683201 
L 710.89498 47.758204 
L 712.191405 48.763645 
L 713.487831 48.683201 
L 714.784256 48.964739 
L 716.080682 46.310367 
L 717.377107 47.717997 
L 718.673532 46.189717 
L 719.969958 48.964739 
L 721.266383 47.919091 
L 722.562808 52.946297 
L 723.859234 48.602787 
L 725.155659 48.482137 
L 726.452084 48.884295 
L 727.74851 47.999505 
L 729.044935 50.452782 
L 730.341361 48.039742 
L 731.637786 50.332132 
L 732.934211 46.91365 
L 734.230637 46.91365 
L 735.527062 48.240836 
L 736.823487 51.37781 
L 738.119913 49.648435 
L 739.416338 46.712556 
L 740.712764 51.820205 
L 742.009189 46.471255 
L 743.305614 48.844088 
L 744.60204 47.758204 
L 745.898465 46.994064 
L 747.19489 46.91365 
L 748.491316 48.281043 
L 749.787741 45.50602 
L 751.084167 51.337573 
L 752.380592 50.854971 
L 753.677017 46.189717 
L 754.973443 53.710437 
L 756.269868 49.929973 
L 757.566293 48.723438 
L 758.862719 48.321249 
L 760.159144 53.02674 
L 761.455569 46.431018 
L 762.751995 48.160392 
L 764.04842 50.412575 
L 765.344846 50.493019 
L 766.641271 50.010387 
L 767.937696 48.4419 
L 769.234122 45.063625 
L 770.530547 46.953857 
L 771.826972 47.195158 
L 773.123398 51.860412 
L 774.419823 51.015858 
L 775.716249 47.195158 
L 777.012674 50.653876 
L 778.309099 48.321249 
L 779.605525 49.326691 
L 780.90195 50.573463 
L 782.198375 47.919091 
L 783.494801 46.511462 
L 784.791226 46.350574 
L 786.087652 46.551668 
L 787.384077 46.591905 
L 788.680502 47.798441 
L 789.976928 47.154951 
L 791.273353 49.326691 
L 792.569778 46.069066 
L 793.866204 46.310367 
L 795.162629 48.240836 
L 795.162629 48.240836 
" clip-path="url(#pc03e347e51)" style="fill: none; stroke: #ff7f0e; stroke-width: 1.5; stroke-linecap: square"/>
   </g>
   <g id="patch_9">
    <path d="M 456.212216 262.709311 
L 456.212216 10.709311 
" style="fill: none; stroke: #000000; stroke-width: 0.8; stroke-linejoin: miter; stroke-linecap: square"/>
   </g>
   <g id="patch_10">
    <path d="M 811.303125 262.709311 
L 811.303125 10.709311 
" style="fill: none; stroke: #000000; stroke-width: 0.8; stroke-linejoin: miter; stroke-linecap: square"/>
   </g>
   <g id="patch_11">
    <path d="M 456.212216 262.709311 
L 811.303125 262.709311 
" style="fill: none; stroke: #000000; stroke-width: 0.8; stroke-linejoin: miter; stroke-linecap: square"/>
   </g>
   <g id="patch_12">
    <path d="M 456.212216 10.709311 
L 811.303125 10.709311 
" style="fill: none; stroke: #000000; stroke-width: 0.8; stroke-linejoin: miter; stroke-linecap: square"/>
   </g>
   <g id="legend_2">
    <g id="patch_13">
     <path d="M 726.903125 257.709311 
L 804.303125 257.709311 
Q 806.303125 257.709311 806.303125 255.709311 
L 806.303125 226.796811 
Q 806.303125 224.796811 804.303125 224.796811 
L 726.903125 224.796811 
Q 724.903125 224.796811 724.903125 226.796811 
L 724.903125 255.709311 
Q 724.903125 257.709311 726.903125 257.709311 
z
" style="fill: #ffffff; opacity: 0.8; stroke: #cccccc; stroke-linejoin: miter"/>
    </g>
    <g id="line2d_32">
     <path d="M 728.903125 232.895248 
L 738.903125 232.895248 
L 748.903125 232.895248 
" style="fill: none; stroke: #1f77b4; stroke-width: 1.5; stroke-linecap: square"/>
    </g>
    <g id="text_28">
     <!-- train_acc -->
     <g transform="translate(756.903125 236.395248) scale(0.1 -0.1)">
      <defs>
       <path id="DejaVuSans-63" d="M 3122 3366 
L 3122 2828 
Q 2878 2963 2633 3030 
Q 2388 3097 2138 3097 
Q 1578 3097 1268 2742 
Q 959 2388 959 1747 
Q 959 1106 1268 751 
Q 1578 397 2138 397 
Q 2388 397 2633 464 
Q 2878 531 3122 666 
L 3122 134 
Q 2881 22 2623 -34 
Q 2366 -91 2075 -91 
Q 1284 -91 818 406 
Q 353 903 353 1747 
Q 353 2603 823 3093 
Q 1294 3584 2113 3584 
Q 2378 3584 2631 3529 
Q 2884 3475 3122 3366 
z
" transform="scale(0.015625)"/>
      </defs>
      <use xlink:href="#DejaVuSans-74"/>
      <use xlink:href="#DejaVuSans-72" x="39.208984"/>
      <use xlink:href="#DejaVuSans-61" x="80.322266"/>
      <use xlink:href="#DejaVuSans-69" x="141.601562"/>
      <use xlink:href="#DejaVuSans-6e" x="169.384766"/>
      <use xlink:href="#DejaVuSans-5f" x="232.763672"/>
      <use xlink:href="#DejaVuSans-61" x="282.763672"/>
      <use xlink:href="#DejaVuSans-63" x="344.042969"/>
      <use xlink:href="#DejaVuSans-63" x="399.023438"/>
     </g>
    </g>
    <g id="line2d_33">
     <path d="M 728.903125 247.851498 
L 738.903125 247.851498 
L 748.903125 247.851498 
" style="fill: none; stroke: #ff7f0e; stroke-width: 1.5; stroke-linecap: square"/>
    </g>
    <g id="text_29">
     <!-- val_acc -->
     <g transform="translate(756.903125 251.351498) scale(0.1 -0.1)">
      <use xlink:href="#DejaVuSans-76"/>
      <use xlink:href="#DejaVuSans-61" x="59.179688"/>
      <use xlink:href="#DejaVuSans-6c" x="120.458984"/>
      <use xlink:href="#DejaVuSans-5f" x="148.242188"/>
      <use xlink:href="#DejaVuSans-61" x="198.242188"/>
      <use xlink:href="#DejaVuSans-63" x="259.521484"/>
      <use xlink:href="#DejaVuSans-63" x="314.501953"/>
     </g>
    </g>
   </g>
  </g>
 </g>
 <defs>
  <clipPath id="pab4d535f6c">
   <rect x="30.103125" y="10.709311" width="355.090909" height="252"/>
  </clipPath>
  <clipPath id="pc03e347e51">
   <rect x="456.212216" y="10.709311" width="355.090909" height="252"/>
  </clipPath>
 </defs>
</svg>
