<?xml version="1.0" encoding="utf-8" standalone="no"?>
<!DOCTYPE svg PUBLIC "-//W3C//DTD SVG 1.1//EN"
  "http://www.w3.org/Graphics/SVG/1.1/DTD/svg11.dtd">
<svg xmlns:xlink="http://www.w3.org/1999/xlink" width="824.865625pt" height="283.078125pt" viewBox="0 0 824.865625 283.078125" xmlns="http://www.w3.org/2000/svg" version="1.1">
 <metadata>
  <rdf:RDF xmlns:dc="http://purl.org/dc/elements/1.1/" xmlns:cc="http://creativecommons.org/ns#" xmlns:rdf="http://www.w3.org/1999/02/22-rdf-syntax-ns#">
   <cc:Work>
    <dc:type rdf:resource="http://purl.org/dc/dcmitype/StillImage"/>
    <dc:date>2023-01-28T13:12:50.600415</dc:date>
    <dc:format>image/svg+xml</dc:format>
    <dc:creator>
     <cc:Agent>
      <dc:title>Matplotlib v3.6.2, https://matplotlib.org/</dc:title>
     </cc:Agent>
    </dc:creator>
   </cc:Work>
  </rdf:RDF>
 </metadata>
 <defs>
  <style type="text/css">*{stroke-linejoin: round; stroke-linecap: butt}</style>
 </defs>
 <g id="figure_1">
  <g id="patch_1">
   <path d="M 0 283.078125 
L 824.865625 283.078125 
L 824.865625 0 
L 0 0 
z
" style="fill: #ffffff"/>
  </g>
  <g id="axes_1">
   <g id="patch_2">
    <path d="M 36.465625 259.2 
L 391.556534 259.2 
L 391.556534 7.2 
L 36.465625 7.2 
z
" style="fill: #ffffff"/>
   </g>
   <g id="matplotlib.axis_1">
    <g id="xtick_1">
     <g id="line2d_1">
      <defs>
       <path id="m12c33f9834" d="M 0 0 
L 0 3.5 
" style="stroke: #000000; stroke-width: 0.8"/>
      </defs>
      <g>
       <use xlink:href="#m12c33f9834" x="52.606121" y="259.2" style="stroke: #000000; stroke-width: 0.8"/>
      </g>
     </g>
     <g id="text_1">
      <!-- 0 -->
      <g transform="translate(49.424871 273.798437) scale(0.1 -0.1)">
       <defs>
        <path id="DejaVuSans-30" d="M 2034 4250 
Q 1547 4250 1301 3770 
Q 1056 3291 1056 2328 
Q 1056 1369 1301 889 
Q 1547 409 2034 409 
Q 2525 409 2770 889 
Q 3016 1369 3016 2328 
Q 3016 3291 2770 3770 
Q 2525 4250 2034 4250 
z
M 2034 4750 
Q 2819 4750 3233 4129 
Q 3647 3509 3647 2328 
Q 3647 1150 3233 529 
Q 2819 -91 2034 -91 
Q 1250 -91 836 529 
Q 422 1150 422 2328 
Q 422 3509 836 4129 
Q 1250 4750 2034 4750 
z
" transform="scale(0.015625)"/>
       </defs>
       <use xlink:href="#DejaVuSans-30"/>
      </g>
     </g>
    </g>
    <g id="xtick_2">
     <g id="line2d_2">
      <g>
       <use xlink:href="#m12c33f9834" x="104.672237" y="259.2" style="stroke: #000000; stroke-width: 0.8"/>
      </g>
     </g>
     <g id="text_2">
      <!-- 20 -->
      <g transform="translate(98.309737 273.798437) scale(0.1 -0.1)">
       <defs>
        <path id="DejaVuSans-32" d="M 1228 531 
L 3431 531 
L 3431 0 
L 469 0 
L 469 531 
Q 828 903 1448 1529 
Q 2069 2156 2228 2338 
Q 2531 2678 2651 2914 
Q 2772 3150 2772 3378 
Q 2772 3750 2511 3984 
Q 2250 4219 1831 4219 
Q 1534 4219 1204 4116 
Q 875 4013 500 3803 
L 500 4441 
Q 881 4594 1212 4672 
Q 1544 4750 1819 4750 
Q 2544 4750 2975 4387 
Q 3406 4025 3406 3419 
Q 3406 3131 3298 2873 
Q 3191 2616 2906 2266 
Q 2828 2175 2409 1742 
Q 1991 1309 1228 531 
z
" transform="scale(0.015625)"/>
       </defs>
       <use xlink:href="#DejaVuSans-32"/>
       <use xlink:href="#DejaVuSans-30" x="63.623047"/>
      </g>
     </g>
    </g>
    <g id="xtick_3">
     <g id="line2d_3">
      <g>
       <use xlink:href="#m12c33f9834" x="156.738352" y="259.2" style="stroke: #000000; stroke-width: 0.8"/>
      </g>
     </g>
     <g id="text_3">
      <!-- 40 -->
      <g transform="translate(150.375852 273.798437) scale(0.1 -0.1)">
       <defs>
        <path id="DejaVuSans-34" d="M 2419 4116 
L 825 1625 
L 2419 1625 
L 2419 4116 
z
M 2253 4666 
L 3047 4666 
L 3047 1625 
L 3713 1625 
L 3713 1100 
L 3047 1100 
L 3047 0 
L 2419 0 
L 2419 1100 
L 313 1100 
L 313 1709 
L 2253 4666 
z
" transform="scale(0.015625)"/>
       </defs>
       <use xlink:href="#DejaVuSans-34"/>
       <use xlink:href="#DejaVuSans-30" x="63.623047"/>
      </g>
     </g>
    </g>
    <g id="xtick_4">
     <g id="line2d_4">
      <g>
       <use xlink:href="#m12c33f9834" x="208.804468" y="259.2" style="stroke: #000000; stroke-width: 0.8"/>
      </g>
     </g>
     <g id="text_4">
      <!-- 60 -->
      <g transform="translate(202.441968 273.798437) scale(0.1 -0.1)">
       <defs>
        <path id="DejaVuSans-36" d="M 2113 2584 
Q 1688 2584 1439 2293 
Q 1191 2003 1191 1497 
Q 1191 994 1439 701 
Q 1688 409 2113 409 
Q 2538 409 2786 701 
Q 3034 994 3034 1497 
Q 3034 2003 2786 2293 
Q 2538 2584 2113 2584 
z
M 3366 4563 
L 3366 3988 
Q 3128 4100 2886 4159 
Q 2644 4219 2406 4219 
Q 1781 4219 1451 3797 
Q 1122 3375 1075 2522 
Q 1259 2794 1537 2939 
Q 1816 3084 2150 3084 
Q 2853 3084 3261 2657 
Q 3669 2231 3669 1497 
Q 3669 778 3244 343 
Q 2819 -91 2113 -91 
Q 1303 -91 875 529 
Q 447 1150 447 2328 
Q 447 3434 972 4092 
Q 1497 4750 2381 4750 
Q 2619 4750 2861 4703 
Q 3103 4656 3366 4563 
z
" transform="scale(0.015625)"/>
       </defs>
       <use xlink:href="#DejaVuSans-36"/>
       <use xlink:href="#DejaVuSans-30" x="63.623047"/>
      </g>
     </g>
    </g>
    <g id="xtick_5">
     <g id="line2d_5">
      <g>
       <use xlink:href="#m12c33f9834" x="260.870584" y="259.2" style="stroke: #000000; stroke-width: 0.8"/>
      </g>
     </g>
     <g id="text_5">
      <!-- 80 -->
      <g transform="translate(254.508084 273.798437) scale(0.1 -0.1)">
       <defs>
        <path id="DejaVuSans-38" d="M 2034 2216 
Q 1584 2216 1326 1975 
Q 1069 1734 1069 1313 
Q 1069 891 1326 650 
Q 1584 409 2034 409 
Q 2484 409 2743 651 
Q 3003 894 3003 1313 
Q 3003 1734 2745 1975 
Q 2488 2216 2034 2216 
z
M 1403 2484 
Q 997 2584 770 2862 
Q 544 3141 544 3541 
Q 544 4100 942 4425 
Q 1341 4750 2034 4750 
Q 2731 4750 3128 4425 
Q 3525 4100 3525 3541 
Q 3525 3141 3298 2862 
Q 3072 2584 2669 2484 
Q 3125 2378 3379 2068 
Q 3634 1759 3634 1313 
Q 3634 634 3220 271 
Q 2806 -91 2034 -91 
Q 1263 -91 848 271 
Q 434 634 434 1313 
Q 434 1759 690 2068 
Q 947 2378 1403 2484 
z
M 1172 3481 
Q 1172 3119 1398 2916 
Q 1625 2713 2034 2713 
Q 2441 2713 2670 2916 
Q 2900 3119 2900 3481 
Q 2900 3844 2670 4047 
Q 2441 4250 2034 4250 
Q 1625 4250 1398 4047 
Q 1172 3844 1172 3481 
z
" transform="scale(0.015625)"/>
       </defs>
       <use xlink:href="#DejaVuSans-38"/>
       <use xlink:href="#DejaVuSans-30" x="63.623047"/>
      </g>
     </g>
    </g>
    <g id="xtick_6">
     <g id="line2d_6">
      <g>
       <use xlink:href="#m12c33f9834" x="312.936699" y="259.2" style="stroke: #000000; stroke-width: 0.8"/>
      </g>
     </g>
     <g id="text_6">
      <!-- 100 -->
      <g transform="translate(303.392949 273.798437) scale(0.1 -0.1)">
       <defs>
        <path id="DejaVuSans-31" d="M 794 531 
L 1825 531 
L 1825 4091 
L 703 3866 
L 703 4441 
L 1819 4666 
L 2450 4666 
L 2450 531 
L 3481 531 
L 3481 0 
L 794 0 
L 794 531 
z
" transform="scale(0.015625)"/>
       </defs>
       <use xlink:href="#DejaVuSans-31"/>
       <use xlink:href="#DejaVuSans-30" x="63.623047"/>
       <use xlink:href="#DejaVuSans-30" x="127.246094"/>
      </g>
     </g>
    </g>
    <g id="xtick_7">
     <g id="line2d_7">
      <g>
       <use xlink:href="#m12c33f9834" x="365.002815" y="259.2" style="stroke: #000000; stroke-width: 0.8"/>
      </g>
     </g>
     <g id="text_7">
      <!-- 120 -->
      <g transform="translate(355.459065 273.798437) scale(0.1 -0.1)">
       <use xlink:href="#DejaVuSans-31"/>
       <use xlink:href="#DejaVuSans-32" x="63.623047"/>
       <use xlink:href="#DejaVuSans-30" x="127.246094"/>
      </g>
     </g>
    </g>
   </g>
   <g id="matplotlib.axis_2">
    <g id="ytick_1">
     <g id="line2d_8">
      <defs>
       <path id="m2673cbac7f" d="M 0 0 
L -3.5 0 
" style="stroke: #000000; stroke-width: 0.8"/>
      </defs>
      <g>
       <use xlink:href="#m2673cbac7f" x="36.465625" y="243.619715" style="stroke: #000000; stroke-width: 0.8"/>
      </g>
     </g>
     <g id="text_8">
      <!-- 0.25 -->
      <g transform="translate(7.2 247.418933) scale(0.1 -0.1)">
       <defs>
        <path id="DejaVuSans-2e" d="M 684 794 
L 1344 794 
L 1344 0 
L 684 0 
L 684 794 
z
" transform="scale(0.015625)"/>
        <path id="DejaVuSans-35" d="M 691 4666 
L 3169 4666 
L 3169 4134 
L 1269 4134 
L 1269 2991 
Q 1406 3038 1543 3061 
Q 1681 3084 1819 3084 
Q 2600 3084 3056 2656 
Q 3513 2228 3513 1497 
Q 3513 744 3044 326 
Q 2575 -91 1722 -91 
Q 1428 -91 1123 -41 
Q 819 9 494 109 
L 494 744 
Q 775 591 1075 516 
Q 1375 441 1709 441 
Q 2250 441 2565 725 
Q 2881 1009 2881 1497 
Q 2881 1984 2565 2268 
Q 2250 2553 1709 2553 
Q 1456 2553 1204 2497 
Q 953 2441 691 2322 
L 691 4666 
z
" transform="scale(0.015625)"/>
       </defs>
       <use xlink:href="#DejaVuSans-30"/>
       <use xlink:href="#DejaVuSans-2e" x="63.623047"/>
       <use xlink:href="#DejaVuSans-32" x="95.410156"/>
       <use xlink:href="#DejaVuSans-35" x="159.033203"/>
      </g>
     </g>
    </g>
    <g id="ytick_2">
     <g id="line2d_9">
      <g>
       <use xlink:href="#m2673cbac7f" x="36.465625" y="213.694758" style="stroke: #000000; stroke-width: 0.8"/>
      </g>
     </g>
     <g id="text_9">
      <!-- 0.50 -->
      <g transform="translate(7.2 217.493977) scale(0.1 -0.1)">
       <use xlink:href="#DejaVuSans-30"/>
       <use xlink:href="#DejaVuSans-2e" x="63.623047"/>
       <use xlink:href="#DejaVuSans-35" x="95.410156"/>
       <use xlink:href="#DejaVuSans-30" x="159.033203"/>
      </g>
     </g>
    </g>
    <g id="ytick_3">
     <g id="line2d_10">
      <g>
       <use xlink:href="#m2673cbac7f" x="36.465625" y="183.769801" style="stroke: #000000; stroke-width: 0.8"/>
      </g>
     </g>
     <g id="text_10">
      <!-- 0.75 -->
      <g transform="translate(7.2 187.56902) scale(0.1 -0.1)">
       <defs>
        <path id="DejaVuSans-37" d="M 525 4666 
L 3525 4666 
L 3525 4397 
L 1831 0 
L 1172 0 
L 2766 4134 
L 525 4134 
L 525 4666 
z
" transform="scale(0.015625)"/>
       </defs>
       <use xlink:href="#DejaVuSans-30"/>
       <use xlink:href="#DejaVuSans-2e" x="63.623047"/>
       <use xlink:href="#DejaVuSans-37" x="95.410156"/>
       <use xlink:href="#DejaVuSans-35" x="159.033203"/>
      </g>
     </g>
    </g>
    <g id="ytick_4">
     <g id="line2d_11">
      <g>
       <use xlink:href="#m2673cbac7f" x="36.465625" y="153.844844" style="stroke: #000000; stroke-width: 0.8"/>
      </g>
     </g>
     <g id="text_11">
      <!-- 1.00 -->
      <g transform="translate(7.2 157.644063) scale(0.1 -0.1)">
       <use xlink:href="#DejaVuSans-31"/>
       <use xlink:href="#DejaVuSans-2e" x="63.623047"/>
       <use xlink:href="#DejaVuSans-30" x="95.410156"/>
       <use xlink:href="#DejaVuSans-30" x="159.033203"/>
      </g>
     </g>
    </g>
    <g id="ytick_5">
     <g id="line2d_12">
      <g>
       <use xlink:href="#m2673cbac7f" x="36.465625" y="123.919888" style="stroke: #000000; stroke-width: 0.8"/>
      </g>
     </g>
     <g id="text_12">
      <!-- 1.25 -->
      <g transform="translate(7.2 127.719107) scale(0.1 -0.1)">
       <use xlink:href="#DejaVuSans-31"/>
       <use xlink:href="#DejaVuSans-2e" x="63.623047"/>
       <use xlink:href="#DejaVuSans-32" x="95.410156"/>
       <use xlink:href="#DejaVuSans-35" x="159.033203"/>
      </g>
     </g>
    </g>
    <g id="ytick_6">
     <g id="line2d_13">
      <g>
       <use xlink:href="#m2673cbac7f" x="36.465625" y="93.994931" style="stroke: #000000; stroke-width: 0.8"/>
      </g>
     </g>
     <g id="text_13">
      <!-- 1.50 -->
      <g transform="translate(7.2 97.79415) scale(0.1 -0.1)">
       <use xlink:href="#DejaVuSans-31"/>
       <use xlink:href="#DejaVuSans-2e" x="63.623047"/>
       <use xlink:href="#DejaVuSans-35" x="95.410156"/>
       <use xlink:href="#DejaVuSans-30" x="159.033203"/>
      </g>
     </g>
    </g>
    <g id="ytick_7">
     <g id="line2d_14">
      <g>
       <use xlink:href="#m2673cbac7f" x="36.465625" y="64.069974" style="stroke: #000000; stroke-width: 0.8"/>
      </g>
     </g>
     <g id="text_14">
      <!-- 1.75 -->
      <g transform="translate(7.2 67.869193) scale(0.1 -0.1)">
       <use xlink:href="#DejaVuSans-31"/>
       <use xlink:href="#DejaVuSans-2e" x="63.623047"/>
       <use xlink:href="#DejaVuSans-37" x="95.410156"/>
       <use xlink:href="#DejaVuSans-35" x="159.033203"/>
      </g>
     </g>
    </g>
    <g id="ytick_8">
     <g id="line2d_15">
      <g>
       <use xlink:href="#m2673cbac7f" x="36.465625" y="34.145018" style="stroke: #000000; stroke-width: 0.8"/>
      </g>
     </g>
     <g id="text_15">
      <!-- 2.00 -->
      <g transform="translate(7.2 37.944236) scale(0.1 -0.1)">
       <use xlink:href="#DejaVuSans-32"/>
       <use xlink:href="#DejaVuSans-2e" x="63.623047"/>
       <use xlink:href="#DejaVuSans-30" x="95.410156"/>
       <use xlink:href="#DejaVuSans-30" x="159.033203"/>
      </g>
     </g>
    </g>
   </g>
   <g id="line2d_16">
    <path d="M 52.606121 18.654545 
L 55.209427 156.350568 
L 57.812732 182.696826 
L 60.416038 192.761699 
L 63.019344 201.37618 
L 65.62265 205.336725 
L 68.225956 211.945481 
L 70.829261 213.688515 
L 73.432567 216.118222 
L 76.035873 218.601952 
L 78.639179 221.710769 
L 81.242485 224.204641 
L 83.84579 223.21283 
L 86.449096 224.929727 
L 89.052402 226.782792 
L 91.655708 227.362744 
L 94.259013 228.282638 
L 96.862319 229.778174 
L 99.465625 230.23454 
L 102.068931 231.055725 
L 104.672237 231.58023 
L 107.275542 232.456382 
L 109.878848 232.700944 
L 112.482154 233.654463 
L 115.08546 234.244603 
L 117.688765 234.427615 
L 120.292071 234.317234 
L 122.895377 235.028796 
L 125.498683 236.035619 
L 128.101989 235.810274 
L 130.705294 236.614133 
L 133.3086 236.147597 
L 135.911906 236.50046 
L 138.515212 237.499616 
L 141.118518 236.892877 
L 143.721823 237.927218 
L 146.325129 238.490664 
L 148.928435 239.739883 
L 151.531741 238.750637 
L 154.135046 239.886273 
L 156.738352 239.900524 
L 159.341658 239.22674 
L 161.944964 238.385096 
L 164.54827 240.085487 
L 167.151575 240.236431 
L 169.754881 240.743046 
L 172.358187 240.254899 
L 174.961493 240.911702 
L 177.564799 240.897426 
L 180.168104 241.073035 
L 182.77141 241.284856 
L 185.374716 240.877014 
L 187.978022 240.932275 
L 190.581327 242.559396 
L 193.184633 242.583704 
L 195.787939 241.726506 
L 198.391245 242.54919 
L 200.994551 241.834924 
L 203.597856 241.768412 
L 206.201162 242.936952 
L 208.804468 243.0289 
L 211.407774 242.673865 
L 214.01108 242.222929 
L 216.614385 242.689069 
L 219.217691 242.64492 
L 221.820997 243.45658 
L 224.424303 243.156347 
L 227.027608 243.407968 
L 229.630914 244.504786 
L 232.23422 242.728591 
L 234.837526 243.586196 
L 237.440832 244.369887 
L 240.044137 244.325536 
L 242.647443 244.731249 
L 245.250749 243.969055 
L 247.854055 244.268441 
L 250.457361 244.250333 
L 253.060666 244.421375 
L 255.663972 244.860913 
L 258.267278 244.322354 
L 260.870584 244.629885 
L 263.473889 245.559907 
L 266.077195 244.31462 
L 268.680501 245.525161 
L 271.283807 244.561012 
L 273.887113 245.152189 
L 276.490418 245.515625 
L 279.093724 245.605324 
L 281.69703 245.259475 
L 284.300336 245.336162 
L 286.903642 244.909206 
L 289.506947 246.728426 
L 292.110253 245.856413 
L 294.713559 245.326448 
L 297.316865 245.823632 
L 299.92017 246.006704 
L 302.523476 245.760084 
L 305.126782 246.33062 
L 307.730088 245.606635 
L 310.333394 246.78174 
L 312.936699 246.493255 
L 315.540005 246.766573 
L 318.143311 246.254165 
L 320.746617 247.026398 
L 323.349923 247.023985 
L 325.953228 246.232142 
L 328.556534 246.611679 
L 331.15984 246.695269 
L 333.763146 246.779524 
L 336.366451 245.482902 
L 338.969757 246.712633 
L 341.573063 246.910841 
L 344.176369 246.525937 
L 346.779675 247.15101 
L 349.38298 247.745455 
L 351.986286 246.508921 
L 354.589592 246.48635 
L 357.192898 246.870943 
L 359.796204 246.840005 
L 362.399509 246.488464 
L 365.002815 247.655906 
L 367.606121 247.22873 
L 370.209427 247.718189 
L 372.812732 246.712899 
L 375.416038 247.495618 
" clip-path="url(#p1b0342ca7c)" style="fill: none; stroke: #1f77b4; stroke-width: 1.5; stroke-linecap: square"/>
   </g>
   <g id="line2d_17">
    <path d="M 52.606121 156.537924 
L 55.209427 192.869076 
L 57.812732 201.905543 
L 60.416038 207.400991 
L 63.019344 214.580445 
L 65.62265 217.153291 
L 68.225956 218.079042 
L 70.829261 222.600743 
L 73.432567 218.818632 
L 76.035873 223.025502 
L 78.639179 227.098301 
L 81.242485 225.898147 
L 83.84579 222.23247 
L 86.449096 229.362419 
L 89.052402 228.841082 
L 91.655708 229.157184 
L 94.259013 230.038347 
L 96.862319 229.095062 
L 99.465625 231.312834 
L 102.068931 231.502213 
L 104.672237 228.893765 
L 107.275542 233.041752 
L 109.878848 231.747941 
L 112.482154 230.897603 
L 115.08546 228.703772 
L 117.688765 235.420314 
L 120.292071 229.892283 
L 122.895377 232.725633 
L 125.498683 229.929782 
L 128.101989 232.852174 
L 130.705294 233.62616 
L 133.3086 233.72668 
L 135.911906 228.998248 
L 138.515212 231.561381 
L 141.118518 231.883989 
L 143.721823 232.879446 
L 146.325129 232.201574 
L 148.928435 229.848105 
L 151.531741 232.805805 
L 154.135046 233.24453 
L 156.738352 232.10389 
L 159.341658 231.162524 
L 161.944964 232.859779 
L 164.54827 232.594758 
L 167.151575 232.236933 
L 169.754881 232.834947 
L 172.358187 231.881235 
L 174.961493 233.729712 
L 177.564799 232.44691 
L 180.168104 235.643961 
L 182.77141 233.002216 
L 185.374716 235.205925 
L 187.978022 233.172274 
L 190.581327 234.58934 
L 193.184633 232.791047 
L 195.787939 234.85364 
L 198.391245 233.484262 
L 200.994551 232.085457 
L 203.597856 235.173262 
L 206.201162 236.520326 
L 208.804468 232.4959 
L 211.407774 234.290162 
L 214.01108 232.993583 
L 216.614385 235.934595 
L 219.217691 235.111101 
L 221.820997 231.657039 
L 224.424303 235.99504 
L 227.027608 234.08946 
L 229.630914 233.471216 
L 232.23422 234.299897 
L 234.837526 234.627564 
L 237.440832 234.957357 
L 240.044137 231.172195 
L 242.647443 236.837505 
L 245.250749 236.748218 
L 247.854055 234.855256 
L 250.457361 232.382163 
L 253.060666 234.835678 
L 255.663972 234.662053 
L 258.267278 237.303934 
L 260.870584 236.282457 
L 263.473889 233.426782 
L 266.077195 236.328814 
L 268.680501 235.740736 
L 271.283807 234.365415 
L 273.887113 237.59003 
L 276.490418 233.024865 
L 279.093724 236.00546 
L 281.69703 234.397521 
L 284.300336 234.347771 
L 286.903642 235.14045 
L 289.506947 234.350236 
L 292.110253 236.902598 
L 294.713559 239.246314 
L 297.316865 236.79647 
L 299.92017 234.241746 
L 302.523476 235.267893 
L 305.126782 233.364564 
L 307.730088 237.520924 
L 310.333394 234.844739 
L 312.936699 238.483579 
L 315.540005 235.969976 
L 318.143311 236.44385 
L 320.746617 235.030704 
L 323.349923 234.805367 
L 325.953228 236.091394 
L 328.556534 237.515502 
L 331.15984 236.174416 
L 333.763146 235.779077 
L 336.366451 235.562983 
L 338.969757 235.157288 
L 341.573063 236.44995 
L 344.176369 233.202899 
L 346.779675 236.390565 
L 349.38298 234.793612 
L 351.986286 234.257053 
L 354.589592 234.441509 
L 357.192898 233.903035 
L 359.796204 237.19721 
L 362.399509 233.721354 
L 365.002815 236.326681 
L 367.606121 235.970832 
L 370.209427 232.804428 
L 372.812732 236.387529 
L 375.416038 232.853401 
" clip-path="url(#p1b0342ca7c)" style="fill: none; stroke: #ff7f0e; stroke-width: 1.5; stroke-linecap: square"/>
   </g>
   <g id="patch_3">
    <path d="M 36.465625 259.2 
L 36.465625 7.2 
" style="fill: none; stroke: #000000; stroke-width: 0.8; stroke-linejoin: miter; stroke-linecap: square"/>
   </g>
   <g id="patch_4">
    <path d="M 391.556534 259.2 
L 391.556534 7.2 
" style="fill: none; stroke: #000000; stroke-width: 0.8; stroke-linejoin: miter; stroke-linecap: square"/>
   </g>
   <g id="patch_5">
    <path d="M 36.465625 259.2 
L 391.556534 259.2 
" style="fill: none; stroke: #000000; stroke-width: 0.8; stroke-linejoin: miter; stroke-linecap: square"/>
   </g>
   <g id="patch_6">
    <path d="M 36.465625 7.2 
L 391.556534 7.2 
" style="fill: none; stroke: #000000; stroke-width: 0.8; stroke-linejoin: miter; stroke-linecap: square"/>
   </g>
   <g id="legend_1">
    <g id="patch_7">
     <path d="M 304.965909 45.1125 
L 384.556534 45.1125 
Q 386.556534 45.1125 386.556534 43.1125 
L 386.556534 14.2 
Q 386.556534 12.2 384.556534 12.2 
L 304.965909 12.2 
Q 302.965909 12.2 302.965909 14.2 
L 302.965909 43.1125 
Q 302.965909 45.1125 304.965909 45.1125 
z
" style="fill: #ffffff; opacity: 0.8; stroke: #cccccc; stroke-linejoin: miter"/>
    </g>
    <g id="line2d_18">
     <path d="M 306.965909 20.298437 
L 316.965909 20.298437 
L 326.965909 20.298437 
" style="fill: none; stroke: #1f77b4; stroke-width: 1.5; stroke-linecap: square"/>
    </g>
    <g id="text_16">
     <!-- train_loss -->
     <g transform="translate(334.965909 23.798437) scale(0.1 -0.1)">
      <defs>
       <path id="DejaVuSans-74" d="M 1172 4494 
L 1172 3500 
L 2356 3500 
L 2356 3053 
L 1172 3053 
L 1172 1153 
Q 1172 725 1289 603 
Q 1406 481 1766 481 
L 2356 481 
L 2356 0 
L 1766 0 
Q 1100 0 847 248 
Q 594 497 594 1153 
L 594 3053 
L 172 3053 
L 172 3500 
L 594 3500 
L 594 4494 
L 1172 4494 
z
" transform="scale(0.015625)"/>
       <path id="DejaVuSans-72" d="M 2631 2963 
Q 2534 3019 2420 3045 
Q 2306 3072 2169 3072 
Q 1681 3072 1420 2755 
Q 1159 2438 1159 1844 
L 1159 0 
L 581 0 
L 581 3500 
L 1159 3500 
L 1159 2956 
Q 1341 3275 1631 3429 
Q 1922 3584 2338 3584 
Q 2397 3584 2469 3576 
Q 2541 3569 2628 3553 
L 2631 2963 
z
" transform="scale(0.015625)"/>
       <path id="DejaVuSans-61" d="M 2194 1759 
Q 1497 1759 1228 1600 
Q 959 1441 959 1056 
Q 959 750 1161 570 
Q 1363 391 1709 391 
Q 2188 391 2477 730 
Q 2766 1069 2766 1631 
L 2766 1759 
L 2194 1759 
z
M 3341 1997 
L 3341 0 
L 2766 0 
L 2766 531 
Q 2569 213 2275 61 
Q 1981 -91 1556 -91 
Q 1019 -91 701 211 
Q 384 513 384 1019 
Q 384 1609 779 1909 
Q 1175 2209 1959 2209 
L 2766 2209 
L 2766 2266 
Q 2766 2663 2505 2880 
Q 2244 3097 1772 3097 
Q 1472 3097 1187 3025 
Q 903 2953 641 2809 
L 641 3341 
Q 956 3463 1253 3523 
Q 1550 3584 1831 3584 
Q 2591 3584 2966 3190 
Q 3341 2797 3341 1997 
z
" transform="scale(0.015625)"/>
       <path id="DejaVuSans-69" d="M 603 3500 
L 1178 3500 
L 1178 0 
L 603 0 
L 603 3500 
z
M 603 4863 
L 1178 4863 
L 1178 4134 
L 603 4134 
L 603 4863 
z
" transform="scale(0.015625)"/>
       <path id="DejaVuSans-6e" d="M 3513 2113 
L 3513 0 
L 2938 0 
L 2938 2094 
Q 2938 2591 2744 2837 
Q 2550 3084 2163 3084 
Q 1697 3084 1428 2787 
Q 1159 2491 1159 1978 
L 1159 0 
L 581 0 
L 581 3500 
L 1159 3500 
L 1159 2956 
Q 1366 3272 1645 3428 
Q 1925 3584 2291 3584 
Q 2894 3584 3203 3211 
Q 3513 2838 3513 2113 
z
" transform="scale(0.015625)"/>
       <path id="DejaVuSans-5f" d="M 3263 -1063 
L 3263 -1509 
L -63 -1509 
L -63 -1063 
L 3263 -1063 
z
" transform="scale(0.015625)"/>
       <path id="DejaVuSans-6c" d="M 603 4863 
L 1178 4863 
L 1178 0 
L 603 0 
L 603 4863 
z
" transform="scale(0.015625)"/>
       <path id="DejaVuSans-6f" d="M 1959 3097 
Q 1497 3097 1228 2736 
Q 959 2375 959 1747 
Q 959 1119 1226 758 
Q 1494 397 1959 397 
Q 2419 397 2687 759 
Q 2956 1122 2956 1747 
Q 2956 2369 2687 2733 
Q 2419 3097 1959 3097 
z
M 1959 3584 
Q 2709 3584 3137 3096 
Q 3566 2609 3566 1747 
Q 3566 888 3137 398 
Q 2709 -91 1959 -91 
Q 1206 -91 779 398 
Q 353 888 353 1747 
Q 353 2609 779 3096 
Q 1206 3584 1959 3584 
z
" transform="scale(0.015625)"/>
       <path id="DejaVuSans-73" d="M 2834 3397 
L 2834 2853 
Q 2591 2978 2328 3040 
Q 2066 3103 1784 3103 
Q 1356 3103 1142 2972 
Q 928 2841 928 2578 
Q 928 2378 1081 2264 
Q 1234 2150 1697 2047 
L 1894 2003 
Q 2506 1872 2764 1633 
Q 3022 1394 3022 966 
Q 3022 478 2636 193 
Q 2250 -91 1575 -91 
Q 1294 -91 989 -36 
Q 684 19 347 128 
L 347 722 
Q 666 556 975 473 
Q 1284 391 1588 391 
Q 1994 391 2212 530 
Q 2431 669 2431 922 
Q 2431 1156 2273 1281 
Q 2116 1406 1581 1522 
L 1381 1569 
Q 847 1681 609 1914 
Q 372 2147 372 2553 
Q 372 3047 722 3315 
Q 1072 3584 1716 3584 
Q 2034 3584 2315 3537 
Q 2597 3491 2834 3397 
z
" transform="scale(0.015625)"/>
      </defs>
      <use xlink:href="#DejaVuSans-74"/>
      <use xlink:href="#DejaVuSans-72" x="39.208984"/>
      <use xlink:href="#DejaVuSans-61" x="80.322266"/>
      <use xlink:href="#DejaVuSans-69" x="141.601562"/>
      <use xlink:href="#DejaVuSans-6e" x="169.384766"/>
      <use xlink:href="#DejaVuSans-5f" x="232.763672"/>
      <use xlink:href="#DejaVuSans-6c" x="282.763672"/>
      <use xlink:href="#DejaVuSans-6f" x="310.546875"/>
      <use xlink:href="#DejaVuSans-73" x="371.728516"/>
      <use xlink:href="#DejaVuSans-73" x="423.828125"/>
     </g>
    </g>
    <g id="line2d_19">
     <path d="M 306.965909 35.254687 
L 316.965909 35.254687 
L 326.965909 35.254687 
" style="fill: none; stroke: #ff7f0e; stroke-width: 1.5; stroke-linecap: square"/>
    </g>
    <g id="text_17">
     <!-- val_loss -->
     <g transform="translate(334.965909 38.754687) scale(0.1 -0.1)">
      <defs>
       <path id="DejaVuSans-76" d="M 191 3500 
L 800 3500 
L 1894 563 
L 2988 3500 
L 3597 3500 
L 2284 0 
L 1503 0 
L 191 3500 
z
" transform="scale(0.015625)"/>
      </defs>
      <use xlink:href="#DejaVuSans-76"/>
      <use xlink:href="#DejaVuSans-61" x="59.179688"/>
      <use xlink:href="#DejaVuSans-6c" x="120.458984"/>
      <use xlink:href="#DejaVuSans-5f" x="148.242188"/>
      <use xlink:href="#DejaVuSans-6c" x="198.242188"/>
      <use xlink:href="#DejaVuSans-6f" x="226.025391"/>
      <use xlink:href="#DejaVuSans-73" x="287.207031"/>
      <use xlink:href="#DejaVuSans-73" x="339.306641"/>
     </g>
    </g>
   </g>
  </g>
  <g id="axes_2">
   <g id="patch_8">
    <path d="M 462.574716 259.2 
L 817.665625 259.2 
L 817.665625 7.2 
L 462.574716 7.2 
z
" style="fill: #ffffff"/>
   </g>
   <g id="matplotlib.axis_3">
    <g id="xtick_8">
     <g id="line2d_20">
      <g>
       <use xlink:href="#m12c33f9834" x="478.715212" y="259.2" style="stroke: #000000; stroke-width: 0.8"/>
      </g>
     </g>
     <g id="text_18">
      <!-- 0 -->
      <g transform="translate(475.533962 273.798437) scale(0.1 -0.1)">
       <use xlink:href="#DejaVuSans-30"/>
      </g>
     </g>
    </g>
    <g id="xtick_9">
     <g id="line2d_21">
      <g>
       <use xlink:href="#m12c33f9834" x="530.781327" y="259.2" style="stroke: #000000; stroke-width: 0.8"/>
      </g>
     </g>
     <g id="text_19">
      <!-- 20 -->
      <g transform="translate(524.418827 273.798437) scale(0.1 -0.1)">
       <use xlink:href="#DejaVuSans-32"/>
       <use xlink:href="#DejaVuSans-30" x="63.623047"/>
      </g>
     </g>
    </g>
    <g id="xtick_10">
     <g id="line2d_22">
      <g>
       <use xlink:href="#m12c33f9834" x="582.847443" y="259.2" style="stroke: #000000; stroke-width: 0.8"/>
      </g>
     </g>
     <g id="text_20">
      <!-- 40 -->
      <g transform="translate(576.484943 273.798437) scale(0.1 -0.1)">
       <use xlink:href="#DejaVuSans-34"/>
       <use xlink:href="#DejaVuSans-30" x="63.623047"/>
      </g>
     </g>
    </g>
    <g id="xtick_11">
     <g id="line2d_23">
      <g>
       <use xlink:href="#m12c33f9834" x="634.913559" y="259.2" style="stroke: #000000; stroke-width: 0.8"/>
      </g>
     </g>
     <g id="text_21">
      <!-- 60 -->
      <g transform="translate(628.551059 273.798437) scale(0.1 -0.1)">
       <use xlink:href="#DejaVuSans-36"/>
       <use xlink:href="#DejaVuSans-30" x="63.623047"/>
      </g>
     </g>
    </g>
    <g id="xtick_12">
     <g id="line2d_24">
      <g>
       <use xlink:href="#m12c33f9834" x="686.979675" y="259.2" style="stroke: #000000; stroke-width: 0.8"/>
      </g>
     </g>
     <g id="text_22">
      <!-- 80 -->
      <g transform="translate(680.617175 273.798437) scale(0.1 -0.1)">
       <use xlink:href="#DejaVuSans-38"/>
       <use xlink:href="#DejaVuSans-30" x="63.623047"/>
      </g>
     </g>
    </g>
    <g id="xtick_13">
     <g id="line2d_25">
      <g>
       <use xlink:href="#m12c33f9834" x="739.04579" y="259.2" style="stroke: #000000; stroke-width: 0.8"/>
      </g>
     </g>
     <g id="text_23">
      <!-- 100 -->
      <g transform="translate(729.50204 273.798437) scale(0.1 -0.1)">
       <use xlink:href="#DejaVuSans-31"/>
       <use xlink:href="#DejaVuSans-30" x="63.623047"/>
       <use xlink:href="#DejaVuSans-30" x="127.246094"/>
      </g>
     </g>
    </g>
    <g id="xtick_14">
     <g id="line2d_26">
      <g>
       <use xlink:href="#m12c33f9834" x="791.111906" y="259.2" style="stroke: #000000; stroke-width: 0.8"/>
      </g>
     </g>
     <g id="text_24">
      <!-- 120 -->
      <g transform="translate(781.568156 273.798437) scale(0.1 -0.1)">
       <use xlink:href="#DejaVuSans-31"/>
       <use xlink:href="#DejaVuSans-32" x="63.623047"/>
       <use xlink:href="#DejaVuSans-30" x="127.246094"/>
      </g>
     </g>
    </g>
   </g>
   <g id="matplotlib.axis_4">
    <g id="ytick_9">
     <g id="line2d_27">
      <g>
       <use xlink:href="#m2673cbac7f" x="462.574716" y="244.701497" style="stroke: #000000; stroke-width: 0.8"/>
      </g>
     </g>
     <g id="text_25">
      <!-- 0.4 -->
      <g transform="translate(439.671591 248.500716) scale(0.1 -0.1)">
       <use xlink:href="#DejaVuSans-30"/>
       <use xlink:href="#DejaVuSans-2e" x="63.623047"/>
       <use xlink:href="#DejaVuSans-34" x="95.410156"/>
      </g>
     </g>
    </g>
    <g id="ytick_10">
     <g id="line2d_28">
      <g>
       <use xlink:href="#m2673cbac7f" x="462.574716" y="202.843926" style="stroke: #000000; stroke-width: 0.8"/>
      </g>
     </g>
     <g id="text_26">
      <!-- 0.5 -->
      <g transform="translate(439.671591 206.643145) scale(0.1 -0.1)">
       <use xlink:href="#DejaVuSans-30"/>
       <use xlink:href="#DejaVuSans-2e" x="63.623047"/>
       <use xlink:href="#DejaVuSans-35" x="95.410156"/>
      </g>
     </g>
    </g>
    <g id="ytick_11">
     <g id="line2d_29">
      <g>
       <use xlink:href="#m2673cbac7f" x="462.574716" y="160.986355" style="stroke: #000000; stroke-width: 0.8"/>
      </g>
     </g>
     <g id="text_27">
      <!-- 0.6 -->
      <g transform="translate(439.671591 164.785573) scale(0.1 -0.1)">
       <use xlink:href="#DejaVuSans-30"/>
       <use xlink:href="#DejaVuSans-2e" x="63.623047"/>
       <use xlink:href="#DejaVuSans-36" x="95.410156"/>
      </g>
     </g>
    </g>
    <g id="ytick_12">
     <g id="line2d_30">
      <g>
       <use xlink:href="#m2673cbac7f" x="462.574716" y="119.128783" style="stroke: #000000; stroke-width: 0.8"/>
      </g>
     </g>
     <g id="text_28">
      <!-- 0.7 -->
      <g transform="translate(439.671591 122.928002) scale(0.1 -0.1)">
       <use xlink:href="#DejaVuSans-30"/>
       <use xlink:href="#DejaVuSans-2e" x="63.623047"/>
       <use xlink:href="#DejaVuSans-37" x="95.410156"/>
      </g>
     </g>
    </g>
    <g id="ytick_13">
     <g id="line2d_31">
      <g>
       <use xlink:href="#m2673cbac7f" x="462.574716" y="77.271212" style="stroke: #000000; stroke-width: 0.8"/>
      </g>
     </g>
     <g id="text_29">
      <!-- 0.8 -->
      <g transform="translate(439.671591 81.07043) scale(0.1 -0.1)">
       <use xlink:href="#DejaVuSans-30"/>
       <use xlink:href="#DejaVuSans-2e" x="63.623047"/>
       <use xlink:href="#DejaVuSans-38" x="95.410156"/>
      </g>
     </g>
    </g>
    <g id="ytick_14">
     <g id="line2d_32">
      <g>
       <use xlink:href="#m2673cbac7f" x="462.574716" y="35.41364" style="stroke: #000000; stroke-width: 0.8"/>
      </g>
     </g>
     <g id="text_30">
      <!-- 0.9 -->
      <g transform="translate(439.671591 39.212859) scale(0.1 -0.1)">
       <defs>
        <path id="DejaVuSans-39" d="M 703 97 
L 703 672 
Q 941 559 1184 500 
Q 1428 441 1663 441 
Q 2288 441 2617 861 
Q 2947 1281 2994 2138 
Q 2813 1869 2534 1725 
Q 2256 1581 1919 1581 
Q 1219 1581 811 2004 
Q 403 2428 403 3163 
Q 403 3881 828 4315 
Q 1253 4750 1959 4750 
Q 2769 4750 3195 4129 
Q 3622 3509 3622 2328 
Q 3622 1225 3098 567 
Q 2575 -91 1691 -91 
Q 1453 -91 1209 -44 
Q 966 3 703 97 
z
M 1959 2075 
Q 2384 2075 2632 2365 
Q 2881 2656 2881 3163 
Q 2881 3666 2632 3958 
Q 2384 4250 1959 4250 
Q 1534 4250 1286 3958 
Q 1038 3666 1038 3163 
Q 1038 2656 1286 2365 
Q 1534 2075 1959 2075 
z
" transform="scale(0.015625)"/>
       </defs>
       <use xlink:href="#DejaVuSans-30"/>
       <use xlink:href="#DejaVuSans-2e" x="63.623047"/>
       <use xlink:href="#DejaVuSans-39" x="95.410156"/>
      </g>
     </g>
    </g>
   </g>
   <g id="line2d_33">
    <path d="M 478.715212 247.745455 
L 481.318518 114.255838 
L 483.921823 86.953561 
L 486.525129 77.13264 
L 489.128435 67.739943 
L 491.731741 63.625844 
L 494.335046 57.360836 
L 496.938352 54.98863 
L 499.541658 52.91953 
L 502.144964 50.181596 
L 504.74827 46.976939 
L 507.351575 44.24382 
L 509.954881 44.469983 
L 512.558187 43.406555 
L 515.161493 41.375976 
L 517.764799 40.471348 
L 520.368104 39.874691 
L 522.97141 38.830523 
L 525.574716 37.824852 
L 528.178022 37.122311 
L 530.781327 36.641144 
L 533.384633 35.236088 
L 535.987939 35.048421 
L 538.591245 34.254467 
L 541.194551 33.782905 
L 543.797856 33.335419 
L 546.401162 33.412412 
L 549.004468 32.613643 
L 551.607774 31.930363 
L 554.21108 32.204628 
L 556.814385 31.141224 
L 559.417691 31.579105 
L 562.020997 30.544567 
L 564.624303 29.827606 
L 567.227608 29.866078 
L 569.830914 29.736168 
L 572.43422 29.250185 
L 575.037526 27.695959 
L 577.640832 28.629453 
L 580.244137 28.061662 
L 582.847443 27.368752 
L 585.450749 28.162706 
L 588.054055 29.0962 
L 590.657361 27.657462 
L 593.260666 26.89719 
L 595.863972 26.728784 
L 598.467278 27.03673 
L 601.070584 26.310164 
L 603.673889 25.747163 
L 606.277195 26.36308 
L 608.880501 26.334214 
L 611.483807 26.305348 
L 614.087113 26.055134 
L 616.690418 24.688575 
L 619.293724 24.96284 
L 621.89703 25.742348 
L 624.500336 24.573085 
L 627.103642 25.617253 
L 629.706947 25.814526 
L 632.310253 23.918672 
L 634.913559 24.202567 
L 637.516865 24.313241 
L 640.12017 24.741492 
L 642.723476 24.794433 
L 645.326782 24.69818 
L 647.930088 23.673273 
L 650.533394 23.899436 
L 653.136699 23.894621 
L 655.740005 22.2153 
L 658.343311 24.438361 
L 660.946617 23.389377 
L 663.549923 22.571373 
L 666.153228 22.657971 
L 668.756534 22.489565 
L 671.35984 22.893764 
L 673.963146 22.359655 
L 676.566451 22.595424 
L 679.169757 22.619475 
L 681.773063 22.374076 
L 684.376369 22.460699 
L 686.979675 22.268217 
L 689.58298 21.4069 
L 692.186286 22.479934 
L 694.789592 21.036382 
L 697.392898 22.556927 
L 699.996204 22.157543 
L 702.599509 21.243309 
L 705.202815 20.906472 
L 707.806121 21.233679 
L 710.409427 21.724477 
L 713.012732 22.003557 
L 715.616038 20.232823 
L 718.219344 20.651443 
L 720.82265 21.238494 
L 723.425956 21.180737 
L 726.029261 20.815059 
L 728.632567 20.973835 
L 731.235873 20.738066 
L 733.839179 21.012331 
L 736.442485 19.958533 
L 739.04579 19.790127 
L 741.649096 20.107703 
L 744.252402 20.430095 
L 746.855708 20.02592 
L 749.459013 19.895986 
L 752.062319 19.972978 
L 754.665625 19.304144 
L 757.268931 19.886355 
L 759.872237 19.640956 
L 762.475542 20.973835 
L 765.078848 20.088468 
L 767.682154 19.458105 
L 770.28546 20.584081 
L 772.888765 19.491786 
L 775.492071 19.236782 
L 778.095377 19.929667 
L 780.698683 19.698713 
L 783.301989 19.511047 
L 785.905294 19.539913 
L 788.5086 19.689083 
L 791.111906 19.525492 
L 793.715212 19.140528 
L 796.318518 18.654545 
L 798.921823 19.689083 
L 801.525129 19.453314 
" clip-path="url(#p789bbcd730)" style="fill: none; stroke: #1f77b4; stroke-width: 1.5; stroke-linecap: square"/>
   </g>
   <g id="line2d_34">
    <path d="M 478.715212 102.823232 
L 481.318518 79.756806 
L 483.921823 64.710629 
L 486.525129 59.905116 
L 489.128435 51.520362 
L 491.731741 48.902183 
L 494.335046 45.58805 
L 496.938352 44.593805 
L 499.541658 48.968473 
L 502.144964 40.948249 
L 504.74827 39.291183 
L 507.351575 41.445384 
L 509.954881 44.030406 
L 512.558187 36.606739 
L 515.161493 36.40787 
L 517.764799 35.214781 
L 520.368104 38.495782 
L 522.97141 37.236428 
L 525.574716 34.121114 
L 528.178022 35.811338 
L 530.781327 35.049095 
L 533.384633 31.801226 
L 535.987939 32.596627 
L 538.591245 34.154272 
L 541.194551 34.220561 
L 543.797856 30.608138 
L 546.401162 35.281071 
L 549.004468 30.541848 
L 551.607774 33.292581 
L 554.21108 31.768094 
L 556.814385 30.541848 
L 559.417691 30.309872 
L 562.020997 32.828604 
L 564.624303 32.099492 
L 567.227608 34.319983 
L 569.830914 31.304116 
L 572.43422 31.304116 
L 575.037526 35.347361 
L 577.640832 30.773849 
L 580.244137 29.547603 
L 582.847443 30.309872 
L 585.450749 30.906404 
L 588.054055 29.879026 
L 590.657361 31.734937 
L 593.260666 31.635515 
L 595.863972 32.298361 
L 598.467278 32.099492 
L 601.070584 29.216205 
L 603.673889 29.64705 
L 606.277195 27.65856 
L 608.880501 29.448181 
L 611.483807 28.188828 
L 614.087113 30.111028 
L 616.690418 29.779604 
L 619.293724 29.282494 
L 621.89703 28.387671 
L 624.500336 28.15567 
L 627.103642 32.033228 
L 629.706947 28.951071 
L 632.310253 27.393427 
L 634.913559 28.752227 
L 637.516865 29.116783 
L 640.12017 29.680182 
L 642.723476 28.884781 
L 645.326782 27.161425 
L 647.930088 30.442426 
L 650.533394 27.592271 
L 653.136699 29.249337 
L 655.740005 28.951071 
L 658.343311 29.050493 
L 660.946617 29.348759 
L 663.549923 26.664315 
L 666.153228 30.409294 
L 668.756534 28.652805 
L 671.35984 27.393427 
L 673.963146 27.625403 
L 676.566451 29.348759 
L 679.169757 26.896292 
L 681.773063 30.309872 
L 684.376369 25.570649 
L 686.979675 27.791115 
L 689.58298 27.956826 
L 692.186286 25.968336 
L 694.789592 24.974092 
L 697.392898 28.785359 
L 699.996204 26.034626 
L 702.599509 30.508716 
L 705.202815 26.995739 
L 707.806121 27.459716 
L 710.409427 27.857404 
L 713.012732 26.995739 
L 715.616038 29.249337 
L 718.219344 26.896292 
L 720.82265 24.013004 
L 723.425956 27.260847 
L 726.029261 27.559138 
L 728.632567 27.095161 
L 731.235873 28.984203 
L 733.839179 25.636938 
L 736.442485 29.680182 
L 739.04579 25.504359 
L 741.649096 25.139803 
L 744.252402 25.769493 
L 746.855708 26.034626 
L 749.459013 25.769493 
L 752.062319 27.062003 
L 754.665625 25.206093 
L 757.268931 26.763737 
L 759.872237 26.896292 
L 762.475542 26.498604 
L 765.078848 27.956826 
L 767.682154 25.504359 
L 770.28546 27.459716 
L 772.888765 26.167205 
L 775.492071 27.260847 
L 778.095377 28.553383 
L 780.698683 26.929449 
L 783.301989 26.697448 
L 785.905294 25.935204 
L 788.5086 27.028871 
L 791.111906 25.404937 
L 793.715212 26.598026 
L 796.318518 30.972693 
L 798.921823 27.824272 
L 801.525129 29.017361 
" clip-path="url(#p789bbcd730)" style="fill: none; stroke: #ff7f0e; stroke-width: 1.5; stroke-linecap: square"/>
   </g>
   <g id="patch_9">
    <path d="M 462.574716 259.2 
L 462.574716 7.2 
" style="fill: none; stroke: #000000; stroke-width: 0.8; stroke-linejoin: miter; stroke-linecap: square"/>
   </g>
   <g id="patch_10">
    <path d="M 817.665625 259.2 
L 817.665625 7.2 
" style="fill: none; stroke: #000000; stroke-width: 0.8; stroke-linejoin: miter; stroke-linecap: square"/>
   </g>
   <g id="patch_11">
    <path d="M 462.574716 259.2 
L 817.665625 259.2 
" style="fill: none; stroke: #000000; stroke-width: 0.8; stroke-linejoin: miter; stroke-linecap: square"/>
   </g>
   <g id="patch_12">
    <path d="M 462.574716 7.2 
L 817.665625 7.2 
" style="fill: none; stroke: #000000; stroke-width: 0.8; stroke-linejoin: miter; stroke-linecap: square"/>
   </g>
   <g id="legend_2">
    <g id="patch_13">
     <path d="M 733.265625 254.2 
L 810.665625 254.2 
Q 812.665625 254.2 812.665625 252.2 
L 812.665625 223.2875 
Q 812.665625 221.2875 810.665625 221.2875 
L 733.265625 221.2875 
Q 731.265625 221.2875 731.265625 223.2875 
L 731.265625 252.2 
Q 731.265625 254.2 733.265625 254.2 
z
" style="fill: #ffffff; opacity: 0.8; stroke: #cccccc; stroke-linejoin: miter"/>
    </g>
    <g id="line2d_35">
     <path d="M 735.265625 229.385937 
L 745.265625 229.385937 
L 755.265625 229.385937 
" style="fill: none; stroke: #1f77b4; stroke-width: 1.5; stroke-linecap: square"/>
    </g>
    <g id="text_31">
     <!-- train_acc -->
     <g transform="translate(763.265625 232.885937) scale(0.1 -0.1)">
      <defs>
       <path id="DejaVuSans-63" d="M 3122 3366 
L 3122 2828 
Q 2878 2963 2633 3030 
Q 2388 3097 2138 3097 
Q 1578 3097 1268 2742 
Q 959 2388 959 1747 
Q 959 1106 1268 751 
Q 1578 397 2138 397 
Q 2388 397 2633 464 
Q 2878 531 3122 666 
L 3122 134 
Q 2881 22 2623 -34 
Q 2366 -91 2075 -91 
Q 1284 -91 818 406 
Q 353 903 353 1747 
Q 353 2603 823 3093 
Q 1294 3584 2113 3584 
Q 2378 3584 2631 3529 
Q 2884 3475 3122 3366 
z
" transform="scale(0.015625)"/>
      </defs>
      <use xlink:href="#DejaVuSans-74"/>
      <use xlink:href="#DejaVuSans-72" x="39.208984"/>
      <use xlink:href="#DejaVuSans-61" x="80.322266"/>
      <use xlink:href="#DejaVuSans-69" x="141.601562"/>
      <use xlink:href="#DejaVuSans-6e" x="169.384766"/>
      <use xlink:href="#DejaVuSans-5f" x="232.763672"/>
      <use xlink:href="#DejaVuSans-61" x="282.763672"/>
      <use xlink:href="#DejaVuSans-63" x="344.042969"/>
      <use xlink:href="#DejaVuSans-63" x="399.023438"/>
     </g>
    </g>
    <g id="line2d_36">
     <path d="M 735.265625 244.342187 
L 745.265625 244.342187 
L 755.265625 244.342187 
" style="fill: none; stroke: #ff7f0e; stroke-width: 1.5; stroke-linecap: square"/>
    </g>
    <g id="text_32">
     <!-- val_acc -->
     <g transform="translate(763.265625 247.842187) scale(0.1 -0.1)">
      <use xlink:href="#DejaVuSans-76"/>
      <use xlink:href="#DejaVuSans-61" x="59.179688"/>
      <use xlink:href="#DejaVuSans-6c" x="120.458984"/>
      <use xlink:href="#DejaVuSans-5f" x="148.242188"/>
      <use xlink:href="#DejaVuSans-61" x="198.242188"/>
      <use xlink:href="#DejaVuSans-63" x="259.521484"/>
      <use xlink:href="#DejaVuSans-63" x="314.501953"/>
     </g>
    </g>
   </g>
  </g>
 </g>
 <defs>
  <clipPath id="p1b0342ca7c">
   <rect x="36.465625" y="7.2" width="355.090909" height="252"/>
  </clipPath>
  <clipPath id="p789bbcd730">
   <rect x="462.574716" y="7.2" width="355.090909" height="252"/>
  </clipPath>
 </defs>
</svg>
