<?xml version="1.0" encoding="utf-8" standalone="no"?>
<!DOCTYPE svg PUBLIC "-//W3C//DTD SVG 1.1//EN"
  "http://www.w3.org/Graphics/SVG/1.1/DTD/svg11.dtd">
<svg xmlns:xlink="http://www.w3.org/1999/xlink" width="824.865625pt" height="283.078125pt" viewBox="0 0 824.865625 283.078125" xmlns="http://www.w3.org/2000/svg" version="1.1">
 <metadata>
  <rdf:RDF xmlns:dc="http://purl.org/dc/elements/1.1/" xmlns:cc="http://creativecommons.org/ns#" xmlns:rdf="http://www.w3.org/1999/02/22-rdf-syntax-ns#">
   <cc:Work>
    <dc:type rdf:resource="http://purl.org/dc/dcmitype/StillImage"/>
    <dc:date>2023-01-22T23:53:23.091833</dc:date>
    <dc:format>image/svg+xml</dc:format>
    <dc:creator>
     <cc:Agent>
      <dc:title>Matplotlib v3.6.2, https://matplotlib.org/</dc:title>
     </cc:Agent>
    </dc:creator>
   </cc:Work>
  </rdf:RDF>
 </metadata>
 <defs>
  <style type="text/css">*{stroke-linejoin: round; stroke-linecap: butt}</style>
 </defs>
 <g id="figure_1">
  <g id="patch_1">
   <path d="M 0 283.078125 
L 824.865625 283.078125 
L 824.865625 0 
L 0 0 
z
" style="fill: #ffffff"/>
  </g>
  <g id="axes_1">
   <g id="patch_2">
    <path d="M 36.465625 259.2 
L 391.556534 259.2 
L 391.556534 7.2 
L 36.465625 7.2 
z
" style="fill: #ffffff"/>
   </g>
   <g id="matplotlib.axis_1">
    <g id="xtick_1">
     <g id="line2d_1">
      <defs>
       <path id="m54b3469078" d="M 0 0 
L 0 3.5 
" style="stroke: #000000; stroke-width: 0.8"/>
      </defs>
      <g>
       <use xlink:href="#m54b3469078" x="52.606121" y="259.2" style="stroke: #000000; stroke-width: 0.8"/>
      </g>
     </g>
     <g id="text_1">
      <!-- 0 -->
      <g transform="translate(49.424871 273.798437) scale(0.1 -0.1)">
       <defs>
        <path id="DejaVuSans-30" d="M 2034 4250 
Q 1547 4250 1301 3770 
Q 1056 3291 1056 2328 
Q 1056 1369 1301 889 
Q 1547 409 2034 409 
Q 2525 409 2770 889 
Q 3016 1369 3016 2328 
Q 3016 3291 2770 3770 
Q 2525 4250 2034 4250 
z
M 2034 4750 
Q 2819 4750 3233 4129 
Q 3647 3509 3647 2328 
Q 3647 1150 3233 529 
Q 2819 -91 2034 -91 
Q 1250 -91 836 529 
Q 422 1150 422 2328 
Q 422 3509 836 4129 
Q 1250 4750 2034 4750 
z
" transform="scale(0.015625)"/>
       </defs>
       <use xlink:href="#DejaVuSans-30"/>
      </g>
     </g>
    </g>
    <g id="xtick_2">
     <g id="line2d_2">
      <g>
       <use xlink:href="#m54b3469078" x="104.672237" y="259.2" style="stroke: #000000; stroke-width: 0.8"/>
      </g>
     </g>
     <g id="text_2">
      <!-- 20 -->
      <g transform="translate(98.309737 273.798437) scale(0.1 -0.1)">
       <defs>
        <path id="DejaVuSans-32" d="M 1228 531 
L 3431 531 
L 3431 0 
L 469 0 
L 469 531 
Q 828 903 1448 1529 
Q 2069 2156 2228 2338 
Q 2531 2678 2651 2914 
Q 2772 3150 2772 3378 
Q 2772 3750 2511 3984 
Q 2250 4219 1831 4219 
Q 1534 4219 1204 4116 
Q 875 4013 500 3803 
L 500 4441 
Q 881 4594 1212 4672 
Q 1544 4750 1819 4750 
Q 2544 4750 2975 4387 
Q 3406 4025 3406 3419 
Q 3406 3131 3298 2873 
Q 3191 2616 2906 2266 
Q 2828 2175 2409 1742 
Q 1991 1309 1228 531 
z
" transform="scale(0.015625)"/>
       </defs>
       <use xlink:href="#DejaVuSans-32"/>
       <use xlink:href="#DejaVuSans-30" x="63.623047"/>
      </g>
     </g>
    </g>
    <g id="xtick_3">
     <g id="line2d_3">
      <g>
       <use xlink:href="#m54b3469078" x="156.738352" y="259.2" style="stroke: #000000; stroke-width: 0.8"/>
      </g>
     </g>
     <g id="text_3">
      <!-- 40 -->
      <g transform="translate(150.375852 273.798437) scale(0.1 -0.1)">
       <defs>
        <path id="DejaVuSans-34" d="M 2419 4116 
L 825 1625 
L 2419 1625 
L 2419 4116 
z
M 2253 4666 
L 3047 4666 
L 3047 1625 
L 3713 1625 
L 3713 1100 
L 3047 1100 
L 3047 0 
L 2419 0 
L 2419 1100 
L 313 1100 
L 313 1709 
L 2253 4666 
z
" transform="scale(0.015625)"/>
       </defs>
       <use xlink:href="#DejaVuSans-34"/>
       <use xlink:href="#DejaVuSans-30" x="63.623047"/>
      </g>
     </g>
    </g>
    <g id="xtick_4">
     <g id="line2d_4">
      <g>
       <use xlink:href="#m54b3469078" x="208.804468" y="259.2" style="stroke: #000000; stroke-width: 0.8"/>
      </g>
     </g>
     <g id="text_4">
      <!-- 60 -->
      <g transform="translate(202.441968 273.798437) scale(0.1 -0.1)">
       <defs>
        <path id="DejaVuSans-36" d="M 2113 2584 
Q 1688 2584 1439 2293 
Q 1191 2003 1191 1497 
Q 1191 994 1439 701 
Q 1688 409 2113 409 
Q 2538 409 2786 701 
Q 3034 994 3034 1497 
Q 3034 2003 2786 2293 
Q 2538 2584 2113 2584 
z
M 3366 4563 
L 3366 3988 
Q 3128 4100 2886 4159 
Q 2644 4219 2406 4219 
Q 1781 4219 1451 3797 
Q 1122 3375 1075 2522 
Q 1259 2794 1537 2939 
Q 1816 3084 2150 3084 
Q 2853 3084 3261 2657 
Q 3669 2231 3669 1497 
Q 3669 778 3244 343 
Q 2819 -91 2113 -91 
Q 1303 -91 875 529 
Q 447 1150 447 2328 
Q 447 3434 972 4092 
Q 1497 4750 2381 4750 
Q 2619 4750 2861 4703 
Q 3103 4656 3366 4563 
z
" transform="scale(0.015625)"/>
       </defs>
       <use xlink:href="#DejaVuSans-36"/>
       <use xlink:href="#DejaVuSans-30" x="63.623047"/>
      </g>
     </g>
    </g>
    <g id="xtick_5">
     <g id="line2d_5">
      <g>
       <use xlink:href="#m54b3469078" x="260.870584" y="259.2" style="stroke: #000000; stroke-width: 0.8"/>
      </g>
     </g>
     <g id="text_5">
      <!-- 80 -->
      <g transform="translate(254.508084 273.798437) scale(0.1 -0.1)">
       <defs>
        <path id="DejaVuSans-38" d="M 2034 2216 
Q 1584 2216 1326 1975 
Q 1069 1734 1069 1313 
Q 1069 891 1326 650 
Q 1584 409 2034 409 
Q 2484 409 2743 651 
Q 3003 894 3003 1313 
Q 3003 1734 2745 1975 
Q 2488 2216 2034 2216 
z
M 1403 2484 
Q 997 2584 770 2862 
Q 544 3141 544 3541 
Q 544 4100 942 4425 
Q 1341 4750 2034 4750 
Q 2731 4750 3128 4425 
Q 3525 4100 3525 3541 
Q 3525 3141 3298 2862 
Q 3072 2584 2669 2484 
Q 3125 2378 3379 2068 
Q 3634 1759 3634 1313 
Q 3634 634 3220 271 
Q 2806 -91 2034 -91 
Q 1263 -91 848 271 
Q 434 634 434 1313 
Q 434 1759 690 2068 
Q 947 2378 1403 2484 
z
M 1172 3481 
Q 1172 3119 1398 2916 
Q 1625 2713 2034 2713 
Q 2441 2713 2670 2916 
Q 2900 3119 2900 3481 
Q 2900 3844 2670 4047 
Q 2441 4250 2034 4250 
Q 1625 4250 1398 4047 
Q 1172 3844 1172 3481 
z
" transform="scale(0.015625)"/>
       </defs>
       <use xlink:href="#DejaVuSans-38"/>
       <use xlink:href="#DejaVuSans-30" x="63.623047"/>
      </g>
     </g>
    </g>
    <g id="xtick_6">
     <g id="line2d_6">
      <g>
       <use xlink:href="#m54b3469078" x="312.936699" y="259.2" style="stroke: #000000; stroke-width: 0.8"/>
      </g>
     </g>
     <g id="text_6">
      <!-- 100 -->
      <g transform="translate(303.392949 273.798437) scale(0.1 -0.1)">
       <defs>
        <path id="DejaVuSans-31" d="M 794 531 
L 1825 531 
L 1825 4091 
L 703 3866 
L 703 4441 
L 1819 4666 
L 2450 4666 
L 2450 531 
L 3481 531 
L 3481 0 
L 794 0 
L 794 531 
z
" transform="scale(0.015625)"/>
       </defs>
       <use xlink:href="#DejaVuSans-31"/>
       <use xlink:href="#DejaVuSans-30" x="63.623047"/>
       <use xlink:href="#DejaVuSans-30" x="127.246094"/>
      </g>
     </g>
    </g>
    <g id="xtick_7">
     <g id="line2d_7">
      <g>
       <use xlink:href="#m54b3469078" x="365.002815" y="259.2" style="stroke: #000000; stroke-width: 0.8"/>
      </g>
     </g>
     <g id="text_7">
      <!-- 120 -->
      <g transform="translate(355.459065 273.798437) scale(0.1 -0.1)">
       <use xlink:href="#DejaVuSans-31"/>
       <use xlink:href="#DejaVuSans-32" x="63.623047"/>
       <use xlink:href="#DejaVuSans-30" x="127.246094"/>
      </g>
     </g>
    </g>
   </g>
   <g id="matplotlib.axis_2">
    <g id="ytick_1">
     <g id="line2d_8">
      <defs>
       <path id="m9fd320cdaa" d="M 0 0 
L -3.5 0 
" style="stroke: #000000; stroke-width: 0.8"/>
      </defs>
      <g>
       <use xlink:href="#m9fd320cdaa" x="36.465625" y="243.600632" style="stroke: #000000; stroke-width: 0.8"/>
      </g>
     </g>
     <g id="text_8">
      <!-- 0.25 -->
      <g transform="translate(7.2 247.399851) scale(0.1 -0.1)">
       <defs>
        <path id="DejaVuSans-2e" d="M 684 794 
L 1344 794 
L 1344 0 
L 684 0 
L 684 794 
z
" transform="scale(0.015625)"/>
        <path id="DejaVuSans-35" d="M 691 4666 
L 3169 4666 
L 3169 4134 
L 1269 4134 
L 1269 2991 
Q 1406 3038 1543 3061 
Q 1681 3084 1819 3084 
Q 2600 3084 3056 2656 
Q 3513 2228 3513 1497 
Q 3513 744 3044 326 
Q 2575 -91 1722 -91 
Q 1428 -91 1123 -41 
Q 819 9 494 109 
L 494 744 
Q 775 591 1075 516 
Q 1375 441 1709 441 
Q 2250 441 2565 725 
Q 2881 1009 2881 1497 
Q 2881 1984 2565 2268 
Q 2250 2553 1709 2553 
Q 1456 2553 1204 2497 
Q 953 2441 691 2322 
L 691 4666 
z
" transform="scale(0.015625)"/>
       </defs>
       <use xlink:href="#DejaVuSans-30"/>
       <use xlink:href="#DejaVuSans-2e" x="63.623047"/>
       <use xlink:href="#DejaVuSans-32" x="95.410156"/>
       <use xlink:href="#DejaVuSans-35" x="159.033203"/>
      </g>
     </g>
    </g>
    <g id="ytick_2">
     <g id="line2d_9">
      <g>
       <use xlink:href="#m9fd320cdaa" x="36.465625" y="212.850396" style="stroke: #000000; stroke-width: 0.8"/>
      </g>
     </g>
     <g id="text_9">
      <!-- 0.50 -->
      <g transform="translate(7.2 216.649615) scale(0.1 -0.1)">
       <use xlink:href="#DejaVuSans-30"/>
       <use xlink:href="#DejaVuSans-2e" x="63.623047"/>
       <use xlink:href="#DejaVuSans-35" x="95.410156"/>
       <use xlink:href="#DejaVuSans-30" x="159.033203"/>
      </g>
     </g>
    </g>
    <g id="ytick_3">
     <g id="line2d_10">
      <g>
       <use xlink:href="#m9fd320cdaa" x="36.465625" y="182.10016" style="stroke: #000000; stroke-width: 0.8"/>
      </g>
     </g>
     <g id="text_10">
      <!-- 0.75 -->
      <g transform="translate(7.2 185.899379) scale(0.1 -0.1)">
       <defs>
        <path id="DejaVuSans-37" d="M 525 4666 
L 3525 4666 
L 3525 4397 
L 1831 0 
L 1172 0 
L 2766 4134 
L 525 4134 
L 525 4666 
z
" transform="scale(0.015625)"/>
       </defs>
       <use xlink:href="#DejaVuSans-30"/>
       <use xlink:href="#DejaVuSans-2e" x="63.623047"/>
       <use xlink:href="#DejaVuSans-37" x="95.410156"/>
       <use xlink:href="#DejaVuSans-35" x="159.033203"/>
      </g>
     </g>
    </g>
    <g id="ytick_4">
     <g id="line2d_11">
      <g>
       <use xlink:href="#m9fd320cdaa" x="36.465625" y="151.349924" style="stroke: #000000; stroke-width: 0.8"/>
      </g>
     </g>
     <g id="text_11">
      <!-- 1.00 -->
      <g transform="translate(7.2 155.149143) scale(0.1 -0.1)">
       <use xlink:href="#DejaVuSans-31"/>
       <use xlink:href="#DejaVuSans-2e" x="63.623047"/>
       <use xlink:href="#DejaVuSans-30" x="95.410156"/>
       <use xlink:href="#DejaVuSans-30" x="159.033203"/>
      </g>
     </g>
    </g>
    <g id="ytick_5">
     <g id="line2d_12">
      <g>
       <use xlink:href="#m9fd320cdaa" x="36.465625" y="120.599688" style="stroke: #000000; stroke-width: 0.8"/>
      </g>
     </g>
     <g id="text_12">
      <!-- 1.25 -->
      <g transform="translate(7.2 124.398907) scale(0.1 -0.1)">
       <use xlink:href="#DejaVuSans-31"/>
       <use xlink:href="#DejaVuSans-2e" x="63.623047"/>
       <use xlink:href="#DejaVuSans-32" x="95.410156"/>
       <use xlink:href="#DejaVuSans-35" x="159.033203"/>
      </g>
     </g>
    </g>
    <g id="ytick_6">
     <g id="line2d_13">
      <g>
       <use xlink:href="#m9fd320cdaa" x="36.465625" y="89.849452" style="stroke: #000000; stroke-width: 0.8"/>
      </g>
     </g>
     <g id="text_13">
      <!-- 1.50 -->
      <g transform="translate(7.2 93.648671) scale(0.1 -0.1)">
       <use xlink:href="#DejaVuSans-31"/>
       <use xlink:href="#DejaVuSans-2e" x="63.623047"/>
       <use xlink:href="#DejaVuSans-35" x="95.410156"/>
       <use xlink:href="#DejaVuSans-30" x="159.033203"/>
      </g>
     </g>
    </g>
    <g id="ytick_7">
     <g id="line2d_14">
      <g>
       <use xlink:href="#m9fd320cdaa" x="36.465625" y="59.099216" style="stroke: #000000; stroke-width: 0.8"/>
      </g>
     </g>
     <g id="text_14">
      <!-- 1.75 -->
      <g transform="translate(7.2 62.898435) scale(0.1 -0.1)">
       <use xlink:href="#DejaVuSans-31"/>
       <use xlink:href="#DejaVuSans-2e" x="63.623047"/>
       <use xlink:href="#DejaVuSans-37" x="95.410156"/>
       <use xlink:href="#DejaVuSans-35" x="159.033203"/>
      </g>
     </g>
    </g>
    <g id="ytick_8">
     <g id="line2d_15">
      <g>
       <use xlink:href="#m9fd320cdaa" x="36.465625" y="28.34898" style="stroke: #000000; stroke-width: 0.8"/>
      </g>
     </g>
     <g id="text_15">
      <!-- 2.00 -->
      <g transform="translate(7.2 32.148199) scale(0.1 -0.1)">
       <use xlink:href="#DejaVuSans-32"/>
       <use xlink:href="#DejaVuSans-2e" x="63.623047"/>
       <use xlink:href="#DejaVuSans-30" x="95.410156"/>
       <use xlink:href="#DejaVuSans-30" x="159.033203"/>
      </g>
     </g>
    </g>
   </g>
   <g id="line2d_16">
    <path d="M 52.606121 18.654545 
L 55.209427 155.761376 
L 57.812732 179.195096 
L 60.416038 192.195374 
L 63.019344 201.759808 
L 65.62265 206.738955 
L 68.225956 210.510937 
L 70.829261 213.705647 
L 73.432567 215.794463 
L 76.035873 218.341917 
L 78.639179 220.25079 
L 81.242485 220.988457 
L 83.84579 223.422359 
L 86.449096 224.202507 
L 89.052402 225.200948 
L 91.655708 226.055686 
L 94.259013 227.4035 
L 96.862319 229.131858 
L 99.465625 229.123585 
L 102.068931 229.600659 
L 104.672237 229.722467 
L 107.275542 230.947805 
L 109.878848 232.13701 
L 112.482154 232.515576 
L 115.08546 233.568028 
L 117.688765 233.635789 
L 120.292071 234.030615 
L 122.895377 234.51556 
L 125.498683 233.842308 
L 128.101989 235.125832 
L 130.705294 235.844377 
L 133.3086 235.139893 
L 135.911906 236.189955 
L 138.515212 236.549247 
L 141.118518 237.502592 
L 143.721823 237.342965 
L 146.325129 236.791767 
L 148.928435 237.800098 
L 151.531741 236.497905 
L 154.135046 238.604931 
L 156.738352 238.336146 
L 159.341658 238.326751 
L 161.944964 239.098556 
L 164.54827 240.055905 
L 167.151575 239.626522 
L 169.754881 240.031227 
L 172.358187 238.991884 
L 174.961493 239.401568 
L 177.564799 239.844397 
L 180.168104 239.372517 
L 182.77141 240.839198 
L 185.374716 240.807387 
L 187.978022 240.499537 
L 190.581327 241.076451 
L 193.184633 240.522308 
L 195.787939 241.289682 
L 198.391245 241.414705 
L 200.994551 241.60424 
L 203.597856 241.9044 
L 206.201162 242.739559 
L 208.804468 242.072466 
L 211.407774 241.842416 
L 214.01108 242.415202 
L 216.614385 241.811723 
L 219.217691 243.295546 
L 221.820997 242.874421 
L 224.424303 243.545115 
L 227.027608 242.153082 
L 229.630914 243.743331 
L 232.23422 243.22718 
L 234.837526 243.766515 
L 237.440832 243.677117 
L 240.044137 243.744557 
L 242.647443 243.936179 
L 245.250749 243.79437 
L 247.854055 244.252676 
L 250.457361 243.777809 
L 253.060666 244.37054 
L 255.663972 244.062977 
L 258.267278 243.462094 
L 260.870584 244.561921 
L 263.473889 244.531866 
L 266.077195 245.041063 
L 268.680501 245.036912 
L 271.283807 245.349143 
L 273.887113 245.103468 
L 276.490418 245.380314 
L 279.093724 245.219217 
L 281.69703 244.872539 
L 284.300336 244.507095 
L 286.903642 245.242775 
L 289.506947 245.374957 
L 292.110253 245.055176 
L 294.713559 245.431469 
L 297.316865 245.605077 
L 299.92017 245.897957 
L 302.523476 245.749292 
L 305.126782 244.822695 
L 307.730088 246.074778 
L 310.333394 245.672268 
L 312.936699 245.309032 
L 315.540005 246.625467 
L 318.143311 246.172893 
L 320.746617 246.365478 
L 323.349923 246.321442 
L 325.953228 246.173747 
L 328.556534 246.54817 
L 331.15984 246.045643 
L 333.763146 246.792591 
L 336.366451 245.827718 
L 338.969757 246.210021 
L 341.573063 247.131939 
L 344.176369 246.601633 
L 346.779675 247.426862 
L 349.38298 246.627648 
L 351.986286 247.39738 
L 354.589592 246.638875 
L 357.192898 246.647581 
L 359.796204 246.854816 
L 362.399509 247.317556 
L 365.002815 247.464481 
L 367.606121 246.556977 
L 370.209427 247.578762 
L 372.812732 247.278426 
L 375.416038 247.745455 
" clip-path="url(#p63f0375b24)" style="fill: none; stroke: #1f77b4; stroke-width: 1.5; stroke-linecap: square"/>
   </g>
   <g id="line2d_17">
    <path d="M 52.606121 158.701469 
L 55.209427 197.765053 
L 57.812732 206.485412 
L 60.416038 211.634838 
L 63.019344 212.497696 
L 65.62265 217.854894 
L 68.225956 215.718289 
L 70.829261 220.463574 
L 73.432567 223.206221 
L 76.035873 224.012703 
L 78.639179 220.104913 
L 81.242485 221.240742 
L 83.84579 221.81697 
L 86.449096 226.337173 
L 89.052402 222.910625 
L 91.655708 225.987405 
L 94.259013 228.636723 
L 96.862319 225.69623 
L 99.465625 232.517636 
L 102.068931 224.172668 
L 104.672237 229.937351 
L 107.275542 228.21227 
L 109.878848 231.1888 
L 112.482154 230.104995 
L 115.08546 225.234548 
L 117.688765 226.95434 
L 120.292071 231.277034 
L 122.895377 227.233103 
L 125.498683 229.509936 
L 128.101989 230.677891 
L 130.705294 227.527555 
L 133.3086 229.368231 
L 135.911906 230.710417 
L 138.515212 232.525532 
L 141.118518 232.53319 
L 143.721823 230.458931 
L 146.325129 231.853093 
L 148.928435 230.862533 
L 151.531741 227.181233 
L 154.135046 234.649659 
L 156.738352 228.038262 
L 159.341658 231.136989 
L 161.944964 230.346797 
L 164.54827 233.320171 
L 167.151575 229.432168 
L 169.754881 232.169349 
L 172.358187 230.729534 
L 174.961493 231.133888 
L 177.564799 232.279617 
L 180.168104 232.095544 
L 182.77141 231.482856 
L 185.374716 233.562775 
L 187.978022 231.463325 
L 190.581327 229.795396 
L 193.184633 228.422502 
L 195.787939 231.916998 
L 198.391245 231.764698 
L 200.994551 234.655403 
L 203.597856 231.301022 
L 206.201162 230.847874 
L 208.804468 231.112945 
L 211.407774 230.402581 
L 214.01108 229.189127 
L 216.614385 231.952918 
L 219.217691 230.774299 
L 221.820997 227.809793 
L 224.424303 232.508387 
L 227.027608 231.054646 
L 229.630914 229.862215 
L 232.23422 229.605597 
L 234.837526 232.291487 
L 237.440832 228.458137 
L 240.044137 231.366393 
L 242.647443 227.791585 
L 245.250749 232.282777 
L 247.854055 225.765769 
L 250.457361 235.315551 
L 253.060666 229.664013 
L 255.663972 231.824911 
L 258.267278 230.291683 
L 260.870584 232.990564 
L 263.473889 230.627407 
L 266.077195 230.128415 
L 268.680501 232.286252 
L 271.283807 233.047475 
L 273.887113 231.898618 
L 276.490418 231.490968 
L 279.093724 234.534867 
L 281.69703 231.222909 
L 284.300336 230.084196 
L 286.903642 233.719385 
L 289.506947 232.476367 
L 292.110253 232.526514 
L 294.713559 232.365512 
L 297.316865 234.699135 
L 299.92017 231.509873 
L 302.523476 233.546825 
L 305.126782 230.473267 
L 307.730088 234.775019 
L 310.333394 232.062728 
L 312.936699 234.268524 
L 315.540005 231.528293 
L 318.143311 235.900324 
L 320.746617 234.277725 
L 323.349923 233.842033 
L 325.953228 230.813361 
L 328.556534 230.636047 
L 331.15984 230.978073 
L 333.763146 233.880218 
L 336.366451 232.218514 
L 338.969757 228.829932 
L 341.573063 235.13364 
L 344.176369 233.361762 
L 346.779675 230.248937 
L 349.38298 230.345323 
L 351.986286 232.501576 
L 354.589592 232.786109 
L 357.192898 232.946337 
L 359.796204 232.480942 
L 362.399509 233.600037 
L 365.002815 234.154157 
L 367.606121 232.106852 
L 370.209427 232.360919 
L 372.812732 234.824734 
L 375.416038 232.347957 
" clip-path="url(#p63f0375b24)" style="fill: none; stroke: #ff7f0e; stroke-width: 1.5; stroke-linecap: square"/>
   </g>
   <g id="patch_3">
    <path d="M 36.465625 259.2 
L 36.465625 7.2 
" style="fill: none; stroke: #000000; stroke-width: 0.8; stroke-linejoin: miter; stroke-linecap: square"/>
   </g>
   <g id="patch_4">
    <path d="M 391.556534 259.2 
L 391.556534 7.2 
" style="fill: none; stroke: #000000; stroke-width: 0.8; stroke-linejoin: miter; stroke-linecap: square"/>
   </g>
   <g id="patch_5">
    <path d="M 36.465625 259.2 
L 391.556534 259.2 
" style="fill: none; stroke: #000000; stroke-width: 0.8; stroke-linejoin: miter; stroke-linecap: square"/>
   </g>
   <g id="patch_6">
    <path d="M 36.465625 7.2 
L 391.556534 7.2 
" style="fill: none; stroke: #000000; stroke-width: 0.8; stroke-linejoin: miter; stroke-linecap: square"/>
   </g>
   <g id="legend_1">
    <g id="patch_7">
     <path d="M 304.965909 45.1125 
L 384.556534 45.1125 
Q 386.556534 45.1125 386.556534 43.1125 
L 386.556534 14.2 
Q 386.556534 12.2 384.556534 12.2 
L 304.965909 12.2 
Q 302.965909 12.2 302.965909 14.2 
L 302.965909 43.1125 
Q 302.965909 45.1125 304.965909 45.1125 
z
" style="fill: #ffffff; opacity: 0.8; stroke: #cccccc; stroke-linejoin: miter"/>
    </g>
    <g id="line2d_18">
     <path d="M 306.965909 20.298437 
L 316.965909 20.298437 
L 326.965909 20.298437 
" style="fill: none; stroke: #1f77b4; stroke-width: 1.5; stroke-linecap: square"/>
    </g>
    <g id="text_16">
     <!-- train_loss -->
     <g transform="translate(334.965909 23.798437) scale(0.1 -0.1)">
      <defs>
       <path id="DejaVuSans-74" d="M 1172 4494 
L 1172 3500 
L 2356 3500 
L 2356 3053 
L 1172 3053 
L 1172 1153 
Q 1172 725 1289 603 
Q 1406 481 1766 481 
L 2356 481 
L 2356 0 
L 1766 0 
Q 1100 0 847 248 
Q 594 497 594 1153 
L 594 3053 
L 172 3053 
L 172 3500 
L 594 3500 
L 594 4494 
L 1172 4494 
z
" transform="scale(0.015625)"/>
       <path id="DejaVuSans-72" d="M 2631 2963 
Q 2534 3019 2420 3045 
Q 2306 3072 2169 3072 
Q 1681 3072 1420 2755 
Q 1159 2438 1159 1844 
L 1159 0 
L 581 0 
L 581 3500 
L 1159 3500 
L 1159 2956 
Q 1341 3275 1631 3429 
Q 1922 3584 2338 3584 
Q 2397 3584 2469 3576 
Q 2541 3569 2628 3553 
L 2631 2963 
z
" transform="scale(0.015625)"/>
       <path id="DejaVuSans-61" d="M 2194 1759 
Q 1497 1759 1228 1600 
Q 959 1441 959 1056 
Q 959 750 1161 570 
Q 1363 391 1709 391 
Q 2188 391 2477 730 
Q 2766 1069 2766 1631 
L 2766 1759 
L 2194 1759 
z
M 3341 1997 
L 3341 0 
L 2766 0 
L 2766 531 
Q 2569 213 2275 61 
Q 1981 -91 1556 -91 
Q 1019 -91 701 211 
Q 384 513 384 1019 
Q 384 1609 779 1909 
Q 1175 2209 1959 2209 
L 2766 2209 
L 2766 2266 
Q 2766 2663 2505 2880 
Q 2244 3097 1772 3097 
Q 1472 3097 1187 3025 
Q 903 2953 641 2809 
L 641 3341 
Q 956 3463 1253 3523 
Q 1550 3584 1831 3584 
Q 2591 3584 2966 3190 
Q 3341 2797 3341 1997 
z
" transform="scale(0.015625)"/>
       <path id="DejaVuSans-69" d="M 603 3500 
L 1178 3500 
L 1178 0 
L 603 0 
L 603 3500 
z
M 603 4863 
L 1178 4863 
L 1178 4134 
L 603 4134 
L 603 4863 
z
" transform="scale(0.015625)"/>
       <path id="DejaVuSans-6e" d="M 3513 2113 
L 3513 0 
L 2938 0 
L 2938 2094 
Q 2938 2591 2744 2837 
Q 2550 3084 2163 3084 
Q 1697 3084 1428 2787 
Q 1159 2491 1159 1978 
L 1159 0 
L 581 0 
L 581 3500 
L 1159 3500 
L 1159 2956 
Q 1366 3272 1645 3428 
Q 1925 3584 2291 3584 
Q 2894 3584 3203 3211 
Q 3513 2838 3513 2113 
z
" transform="scale(0.015625)"/>
       <path id="DejaVuSans-5f" d="M 3263 -1063 
L 3263 -1509 
L -63 -1509 
L -63 -1063 
L 3263 -1063 
z
" transform="scale(0.015625)"/>
       <path id="DejaVuSans-6c" d="M 603 4863 
L 1178 4863 
L 1178 0 
L 603 0 
L 603 4863 
z
" transform="scale(0.015625)"/>
       <path id="DejaVuSans-6f" d="M 1959 3097 
Q 1497 3097 1228 2736 
Q 959 2375 959 1747 
Q 959 1119 1226 758 
Q 1494 397 1959 397 
Q 2419 397 2687 759 
Q 2956 1122 2956 1747 
Q 2956 2369 2687 2733 
Q 2419 3097 1959 3097 
z
M 1959 3584 
Q 2709 3584 3137 3096 
Q 3566 2609 3566 1747 
Q 3566 888 3137 398 
Q 2709 -91 1959 -91 
Q 1206 -91 779 398 
Q 353 888 353 1747 
Q 353 2609 779 3096 
Q 1206 3584 1959 3584 
z
" transform="scale(0.015625)"/>
       <path id="DejaVuSans-73" d="M 2834 3397 
L 2834 2853 
Q 2591 2978 2328 3040 
Q 2066 3103 1784 3103 
Q 1356 3103 1142 2972 
Q 928 2841 928 2578 
Q 928 2378 1081 2264 
Q 1234 2150 1697 2047 
L 1894 2003 
Q 2506 1872 2764 1633 
Q 3022 1394 3022 966 
Q 3022 478 2636 193 
Q 2250 -91 1575 -91 
Q 1294 -91 989 -36 
Q 684 19 347 128 
L 347 722 
Q 666 556 975 473 
Q 1284 391 1588 391 
Q 1994 391 2212 530 
Q 2431 669 2431 922 
Q 2431 1156 2273 1281 
Q 2116 1406 1581 1522 
L 1381 1569 
Q 847 1681 609 1914 
Q 372 2147 372 2553 
Q 372 3047 722 3315 
Q 1072 3584 1716 3584 
Q 2034 3584 2315 3537 
Q 2597 3491 2834 3397 
z
" transform="scale(0.015625)"/>
      </defs>
      <use xlink:href="#DejaVuSans-74"/>
      <use xlink:href="#DejaVuSans-72" x="39.208984"/>
      <use xlink:href="#DejaVuSans-61" x="80.322266"/>
      <use xlink:href="#DejaVuSans-69" x="141.601562"/>
      <use xlink:href="#DejaVuSans-6e" x="169.384766"/>
      <use xlink:href="#DejaVuSans-5f" x="232.763672"/>
      <use xlink:href="#DejaVuSans-6c" x="282.763672"/>
      <use xlink:href="#DejaVuSans-6f" x="310.546875"/>
      <use xlink:href="#DejaVuSans-73" x="371.728516"/>
      <use xlink:href="#DejaVuSans-73" x="423.828125"/>
     </g>
    </g>
    <g id="line2d_19">
     <path d="M 306.965909 35.254687 
L 316.965909 35.254687 
L 326.965909 35.254687 
" style="fill: none; stroke: #ff7f0e; stroke-width: 1.5; stroke-linecap: square"/>
    </g>
    <g id="text_17">
     <!-- val_loss -->
     <g transform="translate(334.965909 38.754687) scale(0.1 -0.1)">
      <defs>
       <path id="DejaVuSans-76" d="M 191 3500 
L 800 3500 
L 1894 563 
L 2988 3500 
L 3597 3500 
L 2284 0 
L 1503 0 
L 191 3500 
z
" transform="scale(0.015625)"/>
      </defs>
      <use xlink:href="#DejaVuSans-76"/>
      <use xlink:href="#DejaVuSans-61" x="59.179688"/>
      <use xlink:href="#DejaVuSans-6c" x="120.458984"/>
      <use xlink:href="#DejaVuSans-5f" x="148.242188"/>
      <use xlink:href="#DejaVuSans-6c" x="198.242188"/>
      <use xlink:href="#DejaVuSans-6f" x="226.025391"/>
      <use xlink:href="#DejaVuSans-73" x="287.207031"/>
      <use xlink:href="#DejaVuSans-73" x="339.306641"/>
     </g>
    </g>
   </g>
  </g>
  <g id="axes_2">
   <g id="patch_8">
    <path d="M 462.574716 259.2 
L 817.665625 259.2 
L 817.665625 7.2 
L 462.574716 7.2 
z
" style="fill: #ffffff"/>
   </g>
   <g id="matplotlib.axis_3">
    <g id="xtick_8">
     <g id="line2d_20">
      <g>
       <use xlink:href="#m54b3469078" x="478.715212" y="259.2" style="stroke: #000000; stroke-width: 0.8"/>
      </g>
     </g>
     <g id="text_18">
      <!-- 0 -->
      <g transform="translate(475.533962 273.798437) scale(0.1 -0.1)">
       <use xlink:href="#DejaVuSans-30"/>
      </g>
     </g>
    </g>
    <g id="xtick_9">
     <g id="line2d_21">
      <g>
       <use xlink:href="#m54b3469078" x="530.781327" y="259.2" style="stroke: #000000; stroke-width: 0.8"/>
      </g>
     </g>
     <g id="text_19">
      <!-- 20 -->
      <g transform="translate(524.418827 273.798437) scale(0.1 -0.1)">
       <use xlink:href="#DejaVuSans-32"/>
       <use xlink:href="#DejaVuSans-30" x="63.623047"/>
      </g>
     </g>
    </g>
    <g id="xtick_10">
     <g id="line2d_22">
      <g>
       <use xlink:href="#m54b3469078" x="582.847443" y="259.2" style="stroke: #000000; stroke-width: 0.8"/>
      </g>
     </g>
     <g id="text_20">
      <!-- 40 -->
      <g transform="translate(576.484943 273.798437) scale(0.1 -0.1)">
       <use xlink:href="#DejaVuSans-34"/>
       <use xlink:href="#DejaVuSans-30" x="63.623047"/>
      </g>
     </g>
    </g>
    <g id="xtick_11">
     <g id="line2d_23">
      <g>
       <use xlink:href="#m54b3469078" x="634.913559" y="259.2" style="stroke: #000000; stroke-width: 0.8"/>
      </g>
     </g>
     <g id="text_21">
      <!-- 60 -->
      <g transform="translate(628.551059 273.798437) scale(0.1 -0.1)">
       <use xlink:href="#DejaVuSans-36"/>
       <use xlink:href="#DejaVuSans-30" x="63.623047"/>
      </g>
     </g>
    </g>
    <g id="xtick_12">
     <g id="line2d_24">
      <g>
       <use xlink:href="#m54b3469078" x="686.979675" y="259.2" style="stroke: #000000; stroke-width: 0.8"/>
      </g>
     </g>
     <g id="text_22">
      <!-- 80 -->
      <g transform="translate(680.617175 273.798437) scale(0.1 -0.1)">
       <use xlink:href="#DejaVuSans-38"/>
       <use xlink:href="#DejaVuSans-30" x="63.623047"/>
      </g>
     </g>
    </g>
    <g id="xtick_13">
     <g id="line2d_25">
      <g>
       <use xlink:href="#m54b3469078" x="739.04579" y="259.2" style="stroke: #000000; stroke-width: 0.8"/>
      </g>
     </g>
     <g id="text_23">
      <!-- 100 -->
      <g transform="translate(729.50204 273.798437) scale(0.1 -0.1)">
       <use xlink:href="#DejaVuSans-31"/>
       <use xlink:href="#DejaVuSans-30" x="63.623047"/>
       <use xlink:href="#DejaVuSans-30" x="127.246094"/>
      </g>
     </g>
    </g>
    <g id="xtick_14">
     <g id="line2d_26">
      <g>
       <use xlink:href="#m54b3469078" x="791.111906" y="259.2" style="stroke: #000000; stroke-width: 0.8"/>
      </g>
     </g>
     <g id="text_24">
      <!-- 120 -->
      <g transform="translate(781.568156 273.798437) scale(0.1 -0.1)">
       <use xlink:href="#DejaVuSans-31"/>
       <use xlink:href="#DejaVuSans-32" x="63.623047"/>
       <use xlink:href="#DejaVuSans-30" x="127.246094"/>
      </g>
     </g>
    </g>
   </g>
   <g id="matplotlib.axis_4">
    <g id="ytick_9">
     <g id="line2d_27">
      <g>
       <use xlink:href="#m9fd320cdaa" x="462.574716" y="252.403144" style="stroke: #000000; stroke-width: 0.8"/>
      </g>
     </g>
     <g id="text_25">
      <!-- 0.4 -->
      <g transform="translate(439.671591 256.202363) scale(0.1 -0.1)">
       <use xlink:href="#DejaVuSans-30"/>
       <use xlink:href="#DejaVuSans-2e" x="63.623047"/>
       <use xlink:href="#DejaVuSans-34" x="95.410156"/>
      </g>
     </g>
    </g>
    <g id="ytick_10">
     <g id="line2d_28">
      <g>
       <use xlink:href="#m9fd320cdaa" x="462.574716" y="209.041908" style="stroke: #000000; stroke-width: 0.8"/>
      </g>
     </g>
     <g id="text_26">
      <!-- 0.5 -->
      <g transform="translate(439.671591 212.841127) scale(0.1 -0.1)">
       <use xlink:href="#DejaVuSans-30"/>
       <use xlink:href="#DejaVuSans-2e" x="63.623047"/>
       <use xlink:href="#DejaVuSans-35" x="95.410156"/>
      </g>
     </g>
    </g>
    <g id="ytick_11">
     <g id="line2d_29">
      <g>
       <use xlink:href="#m9fd320cdaa" x="462.574716" y="165.680672" style="stroke: #000000; stroke-width: 0.8"/>
      </g>
     </g>
     <g id="text_27">
      <!-- 0.6 -->
      <g transform="translate(439.671591 169.47989) scale(0.1 -0.1)">
       <use xlink:href="#DejaVuSans-30"/>
       <use xlink:href="#DejaVuSans-2e" x="63.623047"/>
       <use xlink:href="#DejaVuSans-36" x="95.410156"/>
      </g>
     </g>
    </g>
    <g id="ytick_12">
     <g id="line2d_30">
      <g>
       <use xlink:href="#m9fd320cdaa" x="462.574716" y="122.319436" style="stroke: #000000; stroke-width: 0.8"/>
      </g>
     </g>
     <g id="text_28">
      <!-- 0.7 -->
      <g transform="translate(439.671591 126.118654) scale(0.1 -0.1)">
       <use xlink:href="#DejaVuSans-30"/>
       <use xlink:href="#DejaVuSans-2e" x="63.623047"/>
       <use xlink:href="#DejaVuSans-37" x="95.410156"/>
      </g>
     </g>
    </g>
    <g id="ytick_13">
     <g id="line2d_31">
      <g>
       <use xlink:href="#m9fd320cdaa" x="462.574716" y="78.958199" style="stroke: #000000; stroke-width: 0.8"/>
      </g>
     </g>
     <g id="text_29">
      <!-- 0.8 -->
      <g transform="translate(439.671591 82.757418) scale(0.1 -0.1)">
       <use xlink:href="#DejaVuSans-30"/>
       <use xlink:href="#DejaVuSans-2e" x="63.623047"/>
       <use xlink:href="#DejaVuSans-38" x="95.410156"/>
      </g>
     </g>
    </g>
    <g id="ytick_14">
     <g id="line2d_32">
      <g>
       <use xlink:href="#m9fd320cdaa" x="462.574716" y="35.596963" style="stroke: #000000; stroke-width: 0.8"/>
      </g>
     </g>
     <g id="text_30">
      <!-- 0.9 -->
      <g transform="translate(439.671591 39.396182) scale(0.1 -0.1)">
       <defs>
        <path id="DejaVuSans-39" d="M 703 97 
L 703 672 
Q 941 559 1184 500 
Q 1428 441 1663 441 
Q 2288 441 2617 861 
Q 2947 1281 2994 2138 
Q 2813 1869 2534 1725 
Q 2256 1581 1919 1581 
Q 1219 1581 811 2004 
Q 403 2428 403 3163 
Q 403 3881 828 4315 
Q 1253 4750 1959 4750 
Q 2769 4750 3195 4129 
Q 3622 3509 3622 2328 
Q 3622 1225 3098 567 
Q 2575 -91 1691 -91 
Q 1453 -91 1209 -44 
Q 966 3 703 97 
z
M 1959 2075 
Q 2384 2075 2632 2365 
Q 2881 2656 2881 3163 
Q 2881 3666 2632 3958 
Q 2384 4250 1959 4250 
Q 1534 4250 1286 3958 
Q 1038 3666 1038 3163 
Q 1038 2656 1286 2365 
Q 1534 2075 1959 2075 
z
" transform="scale(0.015625)"/>
       </defs>
       <use xlink:href="#DejaVuSans-30"/>
       <use xlink:href="#DejaVuSans-2e" x="63.623047"/>
       <use xlink:href="#DejaVuSans-39" x="95.410156"/>
      </g>
     </g>
    </g>
   </g>
   <g id="line2d_33">
    <path d="M 478.715212 247.745455 
L 481.318518 114.853868 
L 483.921823 91.206546 
L 486.525129 77.752898 
L 489.128435 66.771665 
L 491.731741 62.444953 
L 494.335046 58.282747 
L 496.938352 55.232122 
L 499.541658 52.749757 
L 502.144964 49.09598 
L 504.74827 47.924567 
L 507.351575 46.982479 
L 509.954881 44.709462 
L 512.558187 44.201033 
L 515.161493 43.258919 
L 517.764799 42.296879 
L 520.368104 40.183379 
L 522.97141 38.87739 
L 525.574716 38.697946 
L 528.178022 37.96518 
L 530.781327 38.064891 
L 533.384633 36.110882 
L 535.987939 35.831753 
L 538.591245 35.074071 
L 541.194551 33.882732 
L 543.797856 33.498903 
L 546.401162 33.538782 
L 549.004468 32.487033 
L 551.607774 33.613553 
L 554.21108 32.402287 
L 556.814385 31.529956 
L 559.417691 32.31754 
L 562.020997 30.802203 
L 564.624303 30.74736 
L 567.227608 29.63079 
L 569.830914 29.939849 
L 572.43422 29.954813 
L 575.037526 29.296817 
L 577.640832 30.857021 
L 580.244137 28.728582 
L 582.847443 29.007712 
L 585.450749 28.613933 
L 588.054055 28.090539 
L 590.657361 27.108547 
L 593.260666 27.641916 
L 595.863972 27.018838 
L 598.467278 28.46938 
L 601.070584 27.836325 
L 603.673889 27.407629 
L 606.277195 27.497363 
L 608.880501 25.902268 
L 611.483807 26.191374 
L 614.087113 26.281083 
L 616.690418 25.453646 
L 619.293724 25.852413 
L 621.89703 25.837448 
L 624.500336 25.249261 
L 627.103642 24.79565 
L 629.706947 24.526497 
L 632.310253 23.83361 
L 634.913559 24.366979 
L 637.516865 25.079793 
L 640.12017 24.75577 
L 642.723476 24.865432 
L 645.326782 23.434842 
L 647.930088 23.973174 
L 650.533394 23.200555 
L 653.136699 24.227415 
L 655.740005 22.866582 
L 658.343311 23.599348 
L 660.946617 22.841667 
L 663.549923 23.085905 
L 666.153228 23.100869 
L 668.756534 22.437911 
L 671.35984 23.125784 
L 673.963146 22.487741 
L 676.566451 22.861593 
L 679.169757 22.02418 
L 681.773063 22.502705 
L 684.376369 23.056002 
L 686.979675 21.79488 
L 689.58298 21.894565 
L 692.186286 21.580545 
L 694.789592 21.475871 
L 697.392898 21.819795 
L 699.996204 21.725098 
L 702.599509 21.087054 
L 705.202815 21.341269 
L 707.806121 21.530689 
L 710.409427 22.103938 
L 713.012732 21.401101 
L 715.616038 21.386136 
L 718.219344 21.316354 
L 720.82265 20.827852 
L 723.425956 20.837828 
L 726.029261 20.29947 
L 728.632567 20.822864 
L 731.235873 21.426016 
L 733.839179 20.154917 
L 736.442485 20.488891 
L 739.04579 21.02226 
L 741.649096 19.791041 
L 744.252402 20.618505 
L 746.855708 19.786053 
L 749.459013 20.399181 
L 752.062319 19.980462 
L 754.665625 19.855835 
L 757.268931 20.080147 
L 759.872237 19.332442 
L 762.475542 20.125014 
L 765.078848 20.209761 
L 767.682154 19.018422 
L 770.28546 19.825932 
L 772.888765 18.659508 
L 775.492071 19.531839 
L 778.095377 18.67946 
L 780.698683 19.028372 
L 783.301989 19.457068 
L 785.905294 19.571718 
L 788.5086 18.91871 
L 791.111906 19.152998 
L 793.715212 19.880776 
L 796.318518 18.67946 
L 798.921823 18.71934 
L 801.525129 18.654545 
" clip-path="url(#pd4c9bdf4a8)" style="fill: none; stroke: #1f77b4; stroke-width: 1.5; stroke-linecap: square"/>
   </g>
   <g id="line2d_34">
    <path d="M 478.715212 109.513632 
L 481.318518 70.684206 
L 483.921823 57.878397 
L 486.525129 54.548203 
L 489.128435 53.552564 
L 491.731741 49.261079 
L 494.335046 52.625596 
L 496.938352 47.029492 
L 499.541658 40.952742 
L 502.144964 42.051375 
L 504.74827 42.978317 
L 507.351575 43.939633 
L 509.954881 40.849749 
L 512.558187 40.26611 
L 515.161493 42.154368 
L 517.764799 37.897206 
L 520.368104 35.528303 
L 522.97141 38.480845 
L 525.574716 32.060767 
L 528.178022 38.171864 
L 530.781327 34.978986 
L 533.384633 35.905954 
L 535.987939 32.713076 
L 538.591245 32.369773 
L 541.194551 37.004561 
L 543.797856 35.802961 
L 546.401162 32.747425 
L 549.004468 33.46838 
L 551.607774 34.498341 
L 554.21108 33.296715 
L 556.814385 35.184974 
L 559.417691 32.16376 
L 562.020997 30.378521 
L 564.624303 30.756173 
L 567.227608 31.030805 
L 569.830914 31.442805 
L 572.43422 31.374134 
L 575.037526 31.648792 
L 577.640832 32.713076 
L 580.244137 26.876662 
L 582.847443 34.258006 
L 585.450749 32.884741 
L 588.054055 32.404096 
L 590.657361 29.932198 
L 593.260666 31.236818 
L 595.863972 30.687502 
L 598.467278 33.571373 
L 601.070584 31.820457 
L 603.673889 30.584508 
L 606.277195 31.442805 
L 608.880501 30.859166 
L 611.483807 28.970908 
L 614.087113 31.51145 
L 616.690418 28.661901 
L 619.293724 32.301102 
L 621.89703 30.412844 
L 624.500336 29.211218 
L 627.103642 27.219966 
L 629.706947 30.30985 
L 632.310253 29.451553 
L 634.913559 30.996483 
L 637.516865 29.485876 
L 640.12017 32.747425 
L 642.723476 28.970908 
L 645.326782 31.236818 
L 647.930088 32.335425 
L 650.533394 28.970908 
L 653.136699 29.829205 
L 655.740005 30.000869 
L 658.343311 31.271141 
L 660.946617 30.378521 
L 663.549923 31.51145 
L 666.153228 29.039553 
L 668.756534 31.854779 
L 671.35984 27.597617 
L 673.963146 33.743038 
L 676.566451 26.190004 
L 679.169757 30.447166 
L 681.773063 28.078263 
L 684.376369 28.93656 
L 686.979675 27.666288 
L 689.58298 29.314211 
L 692.186286 29.382882 
L 694.789592 28.93656 
L 697.392898 27.39163 
L 699.996204 27.597617 
L 702.599509 30.000869 
L 705.202815 26.190004 
L 707.806121 30.172508 
L 710.409427 28.627579 
L 713.012732 26.396017 
L 715.616038 27.151295 
L 718.219344 27.597617 
L 720.82265 26.602004 
L 723.425956 25.469049 
L 726.029261 27.837953 
L 728.632567 27.425953 
L 731.235873 32.198109 
L 733.839179 26.018366 
L 736.442485 28.93656 
L 739.04579 26.121359 
L 741.649096 28.455914 
L 744.252402 25.984017 
L 746.855708 27.528946 
L 749.459013 27.940947 
L 752.062319 29.520198 
L 754.665625 28.902237 
L 757.268931 24.610752 
L 759.872237 26.087011 
L 762.475542 28.799243 
L 765.078848 29.863528 
L 767.682154 27.700611 
L 770.28546 27.288637 
L 772.888765 32.644405 
L 775.492071 29.005231 
L 778.095377 27.08265 
L 780.698683 27.08265 
L 783.301989 27.425953 
L 785.905294 27.700611 
L 788.5086 27.39163 
L 791.111906 25.12572 
L 793.715212 28.455914 
L 796.318518 27.940947 
L 798.921823 25.194391 
L 801.525129 26.842314 
" clip-path="url(#pd4c9bdf4a8)" style="fill: none; stroke: #ff7f0e; stroke-width: 1.5; stroke-linecap: square"/>
   </g>
   <g id="patch_9">
    <path d="M 462.574716 259.2 
L 462.574716 7.2 
" style="fill: none; stroke: #000000; stroke-width: 0.8; stroke-linejoin: miter; stroke-linecap: square"/>
   </g>
   <g id="patch_10">
    <path d="M 817.665625 259.2 
L 817.665625 7.2 
" style="fill: none; stroke: #000000; stroke-width: 0.8; stroke-linejoin: miter; stroke-linecap: square"/>
   </g>
   <g id="patch_11">
    <path d="M 462.574716 259.2 
L 817.665625 259.2 
" style="fill: none; stroke: #000000; stroke-width: 0.8; stroke-linejoin: miter; stroke-linecap: square"/>
   </g>
   <g id="patch_12">
    <path d="M 462.574716 7.2 
L 817.665625 7.2 
" style="fill: none; stroke: #000000; stroke-width: 0.8; stroke-linejoin: miter; stroke-linecap: square"/>
   </g>
   <g id="legend_2">
    <g id="patch_13">
     <path d="M 733.265625 254.2 
L 810.665625 254.2 
Q 812.665625 254.2 812.665625 252.2 
L 812.665625 223.2875 
Q 812.665625 221.2875 810.665625 221.2875 
L 733.265625 221.2875 
Q 731.265625 221.2875 731.265625 223.2875 
L 731.265625 252.2 
Q 731.265625 254.2 733.265625 254.2 
z
" style="fill: #ffffff; opacity: 0.8; stroke: #cccccc; stroke-linejoin: miter"/>
    </g>
    <g id="line2d_35">
     <path d="M 735.265625 229.385937 
L 745.265625 229.385937 
L 755.265625 229.385937 
" style="fill: none; stroke: #1f77b4; stroke-width: 1.5; stroke-linecap: square"/>
    </g>
    <g id="text_31">
     <!-- train_acc -->
     <g transform="translate(763.265625 232.885937) scale(0.1 -0.1)">
      <defs>
       <path id="DejaVuSans-63" d="M 3122 3366 
L 3122 2828 
Q 2878 2963 2633 3030 
Q 2388 3097 2138 3097 
Q 1578 3097 1268 2742 
Q 959 2388 959 1747 
Q 959 1106 1268 751 
Q 1578 397 2138 397 
Q 2388 397 2633 464 
Q 2878 531 3122 666 
L 3122 134 
Q 2881 22 2623 -34 
Q 2366 -91 2075 -91 
Q 1284 -91 818 406 
Q 353 903 353 1747 
Q 353 2603 823 3093 
Q 1294 3584 2113 3584 
Q 2378 3584 2631 3529 
Q 2884 3475 3122 3366 
z
" transform="scale(0.015625)"/>
      </defs>
      <use xlink:href="#DejaVuSans-74"/>
      <use xlink:href="#DejaVuSans-72" x="39.208984"/>
      <use xlink:href="#DejaVuSans-61" x="80.322266"/>
      <use xlink:href="#DejaVuSans-69" x="141.601562"/>
      <use xlink:href="#DejaVuSans-6e" x="169.384766"/>
      <use xlink:href="#DejaVuSans-5f" x="232.763672"/>
      <use xlink:href="#DejaVuSans-61" x="282.763672"/>
      <use xlink:href="#DejaVuSans-63" x="344.042969"/>
      <use xlink:href="#DejaVuSans-63" x="399.023438"/>
     </g>
    </g>
    <g id="line2d_36">
     <path d="M 735.265625 244.342187 
L 745.265625 244.342187 
L 755.265625 244.342187 
" style="fill: none; stroke: #ff7f0e; stroke-width: 1.5; stroke-linecap: square"/>
    </g>
    <g id="text_32">
     <!-- val_acc -->
     <g transform="translate(763.265625 247.842187) scale(0.1 -0.1)">
      <use xlink:href="#DejaVuSans-76"/>
      <use xlink:href="#DejaVuSans-61" x="59.179688"/>
      <use xlink:href="#DejaVuSans-6c" x="120.458984"/>
      <use xlink:href="#DejaVuSans-5f" x="148.242188"/>
      <use xlink:href="#DejaVuSans-61" x="198.242188"/>
      <use xlink:href="#DejaVuSans-63" x="259.521484"/>
      <use xlink:href="#DejaVuSans-63" x="314.501953"/>
     </g>
    </g>
   </g>
  </g>
 </g>
 <defs>
  <clipPath id="p63f0375b24">
   <rect x="36.465625" y="7.2" width="355.090909" height="252"/>
  </clipPath>
  <clipPath id="pd4c9bdf4a8">
   <rect x="462.574716" y="7.2" width="355.090909" height="252"/>
  </clipPath>
 </defs>
</svg>
