<?xml version="1.0" encoding="utf-8" standalone="no"?>
<!DOCTYPE svg PUBLIC "-//W3C//DTD SVG 1.1//EN"
  "http://www.w3.org/Graphics/SVG/1.1/DTD/svg11.dtd">
<svg xmlns:xlink="http://www.w3.org/1999/xlink" width="818.503125pt" height="283.078125pt" viewBox="0 0 818.503125 283.078125" xmlns="http://www.w3.org/2000/svg" version="1.1">
 <metadata>
  <rdf:RDF xmlns:dc="http://purl.org/dc/elements/1.1/" xmlns:cc="http://creativecommons.org/ns#" xmlns:rdf="http://www.w3.org/1999/02/22-rdf-syntax-ns#">
   <cc:Work>
    <dc:type rdf:resource="http://purl.org/dc/dcmitype/StillImage"/>
    <dc:date>2023-01-22T14:09:56.161184</dc:date>
    <dc:format>image/svg+xml</dc:format>
    <dc:creator>
     <cc:Agent>
      <dc:title>Matplotlib v3.6.2, https://matplotlib.org/</dc:title>
     </cc:Agent>
    </dc:creator>
   </cc:Work>
  </rdf:RDF>
 </metadata>
 <defs>
  <style type="text/css">*{stroke-linejoin: round; stroke-linecap: butt}</style>
 </defs>
 <g id="figure_1">
  <g id="patch_1">
   <path d="M 0 283.078125 
L 818.503125 283.078125 
L 818.503125 0 
L 0 0 
z
" style="fill: #ffffff"/>
  </g>
  <g id="axes_1">
   <g id="patch_2">
    <path d="M 30.103125 259.2 
L 385.194034 259.2 
L 385.194034 7.2 
L 30.103125 7.2 
z
" style="fill: #ffffff"/>
   </g>
   <g id="matplotlib.axis_1">
    <g id="xtick_1">
     <g id="line2d_1">
      <defs>
       <path id="mf1d24fe040" d="M 0 0 
L 0 3.5 
" style="stroke: #000000; stroke-width: 0.8"/>
      </defs>
      <g>
       <use xlink:href="#mf1d24fe040" x="46.243621" y="259.2" style="stroke: #000000; stroke-width: 0.8"/>
      </g>
     </g>
     <g id="text_1">
      <!-- 0 -->
      <g transform="translate(43.062371 273.798437) scale(0.1 -0.1)">
       <defs>
        <path id="DejaVuSans-30" d="M 2034 4250 
Q 1547 4250 1301 3770 
Q 1056 3291 1056 2328 
Q 1056 1369 1301 889 
Q 1547 409 2034 409 
Q 2525 409 2770 889 
Q 3016 1369 3016 2328 
Q 3016 3291 2770 3770 
Q 2525 4250 2034 4250 
z
M 2034 4750 
Q 2819 4750 3233 4129 
Q 3647 3509 3647 2328 
Q 3647 1150 3233 529 
Q 2819 -91 2034 -91 
Q 1250 -91 836 529 
Q 422 1150 422 2328 
Q 422 3509 836 4129 
Q 1250 4750 2034 4750 
z
" transform="scale(0.015625)"/>
       </defs>
       <use xlink:href="#DejaVuSans-30"/>
      </g>
     </g>
    </g>
    <g id="xtick_2">
     <g id="line2d_2">
      <g>
       <use xlink:href="#mf1d24fe040" x="111.064889" y="259.2" style="stroke: #000000; stroke-width: 0.8"/>
      </g>
     </g>
     <g id="text_2">
      <!-- 50 -->
      <g transform="translate(104.702389 273.798437) scale(0.1 -0.1)">
       <defs>
        <path id="DejaVuSans-35" d="M 691 4666 
L 3169 4666 
L 3169 4134 
L 1269 4134 
L 1269 2991 
Q 1406 3038 1543 3061 
Q 1681 3084 1819 3084 
Q 2600 3084 3056 2656 
Q 3513 2228 3513 1497 
Q 3513 744 3044 326 
Q 2575 -91 1722 -91 
Q 1428 -91 1123 -41 
Q 819 9 494 109 
L 494 744 
Q 775 591 1075 516 
Q 1375 441 1709 441 
Q 2250 441 2565 725 
Q 2881 1009 2881 1497 
Q 2881 1984 2565 2268 
Q 2250 2553 1709 2553 
Q 1456 2553 1204 2497 
Q 953 2441 691 2322 
L 691 4666 
z
" transform="scale(0.015625)"/>
       </defs>
       <use xlink:href="#DejaVuSans-35"/>
       <use xlink:href="#DejaVuSans-30" x="63.623047"/>
      </g>
     </g>
    </g>
    <g id="xtick_3">
     <g id="line2d_3">
      <g>
       <use xlink:href="#mf1d24fe040" x="175.886158" y="259.2" style="stroke: #000000; stroke-width: 0.8"/>
      </g>
     </g>
     <g id="text_3">
      <!-- 100 -->
      <g transform="translate(166.342408 273.798437) scale(0.1 -0.1)">
       <defs>
        <path id="DejaVuSans-31" d="M 794 531 
L 1825 531 
L 1825 4091 
L 703 3866 
L 703 4441 
L 1819 4666 
L 2450 4666 
L 2450 531 
L 3481 531 
L 3481 0 
L 794 0 
L 794 531 
z
" transform="scale(0.015625)"/>
       </defs>
       <use xlink:href="#DejaVuSans-31"/>
       <use xlink:href="#DejaVuSans-30" x="63.623047"/>
       <use xlink:href="#DejaVuSans-30" x="127.246094"/>
      </g>
     </g>
    </g>
    <g id="xtick_4">
     <g id="line2d_4">
      <g>
       <use xlink:href="#mf1d24fe040" x="240.707427" y="259.2" style="stroke: #000000; stroke-width: 0.8"/>
      </g>
     </g>
     <g id="text_4">
      <!-- 150 -->
      <g transform="translate(231.163677 273.798437) scale(0.1 -0.1)">
       <use xlink:href="#DejaVuSans-31"/>
       <use xlink:href="#DejaVuSans-35" x="63.623047"/>
       <use xlink:href="#DejaVuSans-30" x="127.246094"/>
      </g>
     </g>
    </g>
    <g id="xtick_5">
     <g id="line2d_5">
      <g>
       <use xlink:href="#mf1d24fe040" x="305.528695" y="259.2" style="stroke: #000000; stroke-width: 0.8"/>
      </g>
     </g>
     <g id="text_5">
      <!-- 200 -->
      <g transform="translate(295.984945 273.798437) scale(0.1 -0.1)">
       <defs>
        <path id="DejaVuSans-32" d="M 1228 531 
L 3431 531 
L 3431 0 
L 469 0 
L 469 531 
Q 828 903 1448 1529 
Q 2069 2156 2228 2338 
Q 2531 2678 2651 2914 
Q 2772 3150 2772 3378 
Q 2772 3750 2511 3984 
Q 2250 4219 1831 4219 
Q 1534 4219 1204 4116 
Q 875 4013 500 3803 
L 500 4441 
Q 881 4594 1212 4672 
Q 1544 4750 1819 4750 
Q 2544 4750 2975 4387 
Q 3406 4025 3406 3419 
Q 3406 3131 3298 2873 
Q 3191 2616 2906 2266 
Q 2828 2175 2409 1742 
Q 1991 1309 1228 531 
z
" transform="scale(0.015625)"/>
       </defs>
       <use xlink:href="#DejaVuSans-32"/>
       <use xlink:href="#DejaVuSans-30" x="63.623047"/>
       <use xlink:href="#DejaVuSans-30" x="127.246094"/>
      </g>
     </g>
    </g>
    <g id="xtick_6">
     <g id="line2d_6">
      <g>
       <use xlink:href="#mf1d24fe040" x="370.349964" y="259.2" style="stroke: #000000; stroke-width: 0.8"/>
      </g>
     </g>
     <g id="text_6">
      <!-- 250 -->
      <g transform="translate(360.806214 273.798437) scale(0.1 -0.1)">
       <use xlink:href="#DejaVuSans-32"/>
       <use xlink:href="#DejaVuSans-35" x="63.623047"/>
       <use xlink:href="#DejaVuSans-30" x="127.246094"/>
      </g>
     </g>
    </g>
   </g>
   <g id="matplotlib.axis_2">
    <g id="ytick_1">
     <g id="line2d_7">
      <defs>
       <path id="m570184a92c" d="M 0 0 
L -3.5 0 
" style="stroke: #000000; stroke-width: 0.8"/>
      </defs>
      <g>
       <use xlink:href="#m570184a92c" x="30.103125" y="246.156592" style="stroke: #000000; stroke-width: 0.8"/>
      </g>
     </g>
     <g id="text_7">
      <!-- 0.5 -->
      <g transform="translate(7.2 249.955811) scale(0.1 -0.1)">
       <defs>
        <path id="DejaVuSans-2e" d="M 684 794 
L 1344 794 
L 1344 0 
L 684 0 
L 684 794 
z
" transform="scale(0.015625)"/>
       </defs>
       <use xlink:href="#DejaVuSans-30"/>
       <use xlink:href="#DejaVuSans-2e" x="63.623047"/>
       <use xlink:href="#DejaVuSans-35" x="95.410156"/>
      </g>
     </g>
    </g>
    <g id="ytick_2">
     <g id="line2d_8">
      <g>
       <use xlink:href="#m570184a92c" x="30.103125" y="197.376096" style="stroke: #000000; stroke-width: 0.8"/>
      </g>
     </g>
     <g id="text_8">
      <!-- 1.0 -->
      <g transform="translate(7.2 201.175315) scale(0.1 -0.1)">
       <use xlink:href="#DejaVuSans-31"/>
       <use xlink:href="#DejaVuSans-2e" x="63.623047"/>
       <use xlink:href="#DejaVuSans-30" x="95.410156"/>
      </g>
     </g>
    </g>
    <g id="ytick_3">
     <g id="line2d_9">
      <g>
       <use xlink:href="#m570184a92c" x="30.103125" y="148.5956" style="stroke: #000000; stroke-width: 0.8"/>
      </g>
     </g>
     <g id="text_9">
      <!-- 1.5 -->
      <g transform="translate(7.2 152.394819) scale(0.1 -0.1)">
       <use xlink:href="#DejaVuSans-31"/>
       <use xlink:href="#DejaVuSans-2e" x="63.623047"/>
       <use xlink:href="#DejaVuSans-35" x="95.410156"/>
      </g>
     </g>
    </g>
    <g id="ytick_4">
     <g id="line2d_10">
      <g>
       <use xlink:href="#m570184a92c" x="30.103125" y="99.815104" style="stroke: #000000; stroke-width: 0.8"/>
      </g>
     </g>
     <g id="text_10">
      <!-- 2.0 -->
      <g transform="translate(7.2 103.614323) scale(0.1 -0.1)">
       <use xlink:href="#DejaVuSans-32"/>
       <use xlink:href="#DejaVuSans-2e" x="63.623047"/>
       <use xlink:href="#DejaVuSans-30" x="95.410156"/>
      </g>
     </g>
    </g>
    <g id="ytick_5">
     <g id="line2d_11">
      <g>
       <use xlink:href="#m570184a92c" x="30.103125" y="51.034608" style="stroke: #000000; stroke-width: 0.8"/>
      </g>
     </g>
     <g id="text_11">
      <!-- 2.5 -->
      <g transform="translate(7.2 54.833827) scale(0.1 -0.1)">
       <use xlink:href="#DejaVuSans-32"/>
       <use xlink:href="#DejaVuSans-2e" x="63.623047"/>
       <use xlink:href="#DejaVuSans-35" x="95.410156"/>
      </g>
     </g>
    </g>
   </g>
   <g id="line2d_12">
    <path d="M 46.243621 18.654545 
L 47.540046 122.277592 
L 48.836472 151.956838 
L 50.132897 166.690178 
L 52.725748 180.707169 
L 54.022173 185.484287 
L 56.615024 191.347943 
L 57.911449 192.51181 
L 59.207875 194.944726 
L 60.5043 197.125501 
L 64.393576 200.705804 
L 65.690001 201.900822 
L 66.986427 203.3383 
L 68.282852 203.615796 
L 69.579278 205.171001 
L 70.875703 204.834418 
L 72.172128 205.911442 
L 73.468554 207.154394 
L 74.764979 206.694444 
L 76.061404 208.431044 
L 77.35783 208.223184 
L 78.654255 207.886101 
L 79.950681 208.600007 
L 81.247106 210.187713 
L 82.543531 209.402763 
L 83.839957 210.421421 
L 85.136382 210.382158 
L 86.432807 211.261236 
L 87.729233 211.297784 
L 89.025658 212.275498 
L 90.322083 212.034643 
L 92.914934 212.704995 
L 94.21136 212.908709 
L 95.507785 212.117019 
L 96.80421 213.025604 
L 98.100636 213.401456 
L 99.397061 214.03619 
L 100.693486 214.249459 
L 101.989912 215.052813 
L 103.286337 214.106838 
L 104.582763 214.247307 
L 105.879188 214.762134 
L 107.175613 214.021222 
L 108.472039 216.235567 
L 109.768464 215.374812 
L 112.361315 216.209324 
L 113.65774 214.999227 
L 114.954166 215.982919 
L 116.250591 215.86696 
L 118.843442 216.783005 
L 120.139867 216.503463 
L 121.436292 216.858834 
L 122.732718 217.727951 
L 124.029143 217.607498 
L 125.325568 217.16497 
L 126.621994 218.178894 
L 127.918419 217.546544 
L 129.214845 218.114975 
L 130.51127 217.645185 
L 131.807695 217.818021 
L 133.104121 217.597205 
L 134.400546 218.223589 
L 135.696971 218.679701 
L 136.993397 217.72901 
L 138.289822 217.965678 
L 139.586248 218.645223 
L 140.882673 218.000359 
L 142.179098 218.62148 
L 143.475524 219.650425 
L 144.771949 218.928506 
L 147.3648 219.071731 
L 148.661225 219.156591 
L 149.957651 219.895258 
L 151.254076 217.967196 
L 152.550501 219.705052 
L 153.846927 219.760063 
L 155.143352 219.571183 
L 156.439777 219.235542 
L 157.736203 218.022044 
L 159.032628 220.062227 
L 160.329054 220.71051 
L 161.625479 221.047541 
L 162.921904 220.027958 
L 164.21833 220.260847 
L 165.514755 218.913997 
L 168.107606 221.479213 
L 169.404031 220.360273 
L 170.700456 220.831732 
L 171.996882 221.034289 
L 173.293307 220.786403 
L 174.589733 220.824881 
L 177.182583 221.610081 
L 179.775434 220.803063 
L 181.071859 221.132401 
L 182.368285 220.819683 
L 183.66471 221.141432 
L 184.961136 222.402067 
L 186.257561 221.540765 
L 187.553986 221.790994 
L 188.850412 220.244466 
L 190.146837 222.099025 
L 191.443262 221.515051 
L 192.739688 221.629283 
L 194.036113 222.124996 
L 195.332539 221.991882 
L 196.628964 221.571155 
L 197.925389 221.273527 
L 199.221815 222.667788 
L 200.51824 221.86395 
L 201.814665 222.301344 
L 203.111091 221.851332 
L 204.407516 222.285829 
L 207.000367 222.701649 
L 208.296792 222.10619 
L 209.593218 222.673393 
L 210.889643 223.116183 
L 212.186068 222.907014 
L 213.482494 223.317426 
L 214.778919 221.869446 
L 216.075344 223.6299 
L 217.37177 223.1147 
L 218.668195 222.440179 
L 219.964621 223.819838 
L 221.261046 222.846759 
L 222.557471 222.798441 
L 223.853897 222.605427 
L 225.150322 222.701684 
L 226.446747 224.432045 
L 227.743173 223.765886 
L 229.039598 223.477917 
L 230.336024 222.89111 
L 231.632449 223.339773 
L 232.928874 223.104919 
L 234.2253 224.442552 
L 235.521725 223.436839 
L 236.81815 223.543383 
L 238.114576 223.764519 
L 239.411001 222.749577 
L 240.707427 223.979695 
L 242.003852 223.68034 
L 244.596703 224.000338 
L 245.893128 224.296361 
L 247.189553 223.742398 
L 248.485979 223.475335 
L 249.782404 224.485183 
L 251.078829 224.268024 
L 252.375255 224.17974 
L 253.67168 223.688022 
L 254.968106 224.652588 
L 257.560956 223.640181 
L 258.857382 224.219096 
L 260.153807 224.009043 
L 261.450232 224.362409 
L 262.746658 224.456497 
L 264.043083 224.788754 
L 265.339509 224.324134 
L 266.635934 224.461097 
L 267.932359 223.49032 
L 269.228785 224.778647 
L 270.52521 224.857651 
L 271.821635 224.273915 
L 273.118061 224.702092 
L 274.414486 224.386658 
L 277.007337 224.648168 
L 278.303762 224.470814 
L 279.600188 223.967245 
L 280.896613 225.362953 
L 282.193038 224.388083 
L 283.489464 224.478414 
L 284.785889 225.993657 
L 286.082314 224.086593 
L 287.37874 224.934747 
L 288.675165 225.262561 
L 289.971591 225.014414 
L 291.268016 224.468366 
L 292.564441 224.842793 
L 293.860867 225.511342 
L 295.157292 224.591733 
L 296.453717 226.097416 
L 297.750143 224.884645 
L 299.046568 225.864563 
L 300.342994 225.280914 
L 301.639419 225.854223 
L 302.935844 224.324477 
L 304.23227 225.084492 
L 305.528695 226.560629 
L 308.121546 224.059629 
L 312.010822 225.245942 
L 313.307247 226.102295 
L 314.603673 225.940385 
L 315.900098 225.911421 
L 317.196523 224.841927 
L 318.492949 225.654208 
L 319.789374 224.990287 
L 321.085799 225.439689 
L 322.382225 226.08068 
L 324.975076 225.561469 
L 326.271501 225.752663 
L 327.567926 225.053468 
L 328.864352 225.073414 
L 330.160777 225.243092 
L 331.457202 226.672464 
L 332.753628 225.879536 
L 334.050053 226.556104 
L 335.346479 226.012184 
L 336.642904 225.801021 
L 337.939329 226.583802 
L 339.235755 226.500413 
L 340.53218 225.448743 
L 341.828605 225.414481 
L 343.125031 226.73828 
L 344.421456 226.685973 
L 345.717882 225.744719 
L 347.014307 224.990764 
L 348.310732 226.712652 
L 349.607158 225.602192 
L 350.903583 225.816542 
L 352.200008 225.62273 
L 353.496434 226.401946 
L 354.792859 227.019393 
L 356.089285 226.184195 
L 357.38571 226.05542 
L 359.978561 226.637376 
L 361.274986 225.828561 
L 362.571411 226.473199 
L 363.867837 226.332567 
L 365.164262 226.339545 
L 366.460687 224.932165 
L 367.757113 226.924182 
L 369.053538 226.115309 
L 369.053538 226.115309 
" clip-path="url(#p5728c48e25)" style="fill: none; stroke: #1f77b4; stroke-width: 1.5; stroke-linecap: square"/>
   </g>
   <g id="line2d_13">
    <path d="M 46.243621 142.647928 
L 47.540046 190.846741 
L 48.836472 205.590298 
L 50.132897 217.397875 
L 51.429322 217.638149 
L 52.725748 225.043228 
L 54.022173 219.622722 
L 55.318598 224.887378 
L 56.615024 226.926433 
L 57.911449 224.39245 
L 59.207875 231.141488 
L 60.5043 230.932993 
L 61.800725 232.556665 
L 63.097151 231.10587 
L 64.393576 234.898291 
L 65.690001 231.389094 
L 66.986427 233.946174 
L 68.282852 233.281475 
L 69.579278 236.550328 
L 70.875703 234.854107 
L 72.172128 235.439373 
L 73.468554 228.33337 
L 74.764979 238.315649 
L 76.061404 234.025585 
L 77.35783 233.521644 
L 78.654255 237.085962 
L 79.950681 238.786805 
L 81.247106 235.902079 
L 82.543531 235.26567 
L 83.839957 237.719626 
L 86.432807 237.440845 
L 87.729233 233.793348 
L 89.025658 238.772041 
L 90.322083 238.113691 
L 91.618509 238.882202 
L 92.914934 236.564348 
L 94.21136 237.08456 
L 95.507785 239.119574 
L 96.80421 237.967087 
L 98.100636 240.436633 
L 99.397061 240.863082 
L 100.693486 240.486532 
L 101.989912 239.823664 
L 103.286337 241.789379 
L 104.582763 239.396267 
L 105.879188 239.431786 
L 107.175613 237.809562 
L 108.472039 238.952965 
L 109.768464 240.592274 
L 111.064889 238.964596 
L 112.361315 241.154401 
L 113.65774 237.039639 
L 114.954166 238.150344 
L 116.250591 241.306058 
L 118.843442 242.340475 
L 120.139867 239.656847 
L 121.436292 241.804766 
L 122.732718 237.269015 
L 124.029143 237.649211 
L 125.325568 240.388437 
L 126.621994 242.368289 
L 127.918419 240.911051 
L 129.214845 237.770979 
L 130.51127 242.339434 
L 131.807695 242.774165 
L 133.104121 241.34506 
L 134.400546 240.427544 
L 135.696971 240.313533 
L 136.993397 239.782848 
L 138.289822 241.16888 
L 139.586248 239.920166 
L 140.882673 238.976243 
L 142.179098 241.556979 
L 143.475524 242.147845 
L 144.771949 241.711329 
L 146.068374 241.477981 
L 147.3648 240.640312 
L 148.661225 243.632902 
L 149.957651 244.261036 
L 151.254076 242.146257 
L 152.550501 244.753138 
L 153.846927 244.349553 
L 155.143352 239.877599 
L 156.439777 238.674016 
L 157.736203 240.356879 
L 159.032628 242.732662 
L 160.329054 241.926964 
L 161.625479 242.473065 
L 162.921904 238.385314 
L 164.21833 242.688183 
L 165.514755 244.556809 
L 166.81118 243.63981 
L 168.107606 242.540276 
L 169.404031 239.882286 
L 170.700456 244.626549 
L 171.996882 243.216873 
L 173.293307 237.099441 
L 174.589733 239.70456 
L 175.886158 243.113632 
L 177.182583 243.338438 
L 178.479009 244.188016 
L 179.775434 242.184625 
L 181.071859 238.968887 
L 182.368285 242.403092 
L 183.66471 242.048366 
L 184.961136 241.399553 
L 186.257561 239.414207 
L 187.553986 242.615401 
L 188.850412 242.518876 
L 190.146837 240.421618 
L 191.443262 243.236464 
L 192.739688 242.862647 
L 194.036113 244.497414 
L 195.332539 243.739935 
L 196.628964 244.170205 
L 197.925389 243.840867 
L 199.221815 242.516923 
L 200.51824 241.613909 
L 201.814665 240.189503 
L 203.111091 243.208889 
L 204.407516 243.353417 
L 205.703941 242.184241 
L 207.000367 245.910486 
L 208.296792 240.79743 
L 209.593218 240.013888 
L 210.889643 243.482774 
L 212.186068 241.544367 
L 213.482494 242.394381 
L 214.778919 241.073123 
L 216.075344 244.236351 
L 217.37177 242.828419 
L 219.964621 240.503791 
L 221.261046 244.993388 
L 222.557471 239.925353 
L 223.853897 243.619876 
L 225.150322 242.511701 
L 226.446747 244.241701 
L 227.743173 240.620308 
L 229.039598 242.929114 
L 230.336024 243.535906 
L 231.632449 246.367459 
L 232.928874 242.256814 
L 234.2253 243.899274 
L 235.521725 244.02096 
L 236.81815 241.580752 
L 238.114576 242.69512 
L 239.411001 244.122934 
L 240.707427 244.930545 
L 242.003852 243.11401 
L 244.596703 242.518405 
L 245.893128 244.034539 
L 247.189553 238.028593 
L 248.485979 244.644431 
L 249.782404 242.913866 
L 251.078829 242.831379 
L 252.375255 245.759561 
L 253.67168 242.92049 
L 254.968106 241.637402 
L 256.264531 242.647814 
L 257.560956 241.224246 
L 258.857382 242.71299 
L 260.153807 242.045063 
L 261.450232 241.652353 
L 262.746658 242.770728 
L 264.043083 240.661799 
L 265.339509 243.914015 
L 266.635934 241.090162 
L 267.932359 242.497471 
L 269.228785 243.084778 
L 270.52521 244.105529 
L 271.821635 244.275894 
L 273.118061 245.771726 
L 274.414486 242.656967 
L 275.710912 242.129824 
L 277.007337 247.614188 
L 278.303762 244.262385 
L 279.600188 246.511856 
L 280.896613 243.827812 
L 282.193038 242.483899 
L 283.489464 245.252445 
L 284.785889 245.730183 
L 286.082314 242.511253 
L 287.37874 242.704948 
L 288.675165 244.498687 
L 289.971591 244.168943 
L 291.268016 240.219573 
L 292.564441 244.092277 
L 293.860867 243.533429 
L 295.157292 244.242381 
L 296.453717 244.367255 
L 297.750143 243.082004 
L 299.046568 242.852918 
L 300.342994 242.223104 
L 301.639419 243.544757 
L 302.935844 244.463669 
L 304.23227 245.115389 
L 305.528695 242.852599 
L 306.82512 241.47387 
L 308.121546 244.361265 
L 309.417971 244.707833 
L 310.714397 243.837797 
L 312.010822 244.664528 
L 313.307247 242.498931 
L 314.603673 242.156242 
L 317.196523 246.074902 
L 318.492949 244.468152 
L 319.789374 244.245847 
L 321.085799 244.852727 
L 322.382225 246.387291 
L 323.67865 244.2464 
L 324.975076 244.297003 
L 326.271501 243.891138 
L 327.567926 243.26326 
L 328.864352 244.223663 
L 331.457202 243.656982 
L 332.753628 244.992254 
L 334.050053 244.562985 
L 335.346479 243.336902 
L 336.642904 243.024306 
L 337.939329 244.721847 
L 339.235755 243.879438 
L 340.53218 247.745455 
L 341.828605 244.190057 
L 343.125031 243.508884 
L 344.421456 241.829254 
L 345.717882 243.567947 
L 347.014307 241.659424 
L 348.310732 244.901999 
L 349.607158 245.502639 
L 350.903583 243.64316 
L 352.200008 247.60855 
L 353.496434 245.195783 
L 354.792859 244.908651 
L 356.089285 243.446825 
L 357.38571 244.861805 
L 358.682135 242.902847 
L 359.978561 243.679004 
L 361.274986 240.578341 
L 362.571411 245.2573 
L 363.867837 238.962305 
L 365.164262 244.21048 
L 366.460687 243.820863 
L 367.757113 241.086934 
L 369.053538 244.648868 
L 369.053538 244.648868 
" clip-path="url(#p5728c48e25)" style="fill: none; stroke: #ff7f0e; stroke-width: 1.5; stroke-linecap: square"/>
   </g>
   <g id="patch_3">
    <path d="M 30.103125 259.2 
L 30.103125 7.2 
" style="fill: none; stroke: #000000; stroke-width: 0.8; stroke-linejoin: miter; stroke-linecap: square"/>
   </g>
   <g id="patch_4">
    <path d="M 385.194034 259.2 
L 385.194034 7.2 
" style="fill: none; stroke: #000000; stroke-width: 0.8; stroke-linejoin: miter; stroke-linecap: square"/>
   </g>
   <g id="patch_5">
    <path d="M 30.103125 259.2 
L 385.194034 259.2 
" style="fill: none; stroke: #000000; stroke-width: 0.8; stroke-linejoin: miter; stroke-linecap: square"/>
   </g>
   <g id="patch_6">
    <path d="M 30.103125 7.2 
L 385.194034 7.2 
" style="fill: none; stroke: #000000; stroke-width: 0.8; stroke-linejoin: miter; stroke-linecap: square"/>
   </g>
   <g id="legend_1">
    <g id="patch_7">
     <path d="M 298.603409 45.1125 
L 378.194034 45.1125 
Q 380.194034 45.1125 380.194034 43.1125 
L 380.194034 14.2 
Q 380.194034 12.2 378.194034 12.2 
L 298.603409 12.2 
Q 296.603409 12.2 296.603409 14.2 
L 296.603409 43.1125 
Q 296.603409 45.1125 298.603409 45.1125 
z
" style="fill: #ffffff; opacity: 0.8; stroke: #cccccc; stroke-linejoin: miter"/>
    </g>
    <g id="line2d_14">
     <path d="M 300.603409 20.298437 
L 310.603409 20.298437 
L 320.603409 20.298437 
" style="fill: none; stroke: #1f77b4; stroke-width: 1.5; stroke-linecap: square"/>
    </g>
    <g id="text_12">
     <!-- train_loss -->
     <g transform="translate(328.603409 23.798437) scale(0.1 -0.1)">
      <defs>
       <path id="DejaVuSans-74" d="M 1172 4494 
L 1172 3500 
L 2356 3500 
L 2356 3053 
L 1172 3053 
L 1172 1153 
Q 1172 725 1289 603 
Q 1406 481 1766 481 
L 2356 481 
L 2356 0 
L 1766 0 
Q 1100 0 847 248 
Q 594 497 594 1153 
L 594 3053 
L 172 3053 
L 172 3500 
L 594 3500 
L 594 4494 
L 1172 4494 
z
" transform="scale(0.015625)"/>
       <path id="DejaVuSans-72" d="M 2631 2963 
Q 2534 3019 2420 3045 
Q 2306 3072 2169 3072 
Q 1681 3072 1420 2755 
Q 1159 2438 1159 1844 
L 1159 0 
L 581 0 
L 581 3500 
L 1159 3500 
L 1159 2956 
Q 1341 3275 1631 3429 
Q 1922 3584 2338 3584 
Q 2397 3584 2469 3576 
Q 2541 3569 2628 3553 
L 2631 2963 
z
" transform="scale(0.015625)"/>
       <path id="DejaVuSans-61" d="M 2194 1759 
Q 1497 1759 1228 1600 
Q 959 1441 959 1056 
Q 959 750 1161 570 
Q 1363 391 1709 391 
Q 2188 391 2477 730 
Q 2766 1069 2766 1631 
L 2766 1759 
L 2194 1759 
z
M 3341 1997 
L 3341 0 
L 2766 0 
L 2766 531 
Q 2569 213 2275 61 
Q 1981 -91 1556 -91 
Q 1019 -91 701 211 
Q 384 513 384 1019 
Q 384 1609 779 1909 
Q 1175 2209 1959 2209 
L 2766 2209 
L 2766 2266 
Q 2766 2663 2505 2880 
Q 2244 3097 1772 3097 
Q 1472 3097 1187 3025 
Q 903 2953 641 2809 
L 641 3341 
Q 956 3463 1253 3523 
Q 1550 3584 1831 3584 
Q 2591 3584 2966 3190 
Q 3341 2797 3341 1997 
z
" transform="scale(0.015625)"/>
       <path id="DejaVuSans-69" d="M 603 3500 
L 1178 3500 
L 1178 0 
L 603 0 
L 603 3500 
z
M 603 4863 
L 1178 4863 
L 1178 4134 
L 603 4134 
L 603 4863 
z
" transform="scale(0.015625)"/>
       <path id="DejaVuSans-6e" d="M 3513 2113 
L 3513 0 
L 2938 0 
L 2938 2094 
Q 2938 2591 2744 2837 
Q 2550 3084 2163 3084 
Q 1697 3084 1428 2787 
Q 1159 2491 1159 1978 
L 1159 0 
L 581 0 
L 581 3500 
L 1159 3500 
L 1159 2956 
Q 1366 3272 1645 3428 
Q 1925 3584 2291 3584 
Q 2894 3584 3203 3211 
Q 3513 2838 3513 2113 
z
" transform="scale(0.015625)"/>
       <path id="DejaVuSans-5f" d="M 3263 -1063 
L 3263 -1509 
L -63 -1509 
L -63 -1063 
L 3263 -1063 
z
" transform="scale(0.015625)"/>
       <path id="DejaVuSans-6c" d="M 603 4863 
L 1178 4863 
L 1178 0 
L 603 0 
L 603 4863 
z
" transform="scale(0.015625)"/>
       <path id="DejaVuSans-6f" d="M 1959 3097 
Q 1497 3097 1228 2736 
Q 959 2375 959 1747 
Q 959 1119 1226 758 
Q 1494 397 1959 397 
Q 2419 397 2687 759 
Q 2956 1122 2956 1747 
Q 2956 2369 2687 2733 
Q 2419 3097 1959 3097 
z
M 1959 3584 
Q 2709 3584 3137 3096 
Q 3566 2609 3566 1747 
Q 3566 888 3137 398 
Q 2709 -91 1959 -91 
Q 1206 -91 779 398 
Q 353 888 353 1747 
Q 353 2609 779 3096 
Q 1206 3584 1959 3584 
z
" transform="scale(0.015625)"/>
       <path id="DejaVuSans-73" d="M 2834 3397 
L 2834 2853 
Q 2591 2978 2328 3040 
Q 2066 3103 1784 3103 
Q 1356 3103 1142 2972 
Q 928 2841 928 2578 
Q 928 2378 1081 2264 
Q 1234 2150 1697 2047 
L 1894 2003 
Q 2506 1872 2764 1633 
Q 3022 1394 3022 966 
Q 3022 478 2636 193 
Q 2250 -91 1575 -91 
Q 1294 -91 989 -36 
Q 684 19 347 128 
L 347 722 
Q 666 556 975 473 
Q 1284 391 1588 391 
Q 1994 391 2212 530 
Q 2431 669 2431 922 
Q 2431 1156 2273 1281 
Q 2116 1406 1581 1522 
L 1381 1569 
Q 847 1681 609 1914 
Q 372 2147 372 2553 
Q 372 3047 722 3315 
Q 1072 3584 1716 3584 
Q 2034 3584 2315 3537 
Q 2597 3491 2834 3397 
z
" transform="scale(0.015625)"/>
      </defs>
      <use xlink:href="#DejaVuSans-74"/>
      <use xlink:href="#DejaVuSans-72" x="39.208984"/>
      <use xlink:href="#DejaVuSans-61" x="80.322266"/>
      <use xlink:href="#DejaVuSans-69" x="141.601562"/>
      <use xlink:href="#DejaVuSans-6e" x="169.384766"/>
      <use xlink:href="#DejaVuSans-5f" x="232.763672"/>
      <use xlink:href="#DejaVuSans-6c" x="282.763672"/>
      <use xlink:href="#DejaVuSans-6f" x="310.546875"/>
      <use xlink:href="#DejaVuSans-73" x="371.728516"/>
      <use xlink:href="#DejaVuSans-73" x="423.828125"/>
     </g>
    </g>
    <g id="line2d_15">
     <path d="M 300.603409 35.254687 
L 310.603409 35.254687 
L 320.603409 35.254687 
" style="fill: none; stroke: #ff7f0e; stroke-width: 1.5; stroke-linecap: square"/>
    </g>
    <g id="text_13">
     <!-- val_loss -->
     <g transform="translate(328.603409 38.754687) scale(0.1 -0.1)">
      <defs>
       <path id="DejaVuSans-76" d="M 191 3500 
L 800 3500 
L 1894 563 
L 2988 3500 
L 3597 3500 
L 2284 0 
L 1503 0 
L 191 3500 
z
" transform="scale(0.015625)"/>
      </defs>
      <use xlink:href="#DejaVuSans-76"/>
      <use xlink:href="#DejaVuSans-61" x="59.179688"/>
      <use xlink:href="#DejaVuSans-6c" x="120.458984"/>
      <use xlink:href="#DejaVuSans-5f" x="148.242188"/>
      <use xlink:href="#DejaVuSans-6c" x="198.242188"/>
      <use xlink:href="#DejaVuSans-6f" x="226.025391"/>
      <use xlink:href="#DejaVuSans-73" x="287.207031"/>
      <use xlink:href="#DejaVuSans-73" x="339.306641"/>
     </g>
    </g>
   </g>
  </g>
  <g id="axes_2">
   <g id="patch_8">
    <path d="M 456.212216 259.2 
L 811.303125 259.2 
L 811.303125 7.2 
L 456.212216 7.2 
z
" style="fill: #ffffff"/>
   </g>
   <g id="matplotlib.axis_3">
    <g id="xtick_7">
     <g id="line2d_16">
      <g>
       <use xlink:href="#mf1d24fe040" x="472.352712" y="259.2" style="stroke: #000000; stroke-width: 0.8"/>
      </g>
     </g>
     <g id="text_14">
      <!-- 0 -->
      <g transform="translate(469.171462 273.798437) scale(0.1 -0.1)">
       <use xlink:href="#DejaVuSans-30"/>
      </g>
     </g>
    </g>
    <g id="xtick_8">
     <g id="line2d_17">
      <g>
       <use xlink:href="#mf1d24fe040" x="537.17398" y="259.2" style="stroke: #000000; stroke-width: 0.8"/>
      </g>
     </g>
     <g id="text_15">
      <!-- 50 -->
      <g transform="translate(530.81148 273.798437) scale(0.1 -0.1)">
       <use xlink:href="#DejaVuSans-35"/>
       <use xlink:href="#DejaVuSans-30" x="63.623047"/>
      </g>
     </g>
    </g>
    <g id="xtick_9">
     <g id="line2d_18">
      <g>
       <use xlink:href="#mf1d24fe040" x="601.995249" y="259.2" style="stroke: #000000; stroke-width: 0.8"/>
      </g>
     </g>
     <g id="text_16">
      <!-- 100 -->
      <g transform="translate(592.451499 273.798437) scale(0.1 -0.1)">
       <use xlink:href="#DejaVuSans-31"/>
       <use xlink:href="#DejaVuSans-30" x="63.623047"/>
       <use xlink:href="#DejaVuSans-30" x="127.246094"/>
      </g>
     </g>
    </g>
    <g id="xtick_10">
     <g id="line2d_19">
      <g>
       <use xlink:href="#mf1d24fe040" x="666.816517" y="259.2" style="stroke: #000000; stroke-width: 0.8"/>
      </g>
     </g>
     <g id="text_17">
      <!-- 150 -->
      <g transform="translate(657.272767 273.798437) scale(0.1 -0.1)">
       <use xlink:href="#DejaVuSans-31"/>
       <use xlink:href="#DejaVuSans-35" x="63.623047"/>
       <use xlink:href="#DejaVuSans-30" x="127.246094"/>
      </g>
     </g>
    </g>
    <g id="xtick_11">
     <g id="line2d_20">
      <g>
       <use xlink:href="#mf1d24fe040" x="731.637786" y="259.2" style="stroke: #000000; stroke-width: 0.8"/>
      </g>
     </g>
     <g id="text_18">
      <!-- 200 -->
      <g transform="translate(722.094036 273.798437) scale(0.1 -0.1)">
       <use xlink:href="#DejaVuSans-32"/>
       <use xlink:href="#DejaVuSans-30" x="63.623047"/>
       <use xlink:href="#DejaVuSans-30" x="127.246094"/>
      </g>
     </g>
    </g>
    <g id="xtick_12">
     <g id="line2d_21">
      <g>
       <use xlink:href="#mf1d24fe040" x="796.459055" y="259.2" style="stroke: #000000; stroke-width: 0.8"/>
      </g>
     </g>
     <g id="text_19">
      <!-- 250 -->
      <g transform="translate(786.915305 273.798437) scale(0.1 -0.1)">
       <use xlink:href="#DejaVuSans-32"/>
       <use xlink:href="#DejaVuSans-35" x="63.623047"/>
       <use xlink:href="#DejaVuSans-30" x="127.246094"/>
      </g>
     </g>
    </g>
   </g>
   <g id="matplotlib.axis_4">
    <g id="ytick_6">
     <g id="line2d_22">
      <g>
       <use xlink:href="#m570184a92c" x="456.212216" y="245.756785" style="stroke: #000000; stroke-width: 0.8"/>
      </g>
     </g>
     <g id="text_20">
      <!-- 0.2 -->
      <g transform="translate(433.309091 249.556004) scale(0.1 -0.1)">
       <use xlink:href="#DejaVuSans-30"/>
       <use xlink:href="#DejaVuSans-2e" x="63.623047"/>
       <use xlink:href="#DejaVuSans-32" x="95.410156"/>
      </g>
     </g>
    </g>
    <g id="ytick_7">
     <g id="line2d_23">
      <g>
       <use xlink:href="#m570184a92c" x="456.212216" y="211.622533" style="stroke: #000000; stroke-width: 0.8"/>
      </g>
     </g>
     <g id="text_21">
      <!-- 0.3 -->
      <g transform="translate(433.309091 215.421752) scale(0.1 -0.1)">
       <defs>
        <path id="DejaVuSans-33" d="M 2597 2516 
Q 3050 2419 3304 2112 
Q 3559 1806 3559 1356 
Q 3559 666 3084 287 
Q 2609 -91 1734 -91 
Q 1441 -91 1130 -33 
Q 819 25 488 141 
L 488 750 
Q 750 597 1062 519 
Q 1375 441 1716 441 
Q 2309 441 2620 675 
Q 2931 909 2931 1356 
Q 2931 1769 2642 2001 
Q 2353 2234 1838 2234 
L 1294 2234 
L 1294 2753 
L 1863 2753 
Q 2328 2753 2575 2939 
Q 2822 3125 2822 3475 
Q 2822 3834 2567 4026 
Q 2313 4219 1838 4219 
Q 1578 4219 1281 4162 
Q 984 4106 628 3988 
L 628 4550 
Q 988 4650 1302 4700 
Q 1616 4750 1894 4750 
Q 2613 4750 3031 4423 
Q 3450 4097 3450 3541 
Q 3450 3153 3228 2886 
Q 3006 2619 2597 2516 
z
" transform="scale(0.015625)"/>
       </defs>
       <use xlink:href="#DejaVuSans-30"/>
       <use xlink:href="#DejaVuSans-2e" x="63.623047"/>
       <use xlink:href="#DejaVuSans-33" x="95.410156"/>
      </g>
     </g>
    </g>
    <g id="ytick_8">
     <g id="line2d_24">
      <g>
       <use xlink:href="#m570184a92c" x="456.212216" y="177.488281" style="stroke: #000000; stroke-width: 0.8"/>
      </g>
     </g>
     <g id="text_22">
      <!-- 0.4 -->
      <g transform="translate(433.309091 181.287499) scale(0.1 -0.1)">
       <defs>
        <path id="DejaVuSans-34" d="M 2419 4116 
L 825 1625 
L 2419 1625 
L 2419 4116 
z
M 2253 4666 
L 3047 4666 
L 3047 1625 
L 3713 1625 
L 3713 1100 
L 3047 1100 
L 3047 0 
L 2419 0 
L 2419 1100 
L 313 1100 
L 313 1709 
L 2253 4666 
z
" transform="scale(0.015625)"/>
       </defs>
       <use xlink:href="#DejaVuSans-30"/>
       <use xlink:href="#DejaVuSans-2e" x="63.623047"/>
       <use xlink:href="#DejaVuSans-34" x="95.410156"/>
      </g>
     </g>
    </g>
    <g id="ytick_9">
     <g id="line2d_25">
      <g>
       <use xlink:href="#m570184a92c" x="456.212216" y="143.354029" style="stroke: #000000; stroke-width: 0.8"/>
      </g>
     </g>
     <g id="text_23">
      <!-- 0.5 -->
      <g transform="translate(433.309091 147.153247) scale(0.1 -0.1)">
       <use xlink:href="#DejaVuSans-30"/>
       <use xlink:href="#DejaVuSans-2e" x="63.623047"/>
       <use xlink:href="#DejaVuSans-35" x="95.410156"/>
      </g>
     </g>
    </g>
    <g id="ytick_10">
     <g id="line2d_26">
      <g>
       <use xlink:href="#m570184a92c" x="456.212216" y="109.219776" style="stroke: #000000; stroke-width: 0.8"/>
      </g>
     </g>
     <g id="text_24">
      <!-- 0.6 -->
      <g transform="translate(433.309091 113.018995) scale(0.1 -0.1)">
       <defs>
        <path id="DejaVuSans-36" d="M 2113 2584 
Q 1688 2584 1439 2293 
Q 1191 2003 1191 1497 
Q 1191 994 1439 701 
Q 1688 409 2113 409 
Q 2538 409 2786 701 
Q 3034 994 3034 1497 
Q 3034 2003 2786 2293 
Q 2538 2584 2113 2584 
z
M 3366 4563 
L 3366 3988 
Q 3128 4100 2886 4159 
Q 2644 4219 2406 4219 
Q 1781 4219 1451 3797 
Q 1122 3375 1075 2522 
Q 1259 2794 1537 2939 
Q 1816 3084 2150 3084 
Q 2853 3084 3261 2657 
Q 3669 2231 3669 1497 
Q 3669 778 3244 343 
Q 2819 -91 2113 -91 
Q 1303 -91 875 529 
Q 447 1150 447 2328 
Q 447 3434 972 4092 
Q 1497 4750 2381 4750 
Q 2619 4750 2861 4703 
Q 3103 4656 3366 4563 
z
" transform="scale(0.015625)"/>
       </defs>
       <use xlink:href="#DejaVuSans-30"/>
       <use xlink:href="#DejaVuSans-2e" x="63.623047"/>
       <use xlink:href="#DejaVuSans-36" x="95.410156"/>
      </g>
     </g>
    </g>
    <g id="ytick_11">
     <g id="line2d_27">
      <g>
       <use xlink:href="#m570184a92c" x="456.212216" y="75.085524" style="stroke: #000000; stroke-width: 0.8"/>
      </g>
     </g>
     <g id="text_25">
      <!-- 0.7 -->
      <g transform="translate(433.309091 78.884743) scale(0.1 -0.1)">
       <defs>
        <path id="DejaVuSans-37" d="M 525 4666 
L 3525 4666 
L 3525 4397 
L 1831 0 
L 1172 0 
L 2766 4134 
L 525 4134 
L 525 4666 
z
" transform="scale(0.015625)"/>
       </defs>
       <use xlink:href="#DejaVuSans-30"/>
       <use xlink:href="#DejaVuSans-2e" x="63.623047"/>
       <use xlink:href="#DejaVuSans-37" x="95.410156"/>
      </g>
     </g>
    </g>
    <g id="ytick_12">
     <g id="line2d_28">
      <g>
       <use xlink:href="#m570184a92c" x="456.212216" y="40.951272" style="stroke: #000000; stroke-width: 0.8"/>
      </g>
     </g>
     <g id="text_26">
      <!-- 0.8 -->
      <g transform="translate(433.309091 44.750491) scale(0.1 -0.1)">
       <defs>
        <path id="DejaVuSans-38" d="M 2034 2216 
Q 1584 2216 1326 1975 
Q 1069 1734 1069 1313 
Q 1069 891 1326 650 
Q 1584 409 2034 409 
Q 2484 409 2743 651 
Q 3003 894 3003 1313 
Q 3003 1734 2745 1975 
Q 2488 2216 2034 2216 
z
M 1403 2484 
Q 997 2584 770 2862 
Q 544 3141 544 3541 
Q 544 4100 942 4425 
Q 1341 4750 2034 4750 
Q 2731 4750 3128 4425 
Q 3525 4100 3525 3541 
Q 3525 3141 3298 2862 
Q 3072 2584 2669 2484 
Q 3125 2378 3379 2068 
Q 3634 1759 3634 1313 
Q 3634 634 3220 271 
Q 2806 -91 2034 -91 
Q 1263 -91 848 271 
Q 434 634 434 1313 
Q 434 1759 690 2068 
Q 947 2378 1403 2484 
z
M 1172 3481 
Q 1172 3119 1398 2916 
Q 1625 2713 2034 2713 
Q 2441 2713 2670 2916 
Q 2900 3119 2900 3481 
Q 2900 3844 2670 4047 
Q 2441 4250 2034 4250 
Q 1625 4250 1398 4047 
Q 1172 3844 1172 3481 
z
" transform="scale(0.015625)"/>
       </defs>
       <use xlink:href="#DejaVuSans-30"/>
       <use xlink:href="#DejaVuSans-2e" x="63.623047"/>
       <use xlink:href="#DejaVuSans-38" x="95.410156"/>
      </g>
     </g>
    </g>
   </g>
   <g id="line2d_29">
    <path d="M 472.352712 247.745455 
L 473.649137 158.447595 
L 474.945563 124.858373 
L 476.241988 108.385538 
L 477.538413 100.886821 
L 478.834839 92.705347 
L 480.131264 87.396203 
L 481.427689 83.09553 
L 482.724115 80.274185 
L 484.02054 78.783076 
L 485.316965 76.69161 
L 486.613391 73.497493 
L 487.909816 72.29283 
L 489.206242 70.833115 
L 490.502667 69.812885 
L 491.799092 68.325703 
L 493.095518 66.210676 
L 494.391943 66.049783 
L 495.688368 64.888293 
L 496.984794 65.057019 
L 498.281219 63.232385 
L 499.577645 62.584927 
L 500.87407 63.255925 
L 502.170495 61.67849 
L 503.466921 61.60785 
L 504.763346 61.392024 
L 506.059771 60.52876 
L 507.356197 59.222084 
L 508.652622 59.331951 
L 509.949048 58.543233 
L 511.245473 58.142974 
L 512.541898 57.052124 
L 513.838324 56.918698 
L 515.134749 56.20062 
L 516.431174 56.38896 
L 517.7276 55.733669 
L 519.024025 56.275167 
L 520.320451 55.258863 
L 521.616876 56.1653 
L 522.913301 54.921411 
L 524.209727 54.638872 
L 525.506152 53.697115 
L 526.802577 53.465602 
L 528.099003 52.743598 
L 529.395428 54.246487 
L 531.988279 53.312583 
L 533.284704 53.445989 
L 534.58113 52.209933 
L 535.877555 51.413362 
L 537.17398 52.174613 
L 538.470406 51.739054 
L 539.766831 52.504232 
L 541.063256 51.523248 
L 542.359682 51.95488 
L 543.656107 50.977803 
L 544.952533 50.636424 
L 546.248958 50.883623 
L 547.545383 50.628571 
L 548.841809 49.380755 
L 550.138234 49.659347 
L 551.434659 50.098833 
L 552.731085 48.490004 
L 554.02751 50.145933 
L 555.323936 49.109996 
L 556.620361 49.506328 
L 557.916786 48.670511 
L 559.213212 49.227715 
L 560.509637 48.949123 
L 561.806062 48.266345 
L 563.102488 49.129609 
L 564.398913 48.92949 
L 565.695338 48.419385 
L 566.991764 48.843163 
L 568.288189 48.851017 
L 569.584615 47.281435 
L 570.88104 48.490004 
L 572.177465 47.73268 
L 573.473891 47.618887 
L 574.770316 48.446851 
L 576.066741 46.869416 
L 577.363167 49.310115 
L 578.659592 47.383448 
L 579.956018 47.128395 
L 582.548868 48.058372 
L 583.845294 49.043283 
L 585.141719 46.947889 
L 586.438144 46.496624 
L 587.73457 45.672607 
L 589.030995 47.195088 
L 590.327421 46.637904 
L 591.623846 47.705214 
L 592.920271 46.626124 
L 594.216697 45.327281 
L 595.513122 46.178785 
L 596.809547 45.554887 
L 598.105973 45.358674 
L 599.402398 45.990446 
L 601.995249 44.852496 
L 603.291674 45.566647 
L 604.5881 45.900193 
L 607.18095 45.488174 
L 608.477376 45.939419 
L 609.773801 45.845259 
L 611.070226 44.46009 
L 612.366652 45.009442 
L 613.663077 44.60135 
L 614.959503 46.994969 
L 616.255928 44.573883 
L 617.552353 45.51564 
L 618.848779 45.087915 
L 620.145204 44.409084 
L 621.441629 44.354151 
L 622.738055 44.413011 
L 624.03448 45.154628 
L 625.330906 43.39276 
L 626.627331 44.836789 
L 627.923756 43.965672 
L 629.220182 44.49541 
L 630.516607 44.428697 
L 633.109458 43.902885 
L 634.405883 44.256044 
L 635.702309 44.224651 
L 636.998734 43.200494 
L 638.295159 44.036292 
L 639.591585 43.004302 
L 640.88801 43.761626 
L 642.184435 43.239741 
L 643.480861 43.518333 
L 644.777286 44.114785 
L 646.073711 42.470637 
L 647.370137 42.706076 
L 648.666562 44.177571 
L 649.962988 43.730233 
L 651.259413 43.60466 
L 652.555838 41.991905 
L 653.852264 42.710003 
L 655.148689 42.886582 
L 656.445114 43.40454 
L 657.74154 42.890509 
L 659.037965 43.192641 
L 660.334391 41.917358 
L 661.630816 42.882655 
L 662.927241 43.074921 
L 664.223667 42.168484 
L 665.520092 43.785166 
L 666.816517 42.44317 
L 668.112943 42.972908 
L 669.409368 42.780622 
L 670.705794 42.352917 
L 672.002219 42.078231 
L 673.298644 42.702149 
L 674.59507 42.505957 
L 675.891495 41.976218 
L 678.484346 41.948752 
L 679.780771 42.808089 
L 681.077196 41.846718 
L 682.373622 41.634819 
L 683.670047 42.592283 
L 684.966473 41.752539 
L 686.262898 42.282277 
L 688.855749 41.277754 
L 690.152174 41.732925 
L 691.448599 41.595593 
L 692.745025 42.34899 
L 694.04145 42.957202 
L 696.634301 40.555729 
L 697.930726 41.760392 
L 699.227152 41.191427 
L 700.523577 41.799639 
L 701.820002 41.509266 
L 703.116428 42.078231 
L 704.412853 41.44648 
L 705.709279 41.917358 
L 707.005704 40.728382 
L 708.302129 41.395473 
L 709.598555 41.466093 
L 710.89498 40.445863 
L 712.191405 42.38431 
L 713.487831 40.826488 
L 714.784256 40.430176 
L 716.080682 40.716622 
L 717.377107 41.297367 
L 718.673532 40.689156 
L 719.969958 40.583196 
L 721.266383 40.948135 
L 722.562808 39.519813 
L 723.859234 41.371913 
L 725.155659 40.37915 
L 726.452084 40.657762 
L 727.74851 40.30853 
L 729.044935 42.090011 
L 730.341361 41.403306 
L 731.637786 39.18234 
L 732.934211 39.963225 
L 734.230637 41.862425 
L 735.527062 41.250287 
L 738.119913 40.481183 
L 739.416338 39.559039 
L 740.712764 40.206497 
L 742.009189 39.814112 
L 743.305614 41.148254 
L 744.60204 40.222204 
L 745.898465 40.35561 
L 747.19489 40.920668 
L 748.491316 40.112317 
L 749.787741 39.955371 
L 751.084167 40.44979 
L 752.380592 39.861191 
L 753.677017 40.724475 
L 754.973443 40.810802 
L 756.269868 40.277137 
L 757.566293 39.339306 
L 758.862719 39.527646 
L 760.159144 39.445246 
L 761.455569 39.774865 
L 762.751995 39.814112 
L 764.04842 38.927288 
L 765.344846 39.2883 
L 766.641271 40.551802 
L 767.937696 40.092704 
L 769.234122 39.080327 
L 770.530547 39.190193 
L 771.826972 39.645365 
L 773.123398 40.865735 
L 774.419823 38.786028 
L 775.716249 40.579289 
L 777.012674 39.774865 
L 778.309099 40.147637 
L 779.605525 39.041081 
L 780.90195 38.888041 
L 782.198375 39.920051 
L 783.494801 40.281063 
L 784.791226 39.17058 
L 786.087652 39.092087 
L 787.384077 39.916124 
L 788.680502 39.633605 
L 791.273353 39.245127 
L 792.569778 41.25812 
L 793.866204 38.405403 
L 795.162629 39.433486 
L 795.162629 39.433486 
" clip-path="url(#p5916f9598a)" style="fill: none; stroke: #1f77b4; stroke-width: 1.5; stroke-linecap: square"/>
   </g>
   <g id="line2d_30">
    <path d="M 472.352712 118.733045 
L 473.649137 69.977542 
L 474.945563 62.572333 
L 476.241988 50.437506 
L 477.538413 55.059008 
L 478.834839 43.356606 
L 480.131264 49.464559 
L 481.427689 45.30252 
L 482.724115 47.815955 
L 484.02054 47.05922 
L 485.316965 37.491906 
L 486.613391 38.978355 
L 487.909816 36.005456 
L 489.206242 40.572901 
L 490.502667 35.708166 
L 491.799092 40.032379 
L 493.095518 35.681147 
L 494.391943 37.140557 
L 495.688368 32.627171 
L 496.984794 35.708166 
L 498.281219 31.356934 
L 499.577645 43.059316 
L 500.87407 30.87045 
L 502.170495 34.924393 
L 503.466921 33.573079 
L 504.763346 30.167774 
L 506.059771 31.329895 
L 507.356197 35.113586 
L 508.652622 33.573079 
L 509.949048 31.600166 
L 511.245473 27.65432 
L 512.541898 29.492117 
L 513.838324 38.383775 
L 515.134749 30.221812 
L 516.431174 30.951528 
L 517.7276 28.329977 
L 519.024025 30.032639 
L 520.320451 31.519089 
L 521.616876 32.032591 
L 522.913301 29.11375 
L 524.209727 29.70831 
L 525.506152 27.708378 
L 526.802577 25.276001 
L 528.099003 28.356996 
L 529.395428 27.005682 
L 530.691853 29.032653 
L 531.988279 29.465078 
L 533.284704 31.16774 
L 534.58113 29.41102 
L 535.877555 28.194841 
L 537.17398 31.113682 
L 538.470406 26.978663 
L 539.766831 31.46503 
L 541.063256 28.600248 
L 542.359682 27.573243 
L 543.656107 25.600309 
L 544.952533 25.411136 
L 546.248958 29.329943 
L 547.545383 25.654368 
L 548.841809 30.411006 
L 550.138234 30.221812 
L 551.434659 24.843575 
L 552.731085 24.032783 
L 554.02751 24.870614 
L 555.323936 33.897408 
L 556.620361 25.059788 
L 557.916786 22.95174 
L 559.213212 23.600378 
L 560.509637 24.627362 
L 561.806062 26.086793 
L 563.102488 28.167822 
L 564.398913 24.248995 
L 565.695338 29.41102 
L 566.991764 28.546189 
L 568.288189 25.600309 
L 569.584615 25.248982 
L 572.177465 26.411102 
L 573.473891 26.924605 
L 574.770316 21.573386 
L 577.363167 22.978759 
L 578.659592 22.005812 
L 579.956018 21.249077 
L 581.252443 24.978711 
L 582.548868 26.546237 
L 583.845294 26.897586 
L 585.141719 24.248995 
L 586.438144 26.032735 
L 587.73457 25.357078 
L 589.030995 28.411054 
L 591.623846 22.681469 
L 592.920271 22.384179 
L 594.216697 22.573372 
L 595.513122 27.573243 
L 596.809547 22.35716 
L 598.105973 23.843609 
L 599.402398 29.519136 
L 600.698823 25.924639 
L 601.995249 23.978745 
L 603.291674 22.978759 
L 604.5881 23.870628 
L 605.884525 24.41115 
L 607.18095 28.870498 
L 608.477376 25.357078 
L 609.773801 25.248982 
L 611.070226 24.492247 
L 612.366652 27.330011 
L 613.663077 23.113894 
L 614.959503 25.221942 
L 616.255928 24.924652 
L 617.552353 21.519348 
L 618.848779 22.005812 
L 620.145204 20.924769 
L 621.441629 22.708508 
L 622.738055 22.276083 
L 624.03448 22.411218 
L 625.330906 23.600378 
L 626.627331 25.438155 
L 627.923756 25.411136 
L 629.220182 21.140981 
L 630.516607 22.870662 
L 631.813032 23.681455 
L 633.109458 20.924769 
L 634.405883 26.16787 
L 635.702309 26.76245 
L 636.998734 22.600391 
L 638.295159 25.465194 
L 639.591585 22.681469 
L 640.88801 27.762416 
L 642.184435 22.113928 
L 643.480861 24.870614 
L 644.777286 25.00573 
L 646.073711 26.735431 
L 647.370137 22.492295 
L 648.666562 28.789421 
L 649.962988 22.65445 
L 651.259413 24.492247 
L 652.555838 22.113928 
L 653.852264 26.086793 
L 655.148689 23.357126 
L 656.445114 23.086875 
L 657.74154 20.032899 
L 659.037965 24.303054 
L 660.334391 22.519314 
L 661.630816 22.978759 
L 662.927241 23.654416 
L 664.223667 23.843609 
L 665.520092 21.897715 
L 666.816517 21.46529 
L 668.112943 23.384165 
L 669.409368 22.870662 
L 670.705794 23.735493 
L 672.002219 22.762546 
L 673.298644 29.167788 
L 674.59507 20.411266 
L 675.891495 23.303088 
L 677.18792 22.140947 
L 678.484346 21.384213 
L 679.780771 23.303088 
L 681.077196 24.438189 
L 683.670047 24.276035 
L 684.966473 22.789585 
L 686.262898 23.735493 
L 687.559323 23.924687 
L 688.855749 23.059836 
L 690.152174 24.843575 
L 691.448599 19.951822 
L 692.745025 25.00573 
L 694.04145 24.897633 
L 695.337876 22.276083 
L 697.930726 22.95174 
L 699.227152 20.843691 
L 701.820002 26.357064 
L 703.116428 18.654545 
L 704.412853 23.330107 
L 705.709279 19.978841 
L 707.005704 23.140913 
L 708.302129 25.140865 
L 709.598555 20.27613 
L 710.89498 19.843705 
L 712.191405 23.897668 
L 713.487831 22.05987 
L 714.784256 21.330155 
L 716.080682 21.816638 
L 717.377107 26.978663 
L 718.673532 21.627444 
L 719.969958 21.249077 
L 721.266383 22.140947 
L 722.562808 22.492295 
L 723.859234 21.46529 
L 725.155659 22.519314 
L 726.452084 23.059836 
L 727.74851 21.600426 
L 729.044935 20.843691 
L 730.341361 20.978806 
L 731.637786 22.627431 
L 732.934211 25.00573 
L 734.230637 21.005846 
L 736.823487 21.708522 
L 738.119913 21.46529 
L 739.416338 23.546319 
L 740.712764 25.086827 
L 742.009189 23.492261 
L 743.305614 21.086923 
L 744.60204 21.303136 
L 745.898465 23.222011 
L 747.19489 20.249111 
L 748.491316 20.897729 
L 749.787741 22.411218 
L 751.084167 21.708522 
L 752.380592 22.384179 
L 753.677017 22.708508 
L 754.973443 20.465324 
L 756.269868 21.681503 
L 757.566293 22.546333 
L 758.862719 19.762628 
L 760.159144 22.978759 
L 761.455569 23.735493 
L 762.751995 21.492309 
L 764.04842 20.789633 
L 765.344846 23.222011 
L 766.641271 19.573454 
L 767.937696 22.762546 
L 769.234122 20.762614 
L 770.530547 24.086841 
L 771.826972 22.465256 
L 773.123398 25.194923 
L 774.419823 22.276083 
L 775.716249 19.654532 
L 777.012674 21.843657 
L 778.309099 20.032899 
L 779.605525 21.113942 
L 780.90195 20.411266 
L 782.198375 21.032865 
L 783.494801 21.978793 
L 784.791226 22.140947 
L 786.087652 21.357194 
L 787.384077 24.735479 
L 788.680502 21.924734 
L 789.976928 28.113764 
L 791.273353 21.654484 
L 792.569778 22.411218 
L 793.866204 23.843609 
L 795.162629 22.05987 
L 795.162629 22.05987 
" clip-path="url(#p5916f9598a)" style="fill: none; stroke: #ff7f0e; stroke-width: 1.5; stroke-linecap: square"/>
   </g>
   <g id="patch_9">
    <path d="M 456.212216 259.2 
L 456.212216 7.2 
" style="fill: none; stroke: #000000; stroke-width: 0.8; stroke-linejoin: miter; stroke-linecap: square"/>
   </g>
   <g id="patch_10">
    <path d="M 811.303125 259.2 
L 811.303125 7.2 
" style="fill: none; stroke: #000000; stroke-width: 0.8; stroke-linejoin: miter; stroke-linecap: square"/>
   </g>
   <g id="patch_11">
    <path d="M 456.212216 259.2 
L 811.303125 259.2 
" style="fill: none; stroke: #000000; stroke-width: 0.8; stroke-linejoin: miter; stroke-linecap: square"/>
   </g>
   <g id="patch_12">
    <path d="M 456.212216 7.2 
L 811.303125 7.2 
" style="fill: none; stroke: #000000; stroke-width: 0.8; stroke-linejoin: miter; stroke-linecap: square"/>
   </g>
   <g id="legend_2">
    <g id="patch_13">
     <path d="M 726.903125 254.2 
L 804.303125 254.2 
Q 806.303125 254.2 806.303125 252.2 
L 806.303125 223.2875 
Q 806.303125 221.2875 804.303125 221.2875 
L 726.903125 221.2875 
Q 724.903125 221.2875 724.903125 223.2875 
L 724.903125 252.2 
Q 724.903125 254.2 726.903125 254.2 
z
" style="fill: #ffffff; opacity: 0.8; stroke: #cccccc; stroke-linejoin: miter"/>
    </g>
    <g id="line2d_31">
     <path d="M 728.903125 229.385937 
L 738.903125 229.385937 
L 748.903125 229.385937 
" style="fill: none; stroke: #1f77b4; stroke-width: 1.5; stroke-linecap: square"/>
    </g>
    <g id="text_27">
     <!-- train_acc -->
     <g transform="translate(756.903125 232.885937) scale(0.1 -0.1)">
      <defs>
       <path id="DejaVuSans-63" d="M 3122 3366 
L 3122 2828 
Q 2878 2963 2633 3030 
Q 2388 3097 2138 3097 
Q 1578 3097 1268 2742 
Q 959 2388 959 1747 
Q 959 1106 1268 751 
Q 1578 397 2138 397 
Q 2388 397 2633 464 
Q 2878 531 3122 666 
L 3122 134 
Q 2881 22 2623 -34 
Q 2366 -91 2075 -91 
Q 1284 -91 818 406 
Q 353 903 353 1747 
Q 353 2603 823 3093 
Q 1294 3584 2113 3584 
Q 2378 3584 2631 3529 
Q 2884 3475 3122 3366 
z
" transform="scale(0.015625)"/>
      </defs>
      <use xlink:href="#DejaVuSans-74"/>
      <use xlink:href="#DejaVuSans-72" x="39.208984"/>
      <use xlink:href="#DejaVuSans-61" x="80.322266"/>
      <use xlink:href="#DejaVuSans-69" x="141.601562"/>
      <use xlink:href="#DejaVuSans-6e" x="169.384766"/>
      <use xlink:href="#DejaVuSans-5f" x="232.763672"/>
      <use xlink:href="#DejaVuSans-61" x="282.763672"/>
      <use xlink:href="#DejaVuSans-63" x="344.042969"/>
      <use xlink:href="#DejaVuSans-63" x="399.023438"/>
     </g>
    </g>
    <g id="line2d_32">
     <path d="M 728.903125 244.342187 
L 738.903125 244.342187 
L 748.903125 244.342187 
" style="fill: none; stroke: #ff7f0e; stroke-width: 1.5; stroke-linecap: square"/>
    </g>
    <g id="text_28">
     <!-- val_acc -->
     <g transform="translate(756.903125 247.842187) scale(0.1 -0.1)">
      <use xlink:href="#DejaVuSans-76"/>
      <use xlink:href="#DejaVuSans-61" x="59.179688"/>
      <use xlink:href="#DejaVuSans-6c" x="120.458984"/>
      <use xlink:href="#DejaVuSans-5f" x="148.242188"/>
      <use xlink:href="#DejaVuSans-61" x="198.242188"/>
      <use xlink:href="#DejaVuSans-63" x="259.521484"/>
      <use xlink:href="#DejaVuSans-63" x="314.501953"/>
     </g>
    </g>
   </g>
  </g>
 </g>
 <defs>
  <clipPath id="p5728c48e25">
   <rect x="30.103125" y="7.2" width="355.090909" height="252"/>
  </clipPath>
  <clipPath id="p5916f9598a">
   <rect x="456.212216" y="7.2" width="355.090909" height="252"/>
  </clipPath>
 </defs>
</svg>
