<?xml version="1.0" encoding="utf-8" standalone="no"?>
<!DOCTYPE svg PUBLIC "-//W3C//DTD SVG 1.1//EN"
  "http://www.w3.org/Graphics/SVG/1.1/DTD/svg11.dtd">
<svg xmlns:xlink="http://www.w3.org/1999/xlink" width="818.503125pt" height="283.078125pt" viewBox="0 0 818.503125 283.078125" xmlns="http://www.w3.org/2000/svg" version="1.1">
 <metadata>
  <rdf:RDF xmlns:dc="http://purl.org/dc/elements/1.1/" xmlns:cc="http://creativecommons.org/ns#" xmlns:rdf="http://www.w3.org/1999/02/22-rdf-syntax-ns#">
   <cc:Work>
    <dc:type rdf:resource="http://purl.org/dc/dcmitype/StillImage"/>
    <dc:date>2023-01-23T15:38:02.259100</dc:date>
    <dc:format>image/svg+xml</dc:format>
    <dc:creator>
     <cc:Agent>
      <dc:title>Matplotlib v3.6.2, https://matplotlib.org/</dc:title>
     </cc:Agent>
    </dc:creator>
   </cc:Work>
  </rdf:RDF>
 </metadata>
 <defs>
  <style type="text/css">*{stroke-linejoin: round; stroke-linecap: butt}</style>
 </defs>
 <g id="figure_1">
  <g id="patch_1">
   <path d="M 0 283.078125 
L 818.503125 283.078125 
L 818.503125 0 
L 0 0 
z
" style="fill: #ffffff"/>
  </g>
  <g id="axes_1">
   <g id="patch_2">
    <path d="M 30.103125 259.2 
L 385.194034 259.2 
L 385.194034 7.2 
L 30.103125 7.2 
z
" style="fill: #ffffff"/>
   </g>
   <g id="matplotlib.axis_1">
    <g id="xtick_1">
     <g id="line2d_1">
      <defs>
       <path id="mf290bb117a" d="M 0 0 
L 0 3.5 
" style="stroke: #000000; stroke-width: 0.8"/>
      </defs>
      <g>
       <use xlink:href="#mf290bb117a" x="46.243621" y="259.2" style="stroke: #000000; stroke-width: 0.8"/>
      </g>
     </g>
     <g id="text_1">
      <!-- 0 -->
      <g transform="translate(43.062371 273.798437) scale(0.1 -0.1)">
       <defs>
        <path id="DejaVuSans-30" d="M 2034 4250 
Q 1547 4250 1301 3770 
Q 1056 3291 1056 2328 
Q 1056 1369 1301 889 
Q 1547 409 2034 409 
Q 2525 409 2770 889 
Q 3016 1369 3016 2328 
Q 3016 3291 2770 3770 
Q 2525 4250 2034 4250 
z
M 2034 4750 
Q 2819 4750 3233 4129 
Q 3647 3509 3647 2328 
Q 3647 1150 3233 529 
Q 2819 -91 2034 -91 
Q 1250 -91 836 529 
Q 422 1150 422 2328 
Q 422 3509 836 4129 
Q 1250 4750 2034 4750 
z
" transform="scale(0.015625)"/>
       </defs>
       <use xlink:href="#DejaVuSans-30"/>
      </g>
     </g>
    </g>
    <g id="xtick_2">
     <g id="line2d_2">
      <g>
       <use xlink:href="#mf290bb117a" x="111.064889" y="259.2" style="stroke: #000000; stroke-width: 0.8"/>
      </g>
     </g>
     <g id="text_2">
      <!-- 50 -->
      <g transform="translate(104.702389 273.798437) scale(0.1 -0.1)">
       <defs>
        <path id="DejaVuSans-35" d="M 691 4666 
L 3169 4666 
L 3169 4134 
L 1269 4134 
L 1269 2991 
Q 1406 3038 1543 3061 
Q 1681 3084 1819 3084 
Q 2600 3084 3056 2656 
Q 3513 2228 3513 1497 
Q 3513 744 3044 326 
Q 2575 -91 1722 -91 
Q 1428 -91 1123 -41 
Q 819 9 494 109 
L 494 744 
Q 775 591 1075 516 
Q 1375 441 1709 441 
Q 2250 441 2565 725 
Q 2881 1009 2881 1497 
Q 2881 1984 2565 2268 
Q 2250 2553 1709 2553 
Q 1456 2553 1204 2497 
Q 953 2441 691 2322 
L 691 4666 
z
" transform="scale(0.015625)"/>
       </defs>
       <use xlink:href="#DejaVuSans-35"/>
       <use xlink:href="#DejaVuSans-30" x="63.623047"/>
      </g>
     </g>
    </g>
    <g id="xtick_3">
     <g id="line2d_3">
      <g>
       <use xlink:href="#mf290bb117a" x="175.886158" y="259.2" style="stroke: #000000; stroke-width: 0.8"/>
      </g>
     </g>
     <g id="text_3">
      <!-- 100 -->
      <g transform="translate(166.342408 273.798437) scale(0.1 -0.1)">
       <defs>
        <path id="DejaVuSans-31" d="M 794 531 
L 1825 531 
L 1825 4091 
L 703 3866 
L 703 4441 
L 1819 4666 
L 2450 4666 
L 2450 531 
L 3481 531 
L 3481 0 
L 794 0 
L 794 531 
z
" transform="scale(0.015625)"/>
       </defs>
       <use xlink:href="#DejaVuSans-31"/>
       <use xlink:href="#DejaVuSans-30" x="63.623047"/>
       <use xlink:href="#DejaVuSans-30" x="127.246094"/>
      </g>
     </g>
    </g>
    <g id="xtick_4">
     <g id="line2d_4">
      <g>
       <use xlink:href="#mf290bb117a" x="240.707427" y="259.2" style="stroke: #000000; stroke-width: 0.8"/>
      </g>
     </g>
     <g id="text_4">
      <!-- 150 -->
      <g transform="translate(231.163677 273.798437) scale(0.1 -0.1)">
       <use xlink:href="#DejaVuSans-31"/>
       <use xlink:href="#DejaVuSans-35" x="63.623047"/>
       <use xlink:href="#DejaVuSans-30" x="127.246094"/>
      </g>
     </g>
    </g>
    <g id="xtick_5">
     <g id="line2d_5">
      <g>
       <use xlink:href="#mf290bb117a" x="305.528695" y="259.2" style="stroke: #000000; stroke-width: 0.8"/>
      </g>
     </g>
     <g id="text_5">
      <!-- 200 -->
      <g transform="translate(295.984945 273.798437) scale(0.1 -0.1)">
       <defs>
        <path id="DejaVuSans-32" d="M 1228 531 
L 3431 531 
L 3431 0 
L 469 0 
L 469 531 
Q 828 903 1448 1529 
Q 2069 2156 2228 2338 
Q 2531 2678 2651 2914 
Q 2772 3150 2772 3378 
Q 2772 3750 2511 3984 
Q 2250 4219 1831 4219 
Q 1534 4219 1204 4116 
Q 875 4013 500 3803 
L 500 4441 
Q 881 4594 1212 4672 
Q 1544 4750 1819 4750 
Q 2544 4750 2975 4387 
Q 3406 4025 3406 3419 
Q 3406 3131 3298 2873 
Q 3191 2616 2906 2266 
Q 2828 2175 2409 1742 
Q 1991 1309 1228 531 
z
" transform="scale(0.015625)"/>
       </defs>
       <use xlink:href="#DejaVuSans-32"/>
       <use xlink:href="#DejaVuSans-30" x="63.623047"/>
       <use xlink:href="#DejaVuSans-30" x="127.246094"/>
      </g>
     </g>
    </g>
    <g id="xtick_6">
     <g id="line2d_6">
      <g>
       <use xlink:href="#mf290bb117a" x="370.349964" y="259.2" style="stroke: #000000; stroke-width: 0.8"/>
      </g>
     </g>
     <g id="text_6">
      <!-- 250 -->
      <g transform="translate(360.806214 273.798437) scale(0.1 -0.1)">
       <use xlink:href="#DejaVuSans-32"/>
       <use xlink:href="#DejaVuSans-35" x="63.623047"/>
       <use xlink:href="#DejaVuSans-30" x="127.246094"/>
      </g>
     </g>
    </g>
   </g>
   <g id="matplotlib.axis_2">
    <g id="ytick_1">
     <g id="line2d_7">
      <defs>
       <path id="m26f31a338d" d="M 0 0 
L -3.5 0 
" style="stroke: #000000; stroke-width: 0.8"/>
      </defs>
      <g>
       <use xlink:href="#m26f31a338d" x="30.103125" y="230.31577" style="stroke: #000000; stroke-width: 0.8"/>
      </g>
     </g>
     <g id="text_7">
      <!-- 0.5 -->
      <g transform="translate(7.2 234.114989) scale(0.1 -0.1)">
       <defs>
        <path id="DejaVuSans-2e" d="M 684 794 
L 1344 794 
L 1344 0 
L 684 0 
L 684 794 
z
" transform="scale(0.015625)"/>
       </defs>
       <use xlink:href="#DejaVuSans-30"/>
       <use xlink:href="#DejaVuSans-2e" x="63.623047"/>
       <use xlink:href="#DejaVuSans-35" x="95.410156"/>
      </g>
     </g>
    </g>
    <g id="ytick_2">
     <g id="line2d_8">
      <g>
       <use xlink:href="#m26f31a338d" x="30.103125" y="176.763126" style="stroke: #000000; stroke-width: 0.8"/>
      </g>
     </g>
     <g id="text_8">
      <!-- 1.0 -->
      <g transform="translate(7.2 180.562345) scale(0.1 -0.1)">
       <use xlink:href="#DejaVuSans-31"/>
       <use xlink:href="#DejaVuSans-2e" x="63.623047"/>
       <use xlink:href="#DejaVuSans-30" x="95.410156"/>
      </g>
     </g>
    </g>
    <g id="ytick_3">
     <g id="line2d_9">
      <g>
       <use xlink:href="#m26f31a338d" x="30.103125" y="123.210483" style="stroke: #000000; stroke-width: 0.8"/>
      </g>
     </g>
     <g id="text_9">
      <!-- 1.5 -->
      <g transform="translate(7.2 127.009701) scale(0.1 -0.1)">
       <use xlink:href="#DejaVuSans-31"/>
       <use xlink:href="#DejaVuSans-2e" x="63.623047"/>
       <use xlink:href="#DejaVuSans-35" x="95.410156"/>
      </g>
     </g>
    </g>
    <g id="ytick_4">
     <g id="line2d_10">
      <g>
       <use xlink:href="#m26f31a338d" x="30.103125" y="69.657839" style="stroke: #000000; stroke-width: 0.8"/>
      </g>
     </g>
     <g id="text_10">
      <!-- 2.0 -->
      <g transform="translate(7.2 73.457058) scale(0.1 -0.1)">
       <use xlink:href="#DejaVuSans-32"/>
       <use xlink:href="#DejaVuSans-2e" x="63.623047"/>
       <use xlink:href="#DejaVuSans-30" x="95.410156"/>
      </g>
     </g>
    </g>
    <g id="ytick_5">
     <g id="line2d_11">
      <g>
       <use xlink:href="#m26f31a338d" x="30.103125" y="16.105195" style="stroke: #000000; stroke-width: 0.8"/>
      </g>
     </g>
     <g id="text_11">
      <!-- 2.5 -->
      <g transform="translate(7.2 19.904414) scale(0.1 -0.1)">
       <use xlink:href="#DejaVuSans-32"/>
       <use xlink:href="#DejaVuSans-2e" x="63.623047"/>
       <use xlink:href="#DejaVuSans-35" x="95.410156"/>
      </g>
     </g>
    </g>
   </g>
   <g id="line2d_12">
    <path d="M 46.243621 18.654545 
L 47.540046 145.453035 
L 48.836472 172.984989 
L 50.132897 186.045288 
L 51.429322 193.872798 
L 52.725748 199.390817 
L 54.022173 203.271417 
L 59.207875 214.172025 
L 60.5043 215.682951 
L 61.800725 216.861362 
L 63.097151 218.661068 
L 64.393576 219.980144 
L 65.690001 220.630045 
L 66.986427 221.539199 
L 69.579278 222.622381 
L 70.875703 223.68113 
L 72.172128 224.212596 
L 73.468554 225.252054 
L 74.764979 225.570084 
L 76.061404 226.379578 
L 79.950681 228.18201 
L 81.247106 228.314956 
L 82.543531 228.563688 
L 83.839957 229.690817 
L 85.136382 229.238679 
L 87.729233 230.29409 
L 89.025658 229.608432 
L 90.322083 230.943959 
L 91.618509 230.817129 
L 92.914934 232.255668 
L 94.21136 231.010056 
L 96.80421 232.470999 
L 100.693486 233.07838 
L 101.989912 232.627438 
L 103.286337 233.626916 
L 104.582763 234.351749 
L 105.879188 233.504733 
L 107.175613 234.497585 
L 108.472039 233.991655 
L 109.768464 234.010724 
L 111.064889 235.000654 
L 112.361315 234.723207 
L 113.65774 234.293058 
L 114.954166 235.147304 
L 116.250591 235.759339 
L 117.547016 235.610812 
L 118.843442 235.935185 
L 122.732718 236.018978 
L 124.029143 236.471461 
L 125.325568 236.70927 
L 126.621994 235.807684 
L 127.918419 237.160557 
L 129.214845 236.493866 
L 130.51127 238.160376 
L 131.807695 237.167512 
L 133.104121 237.420193 
L 136.993397 236.976765 
L 138.289822 238.706033 
L 139.586248 238.907572 
L 140.882673 237.7453 
L 142.179098 238.175091 
L 143.475524 238.830923 
L 144.771949 237.905148 
L 146.068374 238.534582 
L 147.3648 237.678517 
L 148.661225 239.242932 
L 149.957651 239.30298 
L 151.254076 238.67142 
L 152.550501 239.406135 
L 153.846927 238.974946 
L 155.143352 238.685831 
L 156.439777 239.738236 
L 157.736203 238.578488 
L 159.032628 239.330354 
L 160.329054 239.253213 
L 161.625479 239.518799 
L 165.514755 239.851072 
L 166.81118 238.940443 
L 168.107606 240.460423 
L 169.404031 240.096405 
L 170.700456 239.889341 
L 173.293307 240.145938 
L 175.886158 239.896411 
L 177.182583 240.409063 
L 178.479009 240.273324 
L 179.775434 240.388676 
L 181.071859 240.14877 
L 182.368285 240.704718 
L 183.66471 240.956409 
L 184.961136 240.576154 
L 186.257561 240.604202 
L 188.850412 241.03641 
L 190.146837 240.7999 
L 191.443262 240.980231 
L 192.739688 241.600482 
L 194.036113 241.621533 
L 195.332539 241.135218 
L 196.628964 241.225302 
L 197.925389 242.358598 
L 199.221815 240.569844 
L 200.51824 242.272462 
L 201.814665 241.615902 
L 203.111091 241.118246 
L 204.407516 241.960739 
L 205.703941 240.866638 
L 207.000367 241.780593 
L 208.296792 241.666167 
L 209.593218 241.102708 
L 210.889643 241.283195 
L 212.186068 242.79967 
L 213.482494 241.860268 
L 214.778919 242.318542 
L 216.075344 242.617139 
L 217.37177 241.797766 
L 218.668195 242.154987 
L 219.964621 241.914123 
L 222.557471 242.832879 
L 223.853897 242.413573 
L 225.150322 242.854186 
L 226.446747 241.662011 
L 227.743173 242.920474 
L 229.039598 241.994022 
L 230.336024 241.762319 
L 231.632449 242.279743 
L 232.928874 243.627486 
L 234.2253 241.880598 
L 235.521725 242.557909 
L 236.81815 243.483186 
L 238.114576 243.563566 
L 239.411001 242.957124 
L 240.707427 242.103734 
L 242.003852 243.331656 
L 243.300277 242.85168 
L 245.893128 242.718881 
L 247.189553 243.608698 
L 248.485979 243.531624 
L 249.782404 242.573383 
L 251.078829 242.453081 
L 252.375255 242.882272 
L 253.67168 242.925798 
L 254.968106 242.8562 
L 256.264531 243.648872 
L 258.857382 243.160195 
L 260.153807 243.601934 
L 261.450232 243.269881 
L 262.746658 243.245868 
L 264.043083 243.064901 
L 265.339509 243.907423 
L 266.635934 243.035861 
L 267.932359 244.039003 
L 269.228785 244.523148 
L 270.52521 244.450562 
L 271.821635 243.156033 
L 273.118061 243.622388 
L 274.414486 243.307419 
L 275.710912 244.158824 
L 277.007337 243.591094 
L 278.303762 243.853319 
L 279.600188 243.819819 
L 280.896613 243.504636 
L 282.193038 244.290726 
L 283.489464 243.463833 
L 284.785889 244.358926 
L 286.082314 244.360698 
L 287.37874 243.826069 
L 288.675165 244.427624 
L 289.971591 244.22379 
L 291.268016 244.358214 
L 292.564441 243.868162 
L 293.860867 243.793495 
L 295.157292 244.102262 
L 296.453717 244.599576 
L 297.750143 244.059636 
L 299.046568 243.872027 
L 302.935844 244.268561 
L 304.23227 244.724345 
L 305.528695 244.074827 
L 306.82512 244.656445 
L 308.121546 244.498844 
L 310.714397 244.030528 
L 313.307247 244.76464 
L 314.603673 244.053124 
L 315.900098 245.126414 
L 317.196523 245.072204 
L 318.492949 244.414167 
L 319.789374 244.769741 
L 321.085799 245.264081 
L 323.67865 245.351679 
L 326.271501 244.001714 
L 327.567926 245.378405 
L 328.864352 244.499029 
L 330.160777 245.310777 
L 331.457202 245.598729 
L 332.753628 244.518672 
L 334.050053 244.7904 
L 335.346479 244.390329 
L 336.642904 244.833894 
L 337.939329 244.146768 
L 339.235755 246.016426 
L 340.53218 245.089361 
L 341.828605 246.025047 
L 343.125031 244.674579 
L 344.421456 245.736667 
L 345.717882 245.019565 
L 347.014307 245.772472 
L 348.310732 245.11311 
L 349.607158 245.312357 
L 350.903583 245.256395 
L 352.200008 246.125123 
L 353.496434 245.230262 
L 354.792859 245.083676 
L 356.089285 245.26606 
L 357.38571 245.629844 
L 358.682135 245.526692 
L 359.978561 244.820909 
L 361.274986 245.224497 
L 362.571411 246.290605 
L 363.867837 245.48307 
L 365.164262 246.033442 
L 366.460687 245.673683 
L 367.757113 244.414773 
L 369.053538 245.739479 
L 369.053538 245.739479 
" clip-path="url(#p32173bb69b)" style="fill: none; stroke: #1f77b4; stroke-width: 1.5; stroke-linecap: square"/>
   </g>
   <g id="line2d_13">
    <path d="M 46.243621 166.253013 
L 47.540046 201.163474 
L 48.836472 209.344962 
L 50.132897 219.462972 
L 51.429322 223.990121 
L 52.725748 226.661801 
L 55.318598 229.41623 
L 56.615024 233.368637 
L 57.911449 231.255005 
L 59.207875 233.243849 
L 61.800725 235.488747 
L 64.393576 235.354773 
L 65.690001 235.556695 
L 66.986427 236.731228 
L 68.282852 234.935465 
L 69.579278 234.362532 
L 70.875703 234.913909 
L 72.172128 239.297556 
L 73.468554 236.294287 
L 74.764979 237.119881 
L 76.061404 240.707466 
L 77.35783 237.823567 
L 78.654255 238.613517 
L 79.950681 241.505022 
L 81.247106 238.828172 
L 82.543531 237.35056 
L 83.839957 236.242838 
L 85.136382 239.856205 
L 86.432807 236.391224 
L 87.729233 238.269089 
L 89.025658 237.116491 
L 90.322083 242.742715 
L 91.618509 240.434612 
L 92.914934 239.944681 
L 94.21136 237.043593 
L 95.507785 243.188872 
L 96.80421 241.229021 
L 98.100636 241.225104 
L 99.397061 241.439733 
L 100.693486 240.657106 
L 101.989912 244.282823 
L 103.286337 241.276202 
L 104.582763 242.705024 
L 105.879188 243.231067 
L 109.768464 240.487424 
L 111.064889 243.907563 
L 112.361315 238.233287 
L 113.65774 244.41605 
L 114.954166 243.601289 
L 116.250591 240.581262 
L 117.547016 241.400782 
L 120.139867 242.801052 
L 121.436292 242.209583 
L 122.732718 242.391162 
L 124.029143 240.492508 
L 125.325568 241.734191 
L 126.621994 242.710652 
L 127.918419 242.430676 
L 129.214845 243.660673 
L 130.51127 245.355199 
L 131.807695 239.744125 
L 133.104121 239.318113 
L 134.400546 243.521477 
L 135.696971 242.443572 
L 136.993397 244.976301 
L 138.289822 244.568541 
L 139.586248 243.908397 
L 140.882673 245.579903 
L 142.179098 244.47537 
L 143.475524 243.192086 
L 144.771949 243.679994 
L 146.068374 245.620645 
L 147.3648 243.523915 
L 148.661225 244.823022 
L 149.957651 239.287068 
L 151.254076 243.49634 
L 152.550501 245.692982 
L 153.846927 244.414585 
L 155.143352 245.173125 
L 156.439777 242.646729 
L 157.736203 245.036333 
L 159.032628 243.792505 
L 160.329054 246.934214 
L 161.625479 245.431616 
L 162.921904 244.846888 
L 164.21833 244.517578 
L 165.514755 240.232984 
L 166.81118 240.395699 
L 168.107606 245.49678 
L 169.404031 242.976783 
L 170.700456 243.860466 
L 171.996882 242.690663 
L 173.293307 244.163337 
L 174.589733 243.643107 
L 175.886158 246.542066 
L 177.182583 247.745455 
L 178.479009 246.030496 
L 179.775434 246.00618 
L 181.071859 245.588856 
L 182.368285 245.777145 
L 183.66471 244.050778 
L 184.961136 242.673806 
L 186.257561 243.018764 
L 187.553986 242.487382 
L 188.850412 245.224133 
L 190.146837 241.43839 
L 191.443262 246.455174 
L 192.739688 244.135085 
L 194.036113 243.966963 
L 195.332539 244.419236 
L 196.628964 243.59736 
L 197.925389 241.667699 
L 199.221815 247.204202 
L 200.51824 243.860561 
L 201.814665 246.030515 
L 203.111091 243.932091 
L 204.407516 244.88893 
L 205.703941 244.586125 
L 207.000367 243.894751 
L 208.296792 243.64449 
L 209.593218 244.07068 
L 210.889643 245.479176 
L 212.186068 245.423923 
L 213.482494 246.463412 
L 214.778919 246.98896 
L 216.075344 247.289607 
L 217.37177 244.923806 
L 218.668195 244.528038 
L 219.964621 243.967001 
L 221.261046 245.700892 
L 222.557471 243.872512 
L 223.853897 245.083153 
L 225.150322 244.114411 
L 226.446747 246.683264 
L 227.743173 245.642532 
L 229.039598 244.051809 
L 230.336024 243.42678 
L 231.632449 246.822054 
L 232.928874 245.173901 
L 234.2253 244.337202 
L 235.521725 241.791845 
L 236.81815 243.817945 
L 238.114576 246.409126 
L 239.411001 242.575844 
L 240.707427 242.442123 
L 243.300277 246.366344 
L 244.596703 244.75636 
L 245.893128 243.984656 
L 247.189553 244.507255 
L 248.485979 243.034689 
L 249.782404 246.032076 
L 251.078829 242.436731 
L 252.375255 243.732046 
L 253.67168 244.680544 
L 254.968106 246.705033 
L 256.264531 244.78355 
L 257.560956 243.60767 
L 258.857382 242.928651 
L 260.153807 242.401632 
L 261.450232 244.669835 
L 262.746658 243.486384 
L 265.339509 243.794034 
L 266.635934 244.625556 
L 267.932359 244.599133 
L 269.228785 246.3011 
L 270.52521 246.503826 
L 271.821635 245.457426 
L 273.118061 244.892591 
L 274.414486 243.801784 
L 275.710912 242.281167 
L 277.007337 245.300428 
L 278.303762 245.03851 
L 279.600188 245.509739 
L 280.896613 245.371989 
L 282.193038 239.79053 
L 283.489464 244.964181 
L 286.082314 245.286833 
L 287.37874 245.849131 
L 288.675165 246.709425 
L 289.971591 245.719348 
L 291.268016 245.15067 
L 292.564441 241.374978 
L 293.860867 246.007948 
L 295.157292 245.542365 
L 296.453717 246.242342 
L 297.750143 244.15335 
L 299.046568 243.747769 
L 300.342994 245.61956 
L 301.639419 245.185829 
L 302.935844 245.633786 
L 304.23227 245.415576 
L 305.528695 245.904384 
L 306.82512 245.681794 
L 308.121546 246.437679 
L 309.417971 245.718131 
L 310.714397 244.692466 
L 312.010822 243.392393 
L 313.307247 245.629161 
L 314.603673 244.233567 
L 315.900098 247.70912 
L 317.196523 245.808423 
L 318.492949 246.17817 
L 319.789374 242.620223 
L 321.085799 246.029127 
L 322.382225 247.146791 
L 323.67865 241.431291 
L 324.975076 246.650661 
L 326.271501 243.897154 
L 327.567926 244.575892 
L 328.864352 245.946311 
L 330.160777 246.670317 
L 331.457202 246.149279 
L 332.753628 242.386908 
L 334.050053 244.29553 
L 335.346479 244.565556 
L 336.642904 246.707484 
L 337.939329 246.087942 
L 339.235755 243.92624 
L 340.53218 245.584592 
L 341.828605 245.932799 
L 343.125031 246.505438 
L 344.421456 246.803206 
L 345.717882 244.84399 
L 347.014307 247.296607 
L 348.310732 245.115906 
L 349.607158 245.584623 
L 350.903583 244.755505 
L 352.200008 245.441364 
L 353.496434 244.730282 
L 354.792859 243.558363 
L 356.089285 245.210022 
L 357.38571 245.513129 
L 358.682135 246.311994 
L 359.978561 241.586622 
L 361.274986 245.27141 
L 362.571411 247.652507 
L 363.867837 246.340218 
L 365.164262 243.904576 
L 366.460687 246.499836 
L 367.757113 245.856191 
L 369.053538 245.75362 
L 369.053538 245.75362 
" clip-path="url(#p32173bb69b)" style="fill: none; stroke: #ff7f0e; stroke-width: 1.5; stroke-linecap: square"/>
   </g>
   <g id="patch_3">
    <path d="M 30.103125 259.2 
L 30.103125 7.2 
" style="fill: none; stroke: #000000; stroke-width: 0.8; stroke-linejoin: miter; stroke-linecap: square"/>
   </g>
   <g id="patch_4">
    <path d="M 385.194034 259.2 
L 385.194034 7.2 
" style="fill: none; stroke: #000000; stroke-width: 0.8; stroke-linejoin: miter; stroke-linecap: square"/>
   </g>
   <g id="patch_5">
    <path d="M 30.103125 259.2 
L 385.194034 259.2 
" style="fill: none; stroke: #000000; stroke-width: 0.8; stroke-linejoin: miter; stroke-linecap: square"/>
   </g>
   <g id="patch_6">
    <path d="M 30.103125 7.2 
L 385.194034 7.2 
" style="fill: none; stroke: #000000; stroke-width: 0.8; stroke-linejoin: miter; stroke-linecap: square"/>
   </g>
   <g id="legend_1">
    <g id="patch_7">
     <path d="M 298.603409 45.1125 
L 378.194034 45.1125 
Q 380.194034 45.1125 380.194034 43.1125 
L 380.194034 14.2 
Q 380.194034 12.2 378.194034 12.2 
L 298.603409 12.2 
Q 296.603409 12.2 296.603409 14.2 
L 296.603409 43.1125 
Q 296.603409 45.1125 298.603409 45.1125 
z
" style="fill: #ffffff; opacity: 0.8; stroke: #cccccc; stroke-linejoin: miter"/>
    </g>
    <g id="line2d_14">
     <path d="M 300.603409 20.298437 
L 310.603409 20.298437 
L 320.603409 20.298437 
" style="fill: none; stroke: #1f77b4; stroke-width: 1.5; stroke-linecap: square"/>
    </g>
    <g id="text_12">
     <!-- train_loss -->
     <g transform="translate(328.603409 23.798437) scale(0.1 -0.1)">
      <defs>
       <path id="DejaVuSans-74" d="M 1172 4494 
L 1172 3500 
L 2356 3500 
L 2356 3053 
L 1172 3053 
L 1172 1153 
Q 1172 725 1289 603 
Q 1406 481 1766 481 
L 2356 481 
L 2356 0 
L 1766 0 
Q 1100 0 847 248 
Q 594 497 594 1153 
L 594 3053 
L 172 3053 
L 172 3500 
L 594 3500 
L 594 4494 
L 1172 4494 
z
" transform="scale(0.015625)"/>
       <path id="DejaVuSans-72" d="M 2631 2963 
Q 2534 3019 2420 3045 
Q 2306 3072 2169 3072 
Q 1681 3072 1420 2755 
Q 1159 2438 1159 1844 
L 1159 0 
L 581 0 
L 581 3500 
L 1159 3500 
L 1159 2956 
Q 1341 3275 1631 3429 
Q 1922 3584 2338 3584 
Q 2397 3584 2469 3576 
Q 2541 3569 2628 3553 
L 2631 2963 
z
" transform="scale(0.015625)"/>
       <path id="DejaVuSans-61" d="M 2194 1759 
Q 1497 1759 1228 1600 
Q 959 1441 959 1056 
Q 959 750 1161 570 
Q 1363 391 1709 391 
Q 2188 391 2477 730 
Q 2766 1069 2766 1631 
L 2766 1759 
L 2194 1759 
z
M 3341 1997 
L 3341 0 
L 2766 0 
L 2766 531 
Q 2569 213 2275 61 
Q 1981 -91 1556 -91 
Q 1019 -91 701 211 
Q 384 513 384 1019 
Q 384 1609 779 1909 
Q 1175 2209 1959 2209 
L 2766 2209 
L 2766 2266 
Q 2766 2663 2505 2880 
Q 2244 3097 1772 3097 
Q 1472 3097 1187 3025 
Q 903 2953 641 2809 
L 641 3341 
Q 956 3463 1253 3523 
Q 1550 3584 1831 3584 
Q 2591 3584 2966 3190 
Q 3341 2797 3341 1997 
z
" transform="scale(0.015625)"/>
       <path id="DejaVuSans-69" d="M 603 3500 
L 1178 3500 
L 1178 0 
L 603 0 
L 603 3500 
z
M 603 4863 
L 1178 4863 
L 1178 4134 
L 603 4134 
L 603 4863 
z
" transform="scale(0.015625)"/>
       <path id="DejaVuSans-6e" d="M 3513 2113 
L 3513 0 
L 2938 0 
L 2938 2094 
Q 2938 2591 2744 2837 
Q 2550 3084 2163 3084 
Q 1697 3084 1428 2787 
Q 1159 2491 1159 1978 
L 1159 0 
L 581 0 
L 581 3500 
L 1159 3500 
L 1159 2956 
Q 1366 3272 1645 3428 
Q 1925 3584 2291 3584 
Q 2894 3584 3203 3211 
Q 3513 2838 3513 2113 
z
" transform="scale(0.015625)"/>
       <path id="DejaVuSans-5f" d="M 3263 -1063 
L 3263 -1509 
L -63 -1509 
L -63 -1063 
L 3263 -1063 
z
" transform="scale(0.015625)"/>
       <path id="DejaVuSans-6c" d="M 603 4863 
L 1178 4863 
L 1178 0 
L 603 0 
L 603 4863 
z
" transform="scale(0.015625)"/>
       <path id="DejaVuSans-6f" d="M 1959 3097 
Q 1497 3097 1228 2736 
Q 959 2375 959 1747 
Q 959 1119 1226 758 
Q 1494 397 1959 397 
Q 2419 397 2687 759 
Q 2956 1122 2956 1747 
Q 2956 2369 2687 2733 
Q 2419 3097 1959 3097 
z
M 1959 3584 
Q 2709 3584 3137 3096 
Q 3566 2609 3566 1747 
Q 3566 888 3137 398 
Q 2709 -91 1959 -91 
Q 1206 -91 779 398 
Q 353 888 353 1747 
Q 353 2609 779 3096 
Q 1206 3584 1959 3584 
z
" transform="scale(0.015625)"/>
       <path id="DejaVuSans-73" d="M 2834 3397 
L 2834 2853 
Q 2591 2978 2328 3040 
Q 2066 3103 1784 3103 
Q 1356 3103 1142 2972 
Q 928 2841 928 2578 
Q 928 2378 1081 2264 
Q 1234 2150 1697 2047 
L 1894 2003 
Q 2506 1872 2764 1633 
Q 3022 1394 3022 966 
Q 3022 478 2636 193 
Q 2250 -91 1575 -91 
Q 1294 -91 989 -36 
Q 684 19 347 128 
L 347 722 
Q 666 556 975 473 
Q 1284 391 1588 391 
Q 1994 391 2212 530 
Q 2431 669 2431 922 
Q 2431 1156 2273 1281 
Q 2116 1406 1581 1522 
L 1381 1569 
Q 847 1681 609 1914 
Q 372 2147 372 2553 
Q 372 3047 722 3315 
Q 1072 3584 1716 3584 
Q 2034 3584 2315 3537 
Q 2597 3491 2834 3397 
z
" transform="scale(0.015625)"/>
      </defs>
      <use xlink:href="#DejaVuSans-74"/>
      <use xlink:href="#DejaVuSans-72" x="39.208984"/>
      <use xlink:href="#DejaVuSans-61" x="80.322266"/>
      <use xlink:href="#DejaVuSans-69" x="141.601562"/>
      <use xlink:href="#DejaVuSans-6e" x="169.384766"/>
      <use xlink:href="#DejaVuSans-5f" x="232.763672"/>
      <use xlink:href="#DejaVuSans-6c" x="282.763672"/>
      <use xlink:href="#DejaVuSans-6f" x="310.546875"/>
      <use xlink:href="#DejaVuSans-73" x="371.728516"/>
      <use xlink:href="#DejaVuSans-73" x="423.828125"/>
     </g>
    </g>
    <g id="line2d_15">
     <path d="M 300.603409 35.254687 
L 310.603409 35.254687 
L 320.603409 35.254687 
" style="fill: none; stroke: #ff7f0e; stroke-width: 1.5; stroke-linecap: square"/>
    </g>
    <g id="text_13">
     <!-- val_loss -->
     <g transform="translate(328.603409 38.754687) scale(0.1 -0.1)">
      <defs>
       <path id="DejaVuSans-76" d="M 191 3500 
L 800 3500 
L 1894 563 
L 2988 3500 
L 3597 3500 
L 2284 0 
L 1503 0 
L 191 3500 
z
" transform="scale(0.015625)"/>
      </defs>
      <use xlink:href="#DejaVuSans-76"/>
      <use xlink:href="#DejaVuSans-61" x="59.179688"/>
      <use xlink:href="#DejaVuSans-6c" x="120.458984"/>
      <use xlink:href="#DejaVuSans-5f" x="148.242188"/>
      <use xlink:href="#DejaVuSans-6c" x="198.242188"/>
      <use xlink:href="#DejaVuSans-6f" x="226.025391"/>
      <use xlink:href="#DejaVuSans-73" x="287.207031"/>
      <use xlink:href="#DejaVuSans-73" x="339.306641"/>
     </g>
    </g>
   </g>
  </g>
  <g id="axes_2">
   <g id="patch_8">
    <path d="M 456.212216 259.2 
L 811.303125 259.2 
L 811.303125 7.2 
L 456.212216 7.2 
z
" style="fill: #ffffff"/>
   </g>
   <g id="matplotlib.axis_3">
    <g id="xtick_7">
     <g id="line2d_16">
      <g>
       <use xlink:href="#mf290bb117a" x="472.352712" y="259.2" style="stroke: #000000; stroke-width: 0.8"/>
      </g>
     </g>
     <g id="text_14">
      <!-- 0 -->
      <g transform="translate(469.171462 273.798437) scale(0.1 -0.1)">
       <use xlink:href="#DejaVuSans-30"/>
      </g>
     </g>
    </g>
    <g id="xtick_8">
     <g id="line2d_17">
      <g>
       <use xlink:href="#mf290bb117a" x="537.17398" y="259.2" style="stroke: #000000; stroke-width: 0.8"/>
      </g>
     </g>
     <g id="text_15">
      <!-- 50 -->
      <g transform="translate(530.81148 273.798437) scale(0.1 -0.1)">
       <use xlink:href="#DejaVuSans-35"/>
       <use xlink:href="#DejaVuSans-30" x="63.623047"/>
      </g>
     </g>
    </g>
    <g id="xtick_9">
     <g id="line2d_18">
      <g>
       <use xlink:href="#mf290bb117a" x="601.995249" y="259.2" style="stroke: #000000; stroke-width: 0.8"/>
      </g>
     </g>
     <g id="text_16">
      <!-- 100 -->
      <g transform="translate(592.451499 273.798437) scale(0.1 -0.1)">
       <use xlink:href="#DejaVuSans-31"/>
       <use xlink:href="#DejaVuSans-30" x="63.623047"/>
       <use xlink:href="#DejaVuSans-30" x="127.246094"/>
      </g>
     </g>
    </g>
    <g id="xtick_10">
     <g id="line2d_19">
      <g>
       <use xlink:href="#mf290bb117a" x="666.816517" y="259.2" style="stroke: #000000; stroke-width: 0.8"/>
      </g>
     </g>
     <g id="text_17">
      <!-- 150 -->
      <g transform="translate(657.272767 273.798437) scale(0.1 -0.1)">
       <use xlink:href="#DejaVuSans-31"/>
       <use xlink:href="#DejaVuSans-35" x="63.623047"/>
       <use xlink:href="#DejaVuSans-30" x="127.246094"/>
      </g>
     </g>
    </g>
    <g id="xtick_11">
     <g id="line2d_20">
      <g>
       <use xlink:href="#mf290bb117a" x="731.637786" y="259.2" style="stroke: #000000; stroke-width: 0.8"/>
      </g>
     </g>
     <g id="text_18">
      <!-- 200 -->
      <g transform="translate(722.094036 273.798437) scale(0.1 -0.1)">
       <use xlink:href="#DejaVuSans-32"/>
       <use xlink:href="#DejaVuSans-30" x="63.623047"/>
       <use xlink:href="#DejaVuSans-30" x="127.246094"/>
      </g>
     </g>
    </g>
    <g id="xtick_12">
     <g id="line2d_21">
      <g>
       <use xlink:href="#mf290bb117a" x="796.459055" y="259.2" style="stroke: #000000; stroke-width: 0.8"/>
      </g>
     </g>
     <g id="text_19">
      <!-- 250 -->
      <g transform="translate(786.915305 273.798437) scale(0.1 -0.1)">
       <use xlink:href="#DejaVuSans-32"/>
       <use xlink:href="#DejaVuSans-35" x="63.623047"/>
       <use xlink:href="#DejaVuSans-30" x="127.246094"/>
      </g>
     </g>
    </g>
   </g>
   <g id="matplotlib.axis_4">
    <g id="ytick_6">
     <g id="line2d_22">
      <g>
       <use xlink:href="#m26f31a338d" x="456.212216" y="247.190719" style="stroke: #000000; stroke-width: 0.8"/>
      </g>
     </g>
     <g id="text_20">
      <!-- 0.3 -->
      <g transform="translate(433.309091 250.989938) scale(0.1 -0.1)">
       <defs>
        <path id="DejaVuSans-33" d="M 2597 2516 
Q 3050 2419 3304 2112 
Q 3559 1806 3559 1356 
Q 3559 666 3084 287 
Q 2609 -91 1734 -91 
Q 1441 -91 1130 -33 
Q 819 25 488 141 
L 488 750 
Q 750 597 1062 519 
Q 1375 441 1716 441 
Q 2309 441 2620 675 
Q 2931 909 2931 1356 
Q 2931 1769 2642 2001 
Q 2353 2234 1838 2234 
L 1294 2234 
L 1294 2753 
L 1863 2753 
Q 2328 2753 2575 2939 
Q 2822 3125 2822 3475 
Q 2822 3834 2567 4026 
Q 2313 4219 1838 4219 
Q 1578 4219 1281 4162 
Q 984 4106 628 3988 
L 628 4550 
Q 988 4650 1302 4700 
Q 1616 4750 1894 4750 
Q 2613 4750 3031 4423 
Q 3450 4097 3450 3541 
Q 3450 3153 3228 2886 
Q 3006 2619 2597 2516 
z
" transform="scale(0.015625)"/>
       </defs>
       <use xlink:href="#DejaVuSans-30"/>
       <use xlink:href="#DejaVuSans-2e" x="63.623047"/>
       <use xlink:href="#DejaVuSans-33" x="95.410156"/>
      </g>
     </g>
    </g>
    <g id="ytick_7">
     <g id="line2d_23">
      <g>
       <use xlink:href="#m26f31a338d" x="456.212216" y="209.985102" style="stroke: #000000; stroke-width: 0.8"/>
      </g>
     </g>
     <g id="text_21">
      <!-- 0.4 -->
      <g transform="translate(433.309091 213.784321) scale(0.1 -0.1)">
       <defs>
        <path id="DejaVuSans-34" d="M 2419 4116 
L 825 1625 
L 2419 1625 
L 2419 4116 
z
M 2253 4666 
L 3047 4666 
L 3047 1625 
L 3713 1625 
L 3713 1100 
L 3047 1100 
L 3047 0 
L 2419 0 
L 2419 1100 
L 313 1100 
L 313 1709 
L 2253 4666 
z
" transform="scale(0.015625)"/>
       </defs>
       <use xlink:href="#DejaVuSans-30"/>
       <use xlink:href="#DejaVuSans-2e" x="63.623047"/>
       <use xlink:href="#DejaVuSans-34" x="95.410156"/>
      </g>
     </g>
    </g>
    <g id="ytick_8">
     <g id="line2d_24">
      <g>
       <use xlink:href="#m26f31a338d" x="456.212216" y="172.779485" style="stroke: #000000; stroke-width: 0.8"/>
      </g>
     </g>
     <g id="text_22">
      <!-- 0.5 -->
      <g transform="translate(433.309091 176.578704) scale(0.1 -0.1)">
       <use xlink:href="#DejaVuSans-30"/>
       <use xlink:href="#DejaVuSans-2e" x="63.623047"/>
       <use xlink:href="#DejaVuSans-35" x="95.410156"/>
      </g>
     </g>
    </g>
    <g id="ytick_9">
     <g id="line2d_25">
      <g>
       <use xlink:href="#m26f31a338d" x="456.212216" y="135.573868" style="stroke: #000000; stroke-width: 0.8"/>
      </g>
     </g>
     <g id="text_23">
      <!-- 0.6 -->
      <g transform="translate(433.309091 139.373087) scale(0.1 -0.1)">
       <defs>
        <path id="DejaVuSans-36" d="M 2113 2584 
Q 1688 2584 1439 2293 
Q 1191 2003 1191 1497 
Q 1191 994 1439 701 
Q 1688 409 2113 409 
Q 2538 409 2786 701 
Q 3034 994 3034 1497 
Q 3034 2003 2786 2293 
Q 2538 2584 2113 2584 
z
M 3366 4563 
L 3366 3988 
Q 3128 4100 2886 4159 
Q 2644 4219 2406 4219 
Q 1781 4219 1451 3797 
Q 1122 3375 1075 2522 
Q 1259 2794 1537 2939 
Q 1816 3084 2150 3084 
Q 2853 3084 3261 2657 
Q 3669 2231 3669 1497 
Q 3669 778 3244 343 
Q 2819 -91 2113 -91 
Q 1303 -91 875 529 
Q 447 1150 447 2328 
Q 447 3434 972 4092 
Q 1497 4750 2381 4750 
Q 2619 4750 2861 4703 
Q 3103 4656 3366 4563 
z
" transform="scale(0.015625)"/>
       </defs>
       <use xlink:href="#DejaVuSans-30"/>
       <use xlink:href="#DejaVuSans-2e" x="63.623047"/>
       <use xlink:href="#DejaVuSans-36" x="95.410156"/>
      </g>
     </g>
    </g>
    <g id="ytick_10">
     <g id="line2d_26">
      <g>
       <use xlink:href="#m26f31a338d" x="456.212216" y="98.368251" style="stroke: #000000; stroke-width: 0.8"/>
      </g>
     </g>
     <g id="text_24">
      <!-- 0.7 -->
      <g transform="translate(433.309091 102.16747) scale(0.1 -0.1)">
       <defs>
        <path id="DejaVuSans-37" d="M 525 4666 
L 3525 4666 
L 3525 4397 
L 1831 0 
L 1172 0 
L 2766 4134 
L 525 4134 
L 525 4666 
z
" transform="scale(0.015625)"/>
       </defs>
       <use xlink:href="#DejaVuSans-30"/>
       <use xlink:href="#DejaVuSans-2e" x="63.623047"/>
       <use xlink:href="#DejaVuSans-37" x="95.410156"/>
      </g>
     </g>
    </g>
    <g id="ytick_11">
     <g id="line2d_27">
      <g>
       <use xlink:href="#m26f31a338d" x="456.212216" y="61.162634" style="stroke: #000000; stroke-width: 0.8"/>
      </g>
     </g>
     <g id="text_25">
      <!-- 0.8 -->
      <g transform="translate(433.309091 64.961853) scale(0.1 -0.1)">
       <defs>
        <path id="DejaVuSans-38" d="M 2034 2216 
Q 1584 2216 1326 1975 
Q 1069 1734 1069 1313 
Q 1069 891 1326 650 
Q 1584 409 2034 409 
Q 2484 409 2743 651 
Q 3003 894 3003 1313 
Q 3003 1734 2745 1975 
Q 2488 2216 2034 2216 
z
M 1403 2484 
Q 997 2584 770 2862 
Q 544 3141 544 3541 
Q 544 4100 942 4425 
Q 1341 4750 2034 4750 
Q 2731 4750 3128 4425 
Q 3525 4100 3525 3541 
Q 3525 3141 3298 2862 
Q 3072 2584 2669 2484 
Q 3125 2378 3379 2068 
Q 3634 1759 3634 1313 
Q 3634 634 3220 271 
Q 2806 -91 2034 -91 
Q 1263 -91 848 271 
Q 434 634 434 1313 
Q 434 1759 690 2068 
Q 947 2378 1403 2484 
z
M 1172 3481 
Q 1172 3119 1398 2916 
Q 1625 2713 2034 2713 
Q 2441 2713 2670 2916 
Q 2900 3119 2900 3481 
Q 2900 3844 2670 4047 
Q 2441 4250 2034 4250 
Q 1625 4250 1398 4047 
Q 1172 3844 1172 3481 
z
" transform="scale(0.015625)"/>
       </defs>
       <use xlink:href="#DejaVuSans-30"/>
       <use xlink:href="#DejaVuSans-2e" x="63.623047"/>
       <use xlink:href="#DejaVuSans-38" x="95.410156"/>
      </g>
     </g>
    </g>
    <g id="ytick_12">
     <g id="line2d_28">
      <g>
       <use xlink:href="#m26f31a338d" x="456.212216" y="23.957017" style="stroke: #000000; stroke-width: 0.8"/>
      </g>
     </g>
     <g id="text_26">
      <!-- 0.9 -->
      <g transform="translate(433.309091 27.756236) scale(0.1 -0.1)">
       <defs>
        <path id="DejaVuSans-39" d="M 703 97 
L 703 672 
Q 941 559 1184 500 
Q 1428 441 1663 441 
Q 2288 441 2617 861 
Q 2947 1281 2994 2138 
Q 2813 1869 2534 1725 
Q 2256 1581 1919 1581 
Q 1219 1581 811 2004 
Q 403 2428 403 3163 
Q 403 3881 828 4315 
Q 1253 4750 1959 4750 
Q 2769 4750 3195 4129 
Q 3622 3509 3622 2328 
Q 3622 1225 3098 567 
Q 2575 -91 1691 -91 
Q 1453 -91 1209 -44 
Q 966 3 703 97 
z
M 1959 2075 
Q 2384 2075 2632 2365 
Q 2881 2656 2881 3163 
Q 2881 3666 2632 3958 
Q 2384 4250 1959 4250 
Q 1534 4250 1286 3958 
Q 1038 3666 1038 3163 
Q 1038 2656 1286 2365 
Q 1534 2075 1959 2075 
z
" transform="scale(0.015625)"/>
       </defs>
       <use xlink:href="#DejaVuSans-30"/>
       <use xlink:href="#DejaVuSans-2e" x="63.623047"/>
       <use xlink:href="#DejaVuSans-39" x="95.410156"/>
      </g>
     </g>
    </g>
   </g>
   <g id="line2d_29">
    <path d="M 472.352712 247.745455 
L 473.649137 131.362696 
L 474.945563 102.325812 
L 476.241988 87.548606 
L 478.834839 73.588308 
L 480.131264 69.2856 
L 481.427689 66.78354 
L 482.724115 63.336237 
L 484.02054 60.333747 
L 485.316965 57.90866 
L 486.613391 56.646919 
L 490.502667 51.57862 
L 491.799092 50.466591 
L 493.095518 49.786533 
L 494.391943 48.905469 
L 495.688368 48.409342 
L 498.281219 46.450445 
L 499.577645 45.428229 
L 502.170495 44.547166 
L 503.466921 43.362421 
L 504.763346 43.075859 
L 506.059771 42.139177 
L 507.356197 43.195611 
L 508.652622 42.237551 
L 509.949048 40.66787 
L 511.245473 41.394964 
L 512.541898 40.868898 
L 513.838324 40.1974 
L 515.134749 40.706368 
L 516.431174 39.679873 
L 517.7276 39.521623 
L 519.024025 38.054596 
L 520.320451 39.371933 
L 521.616876 38.764591 
L 522.913301 37.413036 
L 524.209727 37.601224 
L 525.506152 37.404476 
L 526.802577 37.36172 
L 528.099003 37.703878 
L 529.395428 36.963944 
L 530.691853 35.864755 
L 531.988279 36.604666 
L 533.284704 36.232571 
L 534.58113 36.078601 
L 535.877555 36.104259 
L 538.470406 34.846819 
L 539.766831 35.407103 
L 542.359682 34.089766 
L 543.656107 34.885295 
L 544.952533 34.106886 
L 546.248958 34.20526 
L 547.545383 34.059828 
L 548.841809 33.798924 
L 550.138234 33.337014 
L 551.434659 33.281418 
L 552.731085 33.991392 
L 554.02751 32.75533 
L 555.323936 33.016234 
L 556.620361 31.694617 
L 557.916786 32.75533 
L 559.213212 32.605641 
L 560.509637 32.207865 
L 561.806062 32.464489 
L 563.102488 32.408893 
L 565.695338 31.065897 
L 566.991764 31.540647 
L 568.288189 31.711737 
L 569.584615 30.612526 
L 570.88104 31.677519 
L 572.177465 31.408055 
L 573.473891 31.574865 
L 574.770316 30.415778 
L 577.363167 30.911928 
L 578.659592 30.39868 
L 579.956018 30.852052 
L 581.252443 31.450833 
L 582.548868 30.009464 
L 583.845294 30.813554 
L 585.141719 30.338804 
L 586.438144 30.377302 
L 587.73457 29.60743 
L 589.030995 30.214772 
L 590.327421 30.432898 
L 591.623846 30.129216 
L 592.920271 30.676682 
L 594.216697 28.935933 
L 598.105973 30.171994 
L 599.402398 29.58603 
L 601.995249 29.744302 
L 603.291674 29.004369 
L 604.5881 29.337966 
L 605.884525 28.794781 
L 607.18095 29.183996 
L 609.773801 28.281533 
L 611.070226 28.675029 
L 612.366652 28.824719 
L 613.663077 28.320031 
L 614.959503 28.512499 
L 616.255928 29.042844 
L 617.552353 28.247315 
L 620.145204 27.845281 
L 621.441629 27.896597 
L 622.738055 28.174621 
L 624.03448 26.823066 
L 625.330906 28.653651 
L 626.627331 27.40475 
L 629.220182 28.401307 
L 630.516607 27.597217 
L 631.813032 28.657931 
L 633.109458 27.896597 
L 634.405883 27.917997 
L 635.702309 28.328591 
L 636.998734 27.708409 
L 638.295159 26.27132 
L 639.591585 27.528781 
L 640.88801 26.630598 
L 643.480861 27.528781 
L 644.777286 26.827346 
L 646.073711 27.139566 
L 647.370137 26.874382 
L 648.666562 26.733252 
L 649.962988 27.054032 
L 651.259413 27.011254 
L 652.555838 27.639973 
L 653.852264 26.707594 
L 655.148689 26.977036 
L 656.445114 27.811063 
L 657.74154 27.08397 
L 659.037965 26.143008 
L 660.334391 26.968498 
L 661.630816 26.74607 
L 662.927241 25.993318 
L 664.223667 26.13019 
L 665.520092 26.425312 
L 666.816517 26.835906 
L 668.112943 26.061754 
L 670.705794 26.493726 
L 672.002219 26.237102 
L 673.298644 25.81369 
L 674.59507 25.80941 
L 675.891495 26.403912 
L 677.18792 26.827346 
L 678.484346 26.13875 
L 679.780771 26.348316 
L 681.077196 26.28416 
L 682.373622 25.433035 
L 684.966473 25.693916 
L 687.559323 25.569884 
L 688.855749 26.151568 
L 690.152174 25.993318 
L 691.448599 25.480071 
L 692.745025 26.60066 
L 694.04145 25.142193 
L 695.337876 24.770075 
L 696.634301 24.889849 
L 697.930726 25.783752 
L 699.227152 25.082317 
L 700.523577 25.63404 
L 701.820002 25.437315 
L 703.116428 25.698196 
L 704.412853 24.795755 
L 707.005704 25.64688 
L 708.302129 24.397979 
L 709.598555 25.63404 
L 710.89498 24.312445 
L 712.191405 24.513451 
L 713.487831 25.411635 
L 714.784256 24.526291 
L 716.080682 24.800013 
L 717.377107 24.658883 
L 718.673532 25.107975 
L 719.969958 24.812853 
L 721.266383 25.206349 
L 722.562808 24.996761 
L 723.859234 24.624665 
L 725.155659 25.287603 
L 726.452084 24.885569 
L 727.74851 24.800013 
L 729.044935 24.586167 
L 730.341361 24.060101 
L 731.637786 25.026699 
L 732.934211 24.894129 
L 734.230637 24.624665 
L 735.527062 25.150731 
L 736.823487 25.039539 
L 738.119913 24.474975 
L 739.416338 24.346663 
L 740.712764 25.462973 
L 742.009189 24.393699 
L 743.305614 24.085759 
L 744.60204 24.312445 
L 745.898465 24.312445 
L 747.19489 23.670886 
L 748.491316 23.807758 
L 749.787741 23.516916 
L 751.084167 24.175573 
L 752.380592 24.654603 
L 753.677017 23.76498 
L 754.973443 24.560509 
L 756.269868 23.380044 
L 757.566293 23.790637 
L 758.862719 23.782077 
L 760.159144 24.068639 
L 761.455569 24.543411 
L 762.751995 24.145635 
L 764.04842 24.881289 
L 765.344846 23.542574 
L 766.641271 23.658046 
L 767.937696 23.12342 
L 769.234122 23.940327 
L 770.530547 23.149078 
L 771.826972 24.209791 
L 773.123398 23.427102 
L 774.419823 23.923229 
L 777.012674 23.43136 
L 778.309099 22.832578 
L 780.90195 24.098577 
L 782.198375 23.923229 
L 783.494801 23.345826 
L 786.087652 23.692264 
L 787.384077 23.422822 
L 788.680502 22.528918 
L 789.976928 23.161918 
L 791.273353 22.64867 
L 792.569778 23.542574 
L 793.866204 23.837696 
L 795.162629 22.97801 
L 795.162629 22.97801 
" clip-path="url(#pb9956f82a0)" style="fill: none; stroke: #1f77b4; stroke-width: 1.5; stroke-linecap: square"/>
   </g>
   <g id="line2d_30">
    <path d="M 472.352712 100.724906 
L 473.649137 71.502429 
L 474.945563 63.106868 
L 476.241988 51.353087 
L 477.538413 49.497221 
L 478.834839 48.17159 
L 480.131264 45.078487 
L 481.427689 43.576133 
L 482.724115 37.036416 
L 484.02054 40.158991 
L 485.316965 38.008535 
L 486.613391 35.563512 
L 487.909816 35.180572 
L 489.206242 35.975924 
L 490.502667 33.619274 
L 491.799092 35.0922 
L 493.095518 34.591393 
L 494.391943 33.707668 
L 495.688368 34.296826 
L 496.984794 35.769729 
L 498.281219 29.995936 
L 499.577645 33.118489 
L 500.87407 32.764999 
L 502.170495 28.14007 
L 503.466921 30.614544 
L 504.763346 30.644016 
L 506.059771 27.639286 
L 507.356197 31.085878 
L 508.652622 31.969625 
L 509.949048 32.057997 
L 511.245473 28.228443 
L 512.541898 32.234742 
L 513.838324 30.968056 
L 515.134749 30.054859 
L 516.431174 25.42993 
L 517.7276 28.49356 
L 519.024025 26.843911 
L 520.320451 32.205292 
L 521.616876 26.284204 
L 522.913301 26.254754 
L 524.209727 27.020656 
L 525.506152 25.81287 
L 526.802577 27.698208 
L 528.099003 25.13534 
L 529.395428 26.696617 
L 530.691853 26.254754 
L 531.988279 24.870223 
L 533.284704 27.344696 
L 534.58113 26.402049 
L 535.877555 27.786581 
L 537.17398 25.13534 
L 538.470406 31.115351 
L 539.766831 24.487261 
L 541.063256 24.870223 
L 542.359682 29.377307 
L 543.656107 27.963326 
L 544.952533 23.574064 
L 546.248958 25.42993 
L 547.545383 24.575633 
L 548.841809 25.695047 
L 550.138234 27.609836 
L 551.434659 25.901265 
L 552.731085 23.927554 
L 554.02751 25.341558 
L 555.323936 23.279474 
L 556.620361 22.543022 
L 557.916786 27.639286 
L 559.213212 27.904403 
L 560.509637 22.660867 
L 561.806062 24.369438 
L 563.102488 22.896534 
L 564.398913 24.457811 
L 565.695338 21.688748 
L 566.991764 21.158491 
L 568.288189 24.339966 
L 569.584615 23.691887 
L 570.88104 22.80814 
L 572.177465 21.688748 
L 573.473891 24.074849 
L 574.770316 22.336827 
L 576.066741 28.022248 
L 577.363167 23.367847 
L 578.659592 21.453081 
L 579.956018 22.513572 
L 581.252443 22.218983 
L 582.548868 25.312085 
L 583.845294 20.981746 
L 585.141719 22.543022 
L 586.438144 21.276336 
L 587.73457 21.718198 
L 589.030995 22.925984 
L 590.327421 23.279474 
L 591.623846 24.752378 
L 592.920271 26.843911 
L 594.216697 22.13061 
L 595.513122 24.163221 
L 596.809547 25.10589 
L 598.105973 23.367847 
L 599.402398 23.662436 
L 600.698823 23.691887 
L 601.995249 20.039077 
L 603.291674 18.890213 
L 604.5881 21.011196 
L 607.18095 22.45465 
L 608.477376 21.629826 
L 609.773801 22.071688 
L 611.070226 24.251594 
L 612.366652 22.896534 
L 613.663077 22.719767 
L 614.959503 20.510411 
L 616.255928 24.870223 
L 617.552353 19.744509 
L 618.848779 21.894943 
L 620.145204 21.983315 
L 621.441629 21.80657 
L 622.738055 23.161652 
L 624.03448 25.223713 
L 625.330906 21.453081 
L 626.627331 21.187963 
L 627.923756 20.716629 
L 629.220182 22.189533 
L 630.516607 22.395728 
L 631.813032 22.77869 
L 633.109458 23.957026 
L 634.405883 23.014357 
L 635.702309 23.308947 
L 636.998734 21.629826 
L 638.295159 22.16006 
L 639.591585 21.040668 
L 640.88801 20.922824 
L 642.184435 20.304216 
L 643.480861 21.394158 
L 644.777286 21.394158 
L 646.073711 22.543022 
L 647.370137 20.716629 
L 648.666562 23.544614 
L 649.962988 21.364708 
L 651.259413 23.662436 
L 652.555838 20.009627 
L 653.852264 20.893374 
L 655.148689 22.837612 
L 656.445114 22.601945 
L 657.74154 19.597215 
L 659.037965 22.601945 
L 660.334391 21.600375 
L 661.630816 24.074849 
L 662.927241 22.042238 
L 664.223667 19.77396 
L 665.520092 24.752378 
L 668.112943 21.77712 
L 669.409368 20.039077 
L 670.705794 21.187963 
L 672.002219 22.071688 
L 673.298644 21.541453 
L 674.59507 22.012788 
L 675.891495 19.567764 
L 677.18792 23.868654 
L 678.484346 23.986476 
L 679.780771 21.570903 
L 681.077196 20.834451 
L 682.373622 23.132179 
L 683.670047 22.395728 
L 684.966473 24.929145 
L 686.262898 23.485692 
L 688.855749 22.248455 
L 690.152174 25.724497 
L 691.448599 23.603514 
L 692.745025 22.601945 
L 694.04145 21.894943 
L 695.337876 20.215844 
L 696.634301 19.832882 
L 697.930726 21.659276 
L 699.227152 20.805001 
L 700.523577 21.246863 
L 701.820002 25.48883 
L 703.116428 22.012788 
L 704.412853 21.953865 
L 705.709279 21.394158 
L 707.005704 21.482531 
L 708.302129 26.343127 
L 709.598555 20.274744 
L 710.89498 20.805001 
L 712.191405 20.569334 
L 713.487831 19.390997 
L 714.784256 19.243725 
L 716.080682 20.922824 
L 718.673532 21.865493 
L 719.969958 19.980177 
L 721.266383 22.395728 
L 722.562808 19.44992 
L 723.859234 22.601945 
L 725.155659 22.543022 
L 726.452084 21.659276 
L 727.74851 22.955435 
L 729.044935 20.480961 
L 730.341361 21.129041 
L 731.637786 20.569334 
L 732.934211 21.394158 
L 734.230637 21.747648 
L 735.527062 21.659276 
L 738.119913 22.631395 
L 739.416338 21.217413 
L 740.712764 21.541453 
L 742.009189 18.654545 
L 743.305614 20.039077 
L 744.60204 19.243725 
L 745.898465 22.4841 
L 747.19489 20.363117 
L 748.491316 19.42047 
L 749.787741 22.955435 
L 751.084167 19.950704 
L 753.677017 21.894943 
L 754.973443 20.598784 
L 756.269868 19.479392 
L 757.566293 19.832882 
L 758.862719 25.076418 
L 760.159144 22.307355 
L 761.455569 22.248455 
L 762.751995 19.862332 
L 764.04842 20.687156 
L 765.344846 23.986476 
L 766.641271 20.245294 
L 767.937696 21.305786 
L 769.234122 19.832882 
L 770.530547 20.480961 
L 771.826972 22.071688 
L 773.123398 19.214252 
L 774.419823 22.042238 
L 775.716249 22.307355 
L 777.012674 21.924415 
L 778.309099 20.657706 
L 779.605525 20.039077 
L 780.90195 22.248455 
L 782.198375 20.451489 
L 783.494801 19.656137 
L 784.791226 20.274744 
L 786.087652 23.250024 
L 787.384077 21.659276 
L 788.680502 18.919685 
L 789.976928 21.040668 
L 791.273353 22.4841 
L 792.569778 20.097999 
L 793.866204 20.922824 
L 795.162629 20.186372 
L 795.162629 20.186372 
" clip-path="url(#pb9956f82a0)" style="fill: none; stroke: #ff7f0e; stroke-width: 1.5; stroke-linecap: square"/>
   </g>
   <g id="patch_9">
    <path d="M 456.212216 259.2 
L 456.212216 7.2 
" style="fill: none; stroke: #000000; stroke-width: 0.8; stroke-linejoin: miter; stroke-linecap: square"/>
   </g>
   <g id="patch_10">
    <path d="M 811.303125 259.2 
L 811.303125 7.2 
" style="fill: none; stroke: #000000; stroke-width: 0.8; stroke-linejoin: miter; stroke-linecap: square"/>
   </g>
   <g id="patch_11">
    <path d="M 456.212216 259.2 
L 811.303125 259.2 
" style="fill: none; stroke: #000000; stroke-width: 0.8; stroke-linejoin: miter; stroke-linecap: square"/>
   </g>
   <g id="patch_12">
    <path d="M 456.212216 7.2 
L 811.303125 7.2 
" style="fill: none; stroke: #000000; stroke-width: 0.8; stroke-linejoin: miter; stroke-linecap: square"/>
   </g>
   <g id="legend_2">
    <g id="patch_13">
     <path d="M 726.903125 254.2 
L 804.303125 254.2 
Q 806.303125 254.2 806.303125 252.2 
L 806.303125 223.2875 
Q 806.303125 221.2875 804.303125 221.2875 
L 726.903125 221.2875 
Q 724.903125 221.2875 724.903125 223.2875 
L 724.903125 252.2 
Q 724.903125 254.2 726.903125 254.2 
z
" style="fill: #ffffff; opacity: 0.8; stroke: #cccccc; stroke-linejoin: miter"/>
    </g>
    <g id="line2d_31">
     <path d="M 728.903125 229.385937 
L 738.903125 229.385937 
L 748.903125 229.385937 
" style="fill: none; stroke: #1f77b4; stroke-width: 1.5; stroke-linecap: square"/>
    </g>
    <g id="text_27">
     <!-- train_acc -->
     <g transform="translate(756.903125 232.885937) scale(0.1 -0.1)">
      <defs>
       <path id="DejaVuSans-63" d="M 3122 3366 
L 3122 2828 
Q 2878 2963 2633 3030 
Q 2388 3097 2138 3097 
Q 1578 3097 1268 2742 
Q 959 2388 959 1747 
Q 959 1106 1268 751 
Q 1578 397 2138 397 
Q 2388 397 2633 464 
Q 2878 531 3122 666 
L 3122 134 
Q 2881 22 2623 -34 
Q 2366 -91 2075 -91 
Q 1284 -91 818 406 
Q 353 903 353 1747 
Q 353 2603 823 3093 
Q 1294 3584 2113 3584 
Q 2378 3584 2631 3529 
Q 2884 3475 3122 3366 
z
" transform="scale(0.015625)"/>
      </defs>
      <use xlink:href="#DejaVuSans-74"/>
      <use xlink:href="#DejaVuSans-72" x="39.208984"/>
      <use xlink:href="#DejaVuSans-61" x="80.322266"/>
      <use xlink:href="#DejaVuSans-69" x="141.601562"/>
      <use xlink:href="#DejaVuSans-6e" x="169.384766"/>
      <use xlink:href="#DejaVuSans-5f" x="232.763672"/>
      <use xlink:href="#DejaVuSans-61" x="282.763672"/>
      <use xlink:href="#DejaVuSans-63" x="344.042969"/>
      <use xlink:href="#DejaVuSans-63" x="399.023438"/>
     </g>
    </g>
    <g id="line2d_32">
     <path d="M 728.903125 244.342187 
L 738.903125 244.342187 
L 748.903125 244.342187 
" style="fill: none; stroke: #ff7f0e; stroke-width: 1.5; stroke-linecap: square"/>
    </g>
    <g id="text_28">
     <!-- val_acc -->
     <g transform="translate(756.903125 247.842187) scale(0.1 -0.1)">
      <use xlink:href="#DejaVuSans-76"/>
      <use xlink:href="#DejaVuSans-61" x="59.179688"/>
      <use xlink:href="#DejaVuSans-6c" x="120.458984"/>
      <use xlink:href="#DejaVuSans-5f" x="148.242188"/>
      <use xlink:href="#DejaVuSans-61" x="198.242188"/>
      <use xlink:href="#DejaVuSans-63" x="259.521484"/>
      <use xlink:href="#DejaVuSans-63" x="314.501953"/>
     </g>
    </g>
   </g>
  </g>
 </g>
 <defs>
  <clipPath id="p32173bb69b">
   <rect x="30.103125" y="7.2" width="355.090909" height="252"/>
  </clipPath>
  <clipPath id="pb9956f82a0">
   <rect x="456.212216" y="7.2" width="355.090909" height="252"/>
  </clipPath>
 </defs>
</svg>
