<?xml version="1.0" encoding="utf-8" standalone="no"?>
<!DOCTYPE svg PUBLIC "-//W3C//DTD SVG 1.1//EN"
  "http://www.w3.org/Graphics/SVG/1.1/DTD/svg11.dtd">
<svg xmlns:xlink="http://www.w3.org/1999/xlink" width="818.503125pt" height="285.082498pt" viewBox="0 0 818.503125 285.082498" xmlns="http://www.w3.org/2000/svg" version="1.1">
 <metadata>
  <rdf:RDF xmlns:dc="http://purl.org/dc/elements/1.1/" xmlns:cc="http://creativecommons.org/ns#" xmlns:rdf="http://www.w3.org/1999/02/22-rdf-syntax-ns#">
   <cc:Work>
    <dc:type rdf:resource="http://purl.org/dc/dcmitype/StillImage"/>
    <dc:date>2023-01-23T20:13:06.193675</dc:date>
    <dc:format>image/svg+xml</dc:format>
    <dc:creator>
     <cc:Agent>
      <dc:title>Matplotlib v3.6.2, https://matplotlib.org/</dc:title>
     </cc:Agent>
    </dc:creator>
   </cc:Work>
  </rdf:RDF>
 </metadata>
 <defs>
  <style type="text/css">*{stroke-linejoin: round; stroke-linecap: butt}</style>
 </defs>
 <g id="figure_1">
  <g id="patch_1">
   <path d="M 0 285.082498 
L 818.503125 285.082498 
L 818.503125 0 
L 0 0 
z
" style="fill: #ffffff"/>
  </g>
  <g id="axes_1">
   <g id="patch_2">
    <path d="M 30.103125 261.204373 
L 385.194034 261.204373 
L 385.194034 9.204373 
L 30.103125 9.204373 
z
" style="fill: #ffffff"/>
   </g>
   <g id="matplotlib.axis_1">
    <g id="xtick_1">
     <g id="line2d_1">
      <defs>
       <path id="m19fa3ead83" d="M 0 0 
L 0 3.5 
" style="stroke: #000000; stroke-width: 0.8"/>
      </defs>
      <g>
       <use xlink:href="#m19fa3ead83" x="46.243621" y="261.204373" style="stroke: #000000; stroke-width: 0.8"/>
      </g>
     </g>
     <g id="text_1">
      <!-- 0 -->
      <g transform="translate(43.062371 275.802811) scale(0.1 -0.1)">
       <defs>
        <path id="DejaVuSans-30" d="M 2034 4250 
Q 1547 4250 1301 3770 
Q 1056 3291 1056 2328 
Q 1056 1369 1301 889 
Q 1547 409 2034 409 
Q 2525 409 2770 889 
Q 3016 1369 3016 2328 
Q 3016 3291 2770 3770 
Q 2525 4250 2034 4250 
z
M 2034 4750 
Q 2819 4750 3233 4129 
Q 3647 3509 3647 2328 
Q 3647 1150 3233 529 
Q 2819 -91 2034 -91 
Q 1250 -91 836 529 
Q 422 1150 422 2328 
Q 422 3509 836 4129 
Q 1250 4750 2034 4750 
z
" transform="scale(0.015625)"/>
       </defs>
       <use xlink:href="#DejaVuSans-30"/>
      </g>
     </g>
    </g>
    <g id="xtick_2">
     <g id="line2d_2">
      <g>
       <use xlink:href="#m19fa3ead83" x="111.064889" y="261.204373" style="stroke: #000000; stroke-width: 0.8"/>
      </g>
     </g>
     <g id="text_2">
      <!-- 50 -->
      <g transform="translate(104.702389 275.802811) scale(0.1 -0.1)">
       <defs>
        <path id="DejaVuSans-35" d="M 691 4666 
L 3169 4666 
L 3169 4134 
L 1269 4134 
L 1269 2991 
Q 1406 3038 1543 3061 
Q 1681 3084 1819 3084 
Q 2600 3084 3056 2656 
Q 3513 2228 3513 1497 
Q 3513 744 3044 326 
Q 2575 -91 1722 -91 
Q 1428 -91 1123 -41 
Q 819 9 494 109 
L 494 744 
Q 775 591 1075 516 
Q 1375 441 1709 441 
Q 2250 441 2565 725 
Q 2881 1009 2881 1497 
Q 2881 1984 2565 2268 
Q 2250 2553 1709 2553 
Q 1456 2553 1204 2497 
Q 953 2441 691 2322 
L 691 4666 
z
" transform="scale(0.015625)"/>
       </defs>
       <use xlink:href="#DejaVuSans-35"/>
       <use xlink:href="#DejaVuSans-30" x="63.623047"/>
      </g>
     </g>
    </g>
    <g id="xtick_3">
     <g id="line2d_3">
      <g>
       <use xlink:href="#m19fa3ead83" x="175.886158" y="261.204373" style="stroke: #000000; stroke-width: 0.8"/>
      </g>
     </g>
     <g id="text_3">
      <!-- 100 -->
      <g transform="translate(166.342408 275.802811) scale(0.1 -0.1)">
       <defs>
        <path id="DejaVuSans-31" d="M 794 531 
L 1825 531 
L 1825 4091 
L 703 3866 
L 703 4441 
L 1819 4666 
L 2450 4666 
L 2450 531 
L 3481 531 
L 3481 0 
L 794 0 
L 794 531 
z
" transform="scale(0.015625)"/>
       </defs>
       <use xlink:href="#DejaVuSans-31"/>
       <use xlink:href="#DejaVuSans-30" x="63.623047"/>
       <use xlink:href="#DejaVuSans-30" x="127.246094"/>
      </g>
     </g>
    </g>
    <g id="xtick_4">
     <g id="line2d_4">
      <g>
       <use xlink:href="#m19fa3ead83" x="240.707427" y="261.204373" style="stroke: #000000; stroke-width: 0.8"/>
      </g>
     </g>
     <g id="text_4">
      <!-- 150 -->
      <g transform="translate(231.163677 275.802811) scale(0.1 -0.1)">
       <use xlink:href="#DejaVuSans-31"/>
       <use xlink:href="#DejaVuSans-35" x="63.623047"/>
       <use xlink:href="#DejaVuSans-30" x="127.246094"/>
      </g>
     </g>
    </g>
    <g id="xtick_5">
     <g id="line2d_5">
      <g>
       <use xlink:href="#m19fa3ead83" x="305.528695" y="261.204373" style="stroke: #000000; stroke-width: 0.8"/>
      </g>
     </g>
     <g id="text_5">
      <!-- 200 -->
      <g transform="translate(295.984945 275.802811) scale(0.1 -0.1)">
       <defs>
        <path id="DejaVuSans-32" d="M 1228 531 
L 3431 531 
L 3431 0 
L 469 0 
L 469 531 
Q 828 903 1448 1529 
Q 2069 2156 2228 2338 
Q 2531 2678 2651 2914 
Q 2772 3150 2772 3378 
Q 2772 3750 2511 3984 
Q 2250 4219 1831 4219 
Q 1534 4219 1204 4116 
Q 875 4013 500 3803 
L 500 4441 
Q 881 4594 1212 4672 
Q 1544 4750 1819 4750 
Q 2544 4750 2975 4387 
Q 3406 4025 3406 3419 
Q 3406 3131 3298 2873 
Q 3191 2616 2906 2266 
Q 2828 2175 2409 1742 
Q 1991 1309 1228 531 
z
" transform="scale(0.015625)"/>
       </defs>
       <use xlink:href="#DejaVuSans-32"/>
       <use xlink:href="#DejaVuSans-30" x="63.623047"/>
       <use xlink:href="#DejaVuSans-30" x="127.246094"/>
      </g>
     </g>
    </g>
    <g id="xtick_6">
     <g id="line2d_6">
      <g>
       <use xlink:href="#m19fa3ead83" x="370.349964" y="261.204373" style="stroke: #000000; stroke-width: 0.8"/>
      </g>
     </g>
     <g id="text_6">
      <!-- 250 -->
      <g transform="translate(360.806214 275.802811) scale(0.1 -0.1)">
       <use xlink:href="#DejaVuSans-32"/>
       <use xlink:href="#DejaVuSans-35" x="63.623047"/>
       <use xlink:href="#DejaVuSans-30" x="127.246094"/>
      </g>
     </g>
    </g>
   </g>
   <g id="matplotlib.axis_2">
    <g id="ytick_1">
     <g id="line2d_7">
      <defs>
       <path id="mfe60ccca79" d="M 0 0 
L -3.5 0 
" style="stroke: #000000; stroke-width: 0.8"/>
      </defs>
      <g>
       <use xlink:href="#mfe60ccca79" x="30.103125" y="232.502696" style="stroke: #000000; stroke-width: 0.8"/>
      </g>
     </g>
     <g id="text_7">
      <!-- 1.0 -->
      <g transform="translate(7.2 236.301915) scale(0.1 -0.1)">
       <defs>
        <path id="DejaVuSans-2e" d="M 684 794 
L 1344 794 
L 1344 0 
L 684 0 
L 684 794 
z
" transform="scale(0.015625)"/>
       </defs>
       <use xlink:href="#DejaVuSans-31"/>
       <use xlink:href="#DejaVuSans-2e" x="63.623047"/>
       <use xlink:href="#DejaVuSans-30" x="95.410156"/>
      </g>
     </g>
    </g>
    <g id="ytick_2">
     <g id="line2d_8">
      <g>
       <use xlink:href="#mfe60ccca79" x="30.103125" y="195.58545" style="stroke: #000000; stroke-width: 0.8"/>
      </g>
     </g>
     <g id="text_8">
      <!-- 1.5 -->
      <g transform="translate(7.2 199.384669) scale(0.1 -0.1)">
       <use xlink:href="#DejaVuSans-31"/>
       <use xlink:href="#DejaVuSans-2e" x="63.623047"/>
       <use xlink:href="#DejaVuSans-35" x="95.410156"/>
      </g>
     </g>
    </g>
    <g id="ytick_3">
     <g id="line2d_9">
      <g>
       <use xlink:href="#mfe60ccca79" x="30.103125" y="158.668204" style="stroke: #000000; stroke-width: 0.8"/>
      </g>
     </g>
     <g id="text_9">
      <!-- 2.0 -->
      <g transform="translate(7.2 162.467422) scale(0.1 -0.1)">
       <use xlink:href="#DejaVuSans-32"/>
       <use xlink:href="#DejaVuSans-2e" x="63.623047"/>
       <use xlink:href="#DejaVuSans-30" x="95.410156"/>
      </g>
     </g>
    </g>
    <g id="ytick_4">
     <g id="line2d_10">
      <g>
       <use xlink:href="#mfe60ccca79" x="30.103125" y="121.750957" style="stroke: #000000; stroke-width: 0.8"/>
      </g>
     </g>
     <g id="text_10">
      <!-- 2.5 -->
      <g transform="translate(7.2 125.550176) scale(0.1 -0.1)">
       <use xlink:href="#DejaVuSans-32"/>
       <use xlink:href="#DejaVuSans-2e" x="63.623047"/>
       <use xlink:href="#DejaVuSans-35" x="95.410156"/>
      </g>
     </g>
    </g>
    <g id="ytick_5">
     <g id="line2d_11">
      <g>
       <use xlink:href="#mfe60ccca79" x="30.103125" y="84.833711" style="stroke: #000000; stroke-width: 0.8"/>
      </g>
     </g>
     <g id="text_11">
      <!-- 3.0 -->
      <g transform="translate(7.2 88.63293) scale(0.1 -0.1)">
       <defs>
        <path id="DejaVuSans-33" d="M 2597 2516 
Q 3050 2419 3304 2112 
Q 3559 1806 3559 1356 
Q 3559 666 3084 287 
Q 2609 -91 1734 -91 
Q 1441 -91 1130 -33 
Q 819 25 488 141 
L 488 750 
Q 750 597 1062 519 
Q 1375 441 1716 441 
Q 2309 441 2620 675 
Q 2931 909 2931 1356 
Q 2931 1769 2642 2001 
Q 2353 2234 1838 2234 
L 1294 2234 
L 1294 2753 
L 1863 2753 
Q 2328 2753 2575 2939 
Q 2822 3125 2822 3475 
Q 2822 3834 2567 4026 
Q 2313 4219 1838 4219 
Q 1578 4219 1281 4162 
Q 984 4106 628 3988 
L 628 4550 
Q 988 4650 1302 4700 
Q 1616 4750 1894 4750 
Q 2613 4750 3031 4423 
Q 3450 4097 3450 3541 
Q 3450 3153 3228 2886 
Q 3006 2619 2597 2516 
z
" transform="scale(0.015625)"/>
       </defs>
       <use xlink:href="#DejaVuSans-33"/>
       <use xlink:href="#DejaVuSans-2e" x="63.623047"/>
       <use xlink:href="#DejaVuSans-30" x="95.410156"/>
      </g>
     </g>
    </g>
    <g id="ytick_6">
     <g id="line2d_12">
      <g>
       <use xlink:href="#mfe60ccca79" x="30.103125" y="47.916465" style="stroke: #000000; stroke-width: 0.8"/>
      </g>
     </g>
     <g id="text_12">
      <!-- 3.5 -->
      <g transform="translate(7.2 51.715684) scale(0.1 -0.1)">
       <use xlink:href="#DejaVuSans-33"/>
       <use xlink:href="#DejaVuSans-2e" x="63.623047"/>
       <use xlink:href="#DejaVuSans-35" x="95.410156"/>
      </g>
     </g>
    </g>
    <g id="ytick_7">
     <g id="line2d_13">
      <g>
       <use xlink:href="#mfe60ccca79" x="30.103125" y="10.999219" style="stroke: #000000; stroke-width: 0.8"/>
      </g>
     </g>
     <g id="text_13">
      <!-- 4.0 -->
      <g transform="translate(7.2 14.798438) scale(0.1 -0.1)">
       <defs>
        <path id="DejaVuSans-34" d="M 2419 4116 
L 825 1625 
L 2419 1625 
L 2419 4116 
z
M 2253 4666 
L 3047 4666 
L 3047 1625 
L 3713 1625 
L 3713 1100 
L 3047 1100 
L 3047 0 
L 2419 0 
L 2419 1100 
L 313 1100 
L 313 1709 
L 2253 4666 
z
" transform="scale(0.015625)"/>
       </defs>
       <use xlink:href="#DejaVuSans-34"/>
       <use xlink:href="#DejaVuSans-2e" x="63.623047"/>
       <use xlink:href="#DejaVuSans-30" x="95.410156"/>
      </g>
     </g>
    </g>
   </g>
   <g id="line2d_14">
    <path d="M 46.243621 20.658919 
L 47.540046 24.398557 
L 48.836472 26.541151 
L 50.132897 27.934522 
L 51.429322 28.966686 
L 56.615024 32.310245 
L 57.911449 32.950379 
L 59.207875 33.808216 
L 61.800725 35.214209 
L 64.393576 37.017337 
L 65.690001 37.800412 
L 66.986427 38.792299 
L 68.282852 39.449386 
L 69.579278 40.615425 
L 70.875703 41.574218 
L 72.172128 42.820811 
L 74.764979 45.091858 
L 76.061404 46.235769 
L 77.35783 47.619546 
L 78.654255 48.785005 
L 79.950681 50.209147 
L 81.247106 51.396152 
L 89.025658 60.284624 
L 92.914934 64.989111 
L 94.21136 67.100212 
L 98.100636 72.027119 
L 99.397061 73.982042 
L 100.693486 75.224445 
L 103.286337 79.043211 
L 104.582763 80.519125 
L 105.879188 82.49313 
L 107.175613 84.165552 
L 108.472039 85.46279 
L 109.768464 87.74954 
L 111.064889 88.919223 
L 112.361315 91.041362 
L 113.65774 92.440595 
L 116.250591 95.837492 
L 117.547016 97.167455 
L 118.843442 99.098948 
L 120.139867 100.803426 
L 121.436292 102.053716 
L 122.732718 104.055975 
L 124.029143 105.650325 
L 125.325568 106.525519 
L 127.918419 109.95993 
L 135.696971 118.311072 
L 136.993397 119.516614 
L 138.289822 121.456767 
L 139.586248 122.324867 
L 143.475524 126.431345 
L 147.3648 130.090781 
L 148.661225 131.593259 
L 151.254076 133.779809 
L 152.550501 135.257096 
L 153.846927 136.077314 
L 155.143352 137.197883 
L 156.439777 138.513112 
L 159.032628 140.705472 
L 160.329054 141.706478 
L 161.625479 142.908921 
L 162.921904 143.827384 
L 165.514755 146.296277 
L 166.81118 147.013233 
L 170.700456 150.207567 
L 173.293307 151.922484 
L 174.589733 153.335078 
L 177.182583 154.572552 
L 178.479009 156.029666 
L 181.071859 157.579796 
L 182.368285 158.955141 
L 183.66471 159.803833 
L 184.961136 160.258276 
L 188.850412 163.221406 
L 190.146837 164.160324 
L 191.443262 164.755481 
L 194.036113 166.441317 
L 195.332539 166.892152 
L 196.628964 167.939632 
L 197.925389 168.655646 
L 199.221815 169.965691 
L 200.51824 170.444401 
L 203.111091 172.042808 
L 204.407516 172.433325 
L 205.703941 173.548851 
L 207.000367 174.448065 
L 208.296792 174.840826 
L 209.593218 175.50468 
L 210.889643 176.850918 
L 212.186068 176.866321 
L 213.482494 177.713385 
L 214.778919 178.239536 
L 216.075344 179.231565 
L 218.668195 180.400332 
L 219.964621 181.459316 
L 221.261046 181.934259 
L 222.557471 182.12935 
L 223.853897 183.568824 
L 225.150322 183.695297 
L 226.446747 184.796264 
L 227.743173 185.114272 
L 229.039598 185.805668 
L 230.336024 186.303979 
L 232.928874 187.703459 
L 234.2253 188.016616 
L 235.521725 189.183597 
L 236.81815 189.268165 
L 238.114576 190.268889 
L 239.411001 190.543935 
L 240.707427 191.2252 
L 242.003852 191.549131 
L 243.300277 192.461398 
L 244.596703 192.588848 
L 247.189553 194.039421 
L 248.485979 194.44762 
L 252.375255 196.089685 
L 253.67168 196.532809 
L 254.968106 196.684983 
L 256.264531 197.38555 
L 257.560956 198.238185 
L 258.857382 198.382182 
L 260.153807 199.139943 
L 261.450232 199.669439 
L 262.746658 199.993784 
L 265.339509 201.084436 
L 267.932359 201.796014 
L 271.821635 203.742655 
L 273.118061 203.989685 
L 274.414486 204.46314 
L 275.710912 204.685332 
L 277.007337 205.291641 
L 278.303762 205.301965 
L 279.600188 206.188328 
L 280.896613 206.311703 
L 282.193038 206.992827 
L 284.785889 207.880563 
L 286.082314 208.198676 
L 287.37874 208.711282 
L 288.675165 209.098462 
L 289.971591 209.332378 
L 291.268016 209.93756 
L 292.564441 209.843311 
L 293.860867 210.817005 
L 296.453717 211.300178 
L 299.046568 211.961577 
L 300.342994 212.852174 
L 301.639419 212.855994 
L 302.935844 212.992853 
L 304.23227 213.703771 
L 305.528695 214.111468 
L 306.82512 214.688212 
L 308.121546 214.494758 
L 309.417971 215.070138 
L 310.714397 215.365639 
L 312.010822 215.913056 
L 313.307247 216.259775 
L 314.603673 216.38035 
L 317.196523 217.154236 
L 318.492949 217.675986 
L 321.085799 218.316323 
L 322.382225 218.818754 
L 324.975076 219.147341 
L 326.271501 219.733159 
L 327.567926 219.868566 
L 328.864352 220.562558 
L 331.457202 220.666498 
L 334.050053 221.574672 
L 335.346479 221.444485 
L 337.939329 222.202668 
L 339.235755 222.607285 
L 340.53218 222.850046 
L 344.421456 224.147258 
L 345.717882 223.903009 
L 347.014307 224.402536 
L 349.607158 224.958807 
L 350.903583 225.383826 
L 352.200008 225.438027 
L 354.792859 225.986852 
L 356.089285 226.260886 
L 358.682135 227.044022 
L 359.978561 227.170433 
L 361.274986 227.421362 
L 362.571411 227.240856 
L 363.867837 227.99198 
L 365.164262 228.455718 
L 366.460687 228.492624 
L 369.053538 228.994096 
L 369.053538 228.994096 
" clip-path="url(#pe04abcc7c1)" style="fill: none; stroke: #1f77b4; stroke-width: 1.5; stroke-linecap: square"/>
   </g>
   <g id="line2d_15">
    <path d="M 46.243621 28.710291 
L 47.540046 30.018162 
L 50.132897 31.70009 
L 54.022173 33.883894 
L 56.615024 35.51794 
L 61.800725 39.189945 
L 66.986427 43.587778 
L 69.579278 46.039402 
L 72.172128 48.995349 
L 76.061404 53.66947 
L 77.35783 55.516395 
L 78.654255 57.108422 
L 82.543531 62.735632 
L 89.025658 72.971688 
L 95.507785 84.399538 
L 108.472039 107.647514 
L 114.954166 118.652686 
L 116.250591 120.822108 
L 117.547016 122.742423 
L 118.843442 125.0344 
L 124.029143 132.976103 
L 126.621994 136.657262 
L 127.918419 138.685275 
L 129.214845 140.342205 
L 130.51127 142.201911 
L 139.586248 153.687571 
L 148.661225 164.025578 
L 149.957651 165.162052 
L 152.550501 167.917258 
L 153.846927 169.269251 
L 155.143352 170.332944 
L 156.439777 171.701344 
L 157.736203 172.846814 
L 159.032628 174.168556 
L 162.921904 177.531725 
L 165.514755 179.871778 
L 168.107606 181.841673 
L 170.700456 184.019967 
L 173.293307 186.078584 
L 178.479009 189.979514 
L 179.775434 191.004628 
L 181.071859 191.68107 
L 182.368285 192.752683 
L 190.146837 197.881908 
L 192.739688 199.497285 
L 195.332539 201.000097 
L 196.628964 201.871551 
L 197.925389 202.561529 
L 199.221815 203.391456 
L 201.814665 204.728592 
L 207.000367 207.603845 
L 208.296792 208.124284 
L 212.186068 210.236213 
L 214.778919 211.360725 
L 216.075344 212.086562 
L 221.261046 214.46764 
L 222.557471 214.823812 
L 223.853897 215.583861 
L 238.114576 221.270404 
L 242.003852 222.54011 
L 243.300277 223.098546 
L 245.893128 223.911538 
L 247.189553 224.464632 
L 248.485979 224.797902 
L 251.078829 225.695866 
L 257.560956 227.726651 
L 258.857382 228.074268 
L 261.450232 228.995337 
L 264.043083 229.603019 
L 265.339509 230.108891 
L 273.118061 232.204933 
L 274.414486 232.643256 
L 275.710912 232.855074 
L 278.303762 233.532242 
L 286.082314 235.485422 
L 287.37874 235.687907 
L 288.675165 236.119954 
L 292.564441 236.86589 
L 293.860867 237.218515 
L 295.157292 237.418623 
L 296.453717 237.760549 
L 297.750143 237.974383 
L 299.046568 238.353515 
L 313.307247 241.194357 
L 314.603673 241.341887 
L 317.196523 241.966957 
L 321.085799 242.521024 
L 322.382225 242.866123 
L 323.67865 242.930446 
L 326.271501 243.473871 
L 332.753628 244.520783 
L 334.050053 244.811817 
L 337.939329 245.309614 
L 348.310732 246.937068 
L 349.607158 247.087595 
L 350.903583 247.374137 
L 352.200008 247.472729 
L 354.792859 247.871586 
L 356.089285 247.996447 
L 358.682135 248.48696 
L 361.274986 248.705618 
L 362.571411 248.957357 
L 366.460687 249.411853 
L 367.757113 249.700423 
L 369.053538 249.749828 
L 369.053538 249.749828 
" clip-path="url(#pe04abcc7c1)" style="fill: none; stroke: #ff7f0e; stroke-width: 1.5; stroke-linecap: square"/>
   </g>
   <g id="patch_3">
    <path d="M 30.103125 261.204373 
L 30.103125 9.204373 
" style="fill: none; stroke: #000000; stroke-width: 0.8; stroke-linejoin: miter; stroke-linecap: square"/>
   </g>
   <g id="patch_4">
    <path d="M 385.194034 261.204373 
L 385.194034 9.204373 
" style="fill: none; stroke: #000000; stroke-width: 0.8; stroke-linejoin: miter; stroke-linecap: square"/>
   </g>
   <g id="patch_5">
    <path d="M 30.103125 261.204373 
L 385.194034 261.204373 
" style="fill: none; stroke: #000000; stroke-width: 0.8; stroke-linejoin: miter; stroke-linecap: square"/>
   </g>
   <g id="patch_6">
    <path d="M 30.103125 9.204373 
L 385.194034 9.204373 
" style="fill: none; stroke: #000000; stroke-width: 0.8; stroke-linejoin: miter; stroke-linecap: square"/>
   </g>
   <g id="legend_1">
    <g id="patch_7">
     <path d="M 298.603409 47.116873 
L 378.194034 47.116873 
Q 380.194034 47.116873 380.194034 45.116873 
L 380.194034 16.204373 
Q 380.194034 14.204373 378.194034 14.204373 
L 298.603409 14.204373 
Q 296.603409 14.204373 296.603409 16.204373 
L 296.603409 45.116873 
Q 296.603409 47.116873 298.603409 47.116873 
z
" style="fill: #ffffff; opacity: 0.8; stroke: #cccccc; stroke-linejoin: miter"/>
    </g>
    <g id="line2d_16">
     <path d="M 300.603409 22.302811 
L 310.603409 22.302811 
L 320.603409 22.302811 
" style="fill: none; stroke: #1f77b4; stroke-width: 1.5; stroke-linecap: square"/>
    </g>
    <g id="text_14">
     <!-- train_loss -->
     <g transform="translate(328.603409 25.802811) scale(0.1 -0.1)">
      <defs>
       <path id="DejaVuSans-74" d="M 1172 4494 
L 1172 3500 
L 2356 3500 
L 2356 3053 
L 1172 3053 
L 1172 1153 
Q 1172 725 1289 603 
Q 1406 481 1766 481 
L 2356 481 
L 2356 0 
L 1766 0 
Q 1100 0 847 248 
Q 594 497 594 1153 
L 594 3053 
L 172 3053 
L 172 3500 
L 594 3500 
L 594 4494 
L 1172 4494 
z
" transform="scale(0.015625)"/>
       <path id="DejaVuSans-72" d="M 2631 2963 
Q 2534 3019 2420 3045 
Q 2306 3072 2169 3072 
Q 1681 3072 1420 2755 
Q 1159 2438 1159 1844 
L 1159 0 
L 581 0 
L 581 3500 
L 1159 3500 
L 1159 2956 
Q 1341 3275 1631 3429 
Q 1922 3584 2338 3584 
Q 2397 3584 2469 3576 
Q 2541 3569 2628 3553 
L 2631 2963 
z
" transform="scale(0.015625)"/>
       <path id="DejaVuSans-61" d="M 2194 1759 
Q 1497 1759 1228 1600 
Q 959 1441 959 1056 
Q 959 750 1161 570 
Q 1363 391 1709 391 
Q 2188 391 2477 730 
Q 2766 1069 2766 1631 
L 2766 1759 
L 2194 1759 
z
M 3341 1997 
L 3341 0 
L 2766 0 
L 2766 531 
Q 2569 213 2275 61 
Q 1981 -91 1556 -91 
Q 1019 -91 701 211 
Q 384 513 384 1019 
Q 384 1609 779 1909 
Q 1175 2209 1959 2209 
L 2766 2209 
L 2766 2266 
Q 2766 2663 2505 2880 
Q 2244 3097 1772 3097 
Q 1472 3097 1187 3025 
Q 903 2953 641 2809 
L 641 3341 
Q 956 3463 1253 3523 
Q 1550 3584 1831 3584 
Q 2591 3584 2966 3190 
Q 3341 2797 3341 1997 
z
" transform="scale(0.015625)"/>
       <path id="DejaVuSans-69" d="M 603 3500 
L 1178 3500 
L 1178 0 
L 603 0 
L 603 3500 
z
M 603 4863 
L 1178 4863 
L 1178 4134 
L 603 4134 
L 603 4863 
z
" transform="scale(0.015625)"/>
       <path id="DejaVuSans-6e" d="M 3513 2113 
L 3513 0 
L 2938 0 
L 2938 2094 
Q 2938 2591 2744 2837 
Q 2550 3084 2163 3084 
Q 1697 3084 1428 2787 
Q 1159 2491 1159 1978 
L 1159 0 
L 581 0 
L 581 3500 
L 1159 3500 
L 1159 2956 
Q 1366 3272 1645 3428 
Q 1925 3584 2291 3584 
Q 2894 3584 3203 3211 
Q 3513 2838 3513 2113 
z
" transform="scale(0.015625)"/>
       <path id="DejaVuSans-5f" d="M 3263 -1063 
L 3263 -1509 
L -63 -1509 
L -63 -1063 
L 3263 -1063 
z
" transform="scale(0.015625)"/>
       <path id="DejaVuSans-6c" d="M 603 4863 
L 1178 4863 
L 1178 0 
L 603 0 
L 603 4863 
z
" transform="scale(0.015625)"/>
       <path id="DejaVuSans-6f" d="M 1959 3097 
Q 1497 3097 1228 2736 
Q 959 2375 959 1747 
Q 959 1119 1226 758 
Q 1494 397 1959 397 
Q 2419 397 2687 759 
Q 2956 1122 2956 1747 
Q 2956 2369 2687 2733 
Q 2419 3097 1959 3097 
z
M 1959 3584 
Q 2709 3584 3137 3096 
Q 3566 2609 3566 1747 
Q 3566 888 3137 398 
Q 2709 -91 1959 -91 
Q 1206 -91 779 398 
Q 353 888 353 1747 
Q 353 2609 779 3096 
Q 1206 3584 1959 3584 
z
" transform="scale(0.015625)"/>
       <path id="DejaVuSans-73" d="M 2834 3397 
L 2834 2853 
Q 2591 2978 2328 3040 
Q 2066 3103 1784 3103 
Q 1356 3103 1142 2972 
Q 928 2841 928 2578 
Q 928 2378 1081 2264 
Q 1234 2150 1697 2047 
L 1894 2003 
Q 2506 1872 2764 1633 
Q 3022 1394 3022 966 
Q 3022 478 2636 193 
Q 2250 -91 1575 -91 
Q 1294 -91 989 -36 
Q 684 19 347 128 
L 347 722 
Q 666 556 975 473 
Q 1284 391 1588 391 
Q 1994 391 2212 530 
Q 2431 669 2431 922 
Q 2431 1156 2273 1281 
Q 2116 1406 1581 1522 
L 1381 1569 
Q 847 1681 609 1914 
Q 372 2147 372 2553 
Q 372 3047 722 3315 
Q 1072 3584 1716 3584 
Q 2034 3584 2315 3537 
Q 2597 3491 2834 3397 
z
" transform="scale(0.015625)"/>
      </defs>
      <use xlink:href="#DejaVuSans-74"/>
      <use xlink:href="#DejaVuSans-72" x="39.208984"/>
      <use xlink:href="#DejaVuSans-61" x="80.322266"/>
      <use xlink:href="#DejaVuSans-69" x="141.601562"/>
      <use xlink:href="#DejaVuSans-6e" x="169.384766"/>
      <use xlink:href="#DejaVuSans-5f" x="232.763672"/>
      <use xlink:href="#DejaVuSans-6c" x="282.763672"/>
      <use xlink:href="#DejaVuSans-6f" x="310.546875"/>
      <use xlink:href="#DejaVuSans-73" x="371.728516"/>
      <use xlink:href="#DejaVuSans-73" x="423.828125"/>
     </g>
    </g>
    <g id="line2d_17">
     <path d="M 300.603409 37.259061 
L 310.603409 37.259061 
L 320.603409 37.259061 
" style="fill: none; stroke: #ff7f0e; stroke-width: 1.5; stroke-linecap: square"/>
    </g>
    <g id="text_15">
     <!-- val_loss -->
     <g transform="translate(328.603409 40.759061) scale(0.1 -0.1)">
      <defs>
       <path id="DejaVuSans-76" d="M 191 3500 
L 800 3500 
L 1894 563 
L 2988 3500 
L 3597 3500 
L 2284 0 
L 1503 0 
L 191 3500 
z
" transform="scale(0.015625)"/>
      </defs>
      <use xlink:href="#DejaVuSans-76"/>
      <use xlink:href="#DejaVuSans-61" x="59.179688"/>
      <use xlink:href="#DejaVuSans-6c" x="120.458984"/>
      <use xlink:href="#DejaVuSans-5f" x="148.242188"/>
      <use xlink:href="#DejaVuSans-6c" x="198.242188"/>
      <use xlink:href="#DejaVuSans-6f" x="226.025391"/>
      <use xlink:href="#DejaVuSans-73" x="287.207031"/>
      <use xlink:href="#DejaVuSans-73" x="339.306641"/>
     </g>
    </g>
   </g>
  </g>
  <g id="axes_2">
   <g id="patch_8">
    <path d="M 456.212216 261.204373 
L 811.303125 261.204373 
L 811.303125 9.204373 
L 456.212216 9.204373 
z
" style="fill: #ffffff"/>
   </g>
   <g id="matplotlib.axis_3">
    <g id="xtick_7">
     <g id="line2d_18">
      <g>
       <use xlink:href="#m19fa3ead83" x="472.352712" y="261.204373" style="stroke: #000000; stroke-width: 0.8"/>
      </g>
     </g>
     <g id="text_16">
      <!-- 0 -->
      <g transform="translate(469.171462 275.802811) scale(0.1 -0.1)">
       <use xlink:href="#DejaVuSans-30"/>
      </g>
     </g>
    </g>
    <g id="xtick_8">
     <g id="line2d_19">
      <g>
       <use xlink:href="#m19fa3ead83" x="537.17398" y="261.204373" style="stroke: #000000; stroke-width: 0.8"/>
      </g>
     </g>
     <g id="text_17">
      <!-- 50 -->
      <g transform="translate(530.81148 275.802811) scale(0.1 -0.1)">
       <use xlink:href="#DejaVuSans-35"/>
       <use xlink:href="#DejaVuSans-30" x="63.623047"/>
      </g>
     </g>
    </g>
    <g id="xtick_9">
     <g id="line2d_20">
      <g>
       <use xlink:href="#m19fa3ead83" x="601.995249" y="261.204373" style="stroke: #000000; stroke-width: 0.8"/>
      </g>
     </g>
     <g id="text_18">
      <!-- 100 -->
      <g transform="translate(592.451499 275.802811) scale(0.1 -0.1)">
       <use xlink:href="#DejaVuSans-31"/>
       <use xlink:href="#DejaVuSans-30" x="63.623047"/>
       <use xlink:href="#DejaVuSans-30" x="127.246094"/>
      </g>
     </g>
    </g>
    <g id="xtick_10">
     <g id="line2d_21">
      <g>
       <use xlink:href="#m19fa3ead83" x="666.816517" y="261.204373" style="stroke: #000000; stroke-width: 0.8"/>
      </g>
     </g>
     <g id="text_19">
      <!-- 150 -->
      <g transform="translate(657.272767 275.802811) scale(0.1 -0.1)">
       <use xlink:href="#DejaVuSans-31"/>
       <use xlink:href="#DejaVuSans-35" x="63.623047"/>
       <use xlink:href="#DejaVuSans-30" x="127.246094"/>
      </g>
     </g>
    </g>
    <g id="xtick_11">
     <g id="line2d_22">
      <g>
       <use xlink:href="#m19fa3ead83" x="731.637786" y="261.204373" style="stroke: #000000; stroke-width: 0.8"/>
      </g>
     </g>
     <g id="text_20">
      <!-- 200 -->
      <g transform="translate(722.094036 275.802811) scale(0.1 -0.1)">
       <use xlink:href="#DejaVuSans-32"/>
       <use xlink:href="#DejaVuSans-30" x="63.623047"/>
       <use xlink:href="#DejaVuSans-30" x="127.246094"/>
      </g>
     </g>
    </g>
    <g id="xtick_12">
     <g id="line2d_23">
      <g>
       <use xlink:href="#m19fa3ead83" x="796.459055" y="261.204373" style="stroke: #000000; stroke-width: 0.8"/>
      </g>
     </g>
     <g id="text_21">
      <!-- 250 -->
      <g transform="translate(786.915305 275.802811) scale(0.1 -0.1)">
       <use xlink:href="#DejaVuSans-32"/>
       <use xlink:href="#DejaVuSans-35" x="63.623047"/>
       <use xlink:href="#DejaVuSans-30" x="127.246094"/>
      </g>
     </g>
    </g>
   </g>
   <g id="matplotlib.axis_4">
    <g id="ytick_8">
     <g id="line2d_24">
      <g>
       <use xlink:href="#mfe60ccca79" x="456.212216" y="255.445968" style="stroke: #000000; stroke-width: 0.8"/>
      </g>
     </g>
     <g id="text_22">
      <!-- 0.0 -->
      <g transform="translate(433.309091 259.245186) scale(0.1 -0.1)">
       <use xlink:href="#DejaVuSans-30"/>
       <use xlink:href="#DejaVuSans-2e" x="63.623047"/>
       <use xlink:href="#DejaVuSans-30" x="95.410156"/>
      </g>
     </g>
    </g>
    <g id="ytick_9">
     <g id="line2d_25">
      <g>
       <use xlink:href="#mfe60ccca79" x="456.212216" y="226.319552" style="stroke: #000000; stroke-width: 0.8"/>
      </g>
     </g>
     <g id="text_23">
      <!-- 0.1 -->
      <g transform="translate(433.309091 230.118771) scale(0.1 -0.1)">
       <use xlink:href="#DejaVuSans-30"/>
       <use xlink:href="#DejaVuSans-2e" x="63.623047"/>
       <use xlink:href="#DejaVuSans-31" x="95.410156"/>
      </g>
     </g>
    </g>
    <g id="ytick_10">
     <g id="line2d_26">
      <g>
       <use xlink:href="#mfe60ccca79" x="456.212216" y="197.193137" style="stroke: #000000; stroke-width: 0.8"/>
      </g>
     </g>
     <g id="text_24">
      <!-- 0.2 -->
      <g transform="translate(433.309091 200.992355) scale(0.1 -0.1)">
       <use xlink:href="#DejaVuSans-30"/>
       <use xlink:href="#DejaVuSans-2e" x="63.623047"/>
       <use xlink:href="#DejaVuSans-32" x="95.410156"/>
      </g>
     </g>
    </g>
    <g id="ytick_11">
     <g id="line2d_27">
      <g>
       <use xlink:href="#mfe60ccca79" x="456.212216" y="168.066721" style="stroke: #000000; stroke-width: 0.8"/>
      </g>
     </g>
     <g id="text_25">
      <!-- 0.3 -->
      <g transform="translate(433.309091 171.86594) scale(0.1 -0.1)">
       <use xlink:href="#DejaVuSans-30"/>
       <use xlink:href="#DejaVuSans-2e" x="63.623047"/>
       <use xlink:href="#DejaVuSans-33" x="95.410156"/>
      </g>
     </g>
    </g>
    <g id="ytick_12">
     <g id="line2d_28">
      <g>
       <use xlink:href="#mfe60ccca79" x="456.212216" y="138.940306" style="stroke: #000000; stroke-width: 0.8"/>
      </g>
     </g>
     <g id="text_26">
      <!-- 0.4 -->
      <g transform="translate(433.309091 142.739524) scale(0.1 -0.1)">
       <use xlink:href="#DejaVuSans-30"/>
       <use xlink:href="#DejaVuSans-2e" x="63.623047"/>
       <use xlink:href="#DejaVuSans-34" x="95.410156"/>
      </g>
     </g>
    </g>
    <g id="ytick_13">
     <g id="line2d_29">
      <g>
       <use xlink:href="#mfe60ccca79" x="456.212216" y="109.81389" style="stroke: #000000; stroke-width: 0.8"/>
      </g>
     </g>
     <g id="text_27">
      <!-- 0.5 -->
      <g transform="translate(433.309091 113.613109) scale(0.1 -0.1)">
       <use xlink:href="#DejaVuSans-30"/>
       <use xlink:href="#DejaVuSans-2e" x="63.623047"/>
       <use xlink:href="#DejaVuSans-35" x="95.410156"/>
      </g>
     </g>
    </g>
    <g id="ytick_14">
     <g id="line2d_30">
      <g>
       <use xlink:href="#mfe60ccca79" x="456.212216" y="80.687475" style="stroke: #000000; stroke-width: 0.8"/>
      </g>
     </g>
     <g id="text_28">
      <!-- 0.6 -->
      <g transform="translate(433.309091 84.486693) scale(0.1 -0.1)">
       <defs>
        <path id="DejaVuSans-36" d="M 2113 2584 
Q 1688 2584 1439 2293 
Q 1191 2003 1191 1497 
Q 1191 994 1439 701 
Q 1688 409 2113 409 
Q 2538 409 2786 701 
Q 3034 994 3034 1497 
Q 3034 2003 2786 2293 
Q 2538 2584 2113 2584 
z
M 3366 4563 
L 3366 3988 
Q 3128 4100 2886 4159 
Q 2644 4219 2406 4219 
Q 1781 4219 1451 3797 
Q 1122 3375 1075 2522 
Q 1259 2794 1537 2939 
Q 1816 3084 2150 3084 
Q 2853 3084 3261 2657 
Q 3669 2231 3669 1497 
Q 3669 778 3244 343 
Q 2819 -91 2113 -91 
Q 1303 -91 875 529 
Q 447 1150 447 2328 
Q 447 3434 972 4092 
Q 1497 4750 2381 4750 
Q 2619 4750 2861 4703 
Q 3103 4656 3366 4563 
z
" transform="scale(0.015625)"/>
       </defs>
       <use xlink:href="#DejaVuSans-30"/>
       <use xlink:href="#DejaVuSans-2e" x="63.623047"/>
       <use xlink:href="#DejaVuSans-36" x="95.410156"/>
      </g>
     </g>
    </g>
    <g id="ytick_15">
     <g id="line2d_31">
      <g>
       <use xlink:href="#mfe60ccca79" x="456.212216" y="51.561059" style="stroke: #000000; stroke-width: 0.8"/>
      </g>
     </g>
     <g id="text_29">
      <!-- 0.7 -->
      <g transform="translate(433.309091 55.360278) scale(0.1 -0.1)">
       <defs>
        <path id="DejaVuSans-37" d="M 525 4666 
L 3525 4666 
L 3525 4397 
L 1831 0 
L 1172 0 
L 2766 4134 
L 525 4134 
L 525 4666 
z
" transform="scale(0.015625)"/>
       </defs>
       <use xlink:href="#DejaVuSans-30"/>
       <use xlink:href="#DejaVuSans-2e" x="63.623047"/>
       <use xlink:href="#DejaVuSans-37" x="95.410156"/>
      </g>
     </g>
    </g>
    <g id="ytick_16">
     <g id="line2d_32">
      <g>
       <use xlink:href="#mfe60ccca79" x="456.212216" y="22.434644" style="stroke: #000000; stroke-width: 0.8"/>
      </g>
     </g>
     <g id="text_30">
      <!-- 0.8 -->
      <g transform="translate(433.309091 26.233862) scale(0.1 -0.1)">
       <defs>
        <path id="DejaVuSans-38" d="M 2034 2216 
Q 1584 2216 1326 1975 
Q 1069 1734 1069 1313 
Q 1069 891 1326 650 
Q 1584 409 2034 409 
Q 2484 409 2743 651 
Q 3003 894 3003 1313 
Q 3003 1734 2745 1975 
Q 2488 2216 2034 2216 
z
M 1403 2484 
Q 997 2584 770 2862 
Q 544 3141 544 3541 
Q 544 4100 942 4425 
Q 1341 4750 2034 4750 
Q 2731 4750 3128 4425 
Q 3525 4100 3525 3541 
Q 3525 3141 3298 2862 
Q 3072 2584 2669 2484 
Q 3125 2378 3379 2068 
Q 3634 1759 3634 1313 
Q 3634 634 3220 271 
Q 2806 -91 2034 -91 
Q 1263 -91 848 271 
Q 434 634 434 1313 
Q 434 1759 690 2068 
Q 947 2378 1403 2484 
z
M 1172 3481 
Q 1172 3119 1398 2916 
Q 1625 2713 2034 2713 
Q 2441 2713 2670 2916 
Q 2900 3119 2900 3481 
Q 2900 3844 2670 4047 
Q 2441 4250 2034 4250 
Q 1625 4250 1398 4047 
Q 1172 3844 1172 3481 
z
" transform="scale(0.015625)"/>
       </defs>
       <use xlink:href="#DejaVuSans-30"/>
       <use xlink:href="#DejaVuSans-2e" x="63.623047"/>
       <use xlink:href="#DejaVuSans-38" x="95.410156"/>
      </g>
     </g>
    </g>
   </g>
   <g id="line2d_33">
    <path d="M 472.352712 248.59872 
L 473.649137 248.391126 
L 477.538413 245.889956 
L 478.834839 245.290612 
L 481.427689 242.943464 
L 482.724115 242.042774 
L 490.502667 235.56049 
L 491.799092 234.442162 
L 493.095518 233.692145 
L 494.391943 232.774714 
L 495.688368 231.368435 
L 496.984794 230.142961 
L 498.281219 229.151869 
L 499.577645 228.361673 
L 500.87407 226.550249 
L 502.170495 226.546901 
L 503.466921 224.460918 
L 504.763346 223.191918 
L 506.059771 222.612663 
L 507.356197 221.189642 
L 508.652622 220.178459 
L 509.949048 218.457437 
L 511.245473 217.503176 
L 512.541898 216.130379 
L 513.838324 215.169421 
L 515.134749 213.635907 
L 517.7276 211.352372 
L 519.024025 210.317753 
L 520.320451 207.947167 
L 521.616876 206.946028 
L 522.913301 206.423697 
L 524.209727 204.595528 
L 525.506152 202.352179 
L 526.802577 201.836541 
L 528.099003 200.15905 
L 529.395428 198.273965 
L 530.691853 197.246038 
L 531.988279 195.327473 
L 533.284704 193.830786 
L 534.58113 193.077422 
L 535.877555 191.145459 
L 537.17398 190.592994 
L 538.470406 188.292719 
L 541.063256 185.553822 
L 542.359682 184.4221 
L 543.656107 183.457791 
L 544.952533 181.113993 
L 547.545383 178.663045 
L 550.138234 174.87613 
L 551.434659 174.53126 
L 552.731085 173.292392 
L 554.02751 171.491011 
L 555.323936 170.556841 
L 556.620361 169.040071 
L 557.916786 167.841385 
L 559.213212 166.247594 
L 560.509637 164.874797 
L 561.806062 163.297752 
L 563.102488 162.390369 
L 564.398913 160.692788 
L 566.991764 158.670423 
L 568.288189 157.96728 
L 570.88104 154.685961 
L 572.177465 154.314303 
L 574.770316 151.213787 
L 576.066741 150.01175 
L 578.659592 147.272857 
L 579.956018 146.887796 
L 581.252443 145.695811 
L 582.548868 144.13551 
L 583.845294 143.54956 
L 586.438144 140.730296 
L 587.73457 140.596367 
L 589.030995 138.898786 
L 591.623846 136.126404 
L 592.920271 135.429962 
L 594.216697 134.27815 
L 595.513122 133.508047 
L 596.809547 131.887478 
L 598.105973 131.840595 
L 599.402398 130.866243 
L 600.698823 128.874017 
L 601.995249 128.673119 
L 603.291674 127.792515 
L 604.5881 126.309225 
L 605.884525 125.539122 
L 607.18095 124.233285 
L 608.477376 123.094875 
L 611.070226 121.390593 
L 612.366652 120.734332 
L 613.663077 119.518901 
L 614.959503 118.675128 
L 616.255928 117.02443 
L 617.552353 116.900544 
L 618.848779 115.772168 
L 620.145204 115.269923 
L 621.441629 114.252048 
L 622.738055 114.11811 
L 624.03448 113.301133 
L 625.330906 110.45509 
L 626.627331 110.418259 
L 627.923756 109.668234 
L 629.220182 109.263105 
L 630.516607 108.576697 
L 631.813032 107.364626 
L 633.109458 105.864592 
L 635.702309 104.923712 
L 636.998734 103.701588 
L 638.295159 103.979498 
L 639.591585 102.389067 
L 640.88801 101.233904 
L 642.184435 100.28634 
L 643.480861 99.797497 
L 644.777286 99.877843 
L 646.073711 97.76173 
L 648.666562 97.289623 
L 649.962988 95.628864 
L 651.259413 95.709227 
L 652.555838 93.907846 
L 655.148689 93.509401 
L 656.445114 92.170093 
L 659.037965 91.219178 
L 660.334391 90.315137 
L 661.630816 88.868679 
L 662.927241 89.464671 
L 664.223667 88.222461 
L 665.520092 87.998126 
L 666.816517 86.504794 
L 668.112943 86.558369 
L 669.409368 85.553879 
L 670.705794 85.165468 
L 673.298644 83.297128 
L 675.891495 82.85851 
L 677.18792 81.743519 
L 678.484346 81.716731 
L 679.780771 80.668718 
L 681.077196 80.601758 
L 682.373622 79.855092 
L 683.670047 78.673141 
L 684.966473 78.25796 
L 686.262898 77.25347 
L 688.855749 76.469964 
L 690.152174 75.957685 
L 691.448599 75.040259 
L 692.745025 74.628411 
L 694.04145 74.420812 
L 696.634301 73.094906 
L 697.930726 72.040192 
L 699.227152 71.933041 
L 700.523577 71.129449 
L 701.820002 71.052437 
L 703.116428 70.687481 
L 704.412853 71.005563 
L 705.709279 69.110435 
L 707.005704 69.093699 
L 708.302129 68.926273 
L 710.89498 67.389417 
L 712.191405 67.161732 
L 714.784256 66.12042 
L 716.080682 66.100333 
L 717.377107 64.553426 
L 718.673532 64.965256 
L 719.969958 63.980853 
L 721.266383 64.138227 
L 722.562808 63.113651 
L 723.859234 62.819006 
L 725.155659 61.928367 
L 727.74851 61.516519 
L 729.044935 61.580146 
L 730.341361 60.913825 
L 731.637786 60.488592 
L 732.934211 59.494154 
L 734.230637 59.852427 
L 735.527062 59.27317 
L 736.823487 59.052186 
L 738.119913 58.65039 
L 739.416338 57.689423 
L 740.712764 57.458404 
L 743.305614 56.678249 
L 744.60204 55.988492 
L 745.898465 55.683811 
L 747.19489 55.081117 
L 748.491316 54.665919 
L 749.787741 54.535349 
L 751.084167 54.277525 
L 752.380592 53.738458 
L 753.677017 53.403623 
L 754.973443 52.707181 
L 756.269868 52.784193 
L 758.862719 52.027475 
L 760.159144 51.602242 
L 761.455569 51.411396 
L 762.751995 51.344418 
L 765.344846 50.380119 
L 766.641271 50.336595 
L 767.937696 49.643487 
L 769.234122 49.519601 
L 770.530547 48.585439 
L 771.826972 49.181432 
L 773.123398 48.046355 
L 774.419823 47.761761 
L 775.716249 48.227167 
L 777.012674 47.416891 
L 778.309099 46.995008 
L 779.605525 47.041882 
L 780.90195 46.727133 
L 782.198375 46.151227 
L 783.494801 46.161278 
L 784.791226 45.143403 
L 786.087652 45.501659 
L 787.384077 44.99273 
L 788.680502 45.160139 
L 789.976928 44.289587 
L 791.273353 44.135563 
L 793.866204 43.613232 
L 795.162629 43.53957 
L 795.162629 43.53957 
" clip-path="url(#pf78d0a5cae)" style="fill: none; stroke: #1f77b4; stroke-width: 1.5; stroke-linecap: square"/>
   </g>
   <g id="line2d_34">
    <path d="M 472.352712 249.749828 
L 473.649137 245.644917 
L 474.945563 240.202452 
L 476.241988 234.11427 
L 477.538413 229.502011 
L 478.834839 224.151791 
L 480.131264 221.292189 
L 481.427689 217.786871 
L 482.724115 215.75748 
L 484.02054 212.759509 
L 486.613391 208.170313 
L 487.909816 206.348473 
L 489.206242 203.327442 
L 490.502667 200.790697 
L 491.799092 199.176409 
L 493.095518 196.73191 
L 494.391943 194.656395 
L 496.984794 189.58291 
L 498.281219 187.438208 
L 499.577645 184.371055 
L 500.87407 181.949624 
L 502.170495 180.404513 
L 503.466921 178.144507 
L 504.763346 176.322666 
L 506.059771 174.731437 
L 508.652622 169.588765 
L 509.949048 167.490186 
L 511.245473 164.95345 
L 512.541898 163.362221 
L 515.134749 159.072818 
L 516.431174 156.674438 
L 517.7276 154.598923 
L 519.024025 152.177488 
L 520.320451 150.724623 
L 521.616876 148.60299 
L 524.209727 145.282158 
L 525.506152 142.837667 
L 529.395428 137.141527 
L 530.691853 134.351108 
L 531.988279 132.321712 
L 533.284704 130.707428 
L 534.58113 129.415991 
L 535.877555 128.355175 
L 537.17398 126.510271 
L 538.470406 125.311081 
L 539.766831 123.88128 
L 543.656107 120.053107 
L 546.248958 117.516362 
L 547.545383 115.832887 
L 552.731085 111.266755 
L 554.02751 110.574914 
L 555.323936 109.375724 
L 557.916786 107.53082 
L 559.213212 106.193265 
L 561.806062 103.979377 
L 563.102488 103.103061 
L 565.695338 100.958355 
L 566.991764 100.174277 
L 568.288189 98.767522 
L 569.584615 97.706714 
L 570.88104 97.291602 
L 572.177465 96.069357 
L 574.770316 94.016906 
L 576.066741 93.371193 
L 577.363167 92.356495 
L 578.659592 91.526289 
L 579.956018 90.350154 
L 581.252443 89.54302 
L 583.845294 87.698116 
L 585.141719 86.314434 
L 586.438144 85.899322 
L 587.73457 84.561768 
L 589.030995 84.077491 
L 590.327421 83.201158 
L 591.623846 82.140332 
L 592.920271 81.310126 
L 594.216697 80.848905 
L 595.513122 80.110936 
L 596.809547 79.834207 
L 599.402398 77.666446 
L 600.698823 77.251334 
L 601.995249 76.421129 
L 603.291674 75.798487 
L 604.5881 74.599297 
L 605.884525 74.345623 
L 607.18095 73.446234 
L 608.477376 72.938885 
L 609.773801 72.200917 
L 611.070226 71.624386 
L 612.366652 70.724997 
L 614.959503 69.47968 
L 617.552353 68.00376 
L 618.848779 67.427229 
L 620.145204 67.219682 
L 621.441629 66.620078 
L 622.738055 65.536198 
L 624.03448 65.467015 
L 625.330906 64.729064 
L 626.627331 64.636809 
L 627.923756 63.783548 
L 629.220182 63.230072 
L 630.516607 62.538231 
L 631.813032 61.661898 
L 634.405883 61.477423 
L 636.998734 59.309662 
L 639.591585 58.733114 
L 640.88801 58.502511 
L 642.184435 57.626178 
L 643.480861 57.003519 
L 644.777286 56.542298 
L 646.073711 56.265568 
L 647.370137 55.181688 
L 648.666562 55.089433 
L 649.962988 54.351482 
L 651.259413 54.005553 
L 655.148689 52.229831 
L 656.445114 51.976157 
L 657.74154 51.238206 
L 659.037965 50.869221 
L 660.334391 50.338817 
L 661.630816 49.969833 
L 664.223667 48.724516 
L 665.520092 48.586151 
L 666.816517 47.61758 
L 668.112943 47.410033 
L 669.409368 46.69512 
L 670.705794 46.487573 
L 672.002219 45.841859 
L 675.891495 44.504304 
L 677.18792 44.481249 
L 678.484346 43.720226 
L 679.780771 43.697153 
L 681.077196 42.982257 
L 682.373622 42.613273 
L 683.670047 42.082869 
L 686.262898 41.414083 
L 687.559323 40.353275 
L 688.855749 39.845926 
L 690.152174 39.799798 
L 691.448599 39.546124 
L 692.745025 39.084902 
L 694.04145 39.038775 
L 695.337876 38.7851 
L 696.634301 38.254696 
L 697.930726 38.116332 
L 700.523577 37.032451 
L 701.820002 36.940196 
L 703.116428 36.50203 
L 704.412853 36.2253 
L 705.709279 36.133046 
L 708.302129 35.556514 
L 709.598555 35.049165 
L 710.89498 34.380397 
L 713.487831 34.657126 
L 714.784256 33.273444 
L 716.080682 33.319571 
L 717.377107 32.927532 
L 718.673532 32.904477 
L 719.969958 32.535493 
L 721.266383 32.327946 
L 722.562808 31.728342 
L 723.859234 32.304873 
L 725.155659 31.912834 
L 726.452084 31.197938 
L 727.74851 31.128755 
L 730.341361 30.690589 
L 731.637786 30.34466 
L 732.934211 30.459969 
L 736.823487 30.021803 
L 738.119913 29.652836 
L 740.712764 29.214669 
L 742.009189 29.168542 
L 744.60204 28.568955 
L 747.19489 28.176899 
L 748.491316 27.715677 
L 749.787741 27.66955 
L 751.084167 27.069963 
L 753.677017 26.885471 
L 754.973443 26.493432 
L 756.269868 26.608742 
L 757.566293 26.285885 
L 758.862719 25.824646 
L 760.159144 25.732409 
L 761.455569 25.155877 
L 764.04842 25.202005 
L 765.344846 25.086695 
L 767.937696 24.233417 
L 769.234122 24.233417 
L 771.826972 23.726068 
L 773.123398 23.357101 
L 774.419823 23.310973 
L 777.012674 22.573005 
L 778.309099 22.965061 
L 779.605525 22.596077 
L 780.90195 22.480767 
L 782.198375 22.480767 
L 783.494801 22.065656 
L 784.791226 22.065656 
L 786.087652 21.858109 
L 787.384077 21.927291 
L 788.680502 21.673617 
L 791.273353 21.512197 
L 792.569778 21.489125 
L 793.866204 20.774228 
L 795.162629 20.658919 
L 795.162629 20.658919 
" clip-path="url(#pf78d0a5cae)" style="fill: none; stroke: #ff7f0e; stroke-width: 1.5; stroke-linecap: square"/>
   </g>
   <g id="patch_9">
    <path d="M 456.212216 261.204373 
L 456.212216 9.204373 
" style="fill: none; stroke: #000000; stroke-width: 0.8; stroke-linejoin: miter; stroke-linecap: square"/>
   </g>
   <g id="patch_10">
    <path d="M 811.303125 261.204373 
L 811.303125 9.204373 
" style="fill: none; stroke: #000000; stroke-width: 0.8; stroke-linejoin: miter; stroke-linecap: square"/>
   </g>
   <g id="patch_11">
    <path d="M 456.212216 261.204373 
L 811.303125 261.204373 
" style="fill: none; stroke: #000000; stroke-width: 0.8; stroke-linejoin: miter; stroke-linecap: square"/>
   </g>
   <g id="patch_12">
    <path d="M 456.212216 9.204373 
L 811.303125 9.204373 
" style="fill: none; stroke: #000000; stroke-width: 0.8; stroke-linejoin: miter; stroke-linecap: square"/>
   </g>
   <g id="legend_2">
    <g id="patch_13">
     <path d="M 463.212216 47.116873 
L 540.612216 47.116873 
Q 542.612216 47.116873 542.612216 45.116873 
L 542.612216 16.204373 
Q 542.612216 14.204373 540.612216 14.204373 
L 463.212216 14.204373 
Q 461.212216 14.204373 461.212216 16.204373 
L 461.212216 45.116873 
Q 461.212216 47.116873 463.212216 47.116873 
z
" style="fill: #ffffff; opacity: 0.8; stroke: #cccccc; stroke-linejoin: miter"/>
    </g>
    <g id="line2d_35">
     <path d="M 465.212216 22.302811 
L 475.212216 22.302811 
L 485.212216 22.302811 
" style="fill: none; stroke: #1f77b4; stroke-width: 1.5; stroke-linecap: square"/>
    </g>
    <g id="text_31">
     <!-- train_acc -->
     <g transform="translate(493.212216 25.802811) scale(0.1 -0.1)">
      <defs>
       <path id="DejaVuSans-63" d="M 3122 3366 
L 3122 2828 
Q 2878 2963 2633 3030 
Q 2388 3097 2138 3097 
Q 1578 3097 1268 2742 
Q 959 2388 959 1747 
Q 959 1106 1268 751 
Q 1578 397 2138 397 
Q 2388 397 2633 464 
Q 2878 531 3122 666 
L 3122 134 
Q 2881 22 2623 -34 
Q 2366 -91 2075 -91 
Q 1284 -91 818 406 
Q 353 903 353 1747 
Q 353 2603 823 3093 
Q 1294 3584 2113 3584 
Q 2378 3584 2631 3529 
Q 2884 3475 3122 3366 
z
" transform="scale(0.015625)"/>
      </defs>
      <use xlink:href="#DejaVuSans-74"/>
      <use xlink:href="#DejaVuSans-72" x="39.208984"/>
      <use xlink:href="#DejaVuSans-61" x="80.322266"/>
      <use xlink:href="#DejaVuSans-69" x="141.601562"/>
      <use xlink:href="#DejaVuSans-6e" x="169.384766"/>
      <use xlink:href="#DejaVuSans-5f" x="232.763672"/>
      <use xlink:href="#DejaVuSans-61" x="282.763672"/>
      <use xlink:href="#DejaVuSans-63" x="344.042969"/>
      <use xlink:href="#DejaVuSans-63" x="399.023438"/>
     </g>
    </g>
    <g id="line2d_36">
     <path d="M 465.212216 37.259061 
L 475.212216 37.259061 
L 485.212216 37.259061 
" style="fill: none; stroke: #ff7f0e; stroke-width: 1.5; stroke-linecap: square"/>
    </g>
    <g id="text_32">
     <!-- val_acc -->
     <g transform="translate(493.212216 40.759061) scale(0.1 -0.1)">
      <use xlink:href="#DejaVuSans-76"/>
      <use xlink:href="#DejaVuSans-61" x="59.179688"/>
      <use xlink:href="#DejaVuSans-6c" x="120.458984"/>
      <use xlink:href="#DejaVuSans-5f" x="148.242188"/>
      <use xlink:href="#DejaVuSans-61" x="198.242188"/>
      <use xlink:href="#DejaVuSans-63" x="259.521484"/>
      <use xlink:href="#DejaVuSans-63" x="314.501953"/>
     </g>
    </g>
   </g>
  </g>
 </g>
 <defs>
  <clipPath id="pe04abcc7c1">
   <rect x="30.103125" y="9.204373" width="355.090909" height="252"/>
  </clipPath>
  <clipPath id="pf78d0a5cae">
   <rect x="456.212216" y="9.204373" width="355.090909" height="252"/>
  </clipPath>
 </defs>
</svg>
