<?xml version="1.0" encoding="utf-8" standalone="no"?>
<!DOCTYPE svg PUBLIC "-//W3C//DTD SVG 1.1//EN"
  "http://www.w3.org/Graphics/SVG/1.1/DTD/svg11.dtd">
<svg xmlns:xlink="http://www.w3.org/1999/xlink" width="818.503125pt" height="283.078125pt" viewBox="0 0 818.503125 283.078125" xmlns="http://www.w3.org/2000/svg" version="1.1">
 <metadata>
  <rdf:RDF xmlns:dc="http://purl.org/dc/elements/1.1/" xmlns:cc="http://creativecommons.org/ns#" xmlns:rdf="http://www.w3.org/1999/02/22-rdf-syntax-ns#">
   <cc:Work>
    <dc:type rdf:resource="http://purl.org/dc/dcmitype/StillImage"/>
    <dc:date>2023-01-22T12:59:15.663782</dc:date>
    <dc:format>image/svg+xml</dc:format>
    <dc:creator>
     <cc:Agent>
      <dc:title>Matplotlib v3.6.2, https://matplotlib.org/</dc:title>
     </cc:Agent>
    </dc:creator>
   </cc:Work>
  </rdf:RDF>
 </metadata>
 <defs>
  <style type="text/css">*{stroke-linejoin: round; stroke-linecap: butt}</style>
 </defs>
 <g id="figure_1">
  <g id="patch_1">
   <path d="M 0 283.078125 
L 818.503125 283.078125 
L 818.503125 0 
L 0 0 
z
" style="fill: #ffffff"/>
  </g>
  <g id="axes_1">
   <g id="patch_2">
    <path d="M 30.103125 259.2 
L 385.194034 259.2 
L 385.194034 7.2 
L 30.103125 7.2 
z
" style="fill: #ffffff"/>
   </g>
   <g id="matplotlib.axis_1">
    <g id="xtick_1">
     <g id="line2d_1">
      <defs>
       <path id="m3b96c82849" d="M 0 0 
L 0 3.5 
" style="stroke: #000000; stroke-width: 0.8"/>
      </defs>
      <g>
       <use xlink:href="#m3b96c82849" x="46.243621" y="259.2" style="stroke: #000000; stroke-width: 0.8"/>
      </g>
     </g>
     <g id="text_1">
      <!-- 0 -->
      <g transform="translate(43.062371 273.798437) scale(0.1 -0.1)">
       <defs>
        <path id="DejaVuSans-30" d="M 2034 4250 
Q 1547 4250 1301 3770 
Q 1056 3291 1056 2328 
Q 1056 1369 1301 889 
Q 1547 409 2034 409 
Q 2525 409 2770 889 
Q 3016 1369 3016 2328 
Q 3016 3291 2770 3770 
Q 2525 4250 2034 4250 
z
M 2034 4750 
Q 2819 4750 3233 4129 
Q 3647 3509 3647 2328 
Q 3647 1150 3233 529 
Q 2819 -91 2034 -91 
Q 1250 -91 836 529 
Q 422 1150 422 2328 
Q 422 3509 836 4129 
Q 1250 4750 2034 4750 
z
" transform="scale(0.015625)"/>
       </defs>
       <use xlink:href="#DejaVuSans-30"/>
      </g>
     </g>
    </g>
    <g id="xtick_2">
     <g id="line2d_2">
      <g>
       <use xlink:href="#m3b96c82849" x="111.064889" y="259.2" style="stroke: #000000; stroke-width: 0.8"/>
      </g>
     </g>
     <g id="text_2">
      <!-- 50 -->
      <g transform="translate(104.702389 273.798437) scale(0.1 -0.1)">
       <defs>
        <path id="DejaVuSans-35" d="M 691 4666 
L 3169 4666 
L 3169 4134 
L 1269 4134 
L 1269 2991 
Q 1406 3038 1543 3061 
Q 1681 3084 1819 3084 
Q 2600 3084 3056 2656 
Q 3513 2228 3513 1497 
Q 3513 744 3044 326 
Q 2575 -91 1722 -91 
Q 1428 -91 1123 -41 
Q 819 9 494 109 
L 494 744 
Q 775 591 1075 516 
Q 1375 441 1709 441 
Q 2250 441 2565 725 
Q 2881 1009 2881 1497 
Q 2881 1984 2565 2268 
Q 2250 2553 1709 2553 
Q 1456 2553 1204 2497 
Q 953 2441 691 2322 
L 691 4666 
z
" transform="scale(0.015625)"/>
       </defs>
       <use xlink:href="#DejaVuSans-35"/>
       <use xlink:href="#DejaVuSans-30" x="63.623047"/>
      </g>
     </g>
    </g>
    <g id="xtick_3">
     <g id="line2d_3">
      <g>
       <use xlink:href="#m3b96c82849" x="175.886158" y="259.2" style="stroke: #000000; stroke-width: 0.8"/>
      </g>
     </g>
     <g id="text_3">
      <!-- 100 -->
      <g transform="translate(166.342408 273.798437) scale(0.1 -0.1)">
       <defs>
        <path id="DejaVuSans-31" d="M 794 531 
L 1825 531 
L 1825 4091 
L 703 3866 
L 703 4441 
L 1819 4666 
L 2450 4666 
L 2450 531 
L 3481 531 
L 3481 0 
L 794 0 
L 794 531 
z
" transform="scale(0.015625)"/>
       </defs>
       <use xlink:href="#DejaVuSans-31"/>
       <use xlink:href="#DejaVuSans-30" x="63.623047"/>
       <use xlink:href="#DejaVuSans-30" x="127.246094"/>
      </g>
     </g>
    </g>
    <g id="xtick_4">
     <g id="line2d_4">
      <g>
       <use xlink:href="#m3b96c82849" x="240.707427" y="259.2" style="stroke: #000000; stroke-width: 0.8"/>
      </g>
     </g>
     <g id="text_4">
      <!-- 150 -->
      <g transform="translate(231.163677 273.798437) scale(0.1 -0.1)">
       <use xlink:href="#DejaVuSans-31"/>
       <use xlink:href="#DejaVuSans-35" x="63.623047"/>
       <use xlink:href="#DejaVuSans-30" x="127.246094"/>
      </g>
     </g>
    </g>
    <g id="xtick_5">
     <g id="line2d_5">
      <g>
       <use xlink:href="#m3b96c82849" x="305.528695" y="259.2" style="stroke: #000000; stroke-width: 0.8"/>
      </g>
     </g>
     <g id="text_5">
      <!-- 200 -->
      <g transform="translate(295.984945 273.798437) scale(0.1 -0.1)">
       <defs>
        <path id="DejaVuSans-32" d="M 1228 531 
L 3431 531 
L 3431 0 
L 469 0 
L 469 531 
Q 828 903 1448 1529 
Q 2069 2156 2228 2338 
Q 2531 2678 2651 2914 
Q 2772 3150 2772 3378 
Q 2772 3750 2511 3984 
Q 2250 4219 1831 4219 
Q 1534 4219 1204 4116 
Q 875 4013 500 3803 
L 500 4441 
Q 881 4594 1212 4672 
Q 1544 4750 1819 4750 
Q 2544 4750 2975 4387 
Q 3406 4025 3406 3419 
Q 3406 3131 3298 2873 
Q 3191 2616 2906 2266 
Q 2828 2175 2409 1742 
Q 1991 1309 1228 531 
z
" transform="scale(0.015625)"/>
       </defs>
       <use xlink:href="#DejaVuSans-32"/>
       <use xlink:href="#DejaVuSans-30" x="63.623047"/>
       <use xlink:href="#DejaVuSans-30" x="127.246094"/>
      </g>
     </g>
    </g>
    <g id="xtick_6">
     <g id="line2d_6">
      <g>
       <use xlink:href="#m3b96c82849" x="370.349964" y="259.2" style="stroke: #000000; stroke-width: 0.8"/>
      </g>
     </g>
     <g id="text_6">
      <!-- 250 -->
      <g transform="translate(360.806214 273.798437) scale(0.1 -0.1)">
       <use xlink:href="#DejaVuSans-32"/>
       <use xlink:href="#DejaVuSans-35" x="63.623047"/>
       <use xlink:href="#DejaVuSans-30" x="127.246094"/>
      </g>
     </g>
    </g>
   </g>
   <g id="matplotlib.axis_2">
    <g id="ytick_1">
     <g id="line2d_7">
      <defs>
       <path id="m15d29b9de2" d="M 0 0 
L -3.5 0 
" style="stroke: #000000; stroke-width: 0.8"/>
      </defs>
      <g>
       <use xlink:href="#m15d29b9de2" x="30.103125" y="231.239617" style="stroke: #000000; stroke-width: 0.8"/>
      </g>
     </g>
     <g id="text_7">
      <!-- 2.2 -->
      <g transform="translate(7.2 235.038836) scale(0.1 -0.1)">
       <defs>
        <path id="DejaVuSans-2e" d="M 684 794 
L 1344 794 
L 1344 0 
L 684 0 
L 684 794 
z
" transform="scale(0.015625)"/>
       </defs>
       <use xlink:href="#DejaVuSans-32"/>
       <use xlink:href="#DejaVuSans-2e" x="63.623047"/>
       <use xlink:href="#DejaVuSans-32" x="95.410156"/>
      </g>
     </g>
    </g>
    <g id="ytick_2">
     <g id="line2d_8">
      <g>
       <use xlink:href="#m15d29b9de2" x="30.103125" y="199.079457" style="stroke: #000000; stroke-width: 0.8"/>
      </g>
     </g>
     <g id="text_8">
      <!-- 2.4 -->
      <g transform="translate(7.2 202.878676) scale(0.1 -0.1)">
       <defs>
        <path id="DejaVuSans-34" d="M 2419 4116 
L 825 1625 
L 2419 1625 
L 2419 4116 
z
M 2253 4666 
L 3047 4666 
L 3047 1625 
L 3713 1625 
L 3713 1100 
L 3047 1100 
L 3047 0 
L 2419 0 
L 2419 1100 
L 313 1100 
L 313 1709 
L 2253 4666 
z
" transform="scale(0.015625)"/>
       </defs>
       <use xlink:href="#DejaVuSans-32"/>
       <use xlink:href="#DejaVuSans-2e" x="63.623047"/>
       <use xlink:href="#DejaVuSans-34" x="95.410156"/>
      </g>
     </g>
    </g>
    <g id="ytick_3">
     <g id="line2d_9">
      <g>
       <use xlink:href="#m15d29b9de2" x="30.103125" y="166.919297" style="stroke: #000000; stroke-width: 0.8"/>
      </g>
     </g>
     <g id="text_9">
      <!-- 2.6 -->
      <g transform="translate(7.2 170.718516) scale(0.1 -0.1)">
       <defs>
        <path id="DejaVuSans-36" d="M 2113 2584 
Q 1688 2584 1439 2293 
Q 1191 2003 1191 1497 
Q 1191 994 1439 701 
Q 1688 409 2113 409 
Q 2538 409 2786 701 
Q 3034 994 3034 1497 
Q 3034 2003 2786 2293 
Q 2538 2584 2113 2584 
z
M 3366 4563 
L 3366 3988 
Q 3128 4100 2886 4159 
Q 2644 4219 2406 4219 
Q 1781 4219 1451 3797 
Q 1122 3375 1075 2522 
Q 1259 2794 1537 2939 
Q 1816 3084 2150 3084 
Q 2853 3084 3261 2657 
Q 3669 2231 3669 1497 
Q 3669 778 3244 343 
Q 2819 -91 2113 -91 
Q 1303 -91 875 529 
Q 447 1150 447 2328 
Q 447 3434 972 4092 
Q 1497 4750 2381 4750 
Q 2619 4750 2861 4703 
Q 3103 4656 3366 4563 
z
" transform="scale(0.015625)"/>
       </defs>
       <use xlink:href="#DejaVuSans-32"/>
       <use xlink:href="#DejaVuSans-2e" x="63.623047"/>
       <use xlink:href="#DejaVuSans-36" x="95.410156"/>
      </g>
     </g>
    </g>
    <g id="ytick_4">
     <g id="line2d_10">
      <g>
       <use xlink:href="#m15d29b9de2" x="30.103125" y="134.759137" style="stroke: #000000; stroke-width: 0.8"/>
      </g>
     </g>
     <g id="text_10">
      <!-- 2.8 -->
      <g transform="translate(7.2 138.558356) scale(0.1 -0.1)">
       <defs>
        <path id="DejaVuSans-38" d="M 2034 2216 
Q 1584 2216 1326 1975 
Q 1069 1734 1069 1313 
Q 1069 891 1326 650 
Q 1584 409 2034 409 
Q 2484 409 2743 651 
Q 3003 894 3003 1313 
Q 3003 1734 2745 1975 
Q 2488 2216 2034 2216 
z
M 1403 2484 
Q 997 2584 770 2862 
Q 544 3141 544 3541 
Q 544 4100 942 4425 
Q 1341 4750 2034 4750 
Q 2731 4750 3128 4425 
Q 3525 4100 3525 3541 
Q 3525 3141 3298 2862 
Q 3072 2584 2669 2484 
Q 3125 2378 3379 2068 
Q 3634 1759 3634 1313 
Q 3634 634 3220 271 
Q 2806 -91 2034 -91 
Q 1263 -91 848 271 
Q 434 634 434 1313 
Q 434 1759 690 2068 
Q 947 2378 1403 2484 
z
M 1172 3481 
Q 1172 3119 1398 2916 
Q 1625 2713 2034 2713 
Q 2441 2713 2670 2916 
Q 2900 3119 2900 3481 
Q 2900 3844 2670 4047 
Q 2441 4250 2034 4250 
Q 1625 4250 1398 4047 
Q 1172 3844 1172 3481 
z
" transform="scale(0.015625)"/>
       </defs>
       <use xlink:href="#DejaVuSans-32"/>
       <use xlink:href="#DejaVuSans-2e" x="63.623047"/>
       <use xlink:href="#DejaVuSans-38" x="95.410156"/>
      </g>
     </g>
    </g>
    <g id="ytick_5">
     <g id="line2d_11">
      <g>
       <use xlink:href="#m15d29b9de2" x="30.103125" y="102.598977" style="stroke: #000000; stroke-width: 0.8"/>
      </g>
     </g>
     <g id="text_11">
      <!-- 3.0 -->
      <g transform="translate(7.2 106.398196) scale(0.1 -0.1)">
       <defs>
        <path id="DejaVuSans-33" d="M 2597 2516 
Q 3050 2419 3304 2112 
Q 3559 1806 3559 1356 
Q 3559 666 3084 287 
Q 2609 -91 1734 -91 
Q 1441 -91 1130 -33 
Q 819 25 488 141 
L 488 750 
Q 750 597 1062 519 
Q 1375 441 1716 441 
Q 2309 441 2620 675 
Q 2931 909 2931 1356 
Q 2931 1769 2642 2001 
Q 2353 2234 1838 2234 
L 1294 2234 
L 1294 2753 
L 1863 2753 
Q 2328 2753 2575 2939 
Q 2822 3125 2822 3475 
Q 2822 3834 2567 4026 
Q 2313 4219 1838 4219 
Q 1578 4219 1281 4162 
Q 984 4106 628 3988 
L 628 4550 
Q 988 4650 1302 4700 
Q 1616 4750 1894 4750 
Q 2613 4750 3031 4423 
Q 3450 4097 3450 3541 
Q 3450 3153 3228 2886 
Q 3006 2619 2597 2516 
z
" transform="scale(0.015625)"/>
       </defs>
       <use xlink:href="#DejaVuSans-33"/>
       <use xlink:href="#DejaVuSans-2e" x="63.623047"/>
       <use xlink:href="#DejaVuSans-30" x="95.410156"/>
      </g>
     </g>
    </g>
    <g id="ytick_6">
     <g id="line2d_12">
      <g>
       <use xlink:href="#m15d29b9de2" x="30.103125" y="70.438817" style="stroke: #000000; stroke-width: 0.8"/>
      </g>
     </g>
     <g id="text_12">
      <!-- 3.2 -->
      <g transform="translate(7.2 74.238036) scale(0.1 -0.1)">
       <use xlink:href="#DejaVuSans-33"/>
       <use xlink:href="#DejaVuSans-2e" x="63.623047"/>
       <use xlink:href="#DejaVuSans-32" x="95.410156"/>
      </g>
     </g>
    </g>
    <g id="ytick_7">
     <g id="line2d_13">
      <g>
       <use xlink:href="#m15d29b9de2" x="30.103125" y="38.278657" style="stroke: #000000; stroke-width: 0.8"/>
      </g>
     </g>
     <g id="text_13">
      <!-- 3.4 -->
      <g transform="translate(7.2 42.077876) scale(0.1 -0.1)">
       <use xlink:href="#DejaVuSans-33"/>
       <use xlink:href="#DejaVuSans-2e" x="63.623047"/>
       <use xlink:href="#DejaVuSans-34" x="95.410156"/>
      </g>
     </g>
    </g>
   </g>
   <g id="line2d_14">
    <path d="M 46.243621 18.654545 
L 47.540046 92.958146 
L 48.836472 110.731672 
L 51.429322 125.8263 
L 54.022173 133.385421 
L 55.318598 136.603888 
L 56.615024 138.595312 
L 57.911449 142.580229 
L 59.207875 144.375747 
L 61.800725 151.159331 
L 63.097151 151.257208 
L 64.393576 152.393926 
L 65.690001 155.281575 
L 66.986427 156.093917 
L 68.282852 158.302793 
L 70.875703 158.06414 
L 72.172128 159.870545 
L 73.468554 160.698413 
L 74.764979 161.34203 
L 76.061404 160.863036 
L 77.35783 160.89823 
L 78.654255 161.746303 
L 79.950681 162.410891 
L 81.247106 163.680488 
L 82.543531 164.129003 
L 83.839957 163.630151 
L 85.136382 165.330705 
L 86.432807 165.234477 
L 87.729233 165.971791 
L 89.025658 164.958176 
L 90.322083 165.802913 
L 91.618509 166.268297 
L 92.914934 165.273275 
L 94.21136 166.446376 
L 95.507785 166.76945 
L 96.80421 166.272245 
L 98.100636 168.012978 
L 99.397061 166.59252 
L 100.693486 169.47576 
L 101.989912 166.940015 
L 103.286337 165.824075 
L 104.582763 168.577963 
L 105.879188 167.598545 
L 107.175613 168.822444 
L 108.472039 169.104803 
L 109.768464 169.577816 
L 111.064889 169.317578 
L 112.361315 169.527631 
L 113.65774 168.747455 
L 114.954166 170.159555 
L 116.250591 171.013953 
L 117.547016 170.819043 
L 118.843442 169.441141 
L 120.139867 169.866615 
L 121.436292 169.610595 
L 122.732718 170.20671 
L 124.029143 169.595413 
L 125.325568 169.917719 
L 126.621994 168.716325 
L 127.918419 171.08116 
L 129.214845 169.788751 
L 130.51127 171.287724 
L 131.807695 171.191419 
L 133.104121 171.993525 
L 134.400546 170.79259 
L 135.696971 172.214965 
L 136.993397 172.130046 
L 138.289822 168.035712 
L 139.586248 172.160371 
L 142.179098 169.731244 
L 143.475524 173.018029 
L 144.771949 174.272291 
L 146.068374 171.358074 
L 147.3648 171.987736 
L 149.957651 170.796692 
L 151.254076 171.98118 
L 152.550501 172.768986 
L 153.846927 171.46151 
L 155.143352 174.368174 
L 156.439777 172.809355 
L 157.736203 172.223591 
L 159.032628 173.794141 
L 160.329054 173.682233 
L 162.921904 173.114333 
L 164.21833 170.539368 
L 165.514755 173.943659 
L 166.81118 174.50182 
L 168.107606 171.149401 
L 169.404031 175.110664 
L 170.700456 173.277844 
L 171.996882 174.25849 
L 173.293307 172.510933 
L 174.589733 173.275736 
L 175.886158 175.319376 
L 177.182583 173.28509 
L 181.071859 173.928554 
L 182.368285 175.285869 
L 183.66471 172.322234 
L 184.961136 174.863193 
L 186.257561 173.280528 
L 187.553986 173.481342 
L 188.850412 176.069495 
L 190.146837 175.248566 
L 191.443262 175.350161 
L 192.739688 173.312349 
L 194.036113 172.788806 
L 195.332539 173.896618 
L 196.628964 175.557953 
L 199.221815 172.087951 
L 200.51824 173.505572 
L 201.814665 173.402519 
L 203.111091 174.299588 
L 204.407516 173.536127 
L 205.703941 174.488019 
L 207.000367 175.046448 
L 209.593218 172.394003 
L 210.889643 174.27624 
L 212.186068 173.667128 
L 213.482494 171.01242 
L 214.778919 175.443054 
L 216.075344 175.618642 
L 217.37177 173.626451 
L 218.668195 177.044811 
L 219.964621 174.778505 
L 221.261046 175.956782 
L 222.557471 175.490631 
L 223.853897 178.392887 
L 226.446747 173.389024 
L 227.743173 175.537365 
L 229.039598 175.050052 
L 230.336024 175.858982 
L 232.928874 175.701643 
L 234.2253 178.009355 
L 235.521725 174.012782 
L 236.81815 174.393822 
L 238.114576 176.808113 
L 239.411001 176.347292 
L 240.707427 175.155098 
L 242.003852 174.147386 
L 243.300277 177.600634 
L 244.596703 176.398051 
L 245.893128 178.368044 
L 247.189553 176.732588 
L 248.485979 176.654723 
L 249.782404 176.132484 
L 251.078829 178.133493 
L 252.375255 177.377584 
L 253.67168 177.079047 
L 254.968106 178.372759 
L 256.264531 178.109838 
L 257.560956 178.480451 
L 258.857382 176.205671 
L 260.153807 177.2868 
L 261.450232 175.152721 
L 262.746658 178.887714 
L 264.043083 173.641556 
L 265.339509 177.854738 
L 266.635934 176.861211 
L 267.932359 176.358716 
L 269.228785 178.210513 
L 270.52521 177.492713 
L 271.821635 176.476682 
L 273.118061 176.654608 
L 274.414486 177.535038 
L 275.710912 176.843882 
L 277.007337 178.333962 
L 278.303762 177.621222 
L 279.600188 180.606632 
L 280.896613 177.849792 
L 282.193038 174.033446 
L 284.785889 180.016152 
L 286.082314 178.608959 
L 287.37874 179.219912 
L 288.675165 177.975157 
L 289.971591 179.383653 
L 291.268016 178.625713 
L 292.564441 179.324804 
L 293.860867 177.861524 
L 295.157292 175.685349 
L 296.453717 177.143071 
L 297.750143 178.969067 
L 299.046568 178.141084 
L 300.342994 177.464611 
L 301.639419 178.753225 
L 302.935844 178.182488 
L 304.23227 175.017963 
L 305.528695 180.105249 
L 306.82512 178.790834 
L 308.121546 176.17665 
L 309.417971 177.598487 
L 310.714397 179.354286 
L 312.010822 177.507051 
L 313.307247 177.831773 
L 314.603673 180.32182 
L 315.900098 181.184653 
L 317.196523 180.274204 
L 318.492949 178.325489 
L 319.789374 179.56825 
L 321.085799 178.54574 
L 322.382225 176.706134 
L 323.67865 179.473287 
L 324.975076 179.151556 
L 326.271501 180.615718 
L 327.567926 176.793736 
L 328.864352 177.695789 
L 330.160777 179.332089 
L 331.457202 178.483709 
L 332.753628 179.148795 
L 334.050053 177.496087 
L 335.346479 180.3089 
L 336.642904 179.714778 
L 337.939329 178.855242 
L 339.235755 179.41647 
L 340.53218 179.130815 
L 341.828605 175.22794 
L 343.125031 178.824457 
L 344.421456 178.343699 
L 345.717882 178.270474 
L 347.014307 178.609879 
L 348.310732 179.860577 
L 349.607158 178.48693 
L 350.903583 173.635307 
L 352.200008 181.25784 
L 353.496434 179.818673 
L 354.792859 178.833428 
L 356.089285 179.980766 
L 357.38571 178.219715 
L 358.682135 176.888393 
L 359.978561 180.173567 
L 362.571411 172.361492 
L 363.867837 180.311354 
L 365.164262 179.795402 
L 366.460687 176.624666 
L 367.757113 180.794181 
L 369.053538 179.45822 
L 369.053538 179.45822 
" clip-path="url(#p89f06ed0bd)" style="fill: none; stroke: #1f77b4; stroke-width: 1.5; stroke-linecap: square"/>
   </g>
   <g id="line2d_15">
    <path d="M 46.243621 129.404989 
L 47.540046 176.311024 
L 50.132897 196.520579 
L 51.429322 209.21694 
L 52.725748 207.002467 
L 54.022173 198.68782 
L 55.318598 221.422155 
L 56.615024 206.637682 
L 57.911449 205.519327 
L 59.207875 211.029633 
L 60.5043 219.326069 
L 61.800725 212.489042 
L 63.097151 226.010512 
L 64.393576 228.865727 
L 65.690001 218.397985 
L 66.986427 233.278764 
L 68.282852 231.413242 
L 69.579278 223.474881 
L 70.875703 227.151984 
L 72.172128 227.551465 
L 73.468554 236.801211 
L 76.061404 243.129993 
L 77.35783 233.666973 
L 78.654255 221.467586 
L 79.950681 237.132144 
L 81.247106 222.325511 
L 82.543531 221.71153 
L 83.839957 234.128293 
L 85.136382 229.333142 
L 86.432807 227.812163 
L 87.729233 238.681954 
L 89.025658 215.16495 
L 90.322083 226.222444 
L 91.618509 235.368563 
L 92.914934 230.112475 
L 94.21136 234.547671 
L 95.507785 241.754736 
L 96.80421 241.107362 
L 98.100636 226.16808 
L 99.397061 214.845366 
L 100.693486 235.526745 
L 101.989912 231.380999 
L 103.286337 230.349288 
L 104.582763 224.231595 
L 105.879188 225.441884 
L 107.175613 233.477699 
L 108.472039 227.140214 
L 109.768464 223.15269 
L 111.064889 228.907247 
L 112.361315 231.792518 
L 113.65774 226.532942 
L 114.954166 228.974491 
L 116.250591 228.076886 
L 117.547016 241.723031 
L 118.843442 226.760133 
L 120.139867 218.100598 
L 122.732718 235.968167 
L 124.029143 228.137191 
L 125.325568 218.4387 
L 126.621994 228.72978 
L 127.918419 237.511689 
L 129.214845 224.875556 
L 130.51127 223.998155 
L 131.807695 216.840278 
L 133.104121 210.806698 
L 134.400546 247.745455 
L 135.696971 231.304055 
L 136.993397 220.563961 
L 138.289822 229.377998 
L 139.586248 234.123348 
L 140.882673 240.423108 
L 142.179098 231.558312 
L 143.475524 237.60071 
L 144.771949 223.615351 
L 146.068374 228.717321 
L 147.3648 226.883389 
L 148.661225 224.41899 
L 149.957651 213.426212 
L 151.254076 230.865815 
L 152.550501 215.13796 
L 153.846927 217.108222 
L 155.143352 228.027622 
L 156.439777 229.685544 
L 157.736203 220.517074 
L 159.032628 217.064823 
L 160.329054 216.767321 
L 161.625479 230.031275 
L 162.921904 215.876655 
L 164.21833 223.727375 
L 165.514755 228.719928 
L 166.81118 198.727806 
L 168.107606 229.637775 
L 169.404031 221.91242 
L 170.700456 221.613155 
L 171.996882 228.361161 
L 173.293307 232.567979 
L 174.589733 232.276918 
L 175.886158 232.403471 
L 177.182583 237.736656 
L 178.479009 230.205176 
L 179.775434 233.865564 
L 181.071859 226.966582 
L 182.368285 233.198676 
L 183.66471 233.705963 
L 184.961136 226.526156 
L 186.257561 217.515332 
L 187.553986 225.776727 
L 188.850412 227.055564 
L 190.146837 226.537811 
L 191.443262 225.229914 
L 192.739688 205.840023 
L 194.036113 215.605951 
L 195.332539 228.878953 
L 196.628964 214.655286 
L 197.925389 195.286482 
L 199.221815 220.925833 
L 200.51824 226.297317 
L 201.814665 244.58921 
L 203.111091 228.441249 
L 204.407516 225.389783 
L 205.703941 219.965353 
L 207.000367 206.158918 
L 208.296792 216.109941 
L 209.593218 216.556233 
L 210.889643 218.31161 
L 212.186068 219.011162 
L 213.482494 221.478359 
L 214.778919 219.33665 
L 216.075344 226.159224 
L 217.37177 228.581451 
L 218.668195 222.572254 
L 219.964621 221.530997 
L 221.261046 216.66216 
L 222.557471 220.061122 
L 223.853897 206.992345 
L 225.150322 216.996658 
L 226.446747 200.690285 
L 227.743173 228.286709 
L 229.039598 218.784815 
L 230.336024 231.744289 
L 231.632449 209.710848 
L 232.928874 209.29722 
L 234.2253 210.257623 
L 235.521725 207.186872 
L 236.81815 201.75719 
L 239.411001 218.151166 
L 240.707427 223.898668 
L 242.003852 197.445519 
L 243.300277 234.867064 
L 244.596703 217.573759 
L 245.893128 208.26225 
L 247.189553 202.540855 
L 248.485979 221.011556 
L 249.782404 214.957312 
L 251.078829 232.328329 
L 252.375255 222.445394 
L 253.67168 227.807447 
L 254.968106 207.785288 
L 256.264531 222.871328 
L 257.560956 197.318352 
L 258.857382 199.579636 
L 260.153807 214.358359 
L 261.450232 223.70257 
L 262.746658 214.076844 
L 264.043083 202.062782 
L 265.339509 207.886845 
L 266.635934 204.377854 
L 267.932359 194.052576 
L 269.228785 224.343771 
L 270.52521 233.190587 
L 271.821635 212.597576 
L 273.118061 228.947655 
L 275.710912 208.190213 
L 277.007337 183.153112 
L 278.303762 239.854135 
L 279.600188 207.6886 
L 280.896613 223.562867 
L 282.193038 193.016801 
L 283.489464 212.131847 
L 284.785889 236.415571 
L 286.082314 225.458216 
L 287.37874 233.137795 
L 288.675165 205.467877 
L 289.971591 213.118972 
L 291.268016 213.211404 
L 292.564441 213.022897 
L 293.860867 217.091391 
L 295.157292 204.238304 
L 296.453717 208.50236 
L 297.750143 205.531863 
L 299.046568 223.879423 
L 300.342994 223.268163 
L 301.639419 212.666508 
L 302.935844 219.776731 
L 304.23227 204.027177 
L 305.528695 208.433275 
L 306.82512 227.442394 
L 308.121546 223.849903 
L 309.417971 215.953101 
L 310.714397 220.742578 
L 312.010822 179.665513 
L 313.307247 227.502354 
L 314.603673 195.568687 
L 315.900098 216.113813 
L 317.196523 210.51855 
L 318.492949 216.817927 
L 321.085799 224.611677 
L 322.382225 215.156516 
L 323.67865 198.260467 
L 324.975076 211.465381 
L 326.271501 210.713767 
L 327.567926 202.951799 
L 328.864352 193.780646 
L 330.160777 220.860313 
L 331.457202 209.884595 
L 332.753628 202.11657 
L 334.050053 210.760808 
L 335.346479 221.814544 
L 336.642904 222.138384 
L 337.939329 229.829465 
L 339.235755 193.428129 
L 340.53218 209.149044 
L 341.828605 192.038265 
L 343.125031 208.300128 
L 344.421456 204.51288 
L 345.717882 204.047381 
L 347.014307 220.360924 
L 348.310732 214.866988 
L 349.607158 207.126988 
L 350.903583 201.318145 
L 352.200008 210.126737 
L 353.496434 205.53539 
L 354.792859 225.42398 
L 356.089285 222.369983 
L 357.38571 217.686549 
L 358.682135 217.052325 
L 359.978561 233.371465 
L 361.274986 178.01384 
L 362.571411 237.157562 
L 365.164262 187.599618 
L 366.460687 209.625929 
L 367.757113 220.61959 
L 369.053538 223.773955 
L 369.053538 223.773955 
" clip-path="url(#p89f06ed0bd)" style="fill: none; stroke: #ff7f0e; stroke-width: 1.5; stroke-linecap: square"/>
   </g>
   <g id="patch_3">
    <path d="M 30.103125 259.2 
L 30.103125 7.2 
" style="fill: none; stroke: #000000; stroke-width: 0.8; stroke-linejoin: miter; stroke-linecap: square"/>
   </g>
   <g id="patch_4">
    <path d="M 385.194034 259.2 
L 385.194034 7.2 
" style="fill: none; stroke: #000000; stroke-width: 0.8; stroke-linejoin: miter; stroke-linecap: square"/>
   </g>
   <g id="patch_5">
    <path d="M 30.103125 259.2 
L 385.194034 259.2 
" style="fill: none; stroke: #000000; stroke-width: 0.8; stroke-linejoin: miter; stroke-linecap: square"/>
   </g>
   <g id="patch_6">
    <path d="M 30.103125 7.2 
L 385.194034 7.2 
" style="fill: none; stroke: #000000; stroke-width: 0.8; stroke-linejoin: miter; stroke-linecap: square"/>
   </g>
   <g id="legend_1">
    <g id="patch_7">
     <path d="M 298.603409 45.1125 
L 378.194034 45.1125 
Q 380.194034 45.1125 380.194034 43.1125 
L 380.194034 14.2 
Q 380.194034 12.2 378.194034 12.2 
L 298.603409 12.2 
Q 296.603409 12.2 296.603409 14.2 
L 296.603409 43.1125 
Q 296.603409 45.1125 298.603409 45.1125 
z
" style="fill: #ffffff; opacity: 0.8; stroke: #cccccc; stroke-linejoin: miter"/>
    </g>
    <g id="line2d_16">
     <path d="M 300.603409 20.298437 
L 310.603409 20.298437 
L 320.603409 20.298437 
" style="fill: none; stroke: #1f77b4; stroke-width: 1.5; stroke-linecap: square"/>
    </g>
    <g id="text_14">
     <!-- train_loss -->
     <g transform="translate(328.603409 23.798437) scale(0.1 -0.1)">
      <defs>
       <path id="DejaVuSans-74" d="M 1172 4494 
L 1172 3500 
L 2356 3500 
L 2356 3053 
L 1172 3053 
L 1172 1153 
Q 1172 725 1289 603 
Q 1406 481 1766 481 
L 2356 481 
L 2356 0 
L 1766 0 
Q 1100 0 847 248 
Q 594 497 594 1153 
L 594 3053 
L 172 3053 
L 172 3500 
L 594 3500 
L 594 4494 
L 1172 4494 
z
" transform="scale(0.015625)"/>
       <path id="DejaVuSans-72" d="M 2631 2963 
Q 2534 3019 2420 3045 
Q 2306 3072 2169 3072 
Q 1681 3072 1420 2755 
Q 1159 2438 1159 1844 
L 1159 0 
L 581 0 
L 581 3500 
L 1159 3500 
L 1159 2956 
Q 1341 3275 1631 3429 
Q 1922 3584 2338 3584 
Q 2397 3584 2469 3576 
Q 2541 3569 2628 3553 
L 2631 2963 
z
" transform="scale(0.015625)"/>
       <path id="DejaVuSans-61" d="M 2194 1759 
Q 1497 1759 1228 1600 
Q 959 1441 959 1056 
Q 959 750 1161 570 
Q 1363 391 1709 391 
Q 2188 391 2477 730 
Q 2766 1069 2766 1631 
L 2766 1759 
L 2194 1759 
z
M 3341 1997 
L 3341 0 
L 2766 0 
L 2766 531 
Q 2569 213 2275 61 
Q 1981 -91 1556 -91 
Q 1019 -91 701 211 
Q 384 513 384 1019 
Q 384 1609 779 1909 
Q 1175 2209 1959 2209 
L 2766 2209 
L 2766 2266 
Q 2766 2663 2505 2880 
Q 2244 3097 1772 3097 
Q 1472 3097 1187 3025 
Q 903 2953 641 2809 
L 641 3341 
Q 956 3463 1253 3523 
Q 1550 3584 1831 3584 
Q 2591 3584 2966 3190 
Q 3341 2797 3341 1997 
z
" transform="scale(0.015625)"/>
       <path id="DejaVuSans-69" d="M 603 3500 
L 1178 3500 
L 1178 0 
L 603 0 
L 603 3500 
z
M 603 4863 
L 1178 4863 
L 1178 4134 
L 603 4134 
L 603 4863 
z
" transform="scale(0.015625)"/>
       <path id="DejaVuSans-6e" d="M 3513 2113 
L 3513 0 
L 2938 0 
L 2938 2094 
Q 2938 2591 2744 2837 
Q 2550 3084 2163 3084 
Q 1697 3084 1428 2787 
Q 1159 2491 1159 1978 
L 1159 0 
L 581 0 
L 581 3500 
L 1159 3500 
L 1159 2956 
Q 1366 3272 1645 3428 
Q 1925 3584 2291 3584 
Q 2894 3584 3203 3211 
Q 3513 2838 3513 2113 
z
" transform="scale(0.015625)"/>
       <path id="DejaVuSans-5f" d="M 3263 -1063 
L 3263 -1509 
L -63 -1509 
L -63 -1063 
L 3263 -1063 
z
" transform="scale(0.015625)"/>
       <path id="DejaVuSans-6c" d="M 603 4863 
L 1178 4863 
L 1178 0 
L 603 0 
L 603 4863 
z
" transform="scale(0.015625)"/>
       <path id="DejaVuSans-6f" d="M 1959 3097 
Q 1497 3097 1228 2736 
Q 959 2375 959 1747 
Q 959 1119 1226 758 
Q 1494 397 1959 397 
Q 2419 397 2687 759 
Q 2956 1122 2956 1747 
Q 2956 2369 2687 2733 
Q 2419 3097 1959 3097 
z
M 1959 3584 
Q 2709 3584 3137 3096 
Q 3566 2609 3566 1747 
Q 3566 888 3137 398 
Q 2709 -91 1959 -91 
Q 1206 -91 779 398 
Q 353 888 353 1747 
Q 353 2609 779 3096 
Q 1206 3584 1959 3584 
z
" transform="scale(0.015625)"/>
       <path id="DejaVuSans-73" d="M 2834 3397 
L 2834 2853 
Q 2591 2978 2328 3040 
Q 2066 3103 1784 3103 
Q 1356 3103 1142 2972 
Q 928 2841 928 2578 
Q 928 2378 1081 2264 
Q 1234 2150 1697 2047 
L 1894 2003 
Q 2506 1872 2764 1633 
Q 3022 1394 3022 966 
Q 3022 478 2636 193 
Q 2250 -91 1575 -91 
Q 1294 -91 989 -36 
Q 684 19 347 128 
L 347 722 
Q 666 556 975 473 
Q 1284 391 1588 391 
Q 1994 391 2212 530 
Q 2431 669 2431 922 
Q 2431 1156 2273 1281 
Q 2116 1406 1581 1522 
L 1381 1569 
Q 847 1681 609 1914 
Q 372 2147 372 2553 
Q 372 3047 722 3315 
Q 1072 3584 1716 3584 
Q 2034 3584 2315 3537 
Q 2597 3491 2834 3397 
z
" transform="scale(0.015625)"/>
      </defs>
      <use xlink:href="#DejaVuSans-74"/>
      <use xlink:href="#DejaVuSans-72" x="39.208984"/>
      <use xlink:href="#DejaVuSans-61" x="80.322266"/>
      <use xlink:href="#DejaVuSans-69" x="141.601562"/>
      <use xlink:href="#DejaVuSans-6e" x="169.384766"/>
      <use xlink:href="#DejaVuSans-5f" x="232.763672"/>
      <use xlink:href="#DejaVuSans-6c" x="282.763672"/>
      <use xlink:href="#DejaVuSans-6f" x="310.546875"/>
      <use xlink:href="#DejaVuSans-73" x="371.728516"/>
      <use xlink:href="#DejaVuSans-73" x="423.828125"/>
     </g>
    </g>
    <g id="line2d_17">
     <path d="M 300.603409 35.254687 
L 310.603409 35.254687 
L 320.603409 35.254687 
" style="fill: none; stroke: #ff7f0e; stroke-width: 1.5; stroke-linecap: square"/>
    </g>
    <g id="text_15">
     <!-- val_loss -->
     <g transform="translate(328.603409 38.754687) scale(0.1 -0.1)">
      <defs>
       <path id="DejaVuSans-76" d="M 191 3500 
L 800 3500 
L 1894 563 
L 2988 3500 
L 3597 3500 
L 2284 0 
L 1503 0 
L 191 3500 
z
" transform="scale(0.015625)"/>
      </defs>
      <use xlink:href="#DejaVuSans-76"/>
      <use xlink:href="#DejaVuSans-61" x="59.179688"/>
      <use xlink:href="#DejaVuSans-6c" x="120.458984"/>
      <use xlink:href="#DejaVuSans-5f" x="148.242188"/>
      <use xlink:href="#DejaVuSans-6c" x="198.242188"/>
      <use xlink:href="#DejaVuSans-6f" x="226.025391"/>
      <use xlink:href="#DejaVuSans-73" x="287.207031"/>
      <use xlink:href="#DejaVuSans-73" x="339.306641"/>
     </g>
    </g>
   </g>
  </g>
  <g id="axes_2">
   <g id="patch_8">
    <path d="M 456.212216 259.2 
L 811.303125 259.2 
L 811.303125 7.2 
L 456.212216 7.2 
z
" style="fill: #ffffff"/>
   </g>
   <g id="matplotlib.axis_3">
    <g id="xtick_7">
     <g id="line2d_18">
      <g>
       <use xlink:href="#m3b96c82849" x="472.352712" y="259.2" style="stroke: #000000; stroke-width: 0.8"/>
      </g>
     </g>
     <g id="text_16">
      <!-- 0 -->
      <g transform="translate(469.171462 273.798437) scale(0.1 -0.1)">
       <use xlink:href="#DejaVuSans-30"/>
      </g>
     </g>
    </g>
    <g id="xtick_8">
     <g id="line2d_19">
      <g>
       <use xlink:href="#m3b96c82849" x="537.17398" y="259.2" style="stroke: #000000; stroke-width: 0.8"/>
      </g>
     </g>
     <g id="text_17">
      <!-- 50 -->
      <g transform="translate(530.81148 273.798437) scale(0.1 -0.1)">
       <use xlink:href="#DejaVuSans-35"/>
       <use xlink:href="#DejaVuSans-30" x="63.623047"/>
      </g>
     </g>
    </g>
    <g id="xtick_9">
     <g id="line2d_20">
      <g>
       <use xlink:href="#m3b96c82849" x="601.995249" y="259.2" style="stroke: #000000; stroke-width: 0.8"/>
      </g>
     </g>
     <g id="text_18">
      <!-- 100 -->
      <g transform="translate(592.451499 273.798437) scale(0.1 -0.1)">
       <use xlink:href="#DejaVuSans-31"/>
       <use xlink:href="#DejaVuSans-30" x="63.623047"/>
       <use xlink:href="#DejaVuSans-30" x="127.246094"/>
      </g>
     </g>
    </g>
    <g id="xtick_10">
     <g id="line2d_21">
      <g>
       <use xlink:href="#m3b96c82849" x="666.816517" y="259.2" style="stroke: #000000; stroke-width: 0.8"/>
      </g>
     </g>
     <g id="text_19">
      <!-- 150 -->
      <g transform="translate(657.272767 273.798437) scale(0.1 -0.1)">
       <use xlink:href="#DejaVuSans-31"/>
       <use xlink:href="#DejaVuSans-35" x="63.623047"/>
       <use xlink:href="#DejaVuSans-30" x="127.246094"/>
      </g>
     </g>
    </g>
    <g id="xtick_11">
     <g id="line2d_22">
      <g>
       <use xlink:href="#m3b96c82849" x="731.637786" y="259.2" style="stroke: #000000; stroke-width: 0.8"/>
      </g>
     </g>
     <g id="text_20">
      <!-- 200 -->
      <g transform="translate(722.094036 273.798437) scale(0.1 -0.1)">
       <use xlink:href="#DejaVuSans-32"/>
       <use xlink:href="#DejaVuSans-30" x="63.623047"/>
       <use xlink:href="#DejaVuSans-30" x="127.246094"/>
      </g>
     </g>
    </g>
    <g id="xtick_12">
     <g id="line2d_23">
      <g>
       <use xlink:href="#m3b96c82849" x="796.459055" y="259.2" style="stroke: #000000; stroke-width: 0.8"/>
      </g>
     </g>
     <g id="text_21">
      <!-- 250 -->
      <g transform="translate(786.915305 273.798437) scale(0.1 -0.1)">
       <use xlink:href="#DejaVuSans-32"/>
       <use xlink:href="#DejaVuSans-35" x="63.623047"/>
       <use xlink:href="#DejaVuSans-30" x="127.246094"/>
      </g>
     </g>
    </g>
   </g>
   <g id="matplotlib.axis_4">
    <g id="ytick_8">
     <g id="line2d_24">
      <g>
       <use xlink:href="#m15d29b9de2" x="456.212216" y="251.913404" style="stroke: #000000; stroke-width: 0.8"/>
      </g>
     </g>
     <g id="text_22">
      <!-- 0.05 -->
      <g transform="translate(426.946591 255.712623) scale(0.1 -0.1)">
       <use xlink:href="#DejaVuSans-30"/>
       <use xlink:href="#DejaVuSans-2e" x="63.623047"/>
       <use xlink:href="#DejaVuSans-30" x="95.410156"/>
       <use xlink:href="#DejaVuSans-35" x="159.033203"/>
      </g>
     </g>
    </g>
    <g id="ytick_9">
     <g id="line2d_25">
      <g>
       <use xlink:href="#m15d29b9de2" x="456.212216" y="214.031708" style="stroke: #000000; stroke-width: 0.8"/>
      </g>
     </g>
     <g id="text_23">
      <!-- 0.10 -->
      <g transform="translate(426.946591 217.830927) scale(0.1 -0.1)">
       <use xlink:href="#DejaVuSans-30"/>
       <use xlink:href="#DejaVuSans-2e" x="63.623047"/>
       <use xlink:href="#DejaVuSans-31" x="95.410156"/>
       <use xlink:href="#DejaVuSans-30" x="159.033203"/>
      </g>
     </g>
    </g>
    <g id="ytick_10">
     <g id="line2d_26">
      <g>
       <use xlink:href="#m15d29b9de2" x="456.212216" y="176.150013" style="stroke: #000000; stroke-width: 0.8"/>
      </g>
     </g>
     <g id="text_24">
      <!-- 0.15 -->
      <g transform="translate(426.946591 179.949232) scale(0.1 -0.1)">
       <use xlink:href="#DejaVuSans-30"/>
       <use xlink:href="#DejaVuSans-2e" x="63.623047"/>
       <use xlink:href="#DejaVuSans-31" x="95.410156"/>
       <use xlink:href="#DejaVuSans-35" x="159.033203"/>
      </g>
     </g>
    </g>
    <g id="ytick_11">
     <g id="line2d_27">
      <g>
       <use xlink:href="#m15d29b9de2" x="456.212216" y="138.268317" style="stroke: #000000; stroke-width: 0.8"/>
      </g>
     </g>
     <g id="text_25">
      <!-- 0.20 -->
      <g transform="translate(426.946591 142.067536) scale(0.1 -0.1)">
       <use xlink:href="#DejaVuSans-30"/>
       <use xlink:href="#DejaVuSans-2e" x="63.623047"/>
       <use xlink:href="#DejaVuSans-32" x="95.410156"/>
       <use xlink:href="#DejaVuSans-30" x="159.033203"/>
      </g>
     </g>
    </g>
    <g id="ytick_12">
     <g id="line2d_28">
      <g>
       <use xlink:href="#m15d29b9de2" x="456.212216" y="100.386622" style="stroke: #000000; stroke-width: 0.8"/>
      </g>
     </g>
     <g id="text_26">
      <!-- 0.25 -->
      <g transform="translate(426.946591 104.18584) scale(0.1 -0.1)">
       <use xlink:href="#DejaVuSans-30"/>
       <use xlink:href="#DejaVuSans-2e" x="63.623047"/>
       <use xlink:href="#DejaVuSans-32" x="95.410156"/>
       <use xlink:href="#DejaVuSans-35" x="159.033203"/>
      </g>
     </g>
    </g>
    <g id="ytick_13">
     <g id="line2d_29">
      <g>
       <use xlink:href="#m15d29b9de2" x="456.212216" y="62.504926" style="stroke: #000000; stroke-width: 0.8"/>
      </g>
     </g>
     <g id="text_27">
      <!-- 0.30 -->
      <g transform="translate(426.946591 66.304145) scale(0.1 -0.1)">
       <use xlink:href="#DejaVuSans-30"/>
       <use xlink:href="#DejaVuSans-2e" x="63.623047"/>
       <use xlink:href="#DejaVuSans-33" x="95.410156"/>
       <use xlink:href="#DejaVuSans-30" x="159.033203"/>
      </g>
     </g>
    </g>
    <g id="ytick_14">
     <g id="line2d_30">
      <g>
       <use xlink:href="#m15d29b9de2" x="456.212216" y="24.62323" style="stroke: #000000; stroke-width: 0.8"/>
      </g>
     </g>
     <g id="text_28">
      <!-- 0.35 -->
      <g transform="translate(426.946591 28.422449) scale(0.1 -0.1)">
       <use xlink:href="#DejaVuSans-30"/>
       <use xlink:href="#DejaVuSans-2e" x="63.623047"/>
       <use xlink:href="#DejaVuSans-33" x="95.410156"/>
       <use xlink:href="#DejaVuSans-35" x="159.033203"/>
      </g>
     </g>
    </g>
   </g>
   <g id="line2d_31">
    <path d="M 472.352712 247.745455 
L 473.649137 208.848663 
L 474.945563 192.910213 
L 476.241988 183.390688 
L 477.538413 172.834731 
L 478.834839 165.536135 
L 480.131264 160.362676 
L 481.427689 153.952449 
L 485.316965 142.464567 
L 486.613391 135.958548 
L 487.909816 130.924436 
L 489.206242 131.49927 
L 491.799092 125.690002 
L 493.095518 123.817448 
L 494.391943 123.155526 
L 495.688368 121.570395 
L 496.984794 122.885535 
L 498.281219 120.751694 
L 499.577645 119.314626 
L 500.87407 118.295602 
L 502.170495 116.344676 
L 503.466921 117.084982 
L 504.763346 116.867239 
L 506.059771 116.031129 
L 507.356197 112.677952 
L 508.652622 114.062772 
L 509.949048 114.776953 
L 511.245473 110.108637 
L 512.541898 112.373121 
L 513.838324 110.221861 
L 515.134749 112.947955 
L 516.431174 110.892498 
L 517.7276 110.29154 
L 519.024025 109.394455 
L 520.320451 110.230576 
L 521.616876 109.08092 
L 522.913301 110.927338 
L 524.209727 106.781596 
L 525.506152 107.739645 
L 526.802577 107.365134 
L 528.099003 107.983512 
L 529.395428 110.117353 
L 530.691853 106.110969 
L 531.988279 108.749953 
L 533.284704 106.441925 
L 534.58113 107.051598 
L 535.877555 105.030981 
L 537.17398 106.494184 
L 538.470406 104.943882 
L 539.766831 105.884522 
L 541.063256 106.198058 
L 542.359682 104.011968 
L 543.656107 103.733262 
L 546.248958 104.220996 
L 547.545383 105.405492 
L 548.841809 104.473567 
L 550.138234 104.055513 
L 551.434659 104.142612 
L 552.731085 105.118081 
L 554.02751 103.741966 
L 555.323936 102.609729 
L 556.620361 103.097464 
L 557.916786 102.304898 
L 559.213212 101.268465 
L 560.509637 102.644569 
L 561.806062 101.930387 
L 563.102488 102.505221 
L 564.398913 108.392862 
L 565.695338 100.824275 
L 566.991764 103.985833 
L 568.288189 103.663582 
L 569.584615 100.118809 
L 570.88104 98.411727 
L 572.177465 102.827472 
L 573.473891 101.172662 
L 574.770316 101.390393 
L 576.066741 102.000067 
L 577.363167 99.587519 
L 578.659592 100.40622 
L 579.956018 100.606532 
L 581.252443 97.540778 
L 582.548868 99.282677 
L 583.845294 99.256553 
L 585.141719 97.697546 
L 586.438144 100.179773 
L 587.73457 100.083969 
L 589.030995 99.152056 
L 590.327421 100.136218 
L 591.623846 97.471098 
L 592.920271 96.486937 
L 594.216697 101.782324 
L 595.513122 97.549494 
L 596.809547 99.44816 
L 598.105973 100.01429 
L 599.402398 99.256553 
L 600.698823 99.256553 
L 601.995249 96.722077 
L 603.291674 100.536864 
L 604.5881 98.638175 
L 605.884525 98.629482 
L 607.18095 97.253367 
L 608.477376 96.277898 
L 609.773801 98.106908 
L 611.070226 97.340455 
L 612.366652 97.114008 
L 613.663077 99.038821 
L 614.959503 96.49563 
L 616.255928 96.051451 
L 617.552353 95.293714 
L 618.848779 98.028512 
L 620.145204 99.44816 
L 621.441629 98.237551 
L 622.738055 95.746608 
L 624.03448 98.934302 
L 625.330906 100.676212 
L 626.627331 98.054637 
L 627.923756 96.704668 
L 629.220182 96.208218 
L 630.516607 98.908177 
L 631.813032 96.007895 
L 633.109458 97.148847 
L 634.405883 96.626273 
L 635.702309 98.193996 
L 636.998734 97.819496 
L 638.295159 96.88756 
L 639.591585 98.403034 
L 642.184435 92.56763 
L 643.480861 97.140132 
L 644.777286 93.264403 
L 646.073711 94.596963 
L 647.370137 93.821817 
L 648.666562 93.508259 
L 649.962988 92.149576 
L 651.259413 94.657927 
L 652.555838 95.293714 
L 653.852264 96.547901 
L 655.148689 94.518568 
L 656.445114 92.872473 
L 657.74154 93.90019 
L 659.037965 91.827325 
L 660.334391 90.999908 
L 661.630816 95.206625 
L 662.927241 93.708582 
L 664.223667 91.783769 
L 665.520092 91.957968 
L 666.816517 93.786978 
L 668.112943 93.377616 
L 669.409368 89.162205 
L 670.705794 90.189922 
L 672.002219 87.211268 
L 673.298644 90.712497 
L 674.59507 91.827325 
L 675.891495 91.923128 
L 677.18792 87.08934 
L 678.484346 89.571545 
L 679.780771 88.265132 
L 681.077196 89.284133 
L 683.670047 86.958696 
L 684.966473 90.956375 
L 686.262898 87.350627 
L 687.559323 89.745743 
L 688.855749 87.559643 
L 690.152174 93.734707 
L 691.448599 88.047377 
L 694.04145 90.320566 
L 695.337876 87.78609 
L 696.634301 86.819337 
L 697.930726 90.007031 
L 699.227152 86.854177 
L 700.523577 88.265132 
L 701.820002 86.949981 
L 703.116428 87.307072 
L 704.412853 87.289663 
L 705.709279 84.729041 
L 707.005704 86.470962 
L 708.302129 91.278626 
L 709.598555 87.638038 
L 710.89498 86.235799 
L 712.191405 85.33001 
L 713.487831 85.922264 
L 714.784256 87.559643 
L 716.080682 83.779719 
L 717.377107 85.739349 
L 718.673532 85.425814 
L 719.969958 87.699002 
L 721.266383 90.782176 
L 722.562808 86.366443 
L 723.859234 85.042599 
L 725.155659 87.037069 
L 726.452084 86.732249 
L 727.74851 83.701323 
L 729.044935 84.702916 
L 730.341361 89.014153 
L 731.637786 84.119378 
L 732.934211 86.375158 
L 734.230637 88.021253 
L 735.527062 85.72194 
L 736.823487 83.927771 
L 738.119913 87.429 
L 739.416338 87.246108 
L 740.712764 83.99745 
L 742.009189 82.73457 
L 744.60204 85.617421 
L 745.898465 83.561964 
L 747.19489 85.704509 
L 748.491316 88.665755 
L 749.787741 84.807436 
L 751.084167 83.980042 
L 752.380592 83.710039 
L 753.677017 85.8613 
L 754.973443 86.279354 
L 756.269868 83.779719 
L 757.566293 84.511309 
L 758.862719 83.657768 
L 760.159144 85.8613 
L 761.455569 84.293577 
L 762.751995 85.373565 
L 764.04842 84.520024 
L 765.344846 83.849398 
L 766.641271 84.154218 
L 767.937696 90.329282 
L 769.234122 85.007759 
L 770.530547 85.965796 
L 773.123398 85.120971 
L 774.419823 84.180342 
L 775.716249 85.356134 
L 777.012674 91.026055 
L 778.309099 81.976833 
L 779.605525 83.274553 
L 782.198375 84.929364 
L 783.494801 87.742558 
L 784.791226 88.69188 
L 786.087652 82.743286 
L 787.384077 86.784497 
L 788.680502 91.269911 
L 789.976928 82.011673 
L 791.273353 82.995857 
L 792.569778 88.082217 
L 793.866204 83.335517 
L 795.162629 82.447159 
L 795.162629 82.447159 
" clip-path="url(#p7959f233c0)" style="fill: none; stroke: #1f77b4; stroke-width: 1.5; stroke-linecap: square"/>
   </g>
   <g id="line2d_32">
    <path d="M 472.352712 135.388952 
L 473.649137 88.839164 
L 474.945563 59.145666 
L 476.241988 41.809454 
L 477.538413 32.571492 
L 480.131264 90.818709 
L 481.427689 62.80486 
L 482.724115 75.702037 
L 484.02054 86.25971 
L 485.316965 87.939358 
L 486.613391 66.644009 
L 487.909816 74.562282 
L 489.206242 62.444946 
L 490.502667 52.187193 
L 491.799092 73.662476 
L 493.095518 43.729051 
L 494.391943 33.591261 
L 495.688368 43.249152 
L 496.984794 55.246523 
L 498.281219 34.31111 
L 499.577645 43.968978 
L 500.87407 31.671686 
L 502.170495 21.35394 
L 503.466921 45.52864 
L 504.763346 55.546444 
L 506.059771 25.732982 
L 507.356197 62.085011 
L 508.652622 63.704665 
L 509.949048 63.464716 
L 511.245473 65.444284 
L 512.541898 48.408014 
L 513.838324 28.252443 
L 515.134749 65.384291 
L 516.431174 45.52864 
L 517.7276 67.003945 
L 519.024025 64.304528 
L 520.320451 39.649929 
L 521.616876 46.308482 
L 522.913301 39.829886 
L 524.209727 74.142375 
L 525.506152 95.617658 
L 526.802577 50.507545 
L 528.099003 66.224103 
L 529.395428 50.267618 
L 530.691853 83.740273 
L 531.988279 87.759379 
L 533.284704 37.430434 
L 535.877555 80.261036 
L 537.17398 67.243895 
L 538.470406 64.004608 
L 539.766831 50.147632 
L 541.063256 68.083708 
L 542.359682 71.203008 
L 543.656107 18.654545 
L 544.952533 72.2228 
L 546.248958 95.977594 
L 547.545383 70.963081 
L 548.841809 59.325623 
L 550.138234 67.663801 
L 551.434659 86.139747 
L 552.731085 56.566235 
L 554.02751 56.746192 
L 555.323936 67.663801 
L 556.620361 74.082382 
L 557.916786 81.580748 
L 559.213212 97.597226 
L 560.509637 25.253083 
L 561.806062 58.185868 
L 563.102488 77.021749 
L 564.398913 62.624903 
L 565.695338 44.028971 
L 566.991764 35.09093 
L 568.288189 52.36715 
L 569.584615 46.548432 
L 570.88104 69.043484 
L 572.177465 64.304528 
L 573.473891 65.144341 
L 574.770316 71.802894 
L 576.066741 96.517464 
L 577.363167 52.007236 
L 578.659592 76.241907 
L 579.956018 63.884622 
L 581.252443 61.425155 
L 582.548868 58.245861 
L 583.845294 68.023715 
L 585.141719 82.780474 
L 586.438144 66.464053 
L 587.73457 37.910311 
L 589.030995 87.159516 
L 590.327421 81.520755 
L 591.623846 52.487113 
L 592.920271 105.875423 
L 594.216697 55.486473 
L 595.513122 73.182576 
L 596.809547 74.022412 
L 598.105973 57.346055 
L 599.402398 44.508871 
L 600.698823 45.168727 
L 601.995249 44.088964 
L 603.291674 39.230023 
L 604.5881 48.82792 
L 605.884525 31.731679 
L 607.18095 44.868784 
L 608.477376 41.269584 
L 609.773801 19.734308 
L 611.070226 51.287387 
L 612.366652 71.203008 
L 614.959503 43.309145 
L 616.255928 57.406048 
L 617.552353 67.003945 
L 618.848779 92.918264 
L 620.145204 65.86419 
L 621.441629 44.74882 
L 622.738055 78.941324 
L 624.03448 103.53593 
L 625.330906 52.1272 
L 626.627331 69.643369 
L 627.923756 20.394164 
L 629.220182 43.069195 
L 630.516607 57.765961 
L 631.813032 69.763333 
L 633.109458 85.659848 
L 634.405883 61.665104 
L 635.702309 71.083045 
L 636.998734 59.085673 
L 638.295159 79.181274 
L 639.591585 66.284096 
L 640.88801 58.605774 
L 642.184435 54.586667 
L 643.480861 47.688165 
L 644.777286 56.326286 
L 646.073711 56.2063 
L 647.370137 55.006574 
L 648.666562 45.048763 
L 649.962988 72.822663 
L 651.259413 50.927474 
L 652.555838 68.083708 
L 653.852264 29.512162 
L 655.148689 58.48581 
L 656.445114 32.631485 
L 657.74154 68.683571 
L 659.037965 87.039553 
L 660.334391 67.723772 
L 661.630816 80.380999 
L 662.927241 74.382325 
L 664.223667 81.340798 
L 665.520092 71.982851 
L 666.816517 53.506905 
L 668.112943 89.079091 
L 669.409368 27.17268 
L 670.705794 69.043484 
L 672.002219 76.601843 
L 673.298644 78.641381 
L 674.59507 59.925486 
L 675.891495 55.906379 
L 677.18792 26.632788 
L 678.484346 52.247164 
L 679.780771 41.329577 
L 681.077196 69.46339 
L 682.373622 48.28805 
L 683.670047 91.718515 
L 684.966473 90.458796 
L 687.559323 43.069195 
L 688.855749 63.464716 
L 690.152174 91.538558 
L 691.448599 67.783765 
L 692.745025 79.721143 
L 694.04145 80.980885 
L 695.337876 41.089627 
L 696.634301 34.671024 
L 697.930726 54.526674 
L 699.227152 42.409339 
L 700.523577 50.927474 
L 701.820002 77.021749 
L 703.116428 97.537256 
L 704.412853 20.394164 
L 705.709279 64.424514 
L 707.005704 36.050729 
L 708.302129 97.897169 
L 709.598555 67.543815 
L 710.89498 20.334171 
L 712.191405 40.069835 
L 713.487831 23.8734 
L 714.784256 61.665104 
L 716.080682 62.085011 
L 717.377107 64.364521 
L 718.673532 62.26499 
L 719.969958 42.409339 
L 721.266383 71.802894 
L 722.562808 62.02504 
L 723.859234 88.179308 
L 725.155659 41.989433 
L 726.452084 42.349346 
L 727.74851 54.526674 
L 729.044935 36.590599 
L 730.341361 81.760705 
L 731.637786 64.844421 
L 732.934211 39.949872 
L 734.230637 37.310448 
L 735.527062 67.123909 
L 736.823487 40.249814 
L 738.119913 112.653928 
L 739.416338 35.930743 
L 740.712764 85.899797 
L 742.009189 61.545141 
L 743.305614 64.724435 
L 745.898465 48.528 
L 747.19489 37.310448 
L 748.491316 61.485148 
L 749.787741 75.941987 
L 751.084167 62.32496 
L 752.380592 77.861562 
L 753.677017 72.822663 
L 754.973443 102.636124 
L 756.269868 30.411967 
L 757.566293 70.243232 
L 758.862719 84.220172 
L 760.159144 71.502951 
L 761.455569 41.749483 
L 762.751995 41.749483 
L 764.04842 22.073789 
L 765.344846 89.618984 
L 766.641271 66.943952 
L 767.937696 87.999329 
L 769.234122 73.00262 
L 770.530547 59.565573 
L 771.826972 76.361893 
L 773.123398 38.270246 
L 774.419823 49.487776 
L 775.716249 76.121943 
L 777.012674 85.239941 
L 778.309099 53.266955 
L 779.605525 68.863527 
L 780.90195 35.030959 
L 782.198375 40.189821 
L 783.494801 53.446912 
L 784.791226 42.349346 
L 786.087652 26.932731 
L 787.384077 101.796312 
L 788.680502 23.993364 
L 789.976928 69.283434 
L 791.273353 97.897169 
L 792.569778 60.945278 
L 793.866204 49.427783 
L 795.162629 40.429771 
L 795.162629 40.429771 
" clip-path="url(#p7959f233c0)" style="fill: none; stroke: #ff7f0e; stroke-width: 1.5; stroke-linecap: square"/>
   </g>
   <g id="patch_9">
    <path d="M 456.212216 259.2 
L 456.212216 7.2 
" style="fill: none; stroke: #000000; stroke-width: 0.8; stroke-linejoin: miter; stroke-linecap: square"/>
   </g>
   <g id="patch_10">
    <path d="M 811.303125 259.2 
L 811.303125 7.2 
" style="fill: none; stroke: #000000; stroke-width: 0.8; stroke-linejoin: miter; stroke-linecap: square"/>
   </g>
   <g id="patch_11">
    <path d="M 456.212216 259.2 
L 811.303125 259.2 
" style="fill: none; stroke: #000000; stroke-width: 0.8; stroke-linejoin: miter; stroke-linecap: square"/>
   </g>
   <g id="patch_12">
    <path d="M 456.212216 7.2 
L 811.303125 7.2 
" style="fill: none; stroke: #000000; stroke-width: 0.8; stroke-linejoin: miter; stroke-linecap: square"/>
   </g>
   <g id="legend_2">
    <g id="patch_13">
     <path d="M 726.903125 254.2 
L 804.303125 254.2 
Q 806.303125 254.2 806.303125 252.2 
L 806.303125 223.2875 
Q 806.303125 221.2875 804.303125 221.2875 
L 726.903125 221.2875 
Q 724.903125 221.2875 724.903125 223.2875 
L 724.903125 252.2 
Q 724.903125 254.2 726.903125 254.2 
z
" style="fill: #ffffff; opacity: 0.8; stroke: #cccccc; stroke-linejoin: miter"/>
    </g>
    <g id="line2d_33">
     <path d="M 728.903125 229.385937 
L 738.903125 229.385937 
L 748.903125 229.385937 
" style="fill: none; stroke: #1f77b4; stroke-width: 1.5; stroke-linecap: square"/>
    </g>
    <g id="text_29">
     <!-- train_acc -->
     <g transform="translate(756.903125 232.885937) scale(0.1 -0.1)">
      <defs>
       <path id="DejaVuSans-63" d="M 3122 3366 
L 3122 2828 
Q 2878 2963 2633 3030 
Q 2388 3097 2138 3097 
Q 1578 3097 1268 2742 
Q 959 2388 959 1747 
Q 959 1106 1268 751 
Q 1578 397 2138 397 
Q 2388 397 2633 464 
Q 2878 531 3122 666 
L 3122 134 
Q 2881 22 2623 -34 
Q 2366 -91 2075 -91 
Q 1284 -91 818 406 
Q 353 903 353 1747 
Q 353 2603 823 3093 
Q 1294 3584 2113 3584 
Q 2378 3584 2631 3529 
Q 2884 3475 3122 3366 
z
" transform="scale(0.015625)"/>
      </defs>
      <use xlink:href="#DejaVuSans-74"/>
      <use xlink:href="#DejaVuSans-72" x="39.208984"/>
      <use xlink:href="#DejaVuSans-61" x="80.322266"/>
      <use xlink:href="#DejaVuSans-69" x="141.601562"/>
      <use xlink:href="#DejaVuSans-6e" x="169.384766"/>
      <use xlink:href="#DejaVuSans-5f" x="232.763672"/>
      <use xlink:href="#DejaVuSans-61" x="282.763672"/>
      <use xlink:href="#DejaVuSans-63" x="344.042969"/>
      <use xlink:href="#DejaVuSans-63" x="399.023438"/>
     </g>
    </g>
    <g id="line2d_34">
     <path d="M 728.903125 244.342187 
L 738.903125 244.342187 
L 748.903125 244.342187 
" style="fill: none; stroke: #ff7f0e; stroke-width: 1.5; stroke-linecap: square"/>
    </g>
    <g id="text_30">
     <!-- val_acc -->
     <g transform="translate(756.903125 247.842187) scale(0.1 -0.1)">
      <use xlink:href="#DejaVuSans-76"/>
      <use xlink:href="#DejaVuSans-61" x="59.179688"/>
      <use xlink:href="#DejaVuSans-6c" x="120.458984"/>
      <use xlink:href="#DejaVuSans-5f" x="148.242188"/>
      <use xlink:href="#DejaVuSans-61" x="198.242188"/>
      <use xlink:href="#DejaVuSans-63" x="259.521484"/>
      <use xlink:href="#DejaVuSans-63" x="314.501953"/>
     </g>
    </g>
   </g>
  </g>
 </g>
 <defs>
  <clipPath id="p89f06ed0bd">
   <rect x="30.103125" y="7.2" width="355.090909" height="252"/>
  </clipPath>
  <clipPath id="p7959f233c0">
   <rect x="456.212216" y="7.2" width="355.090909" height="252"/>
  </clipPath>
 </defs>
</svg>
