<?xml version="1.0" encoding="utf-8" standalone="no"?>
<!DOCTYPE svg PUBLIC "-//W3C//DTD SVG 1.1//EN"
  "http://www.w3.org/Graphics/SVG/1.1/DTD/svg11.dtd">
<svg xmlns:xlink="http://www.w3.org/1999/xlink" width="818.503125pt" height="285.789844pt" viewBox="0 0 818.503125 285.789844" xmlns="http://www.w3.org/2000/svg" version="1.1">
 <metadata>
  <rdf:RDF xmlns:dc="http://purl.org/dc/elements/1.1/" xmlns:cc="http://creativecommons.org/ns#" xmlns:rdf="http://www.w3.org/1999/02/22-rdf-syntax-ns#">
   <cc:Work>
    <dc:type rdf:resource="http://purl.org/dc/dcmitype/StillImage"/>
    <dc:date>2023-01-21T16:02:39.065958</dc:date>
    <dc:format>image/svg+xml</dc:format>
    <dc:creator>
     <cc:Agent>
      <dc:title>Matplotlib v3.6.2, https://matplotlib.org/</dc:title>
     </cc:Agent>
    </dc:creator>
   </cc:Work>
  </rdf:RDF>
 </metadata>
 <defs>
  <style type="text/css">*{stroke-linejoin: round; stroke-linecap: butt}</style>
 </defs>
 <g id="figure_1">
  <g id="patch_1">
   <path d="M 0 285.789844 
L 818.503125 285.789844 
L 818.503125 0 
L 0 0 
z
" style="fill: #ffffff"/>
  </g>
  <g id="axes_1">
   <g id="patch_2">
    <path d="M 30.103125 261.911719 
L 385.194034 261.911719 
L 385.194034 9.911719 
L 30.103125 9.911719 
z
" style="fill: #ffffff"/>
   </g>
   <g id="matplotlib.axis_1">
    <g id="xtick_1">
     <g id="line2d_1">
      <defs>
       <path id="mf9cece39c4" d="M 0 0 
L 0 3.5 
" style="stroke: #000000; stroke-width: 0.8"/>
      </defs>
      <g>
       <use xlink:href="#mf9cece39c4" x="46.243621" y="261.911719" style="stroke: #000000; stroke-width: 0.8"/>
      </g>
     </g>
     <g id="text_1">
      <!-- 0 -->
      <g transform="translate(43.062371 276.510156) scale(0.1 -0.1)">
       <defs>
        <path id="DejaVuSans-30" d="M 2034 4250 
Q 1547 4250 1301 3770 
Q 1056 3291 1056 2328 
Q 1056 1369 1301 889 
Q 1547 409 2034 409 
Q 2525 409 2770 889 
Q 3016 1369 3016 2328 
Q 3016 3291 2770 3770 
Q 2525 4250 2034 4250 
z
M 2034 4750 
Q 2819 4750 3233 4129 
Q 3647 3509 3647 2328 
Q 3647 1150 3233 529 
Q 2819 -91 2034 -91 
Q 1250 -91 836 529 
Q 422 1150 422 2328 
Q 422 3509 836 4129 
Q 1250 4750 2034 4750 
z
" transform="scale(0.015625)"/>
       </defs>
       <use xlink:href="#DejaVuSans-30"/>
      </g>
     </g>
    </g>
    <g id="xtick_2">
     <g id="line2d_2">
      <g>
       <use xlink:href="#mf9cece39c4" x="111.064889" y="261.911719" style="stroke: #000000; stroke-width: 0.8"/>
      </g>
     </g>
     <g id="text_2">
      <!-- 50 -->
      <g transform="translate(104.702389 276.510156) scale(0.1 -0.1)">
       <defs>
        <path id="DejaVuSans-35" d="M 691 4666 
L 3169 4666 
L 3169 4134 
L 1269 4134 
L 1269 2991 
Q 1406 3038 1543 3061 
Q 1681 3084 1819 3084 
Q 2600 3084 3056 2656 
Q 3513 2228 3513 1497 
Q 3513 744 3044 326 
Q 2575 -91 1722 -91 
Q 1428 -91 1123 -41 
Q 819 9 494 109 
L 494 744 
Q 775 591 1075 516 
Q 1375 441 1709 441 
Q 2250 441 2565 725 
Q 2881 1009 2881 1497 
Q 2881 1984 2565 2268 
Q 2250 2553 1709 2553 
Q 1456 2553 1204 2497 
Q 953 2441 691 2322 
L 691 4666 
z
" transform="scale(0.015625)"/>
       </defs>
       <use xlink:href="#DejaVuSans-35"/>
       <use xlink:href="#DejaVuSans-30" x="63.623047"/>
      </g>
     </g>
    </g>
    <g id="xtick_3">
     <g id="line2d_3">
      <g>
       <use xlink:href="#mf9cece39c4" x="175.886158" y="261.911719" style="stroke: #000000; stroke-width: 0.8"/>
      </g>
     </g>
     <g id="text_3">
      <!-- 100 -->
      <g transform="translate(166.342408 276.510156) scale(0.1 -0.1)">
       <defs>
        <path id="DejaVuSans-31" d="M 794 531 
L 1825 531 
L 1825 4091 
L 703 3866 
L 703 4441 
L 1819 4666 
L 2450 4666 
L 2450 531 
L 3481 531 
L 3481 0 
L 794 0 
L 794 531 
z
" transform="scale(0.015625)"/>
       </defs>
       <use xlink:href="#DejaVuSans-31"/>
       <use xlink:href="#DejaVuSans-30" x="63.623047"/>
       <use xlink:href="#DejaVuSans-30" x="127.246094"/>
      </g>
     </g>
    </g>
    <g id="xtick_4">
     <g id="line2d_4">
      <g>
       <use xlink:href="#mf9cece39c4" x="240.707427" y="261.911719" style="stroke: #000000; stroke-width: 0.8"/>
      </g>
     </g>
     <g id="text_4">
      <!-- 150 -->
      <g transform="translate(231.163677 276.510156) scale(0.1 -0.1)">
       <use xlink:href="#DejaVuSans-31"/>
       <use xlink:href="#DejaVuSans-35" x="63.623047"/>
       <use xlink:href="#DejaVuSans-30" x="127.246094"/>
      </g>
     </g>
    </g>
    <g id="xtick_5">
     <g id="line2d_5">
      <g>
       <use xlink:href="#mf9cece39c4" x="305.528695" y="261.911719" style="stroke: #000000; stroke-width: 0.8"/>
      </g>
     </g>
     <g id="text_5">
      <!-- 200 -->
      <g transform="translate(295.984945 276.510156) scale(0.1 -0.1)">
       <defs>
        <path id="DejaVuSans-32" d="M 1228 531 
L 3431 531 
L 3431 0 
L 469 0 
L 469 531 
Q 828 903 1448 1529 
Q 2069 2156 2228 2338 
Q 2531 2678 2651 2914 
Q 2772 3150 2772 3378 
Q 2772 3750 2511 3984 
Q 2250 4219 1831 4219 
Q 1534 4219 1204 4116 
Q 875 4013 500 3803 
L 500 4441 
Q 881 4594 1212 4672 
Q 1544 4750 1819 4750 
Q 2544 4750 2975 4387 
Q 3406 4025 3406 3419 
Q 3406 3131 3298 2873 
Q 3191 2616 2906 2266 
Q 2828 2175 2409 1742 
Q 1991 1309 1228 531 
z
" transform="scale(0.015625)"/>
       </defs>
       <use xlink:href="#DejaVuSans-32"/>
       <use xlink:href="#DejaVuSans-30" x="63.623047"/>
       <use xlink:href="#DejaVuSans-30" x="127.246094"/>
      </g>
     </g>
    </g>
    <g id="xtick_6">
     <g id="line2d_6">
      <g>
       <use xlink:href="#mf9cece39c4" x="370.349964" y="261.911719" style="stroke: #000000; stroke-width: 0.8"/>
      </g>
     </g>
     <g id="text_6">
      <!-- 250 -->
      <g transform="translate(360.806214 276.510156) scale(0.1 -0.1)">
       <use xlink:href="#DejaVuSans-32"/>
       <use xlink:href="#DejaVuSans-35" x="63.623047"/>
       <use xlink:href="#DejaVuSans-30" x="127.246094"/>
      </g>
     </g>
    </g>
   </g>
   <g id="matplotlib.axis_2">
    <g id="ytick_1">
     <g id="line2d_7">
      <defs>
       <path id="mb96d99e219" d="M 0 0 
L -3.5 0 
" style="stroke: #000000; stroke-width: 0.8"/>
      </defs>
      <g>
       <use xlink:href="#mb96d99e219" x="30.103125" y="251.544698" style="stroke: #000000; stroke-width: 0.8"/>
      </g>
     </g>
     <g id="text_7">
      <!-- 0.0 -->
      <g transform="translate(7.2 255.343916) scale(0.1 -0.1)">
       <defs>
        <path id="DejaVuSans-2e" d="M 684 794 
L 1344 794 
L 1344 0 
L 684 0 
L 684 794 
z
" transform="scale(0.015625)"/>
       </defs>
       <use xlink:href="#DejaVuSans-30"/>
       <use xlink:href="#DejaVuSans-2e" x="63.623047"/>
       <use xlink:href="#DejaVuSans-30" x="95.410156"/>
      </g>
     </g>
    </g>
    <g id="ytick_2">
     <g id="line2d_8">
      <g>
       <use xlink:href="#mb96d99e219" x="30.103125" y="203.435602" style="stroke: #000000; stroke-width: 0.8"/>
      </g>
     </g>
     <g id="text_8">
      <!-- 0.5 -->
      <g transform="translate(7.2 207.234821) scale(0.1 -0.1)">
       <use xlink:href="#DejaVuSans-30"/>
       <use xlink:href="#DejaVuSans-2e" x="63.623047"/>
       <use xlink:href="#DejaVuSans-35" x="95.410156"/>
      </g>
     </g>
    </g>
    <g id="ytick_3">
     <g id="line2d_9">
      <g>
       <use xlink:href="#mb96d99e219" x="30.103125" y="155.326506" style="stroke: #000000; stroke-width: 0.8"/>
      </g>
     </g>
     <g id="text_9">
      <!-- 1.0 -->
      <g transform="translate(7.2 159.125725) scale(0.1 -0.1)">
       <use xlink:href="#DejaVuSans-31"/>
       <use xlink:href="#DejaVuSans-2e" x="63.623047"/>
       <use xlink:href="#DejaVuSans-30" x="95.410156"/>
      </g>
     </g>
    </g>
    <g id="ytick_4">
     <g id="line2d_10">
      <g>
       <use xlink:href="#mb96d99e219" x="30.103125" y="107.21741" style="stroke: #000000; stroke-width: 0.8"/>
      </g>
     </g>
     <g id="text_10">
      <!-- 1.5 -->
      <g transform="translate(7.2 111.016629) scale(0.1 -0.1)">
       <use xlink:href="#DejaVuSans-31"/>
       <use xlink:href="#DejaVuSans-2e" x="63.623047"/>
       <use xlink:href="#DejaVuSans-35" x="95.410156"/>
      </g>
     </g>
    </g>
    <g id="ytick_5">
     <g id="line2d_11">
      <g>
       <use xlink:href="#mb96d99e219" x="30.103125" y="59.108315" style="stroke: #000000; stroke-width: 0.8"/>
      </g>
     </g>
     <g id="text_11">
      <!-- 2.0 -->
      <g transform="translate(7.2 62.907533) scale(0.1 -0.1)">
       <use xlink:href="#DejaVuSans-32"/>
       <use xlink:href="#DejaVuSans-2e" x="63.623047"/>
       <use xlink:href="#DejaVuSans-30" x="95.410156"/>
      </g>
     </g>
    </g>
    <g id="ytick_6">
     <g id="line2d_12">
      <g>
       <use xlink:href="#mb96d99e219" x="30.103125" y="10.999219" style="stroke: #000000; stroke-width: 0.8"/>
      </g>
     </g>
     <g id="text_12">
      <!-- 2.5 -->
      <g transform="translate(7.2 14.798438) scale(0.1 -0.1)">
       <use xlink:href="#DejaVuSans-32"/>
       <use xlink:href="#DejaVuSans-2e" x="63.623047"/>
       <use xlink:href="#DejaVuSans-35" x="95.410156"/>
      </g>
     </g>
    </g>
   </g>
   <g id="line2d_13">
    <path d="M 46.243621 66.9543 
L 47.540046 157.156446 
L 48.836472 179.030333 
L 50.132897 191.134731 
L 51.429322 200.153352 
L 52.725748 206.263664 
L 54.022173 211.656144 
L 56.615024 218.648261 
L 57.911449 221.263547 
L 61.800725 226.34168 
L 63.097151 228.694122 
L 64.393576 229.182768 
L 65.690001 230.999248 
L 66.986427 232.419056 
L 68.282852 233.358836 
L 70.875703 234.525185 
L 72.172128 235.712745 
L 73.468554 236.455652 
L 74.764979 236.507798 
L 76.061404 237.660428 
L 77.35783 238.249382 
L 78.654255 238.194958 
L 81.247106 239.824096 
L 82.543531 239.821412 
L 83.839957 240.014458 
L 86.432807 241.033988 
L 87.729233 241.161173 
L 91.618509 242.179945 
L 92.914934 242.258294 
L 94.21136 242.607852 
L 95.507785 243.37828 
L 96.80421 242.91551 
L 98.100636 243.601379 
L 99.397061 243.261959 
L 100.693486 243.693938 
L 101.989912 243.740435 
L 103.286337 244.539401 
L 105.879188 244.157532 
L 109.768464 244.456531 
L 112.361315 245.227866 
L 113.65774 244.750417 
L 114.954166 245.38915 
L 118.843442 245.592811 
L 120.139867 245.29115 
L 121.436292 245.749405 
L 125.325568 245.711934 
L 126.621994 246.02713 
L 127.918419 246.190958 
L 129.214845 245.560584 
L 130.51127 246.457412 
L 131.807695 245.898229 
L 134.400546 246.93366 
L 135.696971 246.299162 
L 136.993397 246.777111 
L 138.289822 246.724752 
L 139.586248 246.480508 
L 140.882673 246.58594 
L 142.179098 247.265757 
L 143.475524 246.850116 
L 144.771949 246.914365 
L 146.068374 247.245093 
L 147.3648 246.717211 
L 149.957651 247.206839 
L 151.254076 247.690698 
L 152.550501 247.020839 
L 153.846927 247.565647 
L 155.143352 246.993631 
L 156.439777 247.042956 
L 159.032628 247.373853 
L 160.329054 247.475607 
L 161.625479 247.402222 
L 162.921904 247.214816 
L 164.21833 248.126285 
L 166.81118 247.244671 
L 168.107606 247.323745 
L 170.700456 248.442955 
L 171.996882 247.286051 
L 173.293307 247.70954 
L 174.589733 247.540858 
L 175.886158 247.801875 
L 177.182583 247.479205 
L 178.479009 247.551018 
L 181.071859 248.418875 
L 182.368285 247.453234 
L 183.66471 249.046174 
L 184.961136 247.278614 
L 186.257561 248.197644 
L 187.553986 246.761056 
L 188.850412 248.620784 
L 190.146837 247.420346 
L 191.443262 248.478359 
L 192.739688 248.351921 
L 194.036113 247.588947 
L 195.332539 248.907904 
L 196.628964 247.572319 
L 197.925389 248.491345 
L 199.221815 248.009022 
L 200.51824 248.194545 
L 201.814665 248.093125 
L 203.111091 248.134658 
L 204.407516 248.018336 
L 205.703941 248.265668 
L 207.000367 248.350003 
L 208.296792 248.608586 
L 209.593218 247.983965 
L 210.889643 247.877725 
L 212.186068 248.026857 
L 213.482494 248.712865 
L 214.778919 248.198072 
L 216.075344 248.175085 
L 217.37177 247.847094 
L 218.668195 248.169554 
L 219.964621 249.324056 
L 221.261046 247.734108 
L 222.557471 248.514746 
L 223.853897 248.678372 
L 225.150322 247.335596 
L 226.446747 248.673576 
L 227.743173 247.937908 
L 229.039598 248.252637 
L 230.336024 249.474209 
L 231.632449 247.722649 
L 232.928874 249.159972 
L 234.2253 248.045985 
L 235.521725 248.898814 
L 236.81815 247.87352 
L 239.411001 249.076674 
L 240.707427 248.378499 
L 242.003852 248.596568 
L 243.300277 248.475567 
L 244.596703 247.870163 
L 245.893128 248.626419 
L 247.189553 249.110296 
L 248.485979 249.082122 
L 249.782404 247.874868 
L 251.078829 248.89145 
L 252.375255 248.649801 
L 253.67168 248.842788 
L 254.968106 248.750015 
L 256.264531 248.530965 
L 257.560956 247.999921 
L 260.153807 249.508335 
L 261.450232 248.150606 
L 262.746658 248.534471 
L 265.339509 248.623489 
L 266.635934 249.489861 
L 267.932359 249.045339 
L 269.228785 247.961119 
L 270.52521 249.300708 
L 271.821635 248.332405 
L 273.118061 249.523562 
L 274.414486 248.264089 
L 275.710912 249.065979 
L 277.007337 248.09576 
L 278.303762 249.379349 
L 279.600188 248.671631 
L 280.896613 248.771435 
L 282.193038 248.552646 
L 283.489464 249.020966 
L 284.785889 248.922186 
L 286.082314 248.683253 
L 287.37874 249.277842 
L 288.675165 248.133755 
L 289.971591 249.651301 
L 291.268016 248.902678 
L 292.564441 248.968516 
L 293.860867 248.245623 
L 295.157292 248.497654 
L 296.453717 248.96035 
L 297.750143 248.742636 
L 299.046568 248.768335 
L 300.342994 248.979389 
L 301.639419 248.533952 
L 302.935844 249.744142 
L 304.23227 248.616107 
L 305.528695 249.402098 
L 306.82512 248.971757 
L 308.121546 248.134593 
L 309.417971 249.234854 
L 310.714397 248.630951 
L 312.010822 248.680512 
L 313.307247 249.226503 
L 314.603673 249.077586 
L 315.900098 248.647087 
L 318.492949 249.375306 
L 319.789374 249.090323 
L 321.085799 248.647904 
L 322.382225 249.593071 
L 323.67865 248.645282 
L 324.975076 248.327117 
L 326.271501 249.858792 
L 327.567926 248.739448 
L 328.864352 248.839169 
L 330.160777 249.690004 
L 331.457202 248.876595 
L 332.753628 248.807907 
L 334.050053 248.853991 
L 335.346479 249.384088 
L 336.642904 248.545651 
L 337.939329 249.533377 
L 339.235755 248.699307 
L 340.53218 248.532774 
L 341.828605 249.680932 
L 343.125031 248.970754 
L 344.421456 248.952868 
L 345.717882 248.407779 
L 347.014307 249.794123 
L 348.310732 249.683302 
L 349.607158 248.022933 
L 350.903583 249.819738 
L 352.200008 248.648645 
L 353.496434 249.07619 
L 354.792859 249.320539 
L 356.089285 248.949778 
L 357.38571 249.671715 
L 358.682135 248.110392 
L 359.978561 248.877647 
L 361.274986 249.241273 
L 362.571411 248.734654 
L 363.867837 249.97458 
L 365.164262 247.630563 
L 366.460687 250.457173 
L 367.757113 248.101313 
L 369.053538 248.807157 
L 369.053538 248.807157 
" clip-path="url(#p80400e92a6)" style="fill: none; stroke: #1f77b4; stroke-width: 1.5; stroke-linecap: square"/>
   </g>
   <g id="line2d_14">
    <path d="M 46.243621 137.763256 
L 47.540046 157.297855 
L 48.836472 175.127865 
L 50.132897 173.16474 
L 51.429322 179.703243 
L 52.725748 182.297958 
L 54.022173 183.685909 
L 55.318598 188.028937 
L 56.615024 186.006282 
L 57.911449 188.567229 
L 59.207875 188.490563 
L 60.5043 184.371391 
L 61.800725 188.916001 
L 63.097151 182.832253 
L 64.393576 180.151082 
L 65.690001 185.875575 
L 66.986427 184.580778 
L 68.282852 188.579617 
L 69.579278 184.092014 
L 70.875703 182.309899 
L 72.172128 179.311448 
L 73.468554 184.773373 
L 74.764979 178.752894 
L 76.061404 177.877926 
L 77.35783 175.477807 
L 78.654255 177.702817 
L 79.950681 168.95355 
L 81.247106 170.584891 
L 82.543531 179.122214 
L 83.839957 176.362312 
L 85.136382 170.994402 
L 86.432807 169.519261 
L 87.729233 170.299824 
L 89.025658 168.171036 
L 90.322083 175.671669 
L 91.618509 170.362233 
L 92.914934 161.903388 
L 94.21136 169.930229 
L 95.507785 164.334992 
L 96.80421 173.297461 
L 98.100636 164.72064 
L 99.397061 168.228192 
L 100.693486 158.740662 
L 101.989912 167.616365 
L 103.286337 169.136297 
L 104.582763 164.678115 
L 105.879188 158.694679 
L 107.175613 165.460932 
L 108.472039 158.091827 
L 111.064889 164.318579 
L 112.361315 163.580632 
L 113.65774 151.82863 
L 114.954166 159.368794 
L 116.250591 154.154606 
L 117.547016 147.122664 
L 118.843442 151.032903 
L 120.139867 158.427609 
L 121.436292 135.1177 
L 122.732718 149.307478 
L 124.029143 151.174971 
L 125.325568 149.3955 
L 126.621994 149.547857 
L 127.918419 149.299701 
L 129.214845 151.191591 
L 130.51127 137.733193 
L 131.807695 150.72173 
L 133.104121 130.164233 
L 134.400546 152.486084 
L 135.696971 152.412848 
L 136.993397 133.529928 
L 138.289822 133.060652 
L 139.586248 143.03956 
L 140.882673 140.471886 
L 142.179098 143.808608 
L 143.475524 131.903101 
L 144.771949 151.713607 
L 146.068374 144.132397 
L 147.3648 129.484056 
L 148.661225 132.522004 
L 149.957651 137.411812 
L 151.254076 130.62033 
L 152.550501 139.146963 
L 153.846927 127.498696 
L 155.143352 128.015355 
L 156.439777 128.96477 
L 157.736203 136.830416 
L 159.032628 136.862291 
L 160.329054 131.452704 
L 161.625479 132.680223 
L 162.921904 134.686481 
L 164.21833 124.665707 
L 165.514755 124.175429 
L 166.81118 131.846518 
L 168.107606 129.507111 
L 169.404031 133.988113 
L 170.700456 125.950106 
L 171.996882 128.855471 
L 173.293307 119.769017 
L 174.589733 129.391653 
L 175.886158 107.528904 
L 177.182583 119.110105 
L 178.479009 128.544666 
L 181.071859 127.77711 
L 182.368285 133.222254 
L 183.66471 129.868809 
L 184.961136 120.14862 
L 186.257561 115.894095 
L 187.553986 122.95782 
L 188.850412 124.742086 
L 190.146837 120.242228 
L 191.443262 113.987191 
L 192.739688 115.353154 
L 194.036113 112.16801 
L 195.332539 110.882005 
L 196.628964 108.466149 
L 197.925389 90.850664 
L 199.221815 121.046006 
L 200.51824 102.329266 
L 201.814665 117.846295 
L 203.111091 95.409686 
L 204.407516 99.027838 
L 205.703941 105.7878 
L 207.000367 111.637093 
L 208.296792 115.404115 
L 209.593218 114.329665 
L 210.889643 97.548883 
L 212.186068 107.374987 
L 213.482494 109.396776 
L 214.778919 105.289974 
L 216.075344 112.192911 
L 218.668195 98.075957 
L 219.964621 101.768905 
L 221.261046 110.05852 
L 222.557471 100.510784 
L 223.853897 100.014427 
L 225.150322 102.586494 
L 226.446747 95.521141 
L 227.743173 111.777361 
L 229.039598 104.872096 
L 230.336024 98.928243 
L 231.632449 107.004663 
L 232.928874 106.002164 
L 234.2253 99.311562 
L 235.521725 98.536516 
L 236.81815 107.095368 
L 239.411001 75.58546 
L 240.707427 77.964991 
L 242.003852 84.008381 
L 243.300277 87.48092 
L 244.596703 105.167256 
L 245.893128 94.366686 
L 247.189553 93.856037 
L 248.485979 92.485199 
L 249.782404 99.776938 
L 251.078829 84.138773 
L 252.375255 91.886529 
L 253.67168 67.159007 
L 254.968106 89.45083 
L 256.264531 102.820771 
L 257.560956 77.828301 
L 258.857382 88.685499 
L 260.153807 88.328377 
L 261.450232 80.428287 
L 262.746658 90.914552 
L 264.043083 84.328018 
L 265.339509 96.099865 
L 266.635934 94.188487 
L 267.932359 73.480995 
L 269.228785 95.035886 
L 270.52521 85.95488 
L 271.821635 82.995869 
L 273.118061 75.276525 
L 274.414486 90.57974 
L 275.710912 78.875109 
L 277.007337 79.934464 
L 278.303762 78.837407 
L 279.600188 70.7625 
L 280.896613 68.648629 
L 282.193038 64.360635 
L 283.489464 67.004 
L 284.785889 68.975699 
L 286.082314 57.85243 
L 287.37874 75.126186 
L 288.675165 84.382891 
L 289.971591 74.972005 
L 291.268016 75.277328 
L 292.564441 65.388322 
L 293.860867 78.133475 
L 295.157292 77.493351 
L 296.453717 74.016672 
L 297.750143 62.625988 
L 299.046568 74.674861 
L 300.342994 73.934213 
L 301.639419 77.616322 
L 302.935844 58.547771 
L 304.23227 72.72141 
L 305.528695 67.472921 
L 306.82512 72.978111 
L 308.121546 73.924544 
L 309.417971 72.604347 
L 310.714397 67.884067 
L 312.010822 66.993712 
L 313.307247 65.058637 
L 314.603673 56.435551 
L 315.900098 73.997482 
L 317.196523 78.37515 
L 318.492949 76.669993 
L 319.789374 58.834913 
L 321.085799 73.47737 
L 322.382225 57.0495 
L 323.67865 65.983872 
L 324.975076 71.187032 
L 326.271501 64.128274 
L 327.567926 59.635194 
L 328.864352 52.990024 
L 330.160777 67.73078 
L 331.457202 70.980719 
L 332.753628 64.42528 
L 334.050053 73.78017 
L 335.346479 34.418254 
L 336.642904 49.417317 
L 337.939329 68.82044 
L 339.235755 51.463813 
L 340.53218 56.939869 
L 341.828605 56.142123 
L 343.125031 45.608692 
L 344.421456 21.366264 
L 345.717882 55.383903 
L 347.014307 66.905484 
L 348.310732 49.126366 
L 349.607158 48.708832 
L 350.903583 60.332748 
L 352.200008 42.22531 
L 353.496434 56.175157 
L 354.792859 65.215811 
L 356.089285 65.70617 
L 357.38571 51.232048 
L 358.682135 52.830934 
L 359.978561 42.872132 
L 361.274986 49.442069 
L 362.571411 35.607589 
L 363.867837 40.331826 
L 365.164262 61.171935 
L 366.460687 40.243047 
L 367.757113 56.714711 
L 369.053538 41.728724 
L 369.053538 41.728724 
" clip-path="url(#p80400e92a6)" style="fill: none; stroke: #ff7f0e; stroke-width: 1.5; stroke-linecap: square"/>
   </g>
   <g id="patch_3">
    <path d="M 30.103125 261.911719 
L 30.103125 9.911719 
" style="fill: none; stroke: #000000; stroke-width: 0.8; stroke-linejoin: miter; stroke-linecap: square"/>
   </g>
   <g id="patch_4">
    <path d="M 385.194034 261.911719 
L 385.194034 9.911719 
" style="fill: none; stroke: #000000; stroke-width: 0.8; stroke-linejoin: miter; stroke-linecap: square"/>
   </g>
   <g id="patch_5">
    <path d="M 30.103125 261.911719 
L 385.194034 261.911719 
" style="fill: none; stroke: #000000; stroke-width: 0.8; stroke-linejoin: miter; stroke-linecap: square"/>
   </g>
   <g id="patch_6">
    <path d="M 30.103125 9.911719 
L 385.194034 9.911719 
" style="fill: none; stroke: #000000; stroke-width: 0.8; stroke-linejoin: miter; stroke-linecap: square"/>
   </g>
   <g id="legend_1">
    <g id="patch_7">
     <path d="M 37.103125 47.824219 
L 116.69375 47.824219 
Q 118.69375 47.824219 118.69375 45.824219 
L 118.69375 16.911719 
Q 118.69375 14.911719 116.69375 14.911719 
L 37.103125 14.911719 
Q 35.103125 14.911719 35.103125 16.911719 
L 35.103125 45.824219 
Q 35.103125 47.824219 37.103125 47.824219 
z
" style="fill: #ffffff; opacity: 0.8; stroke: #cccccc; stroke-linejoin: miter"/>
    </g>
    <g id="line2d_15">
     <path d="M 39.103125 23.010156 
L 49.103125 23.010156 
L 59.103125 23.010156 
" style="fill: none; stroke: #1f77b4; stroke-width: 1.5; stroke-linecap: square"/>
    </g>
    <g id="text_13">
     <!-- train_loss -->
     <g transform="translate(67.103125 26.510156) scale(0.1 -0.1)">
      <defs>
       <path id="DejaVuSans-74" d="M 1172 4494 
L 1172 3500 
L 2356 3500 
L 2356 3053 
L 1172 3053 
L 1172 1153 
Q 1172 725 1289 603 
Q 1406 481 1766 481 
L 2356 481 
L 2356 0 
L 1766 0 
Q 1100 0 847 248 
Q 594 497 594 1153 
L 594 3053 
L 172 3053 
L 172 3500 
L 594 3500 
L 594 4494 
L 1172 4494 
z
" transform="scale(0.015625)"/>
       <path id="DejaVuSans-72" d="M 2631 2963 
Q 2534 3019 2420 3045 
Q 2306 3072 2169 3072 
Q 1681 3072 1420 2755 
Q 1159 2438 1159 1844 
L 1159 0 
L 581 0 
L 581 3500 
L 1159 3500 
L 1159 2956 
Q 1341 3275 1631 3429 
Q 1922 3584 2338 3584 
Q 2397 3584 2469 3576 
Q 2541 3569 2628 3553 
L 2631 2963 
z
" transform="scale(0.015625)"/>
       <path id="DejaVuSans-61" d="M 2194 1759 
Q 1497 1759 1228 1600 
Q 959 1441 959 1056 
Q 959 750 1161 570 
Q 1363 391 1709 391 
Q 2188 391 2477 730 
Q 2766 1069 2766 1631 
L 2766 1759 
L 2194 1759 
z
M 3341 1997 
L 3341 0 
L 2766 0 
L 2766 531 
Q 2569 213 2275 61 
Q 1981 -91 1556 -91 
Q 1019 -91 701 211 
Q 384 513 384 1019 
Q 384 1609 779 1909 
Q 1175 2209 1959 2209 
L 2766 2209 
L 2766 2266 
Q 2766 2663 2505 2880 
Q 2244 3097 1772 3097 
Q 1472 3097 1187 3025 
Q 903 2953 641 2809 
L 641 3341 
Q 956 3463 1253 3523 
Q 1550 3584 1831 3584 
Q 2591 3584 2966 3190 
Q 3341 2797 3341 1997 
z
" transform="scale(0.015625)"/>
       <path id="DejaVuSans-69" d="M 603 3500 
L 1178 3500 
L 1178 0 
L 603 0 
L 603 3500 
z
M 603 4863 
L 1178 4863 
L 1178 4134 
L 603 4134 
L 603 4863 
z
" transform="scale(0.015625)"/>
       <path id="DejaVuSans-6e" d="M 3513 2113 
L 3513 0 
L 2938 0 
L 2938 2094 
Q 2938 2591 2744 2837 
Q 2550 3084 2163 3084 
Q 1697 3084 1428 2787 
Q 1159 2491 1159 1978 
L 1159 0 
L 581 0 
L 581 3500 
L 1159 3500 
L 1159 2956 
Q 1366 3272 1645 3428 
Q 1925 3584 2291 3584 
Q 2894 3584 3203 3211 
Q 3513 2838 3513 2113 
z
" transform="scale(0.015625)"/>
       <path id="DejaVuSans-5f" d="M 3263 -1063 
L 3263 -1509 
L -63 -1509 
L -63 -1063 
L 3263 -1063 
z
" transform="scale(0.015625)"/>
       <path id="DejaVuSans-6c" d="M 603 4863 
L 1178 4863 
L 1178 0 
L 603 0 
L 603 4863 
z
" transform="scale(0.015625)"/>
       <path id="DejaVuSans-6f" d="M 1959 3097 
Q 1497 3097 1228 2736 
Q 959 2375 959 1747 
Q 959 1119 1226 758 
Q 1494 397 1959 397 
Q 2419 397 2687 759 
Q 2956 1122 2956 1747 
Q 2956 2369 2687 2733 
Q 2419 3097 1959 3097 
z
M 1959 3584 
Q 2709 3584 3137 3096 
Q 3566 2609 3566 1747 
Q 3566 888 3137 398 
Q 2709 -91 1959 -91 
Q 1206 -91 779 398 
Q 353 888 353 1747 
Q 353 2609 779 3096 
Q 1206 3584 1959 3584 
z
" transform="scale(0.015625)"/>
       <path id="DejaVuSans-73" d="M 2834 3397 
L 2834 2853 
Q 2591 2978 2328 3040 
Q 2066 3103 1784 3103 
Q 1356 3103 1142 2972 
Q 928 2841 928 2578 
Q 928 2378 1081 2264 
Q 1234 2150 1697 2047 
L 1894 2003 
Q 2506 1872 2764 1633 
Q 3022 1394 3022 966 
Q 3022 478 2636 193 
Q 2250 -91 1575 -91 
Q 1294 -91 989 -36 
Q 684 19 347 128 
L 347 722 
Q 666 556 975 473 
Q 1284 391 1588 391 
Q 1994 391 2212 530 
Q 2431 669 2431 922 
Q 2431 1156 2273 1281 
Q 2116 1406 1581 1522 
L 1381 1569 
Q 847 1681 609 1914 
Q 372 2147 372 2553 
Q 372 3047 722 3315 
Q 1072 3584 1716 3584 
Q 2034 3584 2315 3537 
Q 2597 3491 2834 3397 
z
" transform="scale(0.015625)"/>
      </defs>
      <use xlink:href="#DejaVuSans-74"/>
      <use xlink:href="#DejaVuSans-72" x="39.208984"/>
      <use xlink:href="#DejaVuSans-61" x="80.322266"/>
      <use xlink:href="#DejaVuSans-69" x="141.601562"/>
      <use xlink:href="#DejaVuSans-6e" x="169.384766"/>
      <use xlink:href="#DejaVuSans-5f" x="232.763672"/>
      <use xlink:href="#DejaVuSans-6c" x="282.763672"/>
      <use xlink:href="#DejaVuSans-6f" x="310.546875"/>
      <use xlink:href="#DejaVuSans-73" x="371.728516"/>
      <use xlink:href="#DejaVuSans-73" x="423.828125"/>
     </g>
    </g>
    <g id="line2d_16">
     <path d="M 39.103125 37.966406 
L 49.103125 37.966406 
L 59.103125 37.966406 
" style="fill: none; stroke: #ff7f0e; stroke-width: 1.5; stroke-linecap: square"/>
    </g>
    <g id="text_14">
     <!-- val_loss -->
     <g transform="translate(67.103125 41.466406) scale(0.1 -0.1)">
      <defs>
       <path id="DejaVuSans-76" d="M 191 3500 
L 800 3500 
L 1894 563 
L 2988 3500 
L 3597 3500 
L 2284 0 
L 1503 0 
L 191 3500 
z
" transform="scale(0.015625)"/>
      </defs>
      <use xlink:href="#DejaVuSans-76"/>
      <use xlink:href="#DejaVuSans-61" x="59.179688"/>
      <use xlink:href="#DejaVuSans-6c" x="120.458984"/>
      <use xlink:href="#DejaVuSans-5f" x="148.242188"/>
      <use xlink:href="#DejaVuSans-6c" x="198.242188"/>
      <use xlink:href="#DejaVuSans-6f" x="226.025391"/>
      <use xlink:href="#DejaVuSans-73" x="287.207031"/>
      <use xlink:href="#DejaVuSans-73" x="339.306641"/>
     </g>
    </g>
   </g>
  </g>
  <g id="axes_2">
   <g id="patch_8">
    <path d="M 456.212216 261.911719 
L 811.303125 261.911719 
L 811.303125 9.911719 
L 456.212216 9.911719 
z
" style="fill: #ffffff"/>
   </g>
   <g id="matplotlib.axis_3">
    <g id="xtick_7">
     <g id="line2d_17">
      <g>
       <use xlink:href="#mf9cece39c4" x="472.352712" y="261.911719" style="stroke: #000000; stroke-width: 0.8"/>
      </g>
     </g>
     <g id="text_15">
      <!-- 0 -->
      <g transform="translate(469.171462 276.510156) scale(0.1 -0.1)">
       <use xlink:href="#DejaVuSans-30"/>
      </g>
     </g>
    </g>
    <g id="xtick_8">
     <g id="line2d_18">
      <g>
       <use xlink:href="#mf9cece39c4" x="537.17398" y="261.911719" style="stroke: #000000; stroke-width: 0.8"/>
      </g>
     </g>
     <g id="text_16">
      <!-- 50 -->
      <g transform="translate(530.81148 276.510156) scale(0.1 -0.1)">
       <use xlink:href="#DejaVuSans-35"/>
       <use xlink:href="#DejaVuSans-30" x="63.623047"/>
      </g>
     </g>
    </g>
    <g id="xtick_9">
     <g id="line2d_19">
      <g>
       <use xlink:href="#mf9cece39c4" x="601.995249" y="261.911719" style="stroke: #000000; stroke-width: 0.8"/>
      </g>
     </g>
     <g id="text_17">
      <!-- 100 -->
      <g transform="translate(592.451499 276.510156) scale(0.1 -0.1)">
       <use xlink:href="#DejaVuSans-31"/>
       <use xlink:href="#DejaVuSans-30" x="63.623047"/>
       <use xlink:href="#DejaVuSans-30" x="127.246094"/>
      </g>
     </g>
    </g>
    <g id="xtick_10">
     <g id="line2d_20">
      <g>
       <use xlink:href="#mf9cece39c4" x="666.816517" y="261.911719" style="stroke: #000000; stroke-width: 0.8"/>
      </g>
     </g>
     <g id="text_18">
      <!-- 150 -->
      <g transform="translate(657.272767 276.510156) scale(0.1 -0.1)">
       <use xlink:href="#DejaVuSans-31"/>
       <use xlink:href="#DejaVuSans-35" x="63.623047"/>
       <use xlink:href="#DejaVuSans-30" x="127.246094"/>
      </g>
     </g>
    </g>
    <g id="xtick_11">
     <g id="line2d_21">
      <g>
       <use xlink:href="#mf9cece39c4" x="731.637786" y="261.911719" style="stroke: #000000; stroke-width: 0.8"/>
      </g>
     </g>
     <g id="text_19">
      <!-- 200 -->
      <g transform="translate(722.094036 276.510156) scale(0.1 -0.1)">
       <use xlink:href="#DejaVuSans-32"/>
       <use xlink:href="#DejaVuSans-30" x="63.623047"/>
       <use xlink:href="#DejaVuSans-30" x="127.246094"/>
      </g>
     </g>
    </g>
    <g id="xtick_12">
     <g id="line2d_22">
      <g>
       <use xlink:href="#mf9cece39c4" x="796.459055" y="261.911719" style="stroke: #000000; stroke-width: 0.8"/>
      </g>
     </g>
     <g id="text_20">
      <!-- 250 -->
      <g transform="translate(786.915305 276.510156) scale(0.1 -0.1)">
       <use xlink:href="#DejaVuSans-32"/>
       <use xlink:href="#DejaVuSans-35" x="63.623047"/>
       <use xlink:href="#DejaVuSans-30" x="127.246094"/>
      </g>
     </g>
    </g>
   </g>
   <g id="matplotlib.axis_4">
    <g id="ytick_7">
     <g id="line2d_23">
      <g>
       <use xlink:href="#mb96d99e219" x="456.212216" y="255.47464" style="stroke: #000000; stroke-width: 0.8"/>
      </g>
     </g>
     <g id="text_21">
      <!-- 0.5 -->
      <g transform="translate(433.309091 259.273859) scale(0.1 -0.1)">
       <use xlink:href="#DejaVuSans-30"/>
       <use xlink:href="#DejaVuSans-2e" x="63.623047"/>
       <use xlink:href="#DejaVuSans-35" x="95.410156"/>
      </g>
     </g>
    </g>
    <g id="ytick_8">
     <g id="line2d_24">
      <g>
       <use xlink:href="#mb96d99e219" x="456.212216" y="208.314672" style="stroke: #000000; stroke-width: 0.8"/>
      </g>
     </g>
     <g id="text_22">
      <!-- 0.6 -->
      <g transform="translate(433.309091 212.113891) scale(0.1 -0.1)">
       <defs>
        <path id="DejaVuSans-36" d="M 2113 2584 
Q 1688 2584 1439 2293 
Q 1191 2003 1191 1497 
Q 1191 994 1439 701 
Q 1688 409 2113 409 
Q 2538 409 2786 701 
Q 3034 994 3034 1497 
Q 3034 2003 2786 2293 
Q 2538 2584 2113 2584 
z
M 3366 4563 
L 3366 3988 
Q 3128 4100 2886 4159 
Q 2644 4219 2406 4219 
Q 1781 4219 1451 3797 
Q 1122 3375 1075 2522 
Q 1259 2794 1537 2939 
Q 1816 3084 2150 3084 
Q 2853 3084 3261 2657 
Q 3669 2231 3669 1497 
Q 3669 778 3244 343 
Q 2819 -91 2113 -91 
Q 1303 -91 875 529 
Q 447 1150 447 2328 
Q 447 3434 972 4092 
Q 1497 4750 2381 4750 
Q 2619 4750 2861 4703 
Q 3103 4656 3366 4563 
z
" transform="scale(0.015625)"/>
       </defs>
       <use xlink:href="#DejaVuSans-30"/>
       <use xlink:href="#DejaVuSans-2e" x="63.623047"/>
       <use xlink:href="#DejaVuSans-36" x="95.410156"/>
      </g>
     </g>
    </g>
    <g id="ytick_9">
     <g id="line2d_25">
      <g>
       <use xlink:href="#mb96d99e219" x="456.212216" y="161.154705" style="stroke: #000000; stroke-width: 0.8"/>
      </g>
     </g>
     <g id="text_23">
      <!-- 0.7 -->
      <g transform="translate(433.309091 164.953923) scale(0.1 -0.1)">
       <defs>
        <path id="DejaVuSans-37" d="M 525 4666 
L 3525 4666 
L 3525 4397 
L 1831 0 
L 1172 0 
L 2766 4134 
L 525 4134 
L 525 4666 
z
" transform="scale(0.015625)"/>
       </defs>
       <use xlink:href="#DejaVuSans-30"/>
       <use xlink:href="#DejaVuSans-2e" x="63.623047"/>
       <use xlink:href="#DejaVuSans-37" x="95.410156"/>
      </g>
     </g>
    </g>
    <g id="ytick_10">
     <g id="line2d_26">
      <g>
       <use xlink:href="#mb96d99e219" x="456.212216" y="113.994737" style="stroke: #000000; stroke-width: 0.8"/>
      </g>
     </g>
     <g id="text_24">
      <!-- 0.8 -->
      <g transform="translate(433.309091 117.793956) scale(0.1 -0.1)">
       <defs>
        <path id="DejaVuSans-38" d="M 2034 2216 
Q 1584 2216 1326 1975 
Q 1069 1734 1069 1313 
Q 1069 891 1326 650 
Q 1584 409 2034 409 
Q 2484 409 2743 651 
Q 3003 894 3003 1313 
Q 3003 1734 2745 1975 
Q 2488 2216 2034 2216 
z
M 1403 2484 
Q 997 2584 770 2862 
Q 544 3141 544 3541 
Q 544 4100 942 4425 
Q 1341 4750 2034 4750 
Q 2731 4750 3128 4425 
Q 3525 4100 3525 3541 
Q 3525 3141 3298 2862 
Q 3072 2584 2669 2484 
Q 3125 2378 3379 2068 
Q 3634 1759 3634 1313 
Q 3634 634 3220 271 
Q 2806 -91 2034 -91 
Q 1263 -91 848 271 
Q 434 634 434 1313 
Q 434 1759 690 2068 
Q 947 2378 1403 2484 
z
M 1172 3481 
Q 1172 3119 1398 2916 
Q 1625 2713 2034 2713 
Q 2441 2713 2670 2916 
Q 2900 3119 2900 3481 
Q 2900 3844 2670 4047 
Q 2441 4250 2034 4250 
Q 1625 4250 1398 4047 
Q 1172 3844 1172 3481 
z
" transform="scale(0.015625)"/>
       </defs>
       <use xlink:href="#DejaVuSans-30"/>
       <use xlink:href="#DejaVuSans-2e" x="63.623047"/>
       <use xlink:href="#DejaVuSans-38" x="95.410156"/>
      </g>
     </g>
    </g>
    <g id="ytick_11">
     <g id="line2d_27">
      <g>
       <use xlink:href="#mb96d99e219" x="456.212216" y="66.834769" style="stroke: #000000; stroke-width: 0.8"/>
      </g>
     </g>
     <g id="text_25">
      <!-- 0.9 -->
      <g transform="translate(433.309091 70.633988) scale(0.1 -0.1)">
       <defs>
        <path id="DejaVuSans-39" d="M 703 97 
L 703 672 
Q 941 559 1184 500 
Q 1428 441 1663 441 
Q 2288 441 2617 861 
Q 2947 1281 2994 2138 
Q 2813 1869 2534 1725 
Q 2256 1581 1919 1581 
Q 1219 1581 811 2004 
Q 403 2428 403 3163 
Q 403 3881 828 4315 
Q 1253 4750 1959 4750 
Q 2769 4750 3195 4129 
Q 3622 3509 3622 2328 
Q 3622 1225 3098 567 
Q 2575 -91 1691 -91 
Q 1453 -91 1209 -44 
Q 966 3 703 97 
z
M 1959 2075 
Q 2384 2075 2632 2365 
Q 2881 2656 2881 3163 
Q 2881 3666 2632 3958 
Q 2384 4250 1959 4250 
Q 1534 4250 1286 3958 
Q 1038 3666 1038 3163 
Q 1038 2656 1286 2365 
Q 1534 2075 1959 2075 
z
" transform="scale(0.015625)"/>
       </defs>
       <use xlink:href="#DejaVuSans-30"/>
       <use xlink:href="#DejaVuSans-2e" x="63.623047"/>
       <use xlink:href="#DejaVuSans-39" x="95.410156"/>
      </g>
     </g>
    </g>
    <g id="ytick_12">
     <g id="line2d_28">
      <g>
       <use xlink:href="#mb96d99e219" x="456.212216" y="19.674801" style="stroke: #000000; stroke-width: 0.8"/>
      </g>
     </g>
     <g id="text_26">
      <!-- 1.0 -->
      <g transform="translate(433.309091 23.47402) scale(0.1 -0.1)">
       <use xlink:href="#DejaVuSans-31"/>
       <use xlink:href="#DejaVuSans-2e" x="63.623047"/>
       <use xlink:href="#DejaVuSans-30" x="95.410156"/>
      </g>
     </g>
    </g>
   </g>
   <g id="line2d_29">
    <path d="M 472.352712 250.457173 
L 473.649137 123.228403 
L 474.945563 98.382276 
L 476.241988 86.682948 
L 477.538413 77.781053 
L 478.834839 72.777135 
L 480.131264 67.052179 
L 481.427689 63.647553 
L 482.724115 59.679106 
L 484.02054 57.136486 
L 485.316965 55.293204 
L 486.613391 53.211412 
L 487.909816 51.547046 
L 489.206242 48.966479 
L 490.502667 48.684568 
L 493.095518 44.477584 
L 494.391943 43.45836 
L 495.688368 42.731897 
L 496.984794 42.433711 
L 498.281219 40.964539 
L 499.577645 40.080831 
L 500.87407 40.145905 
L 502.170495 38.318898 
L 503.466921 37.896018 
L 504.763346 38.313473 
L 506.059771 36.714181 
L 507.356197 35.510615 
L 508.652622 36.003965 
L 509.949048 36.014816 
L 512.541898 34.144435 
L 513.838324 34.681159 
L 515.134749 33.911323 
L 516.431174 33.640263 
L 517.7276 33.108965 
L 519.024025 33.011368 
L 520.320451 32.658987 
L 521.616876 31.590966 
L 522.913301 32.127689 
L 524.209727 31.330756 
L 525.506152 32.257808 
L 526.802577 31.249435 
L 528.099003 31.146413 
L 529.395428 29.980824 
L 530.691853 30.474174 
L 531.988279 30.669338 
L 533.284704 30.457899 
L 535.877555 30.517547 
L 538.470406 28.983301 
L 539.766831 29.997099 
L 541.063256 28.798958 
L 542.359682 28.999548 
L 543.656107 28.766436 
L 544.952533 28.815234 
L 546.248958 29.17304 
L 547.545383 28.560421 
L 550.138234 28.446577 
L 551.434659 28.733913 
L 552.731085 28.126719 
L 554.02751 27.980353 
L 555.323936 28.70139 
L 556.620361 27.50325 
L 557.916786 28.370682 
L 560.509637 26.657518 
L 561.806062 27.833958 
L 563.102488 27.210517 
L 564.398913 26.944854 
L 565.695338 27.394831 
L 566.991764 27.161719 
L 568.288189 26.315987 
L 569.584615 26.77139 
L 570.88104 26.84186 
L 572.177465 26.473204 
L 573.473891 27.134621 
L 576.066741 26.397308 
L 577.363167 25.860585 
L 578.659592 26.738839 
L 579.956018 25.85516 
L 581.252443 26.63042 
L 582.548868 26.652093 
L 585.141719 26.120823 
L 586.438144 26.158771 
L 587.73457 26.082875 
L 589.030995 26.565375 
L 590.327421 24.97148 
L 592.920271 26.511152 
L 594.216697 26.511152 
L 596.809547 24.543203 
L 598.105973 26.473204 
L 599.402398 25.779264 
L 600.698823 25.903958 
L 601.995249 25.59495 
L 603.291674 26.061174 
L 604.5881 25.860585 
L 605.884525 25.470256 
L 607.18095 24.732943 
L 608.477376 25.87686 
L 609.773801 23.551078 
L 611.070226 26.142495 
L 612.366652 24.711242 
L 613.663077 26.814735 
L 614.959503 24.402234 
L 616.255928 26.023226 
L 617.552353 24.716667 
L 618.848779 24.570301 
L 620.145204 25.768414 
L 621.441629 23.778793 
L 622.738055 25.898533 
L 624.03448 24.451032 
L 625.330906 24.993153 
L 626.627331 24.852212 
L 627.923756 25.031129 
L 629.220182 24.819689 
L 630.516607 25.123272 
L 631.813032 24.543203 
L 633.109458 24.770891 
L 634.405883 24.125749 
L 635.702309 25.237115 
L 636.998734 25.367234 
L 638.295159 25.014853 
L 639.591585 24.039003 
L 640.88801 24.884734 
L 642.184435 24.879309 
L 643.480861 25.144972 
L 644.777286 24.781741 
L 646.073711 23.236644 
L 647.370137 25.356412 
L 648.666562 24.391384 
L 649.962988 24.022727 
L 651.259413 25.757591 
L 652.555838 23.881786 
L 653.852264 24.890159 
L 655.148689 24.602824 
L 656.445114 23.014354 
L 657.74154 25.367234 
L 659.037965 23.263742 
L 660.334391 25.014853 
L 661.630816 23.773368 
L 662.927241 25.220868 
L 664.223667 24.369711 
L 665.520092 23.383011 
L 666.816517 24.49983 
L 669.409368 24.239592 
L 670.705794 24.68957 
L 672.002219 24.136599 
L 673.298644 23.420959 
L 674.59507 23.469757 
L 675.891495 25.025704 
L 677.18792 23.5836 
L 678.484346 24.011905 
L 679.780771 23.838413 
L 681.077196 23.838413 
L 683.670047 24.781741 
L 684.966473 23.941435 
L 686.262898 22.911361 
L 687.559323 24.732943 
L 688.855749 24.022727 
L 691.448599 24.039003 
L 692.745025 23.014354 
L 694.04145 23.5836 
L 695.337876 25.036526 
L 696.634301 22.998107 
L 697.930726 24.337189 
L 699.227152 23.106525 
L 700.523577 24.326338 
L 701.820002 23.426384 
L 703.116428 24.651622 
L 704.412853 23.036055 
L 705.709279 24.049853 
L 707.005704 23.957682 
L 708.302129 24.185369 
L 709.598555 23.469757 
L 710.89498 23.426384 
L 712.191405 23.702869 
L 713.487831 23.214944 
L 714.784256 24.505256 
L 716.080682 22.748719 
L 717.377107 23.453509 
L 718.673532 23.540227 
L 719.969958 24.310063 
L 721.266383 24.071525 
L 722.562808 23.632398 
L 725.155659 23.751667 
L 726.452084 23.285442 
L 727.74851 24.076951 
L 729.044935 22.705346 
L 730.341361 23.79504 
L 731.637786 22.981831 
L 732.934211 23.437234 
L 734.230637 24.440182 
L 735.527062 23.074003 
L 736.823487 23.838413 
L 738.119913 23.637824 
L 739.416338 23.214944 
L 740.712764 23.334241 
L 742.009189 23.767943 
L 744.60204 23.008957 
L 745.898465 23.328815 
L 747.19489 23.903459 
L 748.491316 22.60775 
L 749.787741 23.757092 
L 751.084167 24.098651 
L 752.380592 22.255369 
L 753.677017 23.529405 
L 754.973443 23.160749 
L 756.269868 22.434286 
L 757.566293 23.502279 
L 760.159144 23.464332 
L 761.455569 22.515607 
L 762.751995 23.800465 
L 764.04842 22.531854 
L 765.344846 23.556503 
L 766.641271 23.973957 
L 767.937696 22.34754 
L 769.234122 23.415561 
L 770.530547 23.496854 
L 771.826972 24.147421 
L 773.123398 22.293317 
L 774.419823 22.526429 
L 775.716249 24.48898 
L 777.012674 22.320442 
L 778.309099 23.632398 
L 779.605525 23.144473 
L 780.90195 22.824615 
L 782.198375 23.32339 
L 783.494801 22.374637 
L 784.791226 24.147421 
L 786.087652 23.285442 
L 787.384077 23.03063 
L 788.680502 23.621548 
L 789.976928 21.989734 
L 791.273353 24.667897 
L 792.569778 21.366264 
L 793.866204 24.41851 
L 795.162629 23.242069 
L 795.162629 23.242069 
" clip-path="url(#p34931c825d)" style="fill: none; stroke: #1f77b4; stroke-width: 1.5; stroke-linecap: square"/>
   </g>
   <g id="line2d_30">
    <path d="M 472.352712 166.830334 
L 474.945563 112.053065 
L 476.241988 116.75787 
L 477.538413 108.991235 
L 480.131264 95.474261 
L 481.427689 91.441583 
L 482.724115 92.11371 
L 484.02054 87.035526 
L 485.316965 85.09386 
L 486.613391 91.030846 
L 487.909816 84.83247 
L 489.206242 87.072856 
L 490.502667 91.553599 
L 491.799092 87.408905 
L 493.095518 81.919985 
L 494.391943 80.986496 
L 495.688368 80.762463 
L 496.984794 81.061183 
L 498.281219 81.957315 
L 499.577645 77.551258 
L 500.87407 84.907157 
L 502.170495 81.173199 
L 503.466921 80.090336 
L 504.763346 78.522077 
L 506.059771 86.064679 
L 507.356197 83.114865 
L 508.652622 74.750762 
L 509.949048 79.903632 
L 511.245473 79.94099 
L 512.541898 82.218705 
L 513.838324 80.874479 
L 515.134749 78.44739 
L 516.431174 77.103164 
L 517.7276 74.638745 
L 519.024025 86.363399 
L 520.320451 77.364555 
L 521.616876 78.484747 
L 522.913301 72.92114 
L 524.209727 80.650446 
L 525.506152 74.900136 
L 526.802577 84.981844 
L 528.099003 73.817272 
L 529.395428 73.742613 
L 530.691853 71.950293 
L 531.988279 78.634093 
L 533.284704 74.45207 
L 534.58113 78.44739 
L 535.877555 75.758938 
L 537.17398 75.460218 
L 538.470406 72.697079 
L 539.766831 78.783467 
L 541.063256 80.463743 
L 542.359682 73.779943 
L 543.656107 77.924637 
L 544.952533 80.389056 
L 546.248958 77.140522 
L 547.545383 83.861651 
L 548.841809 81.023825 
L 550.138234 79.119517 
L 551.434659 75.646922 
L 552.731085 73.817272 
L 554.02751 74.788119 
L 555.323936 73.891959 
L 556.620361 83.89898 
L 557.916786 74.377383 
L 559.213212 84.160371 
L 560.509637 70.568738 
L 561.806062 72.3237 
L 563.102488 85.6913 
L 564.398913 77.140522 
L 565.695338 78.970143 
L 566.991764 72.398387 
L 568.288189 72.995799 
L 569.584615 79.94099 
L 570.88104 72.697079 
L 572.177465 72.473046 
L 573.473891 78.186027 
L 574.770316 77.439213 
L 576.066741 72.883783 
L 577.363167 74.265366 
L 578.659592 74.115992 
L 579.956018 76.393708 
L 581.252443 76.655098 
L 582.548868 80.650446 
L 583.845294 75.870955 
L 585.141719 75.982971 
L 586.438144 71.912964 
L 587.73457 71.912964 
L 589.030995 73.966646 
L 590.327421 73.518552 
L 591.623846 77.439213 
L 592.920271 71.464898 
L 594.216697 73.518552 
L 595.513122 73.593239 
L 596.809547 79.716957 
L 598.105973 72.36103 
L 599.402398 72.883783 
L 600.698823 76.319049 
L 601.995249 78.783467 
L 603.291674 76.655098 
L 604.5881 69.075138 
L 605.884525 70.979474 
L 607.18095 71.651573 
L 608.477376 72.473046 
L 609.773801 71.502227 
L 611.070226 76.393708 
L 612.366652 70.979474 
L 613.663077 73.929289 
L 614.959503 74.862778 
L 616.255928 73.630597 
L 617.552353 74.825449 
L 618.848779 76.244362 
L 620.145204 74.900136 
L 621.441629 76.020329 
L 622.738055 75.460218 
L 624.03448 80.165023 
L 625.330906 73.55591 
L 626.627331 82.517425 
L 627.923756 71.651573 
L 629.220182 78.783467 
L 630.516607 84.83247 
L 631.813032 76.879131 
L 633.109458 77.177851 
L 634.405883 71.950293 
L 635.702309 70.382035 
L 636.998734 75.086839 
L 638.295159 80.53843 
L 639.591585 74.377383 
L 640.88801 73.630597 
L 642.184435 73.033157 
L 643.480861 76.207032 
L 644.777286 77.401884 
L 646.073711 75.273515 
L 647.370137 72.435717 
L 648.666562 74.45207 
L 649.962988 73.331877 
L 651.259413 75.534905 
L 652.555838 82.106689 
L 653.852264 70.979474 
L 655.148689 77.737933 
L 656.445114 75.236185 
L 657.74154 70.867458 
L 659.037965 73.705256 
L 660.334391 74.974823 
L 661.630816 72.734437 
L 662.927241 72.585063 
L 664.223667 71.091491 
L 665.520092 82.106689 
L 668.112943 78.11134 
L 669.409368 76.244362 
L 670.705794 71.352853 
L 672.002219 72.547733 
L 673.298644 74.377383 
L 674.59507 74.788119 
L 675.891495 74.190679 
L 677.18792 75.348202 
L 678.484346 73.891959 
L 679.780771 79.268863 
L 681.077196 75.684251 
L 682.373622 74.340025 
L 683.670047 77.999324 
L 684.966473 73.25719 
L 686.262898 72.286343 
L 687.559323 74.601416 
L 688.855749 76.132345 
L 690.152174 76.244362 
L 691.448599 72.510404 
L 692.745025 71.688931 
L 694.04145 76.020329 
L 695.337876 71.76359 
L 696.634301 71.166178 
L 697.930726 74.676103 
L 699.227152 74.713432 
L 700.523577 72.734437 
L 701.820002 74.974823 
L 703.116428 75.796296 
L 704.412853 72.286343 
L 705.709279 80.650446 
L 707.005704 78.41006 
L 708.302129 75.385559 
L 709.598555 75.870955 
L 710.89498 74.078663 
L 712.191405 79.0075 
L 713.487831 74.115992 
L 714.784256 74.713432 
L 716.080682 72.809124 
L 717.377107 72.510404 
L 718.673532 77.5139 
L 719.969958 73.145173 
L 721.266383 72.211684 
L 722.562808 77.999324 
L 723.859234 75.609592 
L 725.155659 72.734437 
L 726.452084 70.568738 
L 727.74851 69.821952 
L 729.044935 78.335373 
L 730.341361 72.809124 
L 731.637786 78.223357 
L 732.934211 71.987651 
L 734.230637 69.597891 
L 735.527062 72.3237 
L 736.823487 74.564086 
L 738.119913 71.016804 
L 739.416338 71.76359 
L 740.712764 75.422889 
L 742.009189 71.688931 
L 743.305614 70.270018 
L 744.60204 70.270018 
L 745.898465 76.505724 
L 747.19489 72.473046 
L 748.491316 73.070486 
L 749.787741 72.510404 
L 751.084167 72.92114 
L 752.380592 75.049482 
L 753.677017 73.107816 
L 754.973443 75.422889 
L 756.269868 73.518552 
L 757.566293 69.709908 
L 758.862719 74.003976 
L 760.159144 70.045985 
L 761.455569 80.874479 
L 762.751995 78.820797 
L 764.04842 69.411216 
L 765.344846 78.932813 
L 766.641271 73.593239 
L 767.937696 76.319049 
L 769.234122 78.335373 
L 770.530547 78.484747 
L 771.826972 72.3237 
L 773.123398 69.485875 
L 774.419823 71.614244 
L 775.716249 73.182503 
L 777.012674 72.809124 
L 778.309099 74.825449 
L 779.605525 71.539557 
L 780.90195 67.432192 
L 782.198375 71.016804 
L 783.494801 73.25719 
L 784.791226 70.120644 
L 786.087652 72.809124 
L 787.384077 72.995799 
L 788.680502 75.385559 
L 789.976928 72.286343 
L 791.273353 69.523232 
L 792.569778 76.543082 
L 793.866204 73.145173 
L 795.162629 77.103164 
L 795.162629 77.103164 
" clip-path="url(#p34931c825d)" style="fill: none; stroke: #ff7f0e; stroke-width: 1.5; stroke-linecap: square"/>
   </g>
   <g id="patch_9">
    <path d="M 456.212216 261.911719 
L 456.212216 9.911719 
" style="fill: none; stroke: #000000; stroke-width: 0.8; stroke-linejoin: miter; stroke-linecap: square"/>
   </g>
   <g id="patch_10">
    <path d="M 811.303125 261.911719 
L 811.303125 9.911719 
" style="fill: none; stroke: #000000; stroke-width: 0.8; stroke-linejoin: miter; stroke-linecap: square"/>
   </g>
   <g id="patch_11">
    <path d="M 456.212216 261.911719 
L 811.303125 261.911719 
" style="fill: none; stroke: #000000; stroke-width: 0.8; stroke-linejoin: miter; stroke-linecap: square"/>
   </g>
   <g id="patch_12">
    <path d="M 456.212216 9.911719 
L 811.303125 9.911719 
" style="fill: none; stroke: #000000; stroke-width: 0.8; stroke-linejoin: miter; stroke-linecap: square"/>
   </g>
   <g id="legend_2">
    <g id="patch_13">
     <path d="M 726.903125 256.911719 
L 804.303125 256.911719 
Q 806.303125 256.911719 806.303125 254.911719 
L 806.303125 225.999219 
Q 806.303125 223.999219 804.303125 223.999219 
L 726.903125 223.999219 
Q 724.903125 223.999219 724.903125 225.999219 
L 724.903125 254.911719 
Q 724.903125 256.911719 726.903125 256.911719 
z
" style="fill: #ffffff; opacity: 0.8; stroke: #cccccc; stroke-linejoin: miter"/>
    </g>
    <g id="line2d_31">
     <path d="M 728.903125 232.097656 
L 738.903125 232.097656 
L 748.903125 232.097656 
" style="fill: none; stroke: #1f77b4; stroke-width: 1.5; stroke-linecap: square"/>
    </g>
    <g id="text_27">
     <!-- train_acc -->
     <g transform="translate(756.903125 235.597656) scale(0.1 -0.1)">
      <defs>
       <path id="DejaVuSans-63" d="M 3122 3366 
L 3122 2828 
Q 2878 2963 2633 3030 
Q 2388 3097 2138 3097 
Q 1578 3097 1268 2742 
Q 959 2388 959 1747 
Q 959 1106 1268 751 
Q 1578 397 2138 397 
Q 2388 397 2633 464 
Q 2878 531 3122 666 
L 3122 134 
Q 2881 22 2623 -34 
Q 2366 -91 2075 -91 
Q 1284 -91 818 406 
Q 353 903 353 1747 
Q 353 2603 823 3093 
Q 1294 3584 2113 3584 
Q 2378 3584 2631 3529 
Q 2884 3475 3122 3366 
z
" transform="scale(0.015625)"/>
      </defs>
      <use xlink:href="#DejaVuSans-74"/>
      <use xlink:href="#DejaVuSans-72" x="39.208984"/>
      <use xlink:href="#DejaVuSans-61" x="80.322266"/>
      <use xlink:href="#DejaVuSans-69" x="141.601562"/>
      <use xlink:href="#DejaVuSans-6e" x="169.384766"/>
      <use xlink:href="#DejaVuSans-5f" x="232.763672"/>
      <use xlink:href="#DejaVuSans-61" x="282.763672"/>
      <use xlink:href="#DejaVuSans-63" x="344.042969"/>
      <use xlink:href="#DejaVuSans-63" x="399.023438"/>
     </g>
    </g>
    <g id="line2d_32">
     <path d="M 728.903125 247.053906 
L 738.903125 247.053906 
L 748.903125 247.053906 
" style="fill: none; stroke: #ff7f0e; stroke-width: 1.5; stroke-linecap: square"/>
    </g>
    <g id="text_28">
     <!-- val_acc -->
     <g transform="translate(756.903125 250.553906) scale(0.1 -0.1)">
      <use xlink:href="#DejaVuSans-76"/>
      <use xlink:href="#DejaVuSans-61" x="59.179688"/>
      <use xlink:href="#DejaVuSans-6c" x="120.458984"/>
      <use xlink:href="#DejaVuSans-5f" x="148.242188"/>
      <use xlink:href="#DejaVuSans-61" x="198.242188"/>
      <use xlink:href="#DejaVuSans-63" x="259.521484"/>
      <use xlink:href="#DejaVuSans-63" x="314.501953"/>
     </g>
    </g>
   </g>
  </g>
 </g>
 <defs>
  <clipPath id="p80400e92a6">
   <rect x="30.103125" y="9.911719" width="355.090909" height="252"/>
  </clipPath>
  <clipPath id="p34931c825d">
   <rect x="456.212216" y="9.911719" width="355.090909" height="252"/>
  </clipPath>
 </defs>
</svg>
