<?xml version="1.0" encoding="utf-8" standalone="no"?>
<!DOCTYPE svg PUBLIC "-//W3C//DTD SVG 1.1//EN"
  "http://www.w3.org/Graphics/SVG/1.1/DTD/svg11.dtd">
<svg xmlns:xlink="http://www.w3.org/1999/xlink" width="818.503125pt" height="283.078125pt" viewBox="0 0 818.503125 283.078125" xmlns="http://www.w3.org/2000/svg" version="1.1">
 <metadata>
  <rdf:RDF xmlns:dc="http://purl.org/dc/elements/1.1/" xmlns:cc="http://creativecommons.org/ns#" xmlns:rdf="http://www.w3.org/1999/02/22-rdf-syntax-ns#">
   <cc:Work>
    <dc:type rdf:resource="http://purl.org/dc/dcmitype/StillImage"/>
    <dc:date>2023-01-23T22:25:22.374375</dc:date>
    <dc:format>image/svg+xml</dc:format>
    <dc:creator>
     <cc:Agent>
      <dc:title>Matplotlib v3.6.2, https://matplotlib.org/</dc:title>
     </cc:Agent>
    </dc:creator>
   </cc:Work>
  </rdf:RDF>
 </metadata>
 <defs>
  <style type="text/css">*{stroke-linejoin: round; stroke-linecap: butt}</style>
 </defs>
 <g id="figure_1">
  <g id="patch_1">
   <path d="M 0 283.078125 
L 818.503125 283.078125 
L 818.503125 0 
L 0 0 
z
" style="fill: #ffffff"/>
  </g>
  <g id="axes_1">
   <g id="patch_2">
    <path d="M 30.103125 259.2 
L 385.194034 259.2 
L 385.194034 7.2 
L 30.103125 7.2 
z
" style="fill: #ffffff"/>
   </g>
   <g id="matplotlib.axis_1">
    <g id="xtick_1">
     <g id="line2d_1">
      <defs>
       <path id="m4e2b61997c" d="M 0 0 
L 0 3.5 
" style="stroke: #000000; stroke-width: 0.8"/>
      </defs>
      <g>
       <use xlink:href="#m4e2b61997c" x="46.243621" y="259.2" style="stroke: #000000; stroke-width: 0.8"/>
      </g>
     </g>
     <g id="text_1">
      <!-- 0 -->
      <g transform="translate(43.062371 273.798437) scale(0.1 -0.1)">
       <defs>
        <path id="DejaVuSans-30" d="M 2034 4250 
Q 1547 4250 1301 3770 
Q 1056 3291 1056 2328 
Q 1056 1369 1301 889 
Q 1547 409 2034 409 
Q 2525 409 2770 889 
Q 3016 1369 3016 2328 
Q 3016 3291 2770 3770 
Q 2525 4250 2034 4250 
z
M 2034 4750 
Q 2819 4750 3233 4129 
Q 3647 3509 3647 2328 
Q 3647 1150 3233 529 
Q 2819 -91 2034 -91 
Q 1250 -91 836 529 
Q 422 1150 422 2328 
Q 422 3509 836 4129 
Q 1250 4750 2034 4750 
z
" transform="scale(0.015625)"/>
       </defs>
       <use xlink:href="#DejaVuSans-30"/>
      </g>
     </g>
    </g>
    <g id="xtick_2">
     <g id="line2d_2">
      <g>
       <use xlink:href="#m4e2b61997c" x="111.064889" y="259.2" style="stroke: #000000; stroke-width: 0.8"/>
      </g>
     </g>
     <g id="text_2">
      <!-- 50 -->
      <g transform="translate(104.702389 273.798437) scale(0.1 -0.1)">
       <defs>
        <path id="DejaVuSans-35" d="M 691 4666 
L 3169 4666 
L 3169 4134 
L 1269 4134 
L 1269 2991 
Q 1406 3038 1543 3061 
Q 1681 3084 1819 3084 
Q 2600 3084 3056 2656 
Q 3513 2228 3513 1497 
Q 3513 744 3044 326 
Q 2575 -91 1722 -91 
Q 1428 -91 1123 -41 
Q 819 9 494 109 
L 494 744 
Q 775 591 1075 516 
Q 1375 441 1709 441 
Q 2250 441 2565 725 
Q 2881 1009 2881 1497 
Q 2881 1984 2565 2268 
Q 2250 2553 1709 2553 
Q 1456 2553 1204 2497 
Q 953 2441 691 2322 
L 691 4666 
z
" transform="scale(0.015625)"/>
       </defs>
       <use xlink:href="#DejaVuSans-35"/>
       <use xlink:href="#DejaVuSans-30" x="63.623047"/>
      </g>
     </g>
    </g>
    <g id="xtick_3">
     <g id="line2d_3">
      <g>
       <use xlink:href="#m4e2b61997c" x="175.886158" y="259.2" style="stroke: #000000; stroke-width: 0.8"/>
      </g>
     </g>
     <g id="text_3">
      <!-- 100 -->
      <g transform="translate(166.342408 273.798437) scale(0.1 -0.1)">
       <defs>
        <path id="DejaVuSans-31" d="M 794 531 
L 1825 531 
L 1825 4091 
L 703 3866 
L 703 4441 
L 1819 4666 
L 2450 4666 
L 2450 531 
L 3481 531 
L 3481 0 
L 794 0 
L 794 531 
z
" transform="scale(0.015625)"/>
       </defs>
       <use xlink:href="#DejaVuSans-31"/>
       <use xlink:href="#DejaVuSans-30" x="63.623047"/>
       <use xlink:href="#DejaVuSans-30" x="127.246094"/>
      </g>
     </g>
    </g>
    <g id="xtick_4">
     <g id="line2d_4">
      <g>
       <use xlink:href="#m4e2b61997c" x="240.707427" y="259.2" style="stroke: #000000; stroke-width: 0.8"/>
      </g>
     </g>
     <g id="text_4">
      <!-- 150 -->
      <g transform="translate(231.163677 273.798437) scale(0.1 -0.1)">
       <use xlink:href="#DejaVuSans-31"/>
       <use xlink:href="#DejaVuSans-35" x="63.623047"/>
       <use xlink:href="#DejaVuSans-30" x="127.246094"/>
      </g>
     </g>
    </g>
    <g id="xtick_5">
     <g id="line2d_5">
      <g>
       <use xlink:href="#m4e2b61997c" x="305.528695" y="259.2" style="stroke: #000000; stroke-width: 0.8"/>
      </g>
     </g>
     <g id="text_5">
      <!-- 200 -->
      <g transform="translate(295.984945 273.798437) scale(0.1 -0.1)">
       <defs>
        <path id="DejaVuSans-32" d="M 1228 531 
L 3431 531 
L 3431 0 
L 469 0 
L 469 531 
Q 828 903 1448 1529 
Q 2069 2156 2228 2338 
Q 2531 2678 2651 2914 
Q 2772 3150 2772 3378 
Q 2772 3750 2511 3984 
Q 2250 4219 1831 4219 
Q 1534 4219 1204 4116 
Q 875 4013 500 3803 
L 500 4441 
Q 881 4594 1212 4672 
Q 1544 4750 1819 4750 
Q 2544 4750 2975 4387 
Q 3406 4025 3406 3419 
Q 3406 3131 3298 2873 
Q 3191 2616 2906 2266 
Q 2828 2175 2409 1742 
Q 1991 1309 1228 531 
z
" transform="scale(0.015625)"/>
       </defs>
       <use xlink:href="#DejaVuSans-32"/>
       <use xlink:href="#DejaVuSans-30" x="63.623047"/>
       <use xlink:href="#DejaVuSans-30" x="127.246094"/>
      </g>
     </g>
    </g>
    <g id="xtick_6">
     <g id="line2d_6">
      <g>
       <use xlink:href="#m4e2b61997c" x="370.349964" y="259.2" style="stroke: #000000; stroke-width: 0.8"/>
      </g>
     </g>
     <g id="text_6">
      <!-- 250 -->
      <g transform="translate(360.806214 273.798437) scale(0.1 -0.1)">
       <use xlink:href="#DejaVuSans-32"/>
       <use xlink:href="#DejaVuSans-35" x="63.623047"/>
       <use xlink:href="#DejaVuSans-30" x="127.246094"/>
      </g>
     </g>
    </g>
   </g>
   <g id="matplotlib.axis_2">
    <g id="ytick_1">
     <g id="line2d_7">
      <defs>
       <path id="me25c4e1b6e" d="M 0 0 
L -3.5 0 
" style="stroke: #000000; stroke-width: 0.8"/>
      </defs>
      <g>
       <use xlink:href="#me25c4e1b6e" x="30.103125" y="242.139616" style="stroke: #000000; stroke-width: 0.8"/>
      </g>
     </g>
     <g id="text_7">
      <!-- 3.4 -->
      <g transform="translate(7.2 245.938835) scale(0.1 -0.1)">
       <defs>
        <path id="DejaVuSans-33" d="M 2597 2516 
Q 3050 2419 3304 2112 
Q 3559 1806 3559 1356 
Q 3559 666 3084 287 
Q 2609 -91 1734 -91 
Q 1441 -91 1130 -33 
Q 819 25 488 141 
L 488 750 
Q 750 597 1062 519 
Q 1375 441 1716 441 
Q 2309 441 2620 675 
Q 2931 909 2931 1356 
Q 2931 1769 2642 2001 
Q 2353 2234 1838 2234 
L 1294 2234 
L 1294 2753 
L 1863 2753 
Q 2328 2753 2575 2939 
Q 2822 3125 2822 3475 
Q 2822 3834 2567 4026 
Q 2313 4219 1838 4219 
Q 1578 4219 1281 4162 
Q 984 4106 628 3988 
L 628 4550 
Q 988 4650 1302 4700 
Q 1616 4750 1894 4750 
Q 2613 4750 3031 4423 
Q 3450 4097 3450 3541 
Q 3450 3153 3228 2886 
Q 3006 2619 2597 2516 
z
" transform="scale(0.015625)"/>
        <path id="DejaVuSans-2e" d="M 684 794 
L 1344 794 
L 1344 0 
L 684 0 
L 684 794 
z
" transform="scale(0.015625)"/>
        <path id="DejaVuSans-34" d="M 2419 4116 
L 825 1625 
L 2419 1625 
L 2419 4116 
z
M 2253 4666 
L 3047 4666 
L 3047 1625 
L 3713 1625 
L 3713 1100 
L 3047 1100 
L 3047 0 
L 2419 0 
L 2419 1100 
L 313 1100 
L 313 1709 
L 2253 4666 
z
" transform="scale(0.015625)"/>
       </defs>
       <use xlink:href="#DejaVuSans-33"/>
       <use xlink:href="#DejaVuSans-2e" x="63.623047"/>
       <use xlink:href="#DejaVuSans-34" x="95.410156"/>
      </g>
     </g>
    </g>
    <g id="ytick_2">
     <g id="line2d_8">
      <g>
       <use xlink:href="#me25c4e1b6e" x="30.103125" y="209.674783" style="stroke: #000000; stroke-width: 0.8"/>
      </g>
     </g>
     <g id="text_8">
      <!-- 3.6 -->
      <g transform="translate(7.2 213.474002) scale(0.1 -0.1)">
       <defs>
        <path id="DejaVuSans-36" d="M 2113 2584 
Q 1688 2584 1439 2293 
Q 1191 2003 1191 1497 
Q 1191 994 1439 701 
Q 1688 409 2113 409 
Q 2538 409 2786 701 
Q 3034 994 3034 1497 
Q 3034 2003 2786 2293 
Q 2538 2584 2113 2584 
z
M 3366 4563 
L 3366 3988 
Q 3128 4100 2886 4159 
Q 2644 4219 2406 4219 
Q 1781 4219 1451 3797 
Q 1122 3375 1075 2522 
Q 1259 2794 1537 2939 
Q 1816 3084 2150 3084 
Q 2853 3084 3261 2657 
Q 3669 2231 3669 1497 
Q 3669 778 3244 343 
Q 2819 -91 2113 -91 
Q 1303 -91 875 529 
Q 447 1150 447 2328 
Q 447 3434 972 4092 
Q 1497 4750 2381 4750 
Q 2619 4750 2861 4703 
Q 3103 4656 3366 4563 
z
" transform="scale(0.015625)"/>
       </defs>
       <use xlink:href="#DejaVuSans-33"/>
       <use xlink:href="#DejaVuSans-2e" x="63.623047"/>
       <use xlink:href="#DejaVuSans-36" x="95.410156"/>
      </g>
     </g>
    </g>
    <g id="ytick_3">
     <g id="line2d_9">
      <g>
       <use xlink:href="#me25c4e1b6e" x="30.103125" y="177.20995" style="stroke: #000000; stroke-width: 0.8"/>
      </g>
     </g>
     <g id="text_9">
      <!-- 3.8 -->
      <g transform="translate(7.2 181.009169) scale(0.1 -0.1)">
       <defs>
        <path id="DejaVuSans-38" d="M 2034 2216 
Q 1584 2216 1326 1975 
Q 1069 1734 1069 1313 
Q 1069 891 1326 650 
Q 1584 409 2034 409 
Q 2484 409 2743 651 
Q 3003 894 3003 1313 
Q 3003 1734 2745 1975 
Q 2488 2216 2034 2216 
z
M 1403 2484 
Q 997 2584 770 2862 
Q 544 3141 544 3541 
Q 544 4100 942 4425 
Q 1341 4750 2034 4750 
Q 2731 4750 3128 4425 
Q 3525 4100 3525 3541 
Q 3525 3141 3298 2862 
Q 3072 2584 2669 2484 
Q 3125 2378 3379 2068 
Q 3634 1759 3634 1313 
Q 3634 634 3220 271 
Q 2806 -91 2034 -91 
Q 1263 -91 848 271 
Q 434 634 434 1313 
Q 434 1759 690 2068 
Q 947 2378 1403 2484 
z
M 1172 3481 
Q 1172 3119 1398 2916 
Q 1625 2713 2034 2713 
Q 2441 2713 2670 2916 
Q 2900 3119 2900 3481 
Q 2900 3844 2670 4047 
Q 2441 4250 2034 4250 
Q 1625 4250 1398 4047 
Q 1172 3844 1172 3481 
z
" transform="scale(0.015625)"/>
       </defs>
       <use xlink:href="#DejaVuSans-33"/>
       <use xlink:href="#DejaVuSans-2e" x="63.623047"/>
       <use xlink:href="#DejaVuSans-38" x="95.410156"/>
      </g>
     </g>
    </g>
    <g id="ytick_4">
     <g id="line2d_10">
      <g>
       <use xlink:href="#me25c4e1b6e" x="30.103125" y="144.745118" style="stroke: #000000; stroke-width: 0.8"/>
      </g>
     </g>
     <g id="text_10">
      <!-- 4.0 -->
      <g transform="translate(7.2 148.544336) scale(0.1 -0.1)">
       <use xlink:href="#DejaVuSans-34"/>
       <use xlink:href="#DejaVuSans-2e" x="63.623047"/>
       <use xlink:href="#DejaVuSans-30" x="95.410156"/>
      </g>
     </g>
    </g>
    <g id="ytick_5">
     <g id="line2d_11">
      <g>
       <use xlink:href="#me25c4e1b6e" x="30.103125" y="112.280285" style="stroke: #000000; stroke-width: 0.8"/>
      </g>
     </g>
     <g id="text_11">
      <!-- 4.2 -->
      <g transform="translate(7.2 116.079504) scale(0.1 -0.1)">
       <use xlink:href="#DejaVuSans-34"/>
       <use xlink:href="#DejaVuSans-2e" x="63.623047"/>
       <use xlink:href="#DejaVuSans-32" x="95.410156"/>
      </g>
     </g>
    </g>
    <g id="ytick_6">
     <g id="line2d_12">
      <g>
       <use xlink:href="#me25c4e1b6e" x="30.103125" y="79.815452" style="stroke: #000000; stroke-width: 0.8"/>
      </g>
     </g>
     <g id="text_12">
      <!-- 4.4 -->
      <g transform="translate(7.2 83.614671) scale(0.1 -0.1)">
       <use xlink:href="#DejaVuSans-34"/>
       <use xlink:href="#DejaVuSans-2e" x="63.623047"/>
       <use xlink:href="#DejaVuSans-34" x="95.410156"/>
      </g>
     </g>
    </g>
    <g id="ytick_7">
     <g id="line2d_13">
      <g>
       <use xlink:href="#me25c4e1b6e" x="30.103125" y="47.350619" style="stroke: #000000; stroke-width: 0.8"/>
      </g>
     </g>
     <g id="text_13">
      <!-- 4.6 -->
      <g transform="translate(7.2 51.149838) scale(0.1 -0.1)">
       <use xlink:href="#DejaVuSans-34"/>
       <use xlink:href="#DejaVuSans-2e" x="63.623047"/>
       <use xlink:href="#DejaVuSans-36" x="95.410156"/>
      </g>
     </g>
    </g>
    <g id="ytick_8">
     <g id="line2d_14">
      <g>
       <use xlink:href="#me25c4e1b6e" x="30.103125" y="14.885786" style="stroke: #000000; stroke-width: 0.8"/>
      </g>
     </g>
     <g id="text_14">
      <!-- 4.8 -->
      <g transform="translate(7.2 18.685005) scale(0.1 -0.1)">
       <use xlink:href="#DejaVuSans-34"/>
       <use xlink:href="#DejaVuSans-2e" x="63.623047"/>
       <use xlink:href="#DejaVuSans-38" x="95.410156"/>
      </g>
     </g>
    </g>
   </g>
   <g id="line2d_15">
    <path d="M 46.243621 183.234403 
L 47.540046 183.983502 
L 48.836472 202.027888 
L 50.132897 208.302303 
L 51.429322 210.254541 
L 52.725748 211.49673 
L 54.022173 212.425711 
L 56.615024 213.748012 
L 57.911449 214.098295 
L 59.207875 214.732142 
L 60.5043 214.96044 
L 63.097151 215.078401 
L 64.393576 215.780671 
L 65.690001 215.116018 
L 66.986427 216.40461 
L 69.579278 216.29079 
L 72.172128 216.635307 
L 73.468554 216.302284 
L 74.764979 216.706091 
L 76.061404 216.771225 
L 77.35783 217.527329 
L 78.654255 216.38077 
L 79.950681 217.244966 
L 81.247106 217.530928 
L 82.543531 217.544744 
L 83.839957 217.397641 
L 85.136382 218.169651 
L 86.432807 218.089578 
L 87.729233 217.193145 
L 89.025658 217.912018 
L 90.322083 218.503448 
L 91.618509 218.437656 
L 92.914934 218.038609 
L 94.21136 218.155254 
L 95.507785 219.085048 
L 96.80421 218.870063 
L 98.100636 219.207382 
L 100.693486 219.40348 
L 101.989912 219.947037 
L 103.286337 219.966736 
L 104.582763 220.509829 
L 105.879188 220.153663 
L 107.175613 220.616179 
L 108.472039 219.701943 
L 109.768464 220.506268 
L 112.361315 220.795095 
L 113.65774 221.15068 
L 114.954166 220.760147 
L 116.250591 221.163181 
L 118.843442 220.867504 
L 120.139867 221.549882 
L 121.436292 221.272434 
L 122.732718 220.46718 
L 124.029143 221.778722 
L 125.325568 221.354596 
L 126.621994 221.553172 
L 127.918419 221.614319 
L 129.214845 221.239035 
L 130.51127 221.773807 
L 131.807695 221.690831 
L 133.104121 222.074088 
L 134.400546 222.296387 
L 135.696971 221.580224 
L 136.993397 222.277463 
L 138.289822 222.629178 
L 139.586248 222.212445 
L 140.882673 222.134385 
L 142.179098 221.675467 
L 143.475524 222.538772 
L 144.771949 223.142316 
L 146.068374 222.691719 
L 147.3648 222.565321 
L 148.661225 223.22355 
L 152.550501 222.951404 
L 153.846927 223.512569 
L 155.143352 223.700308 
L 156.439777 223.123314 
L 157.736203 222.966574 
L 159.032628 224.264803 
L 160.329054 223.851823 
L 161.625479 223.629176 
L 162.921904 224.091847 
L 164.21833 223.975202 
L 165.514755 223.61536 
L 166.81118 223.754219 
L 168.107606 223.762424 
L 171.996882 224.308961 
L 173.293307 224.079424 
L 175.886158 223.880926 
L 177.182583 224.751237 
L 178.479009 224.395612 
L 179.775434 224.800581 
L 181.071859 224.906467 
L 182.368285 224.612455 
L 183.66471 225.262478 
L 184.961136 225.390192 
L 187.553986 225.24305 
L 188.850412 225.493949 
L 190.146837 225.185115 
L 191.443262 225.473244 
L 192.739688 226.161814 
L 194.036113 226.254116 
L 195.332539 225.994509 
L 196.628964 226.938932 
L 197.925389 226.45215 
L 199.221815 226.557146 
L 200.51824 226.869773 
L 204.407516 227.176634 
L 205.703941 226.708119 
L 207.000367 227.495996 
L 208.296792 226.882274 
L 209.593218 227.662024 
L 210.889643 227.217464 
L 212.186068 227.673286 
L 213.482494 227.643486 
L 214.778919 228.041488 
L 216.075344 227.727583 
L 217.37177 227.788228 
L 218.668195 227.322692 
L 219.964621 228.012772 
L 221.261046 227.486282 
L 223.853897 228.254189 
L 226.446747 228.157165 
L 227.743173 228.595842 
L 230.336024 228.128023 
L 231.632449 228.280661 
L 232.928874 228.701109 
L 234.2253 228.331398 
L 235.521725 228.263826 
L 236.81815 228.309145 
L 238.114576 228.720537 
L 239.411001 228.63733 
L 240.707427 228.885675 
L 242.003852 229.324545 
L 243.300277 228.442973 
L 244.596703 228.820657 
L 245.893128 228.572931 
L 247.189553 228.684894 
L 248.485979 228.38527 
L 251.078829 229.327409 
L 252.375255 229.100156 
L 253.67168 227.973297 
L 254.968106 229.106503 
L 256.264531 228.139131 
L 257.560956 228.756336 
L 260.153807 228.555554 
L 261.450232 228.88076 
L 262.746658 228.726381 
L 264.043083 228.960213 
L 265.339509 228.993264 
L 266.635934 229.191646 
L 267.932359 229.078987 
L 270.52521 227.952475 
L 271.821635 228.913153 
L 273.118061 228.694453 
L 274.414486 229.410075 
L 275.710912 229.206352 
L 277.007337 229.357093 
L 278.303762 229.075504 
L 279.600188 229.191994 
L 282.193038 229.155305 
L 283.489464 229.621692 
L 284.785889 228.780176 
L 286.082314 229.023722 
L 287.37874 228.667014 
L 288.675165 229.434534 
L 291.268016 229.562247 
L 292.564441 229.17067 
L 293.860867 229.57618 
L 299.046568 229.076587 
L 300.342994 228.41387 
L 301.639419 229.429735 
L 302.935844 229.706448 
L 304.23227 229.444441 
L 305.528695 229.475286 
L 306.82512 228.886217 
L 308.121546 230.074108 
L 309.417971 228.795695 
L 310.714397 229.551798 
L 312.010822 229.377334 
L 313.307247 229.894264 
L 314.603673 229.735241 
L 315.900098 230.085602 
L 317.196523 229.119855 
L 318.492949 229.444132 
L 319.789374 228.771623 
L 321.085799 229.864232 
L 322.382225 229.680441 
L 323.67865 230.266182 
L 326.271501 229.391614 
L 327.567926 229.961681 
L 328.864352 229.832575 
L 330.160777 229.36313 
L 331.457202 229.402799 
L 332.753628 229.186924 
L 334.050053 229.345637 
L 335.346479 229.667901 
L 337.939329 229.648667 
L 339.235755 229.37505 
L 340.53218 229.856608 
L 341.828605 229.720303 
L 343.125031 229.332982 
L 344.421456 229.783192 
L 345.717882 229.836754 
L 347.014307 229.369787 
L 348.310732 229.461392 
L 349.607158 229.875842 
L 350.903583 228.821199 
L 352.200008 229.494056 
L 353.496434 229.323539 
L 354.792859 229.989508 
L 356.089285 229.663335 
L 357.38571 229.642281 
L 358.682135 229.256896 
L 359.978561 230.078017 
L 361.274986 229.914969 
L 362.571411 229.458296 
L 365.164262 229.625098 
L 366.460687 230.483063 
L 367.757113 229.507408 
L 369.053538 230.175466 
L 369.053538 230.175466 
" clip-path="url(#p3baebab6f6)" style="fill: none; stroke: #1f77b4; stroke-width: 1.5; stroke-linecap: square"/>
   </g>
   <g id="line2d_16">
    <path d="M 46.243621 183.420594 
L 47.540046 197.769374 
L 48.836472 242.483266 
L 50.132897 236.233504 
L 51.429322 247.745455 
L 52.725748 238.271426 
L 54.022173 233.424733 
L 55.318598 244.774642 
L 56.615024 235.113958 
L 57.911449 226.74713 
L 59.207875 225.52553 
L 60.5043 232.695101 
L 61.800725 219.737123 
L 63.097151 225.796708 
L 64.393576 212.697819 
L 65.690001 208.477619 
L 66.986427 230.362354 
L 68.282852 221.180132 
L 69.579278 213.101162 
L 70.875703 219.144841 
L 72.172128 213.527416 
L 73.468554 221.252464 
L 74.764979 223.922066 
L 76.061404 221.656968 
L 77.35783 214.356857 
L 78.654255 216.457011 
L 79.950681 215.973944 
L 81.247106 206.831584 
L 82.543531 216.645602 
L 83.839957 212.88579 
L 85.136382 205.021263 
L 86.432807 216.161683 
L 87.729233 210.58559 
L 89.025658 210.22091 
L 90.322083 199.105762 
L 91.618509 205.070375 
L 92.914934 208.180317 
L 94.21136 198.114162 
L 95.507785 184.255299 
L 96.80421 196.179649 
L 98.100636 194.342469 
L 99.397061 197.596109 
L 100.693486 202.134509 
L 101.989912 194.264951 
L 104.582763 192.411207 
L 105.879188 199.266642 
L 107.175613 194.097569 
L 108.472039 191.159072 
L 109.768464 186.420897 
L 111.064889 186.983998 
L 112.361315 172.713897 
L 113.65774 184.343073 
L 114.954166 182.817708 
L 116.250591 187.997037 
L 117.547016 175.136121 
L 118.843442 182.127861 
L 120.139867 178.892682 
L 121.436292 177.110535 
L 122.732718 172.906745 
L 124.029143 183.363665 
L 125.325568 177.508924 
L 126.621994 166.651448 
L 127.918419 172.012749 
L 129.214845 165.382052 
L 130.51127 168.449036 
L 133.104121 161.484813 
L 135.696971 162.571307 
L 136.993397 156.444885 
L 138.289822 157.994167 
L 139.586248 160.997372 
L 140.882673 158.641327 
L 142.179098 165.600868 
L 143.475524 160.983749 
L 144.771949 157.922493 
L 146.068374 157.055317 
L 147.3648 151.706168 
L 148.661225 149.582252 
L 149.957651 157.124708 
L 151.254076 148.218502 
L 152.550501 152.47334 
L 153.846927 146.642091 
L 155.143352 145.295292 
L 156.439777 147.341381 
L 157.736203 149.929749 
L 159.032628 135.588206 
L 160.329054 137.43092 
L 161.625479 137.120847 
L 162.921904 140.80256 
L 164.21833 142.914556 
L 165.514755 126.329743 
L 166.81118 142.347352 
L 168.107606 130.246371 
L 169.404031 129.554318 
L 170.700456 130.738881 
L 171.996882 132.317112 
L 173.293307 128.395607 
L 174.589733 122.999513 
L 175.886158 125.68328 
L 177.182583 122.446629 
L 178.479009 127.120638 
L 179.775434 109.737963 
L 181.071859 119.854662 
L 182.368285 115.311153 
L 183.66471 115.651026 
L 184.961136 105.256609 
L 186.257561 113.644452 
L 187.553986 100.563868 
L 188.850412 102.064852 
L 190.146837 104.28436 
L 191.443262 98.578425 
L 192.739688 104.113997 
L 194.036113 93.100517 
L 196.628964 82.215988 
L 197.925389 83.795999 
L 199.221815 94.463105 
L 200.51824 79.15388 
L 201.814665 86.697962 
L 203.111091 87.792042 
L 204.407516 79.241112 
L 205.703941 79.544529 
L 207.000367 78.267702 
L 208.296792 86.464749 
L 209.593218 74.185743 
L 210.889643 73.979621 
L 212.186068 70.661853 
L 213.482494 69.942709 
L 214.778919 73.779226 
L 216.075344 65.579238 
L 217.37177 69.74603 
L 218.668195 60.295223 
L 219.964621 61.034646 
L 221.261046 68.71186 
L 222.557471 59.174516 
L 223.853897 64.27772 
L 225.150322 61.991182 
L 226.446747 66.495912 
L 227.743173 56.968321 
L 229.039598 60.08136 
L 230.336024 57.58065 
L 231.632449 68.906217 
L 232.928874 45.397003 
L 234.2253 53.161372 
L 235.521725 57.559829 
L 236.81815 52.809192 
L 238.114576 55.626245 
L 239.411001 51.864189 
L 240.707427 54.323411 
L 242.003852 53.931214 
L 243.300277 50.002976 
L 244.596703 49.06192 
L 245.893128 51.399001 
L 247.189553 48.099578 
L 248.485979 45.794076 
L 249.782404 36.346597 
L 252.375255 42.676935 
L 253.67168 50.702769 
L 254.968106 56.99131 
L 256.264531 57.782902 
L 257.560956 54.301893 
L 258.857382 36.768284 
L 260.153807 49.362163 
L 261.450232 50.459803 
L 262.746658 53.511153 
L 264.043083 48.469251 
L 265.339509 39.751287 
L 266.635934 39.303438 
L 267.932359 44.431411 
L 269.228785 48.895273 
L 270.52521 42.292711 
L 271.821635 42.633358 
L 273.118061 38.998783 
L 274.414486 34.756833 
L 275.710912 48.165215 
L 277.007337 37.012488 
L 278.303762 43.045602 
L 279.600188 40.823153 
L 280.896613 39.781164 
L 282.193038 36.653961 
L 283.489464 36.553029 
L 284.785889 39.833334 
L 286.082314 42.788085 
L 287.37874 31.982352 
L 288.675165 42.794896 
L 291.268016 34.126857 
L 292.564441 31.309494 
L 293.860867 29.454706 
L 295.157292 46.618952 
L 296.453717 34.955215 
L 297.750143 48.602073 
L 299.046568 46.68126 
L 300.342994 38.16609 
L 301.639419 38.003004 
L 302.935844 44.790712 
L 304.23227 34.756137 
L 305.528695 37.61638 
L 306.82512 32.494212 
L 308.121546 35.961134 
L 309.417971 38.073672 
L 310.714397 42.520118 
L 312.010822 36.587937 
L 313.307247 36.193108 
L 314.603673 30.312399 
L 315.900098 30.315341 
L 317.196523 41.927218 
L 318.492949 35.878081 
L 319.789374 34.846542 
L 321.085799 31.172183 
L 322.382225 31.713998 
L 323.67865 27.394646 
L 324.975076 38.840728 
L 326.271501 18.654545 
L 327.567926 30.797402 
L 328.864352 26.725117 
L 330.160777 35.081536 
L 331.457202 31.710825 
L 332.753628 27.246344 
L 334.050053 30.734474 
L 335.346479 42.608202 
L 336.642904 37.261104 
L 337.939329 30.172921 
L 339.235755 35.192608 
L 340.53218 36.722307 
L 341.828605 25.377081 
L 343.125031 34.741972 
L 344.421456 36.185678 
L 345.717882 36.574005 
L 347.014307 28.113171 
L 348.310732 35.901999 
L 349.607158 30.121371 
L 350.903583 44.405481 
L 352.200008 30.556216 
L 353.496434 35.878159 
L 354.792859 37.050647 
L 356.089285 31.372887 
L 357.38571 28.302651 
L 358.682135 39.721487 
L 359.978561 35.261418 
L 361.274986 38.018484 
L 362.571411 33.421181 
L 363.867837 31.97345 
L 365.164262 33.507872 
L 366.460687 23.602403 
L 367.757113 30.237706 
L 369.053538 24.85361 
L 369.053538 24.85361 
" clip-path="url(#p3baebab6f6)" style="fill: none; stroke: #ff7f0e; stroke-width: 1.5; stroke-linecap: square"/>
   </g>
   <g id="patch_3">
    <path d="M 30.103125 259.2 
L 30.103125 7.2 
" style="fill: none; stroke: #000000; stroke-width: 0.8; stroke-linejoin: miter; stroke-linecap: square"/>
   </g>
   <g id="patch_4">
    <path d="M 385.194034 259.2 
L 385.194034 7.2 
" style="fill: none; stroke: #000000; stroke-width: 0.8; stroke-linejoin: miter; stroke-linecap: square"/>
   </g>
   <g id="patch_5">
    <path d="M 30.103125 259.2 
L 385.194034 259.2 
" style="fill: none; stroke: #000000; stroke-width: 0.8; stroke-linejoin: miter; stroke-linecap: square"/>
   </g>
   <g id="patch_6">
    <path d="M 30.103125 7.2 
L 385.194034 7.2 
" style="fill: none; stroke: #000000; stroke-width: 0.8; stroke-linejoin: miter; stroke-linecap: square"/>
   </g>
   <g id="legend_1">
    <g id="patch_7">
     <path d="M 37.103125 45.1125 
L 116.69375 45.1125 
Q 118.69375 45.1125 118.69375 43.1125 
L 118.69375 14.2 
Q 118.69375 12.2 116.69375 12.2 
L 37.103125 12.2 
Q 35.103125 12.2 35.103125 14.2 
L 35.103125 43.1125 
Q 35.103125 45.1125 37.103125 45.1125 
z
" style="fill: #ffffff; opacity: 0.8; stroke: #cccccc; stroke-linejoin: miter"/>
    </g>
    <g id="line2d_17">
     <path d="M 39.103125 20.298437 
L 49.103125 20.298437 
L 59.103125 20.298437 
" style="fill: none; stroke: #1f77b4; stroke-width: 1.5; stroke-linecap: square"/>
    </g>
    <g id="text_15">
     <!-- train_loss -->
     <g transform="translate(67.103125 23.798437) scale(0.1 -0.1)">
      <defs>
       <path id="DejaVuSans-74" d="M 1172 4494 
L 1172 3500 
L 2356 3500 
L 2356 3053 
L 1172 3053 
L 1172 1153 
Q 1172 725 1289 603 
Q 1406 481 1766 481 
L 2356 481 
L 2356 0 
L 1766 0 
Q 1100 0 847 248 
Q 594 497 594 1153 
L 594 3053 
L 172 3053 
L 172 3500 
L 594 3500 
L 594 4494 
L 1172 4494 
z
" transform="scale(0.015625)"/>
       <path id="DejaVuSans-72" d="M 2631 2963 
Q 2534 3019 2420 3045 
Q 2306 3072 2169 3072 
Q 1681 3072 1420 2755 
Q 1159 2438 1159 1844 
L 1159 0 
L 581 0 
L 581 3500 
L 1159 3500 
L 1159 2956 
Q 1341 3275 1631 3429 
Q 1922 3584 2338 3584 
Q 2397 3584 2469 3576 
Q 2541 3569 2628 3553 
L 2631 2963 
z
" transform="scale(0.015625)"/>
       <path id="DejaVuSans-61" d="M 2194 1759 
Q 1497 1759 1228 1600 
Q 959 1441 959 1056 
Q 959 750 1161 570 
Q 1363 391 1709 391 
Q 2188 391 2477 730 
Q 2766 1069 2766 1631 
L 2766 1759 
L 2194 1759 
z
M 3341 1997 
L 3341 0 
L 2766 0 
L 2766 531 
Q 2569 213 2275 61 
Q 1981 -91 1556 -91 
Q 1019 -91 701 211 
Q 384 513 384 1019 
Q 384 1609 779 1909 
Q 1175 2209 1959 2209 
L 2766 2209 
L 2766 2266 
Q 2766 2663 2505 2880 
Q 2244 3097 1772 3097 
Q 1472 3097 1187 3025 
Q 903 2953 641 2809 
L 641 3341 
Q 956 3463 1253 3523 
Q 1550 3584 1831 3584 
Q 2591 3584 2966 3190 
Q 3341 2797 3341 1997 
z
" transform="scale(0.015625)"/>
       <path id="DejaVuSans-69" d="M 603 3500 
L 1178 3500 
L 1178 0 
L 603 0 
L 603 3500 
z
M 603 4863 
L 1178 4863 
L 1178 4134 
L 603 4134 
L 603 4863 
z
" transform="scale(0.015625)"/>
       <path id="DejaVuSans-6e" d="M 3513 2113 
L 3513 0 
L 2938 0 
L 2938 2094 
Q 2938 2591 2744 2837 
Q 2550 3084 2163 3084 
Q 1697 3084 1428 2787 
Q 1159 2491 1159 1978 
L 1159 0 
L 581 0 
L 581 3500 
L 1159 3500 
L 1159 2956 
Q 1366 3272 1645 3428 
Q 1925 3584 2291 3584 
Q 2894 3584 3203 3211 
Q 3513 2838 3513 2113 
z
" transform="scale(0.015625)"/>
       <path id="DejaVuSans-5f" d="M 3263 -1063 
L 3263 -1509 
L -63 -1509 
L -63 -1063 
L 3263 -1063 
z
" transform="scale(0.015625)"/>
       <path id="DejaVuSans-6c" d="M 603 4863 
L 1178 4863 
L 1178 0 
L 603 0 
L 603 4863 
z
" transform="scale(0.015625)"/>
       <path id="DejaVuSans-6f" d="M 1959 3097 
Q 1497 3097 1228 2736 
Q 959 2375 959 1747 
Q 959 1119 1226 758 
Q 1494 397 1959 397 
Q 2419 397 2687 759 
Q 2956 1122 2956 1747 
Q 2956 2369 2687 2733 
Q 2419 3097 1959 3097 
z
M 1959 3584 
Q 2709 3584 3137 3096 
Q 3566 2609 3566 1747 
Q 3566 888 3137 398 
Q 2709 -91 1959 -91 
Q 1206 -91 779 398 
Q 353 888 353 1747 
Q 353 2609 779 3096 
Q 1206 3584 1959 3584 
z
" transform="scale(0.015625)"/>
       <path id="DejaVuSans-73" d="M 2834 3397 
L 2834 2853 
Q 2591 2978 2328 3040 
Q 2066 3103 1784 3103 
Q 1356 3103 1142 2972 
Q 928 2841 928 2578 
Q 928 2378 1081 2264 
Q 1234 2150 1697 2047 
L 1894 2003 
Q 2506 1872 2764 1633 
Q 3022 1394 3022 966 
Q 3022 478 2636 193 
Q 2250 -91 1575 -91 
Q 1294 -91 989 -36 
Q 684 19 347 128 
L 347 722 
Q 666 556 975 473 
Q 1284 391 1588 391 
Q 1994 391 2212 530 
Q 2431 669 2431 922 
Q 2431 1156 2273 1281 
Q 2116 1406 1581 1522 
L 1381 1569 
Q 847 1681 609 1914 
Q 372 2147 372 2553 
Q 372 3047 722 3315 
Q 1072 3584 1716 3584 
Q 2034 3584 2315 3537 
Q 2597 3491 2834 3397 
z
" transform="scale(0.015625)"/>
      </defs>
      <use xlink:href="#DejaVuSans-74"/>
      <use xlink:href="#DejaVuSans-72" x="39.208984"/>
      <use xlink:href="#DejaVuSans-61" x="80.322266"/>
      <use xlink:href="#DejaVuSans-69" x="141.601562"/>
      <use xlink:href="#DejaVuSans-6e" x="169.384766"/>
      <use xlink:href="#DejaVuSans-5f" x="232.763672"/>
      <use xlink:href="#DejaVuSans-6c" x="282.763672"/>
      <use xlink:href="#DejaVuSans-6f" x="310.546875"/>
      <use xlink:href="#DejaVuSans-73" x="371.728516"/>
      <use xlink:href="#DejaVuSans-73" x="423.828125"/>
     </g>
    </g>
    <g id="line2d_18">
     <path d="M 39.103125 35.254687 
L 49.103125 35.254687 
L 59.103125 35.254687 
" style="fill: none; stroke: #ff7f0e; stroke-width: 1.5; stroke-linecap: square"/>
    </g>
    <g id="text_16">
     <!-- val_loss -->
     <g transform="translate(67.103125 38.754687) scale(0.1 -0.1)">
      <defs>
       <path id="DejaVuSans-76" d="M 191 3500 
L 800 3500 
L 1894 563 
L 2988 3500 
L 3597 3500 
L 2284 0 
L 1503 0 
L 191 3500 
z
" transform="scale(0.015625)"/>
      </defs>
      <use xlink:href="#DejaVuSans-76"/>
      <use xlink:href="#DejaVuSans-61" x="59.179688"/>
      <use xlink:href="#DejaVuSans-6c" x="120.458984"/>
      <use xlink:href="#DejaVuSans-5f" x="148.242188"/>
      <use xlink:href="#DejaVuSans-6c" x="198.242188"/>
      <use xlink:href="#DejaVuSans-6f" x="226.025391"/>
      <use xlink:href="#DejaVuSans-73" x="287.207031"/>
      <use xlink:href="#DejaVuSans-73" x="339.306641"/>
     </g>
    </g>
   </g>
  </g>
  <g id="axes_2">
   <g id="patch_8">
    <path d="M 456.212216 259.2 
L 811.303125 259.2 
L 811.303125 7.2 
L 456.212216 7.2 
z
" style="fill: #ffffff"/>
   </g>
   <g id="matplotlib.axis_3">
    <g id="xtick_7">
     <g id="line2d_19">
      <g>
       <use xlink:href="#m4e2b61997c" x="472.352712" y="259.2" style="stroke: #000000; stroke-width: 0.8"/>
      </g>
     </g>
     <g id="text_17">
      <!-- 0 -->
      <g transform="translate(469.171462 273.798437) scale(0.1 -0.1)">
       <use xlink:href="#DejaVuSans-30"/>
      </g>
     </g>
    </g>
    <g id="xtick_8">
     <g id="line2d_20">
      <g>
       <use xlink:href="#m4e2b61997c" x="537.17398" y="259.2" style="stroke: #000000; stroke-width: 0.8"/>
      </g>
     </g>
     <g id="text_18">
      <!-- 50 -->
      <g transform="translate(530.81148 273.798437) scale(0.1 -0.1)">
       <use xlink:href="#DejaVuSans-35"/>
       <use xlink:href="#DejaVuSans-30" x="63.623047"/>
      </g>
     </g>
    </g>
    <g id="xtick_9">
     <g id="line2d_21">
      <g>
       <use xlink:href="#m4e2b61997c" x="601.995249" y="259.2" style="stroke: #000000; stroke-width: 0.8"/>
      </g>
     </g>
     <g id="text_19">
      <!-- 100 -->
      <g transform="translate(592.451499 273.798437) scale(0.1 -0.1)">
       <use xlink:href="#DejaVuSans-31"/>
       <use xlink:href="#DejaVuSans-30" x="63.623047"/>
       <use xlink:href="#DejaVuSans-30" x="127.246094"/>
      </g>
     </g>
    </g>
    <g id="xtick_10">
     <g id="line2d_22">
      <g>
       <use xlink:href="#m4e2b61997c" x="666.816517" y="259.2" style="stroke: #000000; stroke-width: 0.8"/>
      </g>
     </g>
     <g id="text_20">
      <!-- 150 -->
      <g transform="translate(657.272767 273.798437) scale(0.1 -0.1)">
       <use xlink:href="#DejaVuSans-31"/>
       <use xlink:href="#DejaVuSans-35" x="63.623047"/>
       <use xlink:href="#DejaVuSans-30" x="127.246094"/>
      </g>
     </g>
    </g>
    <g id="xtick_11">
     <g id="line2d_23">
      <g>
       <use xlink:href="#m4e2b61997c" x="731.637786" y="259.2" style="stroke: #000000; stroke-width: 0.8"/>
      </g>
     </g>
     <g id="text_21">
      <!-- 200 -->
      <g transform="translate(722.094036 273.798437) scale(0.1 -0.1)">
       <use xlink:href="#DejaVuSans-32"/>
       <use xlink:href="#DejaVuSans-30" x="63.623047"/>
       <use xlink:href="#DejaVuSans-30" x="127.246094"/>
      </g>
     </g>
    </g>
    <g id="xtick_12">
     <g id="line2d_24">
      <g>
       <use xlink:href="#m4e2b61997c" x="796.459055" y="259.2" style="stroke: #000000; stroke-width: 0.8"/>
      </g>
     </g>
     <g id="text_22">
      <!-- 250 -->
      <g transform="translate(786.915305 273.798437) scale(0.1 -0.1)">
       <use xlink:href="#DejaVuSans-32"/>
       <use xlink:href="#DejaVuSans-35" x="63.623047"/>
       <use xlink:href="#DejaVuSans-30" x="127.246094"/>
      </g>
     </g>
    </g>
   </g>
   <g id="matplotlib.axis_4">
    <g id="ytick_9">
     <g id="line2d_25">
      <g>
       <use xlink:href="#me25c4e1b6e" x="456.212216" y="258.606735" style="stroke: #000000; stroke-width: 0.8"/>
      </g>
     </g>
     <g id="text_23">
      <!-- 0.01 -->
      <g transform="translate(426.946591 262.405954) scale(0.1 -0.1)">
       <use xlink:href="#DejaVuSans-30"/>
       <use xlink:href="#DejaVuSans-2e" x="63.623047"/>
       <use xlink:href="#DejaVuSans-30" x="95.410156"/>
       <use xlink:href="#DejaVuSans-31" x="159.033203"/>
      </g>
     </g>
    </g>
    <g id="ytick_10">
     <g id="line2d_26">
      <g>
       <use xlink:href="#me25c4e1b6e" x="456.212216" y="220.181527" style="stroke: #000000; stroke-width: 0.8"/>
      </g>
     </g>
     <g id="text_24">
      <!-- 0.02 -->
      <g transform="translate(426.946591 223.980745) scale(0.1 -0.1)">
       <use xlink:href="#DejaVuSans-30"/>
       <use xlink:href="#DejaVuSans-2e" x="63.623047"/>
       <use xlink:href="#DejaVuSans-30" x="95.410156"/>
       <use xlink:href="#DejaVuSans-32" x="159.033203"/>
      </g>
     </g>
    </g>
    <g id="ytick_11">
     <g id="line2d_27">
      <g>
       <use xlink:href="#me25c4e1b6e" x="456.212216" y="181.756318" style="stroke: #000000; stroke-width: 0.8"/>
      </g>
     </g>
     <g id="text_25">
      <!-- 0.03 -->
      <g transform="translate(426.946591 185.555537) scale(0.1 -0.1)">
       <use xlink:href="#DejaVuSans-30"/>
       <use xlink:href="#DejaVuSans-2e" x="63.623047"/>
       <use xlink:href="#DejaVuSans-30" x="95.410156"/>
       <use xlink:href="#DejaVuSans-33" x="159.033203"/>
      </g>
     </g>
    </g>
    <g id="ytick_12">
     <g id="line2d_28">
      <g>
       <use xlink:href="#me25c4e1b6e" x="456.212216" y="143.331109" style="stroke: #000000; stroke-width: 0.8"/>
      </g>
     </g>
     <g id="text_26">
      <!-- 0.04 -->
      <g transform="translate(426.946591 147.130328) scale(0.1 -0.1)">
       <use xlink:href="#DejaVuSans-30"/>
       <use xlink:href="#DejaVuSans-2e" x="63.623047"/>
       <use xlink:href="#DejaVuSans-30" x="95.410156"/>
       <use xlink:href="#DejaVuSans-34" x="159.033203"/>
      </g>
     </g>
    </g>
    <g id="ytick_13">
     <g id="line2d_29">
      <g>
       <use xlink:href="#me25c4e1b6e" x="456.212216" y="104.905901" style="stroke: #000000; stroke-width: 0.8"/>
      </g>
     </g>
     <g id="text_27">
      <!-- 0.05 -->
      <g transform="translate(426.946591 108.70512) scale(0.1 -0.1)">
       <use xlink:href="#DejaVuSans-30"/>
       <use xlink:href="#DejaVuSans-2e" x="63.623047"/>
       <use xlink:href="#DejaVuSans-30" x="95.410156"/>
       <use xlink:href="#DejaVuSans-35" x="159.033203"/>
      </g>
     </g>
    </g>
    <g id="ytick_14">
     <g id="line2d_30">
      <g>
       <use xlink:href="#me25c4e1b6e" x="456.212216" y="66.480692" style="stroke: #000000; stroke-width: 0.8"/>
      </g>
     </g>
     <g id="text_28">
      <!-- 0.06 -->
      <g transform="translate(426.946591 70.279911) scale(0.1 -0.1)">
       <use xlink:href="#DejaVuSans-30"/>
       <use xlink:href="#DejaVuSans-2e" x="63.623047"/>
       <use xlink:href="#DejaVuSans-30" x="95.410156"/>
       <use xlink:href="#DejaVuSans-36" x="159.033203"/>
      </g>
     </g>
    </g>
    <g id="ytick_15">
     <g id="line2d_31">
      <g>
       <use xlink:href="#me25c4e1b6e" x="456.212216" y="28.055484" style="stroke: #000000; stroke-width: 0.8"/>
      </g>
     </g>
     <g id="text_29">
      <!-- 0.07 -->
      <g transform="translate(426.946591 31.854702) scale(0.1 -0.1)">
       <defs>
        <path id="DejaVuSans-37" d="M 525 4666 
L 3525 4666 
L 3525 4397 
L 1831 0 
L 1172 0 
L 2766 4134 
L 525 4134 
L 525 4666 
z
" transform="scale(0.015625)"/>
       </defs>
       <use xlink:href="#DejaVuSans-30"/>
       <use xlink:href="#DejaVuSans-2e" x="63.623047"/>
       <use xlink:href="#DejaVuSans-30" x="95.410156"/>
       <use xlink:href="#DejaVuSans-37" x="159.033203"/>
      </g>
     </g>
    </g>
   </g>
   <g id="line2d_32">
    <path d="M 472.352712 213.192557 
L 473.649137 209.393723 
L 474.945563 162.305849 
L 476.241988 147.375548 
L 477.538413 136.420771 
L 480.131264 125.554329 
L 482.724115 121.269597 
L 484.02054 115.041284 
L 485.316965 115.659699 
L 486.613391 113.141863 
L 487.909816 117.691629 
L 489.206242 117.249897 
L 490.502667 108.989655 
L 491.799092 114.599552 
L 493.095518 109.784754 
L 494.391943 108.901306 
L 495.688368 112.346764 
L 496.984794 105.588371 
L 498.281219 109.298848 
L 499.577645 111.198268 
L 500.87407 108.636272 
L 502.170495 106.957711 
L 503.466921 106.030088 
L 504.763346 107.6203 
L 506.059771 106.825201 
L 507.356197 104.528224 
L 508.652622 105.102465 
L 509.949048 105.544196 
L 511.245473 99.934284 
L 512.541898 101.082765 
L 513.838324 100.331841 
L 515.134749 98.476595 
L 516.431174 97.681496 
L 517.7276 94.810278 
L 519.024025 94.236037 
L 520.320451 91.585692 
L 521.616876 86.903403 
L 522.913301 93.220065 
L 524.209727 85.357365 
L 525.506152 89.862956 
L 526.802577 89.995479 
L 528.099003 84.959808 
L 529.395428 87.521818 
L 530.691853 84.429742 
L 533.284704 88.184408 
L 534.58113 87.786851 
L 535.877555 82.751194 
L 537.17398 85.357365 
L 538.470406 87.212611 
L 539.766831 82.397812 
L 541.063256 82.04443 
L 542.359682 78.77567 
L 543.656107 82.795355 
L 544.952533 82.972053 
L 546.248958 82.839529 
L 547.545383 81.602699 
L 550.138234 83.590468 
L 551.434659 80.807599 
L 552.731085 81.249316 
L 554.02751 80.410043 
L 555.323936 82.441987 
L 556.620361 81.470189 
L 557.916786 80.895949 
L 559.213212 82.70702 
L 560.509637 80.71925 
L 561.806062 81.028458 
L 563.102488 77.317966 
L 564.398913 74.75597 
L 565.695338 79.173212 
L 566.991764 77.185457 
L 568.288189 77.582999 
L 569.584615 76.7879 
L 570.88104 76.964598 
L 572.177465 75.992801 
L 573.473891 74.402588 
L 574.770316 72.326484 
L 576.066741 74.22589 
L 577.363167 77.671349 
L 578.659592 70.471238 
L 579.956018 77.936382 
L 581.252443 76.302009 
L 582.548868 74.88848 
L 583.845294 79.968326 
L 585.141719 77.317966 
L 586.438144 77.317966 
L 587.73457 72.944899 
L 589.030995 74.005031 
L 590.327421 74.270065 
L 591.623846 73.254107 
L 592.920271 72.414819 
L 594.216697 78.024731 
L 595.513122 75.197687 
L 596.809547 73.209932 
L 598.105973 72.547342 
L 599.402398 69.411091 
L 600.698823 75.727768 
L 601.995249 74.800145 
L 603.291674 73.254107 
L 604.5881 71.973102 
L 605.884525 71.928927 
L 607.18095 76.302009 
L 608.477376 78.201415 
L 609.773801 73.695824 
L 611.070226 77.980556 
L 612.366652 80.940109 
L 613.663077 81.823571 
L 614.959503 77.582999 
L 616.255928 77.892207 
L 617.552353 80.365868 
L 618.848779 79.924151 
L 620.145204 79.217387 
L 621.441629 84.164709 
L 622.738055 77.980556 
L 624.03448 79.703293 
L 626.627331 78.068905 
L 627.923756 78.024731 
L 629.220182 80.586741 
L 630.516607 85.048157 
L 631.813032 82.221114 
L 633.109458 82.000255 
L 634.405883 82.530322 
L 635.702309 77.185457 
L 636.998734 78.908179 
L 638.295159 81.293491 
L 639.591585 79.34991 
L 640.88801 80.0125 
L 642.184435 80.498392 
L 643.480861 82.839529 
L 644.777286 81.028458 
L 646.073711 83.855501 
L 647.370137 81.028458 
L 648.666562 83.590468 
L 649.962988 85.092332 
L 651.259413 83.634643 
L 652.555838 79.703293 
L 653.852264 80.410043 
L 655.148689 82.04443 
L 656.445114 82.574496 
L 657.74154 82.883704 
L 659.037965 82.530322 
L 660.334391 82.486147 
L 661.630816 79.968326 
L 662.927241 84.562266 
L 664.223667 80.233359 
L 665.520092 85.578223 
L 666.816517 80.895949 
L 668.112943 86.63837 
L 669.409368 87.080087 
L 670.705794 81.646873 
L 672.002219 82.265289 
L 673.298644 83.634643 
L 674.59507 79.084877 
L 675.891495 79.968326 
L 677.18792 80.454217 
L 678.484346 79.34991 
L 679.780771 82.000255 
L 681.077196 78.81983 
L 682.373622 80.14501 
L 683.670047 82.088605 
L 684.966473 85.97578 
L 686.262898 86.903403 
L 687.559323 85.445714 
L 688.855749 84.959808 
L 690.152174 82.088605 
L 691.448599 83.855501 
L 692.745025 81.028458 
L 694.04145 79.040703 
L 695.337876 88.405267 
L 696.634301 91.541518 
L 697.930726 80.233359 
L 699.227152 83.192911 
L 700.523577 80.14501 
L 701.820002 79.703293 
L 703.116428 83.36961 
L 704.412853 83.281261 
L 705.709279 85.136506 
L 707.005704 80.365868 
L 708.302129 83.634643 
L 709.598555 82.441987 
L 710.89498 86.152464 
L 712.191405 77.538839 
L 713.487831 81.470189 
L 714.784256 82.883704 
L 716.080682 82.927878 
L 717.377107 82.70702 
L 718.673532 82.309463 
L 719.969958 82.972053 
L 721.266383 81.470189 
L 722.562808 83.988011 
L 723.859234 81.779397 
L 725.155659 80.233359 
L 726.452084 89.023682 
L 727.74851 81.205156 
L 729.044935 84.562266 
L 730.341361 83.502119 
L 731.637786 87.919375 
L 732.934211 84.827299 
L 734.230637 80.321708 
L 735.527062 81.691048 
L 736.823487 83.899676 
L 738.119913 82.530322 
L 739.416338 84.562266 
L 740.712764 76.434518 
L 742.009189 83.546294 
L 743.305614 85.092332 
L 744.60204 84.73895 
L 745.898465 84.518091 
L 747.19489 81.337666 
L 748.491316 82.839529 
L 749.787741 80.14501 
L 751.084167 78.996528 
L 752.380592 87.34512 
L 753.677017 81.867732 
L 754.973443 79.394085 
L 756.269868 83.855501 
L 757.566293 81.602699 
L 758.862719 78.643146 
L 760.159144 80.630901 
L 761.455569 90.216338 
L 762.751995 87.389295 
L 764.04842 83.94385 
L 765.344846 85.136506 
L 766.641271 81.867732 
L 767.937696 78.952354 
L 769.234122 85.578223 
L 770.530547 80.807599 
L 771.826972 82.530322 
L 773.123398 80.851774 
L 774.419823 84.915634 
L 775.716249 88.140234 
L 777.012674 84.694775 
L 778.309099 78.024731 
L 779.605525 89.156206 
L 780.90195 83.016227 
L 782.198375 85.401539 
L 783.494801 85.401539 
L 784.791226 84.297218 
L 786.087652 86.373337 
L 788.680502 78.687321 
L 789.976928 81.735222 
L 791.273353 83.060402 
L 792.569778 79.791627 
L 793.866204 84.164709 
L 795.162629 85.224841 
L 795.162629 85.224841 
" clip-path="url(#p1312facac3)" style="fill: none; stroke: #1f77b4; stroke-width: 1.5; stroke-linecap: square"/>
   </g>
   <g id="line2d_33">
    <path d="M 472.352712 160.12502 
L 473.649137 117.531764 
L 474.945563 126.658894 
L 477.538413 43.90625 
L 478.834839 18.654545 
L 480.131264 129.70127 
L 481.427689 99.277506 
L 482.724115 144.000431 
L 484.02054 153.12756 
L 485.316965 181.421655 
L 486.613391 145.825859 
L 487.909816 201.805575 
L 489.206242 184.464031 
L 490.502667 142.175002 
L 491.799092 243.790364 
L 493.095518 198.154725 
L 494.391943 157.995365 
L 495.688368 131.830925 
L 496.984794 161.646208 
L 498.281219 225.231872 
L 499.577645 223.10221 
L 500.87407 222.189496 
L 502.170495 126.658894 
L 503.466921 223.406443 
L 504.763346 199.980154 
L 506.059771 180.813181 
L 507.356197 57.596958 
L 508.652622 140.653814 
L 509.949048 212.758126 
L 511.245473 202.414049 
L 512.541898 35.996082 
L 513.838324 166.818254 
L 515.134749 180.813181 
L 516.431174 233.75052 
L 517.7276 137.611437 
L 519.024025 228.578482 
L 520.320451 138.219918 
L 521.616876 137.915678 
L 522.913301 234.359001 
L 524.209727 210.32423 
L 525.506152 137.915678 
L 526.802577 206.67338 
L 528.099003 139.741106 
L 529.395428 141.262295 
L 530.691853 234.967475 
L 531.988279 140.958054 
L 533.284704 207.281854 
L 534.58113 209.411516 
L 535.877555 209.107276 
L 537.17398 120.878381 
L 538.470406 118.444472 
L 539.766831 96.53937 
L 541.063256 86.499519 
L 542.359682 90.758858 
L 543.656107 97.452077 
L 544.952533 94.409701 
L 546.248958 159.516553 
L 547.545383 157.995365 
L 548.841809 162.558929 
L 550.138234 91.367324 
L 551.434659 96.53937 
L 552.731085 95.930889 
L 554.02751 98.060558 
L 555.323936 91.063084 
L 556.620361 94.713941 
L 557.916786 96.23513 
L 559.213212 165.297065 
L 560.509637 106.883447 
L 561.806062 179.291993 
L 563.102488 210.628464 
L 564.398913 208.498802 
L 565.695338 212.453893 
L 566.991764 206.977614 
L 568.288189 220.059834 
L 569.584615 152.214853 
L 570.88104 209.411516 
L 572.177465 203.935237 
L 573.473891 220.364067 
L 574.770316 225.840346 
L 576.066741 225.231872 
L 577.363167 229.795437 
L 578.659592 164.992825 
L 579.956018 225.840346 
L 581.252443 229.186963 
L 582.548868 228.882722 
L 583.845294 229.795437 
L 585.141719 228.274248 
L 586.438144 229.795437 
L 587.73457 230.09967 
L 589.030995 228.274248 
L 590.327421 232.229332 
L 591.623846 231.316625 
L 592.920271 196.025063 
L 594.216697 234.359001 
L 595.513122 232.229332 
L 596.809547 230.708151 
L 598.105973 233.142046 
L 599.402398 232.533573 
L 600.698823 232.837813 
L 601.995249 235.271708 
L 603.291674 236.184423 
L 604.5881 233.75052 
L 605.884525 234.054761 
L 607.18095 241.356465 
L 608.477376 242.877653 
L 609.773801 243.790364 
L 611.070226 247.136977 
L 612.366652 245.007315 
L 614.959503 246.224266 
L 616.255928 247.745455 
L 617.552353 246.83274 
L 618.848779 247.136977 
L 620.145204 242.573413 
L 621.441629 213.062366 
L 622.738055 222.189496 
L 624.03448 178.075045 
L 625.330906 168.947908 
L 626.627331 173.815714 
L 627.923756 166.818254 
L 629.220182 167.122494 
L 630.516607 164.080118 
L 631.813032 164.992825 
L 633.109458 157.691124 
L 634.405883 159.820794 
L 635.702309 159.820794 
L 636.998734 159.212313 
L 638.295159 159.212313 
L 639.591585 155.865696 
L 640.88801 163.775877 
L 642.184435 157.995365 
L 643.480861 161.950448 
L 644.777286 157.995365 
L 646.073711 160.12502 
L 647.370137 163.471637 
L 648.666562 159.516553 
L 649.962988 160.12502 
L 651.259413 162.86317 
L 652.555838 160.42926 
L 653.852264 161.341982 
L 655.148689 163.471637 
L 656.445114 162.558929 
L 657.74154 168.643682 
L 659.037965 170.16487 
L 660.334391 160.733501 
L 661.630816 166.514013 
L 662.927241 161.646208 
L 664.223667 163.775877 
L 665.520092 163.167396 
L 666.816517 165.601306 
L 668.112943 163.775877 
L 669.409368 169.252149 
L 670.705794 164.992825 
L 672.002219 169.252149 
L 673.298644 161.037741 
L 674.59507 162.558929 
L 675.891495 168.947908 
L 677.18792 171.077578 
L 678.484346 163.775877 
L 679.780771 162.254689 
L 681.077196 164.992825 
L 682.373622 164.688584 
L 683.670047 162.86317 
L 684.966473 164.384358 
L 686.262898 163.775877 
L 687.559323 165.905532 
L 688.855749 163.167396 
L 690.152174 164.384358 
L 691.448599 164.384358 
L 692.745025 169.252149 
L 694.04145 163.471637 
L 695.337876 169.252149 
L 696.634301 164.384358 
L 697.930726 164.992825 
L 699.227152 163.167396 
L 700.523577 164.080118 
L 701.820002 169.252149 
L 703.116428 165.905532 
L 704.412853 169.556389 
L 705.709279 165.601306 
L 707.005704 169.252149 
L 708.302129 164.080118 
L 709.598555 166.209773 
L 710.89498 164.688584 
L 712.191405 165.905532 
L 713.487831 163.775877 
L 714.784256 164.992825 
L 716.080682 165.905532 
L 717.377107 164.992825 
L 718.673532 166.209773 
L 719.969958 169.252149 
L 721.266383 169.252149 
L 722.562808 166.209773 
L 723.859234 168.947908 
L 725.155659 165.297065 
L 726.452084 169.556389 
L 727.74851 164.688584 
L 729.044935 164.688584 
L 730.341361 165.297065 
L 731.637786 168.035201 
L 732.934211 167.730961 
L 734.230637 168.643682 
L 735.527062 164.688584 
L 736.823487 165.905532 
L 738.119913 170.469097 
L 739.416338 166.209773 
L 742.009189 165.601306 
L 743.305614 169.252149 
L 744.60204 166.514013 
L 745.898465 168.339442 
L 747.19489 166.209773 
L 748.491316 167.730961 
L 749.787741 166.818254 
L 751.084167 165.297065 
L 752.380592 168.035201 
L 753.677017 166.514013 
L 754.973443 164.384358 
L 756.269868 168.339442 
L 757.566293 169.252149 
L 758.862719 168.947908 
L 760.159144 169.252149 
L 761.455569 165.297065 
L 762.751995 168.643682 
L 764.04842 164.992825 
L 765.344846 165.601306 
L 766.641271 164.992825 
L 767.937696 166.818254 
L 769.234122 167.42672 
L 770.530547 167.730961 
L 771.826972 167.42672 
L 773.123398 166.209773 
L 774.419823 165.297065 
L 775.716249 165.297065 
L 777.012674 166.818254 
L 778.309099 169.252149 
L 782.198375 169.252149 
L 783.494801 165.905532 
L 784.791226 165.601306 
L 786.087652 169.252149 
L 787.384077 168.339442 
L 788.680502 169.252149 
L 789.976928 167.122494 
L 791.273353 167.122494 
L 792.569778 165.601306 
L 793.866204 168.947908 
L 795.162629 167.730961 
L 795.162629 167.730961 
" clip-path="url(#p1312facac3)" style="fill: none; stroke: #ff7f0e; stroke-width: 1.5; stroke-linecap: square"/>
   </g>
   <g id="patch_9">
    <path d="M 456.212216 259.2 
L 456.212216 7.2 
" style="fill: none; stroke: #000000; stroke-width: 0.8; stroke-linejoin: miter; stroke-linecap: square"/>
   </g>
   <g id="patch_10">
    <path d="M 811.303125 259.2 
L 811.303125 7.2 
" style="fill: none; stroke: #000000; stroke-width: 0.8; stroke-linejoin: miter; stroke-linecap: square"/>
   </g>
   <g id="patch_11">
    <path d="M 456.212216 259.2 
L 811.303125 259.2 
" style="fill: none; stroke: #000000; stroke-width: 0.8; stroke-linejoin: miter; stroke-linecap: square"/>
   </g>
   <g id="patch_12">
    <path d="M 456.212216 7.2 
L 811.303125 7.2 
" style="fill: none; stroke: #000000; stroke-width: 0.8; stroke-linejoin: miter; stroke-linecap: square"/>
   </g>
   <g id="legend_2">
    <g id="patch_13">
     <path d="M 726.903125 45.1125 
L 804.303125 45.1125 
Q 806.303125 45.1125 806.303125 43.1125 
L 806.303125 14.2 
Q 806.303125 12.2 804.303125 12.2 
L 726.903125 12.2 
Q 724.903125 12.2 724.903125 14.2 
L 724.903125 43.1125 
Q 724.903125 45.1125 726.903125 45.1125 
z
" style="fill: #ffffff; opacity: 0.8; stroke: #cccccc; stroke-linejoin: miter"/>
    </g>
    <g id="line2d_34">
     <path d="M 728.903125 20.298437 
L 738.903125 20.298437 
L 748.903125 20.298437 
" style="fill: none; stroke: #1f77b4; stroke-width: 1.5; stroke-linecap: square"/>
    </g>
    <g id="text_30">
     <!-- train_acc -->
     <g transform="translate(756.903125 23.798437) scale(0.1 -0.1)">
      <defs>
       <path id="DejaVuSans-63" d="M 3122 3366 
L 3122 2828 
Q 2878 2963 2633 3030 
Q 2388 3097 2138 3097 
Q 1578 3097 1268 2742 
Q 959 2388 959 1747 
Q 959 1106 1268 751 
Q 1578 397 2138 397 
Q 2388 397 2633 464 
Q 2878 531 3122 666 
L 3122 134 
Q 2881 22 2623 -34 
Q 2366 -91 2075 -91 
Q 1284 -91 818 406 
Q 353 903 353 1747 
Q 353 2603 823 3093 
Q 1294 3584 2113 3584 
Q 2378 3584 2631 3529 
Q 2884 3475 3122 3366 
z
" transform="scale(0.015625)"/>
      </defs>
      <use xlink:href="#DejaVuSans-74"/>
      <use xlink:href="#DejaVuSans-72" x="39.208984"/>
      <use xlink:href="#DejaVuSans-61" x="80.322266"/>
      <use xlink:href="#DejaVuSans-69" x="141.601562"/>
      <use xlink:href="#DejaVuSans-6e" x="169.384766"/>
      <use xlink:href="#DejaVuSans-5f" x="232.763672"/>
      <use xlink:href="#DejaVuSans-61" x="282.763672"/>
      <use xlink:href="#DejaVuSans-63" x="344.042969"/>
      <use xlink:href="#DejaVuSans-63" x="399.023438"/>
     </g>
    </g>
    <g id="line2d_35">
     <path d="M 728.903125 35.254687 
L 738.903125 35.254687 
L 748.903125 35.254687 
" style="fill: none; stroke: #ff7f0e; stroke-width: 1.5; stroke-linecap: square"/>
    </g>
    <g id="text_31">
     <!-- val_acc -->
     <g transform="translate(756.903125 38.754687) scale(0.1 -0.1)">
      <use xlink:href="#DejaVuSans-76"/>
      <use xlink:href="#DejaVuSans-61" x="59.179688"/>
      <use xlink:href="#DejaVuSans-6c" x="120.458984"/>
      <use xlink:href="#DejaVuSans-5f" x="148.242188"/>
      <use xlink:href="#DejaVuSans-61" x="198.242188"/>
      <use xlink:href="#DejaVuSans-63" x="259.521484"/>
      <use xlink:href="#DejaVuSans-63" x="314.501953"/>
     </g>
    </g>
   </g>
  </g>
 </g>
 <defs>
  <clipPath id="p3baebab6f6">
   <rect x="30.103125" y="7.2" width="355.090909" height="252"/>
  </clipPath>
  <clipPath id="p1312facac3">
   <rect x="456.212216" y="7.2" width="355.090909" height="252"/>
  </clipPath>
 </defs>
</svg>
